$MeshFormat
4.1 0 8
$EndMeshFormat
$Entities
43 0 1 0
1 0.3272086878701335 -0.3780593423882867 1.082179149898438 0 
2 0.3416476388146123 -0.3650063910622951 1.180188313918192 0 
3 0.370455964098759 -0.335778467663563 1.375770584546661 0 
4 0.1855475967311639 -0.464276722177662 0.02634972758063749 0 
5 0.1936852895651079 -0.460941230558968 0.09567105118673974 0 
6 0.3875337494046153 0.3159129968372414 1.005099397129334 0 
7 0.3344260754946856 -0.3716364399140306 1.13119815679165 0 
8 0.3488720949121192 -0.3581681554905611 1.229149011518658 0 
9 0.3632800102138847 -0.3434702544284117 1.326928442507631 0 
10 0.38152152212402 0.3231021950770998 1.054174284729595 0 
11 0.1878489752322124 -0.4633502994150058 0.04611734405476731 0 
12 0.4187370324128927 -0.2724872660520848 1.336412919794577 0 
13 0.4416087267921906 0.233877724883931 1.052108366284392 0 
14 0.4990209037710913 0.02753456282604776 1.061472252118979 0 
15 0.4018623986437337 -0.2974782809273195 1.124133826945832 0 
16 0.3983380531450624 -0.3019872460408795 1.292178896751445 0 
17 0.4633408111013691 0.1876384672743927 1.048676565821413 0 
18 0.4968025807997322 -0.05583446869255827 1.068498273141079 0 
19 0.499652055246295 0.01728379292273 1.000258222615316 0 
20 0.48200994671539 0.1310269217610136 1.002077626657024 0 
21 0.4185105466235732 0.2729266035697758 1.004406098095941 0 
22 0.4008633183072992 -0.2980045859946861 1.404137466772046 0 
23 0.3561781902596267 -0.3502211116546018 1.100358550389196 0 
24 0.381493390474704 -0.3230533894059041 1.114462311263053 0 
25 0.3621523838390759 -0.3439559094856328 1.146244685212081 0 
26 0.4067686230396312 -0.2905126495444197 1.369100232472437 0 
27 0.4998878800864958 -0.001491067616678005 1.102766302323288 0 
28 0.4938141937261326 0.07774480716916798 1.003181468826053 0 
29 0.4139163283570491 0.2797551030707519 1.054066497047996 0 
30 0.4993384727375499 -0.02548320934466665 1.138145368713886 0 
31 0.4659304086041461 0.1800460295390851 1.001830304347611 0 
32 0.4952278701029761 -0.06839459672094041 1.102789400586251 0 
33 0.4910354935821586 0.09288058826801207 1.054762585470723 0 
34 0.3511479349708428 -0.3554583303735686 1.055213871879481 0 
35 0.4792212623469798 0.1422047154746346 1.048982903850554 0 
36 0.2203841480550325 -0.4479618003336768 0.08174179426177808 0 
37 0.3995546618660364 -0.3004130678815772 1.04884202671873 0 
38 0.3779741541206559 -0.3269961590385811 1.072720371465105 0 
39 0.444806657532637 0.227317554077395 1.003109962927244 0 
40 0.4004326615474924 -0.2992692077957794 1.086009453308996 0 
41 0.3867437660456881 -0.316510327371781 1.158148648254089 0 
42 0.497749915435871 -0.04669037926117862 1.029548177217104 0 
43 0.3703119159781144 -0.3355590282262768 1.193571596001943 0 
2 0.1855475967311639 -0.464276722177662 0.02634972758063747 0.4998878800864958 0.3231021950770998 1.404137466772046 0 0 
$EndEntities
$Nodes
44 43 1 43
0 1 0 1
1
0.3272086878701335 -0.3780593423882867 1.082179149898438
0 2 0 1
2
0.3416476388146123 -0.3650063910622951 1.180188313918192
0 3 0 1
3
0.370455964098759 -0.335778467663563 1.375770584546661
0 4 0 1
4
0.1855475967311639 -0.464276722177662 0.02634972758063749
0 5 0 1
5
0.1936852895651079 -0.460941230558968 0.09567105118673974
0 6 0 1
6
0.3875337494046153 0.3159129968372414 1.005099397129334
0 7 0 1
7
0.3344260754946856 -0.3716364399140306 1.13119815679165
0 8 0 1
8
0.3488720949121192 -0.3581681554905611 1.229149011518658
0 9 0 1
9
0.3632800102138847 -0.3434702544284117 1.326928442507631
0 10 0 1
10
0.38152152212402 0.3231021950770998 1.054174284729595
0 11 0 1
11
0.1878489752322124 -0.4633502994150058 0.04611734405476731
0 12 0 1
12
0.4187370324128927 -0.2724872660520848 1.336412919794577
0 13 0 1
13
0.4416087267921906 0.233877724883931 1.052108366284392
0 14 0 1
14
0.4990209037710913 0.02753456282604776 1.061472252118979
0 15 0 1
15
0.4018623986437337 -0.2974782809273195 1.124133826945832
0 16 0 1
16
0.3983380531450624 -0.3019872460408795 1.292178896751445
0 17 0 1
17
0.4633408111013691 0.1876384672743927 1.048676565821413
0 18 0 1
18
0.4968025807997322 -0.05583446869255827 1.068498273141079
0 19 0 1
19
0.499652055246295 0.01728379292273 1.000258222615316
0 20 0 1
20
0.48200994671539 0.1310269217610136 1.002077626657024
0 21 0 1
21
0.4185105466235732 0.2729266035697758 1.004406098095941
0 22 0 1
22
0.4008633183072992 -0.2980045859946861 1.404137466772046
0 23 0 1
23
0.3561781902596267 -0.3502211116546018 1.100358550389196
0 24 0 1
24
0.381493390474704 -0.3230533894059041 1.114462311263053
0 25 0 1
25
0.3621523838390759 -0.3439559094856328 1.146244685212081
0 26 0 1
26
0.4067686230396312 -0.2905126495444197 1.369100232472437
0 27 0 1
27
0.4998878800864958 -0.001491067616678005 1.102766302323288
0 28 0 1
28
0.4938141937261326 0.07774480716916798 1.003181468826053
0 29 0 1
29
0.4139163283570491 0.2797551030707519 1.054066497047996
0 30 0 1
30
0.4993384727375499 -0.02548320934466665 1.138145368713886
0 31 0 1
31
0.4659304086041461 0.1800460295390851 1.001830304347611
0 32 0 1
32
0.4952278701029761 -0.06839459672094041 1.102789400586251
0 33 0 1
33
0.4910354935821586 0.09288058826801207 1.054762585470723
0 34 0 1
34
0.3511479349708428 -0.3554583303735686 1.055213871879481
0 35 0 1
35
0.4792212623469798 0.1422047154746346 1.048982903850554
0 36 0 1
36
0.2203841480550325 -0.4479618003336768 0.08174179426177808
0 37 0 1
37
0.3995546618660364 -0.3004130678815772 1.04884202671873
0 38 0 1
38
0.3779741541206559 -0.3269961590385811 1.072720371465105
0 39 0 1
39
0.444806657532637 0.227317554077395 1.003109962927244
0 40 0 1
40
0.4004326615474924 -0.2992692077957794 1.086009453308996
0 41 0 1
41
0.3867437660456881 -0.316510327371781 1.158148648254089
0 42 0 1
42
0.497749915435871 -0.04669037926117862 1.029548177217104
0 43 0 1
43
0.3703119159781144 -0.3355590282262768 1.193571596001943
2 2 0 0
$EndNodes
$Elements
1 18 1 18
2 2 3 18
1 23 25 7 2 
2 34 23 1 7 
3 6 10 21 29 
4 36 4 11 5 
5 21 29 39 13 
6 39 13 31 17 
7 31 17 20 35 
8 20 35 28 33 
9 28 33 19 14 
10 43 25 2 8 
11 16 26 12 9 
12 22 26 9 3 
13 24 41 25 43 
14 38 24 23 25 
15 15 40 24 41 
16 37 40 38 24 
17 30 27 32 18 
18 27 14 18 42 
$EndElements
