# vtk DataFile Version 2.0
, Created by Gmsh 4.15.2 
ASCII
DATASET UNSTRUCTURED_GRID
POINTS 815 double
0.4985826015472412 0.03762161359190941 1.361872434616089
0.1995972096920013 -0.4584331512451172 0.1452107280492783
0.4948239019760425 0.07066556234569291 1.652977173972471
0.4975541633662274 -0.04907046001223309 1.246581849420253
0.4907254163522156 -0.09578673874343845 1.162792239134966
0.4707472661752494 -0.1684754039732507 1.106567508043381
0.4328349371461561 -0.2502951093253313 1.128701717453225
0.417125769177503 -0.2756910074643261 1.216545714767183
0.4336977432694512 -0.2487527980180654 1.306724951305513
0.4579824986647392 -0.20039918682623 1.386271891395683
0.4998284254251282 -0.004423599544104918 1.592799940707389
0.4998961414026521 0.005813848813740309 1.325722049322226
0.4778101272751891 0.1472489799887104 1.70886026299725
0.4471893910426164 0.2235641309438279 1.758961415524281
0.3995543265182041 0.3005796351731675 1.782955900751265
0.3514591417136492 0.3556339254003248 1.730238246461394
0.3700708369788595 0.3362222720637053 1.641769739801767
0.4138685847339388 0.2805448794604629 1.576125735559071
0.4519163640665124 0.2137122812246267 1.518092245312028
0.4792652663018563 0.1423840876095754 1.45930264735141
0.494755595628088 0.07149809303213109 1.395931540859892
0.4993961772496882 -0.02341048113333833 1.287373779345447
0.4948072558353995 -0.07171673324977562 1.204159612363559
0.4834059807725478 -0.1276547169605635 1.127478490328992
0.4524496546691206 -0.2128067039827261 1.106335244911452
0.4194337689449912 -0.2721677187751588 1.168649208667701
0.4231998687063795 -0.2662590731126118 1.262998516764228
0.4458176016227796 -0.2263711790141858 1.347526546454499
0.498861228190714 0.0328112086285835 1.623417968051244
0.487923757694544 0.1088812449718466 1.681545308013905
0.4642533328586808 0.1856022160567401 1.734792261342971
0.4261693521523623 0.261450165703706 1.780096674964004
0.3699359613777077 0.3363352277763062 1.770000511678055
0.3559328156130206 0.3511516235333716 1.684735416957263
0.3917713437150838 0.310655641480544 1.606641737567379
0.4340972797539424 0.2479594780315286 1.546962683475055
0.4670032381464049 0.1783393890260035 1.489025195033747
0.488406880222697 0.1065867013118211 1.428380333281331
0.4696528670662723 0.1686913427280879 2.5
0.4499542533239972 -0.2178737896425177 1.958008078154932
0.4609900477063616 -0.1933765126701109 2.054246443647065
0.4710932954260804 -0.1675281966008294 2.150234298153656
0.4798759156270718 -0.1400473349764464 2.245903017064179
0.4873734695930864 -0.1112122162393534 2.341273465375614
0.4933505539583692 -0.08102482632798115 2.436220586306381
0.4982640131149099 -0.02162586271170862 2.5
0.4941700667636471 0.07175163534715556 2.5
0.4380740334082688 -0.2409523610384252 1.861514909154513
0.4267370609776879 0.2583448792252748 2.5
0.3673282207142762 0.3388069598810754 2.5
0.2922710224901113 0.404122602431199 2.5
0.2065995979360216 0.4546214890449103 2.5
0.1119483673120783 0.4863088336974246 2.5
0.07509212085379167 0.4942066728062886 2.454130415728741
0.1049069214149489 0.4888652942361352 2.361720265652368
0.3272086878701335 -0.3780593423882867 1.082179149898438
0.2179656753304321 -0.4499845556488217 0.2937247023176419
0.2306720275367986 -0.4435796861273383 0.392628612981088
0.2436883913873516 -0.4365721040803118 0.4914510977484379
0.2570178074554779 -0.4288650300937928 0.5901806370569815
0.2706437440367475 -0.4203761676602371 0.6888045682062498
0.2845028613704174 -0.4111464420501086 0.7873293625698033
0.2985877140604827 -0.4010167544703269 0.8857347592115414
0.312841293276595 -0.3899837461789917 0.9840172319039201
0.1339781896987599 0.4816052561769099 2.266396620681552
0.3416476388146123 -0.3650063910622951 1.180188313918192
0.3560849335231024 -0.3509366013614962 1.278054775933555
0.370455964098759 -0.335778467663563 1.375770584546661
0.3846615787706014 -0.3193290444940452 1.473299411622225
0.3986412540192353 -0.3017285015977968 1.570659195676531
0.4122758973761876 -0.2828197952338693 1.667825107067587
0.4254405990121157 -0.2625251508915962 1.764772834750855
0.498713884541633 0.004870912753005711 0
0.4270887599013549 0.2599267478053296 0.6113534568871698
0.4349959706828009 0.2465158138318181 0.5126515755536799
0.4421356152317271 0.2334364543210757 0.4138458967976567
0.4486400693906828 0.2206764893317587 0.314955568391165
0.4545674543871711 0.2082455033882701 0.2159861905473554
0.4598648348575038 0.1962225012089148 0.1169320355367488
0.4640247871209062 0.1861734361601603 0.03172540459182077
0.4884474927050576 0.1037700996551303 0
0.4184775167796144 0.2735941899977451 0.7099609928213264
0.4907582234726818 -0.09431027222951108 0
0.4612843221804906 -0.189887656932019 0
0.4146564894074617 -0.2776697373874497 0
0.3512044881903446 -0.3549555859718179 0
0.2735280556795709 -0.4170411352971702 0
0.1855475967311639 -0.464276722177662 0.02634972758063749
0.1936852895651079 -0.460941230558968 0.09567105118673974
0.2056481788111423 -0.4557284314297653 0.1947303474553714
0.4090424965576447 0.2875097992648822 0.8084594341134329
0.3987140806103426 0.3016367786062933 0.9068368204082978
0.3875337494046153 0.3159129968372414 1.005099397129334
0.3753117745022739 0.3303061939796572 1.103222107790153
0.3620756741245134 0.3447486934705853 1.20120413409513
0.3478325898456671 0.3591809119560427 1.299046676631905
0.332308781799567 0.3735151495311342 1.396710418164442
0.3156672401382159 0.3876875047682474 1.49421094225336
0.2978063981425144 0.4016064757720303 1.591534900376445
0.2785468197833242 0.415132968507631 1.688644433758181
0.258038060466124 0.4282152629425894 1.785558202845517
0.2361059430190147 0.4406811941913074 1.882244701674266
0.2127202184158385 0.4523896545498389 1.978680664117526
0.1879948757414462 0.4632783544128677 2.074878209354739
0.1616964517119135 0.4730384152886311 2.170783889393812
0.211771111879271 -0.4529125079028656 0.2442350994089026
0.2242810337386246 -0.4468523297469267 0.3431859456588813
0.23712902094481 -0.4401811213310388 0.4420541108721949
0.2503237848768677 -0.4327889589028346 0.5408252676692897
0.2637947147576983 -0.4247268542813247 0.6395066445974081
0.2775418931173633 -0.4158689920665948 0.7380815980347503
0.2915267176909602 -0.4061680676379269 0.836543706764207
0.3056911366152489 -0.3956522024290272 0.9348964129908239
0.3200138319019494 -0.3841253178544616 1.033112712562897
0.3344260754946856 -0.3716364399140306 1.13119815679165
0.3488720949121192 -0.3581681554905611 1.229149011518658
0.3632800102138847 -0.3434702544284117 1.326928442507631
0.3775830826899458 -0.327695016404536 1.424554963370587
0.3916943974512281 -0.3107212855191923 1.522008131526294
0.4054969647232523 -0.2924026806670745 1.619261713860587
0.418932162566487 -0.2728647935999622 1.716328960545697
0.4318359088865767 -0.2519153419411159 1.813173487101048
0.4440917371778195 -0.2295530485592762 1.909785824100392
0.4556282620005828 -0.2058670268839301 2.006170895940945
0.4661489981831926 -0.1806000076605413 2.102269891396613
0.4756131762992837 -0.1539302727910263 2.198099070942764
0.4838779133389781 -0.1258800309148456 2.293644751795986
0.4905251039665614 -0.09623910872989232 2.388833401566707
0.4956100126165148 -0.06536728776548972 2.483487994625453
0.498845917406061 0.02221651912925994 2.5
0.4839003389055338 0.1207587208340598 2.5
0.4511944584368718 0.2149434538053131 2.5
0.3987545817835591 0.2997161866696177 2.5
0.3313761779451859 0.3731616234206378 2.5
0.2508026782469756 0.4317725455771739 2.5
0.1598007618323024 0.472448739504091 2.5
0.06323960419927191 0.4957514398760361 2.5
0.08972079291475771 0.4917733079917302 2.409222922583997
0.1195836356116015 0.4853784406196516 2.314090191341015
0.1480892951013253 0.4775496482450048 2.218642940410986
0.1749887132943503 0.4682714029853781 2.122859418294152
0.2005325032010377 0.4579472744125346 2.026812277798005
0.2246247271561033 0.4466567268679209 1.930499100746684
0.2472094446632719 0.4345136453038935 1.833924208868033
0.2684919042592648 0.4217509822486908 1.737133436078551
0.2883387320938625 0.4084228665851234 1.640114089028373
0.3068612044445393 0.3946762804588577 1.542891214410256
0.3241984635139835 0.380637702837774 1.445491376471932
0.3401864973595141 0.3663623237219821 1.347895337964655
0.3550641009980166 0.3519681365006783 1.250141340435907
0.3688723883068067 0.3375244505813003 1.152237667984377
0.38152152212402 0.3231021950770998 1.054174284729595
0.3932415032381864 0.3087568536303442 0.9559843082264242
0.4040062734611634 0.2945477528616199 0.8576651603080125
0.4138418387628695 0.2805298868372911 0.7592211586331814
0.422900810795599 0.2667205780791654 0.6606731036025222
0.4311291230234403 0.2531876603784132 0.5620139088868279
0.4386319630824345 0.2399446081589381 0.4632575562973072
0.445499868297606 0.2269961671352687 0.3644159050922594
0.4516623256937009 0.2144261467054009 0.2654789116134998
0.457272167937505 0.2021945381133142 0.1664666756730951
0.4623536569556706 0.1903247765759718 0.06738326484563117
0.4750147066720217 0.1519956833997706 0
0.4963430450820781 0.05465438274459723 0
0.4970174091514316 -0.04498004575384636 0
0.4779602952002439 -0.1428108393857409 0
0.440880554232962 -0.2353362374365794 0
0.3845437973637922 -0.3175943733340699 0
0.3141426977140366 -0.3881621431533201 0
0.2306582716312185 -0.4425358498396777 0
0.1878489752322124 -0.4633502994150058 0.04611734405476731
0.4786917933032099 0.1431096524858054 1.3601360775083
0.4947915882923588 0.07161033748269083 1.319169315589963
0.325476944645218 -0.3783497175935669 0.5270748577132535
0.4701338925321731 -0.1694410583672221 1.54002844590085
0.4869541737684365 -0.1121332856849874 1.622352821471214
0.4986751868745586 -0.0320587407582049 1.719825738422231
0.4282746909064532 -0.2571004958456368 1.44941344672276
0.4707789618235991 -0.1681023055906264 1.48066703038678
0.4187370324128927 -0.2724872660520848 1.336412919794577
0.4870134402961748 0.1125156544760324 1.276024919009936
0.4954112727678048 0.06641172799185605 1.758798622167815
0.497610421543992 0.04716992527111973 1.213302973660937
0.4416087267921906 0.233877724883931 1.052108366284392
0.2685828566301493 -0.4205242252089383 0.1257788066322469
0.4520600349294839 0.2124018700167864 0.9060634281928701
0.4435343298751603 0.229670052876818 0.7111167828508462
0.4893814350173503 -0.1000978824161155 0.1951137905860148
0.4182600704739651 -0.2739382468027025 1.129029606553293
0.4209893132958459 -0.2696579180389893 1.029600214657749
0.3245224590902966 0.3802354066422287 1.658538871594138
0.1965735514868378 0.4587720929052024 2.332173612786231
0.1772906732792084 0.4668215815669302 2.414113640940727
0.2545458785026932 0.4298171952696616 2.417188125187423
0.2291750828134541 0.4436347545402063 2.24748078681741
0.2522500603562197 0.4310163708279299 2.352255917374768
0.2579899709877498 0.4281457120733634 2.149911073792387
0.2781388596989647 0.4147549797848204 2.054488264855665
0.2967011043262639 0.402382761791199 1.966386103668205
0.3152258989927897 0.3877559558484019 1.885740732845626
0.3295284203497896 0.3756256135614234 2.40608208825006
0.478278075730715 -0.1453911973349766 1.790559024778532
0.4937589926275937 -0.07795786983017793 1.865025814630279
0.4998250985702322 0.01183693612409923 1.830212533792038
0.4610431447617117 -0.1918118157900559 1.67516467400829
0.4433047451413666 -0.2303837654389719 1.581629036970607
0.4906796099381528 -0.09362404390425196 2.068871620628478
0.4839270357645829 -0.1246348676438972 1.978069585363173
0.476571201792066 -0.1496382219475852 1.890581499671516
0.4976612286191306 -0.04399406825355778 1.947004761342044
0.4998400243614893 -0.005012132852113434 2.032270130051305
0.4979787811636467 0.0373867879180553 2.12594849401989
0.4978213661282302 -0.03056050061539655 2.258273760807224
0.4960713633338661 -0.06093642951387719 2.162979412249733
0.4993521052737142 -0.004287176553304056 2.349954388749808
0.4907163169669803 0.09376705124581493 2.323630500794384
0.499163333420966 0.01724750219732589 2.4311862818809
0.494648424398717 0.07040237642353704 2.226488171536507
0.4872718912894429 0.1101162396585577 2.414205698154388
0.4665769226999024 0.1775156946049777 2.199910909725073
0.4759162196983889 0.1524513182834646 2.076865663406444
0.4749969890219288 0.1558639876940097 1.925659032009052
0.498838634028984 0.03090786078159961 1.913373706193158
0.4934488070326651 0.0796874296311972 1.986982695841778
0.4568883980238278 0.202991472453375 1.996462787003926
0.4598691889184022 0.1949128363461557 2.305793169147496
0.4546139672452089 0.2065469432966093 2.40488281525643
0.4013512966527855 0.2977025497403064 2.401309056365506
0.4125943935644081 0.2817108755046549 2.183854124232063
0.4040669237253737 0.2925786639878922 2.296016677511751
0.3808142265711026 0.3238750509544872 1.842170911186992
0.3491540823112002 0.357498851109824 2.073870768055694
0.3737138870360465 0.3319819819478442 1.9153281379038
0.3597536515264965 0.3470155997333518 1.99461688542
0.3139958237706273 0.3884260123054389 2.29599457246933
0.3386340398728923 0.367624720875097 2.1733796387044
0.4320392031927808 0.2515972437093944 1.937474162527601
0.4181938981437823 0.2740198139810452 2.049674434431238
0.3549312667449521 0.3520710752286859 1.523251133923908
0.371395116925608 0.3339480773671886 1.403833479091319
0.3359609465170533 0.3701614265796273 1.819706488129623
0.3597828553604985 0.346869957805293 1.576297779273181
0.3848530486903035 0.318580065981342 1.469455541197984
0.3883958939644345 0.3143127308162421 1.326385454198136
0.4059960199837239 0.2909769411040308 1.269837001793129
0.4061892509049495 0.2904684453577521 1.366698799252437
0.4424888890235834 0.2318875642509921 1.326149424538489
0.4299222615707642 0.2548080591035526 1.413075266230983
0.4309009962924189 0.2535546380193609 1.84663194647735
0.4922941418727524 0.0863620109356123 1.872511229954718
0.4759186593358331 0.1532634327345284 1.824120511326213
0.4881043870574004 0.1074499615546159 1.159881223520145
0.4739979021051629 0.1588574819682254 1.120591238744075
0.4689644866122575 0.1723458563410935 1.230551919391201
0.4804385746105511 0.1353746610299453 0.7138119752899255
0.3614320114843494 -0.3446230162212366 0.8586754736181236
0.4883507848076013 -0.1070653555266578 1.047667097329172
0.4999014597478126 -0.003694510559949953 0.8113318244538528
0.493379595983051 0.07664953607524394 0.3279856954782695
0.4228879938869271 0.2656087117796982 0.9552915714054426
0.4422649128740219 -0.2329108384608937 0.9830120925792912
0.4614777295292308 0.1905057330521843 0.7607481758424303
0.4629567211080457 0.1883415414186745 0.4173959483494395
0.4381652643128197 0.2403774252665543 1.16467710524309
0.4601294219303639 0.1952456882851954 0.4664651069250457
0.3692068172074284 -0.3353633278541303 0.6165970697544252
0.3985153503409609 -0.3016326143776065 1.011217624518728
0.2424916925068083 -0.4367324000632667 0.1863896990766468
0.4969218543212718 0.04022086465381146 0.1374392545291788
0.2633816473785058 -0.4239724129310375 0.3366705571241559
0.3194596828546629 -0.3831457242487278 0.4782578597359572
0.4820915495626643 -0.1289854759913172 0.2957969301673257
0.4960297802403694 -0.06099569095188517 0.1439265002839662
0.4819626662718276 -0.1317244545507752 0.04918334246714413
0.4755091766429543 -0.1543375663152781 1.037779156050352
0.2764389054653295 -0.4159923294703577 0.4355808945436601
0.3076227665973908 -0.3936005435456537 0.3799050841362278
0.487761696365506 0.1071407785913652 0.5214968430630142
0.3015823281712451 -0.3984500314892765 0.6316617006866927
0.4787911269654436 0.1423539591097298 0.7616892088553702
0.4802817034866503 -0.1384466697728003 0.2471389830414432
0.4973368865889057 0.04797028325064782 0.8106643160321074
0.4963422744845425 -0.05579424488139763 0.4364169604770399
0.484402061153039 0.1214355321425664 0.6179559671567226
0.4591894122443974 -0.1978236179003003 1.037526540219789
0.4846284971199341 -0.1206562398940213 0.09800937354017085
0.4991989263314027 -0.02042995745751709 0.6731885763070831
0.4941191150906296 0.07224090612050811 0.6205352295863346
0.4648605459501304 0.1836919623753622 0.7124171819419701
0.4981576301315708 -0.0406237756634993 0.5320096025147468
0.4997575431843151 -0.01083255730376819 0.141013035934681
0.4985289573545382 0.0349007198319856 0.3803132387874714
0.4931288516612435 -0.08237790039350451 0.5831243749764548
0.4978093091269033 -0.04536003627999859 0.9435862139201143
0.4991458059598478 -0.01468487615690923 0.3842623519946753
0.4975959365523017 0.04272644898309032 0.4285169305052088
0.4901386693608955 0.09214095938544369 0.4247545299330245
0.4980070006519056 -0.03186568413729614 0.2879990573863966
0.4551673932806433 -0.2069166745679613 1.086193921005902
0.4715912476265995 0.1621567819012473 0.5670497503981444
0.4960459097304858 0.05033465014263606 0.4766625952391607
0.2335888881924154 -0.441395462481872 0.1349930734242283
0.4857219408341445 0.1141512125227986 0.5698233373881713
0.485128429270685 -0.1209219936572621 1.103842681312992
0.4605536812832885 -0.1945814224763366 1.008360863898488
0.3305226205834834 -0.3738970991011438 0.8716814566267832
0.4708762218361245 0.1673166707358862 0.2704129405649985
0.336729578914184 -0.369531146393386 0.3243021848225433
0.4843226606155024 0.1218705997905763 0.04027908723488147
0.2551401089599979 -0.4292527223949426 0.06932816231638968
0.4983882171316628 -0.02684642482412369 0.6264676145961371
0.4893887513085654 -0.1002379238082419 1.826026466268521
0.4864789558051648 -0.1128033803327381 1.881862365700867
0.4742625077961755 -0.1563934965141932 1.846776930020844
0.4867129219397823 0.1135749357339657 1.900109747174086
0.4871463278495086 0.1122726056405414 1.846563616557158
0.4722390759120204 0.1641198086352581 1.876077882104923
0.3425533791326663 -0.3640713732094051 0.6719410842818261
0.4480674459119156 0.2197090250044304 0.9545332710795009
0.4990209037710913 0.02753456282604776 1.061472252118979
0.4866844089762647 0.1134004203413469 0.9054531444686521
0.4691279109824221 0.1718884687716591 0.953924522145191
0.4573650829268782 -0.2019528156260058 1.063431827119611
0.4018623986437337 -0.2974782809273195 1.124133826945832
0.4943233263888575 -0.06968802886573099 0.6763567088811241
0.3519559232950484 0.3547858129768342 2.032525213997374
0.3819027202992699 0.3224135219908517 2.074922932843718
0.3874750865402133 0.3154024582047568 2.009868305795016
0.4682419549639918 0.1743803139587606 0.3193395932030056
0.3983380531450624 -0.3019872460408795 1.292178896751445
0.4668475448651035 0.1781492770977109 2.026148373053974
0.4438748792758189 0.2300852532033541 2.019273973232249
0.4504734995480613 0.2165149498260693 2.079990236571179
0.4633408111013691 0.1876384672743927 1.048676565821413
0.4655705748197982 -0.178701095649941 0.05022112640313307
0.4844727999687843 -0.1202901980895819 0.3442122352257453
0.4991011890750582 -0.02373446032394028 2.446070903782421
0.499124476634701 0.02452131065429864 2.465982981652763
0.3375637220094341 0.3679285594654011 1.524052242877556
0.3320677610518899 0.3728443593806843 1.569321320440958
0.3599841364282972 0.346535485953375 1.543474878348449
0.485188122932817 0.1206168076113815 1.395440784367745
0.4692281393472699 0.1721047027379649 1.413022020488697
0.4995738878755487 0.01483054235889877 1.877611879181401
0.4965604492935492 0.05720157936375291 1.847434399274002
0.4959454505299668 0.06184553949348887 1.896388323137198
0.4084296482829826 -0.2859884539572287 1.510893293173189
0.4168178669562148 -0.275750202130021 1.464215041151594
0.4980901749953046 0.03918800698529 1.297583517288729
0.4967429371779438 0.0563204751075178 1.342194863266199
0.420559920158712 0.2693457269143725 1.345935546918386
0.4164126759191505 0.2764794556580039 1.390617885359063
0.4403212920716265 0.2365864170134869 1.377081783846543
0.3896895024464522 0.313171103084594 1.55202278923892
0.3763456690950974 0.3290419498676785 1.595270296052245
0.4963992111333357 -0.05923213766819982 0.767547720834714
0.4992722970449285 -0.0005857776427289421 0.1883148740661201
0.4847322393766302 0.1215304771952416 0.9536992008976443
0.4991118591353072 0.02623179444459954 1.734663607722785
0.4978910330335731 0.04433090174651941 1.794355193807377
0.4996492815815267 -0.01841694066116559 1.782335170882996
0.4995469810385637 -0.006814566926896432 0.432374457443771
0.4854606408982248 0.118507670116062 0.2752099187641054
0.3102212193903152 0.3920105152257092 1.695324602583037
0.3067105756450398 0.3938922584066002 1.647183166959606
0.4501442211128837 -0.2172344075920954 1.464173987317901
0.4018609923272281 -0.2965031056086254 1.470972996587425
0.4490038824083695 -0.2198955412033226 1.408581002537671
0.3130481987989854 -0.3880626599433916 0.7286409407174613
0.4896975602240353 0.1006714282370609 1.341226854756528
0.4917396746384725 0.08843265669140737 1.295897693819925
0.4812753226234107 0.1345474796877474 1.310028057191528
0.3606038647492011 0.3455071034027538 1.377710295567204
0.3530955228145677 0.3534286357965862 1.420188088434502
0.3538539341278953 0.3524159898318007 1.464019481492697
0.380394484158263 0.3236493669505199 1.431190214714206
0.4907174240233543 0.09251864789524376 0.7627548205286707
0.4769640646860009 -0.1478076573446926 0.1982915530352867
0.3579464456059855 0.3489478530827202 1.835762206602187
0.3805039671547599 0.3243312130421611 1.809042755441291
0.3488562878653989 0.3581097882195889 1.794292699052348
0.3275957147476208 0.3776008378228556 1.746692045761916
0.3094394110500601 0.3923893162536389 1.79656872623987
0.4673968573859558 0.1771129165782671 1.968979020202369
0.4556585516533582 0.2057709319106757 1.921926163665541
0.4464625868953264 0.2248886707345399 1.971134018428649
0.4196017736911071 0.2714437177038306 1.985454434314165
0.4804943750396112 -0.1376176427909128 2.085692478788863
0.4933253440257068 -0.07713045460684032 2.115554437502459
0.487813856920652 -0.1079926620598141 2.180606765714932
0.4836662447042088 -0.1226767491702221 2.133004059264628
0.2828273134809209 -0.4117940655643023 0.484812685628765
0.4995477130666843 -0.01450453860243289 0.7195209519431435
0.4968025807997322 -0.05583446869255827 1.068498273141079
0.4950343725019188 -0.06381795703378844 0.38832317260419
0.2398371604710771 0.4377975304952159 2.041144630745483
0.2169798480385554 0.4503128980856047 2.136453218319156
0.2686625449622262 0.4210200113981601 2.101383875892196
0.2286796014615556 0.4437303639476701 2.088438203115514
0.4927830528655949 0.07910304993028393 0.6680679230686174
0.4590406194217085 0.197980178690026 0.8091578623743033
0.4927209628811978 -0.07876613454977123 2.275583963332262
0.4987437217696312 -0.01690847776759652 2.304951721992607
0.4966485344142804 -0.05087295317584681 2.367454759227381
0.495215930100795 -0.06468384815573872 2.322256773145435
0.4959117075706727 0.05792296071191959 0.5247175998681164
0.4505869000305437 0.2157780936804715 0.6133543594870291
0.4397416919435169 0.2367165497448878 0.7598996222083207
0.4767546497651926 -0.1504385868968814 1.007683114182685
0.4821985283850589 0.1283801270825209 0.6659153127890352
0.4358972789195562 -0.2449265051753688 1.100957154758818
0.4475660867371254 0.2228083380456434 0.6622619453259957
0.4899868295951332 -0.09887571554246662 0.9778952577749243
0.1890435792502224 0.4625443287560737 2.232313410023756
0.2448919718494497 0.4355599363430873 2.199197656865114
0.2036624774726337 0.456542352232027 2.184690538085258
0.3295805873251021 -0.3750238129297396 0.2742517421346687
0.4869885724451962 0.1102743815722854 0.2269910509705739
0.4716283942329228 -0.1655459598974021 1.992237389288714
0.4873853353813948 -0.1095955398001391 2.023028185847875
0.4761482680126249 -0.1518692007866745 2.03878246674321
0.2872455539915926 0.4088262131821291 2.009554075657477
0.2615610512525083 0.4259324214849706 1.949505901958599
0.2507989620072894 0.4322177007642097 1.994778033989192
0.3999849104295097 0.2986597650233176 2.451085078681965
0.3670272881511676 0.3388044614875044 2.402355460397232
0.3310095422605478 0.3740633612376231 2.453432953156415
0.3670100704763683 0.3382473625162354 2.451688018076769
0.499652055246295 0.01728379292273 1.000258222615316
0.4673527157320898 0.1766119026747833 0.6639883529421744
0.49571051835487 0.05974245181010074 0.2317267613503825
0.4897050547016047 -0.09651362563822768 0.4883556427785539
0.3722121306674808 -0.3333688053534725 0.9897830794558813
0.341209930510158 -0.3647001054934704 0.9645303460482891
0.48200994671539 0.1310269217610136 1.002077626657024
0.4185105466235732 0.2729266035697758 1.004406098095941
0.4975715607017781 -0.04534678824355104 2.210695710043877
0.4898031505622639 -0.09310623006538514 2.228202277241071
0.2912979512306011 0.4058951285915002 2.412685924582577
0.2532507898451551 0.4306472479292676 2.45789164618974
0.2927065347012051 0.4048457556541113 2.456092863159709
0.3594098673996589 -0.3462325634241181 0.5204490781274639
0.4523325691752216 0.2107919920548825 2.452656728334808
0.4303033564003818 0.2530128962899922 2.402321180633627
0.4291833036043685 0.2562997397262212 2.451523258107799
0.4918935763571925 0.08111208582844608 0.08753204995178088
0.497593634175948 -0.04795460329855505 1.171149199836664
0.3658058215749326 -0.3408548296266087 0.9034131735954695
0.4921360257366611 0.08767313096555249 1.720472215517314
0.4996118081297176 0.002143017104076505 1.666208873023906
0.4976616784861822 0.04677981842665332 1.693756684437272
0.4465035608676128 0.2245341828027477 1.441069631735382
0.4128512353250748 0.2813247928261592 1.443243832993682
0.4076815214771697 0.2893463766074312 1.503048363282849
0.4308440556940577 0.2534912270832135 1.47593698953538
0.4986536762787022 0.01726350818431807 0.04573817005415266
0.4969485038567592 0.05410939981038591 0.8574599843590179
0.4343222670971664 -0.24750057381763 1.538442148991275
0.4008633183072992 -0.2980045859946861 1.404137466772046
0.4384211769648382 -0.2397846236734431 1.482611985084509
0.2870934256621804 -0.4090570057792424 0.229930903545451
0.491405770240561 0.08442662774412944 0.3763356268827557
0.4907147266903511 0.09212067351090562 0.1327714906237967
0.4890105359789504 0.1016354763770716 0.179379624957414
0.2786809097601062 -0.4143766825959729 0.1786404203047453
0.4619865433165325 -0.1892221478591207 1.899717599952814
0.4800160631432974 -0.1382376895004301 1.933924830824874
0.4669488348181798 -0.1782356676198251 1.945969172742422
0.3561781902596267 -0.3502211116546018 1.100358550389196
0.4858178484866367 0.1160800821568393 2.457332019792093
0.4735949815840831 0.1585806625655821 2.408829702147429
0.4717097313627285 0.163973861320176 2.454574513181187
0.4959093899555623 -0.04802509096223134 0.4842746716667984
0.2941270681767879 -0.4033126443356123 0.28037764832004
0.4699889818825543 0.170466438749631 1.7761971427108
0.4884526673671112 0.1066169037171169 1.786235615211526
0.4831898079422489 0.1280139689780083 1.747761811904541
0.3059280569773506 0.3952746079687187 1.924856453653386
0.283032168951941 0.4118154631999155 1.86415108395698
0.2719948472188771 0.4189675975108388 1.905623060854494
0.4827770315105678 0.1260082619779351 0.323723400963605
0.4274176188628931 0.2583276956094898 0.9063973304443201
0.3541785468132735 -0.3519327864938784 0.4718647529379243
0.2171366899255968 0.4497318802635006 2.416745002388977
0.1687848012174985 0.4700068733525997 2.456725660175925
0.2120135236736217 0.451954780542985 2.457835851598003
0.4540777022450828 0.2092290865877843 1.837918264774087
0.4288476618645916 0.2569803160479759 1.81059112136535
0.4511969008445879 0.2153608527215977 1.796900158149677
0.4418479698255612 -0.2326796692951091 1.696751113003395
0.4251742843084463 -0.2609769598899417 1.60064994706589
0.4517266268149717 -0.2116252485428632 1.627083173655021
0.4343041366965602 -0.247488519666657 1.647900142134528
0.4033123940203627 0.2953566692261584 1.158636480043279
0.4388388879126927 0.2384577754504707 1.103200261810303
0.4092084081393035 0.286613525982497 1.105186009671618
0.4481157928280955 -0.220576176883198 1.520596348699879
0.4168783204566594 -0.2740997736536016 1.554768063657945
0.4988216852490132 0.008438355123472246 0.52823933949711
0.2499520443899933 -0.4324289340788862 0.236921366636544
0.3482849938710728 -0.3573500933464496 0.4230372397874881
0.4989913549353179 -0.02300142137999825 0.3361612520510598
0.381493390474704 -0.3230533894059041 1.114462311263053
0.4756061795060591 0.1524204409310956 0.173444422030649
0.4813374849204873 0.1347677107423157 0.0811457115592587
0.4893465423411909 0.09923753255630371 0.8101101016890259
0.4569448948741823 0.2020164933187259 0.5154854567488408
0.3621523838390759 -0.3439559094856328 1.146244685212081
0.499188560781627 0.007230047315026479 2.392384011228279
0.4981092633747432 -0.03737974820946731 2.40969936404574
0.3971262046736156 -0.3033478086846155 0.9723681125705737
0.3828423341145997 -0.3206593858724329 0.7571744633631459
0.4202975235219308 -0.2707517925205162 1.062738655692978
0.3223610727504683 -0.3815570847756992 0.2235959750211907
0.4800206655765038 -0.1395672359435595 1.517638800004269
0.4260041632214468 -0.2613207041225414 1.399484437703311
0.4391521653749185 -0.2389100956029536 1.430104327155924
0.4770135845509579 0.1482844380801733 0.4697329840145852
0.4790112639860266 0.1409889333553905 0.4210240578952392
0.3368639968784368 -0.3686701768242731 0.6239669761579015
0.4998829943233026 -0.009038330283406788 0.7655551028423727
0.3147051993699883 0.3880481295419955 2.065925165950216
0.3294621844169974 0.3759818784820532 1.981160309469574
0.3212168048774581 0.3824271026325285 2.02234285869367
0.4922522094408855 0.08708051972759662 1.368089661897546
0.493974625373071 -0.07546404040214923 1.592152900947923
0.49362225235209 -0.0773675868577916 1.667384555206858
0.4982893328813511 -0.03889418533675409 1.629736706856123
0.478990951350681 -0.1422707656893024 1.580330419722611
0.4877162934733993 -0.108759970004264 1.554792511207946
0.4067686230396312 -0.2905126495444197 1.369100232472437
0.4179567592552657 -0.274318488868222 1.423462050830954
0.4973491684910005 -0.04930482964946456 2.051242023754427
0.4994320240196414 0.01639898274871328 2.077812549107852
0.4992853587567023 -0.01262747167606011 2.144932532684632
0.4986395271729225 -0.03072372391640279 2.097406567850715
0.3822587477690907 0.3214457402989023 1.25715251258141
0.4196248359209284 0.2711401667865059 1.224698425560388
0.3920716881427516 0.3089642653721387 1.210682532259499
0.339069636033219 0.3673030211994941 1.618119361066313
0.3190419269451608 0.3841512038226451 1.606071923529525
0.4946202122236121 -0.07172054576180642 0.09609810768819267
0.3643645205090242 0.341685606911045 1.504199622278765
0.3790083423933364 0.3260115962192381 1.525949074203228
0.4656045710129537 0.1813607740075373 0.3683497825214749
0.3644848487545975 -0.340774091442881 0.568717585096098
0.4961868143404758 0.06059262783327943 0.9046998517990266
0.4996555894685602 0.01674545425903946 1.244845818979599
0.4996968919502963 0.01190167691371498 1.177408312583351
0.499549900664306 -0.01684629700353251 1.209986142293556
0.4614139399643313 -0.1924713748533887 0.976050745782746
0.3008331728401297 -0.3980539068027862 0.3303162361756003
0.3044499317918314 -0.3964726289060056 0.1187563390267729
0.2986770199228566 0.4009066126831635 2.162691635521305
0.3450046408243137 0.3614334734552055 2.121417491605882
0.3074494305984971 0.3937197289792733 2.112848102578637
0.4029025885564718 0.2960340378571474 2.349797063593886
0.457190515273106 0.201448991415749 2.35602890927774
0.435273873177877 0.2445557037435376 2.299900251755405
0.4330630897210689 0.2495839194680731 2.351894958919154
0.4416100054134017 -0.2343682469001713 1.015854563064847
0.4721377017650459 0.1640889599090675 0.9057672558848779
0.4927452535212252 -0.08291398051266027 0.04818845294288596
0.4996386003875957 0.01125085147317121 0.9498735973755182
0.405363539518192 -0.2925868137801163 1.165817964844408
0.4967282534043361 -0.05462625255851265 0.8123210120198799
0.4978924535327529 -0.04471690632738325 0.9866713291112703
0.4914734053928268 -0.09051417472953625 0.2435328017680356
0.499023871925114 0.01571327100744244 0.5759150624767591
0.2918324083209085 -0.4054116634785913 0.0625935626526192
0.4384101157044913 -0.2403424988899474 1.074212482211321
0.2952904752836384 -0.4028733680165278 0.5828578909882913
0.393135879542513 -0.3088023522517072 0.8901915642130233
0.4982605634751632 0.0356621825349361 0.717339020907376
0.3458975812435774 -0.3597645081006196 1.010068777306486
0.3476320383321326 -0.3588687667573063 0.7195242646621988
0.4696849894963942 0.1694090212668508 0.615539646920123
0.486850386466236 -0.1138108162063382 1.077442437370981
0.3410461697371794 0.365548199911683 1.671271008561728
0.3558404361494421 0.3511337953033231 1.630664319531397
0.4192326243834169 -0.2723977058258373 1.095205334126288
0.4996942500868994 0.001400173633061906 0.8569798064967924
0.4723544630819427 -0.1639281540565351 1.087184900015343
0.4998878800864958 -0.001491067616678005 1.102766302323288
0.3250513356273603 0.3796881518570041 1.850293339190905
0.2951558762468529 0.4033203710936181 1.826930642411071
0.3138944305818316 -0.3880798084320927 0.1720027667803942
0.4315282173465101 0.2509526527655424 0.8575671044522533
0.4603838854538724 -0.1947143314477138 1.444185754536369
0.4056789232882488 0.2922604568111165 1.847066063691844
0.4040217422356279 0.2944888270721345 1.813157941387427
0.4929395671990848 0.08271781327439864 1.24481716432908
0.4965438687564681 0.05821831830494206 1.270594879082157
0.1347243469990184 0.4807785102834404 2.411157319611151
0.1231670913142725 0.4839105728333964 2.455354479860969
0.3426255397918301 -0.3633761655823111 0.3738643547582933
0.4938141937261326 0.07774480716916798 1.003181468826053
0.3750241077082087 -0.3301585414563467 1.031483099241461
0.4976392007126919 0.041801167939845 0.7640080345772184
0.1861407211258519 0.4633864992456714 2.372524783193883
0.1594161820154676 0.4735833454871562 2.322678297819746
0.1466550898466208 0.477395550358177 2.36675896186198
0.329874516954111 0.3756098069465054 1.710932623199603
0.4755808117425191 0.1528985647256063 1.090540795139307
0.4805120149764748 0.1365948864413614 1.138017493986334
0.4941101834891566 0.07596277982871551 1.119905166348818
0.486103633460123 0.1158758409259718 1.101763923298445
0.4139163283570491 0.2797551030707519 1.054066497047996
0.4361970724294107 0.2441020964995202 0.8087443361983454
0.4859548730608181 0.1171680738415134 1.958890205858898
0.4970220287915596 0.0528942347009209 1.949095766615864
0.492248742697963 0.08614485194871412 1.926165153230649
0.4561758453868082 -0.2045145808918796 1.800774511594673
0.4578167533130004 -0.1979481060323688 1.852344257592703
0.4993384727375499 -0.02548320934466665 1.138145368713886
0.4659304086041461 0.1800460295390851 1.001830304347611
0.4932846727598541 -0.07578996553074344 0.6299796971000096
0.4988626827324383 0.02940919907576145 0.670404998637818
0.3193597954481058 -0.3838152581581392 0.7767149000316463
0.3739743696802716 -0.330369630459739 0.664029073784015
0.4999169013423903 0.0007869226370113418 0.4802994710800778
0.289030439420657 -0.4072887713311761 0.5338884627746255
0.3076374432129831 -0.3935977699146138 0.6802989872061366
0.4884385055799534 0.1062034968256276 0.8576091564083097
0.4632432270291 0.1873585448330027 1.343663786708395
0.4558656202561883 0.2052539628255225 1.393718152353054
0.4952278701029761 -0.06839459672094041 1.102789400586251
0.4950378877727625 0.06793422493662653 0.9530009332039515
0.4965922106307814 0.05532023148597229 2.176164639358988
0.4989820635967541 0.01910203035899531 2.241893044943949
0.4994755879661523 0.004070389489093899 2.193407798777827
0.4739956385039031 -0.1590337833733927 1.064298969685368
0.4910354935821586 0.09288058826801207 1.054762585470723
0.4747203894101463 0.1553899015674077 0.5184515737472345
0.3511479349708428 -0.3554583303735686 1.055213871879481
0.4963937290452253 0.05037811280277513 0.1842751135216436
0.4809107420896591 0.1335779981143462 0.372363013451487
0.4990001831771335 -0.02179515584056047 0.09399999881223461
0.477569712207602 -0.1478432433551186 0.9742994778759234
0.4975474524512827 -0.04117445988672258 0.2398821224618582
0.4702639213178663 -0.1681483278247643 0.0998769126733603
0.4989828649940724 0.02268000559692101 0.623274856732719
0.495826285272995 0.06245578405011179 2.421352092742106
0.4949577404100065 0.06854798566642814 2.461038466665427
0.470026425630349 -0.1700332296248734 1.727607248462
0.4499585162432977 -0.2179440316147148 1.747587116019397
0.3430141976926315 0.3631760530787054 1.495346034119945
0.4925611644601961 0.08305153861562489 2.275794476868156
0.4973642622226514 0.04398632855985259 2.335577216839294
0.4978513785675557 0.03232159002128372 2.289502455975601
0.2116020008883197 0.4521994212512384 2.291728543616493
0.1737062299954701 0.4683353019330629 2.278311507575821
0.3659307695191353 0.3396611020904702 2.294272640346016
0.3251863029658381 0.3794008667673214 2.356037515280393
0.3664026179180494 0.3397496148248448 2.35044965942817
0.3720965847315702 0.3333587412616454 1.331356876519472
0.3948579016359837 0.3062035501474377 1.303863973414919
0.3742608451647963 0.3305980276496712 1.297372503852613
0.4792212623469798 0.1422047154746346 1.048982903850554
0.4927299043183591 -0.08103164393895099 0.291904081809996
0.3689046614317688 -0.3367248696109237 0.9471415292057402
0.2203841480550325 -0.4479618003336768 0.08174179426177808
0.2541458520015554 0.4297405565525684 2.380290193573764
0.2290887635036231 0.443867923172202 2.342450309982141
0.2220516361753543 0.4469750104952867 2.377866018603043
0.3253399748351871 -0.3792798542508354 0.824413366302575
0.4948350118966869 0.06862371574301121 0.0437471443441813
0.4997455326490641 0.006283397644287715 0.9028683599901761
0.493492717028621 0.08032616282269864 1.818383401034415
0.4735198146064493 -0.1576193657939394 0.1492405741229396
0.3136901796538383 -0.3884693965733285 0.4291957599491594
0.4403317567557834 -0.2368656960246977 1.046155813928098
0.4756899228905715 -0.1512237482865844 1.650100399517868
0.4582172553051469 -0.1997697793434698 1.561467470499053
0.4674507356061285 -0.1768044064325276 1.604526536637484
0.3565260440214148 -0.3485622714565706 0.8130299445725846
0.4924969538391866 -0.08399040651029374 1.96315978099885
0.4992094352433683 -0.02528212467107577 1.988893684175695
0.4943121456274036 -0.06708082756630876 2.006563000264082
0.4535295899309131 0.2087665811647392 0.5644538744477521
0.4766399907518811 0.1494478897410149 0.8096244854161386
0.4955202622539657 -0.06414349022468742 0.7222179186617121
0.3290581487926624 0.3757697796504963 2.229657259127638
0.408630917801315 0.2878686799692891 2.24047994233969
0.3774234156194708 0.3277295722146247 2.179696198483471
0.3717935815255494 0.334073764991322 2.235994704774698
0.4980720209631894 -0.03362801343309527 0.5793857384853702
0.3522091992246529 -0.3536168670333424 0.7666079145897398
0.473638328933776 0.1600250784321376 0.2217027406876202
0.4998738934619155 -0.005198813632169844 1.930124217462588
0.498251944389168 0.03844186402331168 2.011141337694844
0.4996922124490375 0.01519523622728536 1.969804271326935
0.4956572859603331 -0.06096048614542973 1.905856696180442
0.4897411718814548 -0.09925025080635053 1.921173743756087
0.3995546618660364 -0.3004130678815772 1.04884202671873
0.4981829895834736 -0.03755038290244749 1.846789257187101
0.4993185078361694 -0.02234355335663043 1.890245617418975
0.4944969086041959 0.06846671533293257 0.2797015321616574
0.4744272946748149 0.1565928719647395 0.8576070910606574
0.4892405971219717 0.09977397296888783 0.4731153844291637
0.2693247470728016 0.4202529138111095 2.266400986111421
0.2860967896466213 0.4089553903018117 2.214615001883922
0.4944601710787536 0.06513369815420968 0.5727061660940813
0.3901284643505069 -0.3122108814849593 0.8469932457236597
0.49323784777689 -0.08181482790755583 1.133667734579822
0.4867671171825122 -0.1119780930834399 0.3925068836327689
0.395192711789503 -0.3056324034909142 0.9320515523506144
0.2567922653112785 -0.4281599389548355 0.2869680167872959
0.4985821032026627 0.01815081390301584 0.2839694249956078
0.487104712095245 -0.1100732860821994 0.1466085285308343
0.4777840722346927 0.1441257919208069 0.1262095424881466
0.4798135028789317 0.1393081416714806 1.193840156133981
0.479353412586808 0.1411525185778492 1.254747008157924
0.4938121010266593 0.07699811120490548 1.185235294215333
0.4874434897925616 0.1104491183154301 1.219562529681671
0.487547069811742 0.1100955440884212 2.028665865019435
0.4914866914364045 0.09047113406209688 2.104622800232295
0.4957059692612162 0.06392091517959729 2.055551506959678
0.4163003056606475 0.2764440717517549 2.124112844512455
0.4428293130527469 0.2311960864226948 2.191115894200841
0.4710536360607053 0.1663847009987424 2.142617157832285
0.447085977191669 0.2237501345102107 2.134573215194482
0.397283855573634 -0.3034124986424411 1.205971041259397
0.498238160692076 0.04172081984598278 1.146879402861596
0.4985925803687558 0.02673868340988857 0.3320836410432003
0.3779741541206559 -0.3269961590385811 1.072720371465105
0.4567104920432709 0.2020438090348504 1.274039312890943
0.4710054965485861 0.1669599213673256 1.294730222911345
0.489265183356032 0.1027856428619341 2.369780685653392
0.4967719703361142 0.0541154646943928 2.379649595066885
0.4895187064602714 -0.1017893846920518 1.014337758807442
0.3813676828279702 0.3232404447498033 2.12532262521984
0.4838944281612784 0.1232921741633087 2.212192002300736
0.4633250523545936 0.1870751176327243 2.253876112232521
0.4783318481864559 0.1443714083946895 2.313755490025882
0.4809749165651171 0.134833661363881 2.263848123242759
0.4967198788158217 -0.05085053640476996 0.1918554080915123
0.444806657532637 0.227317554077395 1.003109962927244
0.3787096696976071 -0.3256447996702896 0.7109014044175929
0.4211454171159509 -0.2692999663417683 0.9948773109631627
0.4391624655688527 0.2384873150364382 2.246301551458773
0.4914124495367141 -0.09097170015799751 1.7527150430792
0.4958930365775212 -0.06143466956126671 1.802157401060326
0.4988080626568303 0.009049300510576421 0.2360054615284349
0.4759288902064742 0.1522198654355242 2.361986508805666
0.4877346110760626 0.1091255681561954 2.15884476774723
0.4781276011030011 0.1461863634047796 1.99582002837348
0.4974980272983539 -0.04745978134775764 0.9002593646152423
0.4913187072245502 0.08576247767011093 0.7154449177571109
0.4020459438653588 0.2970664582503331 1.926639148442039
0.4316108894588799 0.2522067665619074 1.887856187686199
0.3782980467949466 0.3267880760488044 1.877351118202834
0.4050755144475828 0.2930798161341118 1.884943838486506
0.345067403989375 0.3615698176232859 1.902333546567988
0.3518214680922443 0.3548686449711087 1.866747708466779
0.4004326615474924 -0.2992692077957794 1.086009453308996
0.2738152462074211 0.4179778842885462 2.333314351105385
0.2861152596260637 0.4090402512306143 2.370874580953308
0.4560094273088498 0.204720832684418 1.20186974132875
0.4255209704028998 0.2617244935933386 1.291913926207273
0.4404959774313763 0.2359541005414386 1.248275662285034
0.4629572912121195 0.1875289717058932 1.133939649239721
0.4612774758401181 0.1917519888462497 1.093144758938657
0.4984487547595189 0.02919773764500526 0.09132163206708303
0.3670948168234425 0.3391462333462894 1.954894332350142
0.3373626542256433 0.3685812685495289 1.940895054267372
0.3901823255102015 0.3121014721316603 1.385679177227172
0.3965594429298428 0.3035485729871102 1.344169452238399
0.3804955967040945 0.3241694671729786 1.359508226754025
0.3312157642982823 -0.3734621116980263 0.5756524936459304
0.3949602805503658 0.306435694281108 1.968878280363827
0.4097870350355952 0.2861891876980039 1.322019661451192
0.460357844256495 -0.1942265060600153 1.501157694611646
0.4710073711080356 0.1666628247796765 1.166248624626002
0.2461124863937489 0.4346352831730405 2.308737515007928
0.454458314213195 0.2082094865221556 1.880899190854401
0.4006760985228129 0.298730590794643 1.41273019259924
0.3867437660456881 -0.316510327371781 1.158148648254089
0.4839310755010937 -0.122772682379475 1.699261572287221
0.3364232738223165 -0.3697421381796079 0.9184336504729015
0.497105125453462 -0.05063885574654881 0.8565406401531582
0.4841769011469967 -0.1240582366883125 1.850124295466749
0.4824387535101754 0.131170093519634 1.874175198054814
0.3868477826780343 -0.3162278797373162 0.8026406564260142
0.497749915435871 -0.04669037926117862 1.029548177217104
0.3759246936998689 0.3295246845888544 2.039230764034488
0.4938358202679506 -0.07219187678591932 0.3401784448521111
0.4535417806236544 0.2097267846887185 2.041380882794591
0.4980705571548024 -0.03327146463338884 0.04710078911287334
0.4995349621921381 -0.007847220879379248 2.471145029485757
0.3423712650243629 0.3640504906071862 1.546537394803196
0.4786232411752406 0.1440463397742115 1.424220282257205
0.4979054438082997 0.04388485554152642 1.872917948456509
0.4245433713436449 -0.2625333812476462 1.498365718745039
0.4989194174780691 0.0312600607982728 1.322327853716801
0.4263790768672092 0.2601709267607882 1.369928458316859
0.3955550517480823 0.3057319074645179 1.575543949659923
0.2699675907288906 -0.4200253216325569 0.3862054791939752
0.4995756645974406 0.01640191893038817 1.77004511086025
0.3819161510416923 -0.3222617741553452 1.242746648965829
0.296459978812785 0.4023538303034193 1.677827911360978
0.3977760486926509 -0.301434658360947 1.437228785550702
0.4551584623392997 0.2048716197296615 0.8575519508599365
0.4878470994970179 0.1086218625515019 1.317077700395435
0.3472845009467199 0.3592362475620634 1.398642958844178
0.3619432373153437 0.3444469386628132 1.439046792353255
0.4878742761900548 -0.1039548682715687 0.4405406988146322
0.3627110352494974 0.343982845620963 1.811827502420463
0.3278085261383911 0.3773255359593232 1.777386188133527
0.4565638291063123 0.2034860995571568 1.953614665289002
0.4368383596185244 0.2428630952359254 1.993241349904729
0.3703119159781144 -0.3355590282262768 1.193571596001943
0.4913476076446764 -0.08915309945542874 0.5359493199086253
0.4355696593620588 -0.244966482126815 1.373649110054407
0.4109289664450331 -0.2841071930288122 1.441568405293512

CELLS 2336 7518
2 246 624
2 624 171
2 246 726
2 726 253
2 253 711
2 711 251
2 251 605
2 605 319
2 246 759
2 759 244
2 244 536
2 536 149
2 149 94
2 94 538
2 538 537
2 537 760
2 760 726
2 726 727
2 727 371
2 371 803
2 246 350
2 350 245
2 245 766
2 766 239
2 239 373
2 373 147
2 147 97
2 97 146
2 146 339
2 339 241
2 246 352
2 352 247
2 247 452
2 452 242
2 791 341
2 341 524
2 524 349
2 349 794
2 791 342
2 342 625
2 625 352
2 352 795
2 791 19
2 19 36
2 36 451
2 451 247
2 247 351
2 351 245
2 245 767
2 767 243
2 792 343
2 343 696
2 696 692
2 692 693
2 693 466
2 466 467
2 467 39
2 39 123
2 123 418
2 418 207
2 207 676
2 676 209
2 209 689
2 689 222
2 222 345
2 345 249
2 249 315
2 315 250
2 792 344
2 344 668
2 668 475
2 475 476
2 476 12
2 12 29
2 29 448
2 448 181
2 181 359
2 359 203
2 792 345
2 345 611
2 611 609
2 609 746
2 746 330
2 330 787
2 794 11
2 11 0
2 0 349
2 349 172
2 172 370
2 370 180
2 180 712
2 712 253
2 253 758
2 758 263
2 794 348
2 348 592
2 592 591
2 591 714
2 714 711
2 711 773
2 773 761
2 761 762
2 762 333
2 333 615
2 615 321
2 321 561
2 561 698
2 698 680
2 680 279
2 279 254
2 254 409
2 409 283
2 283 302
2 302 277
2 277 699
2 699 296
2 296 461
2 461 258
2 258 697
2 697 430
2 430 635
2 635 268
2 268 763
2 763 455
2 455 72
2 72 164
2 164 788
2 788 637
2 637 290
2 290 356
2 356 743
2 743 708
2 708 724
2 724 291
2 291 295
2 295 300
2 300 405
2 405 702
2 702 287
2 287 399
2 399 748
2 748 376
2 376 505
2 505 623
2 623 320
2 320 357
2 357 434
2 434 658
2 658 603
2 603 252
2 250 486
2 486 248
2 248 589
2 589 230
2 230 378
2 378 240
2 240 382
2 382 144
2 144 363
2 363 190
2 190 539
2 539 241
2 250 316
2 316 221
2 250 315
2 315 249
2 249 345
2 345 222
2 222 689
2 689 209
2 209 676
2 676 207
2 207 418
2 418 123
2 123 40
2 40 420
2 420 419
2 419 678
2 678 677
2 677 691
2 691 610
2 610 611
2 611 314
2 314 782
2 250 475
2 475 181
2 181 358
2 358 176
2 250 474
2 474 30
2 30 12
2 12 476
2 476 475
2 475 668
2 668 344
2 344 792
2 795 351
2 351 776
2 776 375
2 375 805
2 795 350
2 350 771
2 771 656
2 656 657
2 657 95
2 95 149
2 149 536
2 536 244
2 244 759
2 759 246
2 796 353
2 353 543
2 543 542
2 542 646
2 646 97
2 97 147
2 147 373
2 373 239
2 239 766
2 766 245
2 245 350
2 350 246
2 796 354
2 354 579
2 579 578
2 578 602
2 602 381
2 381 808
2 796 17
2 17 34
2 34 354
2 354 241
2 252 761
2 761 263
2 252 604
2 604 251
2 251 713
2 713 182
2 182 547
2 547 21
2 21 11
2 11 794
2 252 603
2 603 658
2 658 434
2 434 357
2 357 320
2 320 623
2 623 505
2 505 376
2 376 748
2 748 399
2 399 287
2 287 702
2 702 405
2 405 300
2 300 295
2 295 291
2 291 724
2 724 708
2 708 743
2 743 356
2 356 290
2 290 637
2 637 788
2 788 164
2 164 82
2 82 562
2 562 541
2 541 272
2 272 736
2 736 639
2 639 297
2 297 501
2 501 294
2 294 361
2 361 620
2 620 498
2 498 568
2 568 641
2 641 617
2 617 573
2 573 598
2 598 281
2 281 456
2 456 546
2 546 627
2 627 596
2 596 632
2 632 606
2 606 604
2 604 773
2 773 758
2 758 760
2 760 759
2 759 771
2 771 767
2 767 768
2 768 372
2 372 804
2 787 331
2 331 810
2 787 332
2 332 721
2 721 719
2 719 740
2 740 558
2 558 559
2 559 443
2 443 444
2 444 48
2 48 132
2 132 424
2 424 227
2 227 556
2 556 229
2 229 683
2 683 228
2 228 718
2 718 237
2 798 359
2 359 668
2 668 315
2 315 782
2 798 360
2 360 742
2 742 311
2 311 781
2 798 358
2 358 450
2 450 2
2 2 28
2 28 449
2 449 176
2 800 99
2 99 145
2 145 364
2 364 190
2 190 578
2 578 33
2 33 15
2 15 602
2 602 363
2 363 800
2 800 363
2 363 602
2 602 15
2 15 32
2 32 380
2 380 240
2 240 584
2 584 199
2 199 477
2 477 198
2 198 421
2 421 197
2 197 397
2 397 196
2 196 414
2 414 194
2 194 650
2 650 191
2 191 599
2 599 192
2 192 484
2 484 135
2 135 52
2 52 594
2 594 593
2 593 601
2 601 600
2 600 651
2 651 413
2 413 415
2 415 396
2 396 398
2 398 395
2 395 423
2 423 422
2 422 479
2 479 478
2 478 585
2 585 382
2 382 808
2 800 364
2 364 540
2 540 339
2 339 790
2 803 369
2 369 524
2 524 20
2 20 37
2 37 341
2 341 171
2 803 370
2 370 592
2 592 547
2 547 549
2 549 446
2 446 704
2 704 303
2 303 582
2 582 298
2 298 410
2 410 188
2 188 564
2 564 722
2 722 799
2 799 66
2 66 116
2 116 530
2 530 515
2 515 516
2 516 365
2 365 772
2 772 174
2 174 528
2 528 175
2 175 526
2 526 176
2 803 371
2 371 727
2 727 726
2 726 760
2 760 537
2 537 538
2 538 94
2 94 150
2 150 493
2 493 263
2 804 372
2 372 768
2 768 767
2 767 771
2 771 759
2 759 760
2 760 758
2 758 773
2 773 604
2 604 606
2 606 632
2 632 596
2 596 627
2 627 546
2 546 456
2 456 281
2 281 598
2 598 573
2 573 617
2 617 641
2 641 568
2 568 498
2 498 620
2 620 361
2 361 294
2 294 501
2 501 297
2 297 639
2 639 736
2 736 272
2 272 541
2 541 562
2 562 82
2 82 165
2 165 273
2 273 285
2 285 709
2 709 187
2 187 567
2 567 659
2 659 786
2 786 394
2 394 282
2 282 472
2 472 289
2 289 686
2 686 310
2 310 286
2 286 392
2 392 520
2 520 257
2 257 581
2 581 667
2 667 563
2 563 428
2 428 319
2 804 96
2 96 148
2 148 655
2 655 243
2 804 373
2 373 805
2 805 374
2 374 646
2 646 338
2 338 790
2 807 379
2 379 590
2 590 487
2 487 488
2 488 474
2 474 476
2 476 448
2 448 450
2 450 449
2 449 527
2 527 525
2 525 529
2 529 514
2 514 178
2 178 588
2 588 367
2 367 813
2 813 179
2 179 329
2 329 799
2 799 811
2 811 507
2 507 468
2 468 634
2 634 574
2 574 433
2 433 779
2 779 305
2 305 665
2 665 618
2 618 368
2 368 622
2 622 278
2 278 571
2 571 621
2 621 391
2 391 275
2 275 797
2 797 269
2 269 707
2 707 499
2 499 267
2 267 301
2 301 661
2 661 87
2 87 170
2 170 88
2 88 661
2 807 380
2 380 808
2 807 378
2 378 754
2 754 753
2 753 765
2 765 522
2 522 523
2 523 521
2 521 555
2 555 553
2 553 701
2 701 700
2 700 774
2 774 663
2 663 664
2 664 483
2 483 485
2 485 51
2 51 135
2 135 484
2 484 192
2 192 599
2 599 191
2 191 650
2 650 194
2 194 414
2 414 196
2 196 397
2 397 197
2 197 421
2 421 198
2 198 477
2 477 199
2 199 584
2 584 240
2 240 380
2 380 32
2 32 14
2 14 590
2 590 589
2 589 752
2 752 749
2 749 770
2 770 327
2 327 785
2 263 494
2 494 183
2 183 737
2 737 318
2 318 185
2 185 802
2 802 400
2 400 261
2 261 288
2 288 429
2 429 576
2 576 299
2 299 633
2 633 517
2 517 518
2 518 636
2 636 480
2 480 362
2 362 417
2 417 463
2 463 462
2 462 445
2 445 666
2 666 163
2 163 72
2 72 455
2 455 763
2 763 268
2 268 635
2 635 430
2 430 697
2 697 258
2 258 461
2 461 296
2 296 699
2 699 277
2 277 302
2 302 283
2 283 409
2 409 254
2 254 279
2 279 680
2 680 698
2 698 561
2 561 321
2 321 615
2 615 333
2 333 762
2 762 761
2 761 773
2 773 711
2 711 714
2 714 591
2 591 592
2 592 348
2 348 794
2 263 493
2 493 150
2 150 93
2 93 495
2 495 494
2 494 762
2 762 603
2 603 606
2 606 605
2 605 723
2 723 548
2 548 549
2 549 3
2 3 21
2 21 348
2 348 172
2 172 369
2 369 171
2 263 537
2 537 244
2 244 656
2 656 243
2 263 758
2 758 253
2 253 712
2 712 180
2 180 370
2 370 172
2 172 349
2 349 0
2 0 20
2 20 524
2 524 369
2 369 803
2 808 382
2 382 585
2 585 478
2 478 479
2 479 422
2 422 423
2 423 395
2 395 398
2 398 396
2 396 415
2 415 413
2 413 651
2 651 600
2 600 601
2 601 593
2 593 594
2 594 52
2 52 136
2 136 53
2 53 594
2 809 383
2 383 746
2 746 715
2 715 717
2 717 533
2 533 535
2 535 388
2 388 390
2 390 41
2 41 125
2 125 389
2 389 213
2 213 534
2 534 211
2 211 716
2 716 220
2 809 384
2 384 775
2 775 486
2 486 488
2 488 13
2 13 30
2 30 474
2 474 250
2 809 385
2 385 810
2 810 386
2 386 770
2 770 764
2 764 765
2 765 477
2 477 479
2 479 101
2 101 143
2 143 478
2 478 199
2 199 753
2 753 232
2 232 749
2 749 236
2 814 801
2 801 117
2 117 68
2 68 366
2 366 347
2 347 177
2 177 516
2 516 367
2 367 9
2 9 27
2 27 813
2 813 515
2 515 531
2 531 814
2 814 531
2 531 515
2 515 813
2 813 27
2 27 8
2 8 179
2 179 530
2 530 458
2 458 801
2 801 366
2 366 346
2 346 497
2 497 490
2 490 492
2 492 489
2 489 645
2 645 612
2 612 613
2 613 465
2 465 467
2 467 418
2 418 420
2 420 387
2 387 390
2 390 389
2 389 437
2 437 401
2 401 404
2 404 403
2 403 509
2 509 336
2 336 789
2 814 347
2 347 793
2 793 457
2 457 205
2 205 491
2 491 204
2 204 644
2 644 201
2 171 342
2 342 36
2 36 18
2 18 454
2 454 452
2 452 776
2 776 766
2 766 768
2 768 655
2 655 657
2 657 536
2 536 538
2 538 493
2 493 495
2 495 607
2 607 435
2 435 259
2 259 481
2 481 587
2 587 608
2 608 407
2 407 186
2 186 411
2 411 406
2 406 679
2 679 506
2 506 264
2 264 262
2 262 544
2 544 328
2 328 306
2 306 688
2 688 503
2 503 710
2 710 504
2 504 308
2 308 80
2 80 163
2 163 666
2 666 445
2 445 462
2 462 463
2 463 417
2 417 362
2 362 480
2 480 636
2 636 518
2 518 517
2 517 633
2 633 299
2 299 576
2 576 429
2 429 288
2 288 261
2 261 400
2 400 802
2 802 185
2 185 318
2 318 737
2 737 183
2 183 494
2 494 263
2 171 341
2 341 37
2 37 19
2 19 791
2 171 369
2 369 172
2 172 348
2 348 21
2 21 3
2 3 22
2 22 4
2 4 23
2 23 5
2 5 24
2 24 6
2 6 25
2 25 7
2 7 26
2 26 329
2 329 116
2 116 67
2 67 458
2 458 531
2 531 177
2 177 459
2 459 496
2 496 673
2 673 674
2 674 672
2 672 778
2 778 741
2 741 742
2 742 695
2 695 696
2 696 689
2 689 691
2 691 690
2 690 717
2 717 716
2 716 745
2 745 732
2 732 735
2 735 734
2 734 744
2 744 470
2 470 471
2 471 38
2 38 131
2 131 442
2 442 226
2 226 557
2 557 225
2 225 733
2 733 219
2 219 720
2 720 220
2 171 371
2 371 180
2 180 591
2 591 182
2 182 548
2 548 614
2 614 626
2 626 577
2 577 631
2 631 322
2 322 570
2 570 580
2 580 323
2 323 777
2 777 811
2 811 115
2 115 66
2 66 799
2 799 722
2 722 564
2 564 188
2 188 410
2 410 298
2 298 582
2 582 303
2 303 704
2 704 446
2 446 549
2 549 547
2 547 592
2 592 370
2 370 803
2 176 360
2 360 203
2 176 741
2 741 201
2 176 526
2 526 175
2 175 528
2 528 174
2 174 772
2 772 365
2 365 516
2 516 515
2 515 530
2 530 116
2 116 66
2 66 115
2 115 65
2 65 114
2 114 55
2 55 113
2 113 63
2 63 112
2 112 62
2 62 111
2 111 61
2 61 110
2 110 60
2 60 109
2 109 59
2 59 108
2 108 58
2 58 107
2 107 57
2 57 106
2 106 56
2 56 105
2 105 89
2 89 1
2 1 88
2 88 170
2 170 87
2 87 169
2 169 86
2 86 168
2 168 85
2 85 167
2 167 84
2 84 166
2 166 83
2 83 165
2 165 82
2 82 164
2 164 72
2 72 163
2 163 80
2 80 162
2 162 79
2 79 161
2 161 78
2 78 160
2 160 77
2 77 159
2 159 76
2 76 158
2 158 75
2 75 157
2 157 74
2 74 156
2 156 73
2 73 155
2 155 81
2 81 154
2 154 90
2 90 153
2 153 91
2 91 152
2 152 92
2 92 151
2 151 93
2 93 150
2 150 94
2 94 149
2 149 95
2 95 148
2 148 372
2 372 239
2 239 375
2 375 242
2 176 449
2 449 28
2 28 10
2 10 527
2 527 526
2 526 778
2 778 644
2 644 645
2 645 71
2 71 121
2 121 612
2 612 201
2 195 662
2 662 193
2 193 439
2 439 134
2 134 51
2 51 485
2 485 483
2 483 664
2 664 663
2 663 774
2 774 700
2 700 701
2 701 553
2 553 555
2 555 521
2 521 523
2 523 522
2 522 765
2 765 753
2 753 754
2 754 378
2 378 807
2 195 756
2 756 234
2 195 663
2 663 191
2 191 600
2 600 138
2 138 64
2 64 651
2 651 650
2 650 774
2 774 756
2 756 757
2 757 438
2 438 440
2 440 50
2 50 134
2 134 439
2 439 193
2 193 662
2 662 195
2 201 311
2 311 202
2 202 692
2 692 209
2 209 677
2 677 210
2 210 533
2 533 211
2 211 628
2 628 217
2 217 647
2 647 215
2 215 728
2 728 218
2 218 469
2 469 130
2 130 38
2 38 471
2 471 470
2 470 744
2 744 734
2 734 735
2 735 732
2 732 745
2 745 716
2 716 717
2 717 690
2 690 691
2 691 689
2 689 696
2 696 695
2 695 742
2 742 741
2 741 778
2 778 672
2 672 674
2 674 673
2 673 496
2 496 459
2 459 177
2 177 531
2 531 458
2 458 67
2 67 117
2 117 801
2 801 814
2 201 313
2 313 208
2 208 466
2 466 207
2 207 419
2 419 206
2 206 388
2 388 213
2 213 436
2 436 212
2 212 402
2 402 214
2 214 508
2 508 216
2 216 337
2 337 129
2 129 46
2 46 643
2 643 642
2 642 729
2 729 648
2 648 649
2 649 629
2 629 630
2 630 534
2 534 535
2 535 532
2 532 678
2 678 676
2 676 693
2 693 312
2 312 781
2 201 612
2 612 121
2 121 47
2 47 613
2 613 313
2 313 781
2 203 359
2 359 181
2 181 448
2 448 29
2 29 2
2 2 450
2 450 358
2 358 798
2 203 344
2 344 249
2 249 314
2 314 221
2 203 343
2 343 222
2 222 610
2 610 223
2 223 715
2 715 220
2 203 695
2 695 202
2 202 312
2 312 208
2 208 465
2 465 122
2 122 39
2 39 467
2 467 466
2 466 693
2 693 692
2 692 696
2 696 343
2 343 792
2 319 583
2 583 614
2 614 446
2 446 22
2 22 3
2 3 549
2 549 548
2 548 723
2 723 605
2 605 606
2 606 603
2 603 762
2 762 494
2 494 495
2 495 93
2 93 151
2 151 607
2 607 183
2 183 333
2 333 658
2 658 632
2 632 319
2 319 784
2 784 730
2 730 408
2 408 304
2 304 560
2 560 189
2 189 694
2 694 725
2 725 468
2 468 114
2 114 65
2 65 507
2 507 502
2 502 755
2 755 512
2 512 671
2 671 284
2 284 274
2 274 256
2 256 393
2 393 583
2 583 723
2 723 713
2 713 714
2 714 712
2 712 727
2 727 624
2 624 625
2 625 451
2 451 454
2 454 453
2 453 543
2 543 340
2 340 790
2 319 428
2 428 563
2 563 667
2 667 581
2 581 257
2 257 520
2 520 392
2 392 286
2 286 310
2 310 686
2 686 289
2 289 472
2 472 282
2 282 394
2 394 786
2 786 659
2 659 567
2 567 187
2 187 709
2 709 285
2 285 273
2 273 165
2 165 83
2 83 334
2 334 640
2 640 669
2 669 377
2 377 280
2 280 271
2 271 335
2 335 705
2 705 806
2 806 431
2 431 812
2 812 292
2 292 616
2 616 324
2 324 681
2 681 355
2 355 565
2 565 780
2 780 747
2 747 293
2 293 566
2 566 784
2 784 393
2 393 626
2 626 704
2 704 4
2 4 22
2 22 446
2 446 614
2 614 583
2 583 319
2 319 632
2 632 658
2 658 333
2 333 183
2 183 607
2 607 151
2 151 92
2 92 435
2 435 737
2 737 615
2 615 434
2 434 596
2 596 428
2 428 566
2 566 412
2 412 638
2 638 550
2 550 260
2 260 739
2 739 266
2 266 597
2 597 634
2 634 55
2 55 114
2 114 468
2 468 725
2 725 694
2 694 189
2 189 560
2 560 304
2 304 408
2 408 730
2 730 784
2 784 319
2 220 330
2 330 224
2 224 385
2 385 236
2 220 332
2 332 237
2 220 720
2 720 219
2 219 733
2 733 225
2 225 557
2 557 226
2 226 442
2 442 131
2 131 48
2 48 444
2 444 443
2 443 559
2 559 558
2 558 740
2 740 719
2 719 721
2 721 332
2 332 787
2 220 716
2 716 211
2 211 534
2 534 213
2 213 389
2 389 125
2 125 42
2 42 437
2 437 436
2 436 630
2 630 628
2 628 745
2 745 720
2 720 721
2 721 718
2 718 731
2 731 554
2 554 555
2 555 397
2 397 398
2 398 103
2 103 141
2 141 395
2 395 197
2 197 521
2 521 231
2 231 326
2 326 237
2 221 609
2 609 223
2 223 690
2 690 210
2 210 532
2 532 206
2 206 387
2 387 124
2 124 41
2 41 390
2 390 388
2 388 535
2 535 533
2 533 717
2 717 715
2 715 746
2 746 383
2 383 809
2 221 384
2 384 236
2 221 383
2 383 224
2 224 331
2 331 237
2 234 652
2 652 229
2 229 558
2 558 225
2 225 734
2 734 215
2 215 648
2 648 214
2 214 403
2 403 127
2 127 44
2 44 509
2 509 508
2 508 729
2 729 728
2 728 744
2 744 557
2 557 559
2 559 556
2 556 654
2 654 653
2 653 757
2 757 662
2 662 664
2 664 599
2 599 601
2 601 54
2 54 138
2 138 600
2 600 191
2 191 663
2 663 195
2 234 682
2 682 235
2 235 554
2 554 231
2 231 325
2 325 233
2 233 764
2 764 232
2 232 751
2 751 230
2 230 379
2 379 32
2 32 15
2 15 33
2 33 16
2 16 34
2 34 17
2 17 35
2 35 453
2 453 242
2 234 700
2 700 194
2 194 413
2 413 139
2 139 104
2 104 415
2 415 414
2 414 701
2 701 682
2 682 685
2 685 683
2 683 740
2 740 733
2 733 735
2 735 647
2 647 649
2 649 402
2 402 404
2 404 43
2 43 127
2 127 403
2 403 214
2 214 648
2 648 215
2 215 734
2 734 225
2 225 558
2 558 229
2 229 652
2 652 234
2 234 653
2 653 200
2 200 426
2 426 133
2 133 50
2 50 440
2 440 438
2 438 757
2 757 756
2 756 774
2 774 650
2 650 651
2 651 64
2 64 139
2 139 413
2 413 194
2 194 700
2 700 234
2 781 312
2 312 693
2 693 676
2 676 678
2 678 532
2 532 535
2 535 534
2 534 630
2 630 629
2 629 649
2 649 648
2 648 729
2 729 642
2 642 643
2 643 46
2 46 130
2 130 469
2 469 218
2 218 728
2 728 215
2 215 647
2 647 217
2 217 628
2 628 211
2 211 533
2 533 210
2 210 677
2 677 209
2 209 692
2 692 202
2 202 311
2 311 201
2 781 313
2 313 613
2 613 47
2 47 122
2 122 465
2 465 208
2 208 312
2 312 202
2 202 695
2 695 203
2 236 749
2 749 232
2 232 753
2 753 199
2 199 478
2 478 143
2 143 100
2 100 585
2 585 584
2 584 754
2 754 751
2 751 752
2 752 750
2 750 775
2 775 316
2 316 782
2 236 386
2 386 237
2 236 750
2 750 248
2 248 487
2 487 31
2 31 13
2 13 488
2 488 486
2 486 775
2 775 384
2 384 809
2 237 327
2 327 233
2 233 522
2 522 198
2 198 422
2 422 142
2 142 101
2 101 479
2 479 477
2 477 765
2 765 764
2 764 770
2 770 386
2 386 810
2 237 326
2 326 231
2 231 521
2 521 197
2 197 395
2 395 141
2 141 102
2 102 423
2 423 421
2 421 523
2 523 325
2 325 785
2 237 718
2 718 228
2 228 683
2 683 229
2 229 556
2 556 227
2 227 424
2 424 132
2 132 49
2 49 427
2 427 425
2 425 654
2 654 652
2 652 685
2 685 684
2 684 731
2 731 326
2 326 785
2 238 340
2 340 241
2 238 542
2 542 242
2 238 338
2 338 146
2 146 98
2 98 145
2 145 99
2 99 144
2 144 382
2 382 240
2 240 378
2 378 230
2 230 589
2 589 248
2 248 486
2 486 250
2 782 314
2 314 611
2 611 610
2 610 691
2 691 677
2 677 678
2 678 419
2 419 420
2 420 40
2 40 124
2 124 387
2 387 206
2 206 532
2 532 210
2 210 690
2 690 223
2 223 609
2 609 221
2 782 316
2 316 775
2 775 750
2 750 752
2 752 751
2 751 754
2 754 584
2 584 585
2 585 100
2 100 144
2 144 381
2 381 32
2 32 379
2 379 230
2 230 751
2 785 327
2 327 770
2 770 749
2 749 752
2 752 589
2 589 590
2 590 14
2 14 31
2 31 487
2 487 248
2 248 750
2 750 236
2 785 325
2 325 523
2 523 421
2 421 423
2 423 102
2 102 142
2 142 422
2 422 198
2 198 522
2 522 233
2 233 327
2 327 237
2 785 326
2 326 731
2 731 684
2 684 685
2 685 652
2 652 654
2 654 425
2 425 427
2 427 49
2 49 133
2 133 426
2 426 200
2 200 653
2 653 234
2 241 339
2 339 146
2 146 97
2 97 646
2 646 542
2 542 543
2 543 353
2 353 796
2 241 539
2 539 190
2 190 363
2 363 144
2 144 100
2 100 143
2 143 101
2 101 142
2 142 102
2 102 141
2 141 103
2 103 140
2 140 104
2 104 139
2 139 64
2 64 138
2 138 54
2 54 137
2 137 53
2 53 136
2 136 52
2 52 135
2 135 51
2 51 134
2 134 50
2 50 133
2 133 49
2 49 132
2 132 48
2 48 131
2 131 38
2 38 130
2 130 46
2 46 129
2 129 45
2 45 128
2 128 44
2 44 127
2 127 43
2 43 126
2 126 42
2 42 125
2 125 41
2 41 124
2 124 40
2 40 123
2 123 39
2 39 122
2 122 47
2 47 121
2 121 71
2 71 120
2 120 70
2 70 119
2 119 69
2 69 118
2 118 68
2 68 117
2 117 67
2 67 116
2 116 329
2 329 26
2 26 7
2 7 564
2 564 323
2 323 755
2 755 694
2 694 266
2 266 510
2 510 706
2 706 572
2 572 703
2 703 783
2 783 511
2 511 738
2 738 619
2 619 265
2 265 545
2 545 441
2 441 482
2 482 500
2 500 595
2 595 307
2 307 416
2 416 513
2 513 586
2 586 552
2 552 569
2 569 86
2 86 169
2 169 309
2 309 184
2 184 464
2 464 460
2 460 473
2 473 551
2 551 276
2 276 670
2 670 270
2 270 173
2 173 769
2 769 519
2 519 317
2 317 575
2 575 687
2 687 675
2 675 255
2 255 447
2 447 660
2 660 432
2 432 597
2 597 725
2 725 502
2 502 777
2 777 722
2 722 26
2 241 354
2 354 34
2 34 16
2 16 579
2 579 539
2 539 540
2 540 98
2 98 146
2 146 338
2 338 238
2 241 353
2 353 35
2 35 18
2 18 36
2 36 342
2 342 171
2 242 453
2 453 35
2 35 17
2 17 796
2 242 375
2 375 239
2 239 372
2 372 148
2 148 95
2 95 657
2 657 656
2 656 771
2 771 350
2 350 795
2 242 374
2 374 147
2 147 96
2 96 804
2 243 655
2 655 148
2 148 96
2 96 147
2 147 374
2 374 242
2 243 767
2 767 245
2 245 351
2 351 247
2 247 451
2 451 36
2 36 19
2 19 37
2 37 20
2 20 0
2 0 11
2 11 21
2 21 547
2 547 182
2 182 713
2 713 251
2 251 604
2 604 252
2 789 336
2 336 509
2 509 403
2 403 404
2 404 401
2 401 437
2 437 389
2 389 390
2 390 387
2 387 420
2 420 418
2 418 467
2 467 465
2 465 613
2 613 612
2 612 645
2 645 489
2 489 492
2 492 490
2 490 497
2 497 346
2 346 366
2 366 801
2 801 458
2 458 530
2 530 179
2 179 8
2 8 26
2 26 722
2 722 777
2 777 502
2 502 725
2 725 597
2 597 432
2 432 660
2 660 447
2 447 255
2 255 675
2 675 687
2 687 575
2 575 317
2 317 519
2 519 769
2 769 173
2 173 270
2 270 670
2 670 276
2 276 551
2 551 473
2 473 460
2 460 464
2 464 184
2 184 309
2 309 169
2 169 87
2 87 661
2 661 301
2 301 267
2 267 499
2 499 707
2 707 269
2 269 797
2 797 275
2 275 391
2 391 621
2 621 571
2 571 278
2 278 622
2 622 368
2 368 618
2 618 665
2 665 305
2 305 779
2 779 433
2 433 574
2 574 634
2 634 468
2 468 507
2 507 811
2 811 799
2 799 329
2 329 179
2 789 337
2 337 643
2 643 469
2 469 471
2 471 442
2 442 444
2 444 424
2 424 427
2 427 426
2 426 440
2 440 439
2 439 485
2 485 484
2 484 594
2 594 53
2 53 137
2 137 593
2 593 192
2 192 483
2 483 193
2 193 438
2 438 200
2 200 425
2 425 227
2 227 443
2 443 226
2 226 470
2 470 218
2 218 642
2 642 216
2 216 336
2 336 128
2 128 45
2 45 789
2 789 45
2 45 129
2 129 337
2 337 216
2 216 508
2 508 214
2 214 402
2 402 212
2 212 436
2 436 213
2 213 388
2 388 206
2 206 419
2 419 207
2 207 466
2 466 208
2 208 313
2 313 201
2 790 340
2 340 543
2 543 453
2 453 454
2 454 451
2 451 625
2 625 624
2 624 727
2 727 712
2 712 714
2 714 713
2 713 723
2 723 583
2 583 393
2 393 256
2 256 274
2 274 284
2 284 671
2 671 512
2 512 755
2 755 502
2 502 507
2 507 65
2 65 115
2 115 811
2 811 777
2 777 323
2 323 580
2 580 570
2 570 322
2 322 631
2 631 577
2 577 626
2 626 614
2 614 548
2 548 182
2 182 591
2 591 180
2 180 371
2 371 171
4 92 151 435 607
4 151 93 607 495
4 93 150 495 493
4 453 242 454 452
4 454 453 18 35
4 353 543 35 453
4 241 340 353 543
4 790 338 340 238
4 146 98 339 540
4 98 145 364 540
4 800 364 190 363
4 602 381 32 15
4 230 751 589 752
4 589 752 750 248
4 487 31 488 13
4 449 28 527 10
4 366 801 117 68
4 814 531 801 458
4 516 177 531 515
4 531 515 458 530
4 458 801 67 117
4 458 530 116 67
4 814 347 801 366
4 645 612 71 121
4 509 336 44 128
4 137 53 593 594
4 53 136 594 52
4 54 137 601 593
4 100 143 585 478
4 585 478 584 199
4 584 199 754 753
4 199 477 753 765
4 753 765 232 764
4 765 522 764 233
4 764 233 770 327
4 770 327 386 237
4 237 386 331 810
4 236 386 385 810
4 331 810 224 385
4 224 809 385 383
4 809 384 221 383
4 221 383 609 746
4 532 535 206 388
4 534 630 213 436
4 649 648 402 214
4 647 215 649 648
4 735 734 647 215
4 733 225 735 734
4 740 558 733 225
4 231 554 326 731
4 521 555 231 554
4 197 397 521 555
4 414 194 701 700
4 701 700 682 234
4 756 700 774 234
4 774 663 756 195
4 650 191 774 663
4 421 197 523 521
4 523 521 325 231
4 685 652 229 683
4 683 229 558 740
4 220 720 716 745
4 716 745 211 628
4 211 628 534 630
4 535 534 388 213
4 532 678 419 206
4 312 693 208 466
4 203 343 695 696
4 792 345 343 222
4 315 314 782 249
4 249 315 344 668
4 250 668 475 315
4 668 475 359 181
4 359 181 798 358
4 343 222 696 689
4 792 344 343 203
4 360 203 742 695
4 695 696 202 692
4 742 695 311 202
4 202 692 312 693
4 311 202 312 781
4 781 312 313 208
4 693 676 466 207
4 676 678 207 419
4 677 210 678 532
4 210 533 532 535
4 690 717 210 533
4 691 690 677 210
4 223 715 690 717
4 610 223 691 690
4 609 746 223 715
4 611 609 610 223
4 221 611 314 609
4 383 330 224 746
4 787 331 330 224
4 327 326 785 237
4 233 325 327 785
4 382 585 240 584
4 144 100 382 585
4 143 101 478 479
4 101 142 479 422
4 142 102 422 423
4 102 141 395 423
4 141 103 395 398
4 104 139 415 413
4 139 64 413 651
4 64 138 651 600
4 138 54 600 601
4 601 593 599 192
4 593 594 192 484
4 192 484 483 485
4 599 192 664 483
4 483 485 193 439
4 483 664 662 193
4 193 439 440 438
4 193 662 757 438
4 440 438 426 200
4 438 757 200 653
4 200 426 427 425
4 200 653 425 654
4 654 425 227 556
4 425 427 424 227
4 556 227 443 559
4 227 424 443 444
4 444 443 442 226
4 559 443 557 226
4 557 226 744 470
4 226 442 470 471
4 470 471 218 469
4 744 470 728 218
4 218 469 642 643
4 728 218 729 642
4 729 642 508 216
4 642 643 216 337
4 216 337 336 789
4 508 216 509 336
4 336 789 45 128
4 403 509 127 44
4 404 403 43 127
4 389 437 125 42
4 389 390 41 125
4 387 390 124 41
4 420 387 40 124
4 418 420 123 40
4 467 418 39 123
4 467 465 122 39
4 465 613 47 122
4 612 613 121 47
4 644 201 645 612
4 778 741 644 201
4 526 176 778 741
4 176 449 526 527
4 450 2 449 28
4 448 29 450 2
4 476 12 448 29
4 474 30 476 12
4 488 13 474 30
4 248 487 486 488
4 750 248 775 486
4 752 749 750 236
4 751 232 752 749
4 378 754 230 751
4 807 378 230 379
4 379 230 589 590
4 379 32 590 14
4 807 380 379 32
4 578 602 33 15
4 33 579 578 16
4 363 144 602 381
4 190 363 578 602
4 99 144 363 800
4 145 99 364 800
4 540 364 539 190
4 97 146 338 646
4 96 147 373 804
4 147 97 374 646
4 147 805 374 373
4 646 338 542 238
4 238 340 542 543
4 790 339 340 241
4 354 241 796 353
4 796 353 35 17
4 247 452 451 454
4 614 583 626 393
4 22 446 4 704
4 524 369 349 172
4 20 524 0 349
4 37 341 20 524
4 19 791 37 341
4 341 171 524 369
4 369 803 172 370
4 172 370 348 592
4 349 172 348 794
4 348 592 21 547
4 794 348 21 11
4 549 547 3 21
4 549 22 3 446
4 446 614 704 626
4 548 723 614 583
4 182 713 548 723
4 605 713 251 723
4 761 762 603 252
4 758 263 773 761
4 350 771 246 759
4 252 603 606 604
4 606 604 605 251
4 591 714 182 713
4 714 711 713 251
4 712 253 714 711
4 180 712 591 714
4 253 726 712 727
4 712 727 180 371
4 727 624 371 171
4 726 246 727 624
4 624 625 171 342
4 352 246 624 625
4 352 247 625 451
4 625 451 342 36
4 451 454 36 18
4 242 375 452 776
4 452 776 247 351
4 375 239 776 766
4 776 766 245 351
4 239 372 766 768
4 766 768 245 767
4 372 148 768 655
4 768 655 767 243
4 655 657 656 243
4 95 148 657 655
4 149 95 536 657
4 536 657 244 656
4 94 149 538 536
4 538 536 537 244
4 493 538 263 537
4 150 94 493 538
4 495 493 494 263
4 435 607 737 183
4 737 183 615 333
4 615 333 434 658
4 434 658 596 632
4 596 632 428 319
4 428 319 784 566
4 597 725 634 468
4 694 266 597 725
4 725 502 468 507
4 694 755 725 502
4 323 755 502 777
4 502 777 507 811
4 777 722 811 799
4 323 564 777 722
4 26 799 722 329
4 7 26 722 564
4 26 8 329 179
4 813 27 179 8
4 367 9 813 27

CELL_TYPES 2336
3
3
3
3
3
3
3
3
3
3
3
3
3
3
3
3
3
3
3
3
3
3
3
3
3
3
3
3
3
3
3
3
3
3
3
3
3
3
3
3
3
3
3
3
3
3
3
3
3
3
3
3
3
3
3
3
3
3
3
3
3
3
3
3
3
3
3
3
3
3
3
3
3
3
3
3
3
3
3
3
3
3
3
3
3
3
3
3
3
3
3
3
3
3
3
3
3
3
3
3
3
3
3
3
3
3
3
3
3
3
3
3
3
3
3
3
3
3
3
3
3
3
3
3
3
3
3
3
3
3
3
3
3
3
3
3
3
3
3
3
3
3
3
3
3
3
3
3
3
3
3
3
3
3
3
3
3
3
3
3
3
3
3
3
3
3
3
3
3
3
3
3
3
3
3
3
3
3
3
3
3
3
3
3
3
3
3
3
3
3
3
3
3
3
3
3
3
3
3
3
3
3
3
3
3
3
3
3
3
3
3
3
3
3
3
3
3
3
3
3
3
3
3
3
3
3
3
3
3
3
3
3
3
3
3
3
3
3
3
3
3
3
3
3
3
3
3
3
3
3
3
3
3
3
3
3
3
3
3
3
3
3
3
3
3
3
3
3
3
3
3
3
3
3
3
3
3
3
3
3
3
3
3
3
3
3
3
3
3
3
3
3
3
3
3
3
3
3
3
3
3
3
3
3
3
3
3
3
3
3
3
3
3
3
3
3
3
3
3
3
3
3
3
3
3
3
3
3
3
3
3
3
3
3
3
3
3
3
3
3
3
3
3
3
3
3
3
3
3
3
3
3
3
3
3
3
3
3
3
3
3
3
3
3
3
3
3
3
3
3
3
3
3
3
3
3
3
3
3
3
3
3
3
3
3
3
3
3
3
3
3
3
3
3
3
3
3
3
3
3
3
3
3
3
3
3
3
3
3
3
3
3
3
3
3
3
3
3
3
3
3
3
3
3
3
3
3
3
3
3
3
3
3
3
3
3
3
3
3
3
3
3
3
3
3
3
3
3
3
3
3
3
3
3
3
3
3
3
3
3
3
3
3
3
3
3
3
3
3
3
3
3
3
3
3
3
3
3
3
3
3
3
3
3
3
3
3
3
3
3
3
3
3
3
3
3
3
3
3
3
3
3
3
3
3
3
3
3
3
3
3
3
3
3
3
3
3
3
3
3
3
3
3
3
3
3
3
3
3
3
3
3
3
3
3
3
3
3
3
3
3
3
3
3
3
3
3
3
3
3
3
3
3
3
3
3
3
3
3
3
3
3
3
3
3
3
3
3
3
3
3
3
3
3
3
3
3
3
3
3
3
3
3
3
3
3
3
3
3
3
3
3
3
3
3
3
3
3
3
3
3
3
3
3
3
3
3
3
3
3
3
3
3
3
3
3
3
3
3
3
3
3
3
3
3
3
3
3
3
3
3
3
3
3
3
3
3
3
3
3
3
3
3
3
3
3
3
3
3
3
3
3
3
3
3
3
3
3
3
3
3
3
3
3
3
3
3
3
3
3
3
3
3
3
3
3
3
3
3
3
3
3
3
3
3
3
3
3
3
3
3
3
3
3
3
3
3
3
3
3
3
3
3
3
3
3
3
3
3
3
3
3
3
3
3
3
3
3
3
3
3
3
3
3
3
3
3
3
3
3
3
3
3
3
3
3
3
3
3
3
3
3
3
3
3
3
3
3
3
3
3
3
3
3
3
3
3
3
3
3
3
3
3
3
3
3
3
3
3
3
3
3
3
3
3
3
3
3
3
3
3
3
3
3
3
3
3
3
3
3
3
3
3
3
3
3
3
3
3
3
3
3
3
3
3
3
3
3
3
3
3
3
3
3
3
3
3
3
3
3
3
3
3
3
3
3
3
3
3
3
3
3
3
3
3
3
3
3
3
3
3
3
3
3
3
3
3
3
3
3
3
3
3
3
3
3
3
3
3
3
3
3
3
3
3
3
3
3
3
3
3
3
3
3
3
3
3
3
3
3
3
3
3
3
3
3
3
3
3
3
3
3
3
3
3
3
3
3
3
3
3
3
3
3
3
3
3
3
3
3
3
3
3
3
3
3
3
3
3
3
3
3
3
3
3
3
3
3
3
3
3
3
3
3
3
3
3
3
3
3
3
3
3
3
3
3
3
3
3
3
3
3
3
3
3
3
3
3
3
3
3
3
3
3
3
3
3
3
3
3
3
3
3
3
3
3
3
3
3
3
3
3
3
3
3
3
3
3
3
3
3
3
3
3
3
3
3
3
3
3
3
3
3
3
3
3
3
3
3
3
3
3
3
3
3
3
3
3
3
3
3
3
3
3
3
3
3
3
3
3
3
3
3
3
3
3
3
3
3
3
3
3
3
3
3
3
3
3
3
3
3
3
3
3
3
3
3
3
3
3
3
3
3
3
3
3
3
3
3
3
3
3
3
3
3
3
3
3
3
3
3
3
3
3
3
3
3
3
3
3
3
3
3
3
3
3
3
3
3
3
3
3
3
3
3
3
3
3
3
3
3
3
3
3
3
3
3
3
3
3
3
3
3
3
3
3
3
3
3
3
3
3
3
3
3
3
3
3
3
3
3
3
3
3
3
3
3
3
3
3
3
3
3
3
3
3
3
3
3
3
3
3
3
3
3
3
3
3
3
3
3
3
3
3
3
3
3
3
3
3
3
3
3
3
3
3
3
3
3
3
3
3
3
3
3
3
3
3
3
3
3
3
3
3
3
3
3
3
3
3
3
3
3
3
3
3
3
3
3
3
3
3
3
3
3
3
3
3
3
3
3
3
3
3
3
3
3
3
3
3
3
3
3
3
3
3
3
3
3
3
3
3
3
3
3
3
3
3
3
3
3
3
3
3
3
3
3
3
3
3
3
3
3
3
3
3
3
3
3
3
3
3
3
3
3
3
3
3
3
3
3
3
3
3
3
3
3
3
3
3
3
3
3
3
3
3
3
3
3
3
3
3
3
3
3
3
3
3
3
3
3
3
3
3
3
3
3
3
3
3
3
3
3
3
3
3
3
3
3
3
3
3
3
3
3
3
3
3
3
3
3
3
3
3
3
3
3
3
3
3
3
3
3
3
3
3
3
3
3
3
3
3
3
3
3
3
3
3
3
3
3
3
3
3
3
3
3
3
3
3
3
3
3
3
3
3
3
3
3
3
3
3
3
3
3
3
3
3
3
3
3
3
3
3
3
3
3
3
3
3
3
3
3
3
3
3
3
3
3
3
3
3
3
3
3
3
3
3
3
3
3
3
3
3
3
3
3
3
3
3
3
3
3
3
3
3
3
3
3
3
3
3
3
3
3
3
3
3
3
3
3
3
3
3
3
3
3
3
3
3
3
3
3
3
3
3
3
3
3
3
3
3
3
3
3
3
3
3
3
3
3
3
3
3
3
3
3
3
3
3
3
3
3
3
3
3
3
3
3
3
3
3
3
3
3
3
3
3
3
3
3
3
3
3
3
3
3
3
3
3
3
3
3
3
3
3
3
3
3
3
3
3
3
3
3
3
3
3
3
3
3
3
3
3
3
3
3
3
3
3
3
3
3
3
3
3
3
3
3
3
3
3
3
3
3
3
3
3
3
3
3
3
3
3
3
3
3
3
3
3
3
3
3
3
3
3
3
3
3
3
3
3
3
3
3
3
3
3
3
3
3
3
3
3
3
3
3
3
3
3
3
3
3
3
3
3
3
3
3
3
3
3
3
3
3
3
3
3
3
3
3
3
3
3
3
3
3
3
3
3
3
3
3
3
3
3
3
3
3
3
3
3
3
3
3
3
3
3
3
3
3
3
3
3
3
3
3
3
3
3
3
3
3
3
3
3
3
3
3
3
3
3
3
3
3
3
3
3
3
3
3
3
3
3
3
3
3
3
3
3
3
3
3
3
3
3
3
3
3
3
3
3
3
3
3
3
3
3
3
3
3
3
3
3
3
3
3
3
3
3
3
3
3
3
3
3
3
3
3
3
3
3
3
3
3
3
3
3
3
3
3
3
3
3
3
3
3
3
3
3
3
3
3
3
3
3
3
3
3
3
3
3
3
3
3
3
3
3
3
3
3
3
3
3
3
3
3
3
3
3
3
3
3
3
3
3
3
3
3
3
3
3
3
3
3
3
3
3
3
3
3
3
3
3
3
3
3
3
3
3
3
3
3
3
3
3
3
3
3
3
3
3
3
3
3
3
3
3
3
3
3
3
3
3
3
3
3
3
3
3
3
3
3
3
3
3
3
3
3
3
3
3
3
3
3
3
3
3
3
3
3
3
3
3
3
3
3
3
3
3
3
3
3
3
3
3
3
3
3
3
3
3
3
3
3
3
3
3
3
3
3
3
3
3
3
3
3
3
3
3
3
3
3
3
3
3
3
3
3
3
3
3
3
3
3
3
3
3
3
3
3
3
3
3
3
3
3
3
3
3
3
3
3
3
3
3
3
3
3
3
3
3
3
3
3
3
3
3
3
3
3
3
3
3
3
3
3
3
3
3
3
3
3
3
3
3
3
3
3
3
3
3
3
3
3
3
3
3
3
3
3
3
3
3
3
3
3
3
3
3
3
3
3
3
3
3
3
3
3
3
3
3
3
3
3
3
3
3
3
3
3
3
3
3
3
3
3
3
3
3
3
3
3
3
3
3
3
3
3
3
3
3
3
3
3
3
3
3
3
3
3
3
3
3
3
3
3
3
3
3
3
9
9
9
9
9
9
9
9
9
9
9
9
9
9
9
9
9
9
9
9
9
9
9
9
9
9
9
9
9
9
9
9
9
9
9
9
9
9
9
9
9
9
9
9
9
9
9
9
9
9
9
9
9
9
9
9
9
9
9
9
9
9
9
9
9
9
9
9
9
9
9
9
9
9
9
9
9
9
9
9
9
9
9
9
9
9
9
9
9
9
9
9
9
9
9
9
9
9
9
9
9
9
9
9
9
9
9
9
9
9
9
9
9
9
9
9
9
9
9
9
9
9
9
9
9
9
9
9
9
9
9
9
9
9
9
9
9
9
9
9
9
9
9
9
9
9
9
9
9
9
9
9
9
9
9
9
9
9
9
9
9
9
9
9
9
9
9
9
9
9
9
9
9
9
9
9
9
9
9
9
9
9
9
9
9
9
9
9
9
9
9
9
9
9
9
9
9
9
9
9
9
9
9
9
9
9
9
9
9
9
9
9
9
9
9
9
9
9
9
9
9
9
9
9
9
9
9
9
9
9
9
9
9
9
9
9
9
9
9
9
9
9
9
9
9
9
9
9
9
9
9
9
9
9
9
