# vtk DataFile Version 2.0
, Created by Gmsh 4.15.2 
ASCII
DATASET UNSTRUCTURED_GRID
POINTS 43 double
0.3272086878701335 -0.3780593423882867 1.082179149898438
0.3416476388146123 -0.3650063910622951 1.180188313918192
0.370455964098759 -0.335778467663563 1.375770584546661
0.1855475967311639 -0.464276722177662 0.02634972758063749
0.1936852895651079 -0.460941230558968 0.09567105118673974
0.3875337494046153 0.3159129968372414 1.005099397129334
0.3344260754946856 -0.3716364399140306 1.13119815679165
0.3488720949121192 -0.3581681554905611 1.229149011518658
0.3632800102138847 -0.3434702544284117 1.326928442507631
0.38152152212402 0.3231021950770998 1.054174284729595
0.1878489752322124 -0.4633502994150058 0.04611734405476731
0.4187370324128927 -0.2724872660520848 1.336412919794577
0.4416087267921906 0.233877724883931 1.052108366284392
0.4990209037710913 0.02753456282604776 1.061472252118979
0.4018623986437337 -0.2974782809273195 1.124133826945832
0.3983380531450624 -0.3019872460408795 1.292178896751445
0.4633408111013691 0.1876384672743927 1.048676565821413
0.4968025807997322 -0.05583446869255827 1.068498273141079
0.499652055246295 0.01728379292273 1.000258222615316
0.48200994671539 0.1310269217610136 1.002077626657024
0.4185105466235732 0.2729266035697758 1.004406098095941
0.4008633183072992 -0.2980045859946861 1.404137466772046
0.3561781902596267 -0.3502211116546018 1.100358550389196
0.381493390474704 -0.3230533894059041 1.114462311263053
0.3621523838390759 -0.3439559094856328 1.146244685212081
0.4067686230396312 -0.2905126495444197 1.369100232472437
0.4998878800864958 -0.001491067616678005 1.102766302323288
0.4938141937261326 0.07774480716916798 1.003181468826053
0.4139163283570491 0.2797551030707519 1.054066497047996
0.4993384727375499 -0.02548320934466665 1.138145368713886
0.4659304086041461 0.1800460295390851 1.001830304347611
0.4952278701029761 -0.06839459672094041 1.102789400586251
0.4910354935821586 0.09288058826801207 1.054762585470723
0.3511479349708428 -0.3554583303735686 1.055213871879481
0.4792212623469798 0.1422047154746346 1.048982903850554
0.2203841480550325 -0.4479618003336768 0.08174179426177808
0.3995546618660364 -0.3004130678815772 1.04884202671873
0.3779741541206559 -0.3269961590385811 1.072720371465105
0.444806657532637 0.227317554077395 1.003109962927244
0.4004326615474924 -0.2992692077957794 1.086009453308996
0.3867437660456881 -0.316510327371781 1.158148648254089
0.497749915435871 -0.04669037926117862 1.029548177217104
0.3703119159781144 -0.3355590282262768 1.193571596001943

CELLS 18 90
4 22 24 6 1
4 33 22 0 6
4 5 9 20 28
4 35 3 10 4
4 20 28 38 12
4 38 12 30 16
4 30 16 19 34
4 19 34 27 32
4 27 32 18 13
4 42 24 1 7
4 15 25 11 8
4 21 25 8 2
4 23 40 24 42
4 37 23 22 24
4 14 39 23 40
4 36 39 37 23
4 29 26 31 17
4 26 13 17 41

CELL_TYPES 18
9
9
9
9
9
9
9
9
9
9
9
9
9
9
9
9
9
9
