# vtk DataFile Version 2.0
T1_9_hub_raw, Created by Gmsh 4.15.2 
ASCII
DATASET UNSTRUCTURED_GRID
POINTS 920 double
0.4985826015472412 0.03762161359190941 1.361872434616089
0.1995972096920013 -0.4584331512451172 0.1452107280492783
0.4948239019760425 0.07066556234569291 1.652977173972471
0.4975541633662274 -0.04907046001223309 1.246581849420253
0.4907254163522156 -0.09578673874343845 1.162792239134966
0.4707472661752494 -0.1684754039732507 1.106567508043381
0.4328349371461561 -0.2502951093253313 1.128701717453225
0.417125769177503 -0.2756910074643261 1.216545714767183
0.4336977432694512 -0.2487527980180654 1.306724951305513
0.4579824986647392 -0.20039918682623 1.386271891395683
0.4792820401920583 -0.1419390753757878 1.459864673296429
0.4941378295037027 -0.07606070225936448 1.528655238506585
0.4998284254251282 -0.004423599544104918 1.592799940707389
0.4998961414026521 0.005813848813740309 1.325722049322226
0.4778101272751891 0.1472489799887104 1.70886026299725
0.4471893910426164 0.2235641309438279 1.758961415524281
0.3995543265182041 0.3005796351731675 1.782955900751265
0.3514591417136492 0.3556339254003248 1.730238246461394
0.3700708369788595 0.3362222720637053 1.641769739801767
0.4138685847339388 0.2805448794604629 1.576125735559071
0.4519163640665124 0.2137122812246267 1.518092245312028
0.4792652663018563 0.1423840876095754 1.45930264735141
0.494755595628088 0.07149809303213109 1.395931540859892
0.4993961772496882 -0.02341048113333833 1.287373779345447
0.4948072558353995 -0.07171673324977562 1.204159612363559
0.4834059807725478 -0.1276547169605635 1.127478490328992
0.4524496546691206 -0.2128067039827261 1.106335244911452
0.4194337689449912 -0.2721677187751588 1.168649208667701
0.4231998687063795 -0.2662590731126118 1.262998516764228
0.4458176016227796 -0.2263711790141858 1.347526546454499
0.4693535289691992 -0.1723058779404935 1.423763512359864
0.4876639186855129 -0.1098305511018242 1.494825366282793
0.4981588107991318 -0.040787176021316 1.561220064174224
0.498861228190714 0.0328112086285835 1.623417968051244
0.487923757694544 0.1088812449718466 1.681545308013905
0.4642533328586808 0.1856022160567401 1.734792261342971
0.4261693521523623 0.261450165703706 1.780096674964004
0.3699359613777077 0.3363352277763062 1.770000511678055
0.3559328156130206 0.3511516235333716 1.684735416957263
0.3917713437150838 0.310655641480544 1.606641737567379
0.4340972797539424 0.2479594780315286 1.546962683475055
0.4670032381464049 0.1783393890260035 1.489025195033747
0.488406880222697 0.1065867013118211 1.428380333281331
0.4696528670662723 0.1686913427280879 2.5
0.4499542533239972 -0.2178737896425177 1.958008078154932
0.4609900477063616 -0.1933765126701109 2.054246443647065
0.4710932954260804 -0.1675281966008294 2.150234298153656
0.4798759156270718 -0.1400473349764464 2.245903017064179
0.4873734695930864 -0.1112122162393534 2.341273465375614
0.4933505539583692 -0.08102482632798115 2.436220586306381
0.4982640131149099 -0.02162586271170862 2.5
0.4941700667636471 0.07175163534715556 2.5
0.4380740334082688 -0.2409523610384252 1.861514909154513
0.4267370609776879 0.2583448792252748 2.5
0.3673282207142762 0.3388069598810754 2.5
0.2922710224901113 0.404122602431199 2.5
0.2065995979360216 0.4546214890449103 2.5
0.1119483673120783 0.4863088336974246 2.5
0.07509212085379167 0.4942066728062886 2.454130415728741
0.1049069214149489 0.4888652942361352 2.361720265652368
0.3272086878701335 -0.3780593423882867 1.082179149898438
0.2179656753304321 -0.4499845556488217 0.2937247023176419
0.2306720275367986 -0.4435796861273383 0.392628612981088
0.2436883913873516 -0.4365721040803118 0.4914510977484379
0.2570178074554779 -0.4288650300937928 0.5901806370569815
0.2706437440367475 -0.4203761676602371 0.6888045682062498
0.2845028613704174 -0.4111464420501086 0.7873293625698033
0.2985877140604827 -0.4010167544703269 0.8857347592115414
0.312841293276595 -0.3899837461789917 0.9840172319039201
0.1339781896987599 0.4816052561769099 2.266396620681552
0.3416476388146123 -0.3650063910622951 1.180188313918192
0.3560849335231024 -0.3509366013614962 1.278054775933555
0.370455964098759 -0.335778467663563 1.375770584546661
0.3846615787706014 -0.3193290444940452 1.473299411622225
0.3986412540192353 -0.3017285015977968 1.570659195676531
0.4122758973761876 -0.2828197952338693 1.667825107067587
0.4254405990121157 -0.2625251508915962 1.764772834750855
0.498713884541633 0.004870912753005711 0
0.4270887599013549 0.2599267478053296 0.6113534568871698
0.4349959706828009 0.2465158138318181 0.5126515755536799
0.4421356152317271 0.2334364543210757 0.4138458967976567
0.4486400693906828 0.2206764893317587 0.314955568391165
0.4545674543871711 0.2082455033882701 0.2159861905473554
0.4598648348575038 0.1962225012089148 0.1169320355367488
0.4640247871209062 0.1861734361601603 0.03172540459182077
0.4884474927050576 0.1037700996551303 0
0.4184775167796144 0.2735941899977451 0.7099609928213264
0.4907582234726818 -0.09431027222951108 0
0.4612843221804906 -0.189887656932019 0
0.4146564894074617 -0.2776697373874497 0
0.3512044881903446 -0.3549555859718179 0
0.2735280556795709 -0.4170411352971702 0
0.1855475967311639 -0.464276722177662 0.02634972758063749
0.1936852895651079 -0.460941230558968 0.09567105118673974
0.2056481788111423 -0.4557284314297653 0.1947303474553714
0.4090424965576447 0.2875097992648822 0.8084594341134329
0.3987140806103426 0.3016367786062933 0.9068368204082978
0.3875337494046153 0.3159129968372414 1.005099397129334
0.3753117745022739 0.3303061939796572 1.103222107790153
0.3620756741245134 0.3447486934705853 1.20120413409513
0.3478325898456671 0.3591809119560427 1.299046676631905
0.332308781799567 0.3735151495311342 1.396710418164442
0.3156672401382159 0.3876875047682474 1.49421094225336
0.2978063981425144 0.4016064757720303 1.591534900376445
0.2785468197833242 0.415132968507631 1.688644433758181
0.258038060466124 0.4282152629425894 1.785558202845517
0.2361059430190147 0.4406811941913074 1.882244701674266
0.2127202184158385 0.4523896545498389 1.978680664117526
0.1879948757414462 0.4632783544128677 2.074878209354739
0.1616964517119135 0.4730384152886311 2.170783889393812
0.211771111879271 -0.4529125079028656 0.2442350994089026
0.2242810337386246 -0.4468523297469267 0.3431859456588813
0.23712902094481 -0.4401811213310388 0.4420541108721949
0.2503237848768677 -0.4327889589028346 0.5408252676692897
0.2637947147576983 -0.4247268542813247 0.6395066445974081
0.2775418931173633 -0.4158689920665948 0.7380815980347503
0.2915267176909602 -0.4061680676379269 0.836543706764207
0.3056911366152489 -0.3956522024290272 0.9348964129908239
0.3200138319019494 -0.3841253178544616 1.033112712562897
0.3344260754946856 -0.3716364399140306 1.13119815679165
0.3488720949121192 -0.3581681554905611 1.229149011518658
0.3632800102138847 -0.3434702544284117 1.326928442507631
0.3775830826899458 -0.327695016404536 1.424554963370587
0.3916943974512281 -0.3107212855191923 1.522008131526294
0.4054969647232523 -0.2924026806670745 1.619261713860587
0.418932162566487 -0.2728647935999622 1.716328960545697
0.4318359088865767 -0.2519153419411159 1.813173487101048
0.4440917371778195 -0.2295530485592762 1.909785824100392
0.4556282620005828 -0.2058670268839301 2.006170895940945
0.4661489981831926 -0.1806000076605413 2.102269891396613
0.4756131762992837 -0.1539302727910263 2.198099070942764
0.4838779133389781 -0.1258800309148456 2.293644751795986
0.4905251039665614 -0.09623910872989232 2.388833401566707
0.4956100126165148 -0.06536728776548972 2.483487994625453
0.498845917406061 0.02221651912925994 2.5
0.4839003389055338 0.1207587208340598 2.5
0.4511944584368718 0.2149434538053131 2.5
0.3987545817835591 0.2997161866696177 2.5
0.3313761779451859 0.3731616234206378 2.5
0.2508026782469756 0.4317725455771739 2.5
0.1598007618323024 0.472448739504091 2.5
0.06323960419927191 0.4957514398760361 2.5
0.08972079291475771 0.4917733079917302 2.409222922583997
0.1195836356116015 0.4853784406196516 2.314090191341015
0.1480892951013253 0.4775496482450048 2.218642940410986
0.1749887132943503 0.4682714029853781 2.122859418294152
0.2005325032010377 0.4579472744125346 2.026812277798005
0.2246247271561033 0.4466567268679209 1.930499100746684
0.2472094446632719 0.4345136453038935 1.833924208868033
0.2684919042592648 0.4217509822486908 1.737133436078551
0.2883387320938625 0.4084228665851234 1.640114089028373
0.3068612044445393 0.3946762804588577 1.542891214410256
0.3241984635139835 0.380637702837774 1.445491376471932
0.3401864973595141 0.3663623237219821 1.347895337964655
0.3550641009980166 0.3519681365006783 1.250141340435907
0.3688723883068067 0.3375244505813003 1.152237667984377
0.38152152212402 0.3231021950770998 1.054174284729595
0.3932415032381864 0.3087568536303442 0.9559843082264242
0.4040062734611634 0.2945477528616199 0.8576651603080125
0.4138418387628695 0.2805298868372911 0.7592211586331814
0.422900810795599 0.2667205780791654 0.6606731036025222
0.4311291230234403 0.2531876603784132 0.5620139088868279
0.4386319630824345 0.2399446081589381 0.4632575562973072
0.445499868297606 0.2269961671352687 0.3644159050922594
0.4516623256937009 0.2144261467054009 0.2654789116134998
0.457272167937505 0.2021945381133142 0.1664666756730951
0.4623536569556706 0.1903247765759718 0.06738326484563117
0.4750147066720217 0.1519956833997706 0
0.4963430450820781 0.05465438274459723 0
0.4970174091514316 -0.04498004575384636 0
0.4779602952002439 -0.1428108393857409 0
0.440880554232962 -0.2353362374365794 0
0.3845437973637922 -0.3175943733340699 0
0.3141426977140366 -0.3881621431533201 0
0.2306582716312185 -0.4425358498396777 0
0.1878489752322124 -0.4633502994150058 0.04611734405476731
0.4786914373404417 0.1431108482066342 1.360135628558669
0.4947914623363232 0.07161109758303627 1.319168847495128
0.3254769115975563 -0.3783497538843395 0.5270736709922804
0.4701342988746016 -0.1694400060563137 1.540025744548214
0.486954322842824 -0.1121325189456395 1.622348159528655
0.4986751315946549 -0.0320594245307161 1.719822633292546
0.428274692645105 -0.2571004966755578 1.449413103939341
0.470779042860109 -0.1681020655468063 1.480666314740015
0.4187370601460018 -0.2724872267211428 1.336412894621892
0.4870131814618222 0.1125167497652144 1.276023809963318
0.495411314366374 0.06641185428485073 1.758794714228432
0.4976103766954642 0.04717045119656051 1.213301202063055
0.4416083620175139 0.2338784599491462 1.052106991506626
0.4220634075826676 -0.2671194713036056 0.5559514964953253
0.2685826706920389 -0.4205243393953336 0.1257783088692116
0.4520594300045928 0.2124031220092786 0.9060631171288608
0.4707232599269217 -0.1667745158975855 0.3484435547936663
0.4435340845134385 0.2296704945410686 0.7111164295716446
0.4893818852048113 -0.1000958349079055 0.1951152429862259
0.4182595462507088 -0.2739390309432256 1.129031465981049
0.4209895922785699 -0.2696574937118641 1.029599719739314
0.3928789651995105 -0.3078531418448815 0.2635565913389307
0.4300580541916023 -0.2535811357826673 0.3575726229474621
0.3245224620060312 0.3802354047323494 1.658538895592438
0.1965735408651716 0.4587720871960206 2.332172963895207
0.1772900693897566 0.4668217863124013 2.414112550840011
0.254545715309253 0.4298173093488651 2.417187631231671
0.229175977141838 0.4436343252412497 2.247480809107207
0.252250368832783 0.4310161975078147 2.352255740897156
0.2579913840704408 0.4281449410803467 2.149910971034523
0.2781405339048459 0.4147538657411788 2.054488640607044
0.2967024370885111 0.4023816974904819 1.96638573289269
0.3152270307477839 0.3877549895144427 1.885740118930003
0.3295290263522616 0.3756250382822823 2.406082018406525
0.4782780331790216 -0.1453914679873855 1.79055563067269
0.4937591861132578 -0.07795671683027321 1.865019877934771
0.4998249447384845 0.0118387439637279 1.830205069918357
0.461043550310298 -0.191810986490648 1.675160087478269
0.4433053404464866 -0.2303825002666847 1.581626179477404
0.4906798037539082 -0.09362331240774367 2.068868226194905
0.4839277174383368 -0.1246324397253369 1.978064502270268
0.4765713359428136 -0.1496378454264569 1.89057829350148
0.4976616259587026 -0.0439908389145886 1.946996542744052
0.4998402257840651 -0.005008897951535484 2.032262217276258
0.4979787852884314 0.03738797076272386 2.125943234643008
0.4978213278811879 -0.03056142876820399 2.258271938810973
0.4960712822613865 -0.0609374434000407 2.162977562882349
0.4993520533249146 -0.004288317129299826 2.349953046437639
0.4907167052518755 0.09376520449611454 2.323628824051297
0.4991633531277965 0.01724681419885043 2.43118531272459
0.4946487022866058 0.07040080925069828 2.226485740135868
0.4872721385553885 0.1101150624883064 2.414204448811686
0.4665779055624142 0.1775134693097281 2.199908878295971
0.475915977831016 0.1524523224878398 2.076858717141012
0.4749963045651148 0.1558660791921005 1.925650270942895
0.498838325646391 0.03091149394060782 1.913363411032321
0.4934482972775601 0.07969098007018552 1.98697240336251
0.4568882507769165 0.2029918702022118 1.996455488855069
0.4598701019777134 0.1949106987379925 2.305791653127136
0.4546146959235114 0.2065454041161074 2.404881944440075
0.4013520222999292 0.2977016165741129 2.401307993535554
0.4125957449494483 0.2817089135538193 2.183852378552506
0.4040682742311236 0.292576902929899 2.296015429600143
0.3808149166254019 0.323874255701532 1.842170172436429
0.3491559270095462 0.3574971281868602 2.073870121851779
0.3737149947330863 0.3319807823232773 1.915326941122587
0.359754925931318 0.347014359763214 1.994615445898593
0.3139970049732385 0.3884250424930853 2.295994035933921
0.3386358777428841 0.3676231646941105 2.17337915360985
0.4320390179774221 0.251597624235204 1.937468952937222
0.4181942664627797 0.2740192574524395 2.049670073625705
0.3549304439484923 0.3520719782476964 1.523251948058332
0.3713944548215388 0.3339488516359975 1.403833202605144
0.3359618377276616 0.370160627444284 1.819706218372715
0.3597820285751208 0.3468708002372574 1.576298872613363
0.3848524669888782 0.3185807618268978 1.469455069882232
0.3883952465066891 0.3143135675053282 1.326384867992719
0.4059952722868858 0.2909779702841745 1.269836624419147
0.4061883998897779 0.2904695612729931 1.366698299954419
0.4424881876972996 0.2318890264726567 1.326148694475429
0.4299216308191219 0.254809134456622 1.413074214944153
0.4309016816842571 0.2535535242646114 1.846630856651109
0.4922937325160969 0.08636433579279125 1.872502167487256
0.4759186631959949 0.1532634798715669 1.824116418650905
0.4881042552235547 0.1074506535097342 1.159879004647988
0.4016147186673642 -0.2966479129256825 0.1066151047886511
0.4739973348641464 0.158859457453133 1.120590347992349
0.4689638899682907 0.1723474390338823 1.230550765200306
0.4804376300765556 0.1353777837102774 0.7138130278850531
0.361431690876663 -0.3446233695677283 0.8586743174871558
0.4883508958736696 -0.1070648274939025 1.047665964270014
0.4999016301656237 -0.003689644246154731 0.8113329519779996
0.493379439781953 0.07665059607659402 0.3279856683747662
0.4228879249641339 0.2656087896287389 0.9552905681727243
0.4422653212913175 -0.2329100948882135 0.9830110743429203
0.4614768649039881 0.1905079350152851 0.7607489708206563
0.4629565789532397 0.1883418403843159 0.4173957283437322
0.4381645379767888 0.2403786589124296 1.164675970024922
0.4601293344478543 0.1952458783096841 0.4664646644043615
0.4044472114121713 -0.2932323614826218 0.3626980891355415
0.369207009040894 -0.3353631141927284 0.6165954555397127
0.3985155153027219 -0.3016324075102517 1.011217192605987
0.2424914963818626 -0.436732496264381 0.1863891404812327
0.4969217778592676 0.04022181744120662 0.1374400183627563
0.2633814262634228 -0.4239725331901515 0.3366697753776576
0.3194597135913858 -0.3831457237029202 0.4782568663204147
0.4820917408323953 -0.1289849114286553 0.2957959212101374
0.4160265958807993 -0.2765290459596817 0.8368479574553405
0.4960298506271081 -0.06099486952626873 0.1439269001937773
0.4819627863168088 -0.1317240446356708 0.04918370823684786
0.4755094263797892 -0.1543367978764709 1.037778493290871
0.2764390345633045 -0.4159922532027577 0.435580566528029
0.3076226522635702 -0.3936006282799634 0.3799040538325791
0.4508581694270863 -0.2136828754392942 0.6439668090299639
0.4877612986340849 0.1071424009107533 0.5214966997517463
0.3556580092882176 -0.3503752983021895 0.2180335757124778
0.30158195353255 -0.3984502963011698 0.6316605289140957
0.4777493529999234 -0.1471030474238375 0.899591410734438
0.4787903198733002 0.1423568451445408 0.76168985256727
0.4802819213540762 -0.1384460229723023 0.2471384285346027
0.4973366383474817 0.04797220525568444 0.8106626031306727
0.4963425127721103 -0.05579100514307424 0.4364179864541559
0.4844014285344105 0.1214377946321596 0.6179563010657136
0.4591897388032691 -0.1978228784218407 1.037525952121164
0.4846285650146951 -0.1206559250029565 0.09800938133858891
0.4991989709510154 -0.02042852850383917 0.6731862184841817
0.4941188699602355 0.0722432165102575 0.6205348763030395
0.4616060944048648 -0.1887275132428872 0.4975618170774958
0.4648600832247809 0.18369311834434 0.7124167522878889
0.4681433418115408 -0.1754717067575734 0.299770941496819
0.498157752684342 -0.04062589645194043 0.5320039115093764
0.4997575461225183 -0.01083208188456205 0.1410131718511625
0.4985288042989282 0.03490338364472542 0.3803144709719049
0.4931289475094547 -0.08237695125751408 0.5831216966691084
0.4029957715889429 -0.2942012882477642 0.6566906715021689
0.488492540286953 -0.1040199141240612 0.814135269634804
0.4978097328035809 -0.04535608253937402 0.9435871245725908
0.4991458212215011 -0.01468278315121314 0.3842626377225483
0.4975958839038247 0.04272734587446316 0.4285158608335391
0.4901385876780328 0.09214150019451715 0.4247534720695378
0.498007166318628 -0.03186408963379166 0.2879994330055554
0.4557065132324987 -0.2034493211538058 0.4013947103658452
0.4551676146002952 -0.2069161779345158 1.08619375146796
0.4715907482904973 0.162158229933072 0.5670500016289516
0.4648958832179338 -0.182125398548172 0.5450737463488832
0.4960458471809592 0.05033576973542762 0.4766615323862793
0.2335889242095138 -0.4413954441409189 0.1349931324578854
0.4857215726699824 0.1141534621533328 0.5698237462487867
0.4851284321451975 -0.1209219913266558 1.103842013042028
0.4605541521310074 -0.1945802485238603 1.008360217002486
0.3305224577025247 -0.3738972198094084 0.8716808990892859
0.4708762243538153 0.1673166592103839 0.2704125610839722
0.3367289445091789 -0.3695317604098205 0.3243000750021702
0.4145807379988821 -0.2778826012359892 0.2088525877391118
0.4843225982755479 0.1218708489225225 0.04027931358273108
0.485632566617243 -0.1178388704172476 0.6800676454465203
0.2551399784367476 -0.429252796868201 0.06932790445485192
0.4983883031191319 -0.02684732163468218 0.6264628739111872
0.4893888688080821 -0.100237015444623 1.826020651485279
0.4864791513027615 -0.1128023324057136 1.881857636926816
0.4742624184903954 -0.1563936568346211 1.846773872550775
0.4867124354707783 0.1135771835918248 1.900100318844652
0.4871458679356755 0.1122745715576655 1.846555890011333
0.4722386284640578 0.1641210247072623 1.876070655857343
0.3425531510675232 -0.364071551421878 0.6719394188936468
0.4778861426441116 -0.14341716125698 0.492808732928545
0.4480667626723226 0.2197104462464552 0.9545331112305588
0.4990207924405918 0.02753624726051915 1.061471214803163
0.4866837012389157 0.11340350594128 0.9054533797443655
0.4691269971204036 0.1718911592488675 0.9539250288671439
0.4573652739038071 -0.2019523875995323 1.063431320071699
0.4018621481564558 -0.2974785940648474 1.124139945963549
0.4943239455773357 -0.06968278893406918 0.6763582576934527
0.3519576044237452 0.3547841321773804 2.032524521703089
0.3819043883296849 0.3224116550367387 2.074921644541075
0.3874759954709341 0.3154013461449638 2.009865947111031
0.4682418718912861 0.1743805116381983 0.3193393886766774
0.3983384754838851 -0.3019866181563985 1.292181590576809
0.4668471249357435 0.1781507979387167 2.026139478780547
0.4438745139708002 0.2300860138229688 2.0192663219918
0.4504733206896955 0.2165153026215078 2.079983478828296
0.4633398263788131 0.1876407744761986 1.048676765087121
0.4655707370188318 -0.1787006358149775 0.05022159550589577
0.484473306702043 -0.1202884026985752 0.344212372767726
0.4991011207993014 -0.02373511884815783 2.446070649595183
0.4991244683278585 0.02452122560810046 2.465982211675818
0.3375628855388965 0.3679293286304591 1.524053063687156
0.3320671101289309 0.3728449080776197 1.569321913861975
0.3599833103600564 0.3465363316595431 1.543475700961985
0.4851880240541654 0.1206172271753798 1.395440364950098
0.4692278695027362 0.1721054690978089 1.413021536089635
0.4995737833431684 0.01483240332430662 1.877603868093764
0.4965601554342288 0.05720332415781904 1.847426081677645
0.4959450224219291 0.06184884884879838 1.89637774483476
0.4084297441198878 -0.2859883135694213 1.510893051244961
0.4168178754437773 -0.2757501922498373 1.464214663975515
0.4980901244274448 0.03918854715553362 1.297583055863872
0.4967428761193032 0.05632097504645744 1.342194695319163
0.4205591285955212 0.2693469677484836 1.345934934390997
0.4164119245535394 0.276480554353482 1.390617114884976
0.4403206494415017 0.2365877097243936 1.377080864319866
0.3896886649685778 0.3131721187280816 1.552024088416788
0.376344521024382 0.3290432397318857 1.595273297663297
0.4963995887968698 -0.05922991944938946 0.7675457634456703
0.4992723101575505 -0.0005848119494066932 0.1883152697673883
0.484731219495835 0.1215344010176083 0.9537004912546776
0.4991118188813612 0.02623221268079337 1.734659848009658
0.4978908703987089 0.04433259351524235 1.794348167696896
0.4996492637682741 -0.01841554671417037 1.782329268380493
0.4995470958296246 -0.006812714549828198 0.4323741186397557
0.4854604499238976 0.1185083324572898 0.2752099977862543
0.34804429122485 -0.3582960015629455 0.1665366685707054
0.3102214105220519 0.3920103614779707 1.695324337325882
0.306710524641488 0.3938922984449176 1.647183170755607
0.4501442575532002 -0.2172343226492277 1.464173304896108
0.401860976704267 -0.296503120851416 1.470972668004275
0.4490038983606938 -0.2198955106187569 1.408581016997939
0.4462851269321451 -0.224277212075526 0.05131006182195007
0.3130480817815082 -0.3880627387393715 0.7286400977721486
0.4343862299991204 -0.2460658548535832 0.4062836819059155
0.4896973353413291 0.1006724544108183 1.341226504208798
0.4917395095246999 0.08843355125383447 1.295896845509087
0.4812749766556148 0.1345487067975025 1.310027260133627
0.3606033550806845 0.3455076060176309 1.377709691915035
0.3530951206956373 0.3534290300237589 1.420187802456825
0.3538533651002943 0.352416547667227 1.464019477375876
0.3803937724488736 0.323650187713534 1.431189806373004
0.4907168814035762 0.09252164368895323 0.7627548835321663
0.4290831292699383 -0.2556442016234526 0.6499944602600056
0.4769646341645261 -0.1478059974344544 0.1982925507699219
0.3579472268550296 0.3489470357905419 1.835761666056643
0.3805044000356681 0.3243307133134623 1.809042329648883
0.3488568934197878 0.3581091916009493 1.794292455345974
0.3275961725320602 0.3776004596516809 1.746691413118971
0.3094403166676647 0.3923886025547622 1.796569159738444
0.4673960886776929 0.1771147740001214 1.968969768601101
0.4556574398062057 0.2057734140199584 1.921917833844112
0.4464620130818112 0.2248898184135421 1.971126461371448
0.4196016715194448 0.2714439469954227 1.985449006404415
0.4804942118899646 -0.1376180888967858 2.085691351007236
0.4933253130963147 -0.07713055907150951 2.115551794078929
0.4878138204170209 -0.107992972115034 2.180605412330524
0.4836661712857308 -0.1226769411413891 2.133002648129066
0.4344541440855761 -0.2466336436534569 0.154844271490018
0.4866553407729379 -0.1125584187722635 0.7255047204988178
0.2828271211686749 -0.411794198970977 0.4848118796214645
0.4995476325760391 -0.01450537658417741 0.7195159521353625
0.4616395531191571 -0.1919805133354837 0.9032298874977933
0.4968026910096333 -0.05583338438428367 1.068497767622116
0.467460820406664 -0.1757247671526596 0.5921017416249615
0.4950343244662025 -0.06381793045310208 0.3883209051850399
0.239838216309657 0.4377969919144528 2.041144886101848
0.2169807623697277 0.4503124042830321 2.136453551541828
0.2686641395603563 0.4210190122167108 2.101384163265223
0.2286805824232634 0.4437298942634659 2.088438358486282
0.4927826659025452 0.07910559074192973 0.6680676857415486
0.4590396855567598 0.1979821637841173 0.809158410045699
0.4558704054914435 -0.2035824058091445 0.7349176150800705
0.4197392702757881 -0.2712340493852646 0.9195485510436365
0.492720821375273 -0.0787669634844977 2.275583113227575
0.4987436740820198 -0.01690989572084833 2.304950472653014
0.4966484476864226 -0.05087362634385162 2.367453871659167
0.4952158113034346 -0.06468472951375991 2.322256019513435
0.4959115268074849 0.05792461171930904 0.5247168940253197
0.4505867980704597 0.2157782679348956 0.6133537428169284
0.4397411167083323 0.2367176086095756 0.759900037118773
0.477180367680174 -0.1486947185720698 0.8591931944110145
0.4767549230882639 -0.1504377318767365 1.007681970826882
0.4821984603776867 0.1283802391150823 0.6659129793300195
0.4358983201874074 -0.2449246627987716 1.100957363626667
0.4475656215880575 0.2228094254784703 0.6622624068846502
0.4899873286852273 -0.09887309874935959 0.9778952987314169
0.4603890957015436 -0.1933114060538892 0.8634669692849228
0.1890440650180573 0.4625441495524646 2.232313412016209
0.244893264313021 0.4355592828040153 2.199197907778374
0.2036632465355502 0.4565420378012056 2.184690694347404
0.3868190839252226 -0.3160275305002591 0.2131819602919096
0.3295795409175427 -0.3750247072492202 0.2742491015554601
0.3796096677376497 -0.3244601668842331 0.1619890854896476
0.4617098495821096 -0.1915605455827889 0.940881648611782
0.4869883786911354 0.1102750959832421 0.2269913510690221
0.471628409336516 -0.1655459929106244 1.992235907544595
0.487385671804707 -0.1095940421406274 2.023024048215861
0.4761481072894078 -0.1518697211963183 2.038781443416296
0.2872470628441548 0.4088252101973174 2.009553973960148
0.2615621166432886 0.4259317064828095 1.949505980976134
0.2508000497006567 0.4322171366389752 1.994778257820373
0.3999853876752767 0.2986590621907023 2.451084699087943
0.3670281051067845 0.3388035915184384 2.402354971528097
0.3310099139929975 0.374063057251365 2.453433282876696
0.3670104028917573 0.3382469894089282 2.45168757525154
0.4534283531948808 -0.2083702160431303 0.689846340875398
0.4424515079805084 -0.2325444629967739 0.5026124063048469
0.4996518744413589 0.01728700826826068 1.000258623380616
0.4372717903017338 -0.2411569096941053 0.7854883474397932
0.4803654845134198 -0.1364623904300236 0.5402760434853914
0.4673525191991537 0.1766123127802388 0.66398713864326
0.4957104120736516 0.05974332200961376 0.2317269812307869
0.4897053632362506 -0.09651228622581415 0.4883540980359725
0.3722124027624358 -0.3333684909820455 0.9897828295406195
0.3412102746445093 -0.3646998008828836 0.9645302789833182
0.4820091109793362 0.1310297120255514 1.002077673366979
0.3387923962573601 -0.3669061812450245 0.1135870256353068
0.4127811357421332 -0.2797395122638808 0.7933631394137466
0.4185104162080283 0.2729268007641893 1.004405061836175
0.4443760778778824 -0.2281228873564572 0.2547224402178421
0.4594113644413934 -0.1959122414445615 0.8219757682952216
0.3953494487171221 -0.3055829917778867 0.5621113237827542
0.4975714463622184 -0.04534753016027028 2.210693638496001
0.4898031195713596 -0.09310656627265973 2.228200919504439
0.2912981298139391 0.4058950006138374 2.412686042758497
0.2532504523983037 0.4306474539816296 2.457891135908516
0.2927064760953348 0.4048457909192228 2.456093141880248
0.4410731131314561 -0.2352197463295097 0.8700776038643903
0.3594096823266864 -0.3462327490744042 0.5204471282480181
0.4201390689850966 -0.269284977529593 0.2589349754152833
0.3859117299563417 -0.3174426118965152 0.4657748030416003
0.4523330126906766 0.2107910791443984 2.452656238234451
0.430304182831351 0.2530115308160918 2.402320266494268
0.4291838218282951 0.2562988570010786 2.451522881386718
0.4918934187764857 0.08111284362716283 0.0875328084012435
0.4975936644092857 -0.04795439450464275 1.171147993778809
0.3658056694196219 -0.3408550096239041 0.9034131689388157
0.4921361448812483 0.08767238752705177 1.720471169281647
0.4996117783301921 0.002142633880984783 1.666206762202452
0.4976617310438121 0.0467793497622184 1.693755181859991
0.4465030436019662 0.2245352025859231 1.441068726759623
0.4128506012592782 0.2813256984373945 1.443242958923721
0.4076811116348908 0.2893469903289322 1.503048015397636
0.4308434957242288 0.2534921723458713 1.475936320439366
0.3989147186301888 -0.3004494638162427 0.3133673883199626
0.498653659511529 0.0172641062598246 0.04573886553121587
0.4969480159962206 0.05411490827697932 0.8574622403390663
0.4343225459769671 -0.2475000290803633 1.538440893264226
0.4008632602168877 -0.2980046670604011 1.404137374394179
0.4384212783838999 -0.2397844364859871 1.482611357094004
0.3281558528584658 -0.3769782900828894 0.05852911081096702
0.2870877768178914 -0.4090606375919729 0.229921945283853
0.4914054600006849 0.0844287017816084 0.3763365658352602
0.4893701321496041 -0.1008835312190657 0.8570421222285022
0.490714509119495 0.09212169012190959 0.1327724288428193
0.489010382368633 0.1016362336349887 0.17938012263729
0.4842854470265427 -0.1236367652359773 0.6339688955498038
0.2786805533637985 -0.4143769138937769 0.1786393715165991
0.4619862768090597 -0.1892227184615456 1.899716492946403
0.4800164023251406 -0.1382367070705692 1.933921120193357
0.4669487400918615 -0.1782358999890675 1.945967842497921
0.3561782747085844 -0.3502211303824799 1.100362943045304
0.4135784070658639 -0.2795278203580215 0.4600232072406642
0.4858179703448322 0.116079654863418 2.457331007677252
0.4735954613619101 0.1585792798879644 2.408828579426822
0.4717099479480991 0.1639731620576642 2.454573710163128
0.4959094039554583 -0.04802412587907284 0.484272757277056
0.2941254130608589 -0.4033137677564721 0.2803744268444716
0.469989214823679 0.1704657398897221 1.776195996636641
0.4884525286270213 0.1066173631636134 1.786230573002674
0.4831899886226125 0.1280133021765859 1.747760665955842
0.3059293382841744 0.3952735869505287 1.924855839363729
0.2830331457108472 0.4118147811115097 1.864150922804239
0.2719960088569974 0.4189667879004721 1.905622756224488
0.4827765472269557 0.1260099317329129 0.3237245253284126
0.4082938021551364 -0.2868451086854243 0.1581681748626176
0.4378624463011339 -0.2387596872607021 0.4546643585820345
0.4274171084932559 0.2583284979996529 0.9063973976577092
0.4171046157061248 -0.2725747827871439 0.5081781391313054
0.3541783146681511 -0.3519329718958799 0.4718629280978818
0.2171363053344402 0.449732076552416 2.416744173334048
0.1687844308485819 0.4700070154599036 2.45672417333644
0.2120130426163767 0.4519549907521301 2.457834780083388
0.4540778348123401 0.20922878541214 1.837915718795248
0.4288481639232429 0.2569794885322982 1.810590669842152
0.4511972160067281 0.2153601803571651 1.7968992252921
0.441848402720441 -0.2326789669754337 1.696748116594333
0.425174762909144 -0.2609761469677601 1.600647812442862
0.4517275061078145 -0.2116236097759172 1.62707796235274
0.4343049282851668 -0.247486639794917 1.647896178286864
0.4033120338129411 0.2953571140230663 1.158635376339586
0.4388384128348794 0.2384586731564021 1.103198803397214
0.40920812927816 0.2866139526330035 1.105184912693616
0.4481160639083205 -0.2205756473084331 1.520594955350957
0.4168785511534594 -0.2740994067170978 1.554767239840195
0.4902880457813382 -0.09805658263526838 0.9392080111103709
0.4988217567692791 0.008438718601665429 0.5282367339848055
0.4105160165040658 -0.2845335338164494 0.7486760229212571
0.2499517372731282 -0.4324291063511136 0.2369204754356419
0.34828462802006 -0.3573505295507978 0.4230352849385404
0.4253772115090994 -0.261292963604094 0.3084807990580807
0.4989913725718207 -0.02300066472966931 0.3361603555088015
0.3814936459481355 -0.3230530231986707 1.114468779021441
0.475605983355566 0.152421051660106 0.1734449707347989
0.4732540008680243 -0.1591725896507683 0.7296874949152079
0.4813373586417951 0.1347680610926723 0.08114604378003251
0.4893462497568659 0.09923865316856094 0.8101080746949312
0.4569444450447087 0.2020174119569757 0.5154859030761845
0.3621527203445423 -0.3439551413628411 1.146258535745379
0.4821799548821164 -0.1297594339985568 0.5873452892805857
0.4991885384235513 0.007228983609169362 2.392382929265441
0.4981091973297205 -0.03738048612496203 2.409698758645705
0.3971263411706846 -0.3033476125293649 0.9723673561787242
0.3828422947764303 -0.3206593946349325 0.7571723861693465
0.4202977346257128 -0.270751479803176 1.062738593748184
0.490071673202527 -0.09883974341621296 0.898806477946434
0.4451303447474209 -0.2256933712884208 0.550285197477722
0.47784403995078 -0.1467248587827846 0.9381077032641445
0.3223588621442343 -0.3815587984386837 0.2235917172261825
0.4800208694506219 -0.1395666227876898 1.517637229899705
0.4260041061811373 -0.2613208029211235 1.39948424877306
0.4391521386981134 -0.2389101467094909 1.430103975467165
0.4770129282491579 0.1482863528322906 0.4697340117528716
0.4790107058997603 0.1409907543475101 0.4210250957697793
0.3368643365808056 -0.3686698815314069 0.623966138298762
0.4998831964000223 -0.009035144908357684 0.7655543752976552
0.3147070242716141 0.388046686408225 2.065925021522321
0.3294637018913946 0.3759806640871212 1.981159614035635
0.3212184737361199 0.3824257368017832 2.022342456587692
0.4922521139590236 0.08708109528875728 1.368089450294832
0.4939747305339749 -0.07546323466803602 1.592149615285018
0.4936222608098708 -0.07736797904599206 1.667380708519075
0.4982893675750013 -0.0388943237747803 1.629734000934086
0.4789915023169229 -0.1422688931620579 1.580325603926846
0.4877164580657256 -0.1087590122062308 1.554789598469799
0.4067685651841369 -0.2905127313331474 1.36910011450198
0.4179567058790037 -0.2743185787767683 1.423461838688215
0.4973495112536446 -0.04930153158407873 2.051235162851577
0.4994320282678117 0.01640183890910969 2.077805288375303
0.4992852992505482 -0.0126274401145582 2.144928955149632
0.4986396703287426 -0.03072236038425751 2.097401686768105
0.3822582041615162 0.3214463738783696 1.257152474033794
0.4196240135509147 0.2711413816470757 1.224697792966992
0.3920712048063922 0.3089648162714704 1.210681930242102
0.3390694728628364 0.3673031709991911 1.618119638070952
0.3190417968248401 0.3841513180068896 1.606072027147675
0.3747314967430623 -0.3296262768404632 0.3681013048051192
0.4182716473049165 -0.2735387116779357 0.8789999104422476
0.4946202527471326 -0.07172005770091475 0.09609840840676495
0.3933839608345905 -0.3066839845139677 0.05395158645568059
0.3643636310309086 0.3416865783956346 1.504200391768842
0.3790075733057737 0.3260125090427202 1.525949872504616
0.460570453804382 -0.1937482826031636 0.2015655353246055
0.4656042941101496 0.1813614135125502 0.3683500653163638
0.3644849107821751 -0.3407740403022317 0.5687158576208756
0.4961859307938027 0.06059818627341982 0.9047023992393551
0.4996555721649236 0.0167460628494206 1.24484485637998
0.4996969075489802 0.01190203698095416 1.17740633348749
0.4995499153195702 -0.01684583920396099 1.209985164368155
0.3630050078089694 -0.3435758969350979 0.2686721360403965
0.4614145573928128 -0.1924699465459333 0.9760499282211843
0.3008327165325154 -0.3980542270520004 0.3303147402524839
0.3044499185391555 -0.3964726339333062 0.118756145255687
0.2986786248616589 0.4009052748683614 2.1626914278146
0.3450065401356469 0.361431705180495 2.12141710035872
0.307451348266027 0.3937182297303299 2.112848378963217
0.4029035437283999 0.2960325706626567 2.349795877324602
0.4571915228343336 0.2014469319663943 2.356027868584504
0.4352749572535781 0.2445537488835637 2.299898692824763
0.4330640743361245 0.2495819072028791 2.351893948869861
0.4416103640586131 -0.2343675559575147 1.015853795717953
0.4721367704646591 0.1640917687417781 0.9057679339435543
0.4927453443161957 -0.08291327339393034 0.04818930040638145
0.4996385138036362 0.01125581973557335 0.9498755535506695
0.4053638466605381 -0.2925863403252985 1.165824855465508
0.4967287365145517 -0.05462253120295178 0.8123206383981736
0.4978926906242296 -0.04471366985474905 0.986671970343623
0.4914738230061462 -0.09051232728225785 0.2435337129805376
0.4990239385929617 0.01571327607851467 0.5759118339940698
0.2918324701127555 -0.4054116184023186 0.06259366926746311
0.4384106163553478 -0.2403415723462494 1.074212251992466
0.4064544844974312 -0.2889384234241644 0.7030584628273503
0.2952899875247009 -0.402873708689757 0.5828565970765328
0.3931362749106181 -0.3088018200232991 0.8901909404638715
0.4982605742205338 0.03566308920254921 0.7173362460709154
0.3458982085506974 -0.3597639285953614 1.010069043063348
0.3476319395659347 -0.3588688792172011 0.719522742194081
0.3690019242298176 -0.3364229422881792 0.3186176756457352
0.469684371112958 0.1694108205822316 0.6155401725406903
0.4868504991997833 -0.1138102930462311 1.077441957201063
0.3623241104232229 -0.343965339780252 0.05581542140794969
0.3410462221707579 0.3655481534626454 1.671271119382304
0.3558403048589168 0.3511339310883567 1.630664707562267
0.4192328633801832 -0.2723973497312474 1.095206417044771
0.499694260658627 0.001406732198365585 0.8569829003444882
0.4723545122210351 -0.16392801365985 1.087184563100593
0.4998878894649677 -0.001490296224197128 1.102764754465924
0.3250523327804575 0.3796873119945238 1.850292783122115
0.2951568924375275 0.4033196202060995 1.826931030140901
0.4694016375952966 -0.1695914787845081 0.6386309265232477
0.3138940503682836 -0.3880801031781673 0.172001502775657
0.4315279215654643 0.2509531280428439 0.8575667517645169
0.4518233364271786 -0.2136753939482611 0.101888175749209
0.4603838491402102 -0.1947144060317082 1.444185103904121
0.4056796147562616 0.2922595226617659 1.847065248622932
0.4040222634500479 0.294488112793219 1.813157687871669
0.4929394805886269 0.08271849043206962 1.244815578294828
0.4965437874666442 0.05821882609222866 1.270593783306336
0.1347238753542919 0.4807786463375909 2.411156048967901
0.123166863805828 0.4839106141170197 2.45535339853994
0.3426250188368721 -0.3633766741777053 0.3738623295131355
0.4938133997173605 0.07774890164955817 1.003182665280734
0.3750241939411986 -0.3301584429627554 1.031483313925581
0.4976390368233757 0.04180340581221553 0.7640067295457531
0.4207023459499049 -0.269817906474582 0.9582054620159506
0.18614040267444 0.4633866339724476 2.372523868078641
0.1594160481663807 0.47358338495931 2.322678044871148
0.1466546461651449 0.4773956576044318 2.366757772922392
0.3298746110187506 0.3756097177197428 1.710931857482442
0.4755801849668785 0.1529004925658681 1.090539859917834
0.4805115845953425 0.1365963280019989 1.138015844695559
0.4941100380461017 0.07596361642847749 1.119902987077456
0.4879288698712644 -0.108087354343045 0.7702472125160419
0.4861030511740075 0.1158783897376849 1.101763250516658
0.4139160009436625 0.279755608461933 1.054065680247016
0.4361961485857109 0.2441035690580894 0.8087453183043884
0.4859545592733762 0.1171691951111866 1.958882157244551
0.4970217288065822 0.05289603418746503 1.94908727215869
0.4922480521360308 0.08614779798679199 1.926154880279377
0.4561756966115459 -0.2045148887988149 1.800772502263596
0.4578164864630215 -0.1979487933057778 1.852342973163086
0.4563080034635203 -0.2034188435062602 0.1519335173504355
0.4483897884160867 -0.2195807408711146 0.5974138078312573
0.4993385193437764 -0.02548266607754957 1.138144004650693
0.4659291432262591 0.180049148919206 1.001831449923566
0.4932854313529848 -0.07578577449142374 0.6299804026605831
0.3908715500266371 -0.3114963713526833 0.5141207069123859
0.4988623745945879 0.02941161768648365 0.6704040347668063
0.3193596603268344 -0.3838153627281743 0.7767140747202382
0.4582120605482183 -0.199497497883601 0.7790550810756711
0.4520009076508428 -0.2111561361773273 0.3528476308773639
0.3739744718522093 -0.3303695027915489 0.6640272233328208
0.49991693670546 0.0007879707993965236 0.4802979591669673
0.2890299034793754 -0.4072891097770762 0.5338871590193509
0.3076372867613961 -0.3935979362133967 0.6802980500289659
0.4884375358997629 0.1062073380714984 0.8576102646923291
0.4761742257900278 -0.1513494846209248 0.8172395091245418
0.4632426872873613 0.1873599377740443 1.343663048937231
0.4558651366815765 0.2052551427563381 1.393717324845643
0.425181618383467 -0.260826664391364 0.6032521566996466
0.495227916871961 -0.06839434313537536 1.102788057401468
0.4594152499381851 -0.1960629912819453 0.4496767091813139
0.495037502863152 0.06793682754598901 0.9530003502747997
0.4965922824639594 0.05531930126068247 2.176161454411012
0.4989821533982003 0.019100366017739 2.241891169055133
0.4994755393564281 0.004069201860634896 2.193405394727009
0.4739957959966139 -0.1590333033000193 1.064298510784598
0.4395571053921241 -0.2370932060497868 0.2050168297773743
0.4910349489671345 0.09288387990537733 1.054762822750001
0.4747198672109518 0.155391357798837 0.5184519400065064
0.3511476250470035 -0.3554586123858568 1.055214713607341
0.4963936468649681 0.05037879769006302 0.184275362579831
0.4323108943024878 -0.2504968717207578 0.6960410686754505
0.4809106870992767 0.1335782100457927 0.3723622338919895
0.499000231329446 -0.02179455225106807 0.09400051637319666
0.477570509183341 -0.1478405266804386 0.9742996681508519
0.4975474930651647 -0.04117416003458387 0.2398813414350005
0.4702639407686341 -0.1681482483843214 0.09987658720628946
0.498982760351201 0.02268100707216082 0.6232725764527395
0.4958263787426162 0.06245480202387398 2.421350935973734
0.4949577781065901 0.06854770008991193 2.461037529546409
0.4700265347803615 -0.1700329722383915 1.72760326582688
0.4499584966264806 -0.2179440375678428 1.747584953383976
0.3430133831898724 0.3631767736484975 1.495346909630138
0.4925614532574428 0.0830498844439256 2.27579231855862
0.4973643659275716 0.04398470682865454 2.335575695602984
0.4978515074502582 0.03231999015655859 2.289500675669592
0.2116023440957207 0.4521992531362247 2.291728190922003
0.1737064003148662 0.4683352464360593 2.278311454303139
0.3659323465457141 0.3396594668070036 2.294272016606201
0.3251872449774468 0.3794000634256667 2.356037384616616
0.3664037875858305 0.3397484036333607 2.350449043032191
0.3720959885586187 0.3333593790385836 1.331356374032255
0.3948572480180889 0.3062044150929038 1.303863342151211
0.374260323526211 0.3305985847267851 1.297371986682825
0.4283997944694791 -0.2564231447348697 0.1040556971383985
0.4792201950060897 0.1422079861688955 1.04898356643831
0.4927301179079691 -0.08102955636317685 0.2919048769244652
0.3689046135332771 -0.3367249297825888 0.9471411292786008
0.2203842034874943 -0.4479617720642734 0.08174190907048987
0.254145933780082 0.4297405094291724 2.380290050588858
0.2290889100242104 0.4438678566485165 2.342449664120374
0.2220515954120946 0.446975044769898 2.377865409990693
0.3253400908899866 -0.3792797579207037 0.8244129513574917
0.3714591358282182 -0.3335839796134029 0.1096889954807653
0.4948349668334408 0.06862405726810782 0.04374747839515208
0.4997455128597127 0.006287215339554449 0.9028686706362139
0.4934923645699643 0.08032892904465928 1.818374612258158
0.4735201349958179 -0.1576183554400502 0.1492410801845207
0.4085495914046566 -0.2858111500507456 0.4115462183695832
0.3136898809434381 -0.388469616900103 0.4291943984364565
0.4403320738011203 -0.2368651317629184 1.046155185768824
0.4756901461341493 -0.1512228037166706 1.650095187658974
0.4582177551189295 -0.1997684886711417 1.561464549940135
0.4674514687828108 -0.1768023742083214 1.604521033855553
0.4752772523559866 -0.155092959917137 0.7739790604503075
0.3565255896999214 -0.3485627433394128 0.8130281995745331
0.4481867691312204 -0.2193253760102565 0.3039785774973979
0.4924975663241973 -0.08398692049488954 1.963152498465265
0.4992095243891315 -0.02527718414837581 1.988883879268943
0.4943126145574098 -0.06707821899546768 2.006556589343855
0.4419028925458163 -0.2333208605802033 0.9098724594206354
0.4535293742254792 0.2087670041024128 0.5644536252679239
0.4392331150282221 -0.2377043122928967 0.8285019563259877
0.4766389220197699 0.1494508255427622 0.8096252968568074
0.4955205207720451 -0.06414072352271161 0.7222166126008942
0.3290598975376163 0.3757682981725172 2.229657113216899
0.4086323380984816 0.2878665886817903 2.240478621952218
0.3774250365570214 0.3277275833211273 2.179695263488014
0.3717953162024471 0.3340719946596903 2.235993870991224
0.4730366908719657 -0.1585375036808077 0.3968148495481716
0.4980722750894381 -0.03362555043307295 0.5793849235358064
0.3522090464218504 -0.353617071707477 0.7666063564904304
0.473638167183086 0.1600256841785949 0.2217031602483242
0.4219384398226096 -0.2668759649690408 0.05251044277231953
0.4998738817665441 -0.005195047371548174 1.930114386194112
0.498251631370386 0.03844572375743029 2.011131626103699
0.4996919096073848 0.01519899986226155 1.96979455453491
0.495657606990664 -0.06095881571515937 1.905850109381944
0.4897417735755701 -0.09924765317770563 1.921167372614129
0.3995546750891114 -0.3004130520753628 1.048842196511883
0.4981830802231172 -0.03754781787265707 1.846780959883132
0.4993186345589694 -0.02234025685529487 1.890236503155965
0.4944965261810299 0.06846922473504437 0.2797033766948173
0.4744262452251136 0.1565959236203779 0.8576079791112438
0.4892403921815455 0.09977491810641166 0.4731145912794228
0.2693259731357737 0.4202521242388931 2.266401178955212
0.2860984228811721 0.4089543041750393 2.214615271986086
0.4944600699529034 0.06513373436104422 0.5727034859188098
0.3901288028053032 -0.3122104299615953 0.8469921504616106
0.4932378754165651 -0.08181465266751248 1.133666990007439
0.4867675762834947 -0.1119757406011845 0.3925072465819524
0.4423984068931202 -0.2325768034430155 0.9476129420860737
0.3951930323916821 -0.3056320048002004 0.9320508800766466
0.2567920733263179 -0.4281600643946427 0.2869672723712781
0.3994845727674382 -0.2998464489111853 0.6096550156386973
0.4985820286423913 0.01815240646578885 0.2839699569172503
0.4871050281684355 -0.1100717636880151 0.1466096562926638
0.4777839105735835 0.1441262617045453 0.1262100016116379
0.4798131777334149 0.1393093149245025 1.193838383313523
0.4793529823720556 0.1411539554283284 1.254745930310219
0.4938120346235713 0.07699867906542528 1.185233111984169
0.4874433276026546 0.1104499671543166 1.219560631882885
0.4875466753901822 0.1100975335404019 2.028657438283122
0.4914866030225242 0.09047225328017898 2.104616832242095
0.495705473758129 0.06392430959744271 2.05554280319331
0.4163015270361094 0.2764422030832768 2.124110745502393
0.442830410565945 0.2311941241147938 2.191113652217348
0.4710538043784593 0.1663843226985143 2.142612602557037
0.44708664772391 0.2237489499470097 2.134569435959202
0.4646378735016783 -0.1845233707756177 0.2508405032116285
0.3972852580435481 -0.3034105340636269 1.205982883376297
0.4982381576217476 0.04172116351618858 1.146876943103097
0.4985924853803814 0.02674131750995619 0.3320850874136036
0.3779741744739557 -0.3269961732206436 1.072722220666801
0.4567097281248976 0.2020455119074341 1.274038619189474
0.4710049139502663 0.1669616062460902 1.294729808920507
0.4892655066948855 0.1027840968389489 2.369779158378498
0.4967720843378592 0.05411438369586971 2.379647946521035
0.4895190897448984 -0.1017873277782048 1.014337805108521
0.3813693422677743 0.3232385571712206 2.125321412274742
0.4838948271664144 0.1232906042704056 2.212189337504123
0.4633259295030926 0.1870728616590371 2.253874312922217
0.4783325619568041 0.1443693882690248 2.313753850323921
0.4809754736659481 0.134831909152181 2.263845889478805
0.4967200894752014 -0.05084863954664548 0.1918567243428768
0.4713385256401897 -0.1640600320471061 0.6845388262963501
0.4448060854648116 0.2273185499767202 1.003109184130438
0.3787096953010978 -0.3256446911305982 0.7108994403350554
0.4211456744505858 -0.2692995362912385 0.9948764822802985
0.4391634545597355 0.2384853889692957 2.246299470805078
0.4914125024513595 -0.09097154765404182 1.752710442484654
0.4958931605230018 -0.06143363347531318 1.802151397215046
0.4988080488150081 0.009050217213049005 0.2360055335569412
0.4759295157474632 0.1522180601481508 2.36198510680922
0.487734796246611 0.1091247828818711 2.158841081000916
0.4781269010539158 0.1461882928044428 1.995810772557012
0.4974984200052464 -0.04745354296626785 0.9002622102871458
0.4913182461492572 0.08576531420770908 0.7154448174657027
0.4020464636735862 0.2970657430685184 1.926636639133956
0.4316110386131988 0.252206530697678 1.887852950390861
0.3782989541723465 0.3267870323146411 1.877350118652477
0.4050763802060456 0.2930786280691584 1.884942609429318
0.3450685474011301 0.3615687044194225 1.90233265152646
0.3518224469151031 0.3548676748541751 1.866746954373329
0.4004326534468587 -0.2992691929039556 1.08601130164848
0.4352409255879134 -0.2456146880641873 0.7412707552573045
0.2738159334371087 0.4179774036445974 2.333314689249078
0.2861156742560939 0.4090399458705549 2.370874944600293
0.4560086854337857 0.204722450011853 1.201868677797924
0.4255202022486685 0.2617257952305733 1.29191335209611
0.4404950971219004 0.2359556721656101 1.248274942244847
0.4629567770417489 0.1875301571975453 1.133938002120693
0.4612769339074815 0.1917533685898682 1.09314356816385
0.4984487302084973 0.02919895191880488 0.09132292972318354
0.3670958955828279 0.3391450709494664 1.954892793281
0.3373639483806435 0.3685800619222641 1.940894158061381
0.3901816422940463 0.3121023557413349 1.385678487093319
0.3965587116200756 0.3035495360331822 1.344168870422355
0.3804949712834236 0.3241702755787467 1.359507578737944
0.3312158600871528 -0.3734620187979675 0.5756514035662985
0.3949607896612758 0.306435043232202 1.968875367770915
0.4097863486255903 0.2861902839194058 1.322019087382597
0.4603580047149534 -0.1942260984986293 1.501156431533623
0.4710069709429537 0.1666639266153628 1.16624671431149
0.2461131284792096 0.4346349200946834 2.308737546058342
0.4544580215324965 0.208210245456979 1.880893942165278
0.4006754880245513 0.2987314877234142 1.41272935423367
0.386745045509819 -0.3165090078099537 1.158166581786693
0.4839310392200463 -0.1227723868610337 1.699256703699167
0.3364232917359126 -0.3697421270497467 0.9184335122229541
0.4971055540656832 -0.05063421496940898 0.8565414564414278
0.4841770146925206 -0.1240576727829777 1.85011985838212
0.4824383071173394 0.1311716770686139 1.874167473210108
0.3868479583920803 -0.3162277148382849 0.8026390145251874
0.4977500233284968 -0.0466893616929138 1.029546727842798
0.3806182308848429 -0.323628229605776 0.4171006770922687
0.3759258689148771 0.3295232641000026 2.039228835284879
0.493836088419681 -0.07219014114395852 0.3401785394615577
0.4535416549227757 0.2097268650318304 2.04137443629343
0.4980706428252976 -0.0332707970449026 0.04710158638511902
0.4995349544389602 -0.007847530825058509 2.471144675874145
0.3423704989585649 0.3640511949163784 1.546538140703652
0.4786231018412676 0.1440468279498993 1.424220059976408
0.497905125108782 0.04388846173139243 1.872907615560564
0.424543525455808 -0.2625331858809136 1.498365247300892
0.498919388415051 0.03126049622916725 1.322327752428802
0.4263783285521989 0.2601721615085667 1.369927688919822
0.3955541058642438 0.3057331255214922 1.575545942414934
0.2699676791185986 -0.420025269900782 0.386205102881193
0.4995757182562747 0.01640295704643324 1.770039595373406
0.3819168176497686 -0.3222613860953676 1.242759255680553
0.2964600079842921 0.402353808716401 1.677827967776456
0.3977760234121823 -0.3014346908809922 1.437228715165678
0.4551576054287002 0.2048734862646565 0.8575523722919334
0.4878468801934319 0.1086228520682044 1.317076875996557
0.3472841654108293 0.3592365692289061 1.398642765833053
0.3619426989483971 0.3444474635159223 1.439046529911421
0.4878749130673155 -0.1039518392988514 0.4405414805591457
0.4757945920374476 -0.1509402719964168 0.4449390506677885
0.3627116157991188 0.3439822321082238 1.811827105780737
0.3278091672750633 0.3773249808772517 1.77738616025151
0.4565628862097814 0.2034883561233861 1.953605725478408
0.4368375445930731 0.2428645043140934 1.993233482391718
0.3703121750640704 -0.3355592972357536 1.193612778573118
0.4913481031049399 -0.08914973622934667 0.5359496355790248
0.4355696408671396 -0.2449665191602472 1.373649076009129
0.4109289419794998 -0.284107222644765 1.441568190329935

CELLS 1010 4692
1 0
1 1
2 0 13
2 13 23
2 23 3
2 3 24
2 24 4
2 4 25
2 25 5
2 5 26
2 26 6
2 6 27
2 27 7
2 7 28
2 28 8
2 8 29
2 29 9
2 9 30
2 30 10
2 10 31
2 31 11
2 11 32
2 32 12
2 12 33
2 33 2
2 2 34
2 34 14
2 14 35
2 35 15
2 15 36
2 36 16
2 16 37
2 37 17
2 17 38
2 38 18
2 18 39
2 39 19
2 19 40
2 40 20
2 20 41
2 41 21
2 21 42
2 42 22
2 22 0
2 1 94
2 94 110
2 110 61
2 61 111
2 111 62
2 62 112
2 112 63
2 63 113
2 113 64
2 64 114
2 114 65
2 65 115
2 115 66
2 66 116
2 116 67
2 67 117
2 117 68
2 68 118
2 118 60
2 60 119
2 119 70
2 70 120
2 120 71
2 71 121
2 121 72
2 72 122
2 122 73
2 73 123
2 123 74
2 74 124
2 124 75
2 75 125
2 125 76
2 76 126
2 126 52
2 52 127
2 127 44
2 44 128
2 128 45
2 45 129
2 129 46
2 46 130
2 130 47
2 47 131
2 131 48
2 48 132
2 132 49
2 49 133
2 133 50
2 50 134
2 134 51
2 51 135
2 135 43
2 43 136
2 136 53
2 53 137
2 137 54
2 54 138
2 138 55
2 55 139
2 139 56
2 56 140
2 140 57
2 57 141
2 141 58
2 58 142
2 142 59
2 59 143
2 143 69
2 69 144
2 144 109
2 109 145
2 145 108
2 108 146
2 146 107
2 107 147
2 147 106
2 106 148
2 148 105
2 105 149
2 149 104
2 104 150
2 150 103
2 103 151
2 151 102
2 102 152
2 152 101
2 101 153
2 153 100
2 100 154
2 154 99
2 99 155
2 155 98
2 98 156
2 156 97
2 97 157
2 157 96
2 96 158
2 158 95
2 95 159
2 159 86
2 86 160
2 160 78
2 78 161
2 161 79
2 79 162
2 162 80
2 80 163
2 163 81
2 81 164
2 164 82
2 82 165
2 165 83
2 83 166
2 166 84
2 84 167
2 167 85
2 85 168
2 168 77
2 77 169
2 169 87
2 87 170
2 170 88
2 88 171
2 171 89
2 89 172
2 172 90
2 90 173
2 173 91
2 91 174
2 174 92
2 92 175
2 175 93
2 93 1
4 130 46 418 417
4 46 129 415 418
4 418 415 215 416
4 417 418 416 222
4 264 444 472 304
4 672 288 623 328
4 675 646 850 403
4 359 192 305 282
4 643 840 703 310
4 760 693 664 729
4 425 694 578 320
4 712 802 324 651
4 206 427 430 429
4 427 146 108 430
4 430 108 145 428
4 429 430 428 205
4 720 673 477 748
4 421 63 112 287
4 805 750 498 645
4 345 633 191 342
4 132 48 438 437
4 48 131 435 438
4 438 435 221 436
4 437 438 436 223
4 655 195 636 347
4 293 423 448 442
4 426 890 563 313
4 570 916 120 70
4 441 193 86 159
4 195 27 7 636
4 758 656 508 617
4 198 275 506 562
4 524 492 888 761
4 379 684 420 777
4 267 637 379 587
4 301 333 730 699
4 205 428 451 450
4 428 145 109 451
4 451 109 144 449
4 450 451 449 203
4 749 639 728 316
4 783 306 558 640
4 761 888 608 275
4 719 329 537 419
4 191 906 663 539
4 642 445 195 655
4 470 479 559 858
4 776 294 271 432
4 215 415 459 458
4 415 129 45 459
4 459 45 128 457
4 458 459 457 216
4 147 107 462 461
4 107 146 427 462
4 462 427 206 460
4 461 462 460 207
4 138 54 466 465
4 54 137 463 466
4 466 463 236 464
4 465 466 464 209
4 822 481 719 614
4 472 650 440 446
4 762 287 901 288
4 704 385 314 321
4 387 662 624 478
4 306 528 704 558
4 615 352 81 163
4 696 345 342 839
4 640 558 439 800
4 783 309 917 306
4 882 117 67 326
4 325 299 763 632
4 278 94 1 322
4 707 568 776 796
4 506 649 621 197
4 575 784 648 840
4 422 777 348 301
4 694 711 189 578
4 197 621 291 452
4 517 516 810 565
4 131 47 485 435
4 47 130 417 485
4 485 417 222 484
4 435 485 484 221
4 139 55 488 487
4 55 138 465 488
4 488 465 209 486
4 487 488 486 202
4 858 559 643 724
4 324 25 5 657
4 614 719 419 693
4 838 467 289 661
4 431 302 298 444
4 539 663 158 96
4 616 872 178 490
4 775 283 479 470
4 236 463 495 494
4 463 137 53 495
4 495 53 136 493
4 494 495 493 235
4 497 24 4 802
4 189 483 698 540
4 395 761 275 198
4 516 496 567 810
4 34 499 501 2
4 499 186 382 501
4 501 382 181 500
4 2 501 500 33
4 41 502 505 20
4 502 256 503 505
4 505 503 251 504
4 20 505 504 40
4 298 323 319 650
4 782 317 702 192
4 310 703 276 807
4 481 491 329 719
4 183 581 179 875
4 875 179 765 555
4 391 73 122 905
4 392 665 390 583
4 266 651 718 286
4 755 116 66 700
4 723 279 516 517
4 571 425 320 471
4 890 359 282 749
4 839 342 269 480
4 714 617 344 381
4 469 635 714 673
4 312 557 577 849
4 823 28 353 903
4 586 292 644 872
4 216 457 522 521
4 457 128 44 522
4 522 44 127 520
4 521 522 520 217
4 381 344 633 345
4 316 728 845 808
4 769 562 491 481
4 810 567 166 83
4 235 493 527 526
4 493 136 43 527
4 527 43 135 525
4 526 527 525 227
4 639 295 405 194
4 306 917 474 528
4 713 538 395 317
4 647 118 68 476
4 186 499 532 531
4 499 34 14 532
4 532 14 35 530
4 531 532 530 259
4 148 106 535 534
4 106 147 461 535
4 535 461 207 533
4 534 535 533 208
4 645 498 265 801
4 648 394 706 340
4 662 519 190 624
4 386 456 785 327
4 568 403 294 776
4 490 178 281 541
4 795 473 456 386
4 804 676 434 773
4 140 56 544 543
4 56 139 487 544
4 544 487 202 542
4 543 544 542 201
4 257 545 547 546
4 545 259 530 547
4 547 530 35 15
4 546 547 15 36
4 213 548 551 550
4 548 125 75 551
4 551 75 124 549
4 550 551 549 214
4 557 579 293 577
4 661 289 694 425
4 554 98 155 552
4 553 554 552 273
4 556 74 123 370
4 509 556 370 897
4 370 123 73 391
4 582 583 182 598
4 320 578 468 303
4 326 67 116 755
4 434 805 645 609
4 196 792 277 841
4 886 768 784 575
4 329 452 454 537
4 480 269 157 97
4 837 284 307 380
4 342 191 539 269
4 283 801 886 479
4 289 404 711 694
4 767 701 433 566
4 294 264 304 271
4 748 357 865 681
4 469 638 312 635
4 133 49 573 360
4 49 132 437 573
4 573 437 223 572
4 360 573 572 225
4 796 776 432 906
4 319 721 569 774
4 901 62 111 280
4 705 113 63 421
4 333 697 309 783
4 826 523 722 674
4 831 266 286 443
4 906 432 687 663
4 30 10 183 665
4 390 875 555 511
4 214 549 556 509
4 665 183 875 390
4 307 726 866 279
4 471 320 303 341
4 658 824 619 695
4 845 380 723 473
4 206 588 590 460
4 588 240 349 590
4 590 349 242 589
4 460 590 589 207
4 176 365 591 396
4 365 42 22 591
4 591 22 0 373
4 396 591 373 177
4 180 592 594 593
4 592 32 12 594
4 594 12 33 500
4 593 594 500 181
4 179 581 596 595
4 581 31 11 596
4 596 11 32 592
4 595 596 592 180
4 9 30 665 392
4 184 918 582 597
4 511 555 509 897
4 121 597 510 72
4 222 416 602 601
4 416 215 599 602
4 602 599 219 600
4 601 602 600 220
4 155 99 605 552
4 99 154 603 605
4 605 603 253 604
4 552 605 604 273
4 250 363 607 606
4 363 151 103 607
4 607 103 150 389
4 606 607 389 199
4 277 674 475 574
4 529 806 560 513
4 291 580 662 387
4 476 68 117 882
4 40 504 613 377
4 504 251 612 613
4 613 612 247 364
4 377 613 364 250
4 786 611 172 89
4 358 393 171 88
4 439 321 797 290
4 300 729 358 285
4 187 618 620 619
4 618 23 3 620
4 513 560 278 519
4 831 443 727 447
4 757 168 85 330
4 473 723 517 456
4 456 517 565 785
4 288 901 280 623
4 206 429 627 588
4 429 205 625 627
4 627 625 244 626
4 588 627 626 240
4 238 628 631 630
4 628 236 494 631
4 631 494 235 629
4 630 631 629 234
4 563 316 808 825
4 478 624 641 512
4 638 447 557 312
4 352 327 164 81
4 178 705 421 281
4 282 305 822 295
4 808 845 473 795
4 279 866 496 516
4 749 282 295 639
4 686 480 97 156
4 343 887 638 469
4 567 330 84 166
4 872 644 705 178
4 271 304 193 441
4 300 285 634 610
4 474 341 911 910
4 331 838 661 518
4 695 619 620 497
4 656 883 637 267
4 333 783 640 730
4 634 87 169 892
4 849 577 515 883
4 637 311 684 379
4 188 686 554 553
4 611 652 90 172
4 639 194 837 728
4 482 775 470 701
4 468 540 524 538
4 39 378 654 18
4 378 250 606 654
4 654 606 199 653
4 18 654 653 38
4 508 296 568 707
4 574 475 750 805
4 443 325 622 727
4 405 614 693 760
4 274 272 80 162
4 394 115 65 706
4 357 696 839 188
4 748 477 696 357
4 148 534 660 105
4 534 208 659 660
4 660 659 249 410
4 105 660 410 149
4 261 756 652 611
4 676 574 805 434
4 303 468 538 713
4 276 586 872 616
4 916 903 71 120
4 424 712 651 266
4 267 587 675 296
4 918 392 583 582
4 597 582 598 510
4 72 510 905 122
4 897 370 391 371
4 239 666 667 407
4 666 257 546 667
4 667 546 36 16
4 407 667 16 37
4 23 618 669 372
4 618 187 668 669
4 669 668 185 397
4 372 669 397 177
4 141 57 671 58
4 57 140 543 671
4 671 543 201 670
4 58 671 670 142
4 380 307 279 723
4 703 340 586 276
4 699 730 302 431
4 880 823 903 916
4 445 6 27 195
4 785 565 165 82
4 453 529 513 580
4 188 839 480 686
4 201 677 679 670
4 677 200 678 679
4 679 678 143 59
4 670 679 59 142
4 38 653 680 17
4 653 199 388 680
4 680 388 149 409
4 17 680 409 37
4 467 724 404 289
4 681 262 682 685
4 685 682 260 683
4 385 313 308 314
4 801 265 768 886
4 720 748 681 685
4 528 474 910 297
4 193 446 160 86
4 230 688 690 337
4 688 232 689 690
4 690 689 231 369
4 337 690 369 258
4 217 520 692 336
4 520 127 52 692
4 692 52 126 691
4 336 692 691 210
4 584 585 272 274
4 826 564 570 523
4 724 643 310 404
4 265 326 755 768
4 725 536 352 615
4 722 60 118 647
4 708 482 701 767
4 792 857 564 826
4 809 760 729 300
4 507 77 168 757
4 192 702 769 305
4 903 353 121 71
4 330 85 167 84
4 475 647 476 750
4 295 822 614 405
4 272 615 163 80
4 190 322 751 332
4 314 308 514 315
4 308 825 268 514
4 695 497 802 712
4 784 700 394 648
4 268 795 386 536
4 290 797 584 721
4 632 763 576 196
4 255 376 710 709
4 376 256 502 710
4 710 502 41 366
4 709 710 366 176
4 275 608 649 506
4 608 672 328 649
4 404 310 807 711
4 321 314 315 797
4 641 332 174 91
4 609 645 801 283
4 340 706 292 586
4 702 198 562 769
4 221 484 717 716
4 484 222 601 717
4 717 601 220 715
4 716 717 715 226
4 610 634 892 726
4 403 850 264 294
4 541 281 762 561
4 636 7 28 823
4 498 882 326 265
4 706 65 114 292
4 313 563 825 308
4 840 648 340 703
4 750 476 882 498
4 758 849 883 656
4 452 291 387 454
4 194 809 284 837
4 296 675 403 568
4 302 800 323 298
4 730 640 800 302
4 687 441 159 95
4 135 51 732 525
4 51 134 361 732
4 732 361 225 731
4 525 732 731 227
4 126 76 734 691
4 76 125 548 734
4 734 548 213 733
4 691 734 733 210
4 152 102 735 401
4 102 151 362 735
4 735 362 247 612
4 401 735 612 251
4 223 436 738 737
4 436 221 716 738
4 738 716 226 736
4 737 738 736 224
4 144 69 740 449
4 69 143 678 740
4 740 678 200 739
4 449 740 739 203
4 236 628 743 464
4 628 238 741 743
4 743 741 243 742
4 464 743 742 209
4 154 100 746 603
4 100 153 744 746
4 746 744 252 745
4 603 746 745 253
4 489 609 283 775
4 622 270 804 455
4 576 655 347 857
4 523 570 70 119
4 325 632 270 622
4 632 196 841 270
4 727 622 455 579
4 649 328 453 621
4 201 542 754 677
4 542 202 752 754
4 754 752 204 753
4 677 754 753 200
4 318 26 6 445
4 806 61 110 560
4 565 810 83 165
4 558 704 321 439
4 327 785 82 164
4 802 4 25 324
4 803 782 192 359
4 658 695 712 424
4 259 338 759 531
4 338 258 368 759
4 759 368 212 383
4 531 759 383 186
4 297 910 803 426
4 656 267 296 508
4 322 1 93 751
4 698 490 541 492
4 179 595 766 765
4 595 180 764 766
4 766 764 213 550
4 765 766 550 214
4 566 433 467 838
4 443 286 299 325
4 292 114 64 644
4 328 623 529 453
4 219 599 772 771
4 599 215 458 772
4 772 458 216 770
4 771 772 770 218
4 700 66 115 394
4 777 420 331 348
4 343 683 824 658
4 580 513 519 662
4 841 277 574 676
4 297 426 313 385
4 887 424 266 831
4 446 440 78 160
4 244 778 781 780
4 778 243 741 781
4 781 741 238 779
4 780 781 779 237
4 343 469 673 720
4 774 569 79 161
4 346 318 445 642
4 536 386 327 352
4 792 826 674 277
4 729 664 393 358
4 890 749 316 563
4 587 379 777 422
4 218 787 789 771
4 787 231 689 789
4 789 689 232 788
4 771 789 788 219
4 217 335 791 521
4 335 211 790 791
4 791 790 218 770
4 521 791 770 216
4 686 156 98 554
4 887 831 447 638
4 492 541 561 888
4 768 755 700 784
4 211 793 794 790
4 793 212 367 794
4 794 367 231 787
4 790 794 787 218
4 561 762 288 672
4 579 455 423 293
4 538 524 761 395
4 621 453 580 291
4 244 625 799 778
4 625 205 450 799
4 799 450 203 798
4 778 799 798 243
4 497 620 3 24
4 617 508 707 344
4 917 471 341 474
4 825 808 795 268
4 341 303 713 911
4 419 537 261 747
4 515 442 708 311
4 585 725 615 272
4 644 64 113 705
4 850 431 444 264
4 652 512 173 90
4 196 576 857 792
4 587 422 646 675
4 514 268 536 725
4 721 584 274 569
4 344 707 796 633
4 562 506 197 491
4 807 276 616 483
4 512 641 91 173
4 332 751 92 174
4 260 811 814 813
4 811 263 812 814
4 814 812 185 668
4 813 814 668 187
4 219 788 817 600
4 788 232 815 817
4 817 815 229 816
4 600 817 816 220
4 229 356 821 820
4 356 246 818 821
4 821 818 237 819
4 820 821 819 228
4 483 616 490 698
4 540 698 492 524
4 888 561 672 608
4 455 804 773 423
4 301 348 697 333
4 683 260 813 824
4 824 813 187 619
4 280 111 61 806
4 718 657 318 346
4 537 454 756 261
4 663 687 95 158
4 693 419 747 664
4 255 709 828 827
4 709 176 398 828
4 828 398 185 812
4 827 828 812 263
4 224 829 830 737
4 829 227 731 830
4 830 731 225 572
4 737 830 572 223
4 299 346 642 763
4 432 271 441 687
4 763 642 655 576
4 304 472 446 193
4 237 818 832 780
4 818 246 350 832
4 832 350 240 626
4 780 832 626 244
4 224 736 836 835
4 736 226 833 836
4 836 833 228 834
4 835 836 834 234
4 728 837 380 845
4 496 757 330 567
4 270 841 676 804
4 623 280 806 529
4 281 421 287 762
4 309 571 471 917
4 674 722 647 475
4 518 661 425 571
4 448 489 775 482
4 433 858 724 467
4 657 5 26 318
4 269 539 96 157
4 237 779 842 819
4 779 238 630 842
4 842 630 234 834
4 819 842 834 228
4 212 793 844 384
4 793 211 334 844
4 844 334 210 843
4 384 844 843 181
4 519 278 322 190
4 285 358 88 170
4 323 290 721 319
4 426 803 359 890
4 234 629 846 835
4 629 235 526 846
4 846 526 227 829
4 835 846 829 224
4 228 833 847 820
4 833 226 715 847
4 847 715 220 816
4 820 847 816 229
4 230 411 848 688
4 411 233 354 848
4 848 354 229 815
4 688 848 815 232
4 664 747 786 393
4 701 470 858 433
4 650 319 774 440
4 241 851 854 853
4 851 245 852 854
4 854 852 257 666
4 853 854 666 239
4 241 853 856 855
4 853 239 406 856
4 856 406 249 659
4 855 856 659 208
4 285 170 87 634
4 651 324 657 718
4 911 713 317 782
4 800 439 290 323
4 910 911 782 803
4 809 300 610 284
4 194 405 760 809
4 711 807 483 189
4 204 752 860 859
4 752 202 486 860
4 860 486 209 742
4 859 860 742 243
4 263 861 863 827
4 861 273 604 863
4 863 604 253 862
4 827 863 862 255
4 262 681 865 864
4 420 566 838 331
4 624 190 332 641
4 864 865 553 273
4 756 478 512 652
4 564 880 916 570
4 697 518 571 309
4 317 395 198 702
4 241 855 868 867
4 855 208 533 868
4 868 533 207 589
4 867 868 589 242
4 153 399 871 744
4 399 248 869 871
4 871 869 254 870
4 744 871 870 252
4 577 293 442 515
4 578 189 540 468
4 773 434 609 489
4 883 515 311 637
4 245 851 873 414
4 851 241 867 873
4 873 867 242 351
4 414 873 351 246
4 255 862 874 374
4 862 253 745 874
4 874 745 252 870
4 374 874 870 254
4 510 598 919 905
4 555 765 214 509
4 371 391 905 919
4 10 31 581 183
4 263 811 876 861
4 811 260 682 876
4 876 682 262 864
4 861 876 864 273
4 203 739 877 798
4 739 200 753 877
4 877 753 204 859
4 798 877 859 243
4 245 412 878 852
4 412 230 339 878
4 878 339 259 545
4 852 878 545 257
4 254 869 879 375
4 869 248 402 879
4 879 402 251 503
4 375 879 503 256
4 347 636 823 880
4 751 93 175 92
4 180 593 881 764
4 593 181 843 881
4 881 843 210 733
4 764 881 733 213
4 447 727 579 557
4 442 448 482 708
4 528 297 385 704
4 866 507 757 496
4 444 298 650 472
4 287 112 62 901
4 210 334 884 336
4 334 211 335 884
4 336 884 335 217
4 230 337 885 339
4 337 258 338 885
4 339 885 338 259
4 311 708 767 684
4 726 892 507 866
4 477 381 345 696
4 560 110 94 278
4 440 774 161 78
4 559 575 840 643
4 523 119 60 722
4 305 769 481 822
4 284 610 726 307
4 242 349 889 351
4 349 240 350 889
4 351 889 350 246
4 857 347 880 564
4 892 169 77 507
4 747 261 611 786
4 229 354 891 356
4 354 233 355 891
4 356 891 355 246
4 423 773 489 448
4 315 514 725 585
4 343 658 424 887
4 134 50 893 361
4 50 133 360 893
4 361 893 360 225
4 247 362 894 364
4 362 151 363 894
4 364 894 363 250
4 41 21 895 366
4 21 42 365 895
4 366 895 365 176
4 231 367 896 369
4 367 212 368 896
4 369 896 368 258
4 549 124 74 556
4 182 511 897 371
4 8 29 918 184
4 0 13 898 373
4 13 23 372 898
4 373 898 372 177
4 255 374 899 376
4 374 254 375 899
4 376 899 375 256
4 39 19 900 378
4 19 40 377 900
4 378 900 377 250
4 569 274 162 79
4 797 315 585 584
4 357 188 553 865
4 181 382 902 384
4 382 186 383 902
4 384 902 383 212
4 635 758 617 714
4 684 767 566 420
4 454 387 478 756
4 150 104 904 389
4 104 149 388 904
4 389 904 388 199
4 583 390 511 182
4 598 182 371 919
4 29 9 392 918
4 673 714 381 477
4 479 886 575 559
4 491 197 452 329
4 176 396 907 398
4 396 177 397 907
4 398 907 397 185
4 248 399 908 400
4 399 153 101 908
4 400 908 101 152
4 152 401 909 400
4 401 251 402 909
4 400 909 402 248
4 286 718 346 299
4 633 796 906 191
4 646 699 431 850
4 393 786 89 171
4 635 312 849 758
4 422 301 699 646
4 249 406 912 408
4 406 239 407 912
4 408 912 407 37
4 37 409 913 408
4 409 149 410 913
4 408 913 410 249
4 233 411 914 413
4 411 230 412 914
4 413 914 412 245
4 245 414 915 413
4 414 246 355 915
4 413 915 355 233
4 348 331 518 697
4 343 720 685 683
4 353 184 597 121
4 28 8 184 353

CELL_TYPES 1010
1
1
3
3
3
3
3
3
3
3
3
3
3
3
3
3
3
3
3
3
3
3
3
3
3
3
3
3
3
3
3
3
3
3
3
3
3
3
3
3
3
3
3
3
3
3
3
3
3
3
3
3
3
3
3
3
3
3
3
3
3
3
3
3
3
3
3
3
3
3
3
3
3
3
3
3
3
3
3
3
3
3
3
3
3
3
3
3
3
3
3
3
3
3
3
3
3
3
3
3
3
3
3
3
3
3
3
3
3
3
3
3
3
3
3
3
3
3
3
3
3
3
3
3
3
3
3
3
3
3
3
3
3
3
3
3
3
3
3
3
3
3
3
3
3
3
3
3
3
3
3
3
3
3
3
3
3
3
3
3
3
3
3
3
3
3
3
3
3
3
3
3
3
3
3
3
3
3
9
9
9
9
9
9
9
9
9
9
9
9
9
9
9
9
9
9
9
9
9
9
9
9
9
9
9
9
9
9
9
9
9
9
9
9
9
9
9
9
9
9
9
9
9
9
9
9
9
9
9
9
9
9
9
9
9
9
9
9
9
9
9
9
9
9
9
9
9
9
9
9
9
9
9
9
9
9
9
9
9
9
9
9
9
9
9
9
9
9
9
9
9
9
9
9
9
9
9
9
9
9
9
9
9
9
9
9
9
9
9
9
9
9
9
9
9
9
9
9
9
9
9
9
9
9
9
9
9
9
9
9
9
9
9
9
9
9
9
9
9
9
9
9
9
9
9
9
9
9
9
9
9
9
9
9
9
9
9
9
9
9
9
9
9
9
9
9
9
9
9
9
9
9
9
9
9
9
9
9
9
9
9
9
9
9
9
9
9
9
9
9
9
9
9
9
9
9
9
9
9
9
9
9
9
9
9
9
9
9
9
9
9
9
9
9
9
9
9
9
9
9
9
9
9
9
9
9
9
9
9
9
9
9
9
9
9
9
9
9
9
9
9
9
9
9
9
9
9
9
9
9
9
9
9
9
9
9
9
9
9
9
9
9
9
9
9
9
9
9
9
9
9
9
9
9
9
9
9
9
9
9
9
9
9
9
9
9
9
9
9
9
9
9
9
9
9
9
9
9
9
9
9
9
9
9
9
9
9
9
9
9
9
9
9
9
9
9
9
9
9
9
9
9
9
9
9
9
9
9
9
9
9
9
9
9
9
9
9
9
9
9
9
9
9
9
9
9
9
9
9
9
9
9
9
9
9
9
9
9
9
9
9
9
9
9
9
9
9
9
9
9
9
9
9
9
9
9
9
9
9
9
9
9
9
9
9
9
9
9
9
9
9
9
9
9
9
9
9
9
9
9
9
9
9
9
9
9
9
9
9
9
9
9
9
9
9
9
9
9
9
9
9
9
9
9
9
9
9
9
9
9
9
9
9
9
9
9
9
9
9
9
9
9
9
9
9
9
9
9
9
9
9
9
9
9
9
9
9
9
9
9
9
9
9
9
9
9
9
9
9
9
9
9
9
9
9
9
9
9
9
9
9
9
9
9
9
9
9
9
9
9
9
9
9
9
9
9
9
9
9
9
9
9
9
9
9
9
9
9
9
9
9
9
9
9
9
9
9
9
9
9
9
9
9
9
9
9
9
9
9
9
9
9
9
9
9
9
9
9
9
9
9
9
9
9
9
9
9
9
9
9
9
9
9
9
9
9
9
9
9
9
9
9
9
9
9
9
9
9
9
9
9
9
9
9
9
9
9
9
9
9
9
9
9
9
9
9
9
9
9
9
9
9
9
9
9
9
9
9
9
9
9
9
9
9
9
9
9
9
9
9
9
9
9
9
9
9
9
9
9
9
9
9
9
9
9
9
9
9
9
9
9
9
9
9
9
9
9
9
9
9
9
9
9
9
9
9
9
9
9
9
9
9
9
9
9
9
9
9
9
9
9
9
9
9
9
9
9
9
9
9
9
9
9
9
9
9
9
9
9
9
9
9
9
9
9
9
9
9
9
9
9
9
9
9
9
9
9
9
9
9
9
9
9
9
9
9
9
9
9
9
9
9
9
9
9
9
9
9
9
9
9
9
9
9
9
9
9
9
9
9
9
9
9
9
9
9
9
9
9
9
9
9
9
9
9
9
9
9
9
9
9
9
9
9
9
9
9
9
9
9
9
9
9
9
9
9
9
9
9
9
9
9
9
9
9
9
9
9
9
9
9
9
9
9
9
9
9
9
9
9
9
9
9
9
9
9
9
9
9
9
9
9
9
9
9
9
9
9
9
9
9
9
9
9
9
9
9
9
9
9
9
9
9
9
9
9
9
9
9
9
