$MeshFormat
2.2 0 8
$EndMeshFormat
$PhysicalNames
1
1 1 "surface_2"
$EndPhysicalNames
$Nodes
889
1 6.5335692639e-02 -9.2850073744e-02 -4.9046046584e-01
2 6.5328397243e-02 -9.2748787426e-02 -4.9089771312e-01
3 6.5320763074e-02 -9.2604384801e-02 -4.9152927978e-01
4 6.5247356093e-02 -9.2476529104e-02 -4.9225240852e-01
5 6.5175240403e-02 -9.2335823303e-02 -4.9309374042e-01
6 6.5091740893e-02 -9.2197979724e-02 -4.9401062399e-01
7 6.4961358017e-02 -9.2092491179e-02 -4.9493874661e-01
8 6.4805973118e-02 -9.1975214446e-02 -4.9595710085e-01
9 6.4633862899e-02 -9.1911283141e-02 -4.9698410824e-01
10 6.4435400405e-02 -9.1843495485e-02 -4.9808262007e-01
11 6.4184971556e-02 -9.1800597150e-02 -4.9914893856e-01
12 6.3944062309e-02 -9.1765650914e-02 -5.0030414805e-01
13 6.3630145650e-02 -9.1734469751e-02 -5.0143627315e-01
14 6.3384166248e-02 -9.1708803640e-02 -5.0261566403e-01
15 6.3093585864e-02 -9.1724854734e-02 -5.0382012810e-01
16 6.2809640721e-02 -9.1746720229e-02 -5.0507731394e-01
17 6.2491473111e-02 -9.1764475668e-02 -5.0634915056e-01
18 6.2134277137e-02 -9.1833422442e-02 -5.0762756264e-01
19 6.1741547942e-02 -9.1929858033e-02 -5.0891209020e-01
20 6.1309162951e-02 -9.2086309006e-02 -5.1019138825e-01
21 6.0843414399e-02 -9.2268557159e-02 -5.1146741689e-01
22 6.0337492309e-02 -9.2528897175e-02 -5.1272143544e-01
23 5.9802674366e-02 -9.2812220936e-02 -5.1396606839e-01
24 5.9231424726e-02 -9.3162278091e-02 -5.1517876727e-01
25 5.8631585987e-02 -9.3546619148e-02 -5.1636891817e-01
26 5.8001361594e-02 -9.3989959634e-02 -5.1752327067e-01
27 5.7348679710e-02 -9.4454201803e-02 -5.1865370019e-01
28 5.6669939708e-02 -9.4964283149e-02 -5.1974752530e-01
29 5.5969507099e-02 -9.5504406553e-02 -5.2081002324e-01
30 5.5246925254e-02 -9.6089511929e-02 -5.2182879716e-01
31 5.4504561534e-02 -9.6705410798e-02 -5.2281191022e-01
32 5.3744239661e-02 -9.7335149810e-02 -5.2377096210e-01
33 5.2966108853e-02 -9.7995949783e-02 -5.2469102614e-01
34 5.2171767949e-02 -9.8671748757e-02 -5.2558326135e-01
35 5.1361964932e-02 -9.9374938277e-02 -5.2643510581e-01
36 5.0538298342e-02 -1.0009870218e-01 -5.2725049989e-01
37 4.9702413276e-02 -1.0083468199e-01 -5.2803410376e-01
38 4.8855617247e-02 -1.0159002145e-01 -5.2877714255e-01
39 4.7999525314e-02 -1.0235078814e-01 -5.2949084948e-01
40 4.7133427818e-02 -1.0315438126e-01 -5.3013068032e-01
41 4.6261591382e-02 -1.0396026545e-01 -5.3073936539e-01
42 4.5382023485e-02 -1.0481621106e-01 -5.3124498823e-01
43 4.4501080185e-02 -1.0566409254e-01 -5.3172649899e-01
44 4.3617759380e-02 -1.0654170407e-01 -5.3210510344e-01
45 4.2735830506e-02 -1.0741350556e-01 -5.3243861357e-01
46 4.1857137433e-02 -1.0827803248e-01 -5.3272025692e-01
47 4.0981544860e-02 -1.0913684184e-01 -5.3291763117e-01
48 4.0110232448e-02 -1.0997087374e-01 -5.3310113410e-01
49 3.9242327735e-02 -1.1078178086e-01 -5.3324894539e-01
50 3.8376784193e-02 -1.1156786390e-01 -5.3335786636e-01
51 3.7511938923e-02 -1.1232436535e-01 -5.3342705514e-01
52 3.6644709159e-02 -1.1304509928e-01 -5.3349088707e-01
53 3.5772086689e-02 -1.1372903734e-01 -5.3352873296e-01
54 3.4888781608e-02 -1.1437235833e-01 -5.3356108252e-01
55 3.3988718600e-02 -1.1497579532e-01 -5.3356387337e-01
56 3.3063171037e-02 -1.1553869863e-01 -5.3355081843e-01
57 3.2100907578e-02 -1.1606346274e-01 -5.3351916871e-01
58 3.1094198268e-02 -1.1655500863e-01 -5.3343280702e-01
59 3.0029712153e-02 -1.1701359079e-01 -5.3330062822e-01
60 2.8902036137e-02 -1.1743227965e-01 -5.3311258505e-01
61 2.7718116366e-02 -1.1778204048e-01 -5.3285663201e-01
62 6.5335692639e-02 -9.2850073744e-02 -4.9046046584e-01
63 6.5055445423e-02 -9.2827646930e-02 -4.9031014364e-01
64 6.4645369996e-02 -9.2794406167e-02 -4.9010868223e-01
65 6.4153642675e-02 -9.2753899792e-02 -4.8989456455e-01
66 6.3605434751e-02 -9.2721202083e-02 -4.8964528721e-01
67 6.3030068016e-02 -9.2725098851e-02 -4.8935152228e-01
68 6.2413807929e-02 -9.2731798562e-02 -4.8906358003e-01
69 6.1763841856e-02 -9.2742795109e-02 -4.8879714725e-01
70 6.1095300595e-02 -9.2776991033e-02 -4.8848519882e-01
71 6.5335692639e-02 -9.2850073744e-02 -4.9046046584e-01
72 6.5623235251e-02 -9.2973786876e-02 -4.9017354078e-01
73 6.6052945474e-02 -9.3180961911e-02 -4.8975532775e-01
74 6.6525568610e-02 -9.3485396594e-02 -4.8924280334e-01
75 6.7032665358e-02 -9.3827271530e-02 -4.8867942966e-01
76 6.7585392007e-02 -9.4208999072e-02 -4.8808271414e-01
77 6.8104216270e-02 -9.4704747518e-02 -4.8743135889e-01
78 6.8652147128e-02 -9.5220135338e-02 -4.8677790205e-01
79 6.9165586290e-02 -9.5812025977e-02 -4.8609968871e-01
80 6.9682197691e-02 -9.6464325174e-02 -4.8540902621e-01
81 7.0151254479e-02 -9.7153115279e-02 -4.8470999812e-01
82 7.0621158252e-02 -9.7927807476e-02 -4.8400864233e-01
83 7.1019844223e-02 -9.8744593289e-02 -4.8329771113e-01
84 7.1411252075e-02 -9.9611482360e-02 -4.8259706442e-01
85 7.1721424583e-02 -1.0055203000e-01 -4.8194886732e-01
86 7.2002165060e-02 -1.0152295780e-01 -4.8129932541e-01
87 7.2258437246e-02 -1.0252194356e-01 -4.8065072067e-01
88 7.2437096749e-02 -1.0358655657e-01 -4.8006698431e-01
89 7.2601349837e-02 -1.0468485306e-01 -4.7948318420e-01
90 7.2700195764e-02 -1.0580897518e-01 -4.7895492047e-01
91 7.2773250348e-02 -1.0696094749e-01 -4.7841517804e-01
92 7.2817245291e-02 -1.0811721772e-01 -4.7792114621e-01
93 7.2794594201e-02 -1.0931436495e-01 -4.7743686668e-01
94 7.2782441117e-02 -1.1055010782e-01 -4.7695498600e-01
95 7.2712997663e-02 -1.1176392843e-01 -4.7653844953e-01
96 7.2600288362e-02 -1.1303833636e-01 -4.7610472266e-01
97 7.2449166990e-02 -1.1428401032e-01 -4.7573070804e-01
98 7.2261579442e-02 -1.1556442601e-01 -4.7536643700e-01
99 7.2029697944e-02 -1.1684091032e-01 -4.7504401600e-01
100 7.1771369857e-02 -1.1810655578e-01 -4.7475538927e-01
101 7.1467671632e-02 -1.1940289285e-01 -4.7449348496e-01
102 7.1140647020e-02 -1.2063880015e-01 -4.7428081693e-01
103 7.0773511075e-02 -1.2193586673e-01 -4.7409319276e-01
104 7.0388630921e-02 -1.2313950494e-01 -4.7395571634e-01
105 6.9947664737e-02 -1.2439324393e-01 -4.7384948964e-01
106 6.9503913783e-02 -1.2558749437e-01 -4.7378124582e-01
107 6.9050351369e-02 -1.2677493908e-01 -4.7375431635e-01
108 6.8539254391e-02 -1.2793408235e-01 -4.7378042912e-01
109 6.8050569550e-02 -1.2906504392e-01 -4.7382023506e-01
110 6.7501531738e-02 -1.3016345001e-01 -4.7392083360e-01
111 6.6977496147e-02 -1.3124991619e-01 -4.7403199246e-01
112 6.6409516736e-02 -1.3228500477e-01 -4.7419495550e-01
113 6.5864362898e-02 -1.3333246933e-01 -4.7438440231e-01
114 6.5255116219e-02 -1.3432390572e-01 -4.7460288823e-01
115 6.4688953575e-02 -1.3530370971e-01 -4.7483971553e-01
116 6.4085889173e-02 -1.3624301693e-01 -4.7510905471e-01
117 6.3463730351e-02 -1.3716931459e-01 -4.7543031501e-01
118 6.2856105327e-02 -1.3805364003e-01 -4.7576450557e-01
119 6.2207418478e-02 -1.3891072574e-01 -4.7615713619e-01
120 6.1601730967e-02 -1.3971151774e-01 -4.7657320624e-01
121 6.0961175268e-02 -1.4046335357e-01 -4.7705467601e-01
122 6.0354749724e-02 -1.4120495527e-01 -4.7756831329e-01
123 5.9736506629e-02 -1.4187878919e-01 -4.7812438205e-01
124 5.9135919525e-02 -1.4256331494e-01 -4.7873010709e-01
125 5.8519983160e-02 -1.4321146493e-01 -4.7937989016e-01
126 5.7945277088e-02 -1.4383767452e-01 -4.8004752143e-01
127 5.7331424939e-02 -1.4444310427e-01 -4.8073963573e-01
128 5.6747799385e-02 -1.4503912584e-01 -4.8144516312e-01
129 5.6142843315e-02 -1.4559941173e-01 -4.8215154130e-01
130 5.5569438535e-02 -1.4617986391e-01 -4.8288981858e-01
131 5.4976570027e-02 -1.4672075384e-01 -4.8363307309e-01
132 5.4419934662e-02 -1.4725679061e-01 -4.8438673173e-01
133 5.3845701995e-02 -1.4777375073e-01 -4.8517143475e-01
134 5.3301041643e-02 -1.4826532751e-01 -4.8596094159e-01
135 5.2742307469e-02 -1.4875420322e-01 -4.8678462581e-01
136 5.2207978608e-02 -1.4919287775e-01 -4.8761587769e-01
137 5.1687563216e-02 -1.4962090012e-01 -4.8849188016e-01
138 5.1165852579e-02 -1.5003499429e-01 -4.8941002858e-01
139 5.0672836702e-02 -1.5041436064e-01 -4.9033062509e-01
140 5.0147386223e-02 -1.5077768815e-01 -4.9129343049e-01
141 4.9644567988e-02 -1.5110971971e-01 -4.9225665582e-01
142 4.9138885699e-02 -1.5143136504e-01 -4.9325425122e-01
143 4.8622625298e-02 -1.5172461111e-01 -4.9428323157e-01
144 4.8139759957e-02 -1.5198267335e-01 -4.9531949946e-01
145 4.7636233001e-02 -1.5220305148e-01 -4.9638672278e-01
146 4.7153213833e-02 -1.5236928934e-01 -4.9748481999e-01
147 4.6691146148e-02 -1.5250900129e-01 -4.9861725034e-01
148 4.6223921621e-02 -1.5254438427e-01 -4.9978588956e-01
149 4.5766809156e-02 -1.5251500424e-01 -5.0098059518e-01
150 4.5317696264e-02 -1.5242478244e-01 -5.0219988205e-01
151 4.4868582255e-02 -1.5222540987e-01 -5.0338625419e-01
152 4.4397458752e-02 -1.5199223899e-01 -5.0458158036e-01
153 4.3954999744e-02 -1.5170145120e-01 -5.0572103941e-01
154 4.3478974066e-02 -1.5134454604e-01 -5.0689346169e-01
155 4.3015568997e-02 -1.5097821114e-01 -5.0805600334e-01
156 4.2502374347e-02 -1.5056209186e-01 -5.0923409149e-01
157 4.1976321715e-02 -1.5015131144e-01 -5.1044664947e-01
158 4.1613742130e-02 -1.4983950382e-01 -5.1157458512e-01
159 4.1223403998e-02 -1.4951770107e-01 -5.1270324707e-01
160 4.0979794352e-02 -1.4927779231e-01 -5.1374205914e-01
161 4.0720736465e-02 -1.4901887698e-01 -5.1478545048e-01
162 4.0429462023e-02 -1.4876537659e-01 -5.1583389241e-01
163 4.0148640887e-02 -1.4844180485e-01 -5.1687950241e-01
164 3.9848667264e-02 -1.4810002692e-01 -5.1792615976e-01
165 3.9586693304e-02 -1.4764760760e-01 -5.1895707198e-01
166 3.9286219108e-02 -1.4720263327e-01 -5.1999124228e-01
167 3.9053302588e-02 -1.4661829892e-01 -5.2099333701e-01
168 3.8796122467e-02 -1.4602072532e-01 -5.2199465522e-01
169 3.8620598058e-02 -1.4529068270e-01 -5.2292539329e-01
170 3.8427464973e-02 -1.4454131183e-01 -5.2385080924e-01
171 3.8263654397e-02 -1.4372557762e-01 -5.2473540593e-01
172 3.8087906864e-02 -1.4288794934e-01 -5.2560633242e-01
173 3.7928523032e-02 -1.4200292926e-01 -5.2643915343e-01
174 3.7786775857e-02 -1.4107304321e-01 -5.2723057822e-01
175 3.7630905690e-02 -1.4013113107e-01 -5.2800814389e-01
176 3.7491431451e-02 -1.3915040922e-01 -5.2873999557e-01
177 3.7342546985e-02 -1.3816042157e-01 -5.2945275076e-01
178 3.7203983871e-02 -1.3714438829e-01 -5.3012388616e-01
179 3.7060730852e-02 -1.3612159555e-01 -5.3077322999e-01
180 3.6943929866e-02 -1.3506469472e-01 -5.3135666635e-01
181 3.6831888277e-02 -1.3399670701e-01 -5.3190419924e-01
182 3.6731422615e-02 -1.3291244579e-01 -5.3240637275e-01
183 3.6653814898e-02 -1.3180640362e-01 -5.3283941392e-01
184 3.6603943536e-02 -1.3067363175e-01 -5.3318764557e-01
185 3.6553037360e-02 -1.2953807290e-01 -5.3351157474e-01
186 3.6537954071e-02 -1.2837170735e-01 -5.3370926746e-01
187 3.6520449272e-02 -1.2720844082e-01 -5.3388554381e-01
188 3.6516739169e-02 -1.2603650799e-01 -5.3397769508e-01
189 3.6507878982e-02 -1.2486867802e-01 -5.3405205143e-01
190 3.6502610238e-02 -1.2370224514e-01 -5.3405396154e-01
191 3.6487215198e-02 -1.2254312883e-01 -5.3404771166e-01
192 3.6464744504e-02 -1.2139200847e-01 -5.3400153749e-01
193 3.6427490628e-02 -1.2025023712e-01 -5.3396097881e-01
194 3.6376076806e-02 -1.1912118915e-01 -5.3389502838e-01
195 3.6305718555e-02 -1.1800563847e-01 -5.3383166871e-01
196 3.6213796075e-02 -1.1690613642e-01 -5.3376563483e-01
197 3.6096825155e-02 -1.1582499731e-01 -5.3369795449e-01
198 3.5951075299e-02 -1.1476534607e-01 -5.3361783131e-01
199 3.5772086689e-02 -1.1372903734e-01 -5.3352873296e-01
200 3.5555201454e-02 -1.1271856914e-01 -5.3342475076e-01
201 3.5294934422e-02 -1.1173481643e-01 -5.3331345397e-01
202 3.4989084521e-02 -1.1078319234e-01 -5.3314678960e-01
203 3.4630460609e-02 -1.0985637390e-01 -5.3297453732e-01
204 3.4217569350e-02 -1.0895937954e-01 -5.3274105773e-01
205 3.3751448401e-02 -1.0808958558e-01 -5.3244795391e-01
206 3.3227178241e-02 -1.0722788068e-01 -5.3212741258e-01
207 3.2660558089e-02 -1.0639712674e-01 -5.3167397988e-01
208 9.5604602111e-02 -1.4551705063e-01 -5.0970989600e-01
209 9.6118814872e-02 -1.4489086024e-01 -5.0964688989e-01
210 9.6744377031e-02 -1.4405964244e-01 -5.0969200639e-01
211 9.7433024631e-02 -1.4312010901e-01 -5.0989735923e-01
212 9.8185975590e-02 -1.4206347119e-01 -5.1022026221e-01
213 9.8871995108e-02 -1.4111840492e-01 -5.1076631702e-01
214 9.9409900394e-02 -1.4021388521e-01 -5.1149649989e-01
215 9.9959582604e-02 -1.3922787826e-01 -5.1234526651e-01
216 1.0028602623e-01 -1.3840965321e-01 -5.1343812128e-01
217 1.0049877235e-01 -1.3759426986e-01 -5.1465030805e-01
218 1.0054272186e-01 -1.3675407163e-01 -5.1593544389e-01
219 1.0045037872e-01 -1.3588503612e-01 -5.1727585576e-01
220 1.0022580458e-01 -1.3497932130e-01 -5.1865933386e-01
221 9.9883567309e-02 -1.3401148787e-01 -5.2005845911e-01
222 9.9457659549e-02 -1.3297335832e-01 -5.2146631867e-01
223 9.8918837170e-02 -1.3185029404e-01 -5.2284372050e-01
224 9.8343926308e-02 -1.3064882739e-01 -5.2423003049e-01
225 9.7652933912e-02 -1.2936029965e-01 -5.2557165229e-01
226 9.6883413916e-02 -1.2797851567e-01 -5.2687227269e-01
227 9.6023296362e-02 -1.2651547169e-01 -5.2812099783e-01
228 9.5029866068e-02 -1.2495744934e-01 -5.2926293149e-01
229 9.3876029346e-02 -1.2332659674e-01 -5.3027423313e-01
230 9.2539777083e-02 -1.2167398957e-01 -5.3104596067e-01
231 9.1026726352e-02 -1.2005843865e-01 -5.3159049950e-01
232 8.9407414230e-02 -1.1849137601e-01 -5.3193418882e-01
233 8.7711658935e-02 -1.1700295535e-01 -5.3206181809e-01
234 8.5955566315e-02 -1.1564205442e-01 -5.3196234418e-01
235 8.4186726921e-02 -1.1437393490e-01 -5.3172267954e-01
236 8.2442107159e-02 -1.1315324522e-01 -5.3141232180e-01
237 8.0723341087e-02 -1.1198615477e-01 -5.3103110355e-01
238 7.9052915109e-02 -1.1082644595e-01 -5.3064440497e-01
239 7.7420884351e-02 -1.0969533532e-01 -5.3022975679e-01
240 7.5836685362e-02 -1.0856758853e-01 -5.2982284344e-01
241 7.4287255426e-02 -1.0747088081e-01 -5.2939331441e-01
242 7.2779924796e-02 -1.0638257988e-01 -5.2897109642e-01
243 7.1298898349e-02 -1.0533397220e-01 -5.2852125114e-01
244 6.9845029187e-02 -1.0432353231e-01 -5.2805392577e-01
245 6.8421149399e-02 -1.0333778315e-01 -5.2758234795e-01
246 6.7015829668e-02 -1.0240261469e-01 -5.2708222174e-01
247 6.5629312110e-02 -1.0152538021e-01 -5.2654911139e-01
248 6.4263837138e-02 -1.0069203739e-01 -5.2600313021e-01
249 6.2922736085e-02 -9.9889886540e-02 -5.2545228876e-01
250 6.1595107647e-02 -9.9151912916e-02 -5.2487100853e-01
251 6.0287110977e-02 -9.8461427549e-02 -5.2427591231e-01
252 5.8999702992e-02 -9.7805861318e-02 -5.2367671796e-01
253 5.7728993433e-02 -9.7217718643e-02 -5.2305221836e-01
254 5.6479458826e-02 -9.6640115986e-02 -5.2244038116e-01
255 5.5246925254e-02 -9.6089511929e-02 -5.2182879716e-01
256 5.4030731540e-02 -9.5560874589e-02 -5.2121861427e-01
257 5.2827238751e-02 -9.5068013436e-02 -5.2060251479e-01
258 5.1635879409e-02 -9.4609802447e-02 -5.1997739878e-01
259 5.0455901647e-02 -9.4180378595e-02 -5.1934738937e-01
260 4.9286303569e-02 -9.3811583061e-02 -5.1869151746e-01
261 4.8127582960e-02 -9.3473865215e-02 -5.1802658930e-01
262 4.6982120463e-02 -9.3199997374e-02 -5.1733652441e-01
263 4.5849498307e-02 -9.2971654053e-02 -5.1662674332e-01
264 9.5604602111e-02 -1.4551705063e-01 -5.0970989600e-01
265 9.5253147852e-02 -1.4603793646e-01 -5.1034219682e-01
266 9.4638144156e-02 -1.4680658794e-01 -5.1111225337e-01
267 9.3762994454e-02 -1.4776233517e-01 -5.1196080831e-01
268 9.2295135151e-02 -1.4915055393e-01 -5.1272323836e-01
269 8.9731279687e-02 -1.5143871267e-01 -5.1305770634e-01
270 8.6823587915e-02 -1.5382345988e-01 -5.1323765471e-01
271 8.3771360734e-02 -1.5615258939e-01 -5.1328129602e-01
272 8.0620974467e-02 -1.5830778678e-01 -5.1318116134e-01
273 7.7317147703e-02 -1.6013009442e-01 -5.1292358064e-01
274 7.3837251581e-02 -1.6134178028e-01 -5.1255334344e-01
275 7.0318601329e-02 -1.6177929845e-01 -5.1215965607e-01
276 6.6983304406e-02 -1.6164325773e-01 -5.1171722010e-01
277 6.3887991790e-02 -1.6111569225e-01 -5.1123060281e-01
278 6.1081413081e-02 -1.6028839637e-01 -5.1068166870e-01
279 5.8593053283e-02 -1.5924348805e-01 -5.1011915460e-01
280 5.6368068155e-02 -1.5809931179e-01 -5.0954021319e-01
281 5.4334216229e-02 -1.5701382697e-01 -5.0888920171e-01
282 5.2454017772e-02 -1.5596983264e-01 -5.0817976794e-01
283 5.0693749120e-02 -1.5500518674e-01 -5.0748269760e-01
284 4.9017995195e-02 -1.5413052971e-01 -5.0677911008e-01
285 4.7433641706e-02 -1.5332099966e-01 -5.0603400117e-01
286 4.5893316734e-02 -1.5260766575e-01 -5.0528892797e-01
287 4.4397458752e-02 -1.5199223899e-01 -5.0458158036e-01
288 4.2958394747e-02 -1.5145144729e-01 -5.0384421858e-01
289 4.1535491727e-02 -1.5095030797e-01 -5.0311541517e-01
290 4.0145876155e-02 -1.5050903802e-01 -5.0239783813e-01
291 3.8797302995e-02 -1.5011986398e-01 -5.0165737194e-01
292 3.7472427040e-02 -1.4974025009e-01 -5.0093844789e-01
293 3.6250832352e-02 -1.4939535285e-01 -5.0028760896e-01
294 3.5186178483e-02 -1.4911366770e-01 -4.9975842816e-01
295 3.3588498831e-02 -1.4867551625e-01 -5.0030153990e-01
296 9.5604602111e-02 -1.4551705063e-01 -5.0970989600e-01
297 9.5014076490e-02 -1.4600589763e-01 -5.0859301466e-01
298 9.4165706589e-02 -1.4648752088e-01 -5.0716790336e-01
299 9.2839994069e-02 -1.4714891789e-01 -5.0524903043e-01
300 9.1488868118e-02 -1.4757959711e-01 -5.0337157560e-01
301 9.0124649999e-02 -1.4779277236e-01 -5.0156262933e-01
302 8.8743860463e-02 -1.4780725545e-01 -4.9985703955e-01
303 8.7383502774e-02 -1.4766705868e-01 -4.9823698886e-01
304 8.6053357610e-02 -1.4741022041e-01 -4.9669779384e-01
305 8.4761819991e-02 -1.4705433149e-01 -4.9524401662e-01
306 8.3514220813e-02 -1.4664268384e-01 -4.9387337026e-01
307 8.2299654771e-02 -1.4619658343e-01 -4.9257128327e-01
308 8.1115689147e-02 -1.4572215586e-01 -4.9132125404e-01
309 7.9963980799e-02 -1.4522371982e-01 -4.9011821405e-01
310 7.8852786736e-02 -1.4473068157e-01 -4.8896968106e-01
311 7.7755679762e-02 -1.4425644468e-01 -4.8784440994e-01
312 7.6685558971e-02 -1.4377565114e-01 -4.8674185134e-01
313 7.5631257241e-02 -1.4331826707e-01 -4.8569238431e-01
314 7.4562836998e-02 -1.4286428655e-01 -4.8465048034e-01
315 7.3524189268e-02 -1.4242036692e-01 -4.8367253545e-01
316 7.2486756954e-02 -1.4197076198e-01 -4.8271877697e-01
317 7.1424532580e-02 -1.4152880901e-01 -4.8180668638e-01
318 7.0362015782e-02 -1.4107078915e-01 -4.8092267235e-01
319 6.9306563482e-02 -1.4065920658e-01 -4.8009102892e-01
320 6.8260223554e-02 -1.4022257517e-01 -4.7927951151e-01
321 6.7169063063e-02 -1.3978782923e-01 -4.7850050735e-01
322 6.6095072070e-02 -1.3936514099e-01 -4.7776823154e-01
323 6.5026706244e-02 -1.3893391812e-01 -4.7706156557e-01
324 6.3945196906e-02 -1.3850849347e-01 -4.7637625703e-01
325 6.2856105327e-02 -1.3805364003e-01 -4.7576450557e-01
326 6.1742655879e-02 -1.3760610048e-01 -4.7520877200e-01
327 6.0642356377e-02 -1.3711147786e-01 -4.7467700256e-01
328 5.9593600518e-02 -1.3663057479e-01 -4.7418837223e-01
329 5.8420119543e-02 -1.3613403315e-01 -4.7376003784e-01
330 5.7270150523e-02 -1.3564639164e-01 -4.7335342397e-01
331 5.6020420074e-02 -1.3510994722e-01 -4.7297291848e-01
332 5.5021859210e-02 -1.3471224933e-01 -4.7270678848e-01
333 5.4022057684e-02 -1.3430192700e-01 -4.7248186746e-01
334 3.0417744230e-02 -1.1162143434e-01 -5.3277326723e-01
335 3.0177780600e-02 -1.1151559648e-01 -5.3268928670e-01
336 3.0417744230e-02 -1.1162143434e-01 -5.3277326723e-01
337 3.0396849336e-02 -1.1207011087e-01 -5.3285862493e-01
338 3.0231767386e-02 -1.1280046724e-01 -5.3296557017e-01
339 3.0001744453e-02 -1.1366843745e-01 -5.3302726578e-01
340 2.9735410825e-02 -1.1459027315e-01 -5.3308569733e-01
341 2.9452173666e-02 -1.1553867265e-01 -5.3312702408e-01
342 2.9173892061e-02 -1.1648547811e-01 -5.3313194517e-01
343 2.8902036137e-02 -1.1743227965e-01 -5.3311258505e-01
344 2.8623452967e-02 -1.1841493119e-01 -5.3308391812e-01
345 2.8344778182e-02 -1.1942585875e-01 -5.3303422572e-01
346 2.8081655668e-02 -1.2044571131e-01 -5.3292145371e-01
347 2.7824841866e-02 -1.2147405425e-01 -5.3280682879e-01
348 2.7587477429e-02 -1.2251030643e-01 -5.3261901093e-01
349 2.7363540017e-02 -1.2355314842e-01 -5.3241267311e-01
350 2.7169854099e-02 -1.2458948229e-01 -5.3213453118e-01
351 2.7007323021e-02 -1.2561037364e-01 -5.3180007856e-01
352 2.6871976522e-02 -1.2661395481e-01 -5.3142165735e-01
353 2.6784901393e-02 -1.2757430340e-01 -5.3096291167e-01
354 2.6719132972e-02 -1.2851711218e-01 -5.3048017364e-01
355 2.6689427873e-02 -1.2942331253e-01 -5.2993694244e-01
356 2.6685144403e-02 -1.3030750144e-01 -5.2936401199e-01
357 2.6712321118e-02 -1.3115748393e-01 -5.2874514300e-01
358 2.6759250216e-02 -1.3198886506e-01 -5.2810370873e-01
359 2.6827306950e-02 -1.3279673764e-01 -5.2743460082e-01
360 2.6920730190e-02 -1.3357434512e-01 -5.2673501156e-01
361 2.7021480436e-02 -1.3434829255e-01 -5.2602692523e-01
362 2.7154743850e-02 -1.3508753730e-01 -5.2527505780e-01
363 2.7289749434e-02 -1.3583343164e-01 -5.2451786645e-01
364 2.7440523311e-02 -1.3656133060e-01 -5.2373928550e-01
365 2.7603117290e-02 -1.3727968423e-01 -5.2294422835e-01
366 2.7785160978e-02 -1.3798718934e-01 -5.2211661322e-01
367 2.7974977012e-02 -1.3869664715e-01 -5.2127122578e-01
368 2.8191054107e-02 -1.3938609077e-01 -5.2038444885e-01
369 2.8415155482e-02 -1.4007621066e-01 -5.1947878954e-01
370 2.8671215322e-02 -1.4073443077e-01 -5.1852722012e-01
371 2.8936245342e-02 -1.4138467852e-01 -5.1755847391e-01
372 2.9241012221e-02 -1.4197877127e-01 -5.1655552040e-01
373 2.9542967921e-02 -1.4255746850e-01 -5.1555831067e-01
374 2.9853539712e-02 -1.4305804008e-01 -5.1459819940e-01
375 3.0152224355e-02 -1.4352069909e-01 -5.1367850313e-01
376 3.0442516431e-02 -1.4392111071e-01 -5.1281381755e-01
377 3.0720784083e-02 -1.4429540882e-01 -5.1198079589e-01
378 3.0999054587e-02 -1.4465506303e-01 -5.1114711222e-01
379 3.1283921212e-02 -1.4499345559e-01 -5.1030183175e-01
380 3.1566051603e-02 -1.4534124968e-01 -5.0943496198e-01
381 3.1846338257e-02 -1.4568851406e-01 -5.0854683461e-01
382 3.2120275907e-02 -1.4604046176e-01 -5.0763400958e-01
383 3.2378801977e-02 -1.4641639202e-01 -5.0669091172e-01
384 3.2698590408e-02 -1.4682068755e-01 -5.0578062313e-01
385 3.2985258871e-02 -1.4724141844e-01 -5.0482415723e-01
386 3.3384995491e-02 -1.4770595905e-01 -5.0387379539e-01
387 3.3790657902e-02 -1.4815713181e-01 -5.0291901801e-01
388 3.4217443051e-02 -1.4854391239e-01 -5.0187894692e-01
389 3.4657544734e-02 -1.4888665560e-01 -5.0082888009e-01
390 3.5186178483e-02 -1.4911366770e-01 -4.9975842816e-01
391 3.5751354154e-02 -1.4918741019e-01 -4.9868419912e-01
392 3.6253633629e-02 -1.4920894469e-01 -4.9765326634e-01
393 3.6770651740e-02 -1.4915815590e-01 -4.9660939333e-01
394 3.7354749949e-02 -1.4897247393e-01 -4.9563608271e-01
395 3.7933073363e-02 -1.4880198185e-01 -4.9465620959e-01
396 3.8424766435e-02 -1.4865187480e-01 -4.9376793299e-01
397 3.8914787773e-02 -1.4850516128e-01 -4.9287806976e-01
398 3.9512989334e-02 -1.4837256513e-01 -4.9193049771e-01
399 4.0115753812e-02 -1.4823666987e-01 -4.9098712416e-01
400 4.0739050259e-02 -1.4809770382e-01 -4.9004043334e-01
401 4.1366829976e-02 -1.4794770894e-01 -4.8909880920e-01
402 4.1992165770e-02 -1.4772369349e-01 -4.8804762574e-01
403 4.2626465946e-02 -1.4746607804e-01 -4.8701137167e-01
404 4.3208452335e-02 -1.4721800765e-01 -4.8611668117e-01
405 4.3799076051e-02 -1.4693497136e-01 -4.8524033491e-01
406 4.4454792129e-02 -1.4660776035e-01 -4.8433326395e-01
407 4.5118650684e-02 -1.4623896538e-01 -4.8345018856e-01
408 4.5794815145e-02 -1.4577819218e-01 -4.8249756296e-01
409 4.6474253577e-02 -1.4529059165e-01 -4.8156261469e-01
410 4.7125571600e-02 -1.4476862007e-01 -4.8068399711e-01
411 4.7777286625e-02 -1.4423205133e-01 -4.7981701680e-01
412 4.8445203532e-02 -1.4366119723e-01 -4.7900065599e-01
413 4.9112552971e-02 -1.4307797887e-01 -4.7819598657e-01
414 4.9758395877e-02 -1.4241236049e-01 -4.7740386556e-01
415 5.0403910176e-02 -1.4173035157e-01 -4.7663115209e-01
416 5.0963063786e-02 -1.4103687020e-01 -4.7596696691e-01
417 5.1520938509e-02 -1.4032120477e-01 -4.7532881602e-01
418 5.2085527634e-02 -1.3955829823e-01 -4.7475699854e-01
419 5.2646027423e-02 -1.3873668016e-01 -4.7425187138e-01
420 5.3046665739e-02 -1.3798970314e-01 -4.7386615130e-01
421 5.3446216440e-02 -1.3723047340e-01 -4.7350082758e-01
422 5.3982297733e-02 -1.3644004149e-01 -4.7319294086e-01
423 5.4513984486e-02 -1.3562425736e-01 -4.7295197633e-01
424 5.5021859210e-02 -1.3471224933e-01 -4.7270678848e-01
425 5.5522707909e-02 -1.3377962135e-01 -4.7251396317e-01
426 5.5986456915e-02 -1.3278698160e-01 -4.7234172300e-01
427 5.6470668990e-02 -1.3183621006e-01 -4.7221677282e-01
428 5.6908882453e-02 -1.3089985299e-01 -4.7209391861e-01
429 5.7341263348e-02 -1.3000859364e-01 -4.7201624405e-01
430 5.7750393355e-02 -1.2917386611e-01 -4.7194537301e-01
431 5.8100119525e-02 -1.2833033592e-01 -4.7187758524e-01
432 5.8505770660e-02 -1.2741628603e-01 -4.7181296236e-01
433 5.8869459374e-02 -1.2647401144e-01 -4.7175768795e-01
434 5.9276383696e-02 -1.2550897834e-01 -4.7170677646e-01
435 5.9668036703e-02 -1.2451500733e-01 -4.7167220781e-01
436 6.0080783150e-02 -1.2352274131e-01 -4.7164707980e-01
437 6.0479015499e-02 -1.2247457082e-01 -4.7163770248e-01
438 6.0885279132e-02 -1.2142985561e-01 -4.7165135452e-01
439 6.1249618551e-02 -1.2033710710e-01 -4.7169223754e-01
440 6.1648795429e-02 -1.1919143804e-01 -4.7175682086e-01
441 6.1986938351e-02 -1.1803988004e-01 -4.7187402365e-01
442 6.2352193536e-02 -1.1688624247e-01 -4.7200556556e-01
443 6.2652639603e-02 -1.1574015112e-01 -4.7219531752e-01
444 6.2978421276e-02 -1.1462431216e-01 -4.7239572777e-01
445 6.3234970665e-02 -1.1350211851e-01 -4.7264596556e-01
446 6.3502397458e-02 -1.1242844888e-01 -4.7290443816e-01
447 6.3717642715e-02 -1.1134237432e-01 -4.7320555706e-01
448 6.3936345004e-02 -1.1029614721e-01 -4.7351554880e-01
449 6.4116585169e-02 -1.0923613224e-01 -4.7386075655e-01
450 6.4293049182e-02 -1.0820611774e-01 -4.7421865914e-01
451 6.4440187505e-02 -1.0717309540e-01 -4.7461484491e-01
452 6.4561408365e-02 -1.0619226324e-01 -4.7502804491e-01
453 6.4691260298e-02 -1.0521385269e-01 -4.7545235942e-01
454 6.4752983820e-02 -1.0425820578e-01 -4.7589184724e-01
455 6.4849903442e-02 -1.0335152386e-01 -4.7634164055e-01
456 6.4881494921e-02 -1.0249903197e-01 -4.7682751787e-01
457 6.4915932421e-02 -1.0164098357e-01 -4.7734686413e-01
458 6.4887620411e-02 -1.0078039604e-01 -4.7789233946e-01
459 6.4877423828e-02 -9.9989518121e-02 -4.7844912543e-01
460 6.4791811296e-02 -9.9178557134e-02 -4.7906223317e-01
461 6.4717250440e-02 -9.8360464922e-02 -4.7975073241e-01
462 6.4591737012e-02 -9.7616208586e-02 -4.8046708057e-01
463 6.4449687735e-02 -9.6917229215e-02 -4.8119060899e-01
464 6.4214666910e-02 -9.6207275437e-02 -4.8201308017e-01
465 6.3974104264e-02 -9.5573143341e-02 -4.8284367928e-01
466 6.3698840947e-02 -9.4980450519e-02 -4.8378534257e-01
467 6.3379479576e-02 -9.4426350221e-02 -4.8473238261e-01
468 6.2996108889e-02 -9.3899031661e-02 -4.8571692380e-01
469 6.2616353763e-02 -9.3466342543e-02 -4.8670370488e-01
470 6.2231199680e-02 -9.3069276203e-02 -4.8776482132e-01
471 6.1763841856e-02 -9.2742795109e-02 -4.8879714725e-01
472 6.1315573284e-02 -9.2445893218e-02 -4.8984009019e-01
473 6.0839240611e-02 -9.2249411336e-02 -4.9089061292e-01
474 6.0372273472e-02 -9.2077852193e-02 -4.9196421730e-01
475 5.9859612016e-02 -9.1959848918e-02 -4.9300471796e-01
476 5.9395038388e-02 -9.1872694636e-02 -4.9397852972e-01
477 5.8915712741e-02 -9.1812613164e-02 -4.9496913269e-01
478 5.8440592767e-02 -9.1767263189e-02 -4.9596392519e-01
479 5.7985282914e-02 -9.1724275734e-02 -4.9693680302e-01
480 5.7506098246e-02 -9.1678993473e-02 -4.9791413937e-01
481 5.6999163151e-02 -9.1631385364e-02 -4.9893442508e-01
482 5.6496372152e-02 -9.1572940136e-02 -4.9998544693e-01
483 5.6017247908e-02 -9.1506647028e-02 -5.0103257504e-01
484 5.5521069020e-02 -9.1428137037e-02 -5.0205558312e-01
485 5.5021957757e-02 -9.1344908137e-02 -5.0309376176e-01
486 5.4542503844e-02 -9.1258896088e-02 -5.0411608122e-01
487 5.4055789081e-02 -9.1177540570e-02 -5.0513613881e-01
488 5.3551600792e-02 -9.1115632563e-02 -5.0617112028e-01
489 5.3033116730e-02 -9.1055255272e-02 -5.0721545838e-01
490 5.2488538640e-02 -9.1058025963e-02 -5.0828064013e-01
491 5.1929574253e-02 -9.1089195118e-02 -5.0934190093e-01
492 5.1371796957e-02 -9.1162762684e-02 -5.1036710091e-01
493 5.0811477927e-02 -9.1277316525e-02 -5.1136666672e-01
494 5.0247259722e-02 -9.1461766909e-02 -5.1233089922e-01
495 4.9680454529e-02 -9.1655278675e-02 -5.1326963922e-01
496 4.9129805900e-02 -9.1923432738e-02 -5.1414760219e-01
497 4.8584637726e-02 -9.2204469269e-02 -5.1499273584e-01
498 4.8047362984e-02 -9.2516601690e-02 -5.1579853831e-01
499 4.7512684746e-02 -9.2832866507e-02 -5.1658690697e-01
500 4.6982120463e-02 -9.3199997374e-02 -5.1733652441e-01
501 4.6445788359e-02 -9.3573918364e-02 -5.1808309198e-01
502 4.5895950954e-02 -9.3978379698e-02 -5.1883178893e-01
503 4.5329698939e-02 -9.4403700213e-02 -5.1959150966e-01
504 4.4733988463e-02 -9.4841894769e-02 -5.2038669811e-01
505 4.4123400359e-02 -9.5323817243e-02 -5.2118155299e-01
506 4.3496586459e-02 -9.5819037352e-02 -5.2199000689e-01
507 4.2865428291e-02 -9.6319213805e-02 -5.2279848173e-01
508 4.2237969234e-02 -9.6833203810e-02 -5.2358814046e-01
509 4.1612542153e-02 -9.7344383693e-02 -5.2437092213e-01
510 4.0991697539e-02 -9.7853165327e-02 -5.2514059741e-01
511 4.0360442520e-02 -9.8415783309e-02 -5.2589384920e-01
512 3.9701032514e-02 -9.9015409974e-02 -5.2666489276e-01
513 3.9033068874e-02 -9.9664056198e-02 -5.2741923203e-01
514 3.8357975974e-02 -1.0036169136e-01 -5.2814574693e-01
515 3.7687324448e-02 -1.0107564994e-01 -5.2883915113e-01
516 3.7039581910e-02 -1.0180513030e-01 -5.2948383364e-01
517 3.6410670161e-02 -1.0259353517e-01 -5.3001757340e-01
518 3.5810921642e-02 -1.0336390877e-01 -5.3051830828e-01
519 3.5244230513e-02 -1.0413654273e-01 -5.3095731282e-01
520 3.4719834433e-02 -1.0489405983e-01 -5.3130963225e-01
521 3.4209918042e-02 -1.0565170333e-01 -5.3163199276e-01
522 3.3711338100e-02 -1.0643350773e-01 -5.3189951987e-01
523 3.3227178241e-02 -1.0722788068e-01 -5.3212741258e-01
524 3.2749730429e-02 -1.0802637361e-01 -5.3231922103e-01
525 3.2287326576e-02 -1.0880849484e-01 -5.3247208483e-01
526 3.1847906417e-02 -1.0954967776e-01 -5.3260351189e-01
527 3.1438448413e-02 -1.1022978416e-01 -5.3269707142e-01
528 3.1077607008e-02 -1.1080684082e-01 -5.3274722783e-01
529 3.0727396601e-02 -1.1130133836e-01 -5.3278477508e-01
530 3.0417744230e-02 -1.1162143434e-01 -5.3277326723e-01
531 3.0417744230e-02 -1.1162143434e-01 -5.3277326723e-01
532 3.0727396601e-02 -1.1130133836e-01 -5.3278477508e-01
533 3.1077607008e-02 -1.1080684082e-01 -5.3274722783e-01
534 3.1438448413e-02 -1.1022978416e-01 -5.3269707142e-01
535 3.1847906417e-02 -1.0954967776e-01 -5.3260351189e-01
536 3.2287326576e-02 -1.0880849484e-01 -5.3247208483e-01
537 3.2749730429e-02 -1.0802637361e-01 -5.3231922103e-01
538 3.3227178241e-02 -1.0722788068e-01 -5.3212741258e-01
539 3.3711338100e-02 -1.0643350773e-01 -5.3189951987e-01
540 3.4209918042e-02 -1.0565170333e-01 -5.3163199276e-01
541 3.4719834433e-02 -1.0489405983e-01 -5.3130963225e-01
542 3.5244230513e-02 -1.0413654273e-01 -5.3095731282e-01
543 3.5810921642e-02 -1.0336390877e-01 -5.3051830828e-01
544 3.6410670161e-02 -1.0259353517e-01 -5.3001757340e-01
545 3.7039581910e-02 -1.0180513030e-01 -5.2948383364e-01
546 3.7687324448e-02 -1.0107564994e-01 -5.2883915113e-01
547 3.8357975974e-02 -1.0036169136e-01 -5.2814574693e-01
548 3.9033068874e-02 -9.9664056198e-02 -5.2741923203e-01
549 3.9701032514e-02 -9.9015409974e-02 -5.2666489276e-01
550 4.0360442520e-02 -9.8415783309e-02 -5.2589384920e-01
551 4.0991697539e-02 -9.7853165327e-02 -5.2514059741e-01
552 4.1612542153e-02 -9.7344383693e-02 -5.2437092213e-01
553 4.2237969234e-02 -9.6833203810e-02 -5.2358814046e-01
554 4.2865428291e-02 -9.6319213805e-02 -5.2279848173e-01
555 4.3496586459e-02 -9.5819037352e-02 -5.2199000689e-01
556 4.4123400359e-02 -9.5323817243e-02 -5.2118155299e-01
557 4.4733988463e-02 -9.4841894769e-02 -5.2038669811e-01
558 4.5329698939e-02 -9.4403700213e-02 -5.1959150966e-01
559 4.5895950954e-02 -9.3978379698e-02 -5.1883178893e-01
560 4.6445788359e-02 -9.3573918364e-02 -5.1808309198e-01
561 4.6982120463e-02 -9.3199997374e-02 -5.1733652441e-01
562 4.7512684746e-02 -9.2832866507e-02 -5.1658690697e-01
563 4.8047362984e-02 -9.2516601690e-02 -5.1579853831e-01
564 4.8584637726e-02 -9.2204469269e-02 -5.1499273584e-01
565 4.9129805900e-02 -9.1923432738e-02 -5.1414760219e-01
566 4.9680454529e-02 -9.1655278675e-02 -5.1326963922e-01
567 5.0247259722e-02 -9.1461766909e-02 -5.1233089922e-01
568 5.0811477927e-02 -9.1277316525e-02 -5.1136666672e-01
569 5.1371796957e-02 -9.1162762684e-02 -5.1036710091e-01
570 5.1929574253e-02 -9.1089195118e-02 -5.0934190093e-01
571 5.2488538640e-02 -9.1058025963e-02 -5.0828064013e-01
572 5.3033116730e-02 -9.1055255272e-02 -5.0721545838e-01
573 5.3551600792e-02 -9.1115632563e-02 -5.0617112028e-01
574 5.4055789081e-02 -9.1177540570e-02 -5.0513613881e-01
575 5.4542503844e-02 -9.1258896088e-02 -5.0411608122e-01
576 5.5021957757e-02 -9.1344908137e-02 -5.0309376176e-01
577 5.5521069020e-02 -9.1428137037e-02 -5.0205558312e-01
578 5.6017247908e-02 -9.1506647028e-02 -5.0103257504e-01
579 5.6496372152e-02 -9.1572940136e-02 -4.9998544693e-01
580 5.6999163151e-02 -9.1631385364e-02 -4.9893442508e-01
581 5.7506098246e-02 -9.1678993473e-02 -4.9791413937e-01
582 5.7985282914e-02 -9.1724275734e-02 -4.9693680302e-01
583 5.8440592767e-02 -9.1767263189e-02 -4.9596392519e-01
584 5.8915712741e-02 -9.1812613164e-02 -4.9496913269e-01
585 5.9395038388e-02 -9.1872694636e-02 -4.9397852972e-01
586 5.9859612016e-02 -9.1959848918e-02 -4.9300471796e-01
587 6.0372273472e-02 -9.2077852193e-02 -4.9196421730e-01
588 6.0839240611e-02 -9.2249411336e-02 -4.9089061292e-01
589 6.1315573284e-02 -9.2445893218e-02 -4.8984009019e-01
590 6.1763841856e-02 -9.2742795109e-02 -4.8879714725e-01
591 6.2231199680e-02 -9.3069276203e-02 -4.8776482132e-01
592 6.2616353763e-02 -9.3466342543e-02 -4.8670370488e-01
593 6.2996108889e-02 -9.3899031661e-02 -4.8571692380e-01
594 6.3379479576e-02 -9.4426350221e-02 -4.8473238261e-01
595 6.3698840947e-02 -9.4980450519e-02 -4.8378534257e-01
596 6.3974104264e-02 -9.5573143341e-02 -4.8284367928e-01
597 6.4214666910e-02 -9.6207275437e-02 -4.8201308017e-01
598 6.4449687735e-02 -9.6917229215e-02 -4.8119060899e-01
599 6.4591737012e-02 -9.7616208586e-02 -4.8046708057e-01
600 6.4717250440e-02 -9.8360464922e-02 -4.7975073241e-01
601 6.4791811296e-02 -9.9178557134e-02 -4.7906223317e-01
602 6.4877423828e-02 -9.9989518121e-02 -4.7844912543e-01
603 6.4887620411e-02 -1.0078039604e-01 -4.7789233946e-01
604 6.4915932421e-02 -1.0164098357e-01 -4.7734686413e-01
605 6.4881494921e-02 -1.0249903197e-01 -4.7682751787e-01
606 6.4849903442e-02 -1.0335152386e-01 -4.7634164055e-01
607 6.4752983820e-02 -1.0425820578e-01 -4.7589184724e-01
608 6.4691260298e-02 -1.0521385269e-01 -4.7545235942e-01
609 6.4561408365e-02 -1.0619226324e-01 -4.7502804491e-01
610 6.4440187505e-02 -1.0717309540e-01 -4.7461484491e-01
611 6.4293049182e-02 -1.0820611774e-01 -4.7421865914e-01
612 6.4116585169e-02 -1.0923613224e-01 -4.7386075655e-01
613 6.3936345004e-02 -1.1029614721e-01 -4.7351554880e-01
614 6.3717642715e-02 -1.1134237432e-01 -4.7320555706e-01
615 6.3502397458e-02 -1.1242844888e-01 -4.7290443816e-01
616 6.3234970665e-02 -1.1350211851e-01 -4.7264596556e-01
617 6.2978421276e-02 -1.1462431216e-01 -4.7239572777e-01
618 6.2652639603e-02 -1.1574015112e-01 -4.7219531752e-01
619 6.2352193536e-02 -1.1688624247e-01 -4.7200556556e-01
620 6.1986938351e-02 -1.1803988004e-01 -4.7187402365e-01
621 6.1648795429e-02 -1.1919143804e-01 -4.7175682086e-01
622 6.1249618551e-02 -1.2033710710e-01 -4.7169223754e-01
623 6.0885279132e-02 -1.2142985561e-01 -4.7165135452e-01
624 6.0479015499e-02 -1.2247457082e-01 -4.7163770248e-01
625 6.0080783150e-02 -1.2352274131e-01 -4.7164707980e-01
626 5.9668036703e-02 -1.2451500733e-01 -4.7167220781e-01
627 5.9276383696e-02 -1.2550897834e-01 -4.7170677646e-01
628 5.8869459374e-02 -1.2647401144e-01 -4.7175768795e-01
629 5.8505770660e-02 -1.2741628603e-01 -4.7181296236e-01
630 5.8100119525e-02 -1.2833033592e-01 -4.7187758524e-01
631 5.7750393355e-02 -1.2917386611e-01 -4.7194537301e-01
632 5.7341263348e-02 -1.3000859364e-01 -4.7201624405e-01
633 5.6908882453e-02 -1.3089985299e-01 -4.7209391861e-01
634 5.6470668990e-02 -1.3183621006e-01 -4.7221677282e-01
635 5.5986456915e-02 -1.3278698160e-01 -4.7234172300e-01
636 5.5522707909e-02 -1.3377962135e-01 -4.7251396317e-01
637 5.5021859210e-02 -1.3471224933e-01 -4.7270678848e-01
638 5.4513984486e-02 -1.3562425736e-01 -4.7295197633e-01
639 5.3982297733e-02 -1.3644004149e-01 -4.7319294086e-01
640 5.3446216440e-02 -1.3723047340e-01 -4.7350082758e-01
641 5.3046665739e-02 -1.3798970314e-01 -4.7386615130e-01
642 5.2646027423e-02 -1.3873668016e-01 -4.7425187138e-01
643 5.2085527634e-02 -1.3955829823e-01 -4.7475699854e-01
644 5.1520938509e-02 -1.4032120477e-01 -4.7532881602e-01
645 5.0963063786e-02 -1.4103687020e-01 -4.7596696691e-01
646 5.0403910176e-02 -1.4173035157e-01 -4.7663115209e-01
647 4.9758395877e-02 -1.4241236049e-01 -4.7740386556e-01
648 4.9112552971e-02 -1.4307797887e-01 -4.7819598657e-01
649 4.8445203532e-02 -1.4366119723e-01 -4.7900065599e-01
650 4.7777286625e-02 -1.4423205133e-01 -4.7981701680e-01
651 4.7125571600e-02 -1.4476862007e-01 -4.8068399711e-01
652 4.6474253577e-02 -1.4529059165e-01 -4.8156261469e-01
653 4.5794815145e-02 -1.4577819218e-01 -4.8249756296e-01
654 4.5118650684e-02 -1.4623896538e-01 -4.8345018856e-01
655 4.4454792129e-02 -1.4660776035e-01 -4.8433326395e-01
656 4.3799076051e-02 -1.4693497136e-01 -4.8524033491e-01
657 4.3208452335e-02 -1.4721800765e-01 -4.8611668117e-01
658 4.2626465946e-02 -1.4746607804e-01 -4.8701137167e-01
659 4.1992165770e-02 -1.4772369349e-01 -4.8804762574e-01
660 4.1366829976e-02 -1.4794770894e-01 -4.8909880920e-01
661 4.0739050259e-02 -1.4809770382e-01 -4.9004043334e-01
662 4.0115753812e-02 -1.4823666987e-01 -4.9098712416e-01
663 3.9512989334e-02 -1.4837256513e-01 -4.9193049771e-01
664 3.8914787773e-02 -1.4850516128e-01 -4.9287806976e-01
665 3.8424766435e-02 -1.4865187480e-01 -4.9376793299e-01
666 3.7933073363e-02 -1.4880198185e-01 -4.9465620959e-01
667 3.7354749949e-02 -1.4897247393e-01 -4.9563608271e-01
668 3.6770651740e-02 -1.4915815590e-01 -4.9660939333e-01
669 3.6253633629e-02 -1.4920894469e-01 -4.9765326634e-01
670 3.5751354154e-02 -1.4918741019e-01 -4.9868419912e-01
671 3.5186178483e-02 -1.4911366770e-01 -4.9975842816e-01
672 3.4657544734e-02 -1.4888665560e-01 -5.0082888009e-01
673 3.4217443051e-02 -1.4854391239e-01 -5.0187894692e-01
674 3.3790657902e-02 -1.4815713181e-01 -5.0291901801e-01
675 3.3384995491e-02 -1.4770595905e-01 -5.0387379539e-01
676 3.2985258871e-02 -1.4724141844e-01 -5.0482415723e-01
677 3.2698590408e-02 -1.4682068755e-01 -5.0578062313e-01
678 3.2378801977e-02 -1.4641639202e-01 -5.0669091172e-01
679 3.2120275907e-02 -1.4604046176e-01 -5.0763400958e-01
680 3.1846338257e-02 -1.4568851406e-01 -5.0854683461e-01
681 3.1566051603e-02 -1.4534124968e-01 -5.0943496198e-01
682 3.1283921212e-02 -1.4499345559e-01 -5.1030183175e-01
683 3.0999054587e-02 -1.4465506303e-01 -5.1114711222e-01
684 3.0720784083e-02 -1.4429540882e-01 -5.1198079589e-01
685 3.0442516431e-02 -1.4392111071e-01 -5.1281381755e-01
686 3.0152224355e-02 -1.4352069909e-01 -5.1367850313e-01
687 2.9853539712e-02 -1.4305804008e-01 -5.1459819940e-01
688 2.9542967921e-02 -1.4255746850e-01 -5.1555831067e-01
689 2.9241012221e-02 -1.4197877127e-01 -5.1655552040e-01
690 2.8936245342e-02 -1.4138467852e-01 -5.1755847391e-01
691 2.8671215322e-02 -1.4073443077e-01 -5.1852722012e-01
692 2.8415155482e-02 -1.4007621066e-01 -5.1947878954e-01
693 2.8191054107e-02 -1.3938609077e-01 -5.2038444885e-01
694 2.7974977012e-02 -1.3869664715e-01 -5.2127122578e-01
695 2.7785160978e-02 -1.3798718934e-01 -5.2211661322e-01
696 2.7603117290e-02 -1.3727968423e-01 -5.2294422835e-01
697 2.7440523311e-02 -1.3656133060e-01 -5.2373928550e-01
698 2.7289749434e-02 -1.3583343164e-01 -5.2451786645e-01
699 2.7154743850e-02 -1.3508753730e-01 -5.2527505780e-01
700 2.7021480436e-02 -1.3434829255e-01 -5.2602692523e-01
701 2.6920730190e-02 -1.3357434512e-01 -5.2673501156e-01
702 2.6827306950e-02 -1.3279673764e-01 -5.2743460082e-01
703 2.6759250216e-02 -1.3198886506e-01 -5.2810370873e-01
704 2.6712321118e-02 -1.3115748393e-01 -5.2874514300e-01
705 2.6685144403e-02 -1.3030750144e-01 -5.2936401199e-01
706 2.6689427873e-02 -1.2942331253e-01 -5.2993694244e-01
707 2.6719132972e-02 -1.2851711218e-01 -5.3048017364e-01
708 2.6784901393e-02 -1.2757430340e-01 -5.3096291167e-01
709 2.6871976522e-02 -1.2661395481e-01 -5.3142165735e-01
710 2.7007323021e-02 -1.2561037364e-01 -5.3180007856e-01
711 2.7169854099e-02 -1.2458948229e-01 -5.3213453118e-01
712 2.7363540017e-02 -1.2355314842e-01 -5.3241267311e-01
713 2.7587477429e-02 -1.2251030643e-01 -5.3261901093e-01
714 2.7824841866e-02 -1.2147405425e-01 -5.3280682879e-01
715 2.8081655668e-02 -1.2044571131e-01 -5.3292145371e-01
716 2.8344778182e-02 -1.1942585875e-01 -5.3303422572e-01
717 2.8623452967e-02 -1.1841493119e-01 -5.3308391812e-01
718 2.8902036137e-02 -1.1743227965e-01 -5.3311258505e-01
719 2.9173892061e-02 -1.1648547811e-01 -5.3313194517e-01
720 2.9452173666e-02 -1.1553867265e-01 -5.3312702408e-01
721 2.9735410825e-02 -1.1459027315e-01 -5.3308569733e-01
722 3.0001744453e-02 -1.1366843745e-01 -5.3302726578e-01
723 3.0231767386e-02 -1.1280046724e-01 -5.3296557017e-01
724 3.0396849336e-02 -1.1207011087e-01 -5.3285862493e-01
725 3.0417744230e-02 -1.1162143434e-01 -5.3277326723e-01
726 6.1323211834e-02 -1.4901289118e-01 -4.8755768207e-01
727 6.1357176141e-02 -1.4925433030e-01 -4.8791598103e-01
728 6.1415453508e-02 -1.4958777587e-01 -4.8842652342e-01
729 6.1461446187e-02 -1.4997965939e-01 -4.8905589838e-01
730 6.1530901455e-02 -1.5042479316e-01 -4.8978151588e-01
731 6.1604326672e-02 -1.5090570680e-01 -4.9058214658e-01
732 6.1651010373e-02 -1.5141137096e-01 -4.9146410843e-01
733 6.1711640936e-02 -1.5193765552e-01 -4.9240377425e-01
734 6.1774462675e-02 -1.5247319331e-01 -4.9341528545e-01
735 6.1822815982e-02 -1.5302265231e-01 -4.9448429901e-01
736 6.1873243943e-02 -1.5359210029e-01 -4.9562382194e-01
737 6.1922541588e-02 -1.5419126804e-01 -4.9686161981e-01
738 6.1953524934e-02 -1.5477095534e-01 -4.9812603481e-01
739 6.1971032722e-02 -1.5537320049e-01 -4.9948146563e-01
740 6.1990928585e-02 -1.5604068428e-01 -5.0093711890e-01
741 6.1969344572e-02 -1.5668712182e-01 -5.0240990834e-01
742 6.1911513197e-02 -1.5743199802e-01 -5.0399411782e-01
743 6.1787243463e-02 -1.5819294753e-01 -5.0564280326e-01
744 6.1646356722e-02 -1.5899136337e-01 -5.0740103606e-01
745 6.1398523423e-02 -1.5964417639e-01 -5.0900355622e-01
746 6.1081413081e-02 -1.6028839637e-01 -5.1068166870e-01
747 6.0710713036e-02 -1.6072004572e-01 -5.1218859999e-01
748 6.0264929199e-02 -1.6111118721e-01 -5.1368551205e-01
749 5.9743989567e-02 -1.6144976444e-01 -5.1524105193e-01
750 5.9127282447e-02 -1.6169943646e-01 -5.1685600547e-01
751 5.8417455216e-02 -1.6182744906e-01 -5.1859205288e-01
752 5.7890173566e-02 -1.6192623833e-01 -5.2033313700e-01
753 5.7294967595e-02 -1.6189327331e-01 -5.2212110668e-01
754 5.6960080517e-02 -1.6178982223e-01 -5.2394309249e-01
755 5.6658920588e-02 -1.6137031891e-01 -5.2580583348e-01
756 5.6389495554e-02 -1.6065451526e-01 -5.2762717244e-01
757 5.6174689581e-02 -1.5965319008e-01 -5.2933542859e-01
758 5.6002477054e-02 -1.5841813987e-01 -5.3089939309e-01
759 5.5845638872e-02 -1.5703039229e-01 -5.3231704759e-01
760 5.5692692821e-02 -1.5553444124e-01 -5.3359254132e-01
761 5.5531180082e-02 -1.5396504286e-01 -5.3474869245e-01
762 5.5346264930e-02 -1.5233945521e-01 -5.3579570528e-01
763 5.5125186816e-02 -1.5068407845e-01 -5.3676445926e-01
764 5.4870829502e-02 -1.4900742974e-01 -5.3766745726e-01
765 5.4601469882e-02 -1.4729631221e-01 -5.3846669355e-01
766 5.4311800365e-02 -1.4556281425e-01 -5.3918228155e-01
767 5.3988443578e-02 -1.4382614943e-01 -5.3984139592e-01
768 5.3637641382e-02 -1.4208105999e-01 -5.4043534542e-01
769 5.3269054380e-02 -1.4032025902e-01 -5.4095080805e-01
770 5.2888775499e-02 -1.3854376434e-01 -5.4137027828e-01
771 5.2505799171e-02 -1.3675579993e-01 -5.4166701083e-01
772 5.2158275344e-02 -1.3494812601e-01 -5.4177461162e-01
773 5.1879317252e-02 -1.3315401545e-01 -5.4163854140e-01
774 5.1634665546e-02 -1.3141268227e-01 -5.4132322741e-01
775 5.1440012542e-02 -1.2976931147e-01 -5.4079076543e-01
776 5.1263302587e-02 -1.2821054252e-01 -5.4013608184e-01
777 5.1070614786e-02 -1.2671706278e-01 -5.3943871891e-01
778 5.0854431465e-02 -1.2527755770e-01 -5.3872148960e-01
779 5.0609067850e-02 -1.2388122447e-01 -5.3800296256e-01
780 5.0319347815e-02 -1.2250761340e-01 -5.3732461773e-01
781 4.9997300059e-02 -1.2116463671e-01 -5.3666381558e-01
782 4.9621669434e-02 -1.1982588840e-01 -5.3609375063e-01
783 4.9208946733e-02 -1.1850448750e-01 -5.3557557551e-01
784 4.8754106878e-02 -1.1719404729e-01 -5.3513851717e-01
785 4.8272179431e-02 -1.1590678092e-01 -5.3474264076e-01
786 4.7758625547e-02 -1.1463642127e-01 -5.3441285519e-01
787 4.7226674367e-02 -1.1339603878e-01 -5.3408658891e-01
788 4.6673216585e-02 -1.1217823754e-01 -5.3379394533e-01
789 4.6102617855e-02 -1.1099286182e-01 -5.3348002068e-01
790 4.5511474928e-02 -1.0982889021e-01 -5.3318587143e-01
791 4.4901935835e-02 -1.0870067021e-01 -5.3284462822e-01
792 4.4270875417e-02 -1.0759737096e-01 -5.3250453792e-01
793 4.3617759380e-02 -1.0654170407e-01 -5.3210510344e-01
794 4.2941479477e-02 -1.0551124537e-01 -5.3169784205e-01
795 4.2239065421e-02 -1.0454038696e-01 -5.3121919365e-01
796 4.1511924443e-02 -1.0359114421e-01 -5.3072800171e-01
797 4.0758902365e-02 -1.0269694931e-01 -5.3017210644e-01
798 3.9980292083e-02 -1.0184908233e-01 -5.2956705193e-01
799 3.9182214160e-02 -1.0103463485e-01 -5.2893470348e-01
800 3.8357975974e-02 -1.0036169136e-01 -5.2814574693e-01
801 3.7528779352e-02 -9.9698068332e-02 -5.2734259976e-01
802 6.1323211834e-02 -1.4901289118e-01 -4.8755768207e-01
803 6.1714374403e-02 -1.4885895699e-01 -4.8737599475e-01
804 6.2276959097e-02 -1.4863742056e-01 -4.8711858439e-01
805 6.2918413007e-02 -1.4836771544e-01 -4.8683009723e-01
806 6.3651163706e-02 -1.4801512114e-01 -4.8649292134e-01
807 6.4441887342e-02 -1.4764169270e-01 -4.8613844369e-01
808 6.5252291104e-02 -1.4718678899e-01 -4.8577126844e-01
809 6.6110008338e-02 -1.4671335063e-01 -4.8540315338e-01
810 6.6990321004e-02 -1.4615945456e-01 -4.8502279138e-01
811 6.7878704711e-02 -1.4557822946e-01 -4.8463961625e-01
812 6.8777367299e-02 -1.4494036837e-01 -4.8424102385e-01
813 6.9703824668e-02 -1.4425225863e-01 -4.8385600713e-01
814 7.0624251552e-02 -1.4353857172e-01 -4.8347730596e-01
815 7.1547868794e-02 -1.4277122171e-01 -4.8309598862e-01
816 7.2486756954e-02 -1.4197076198e-01 -4.8271877697e-01
817 7.3392288198e-02 -1.4111760312e-01 -4.8235317690e-01
818 7.4337781911e-02 -1.4021817555e-01 -4.8200133490e-01
819 7.5256237386e-02 -1.3927851221e-01 -4.8166280214e-01
820 7.6146051880e-02 -1.3829019463e-01 -4.8134934973e-01
821 7.7079421272e-02 -1.3725905011e-01 -4.8106664697e-01
822 7.7968463860e-02 -1.3615074780e-01 -4.8081271893e-01
823 7.8843838212e-02 -1.3499447756e-01 -4.8058188209e-01
824 7.9689779600e-02 -1.3376543762e-01 -4.8037148191e-01
825 8.0495042483e-02 -1.3248928816e-01 -4.8020992017e-01
826 8.1286558490e-02 -1.3115487881e-01 -4.8010012157e-01
827 8.2000450690e-02 -1.2977050148e-01 -4.8006199061e-01
828 8.2690862668e-02 -1.2830714513e-01 -4.8008145928e-01
829 8.3293615965e-02 -1.2681780079e-01 -4.8015569695e-01
830 8.3802527967e-02 -1.2525749495e-01 -4.8034848050e-01
831 8.4236635401e-02 -1.2369461070e-01 -4.8061702405e-01
832 8.4590107533e-02 -1.2210322460e-01 -4.8096045070e-01
833 8.4839688718e-02 -1.2048701903e-01 -4.8139264204e-01
834 8.4969191024e-02 -1.1890473419e-01 -4.8188757134e-01
835 8.4970647845e-02 -1.1732001518e-01 -4.8247983768e-01
836 8.4868879419e-02 -1.1576770056e-01 -4.8313062763e-01
837 8.4672953958e-02 -1.1427752380e-01 -4.8385582052e-01
838 8.4344785873e-02 -1.1285447522e-01 -4.8463550147e-01
839 8.3914200022e-02 -1.1145406301e-01 -4.8542089391e-01
840 8.3455200835e-02 -1.1014819893e-01 -4.8620048418e-01
841 8.2925225937e-02 -1.0885469791e-01 -4.8697622885e-01
842 8.2354660865e-02 -1.0761741868e-01 -4.8775398741e-01
843 8.1723793648e-02 -1.0642805189e-01 -4.8848908566e-01
844 8.1074307252e-02 -1.0526530561e-01 -4.8921997649e-01
845 8.0398202556e-02 -1.0413963392e-01 -4.8992268574e-01
846 7.9709648341e-02 -1.0306339794e-01 -4.9060398037e-01
847 7.9018286533e-02 -1.0199626291e-01 -4.9126145840e-01
848 7.8291848899e-02 -1.0092614656e-01 -4.9192004529e-01
849 7.7541087180e-02 -9.9902495078e-02 -4.9251828488e-01
850 7.6794437188e-02 -9.8900079644e-02 -4.9311520035e-01
851 7.5998716695e-02 -9.7927622502e-02 -4.9367993059e-01
852 7.5200374487e-02 -9.7017580386e-02 -4.9421745781e-01
853 7.4334714286e-02 -9.6133358637e-02 -4.9473852050e-01
854 7.3467284403e-02 -9.5357686722e-02 -4.9522098560e-01
855 7.2520300176e-02 -9.4625705356e-02 -4.9568050013e-01
856 7.1563724380e-02 -9.3991730774e-02 -4.9610231328e-01
857 7.0583709913e-02 -9.3430687913e-02 -4.9650779412e-01
858 6.9561397288e-02 -9.2957931779e-02 -4.9688128099e-01
859 6.8545885331e-02 -9.2586396603e-02 -4.9721010583e-01
860 6.7508688373e-02 -9.2289212485e-02 -4.9749506614e-01
861 6.6465052176e-02 -9.2092570903e-02 -4.9771074443e-01
862 6.5431589145e-02 -9.1933904099e-02 -4.9791933961e-01
863 6.4435400405e-02 -9.1843495485e-02 -4.9808262007e-01
864 6.3394309232e-02 -9.1779606684e-02 -4.9818252652e-01
865 6.2405377063e-02 -9.1748518209e-02 -4.9821577837e-01
866 6.1416144574e-02 -9.1726629481e-02 -4.9822615739e-01
867 6.0440005568e-02 -9.1711379423e-02 -4.9822972526e-01
868 5.9472503744e-02 -9.1703293874e-02 -4.9816971015e-01
869 5.8467461080e-02 -9.1693279702e-02 -4.9806095096e-01
870 5.7506098246e-02 -9.1678993473e-02 -4.9791413937e-01
871 5.6520820215e-02 -9.1666310642e-02 -4.9774896517e-01
872 6.1323211834e-02 -1.4901289118e-01 -4.8755768207e-01
873 6.0899781792e-02 -1.4891525008e-01 -4.8737515192e-01
874 6.0301572594e-02 -1.4876274711e-01 -4.8710320710e-01
875 5.9597891263e-02 -1.4859218797e-01 -4.8679570031e-01
876 5.8798543151e-02 -1.4839993767e-01 -4.8645636037e-01
877 5.7982167852e-02 -1.4818241783e-01 -4.8606491330e-01
878 5.7112493822e-02 -1.4797104483e-01 -4.8567331071e-01
879 5.6234954638e-02 -1.4774696390e-01 -4.8526717700e-01
880 5.5331821698e-02 -1.4749042775e-01 -4.8482654529e-01
881 5.4419934662e-02 -1.4725679061e-01 -4.8438673173e-01
882 5.3474012442e-02 -1.4700963774e-01 -4.8394323872e-01
883 5.2524542708e-02 -1.4673465920e-01 -4.8349220908e-01
884 5.1582538777e-02 -1.4645645931e-01 -4.8304509988e-01
885 5.0482506942e-02 -1.4609068965e-01 -4.8247024127e-01
886 4.9384703230e-02 -1.4570076978e-01 -4.8190558504e-01
887 4.8153965839e-02 -1.4520342078e-01 -4.8123428954e-01
888 4.7125571600e-02 -1.4476862007e-01 -4.8068399711e-01
889 4.6102733775e-02 -1.4429868482e-01 -4.8015963648e-01
$EndNodes
$Elements
877
1 1 2 1 1 1 2
2 1 2 1 1 2 3
3 1 2 1 1 3 4
4 1 2 1 1 4 5
5 1 2 1 1 5 6
6 1 2 1 1 6 7
7 1 2 1 1 7 8
8 1 2 1 1 8 9
9 1 2 1 1 9 10
10 1 2 1 1 10 11
11 1 2 1 1 11 12
12 1 2 1 1 12 13
13 1 2 1 1 13 14
14 1 2 1 1 14 15
15 1 2 1 1 15 16
16 1 2 1 1 16 17
17 1 2 1 1 17 18
18 1 2 1 1 18 19
19 1 2 1 1 19 20
20 1 2 1 1 20 21
21 1 2 1 1 21 22
22 1 2 1 1 22 23
23 1 2 1 1 23 24
24 1 2 1 1 24 25
25 1 2 1 1 25 26
26 1 2 1 1 26 27
27 1 2 1 1 27 28
28 1 2 1 1 28 29
29 1 2 1 1 29 30
30 1 2 1 1 30 31
31 1 2 1 1 31 32
32 1 2 1 1 32 33
33 1 2 1 1 33 34
34 1 2 1 1 34 35
35 1 2 1 1 35 36
36 1 2 1 1 36 37
37 1 2 1 1 37 38
38 1 2 1 1 38 39
39 1 2 1 1 39 40
40 1 2 1 1 40 41
41 1 2 1 1 41 42
42 1 2 1 1 42 43
43 1 2 1 1 43 44
44 1 2 1 1 44 45
45 1 2 1 1 45 46
46 1 2 1 1 46 47
47 1 2 1 1 47 48
48 1 2 1 1 48 49
49 1 2 1 1 49 50
50 1 2 1 1 50 51
51 1 2 1 1 51 52
52 1 2 1 1 52 53
53 1 2 1 1 53 54
54 1 2 1 1 54 55
55 1 2 1 1 55 56
56 1 2 1 1 56 57
57 1 2 1 1 57 58
58 1 2 1 1 58 59
59 1 2 1 1 59 60
60 1 2 1 1 60 61
61 1 2 1 1 62 63
62 1 2 1 1 63 64
63 1 2 1 1 64 65
64 1 2 1 1 65 66
65 1 2 1 1 66 67
66 1 2 1 1 67 68
67 1 2 1 1 68 69
68 1 2 1 1 69 70
69 1 2 1 1 71 72
70 1 2 1 1 72 73
71 1 2 1 1 73 74
72 1 2 1 1 74 75
73 1 2 1 1 75 76
74 1 2 1 1 76 77
75 1 2 1 1 77 78
76 1 2 1 1 78 79
77 1 2 1 1 79 80
78 1 2 1 1 80 81
79 1 2 1 1 81 82
80 1 2 1 1 82 83
81 1 2 1 1 83 84
82 1 2 1 1 84 85
83 1 2 1 1 85 86
84 1 2 1 1 86 87
85 1 2 1 1 87 88
86 1 2 1 1 88 89
87 1 2 1 1 89 90
88 1 2 1 1 90 91
89 1 2 1 1 91 92
90 1 2 1 1 92 93
91 1 2 1 1 93 94
92 1 2 1 1 94 95
93 1 2 1 1 95 96
94 1 2 1 1 96 97
95 1 2 1 1 97 98
96 1 2 1 1 98 99
97 1 2 1 1 99 100
98 1 2 1 1 100 101
99 1 2 1 1 101 102
100 1 2 1 1 102 103
101 1 2 1 1 103 104
102 1 2 1 1 104 105
103 1 2 1 1 105 106
104 1 2 1 1 106 107
105 1 2 1 1 107 108
106 1 2 1 1 108 109
107 1 2 1 1 109 110
108 1 2 1 1 110 111
109 1 2 1 1 111 112
110 1 2 1 1 112 113
111 1 2 1 1 113 114
112 1 2 1 1 114 115
113 1 2 1 1 115 116
114 1 2 1 1 116 117
115 1 2 1 1 117 118
116 1 2 1 1 118 119
117 1 2 1 1 119 120
118 1 2 1 1 120 121
119 1 2 1 1 121 122
120 1 2 1 1 122 123
121 1 2 1 1 123 124
122 1 2 1 1 124 125
123 1 2 1 1 125 126
124 1 2 1 1 126 127
125 1 2 1 1 127 128
126 1 2 1 1 128 129
127 1 2 1 1 129 130
128 1 2 1 1 130 131
129 1 2 1 1 131 132
130 1 2 1 1 132 133
131 1 2 1 1 133 134
132 1 2 1 1 134 135
133 1 2 1 1 135 136
134 1 2 1 1 136 137
135 1 2 1 1 137 138
136 1 2 1 1 138 139
137 1 2 1 1 139 140
138 1 2 1 1 140 141
139 1 2 1 1 141 142
140 1 2 1 1 142 143
141 1 2 1 1 143 144
142 1 2 1 1 144 145
143 1 2 1 1 145 146
144 1 2 1 1 146 147
145 1 2 1 1 147 148
146 1 2 1 1 148 149
147 1 2 1 1 149 150
148 1 2 1 1 150 151
149 1 2 1 1 151 152
150 1 2 1 1 152 153
151 1 2 1 1 153 154
152 1 2 1 1 154 155
153 1 2 1 1 155 156
154 1 2 1 1 156 157
155 1 2 1 1 157 158
156 1 2 1 1 158 159
157 1 2 1 1 159 160
158 1 2 1 1 160 161
159 1 2 1 1 161 162
160 1 2 1 1 162 163
161 1 2 1 1 163 164
162 1 2 1 1 164 165
163 1 2 1 1 165 166
164 1 2 1 1 166 167
165 1 2 1 1 167 168
166 1 2 1 1 168 169
167 1 2 1 1 169 170
168 1 2 1 1 170 171
169 1 2 1 1 171 172
170 1 2 1 1 172 173
171 1 2 1 1 173 174
172 1 2 1 1 174 175
173 1 2 1 1 175 176
174 1 2 1 1 176 177
175 1 2 1 1 177 178
176 1 2 1 1 178 179
177 1 2 1 1 179 180
178 1 2 1 1 180 181
179 1 2 1 1 181 182
180 1 2 1 1 182 183
181 1 2 1 1 183 184
182 1 2 1 1 184 185
183 1 2 1 1 185 186
184 1 2 1 1 186 187
185 1 2 1 1 187 188
186 1 2 1 1 188 189
187 1 2 1 1 189 190
188 1 2 1 1 190 191
189 1 2 1 1 191 192
190 1 2 1 1 192 193
191 1 2 1 1 193 194
192 1 2 1 1 194 195
193 1 2 1 1 195 196
194 1 2 1 1 196 197
195 1 2 1 1 197 198
196 1 2 1 1 198 199
197 1 2 1 1 199 200
198 1 2 1 1 200 201
199 1 2 1 1 201 202
200 1 2 1 1 202 203
201 1 2 1 1 203 204
202 1 2 1 1 204 205
203 1 2 1 1 205 206
204 1 2 1 1 206 207
205 1 2 1 1 208 209
206 1 2 1 1 209 210
207 1 2 1 1 210 211
208 1 2 1 1 211 212
209 1 2 1 1 212 213
210 1 2 1 1 213 214
211 1 2 1 1 214 215
212 1 2 1 1 215 216
213 1 2 1 1 216 217
214 1 2 1 1 217 218
215 1 2 1 1 218 219
216 1 2 1 1 219 220
217 1 2 1 1 220 221
218 1 2 1 1 221 222
219 1 2 1 1 222 223
220 1 2 1 1 223 224
221 1 2 1 1 224 225
222 1 2 1 1 225 226
223 1 2 1 1 226 227
224 1 2 1 1 227 228
225 1 2 1 1 228 229
226 1 2 1 1 229 230
227 1 2 1 1 230 231
228 1 2 1 1 231 232
229 1 2 1 1 232 233
230 1 2 1 1 233 234
231 1 2 1 1 234 235
232 1 2 1 1 235 236
233 1 2 1 1 236 237
234 1 2 1 1 237 238
235 1 2 1 1 238 239
236 1 2 1 1 239 240
237 1 2 1 1 240 241
238 1 2 1 1 241 242
239 1 2 1 1 242 243
240 1 2 1 1 243 244
241 1 2 1 1 244 245
242 1 2 1 1 245 246
243 1 2 1 1 246 247
244 1 2 1 1 247 248
245 1 2 1 1 248 249
246 1 2 1 1 249 250
247 1 2 1 1 250 251
248 1 2 1 1 251 252
249 1 2 1 1 252 253
250 1 2 1 1 253 254
251 1 2 1 1 254 255
252 1 2 1 1 255 256
253 1 2 1 1 256 257
254 1 2 1 1 257 258
255 1 2 1 1 258 259
256 1 2 1 1 259 260
257 1 2 1 1 260 261
258 1 2 1 1 261 262
259 1 2 1 1 262 263
260 1 2 1 1 264 265
261 1 2 1 1 265 266
262 1 2 1 1 266 267
263 1 2 1 1 267 268
264 1 2 1 1 268 269
265 1 2 1 1 269 270
266 1 2 1 1 270 271
267 1 2 1 1 271 272
268 1 2 1 1 272 273
269 1 2 1 1 273 274
270 1 2 1 1 274 275
271 1 2 1 1 275 276
272 1 2 1 1 276 277
273 1 2 1 1 277 278
274 1 2 1 1 278 279
275 1 2 1 1 279 280
276 1 2 1 1 280 281
277 1 2 1 1 281 282
278 1 2 1 1 282 283
279 1 2 1 1 283 284
280 1 2 1 1 284 285
281 1 2 1 1 285 286
282 1 2 1 1 286 287
283 1 2 1 1 287 288
284 1 2 1 1 288 289
285 1 2 1 1 289 290
286 1 2 1 1 290 291
287 1 2 1 1 291 292
288 1 2 1 1 292 293
289 1 2 1 1 293 294
290 1 2 1 1 294 295
291 1 2 1 1 296 297
292 1 2 1 1 297 298
293 1 2 1 1 298 299
294 1 2 1 1 299 300
295 1 2 1 1 300 301
296 1 2 1 1 301 302
297 1 2 1 1 302 303
298 1 2 1 1 303 304
299 1 2 1 1 304 305
300 1 2 1 1 305 306
301 1 2 1 1 306 307
302 1 2 1 1 307 308
303 1 2 1 1 308 309
304 1 2 1 1 309 310
305 1 2 1 1 310 311
306 1 2 1 1 311 312
307 1 2 1 1 312 313
308 1 2 1 1 313 314
309 1 2 1 1 314 315
310 1 2 1 1 315 316
311 1 2 1 1 316 317
312 1 2 1 1 317 318
313 1 2 1 1 318 319
314 1 2 1 1 319 320
315 1 2 1 1 320 321
316 1 2 1 1 321 322
317 1 2 1 1 322 323
318 1 2 1 1 323 324
319 1 2 1 1 324 325
320 1 2 1 1 325 326
321 1 2 1 1 326 327
322 1 2 1 1 327 328
323 1 2 1 1 328 329
324 1 2 1 1 329 330
325 1 2 1 1 330 331
326 1 2 1 1 331 332
327 1 2 1 1 332 333
328 1 2 1 1 334 335
329 1 2 1 1 336 337
330 1 2 1 1 337 338
331 1 2 1 1 338 339
332 1 2 1 1 339 340
333 1 2 1 1 340 341
334 1 2 1 1 341 342
335 1 2 1 1 342 343
336 1 2 1 1 343 344
337 1 2 1 1 344 345
338 1 2 1 1 345 346
339 1 2 1 1 346 347
340 1 2 1 1 347 348
341 1 2 1 1 348 349
342 1 2 1 1 349 350
343 1 2 1 1 350 351
344 1 2 1 1 351 352
345 1 2 1 1 352 353
346 1 2 1 1 353 354
347 1 2 1 1 354 355
348 1 2 1 1 355 356
349 1 2 1 1 356 357
350 1 2 1 1 357 358
351 1 2 1 1 358 359
352 1 2 1 1 359 360
353 1 2 1 1 360 361
354 1 2 1 1 361 362
355 1 2 1 1 362 363
356 1 2 1 1 363 364
357 1 2 1 1 364 365
358 1 2 1 1 365 366
359 1 2 1 1 366 367
360 1 2 1 1 367 368
361 1 2 1 1 368 369
362 1 2 1 1 369 370
363 1 2 1 1 370 371
364 1 2 1 1 371 372
365 1 2 1 1 372 373
366 1 2 1 1 373 374
367 1 2 1 1 374 375
368 1 2 1 1 375 376
369 1 2 1 1 376 377
370 1 2 1 1 377 378
371 1 2 1 1 378 379
372 1 2 1 1 379 380
373 1 2 1 1 380 381
374 1 2 1 1 381 382
375 1 2 1 1 382 383
376 1 2 1 1 383 384
377 1 2 1 1 384 385
378 1 2 1 1 385 386
379 1 2 1 1 386 387
380 1 2 1 1 387 388
381 1 2 1 1 388 389
382 1 2 1 1 389 390
383 1 2 1 1 390 391
384 1 2 1 1 391 392
385 1 2 1 1 392 393
386 1 2 1 1 393 394
387 1 2 1 1 394 395
388 1 2 1 1 395 396
389 1 2 1 1 396 397
390 1 2 1 1 397 398
391 1 2 1 1 398 399
392 1 2 1 1 399 400
393 1 2 1 1 400 401
394 1 2 1 1 401 402
395 1 2 1 1 402 403
396 1 2 1 1 403 404
397 1 2 1 1 404 405
398 1 2 1 1 405 406
399 1 2 1 1 406 407
400 1 2 1 1 407 408
401 1 2 1 1 408 409
402 1 2 1 1 409 410
403 1 2 1 1 410 411
404 1 2 1 1 411 412
405 1 2 1 1 412 413
406 1 2 1 1 413 414
407 1 2 1 1 414 415
408 1 2 1 1 415 416
409 1 2 1 1 416 417
410 1 2 1 1 417 418
411 1 2 1 1 418 419
412 1 2 1 1 419 420
413 1 2 1 1 420 421
414 1 2 1 1 421 422
415 1 2 1 1 422 423
416 1 2 1 1 423 424
417 1 2 1 1 424 425
418 1 2 1 1 425 426
419 1 2 1 1 426 427
420 1 2 1 1 427 428
421 1 2 1 1 428 429
422 1 2 1 1 429 430
423 1 2 1 1 430 431
424 1 2 1 1 431 432
425 1 2 1 1 432 433
426 1 2 1 1 433 434
427 1 2 1 1 434 435
428 1 2 1 1 435 436
429 1 2 1 1 436 437
430 1 2 1 1 437 438
431 1 2 1 1 438 439
432 1 2 1 1 439 440
433 1 2 1 1 440 441
434 1 2 1 1 441 442
435 1 2 1 1 442 443
436 1 2 1 1 443 444
437 1 2 1 1 444 445
438 1 2 1 1 445 446
439 1 2 1 1 446 447
440 1 2 1 1 447 448
441 1 2 1 1 448 449
442 1 2 1 1 449 450
443 1 2 1 1 450 451
444 1 2 1 1 451 452
445 1 2 1 1 452 453
446 1 2 1 1 453 454
447 1 2 1 1 454 455
448 1 2 1 1 455 456
449 1 2 1 1 456 457
450 1 2 1 1 457 458
451 1 2 1 1 458 459
452 1 2 1 1 459 460
453 1 2 1 1 460 461
454 1 2 1 1 461 462
455 1 2 1 1 462 463
456 1 2 1 1 463 464
457 1 2 1 1 464 465
458 1 2 1 1 465 466
459 1 2 1 1 466 467
460 1 2 1 1 467 468
461 1 2 1 1 468 469
462 1 2 1 1 469 470
463 1 2 1 1 470 471
464 1 2 1 1 471 472
465 1 2 1 1 472 473
466 1 2 1 1 473 474
467 1 2 1 1 474 475
468 1 2 1 1 475 476
469 1 2 1 1 476 477
470 1 2 1 1 477 478
471 1 2 1 1 478 479
472 1 2 1 1 479 480
473 1 2 1 1 480 481
474 1 2 1 1 481 482
475 1 2 1 1 482 483
476 1 2 1 1 483 484
477 1 2 1 1 484 485
478 1 2 1 1 485 486
479 1 2 1 1 486 487
480 1 2 1 1 487 488
481 1 2 1 1 488 489
482 1 2 1 1 489 490
483 1 2 1 1 490 491
484 1 2 1 1 491 492
485 1 2 1 1 492 493
486 1 2 1 1 493 494
487 1 2 1 1 494 495
488 1 2 1 1 495 496
489 1 2 1 1 496 497
490 1 2 1 1 497 498
491 1 2 1 1 498 499
492 1 2 1 1 499 500
493 1 2 1 1 500 501
494 1 2 1 1 501 502
495 1 2 1 1 502 503
496 1 2 1 1 503 504
497 1 2 1 1 504 505
498 1 2 1 1 505 506
499 1 2 1 1 506 507
500 1 2 1 1 507 508
501 1 2 1 1 508 509
502 1 2 1 1 509 510
503 1 2 1 1 510 511
504 1 2 1 1 511 512
505 1 2 1 1 512 513
506 1 2 1 1 513 514
507 1 2 1 1 514 515
508 1 2 1 1 515 516
509 1 2 1 1 516 517
510 1 2 1 1 517 518
511 1 2 1 1 518 519
512 1 2 1 1 519 520
513 1 2 1 1 520 521
514 1 2 1 1 521 522
515 1 2 1 1 522 523
516 1 2 1 1 523 524
517 1 2 1 1 524 525
518 1 2 1 1 525 526
519 1 2 1 1 526 527
520 1 2 1 1 527 528
521 1 2 1 1 528 529
522 1 2 1 1 529 530
523 1 2 1 1 531 532
524 1 2 1 1 532 533
525 1 2 1 1 533 534
526 1 2 1 1 534 535
527 1 2 1 1 535 536
528 1 2 1 1 536 537
529 1 2 1 1 537 538
530 1 2 1 1 538 539
531 1 2 1 1 539 540
532 1 2 1 1 540 541
533 1 2 1 1 541 542
534 1 2 1 1 542 543
535 1 2 1 1 543 544
536 1 2 1 1 544 545
537 1 2 1 1 545 546
538 1 2 1 1 546 547
539 1 2 1 1 547 548
540 1 2 1 1 548 549
541 1 2 1 1 549 550
542 1 2 1 1 550 551
543 1 2 1 1 551 552
544 1 2 1 1 552 553
545 1 2 1 1 553 554
546 1 2 1 1 554 555
547 1 2 1 1 555 556
548 1 2 1 1 556 557
549 1 2 1 1 557 558
550 1 2 1 1 558 559
551 1 2 1 1 559 560
552 1 2 1 1 560 561
553 1 2 1 1 561 562
554 1 2 1 1 562 563
555 1 2 1 1 563 564
556 1 2 1 1 564 565
557 1 2 1 1 565 566
558 1 2 1 1 566 567
559 1 2 1 1 567 568
560 1 2 1 1 568 569
561 1 2 1 1 569 570
562 1 2 1 1 570 571
563 1 2 1 1 571 572
564 1 2 1 1 572 573
565 1 2 1 1 573 574
566 1 2 1 1 574 575
567 1 2 1 1 575 576
568 1 2 1 1 576 577
569 1 2 1 1 577 578
570 1 2 1 1 578 579
571 1 2 1 1 579 580
572 1 2 1 1 580 581
573 1 2 1 1 581 582
574 1 2 1 1 582 583
575 1 2 1 1 583 584
576 1 2 1 1 584 585
577 1 2 1 1 585 586
578 1 2 1 1 586 587
579 1 2 1 1 587 588
580 1 2 1 1 588 589
581 1 2 1 1 589 590
582 1 2 1 1 590 591
583 1 2 1 1 591 592
584 1 2 1 1 592 593
585 1 2 1 1 593 594
586 1 2 1 1 594 595
587 1 2 1 1 595 596
588 1 2 1 1 596 597
589 1 2 1 1 597 598
590 1 2 1 1 598 599
591 1 2 1 1 599 600
592 1 2 1 1 600 601
593 1 2 1 1 601 602
594 1 2 1 1 602 603
595 1 2 1 1 603 604
596 1 2 1 1 604 605
597 1 2 1 1 605 606
598 1 2 1 1 606 607
599 1 2 1 1 607 608
600 1 2 1 1 608 609
601 1 2 1 1 609 610
602 1 2 1 1 610 611
603 1 2 1 1 611 612
604 1 2 1 1 612 613
605 1 2 1 1 613 614
606 1 2 1 1 614 615
607 1 2 1 1 615 616
608 1 2 1 1 616 617
609 1 2 1 1 617 618
610 1 2 1 1 618 619
611 1 2 1 1 619 620
612 1 2 1 1 620 621
613 1 2 1 1 621 622
614 1 2 1 1 622 623
615 1 2 1 1 623 624
616 1 2 1 1 624 625
617 1 2 1 1 625 626
618 1 2 1 1 626 627
619 1 2 1 1 627 628
620 1 2 1 1 628 629
621 1 2 1 1 629 630
622 1 2 1 1 630 631
623 1 2 1 1 631 632
624 1 2 1 1 632 633
625 1 2 1 1 633 634
626 1 2 1 1 634 635
627 1 2 1 1 635 636
628 1 2 1 1 636 637
629 1 2 1 1 637 638
630 1 2 1 1 638 639
631 1 2 1 1 639 640
632 1 2 1 1 640 641
633 1 2 1 1 641 642
634 1 2 1 1 642 643
635 1 2 1 1 643 644
636 1 2 1 1 644 645
637 1 2 1 1 645 646
638 1 2 1 1 646 647
639 1 2 1 1 647 648
640 1 2 1 1 648 649
641 1 2 1 1 649 650
642 1 2 1 1 650 651
643 1 2 1 1 651 652
644 1 2 1 1 652 653
645 1 2 1 1 653 654
646 1 2 1 1 654 655
647 1 2 1 1 655 656
648 1 2 1 1 656 657
649 1 2 1 1 657 658
650 1 2 1 1 658 659
651 1 2 1 1 659 660
652 1 2 1 1 660 661
653 1 2 1 1 661 662
654 1 2 1 1 662 663
655 1 2 1 1 663 664
656 1 2 1 1 664 665
657 1 2 1 1 665 666
658 1 2 1 1 666 667
659 1 2 1 1 667 668
660 1 2 1 1 668 669
661 1 2 1 1 669 670
662 1 2 1 1 670 671
663 1 2 1 1 671 672
664 1 2 1 1 672 673
665 1 2 1 1 673 674
666 1 2 1 1 674 675
667 1 2 1 1 675 676
668 1 2 1 1 676 677
669 1 2 1 1 677 678
670 1 2 1 1 678 679
671 1 2 1 1 679 680
672 1 2 1 1 680 681
673 1 2 1 1 681 682
674 1 2 1 1 682 683
675 1 2 1 1 683 684
676 1 2 1 1 684 685
677 1 2 1 1 685 686
678 1 2 1 1 686 687
679 1 2 1 1 687 688
680 1 2 1 1 688 689
681 1 2 1 1 689 690
682 1 2 1 1 690 691
683 1 2 1 1 691 692
684 1 2 1 1 692 693
685 1 2 1 1 693 694
686 1 2 1 1 694 695
687 1 2 1 1 695 696
688 1 2 1 1 696 697
689 1 2 1 1 697 698
690 1 2 1 1 698 699
691 1 2 1 1 699 700
692 1 2 1 1 700 701
693 1 2 1 1 701 702
694 1 2 1 1 702 703
695 1 2 1 1 703 704
696 1 2 1 1 704 705
697 1 2 1 1 705 706
698 1 2 1 1 706 707
699 1 2 1 1 707 708
700 1 2 1 1 708 709
701 1 2 1 1 709 710
702 1 2 1 1 710 711
703 1 2 1 1 711 712
704 1 2 1 1 712 713
705 1 2 1 1 713 714
706 1 2 1 1 714 715
707 1 2 1 1 715 716
708 1 2 1 1 716 717
709 1 2 1 1 717 718
710 1 2 1 1 718 719
711 1 2 1 1 719 720
712 1 2 1 1 720 721
713 1 2 1 1 721 722
714 1 2 1 1 722 723
715 1 2 1 1 723 724
716 1 2 1 1 724 725
717 1 2 1 1 726 727
718 1 2 1 1 727 728
719 1 2 1 1 728 729
720 1 2 1 1 729 730
721 1 2 1 1 730 731
722 1 2 1 1 731 732
723 1 2 1 1 732 733
724 1 2 1 1 733 734
725 1 2 1 1 734 735
726 1 2 1 1 735 736
727 1 2 1 1 736 737
728 1 2 1 1 737 738
729 1 2 1 1 738 739
730 1 2 1 1 739 740
731 1 2 1 1 740 741
732 1 2 1 1 741 742
733 1 2 1 1 742 743
734 1 2 1 1 743 744
735 1 2 1 1 744 745
736 1 2 1 1 745 746
737 1 2 1 1 746 747
738 1 2 1 1 747 748
739 1 2 1 1 748 749
740 1 2 1 1 749 750
741 1 2 1 1 750 751
742 1 2 1 1 751 752
743 1 2 1 1 752 753
744 1 2 1 1 753 754
745 1 2 1 1 754 755
746 1 2 1 1 755 756
747 1 2 1 1 756 757
748 1 2 1 1 757 758
749 1 2 1 1 758 759
750 1 2 1 1 759 760
751 1 2 1 1 760 761
752 1 2 1 1 761 762
753 1 2 1 1 762 763
754 1 2 1 1 763 764
755 1 2 1 1 764 765
756 1 2 1 1 765 766
757 1 2 1 1 766 767
758 1 2 1 1 767 768
759 1 2 1 1 768 769
760 1 2 1 1 769 770
761 1 2 1 1 770 771
762 1 2 1 1 771 772
763 1 2 1 1 772 773
764 1 2 1 1 773 774
765 1 2 1 1 774 775
766 1 2 1 1 775 776
767 1 2 1 1 776 777
768 1 2 1 1 777 778
769 1 2 1 1 778 779
770 1 2 1 1 779 780
771 1 2 1 1 780 781
772 1 2 1 1 781 782
773 1 2 1 1 782 783
774 1 2 1 1 783 784
775 1 2 1 1 784 785
776 1 2 1 1 785 786
777 1 2 1 1 786 787
778 1 2 1 1 787 788
779 1 2 1 1 788 789
780 1 2 1 1 789 790
781 1 2 1 1 790 791
782 1 2 1 1 791 792
783 1 2 1 1 792 793
784 1 2 1 1 793 794
785 1 2 1 1 794 795
786 1 2 1 1 795 796
787 1 2 1 1 796 797
788 1 2 1 1 797 798
789 1 2 1 1 798 799
790 1 2 1 1 799 800
791 1 2 1 1 800 801
792 1 2 1 1 802 803
793 1 2 1 1 803 804
794 1 2 1 1 804 805
795 1 2 1 1 805 806
796 1 2 1 1 806 807
797 1 2 1 1 807 808
798 1 2 1 1 808 809
799 1 2 1 1 809 810
800 1 2 1 1 810 811
801 1 2 1 1 811 812
802 1 2 1 1 812 813
803 1 2 1 1 813 814
804 1 2 1 1 814 815
805 1 2 1 1 815 816
806 1 2 1 1 816 817
807 1 2 1 1 817 818
808 1 2 1 1 818 819
809 1 2 1 1 819 820
810 1 2 1 1 820 821
811 1 2 1 1 821 822
812 1 2 1 1 822 823
813 1 2 1 1 823 824
814 1 2 1 1 824 825
815 1 2 1 1 825 826
816 1 2 1 1 826 827
817 1 2 1 1 827 828
818 1 2 1 1 828 829
819 1 2 1 1 829 830
820 1 2 1 1 830 831
821 1 2 1 1 831 832
822 1 2 1 1 832 833
823 1 2 1 1 833 834
824 1 2 1 1 834 835
825 1 2 1 1 835 836
826 1 2 1 1 836 837
827 1 2 1 1 837 838
828 1 2 1 1 838 839
829 1 2 1 1 839 840
830 1 2 1 1 840 841
831 1 2 1 1 841 842
832 1 2 1 1 842 843
833 1 2 1 1 843 844
834 1 2 1 1 844 845
835 1 2 1 1 845 846
836 1 2 1 1 846 847
837 1 2 1 1 847 848
838 1 2 1 1 848 849
839 1 2 1 1 849 850
840 1 2 1 1 850 851
841 1 2 1 1 851 852
842 1 2 1 1 852 853
843 1 2 1 1 853 854
844 1 2 1 1 854 855
845 1 2 1 1 855 856
846 1 2 1 1 856 857
847 1 2 1 1 857 858
848 1 2 1 1 858 859
849 1 2 1 1 859 860
850 1 2 1 1 860 861
851 1 2 1 1 861 862
852 1 2 1 1 862 863
853 1 2 1 1 863 864
854 1 2 1 1 864 865
855 1 2 1 1 865 866
856 1 2 1 1 866 867
857 1 2 1 1 867 868
858 1 2 1 1 868 869
859 1 2 1 1 869 870
860 1 2 1 1 870 871
861 1 2 1 1 872 873
862 1 2 1 1 873 874
863 1 2 1 1 874 875
864 1 2 1 1 875 876
865 1 2 1 1 876 877
866 1 2 1 1 877 878
867 1 2 1 1 878 879
868 1 2 1 1 879 880
869 1 2 1 1 880 881
870 1 2 1 1 881 882
871 1 2 1 1 882 883
872 1 2 1 1 883 884
873 1 2 1 1 884 885
874 1 2 1 1 885 886
875 1 2 1 1 886 887
876 1 2 1 1 887 888
877 1 2 1 1 888 889
$EndElements
