$MeshFormat
2.2 0 8
$EndMeshFormat
$Nodes
668
1 6.5335692639e-02 -9.2850073744e-02 -4.9046046584e-01
2 6.5328397243e-02 -9.2748787426e-02 -4.9089771311e-01
3 6.5320763074e-02 -9.2604384801e-02 -4.9152927978e-01
4 6.5247356093e-02 -9.2476529104e-02 -4.9225240852e-01
5 6.5175240403e-02 -9.2335823303e-02 -4.9309374041e-01
6 6.5091740893e-02 -9.2197979724e-02 -4.9401062399e-01
7 6.4961358017e-02 -9.2092491179e-02 -4.9493874661e-01
8 6.4805973118e-02 -9.1975214447e-02 -4.9595710084e-01
9 6.4633862899e-02 -9.1911283141e-02 -4.9698410824e-01
10 6.4435400406e-02 -9.1843495485e-02 -4.9808262007e-01
11 6.4184971557e-02 -9.1800597150e-02 -4.9914893856e-01
12 6.3944062310e-02 -9.1765650914e-02 -5.0030414805e-01
13 6.3630145651e-02 -9.1734469751e-02 -5.0143627315e-01
14 6.3384173545e-02 -9.1708803855e-02 -5.0261566551e-01
15 6.3093585863e-02 -9.1724854734e-02 -5.0382012811e-01
16 6.2809640717e-02 -9.1746720230e-02 -5.0507731396e-01
17 6.2491473105e-02 -9.1764475669e-02 -5.0634915058e-01
18 6.2134277129e-02 -9.1833422444e-02 -5.0762756267e-01
19 6.1741547932e-02 -9.1929858039e-02 -5.0891209025e-01
20 6.1309162940e-02 -9.2086309013e-02 -5.1019138830e-01
21 6.0843414388e-02 -9.2268557172e-02 -5.1146741695e-01
22 6.0337492300e-02 -9.2528897190e-02 -5.1272143550e-01
23 5.9802674358e-02 -9.2812220958e-02 -5.1396606846e-01
24 5.9231424720e-02 -9.3162278115e-02 -5.1517876734e-01
25 5.8631585984e-02 -9.3546619176e-02 -5.1636891824e-01
26 5.8001361594e-02 -9.3989959670e-02 -5.1752327074e-01
27 5.7348679713e-02 -9.4454201841e-02 -5.1865370026e-01
28 5.6669939713e-02 -9.4964283194e-02 -5.1974752537e-01
29 5.5969507107e-02 -9.5504406604e-02 -5.2081002332e-01
30 5.5246925265e-02 -9.6089511986e-02 -5.2182879724e-01
31 5.4504561549e-02 -9.6705410857e-02 -5.2281191030e-01
32 5.3744239678e-02 -9.7335149875e-02 -5.2377096218e-01
33 5.2966108872e-02 -9.7995949850e-02 -5.2469102622e-01
34 5.2171767970e-02 -9.8671748831e-02 -5.2558326144e-01
35 5.1361964954e-02 -9.9374938353e-02 -5.2643510590e-01
36 5.0538298366e-02 -1.0009870226e-01 -5.2725049998e-01
37 4.9702413301e-02 -1.0083468207e-01 -5.2803410385e-01
38 4.8855617272e-02 -1.0159002154e-01 -5.2877714263e-01
39 4.7999525340e-02 -1.0235078823e-01 -5.2949084956e-01
40 4.7133427844e-02 -1.0315438136e-01 -5.3013068039e-01
41 4.6261591408e-02 -1.0396026555e-01 -5.3073936546e-01
42 4.5382023510e-02 -1.0481621118e-01 -5.3124498829e-01
43 4.4501080210e-02 -1.0566409265e-01 -5.3172649905e-01
44 4.3617759404e-02 -1.0654170419e-01 -5.3210510349e-01
45 4.2735830529e-02 -1.0741350568e-01 -5.3243861361e-01
46 4.1857137454e-02 -1.0827803261e-01 -5.3272025696e-01
47 4.0981544878e-02 -1.0913684197e-01 -5.3291763119e-01
48 4.0110232464e-02 -1.0997087386e-01 -5.3310113412e-01
49 3.9242327748e-02 -1.1078178098e-01 -5.3324894542e-01
50 3.8376784203e-02 -1.1156786402e-01 -5.3335786637e-01
51 3.7511938929e-02 -1.1232436546e-01 -5.3342705515e-01
52 3.6644709162e-02 -1.1304509939e-01 -5.3349088708e-01
53 3.5772086687e-02 -1.1372903744e-01 -5.3352873297e-01
54 3.4888781602e-02 -1.1437235842e-01 -5.3356108253e-01
55 3.3988718591e-02 -1.1497579540e-01 -5.3356387338e-01
56 3.3063171024e-02 -1.1553869870e-01 -5.3355081843e-01
57 3.2100907564e-02 -1.1606346280e-01 -5.3351916871e-01
58 3.1094198253e-02 -1.1655500868e-01 -5.3343280702e-01
59 3.0029712141e-02 -1.1701359082e-01 -5.3330062822e-01
60 2.8902036130e-02 -1.1743227967e-01 -5.3311258505e-01
61 2.7718116366e-02 -1.1778204048e-01 -5.3285663201e-01
62 6.5055445423e-02 -9.2827646930e-02 -4.9031014363e-01
63 6.4645369996e-02 -9.2794406167e-02 -4.9010868223e-01
64 6.4153642675e-02 -9.2753899792e-02 -4.8989456455e-01
65 6.3605434751e-02 -9.2721202083e-02 -4.8964528721e-01
66 6.3030068016e-02 -9.2725098851e-02 -4.8935152228e-01
67 6.2413807929e-02 -9.2731798562e-02 -4.8906358003e-01
68 6.1763841856e-02 -9.2742795109e-02 -4.8879714725e-01
69 6.1095300595e-02 -9.2776991033e-02 -4.8848519882e-01
70 6.5623235251e-02 -9.2973786876e-02 -4.9017354078e-01
71 6.6052945474e-02 -9.3180961911e-02 -4.8975532775e-01
72 6.6525568609e-02 -9.3485396594e-02 -4.8924280334e-01
73 6.7032665358e-02 -9.3827271530e-02 -4.8867942966e-01
74 6.7585392007e-02 -9.4208999072e-02 -4.8808271414e-01
75 6.8104216269e-02 -9.4704747518e-02 -4.8743135889e-01
76 6.8652147127e-02 -9.5220135338e-02 -4.8677790205e-01
77 6.9165586289e-02 -9.5812025977e-02 -4.8609968871e-01
78 6.9682197690e-02 -9.6464325175e-02 -4.8540902621e-01
79 7.0151254478e-02 -9.7153115279e-02 -4.8470999812e-01
80 7.0621158251e-02 -9.7927807476e-02 -4.8400864233e-01
81 7.1019844222e-02 -9.8744593289e-02 -4.8329771113e-01
82 7.1411252074e-02 -9.9611482360e-02 -4.8259706442e-01
83 7.1721424582e-02 -1.0055203000e-01 -4.8194886732e-01
84 7.2002165059e-02 -1.0152295780e-01 -4.8129932541e-01
85 7.2258437245e-02 -1.0252194356e-01 -4.8065072067e-01
86 7.2437096748e-02 -1.0358655657e-01 -4.8006698431e-01
87 7.2601349836e-02 -1.0468485306e-01 -4.7948318420e-01
88 7.2699719044e-02 -1.0580963413e-01 -4.7895425871e-01
89 7.2773250352e-02 -1.0696094749e-01 -4.7841517804e-01
90 7.2817245301e-02 -1.0811721772e-01 -4.7792114621e-01
91 7.2794594219e-02 -1.0931436495e-01 -4.7743686669e-01
92 7.2782441143e-02 -1.1055010782e-01 -4.7695498601e-01
93 7.2712997696e-02 -1.1176392843e-01 -4.7653844954e-01
94 7.2600288403e-02 -1.1303833636e-01 -4.7610472268e-01
95 7.2449167039e-02 -1.1428401033e-01 -4.7573070806e-01
96 7.2261579501e-02 -1.1556442601e-01 -4.7536643702e-01
97 7.2029698011e-02 -1.1684091032e-01 -4.7504401603e-01
98 7.1771369938e-02 -1.1810655579e-01 -4.7475538930e-01
99 7.1467671724e-02 -1.1940289286e-01 -4.7449348499e-01
100 7.1140647129e-02 -1.2063880016e-01 -4.7428081696e-01
101 7.0773511202e-02 -1.2193586675e-01 -4.7409319280e-01
102 7.0388631066e-02 -1.2313950496e-01 -4.7395571638e-01
103 6.9947664909e-02 -1.2439324396e-01 -4.7384948968e-01
104 6.9503913983e-02 -1.2558749441e-01 -4.7378124588e-01
105 6.9050351605e-02 -1.2677493914e-01 -4.7375431641e-01
106 6.8539254677e-02 -1.2793408241e-01 -4.7378042919e-01
107 6.8050569899e-02 -1.2906504402e-01 -4.7382023515e-01
108 6.7501532162e-02 -1.3016345012e-01 -4.7392083372e-01
109 6.6977496663e-02 -1.3124991636e-01 -4.7403199263e-01
110 6.6409517419e-02 -1.3228500502e-01 -4.7419495577e-01
111 6.5864363717e-02 -1.3333246964e-01 -4.7438440267e-01
112 6.5255117195e-02 -1.3432390613e-01 -4.7460288869e-01
113 6.4688954560e-02 -1.3530371017e-01 -4.7483971597e-01
114 6.4085890080e-02 -1.3624301737e-01 -4.7510905522e-01
115 6.3463731058e-02 -1.3716931498e-01 -4.7543031546e-01
116 6.2856105894e-02 -1.3805364033e-01 -4.7576450592e-01
117 6.2207418908e-02 -1.3891072596e-01 -4.7615713647e-01
118 6.1601731297e-02 -1.3971151793e-01 -4.7657320646e-01
119 6.0961175524e-02 -1.4046335370e-01 -4.7705467619e-01
120 6.0354749924e-02 -1.4120495537e-01 -4.7756831343e-01
121 5.9736506790e-02 -1.4187878926e-01 -4.7812438216e-01
122 5.9135919668e-02 -1.4256331499e-01 -4.7873010719e-01
123 5.8519983275e-02 -1.4321146497e-01 -4.7937989023e-01
124 5.7945277189e-02 -1.4383767455e-01 -4.8004752149e-01
125 5.7331425028e-02 -1.4444310429e-01 -4.8073963577e-01
126 5.6747799461e-02 -1.4503912585e-01 -4.8144516315e-01
127 5.6142843385e-02 -1.4559941174e-01 -4.8215154131e-01
128 5.5569438600e-02 -1.4617986390e-01 -4.8288981858e-01
129 5.4976570086e-02 -1.4672075383e-01 -4.8363307308e-01
130 5.4419934718e-02 -1.4725679059e-01 -4.8438673171e-01
131 5.3845702044e-02 -1.4777375071e-01 -4.8517143472e-01
132 5.3301041691e-02 -1.4826532748e-01 -4.8596094154e-01
133 5.2742307511e-02 -1.4875420318e-01 -4.8678462575e-01
134 5.2207978648e-02 -1.4919287771e-01 -4.8761587761e-01
135 5.1687563247e-02 -1.4962090007e-01 -4.8849188005e-01
136 5.1165852610e-02 -1.5003499423e-01 -4.8941002844e-01
137 5.0672836722e-02 -1.5041436056e-01 -4.9033062492e-01
138 5.0147386248e-02 -1.5077768807e-01 -4.9129343028e-01
139 4.9644568013e-02 -1.5110971961e-01 -4.9225665557e-01
140 4.9138885711e-02 -1.5143136492e-01 -4.9325425090e-01
141 4.8622625318e-02 -1.5172461099e-01 -4.9428323119e-01
142 4.8139760002e-02 -1.5198267323e-01 -4.9531949900e-01
143 4.7636233049e-02 -1.5220305133e-01 -4.9638672223e-01
144 4.7153213906e-02 -1.5236928919e-01 -4.9748481932e-01
145 4.6691146294e-02 -1.5250900120e-01 -4.9861724952e-01
146 4.6223921804e-02 -1.5254438420e-01 -4.9978588864e-01
147 4.5766809483e-02 -1.5251500428e-01 -5.0098059407e-01
148 4.5317696688e-02 -1.5242478254e-01 -5.0219988081e-01
149 4.4868583547e-02 -1.5222541055e-01 -5.0338624802e-01
150 4.4397459681e-02 -1.5199223955e-01 -5.0458157856e-01
151 4.3955000956e-02 -1.5170145193e-01 -5.0572103713e-01
152 4.3478975778e-02 -1.5134454720e-01 -5.0689345886e-01
153 4.3015571166e-02 -1.5097821263e-01 -5.0805600012e-01
154 4.2502376672e-02 -1.5056209352e-01 -5.0923408766e-01
155 4.1976324064e-02 -1.5015131309e-01 -5.1044664539e-01
156 4.1613747653e-02 -1.4983950729e-01 -5.1157457925e-01
157 4.1223405831e-02 -1.4951770249e-01 -5.1270324256e-01
158 4.0979796118e-02 -1.4927779375e-01 -5.1374205446e-01
159 4.0720738162e-02 -1.4901887834e-01 -5.1478544583e-01
160 4.0429463614e-02 -1.4876537787e-01 -5.1583388792e-01
161 4.0148642219e-02 -1.4844180630e-01 -5.1687949819e-01
162 3.9848668481e-02 -1.4810002826e-01 -5.1792615584e-01
163 3.9586694259e-02 -1.4764760907e-01 -5.1895706843e-01
164 3.9286219981e-02 -1.4720263461e-01 -5.1999123907e-01
165 3.9053303132e-02 -1.4661830047e-01 -5.2099333422e-01
166 3.8796122714e-02 -1.4602072703e-01 -5.2199465285e-01
167 3.8620598324e-02 -1.4529068422e-01 -5.2292539111e-01
168 3.8427465101e-02 -1.4454131334e-01 -5.2385080736e-01
169 3.8263654525e-02 -1.4372557900e-01 -5.2473540423e-01
170 3.8087906902e-02 -1.4288795067e-01 -5.2560633097e-01
171 3.7928523082e-02 -1.4200293046e-01 -5.2643915212e-01
172 3.7786775842e-02 -1.4107304435e-01 -5.2723057711e-01
173 3.7630905709e-02 -1.4013113208e-01 -5.2800814288e-01
174 3.7491431439e-02 -1.3915041017e-01 -5.2873999471e-01
175 3.7342546932e-02 -1.3816042246e-01 -5.2945275006e-01
176 3.7203983856e-02 -1.3714438908e-01 -5.3012388551e-01
177 3.7060730802e-02 -1.3612159630e-01 -5.3077322948e-01
178 3.6943929830e-02 -1.3506469538e-01 -5.3135666591e-01
179 3.6831888226e-02 -1.3399670762e-01 -5.3190419890e-01
180 3.6731422549e-02 -1.3291244635e-01 -5.3240637250e-01
181 3.6653814851e-02 -1.3180640411e-01 -5.3283941368e-01
182 3.6603943469e-02 -1.3067363221e-01 -5.3318764543e-01
183 3.6553037310e-02 -1.2953807330e-01 -5.3351157459e-01
184 3.6537954008e-02 -1.2837170772e-01 -5.3370926738e-01
185 3.6520449220e-02 -1.2720844116e-01 -5.3388554373e-01
186 3.6516739114e-02 -1.2603650830e-01 -5.3397769505e-01
187 3.6507878933e-02 -1.2486867831e-01 -5.3405205140e-01
188 3.6502610190e-02 -1.2370224541e-01 -5.3405396153e-01
189 3.6487215156e-02 -1.2254312908e-01 -5.3404771166e-01
190 3.6464744466e-02 -1.2139200869e-01 -5.3400153750e-01
191 3.6427490595e-02 -1.2025023732e-01 -5.3396097882e-01
192 3.6376076779e-02 -1.1912118934e-01 -5.3389502839e-01
193 3.6305718534e-02 -1.1800563863e-01 -5.3383166872e-01
194 3.6213796059e-02 -1.1690613657e-01 -5.3376563484e-01
195 3.6096825144e-02 -1.1582499743e-01 -5.3369795450e-01
196 3.5951075293e-02 -1.1476534618e-01 -5.3361783132e-01
197 3.5555201456e-02 -1.1271856922e-01 -5.3342475077e-01
198 3.5294934427e-02 -1.1173481650e-01 -5.3331345398e-01
199 3.4989084529e-02 -1.1078319240e-01 -5.3314678961e-01
200 3.4630460618e-02 -1.0985637394e-01 -5.3297453733e-01
201 3.4217569358e-02 -1.0895937957e-01 -5.3274105774e-01
202 3.3751448408e-02 -1.0808958561e-01 -5.3244795391e-01
203 3.3227178245e-02 -1.0722788069e-01 -5.3212741258e-01
204 3.2660558089e-02 -1.0639712674e-01 -5.3167397988e-01
205 9.5604604342e-02 -1.4551704773e-01 -5.0970989434e-01
206 9.6118816175e-02 -1.4489085830e-01 -5.0964688908e-01
207 9.6744377718e-02 -1.4405964139e-01 -5.0969200610e-01
208 9.7433024695e-02 -1.4312010891e-01 -5.0989735922e-01
209 9.8185974676e-02 -1.4206347265e-01 -5.1022026249e-01
210 9.8871994047e-02 -1.4111840773e-01 -5.1076633053e-01
211 9.9409901220e-02 -1.4021388601e-01 -5.1149651707e-01
212 9.9959581754e-02 -1.3922788034e-01 -5.1234526859e-01
213 1.0028602528e-01 -1.3840965512e-01 -5.1343812390e-01
214 1.0049877111e-01 -1.3759427165e-01 -5.1465031072e-01
215 1.0054272053e-01 -1.3675407341e-01 -5.1593544644e-01
216 1.0045037760e-01 -1.3588503799e-01 -5.1727585817e-01
217 1.0022580316e-01 -1.3497932314e-01 -5.1865933595e-01
218 9.9883565914e-02 -1.3401148976e-01 -5.2005846100e-01
219 9.9457658149e-02 -1.3297336023e-01 -5.2146632033e-01
220 9.8918835857e-02 -1.3185029597e-01 -5.2284372199e-01
221 9.8343925226e-02 -1.3064882934e-01 -5.2423003191e-01
222 9.7652932785e-02 -1.2936030155e-01 -5.2557165348e-01
223 9.6883412970e-02 -1.2797851753e-01 -5.2687227382e-01
224 9.6023295407e-02 -1.2651547345e-01 -5.2812099877e-01
225 9.5029865285e-02 -1.2495745100e-01 -5.2926293239e-01
226 9.3876028674e-02 -1.2332659830e-01 -5.3027423397e-01
227 9.2539776627e-02 -1.2167399097e-01 -5.3104596160e-01
228 9.1026725966e-02 -1.2005843994e-01 -5.3159050037e-01
229 8.9407413907e-02 -1.1849137719e-01 -5.3193418964e-01
230 8.7711658687e-02 -1.1700295639e-01 -5.3206181891e-01
231 8.5955566122e-02 -1.1564205535e-01 -5.3196234497e-01
232 8.4186726760e-02 -1.1437393575e-01 -5.3172268028e-01
233 8.2442107022e-02 -1.1315324600e-01 -5.3141232247e-01
234 8.0723340974e-02 -1.1198615547e-01 -5.3103110417e-01
235 7.9052915011e-02 -1.1082644659e-01 -5.3064440552e-01
236 7.7420884274e-02 -1.0969533588e-01 -5.3022975730e-01
237 7.5836685297e-02 -1.0856758904e-01 -5.2982284390e-01
238 7.4287255377e-02 -1.0747088125e-01 -5.2939331484e-01
239 7.2779924755e-02 -1.0638258028e-01 -5.2897109680e-01
240 7.1298898323e-02 -1.0533397254e-01 -5.2852125150e-01
241 6.9845029167e-02 -1.0432353260e-01 -5.2805392610e-01
242 6.8421149385e-02 -1.0333778341e-01 -5.2758234824e-01
243 6.7015829660e-02 -1.0240261492e-01 -5.2708222200e-01
244 6.5629312110e-02 -1.0152538040e-01 -5.2654911163e-01
245 6.4263837140e-02 -1.0069203756e-01 -5.2600313042e-01
246 6.2922736089e-02 -9.9889886688e-02 -5.2545228894e-01
247 6.1595107655e-02 -9.9151913040e-02 -5.2487100870e-01
248 6.0287110986e-02 -9.8461427656e-02 -5.2427591245e-01
249 5.8999703003e-02 -9.7805861407e-02 -5.2367671809e-01
250 5.7728993444e-02 -9.7217718720e-02 -5.2305221847e-01
251 5.6479458838e-02 -9.6640116052e-02 -5.2244038125e-01
252 5.4030731551e-02 -9.5560874633e-02 -5.2121861434e-01
253 5.2827238761e-02 -9.5068013473e-02 -5.2060251484e-01
254 5.1635879418e-02 -9.4609802475e-02 -5.1997739883e-01
255 5.0455901655e-02 -9.4180378616e-02 -5.1934738940e-01
256 4.9286303576e-02 -9.3811583075e-02 -5.1869151748e-01
257 4.8127582965e-02 -9.3473865222e-02 -5.1802658931e-01
258 4.6982120466e-02 -9.3199997378e-02 -5.1733652442e-01
259 4.5849498307e-02 -9.2971654053e-02 -5.1662674332e-01
260 9.5253153084e-02 -1.4603792960e-01 -5.1034219265e-01
261 9.4638160925e-02 -1.4680657028e-01 -5.1111225219e-01
262 9.3763015781e-02 -1.4776231290e-01 -5.1196081119e-01
263 9.2295164716e-02 -1.4915052374e-01 -5.1272324734e-01
264 8.9731308193e-02 -1.5143868615e-01 -5.1305771896e-01
265 8.6823653841e-02 -1.5382340145e-01 -5.1323769807e-01
266 8.3771387729e-02 -1.5615257078e-01 -5.1328131903e-01
267 8.0620988216e-02 -1.5830777869e-01 -5.1318117790e-01
268 7.7317148904e-02 -1.6013009329e-01 -5.1292357698e-01
269 7.3837255940e-02 -1.6134178054e-01 -5.1255334775e-01
270 7.0318603305e-02 -1.6177929922e-01 -5.1215965927e-01
271 6.6983304683e-02 -1.6164326274e-01 -5.1171723440e-01
272 6.3887991236e-02 -1.6111568960e-01 -5.1123059568e-01
273 6.1081410003e-02 -1.6028839682e-01 -5.1068167255e-01
274 5.8593038676e-02 -1.5924348579e-01 -5.1011916534e-01
275 5.6368093210e-02 -1.5809927789e-01 -5.0954007633e-01
276 5.4334211187e-02 -1.5701381660e-01 -5.0888916962e-01
277 5.2454017490e-02 -1.5596983222e-01 -5.0817976633e-01
278 5.0693749046e-02 -1.5500518653e-01 -5.0748269590e-01
279 4.9017995358e-02 -1.5413052977e-01 -5.0677910833e-01
280 4.7433642172e-02 -1.5332099994e-01 -5.0603399932e-01
281 4.5893317452e-02 -1.5260766621e-01 -5.0528892613e-01
282 4.2958395891e-02 -1.5145144795e-01 -5.0384421684e-01
283 4.1535492815e-02 -1.5095030849e-01 -5.0311541371e-01
284 4.0145877135e-02 -1.5050903847e-01 -5.0239783698e-01
285 3.8797303582e-02 -1.5011986425e-01 -5.0165737135e-01
286 3.7472427040e-02 -1.4974025009e-01 -5.0093844789e-01
287 3.6250832352e-02 -1.4939535285e-01 -5.0028760896e-01
288 3.5186178483e-02 -1.4911366770e-01 -4.9975842816e-01
289 3.3588498831e-02 -1.4867551625e-01 -5.0030153990e-01
290 9.5014062596e-02 -1.4600591223e-01 -5.0859300825e-01
291 9.4165708152e-02 -1.4648751857e-01 -5.0716790220e-01
292 9.2839995657e-02 -1.4714891588e-01 -5.0524902998e-01
293 9.1488869553e-02 -1.4757959566e-01 -5.0337157576e-01
294 9.0124651319e-02 -1.4779277137e-01 -5.0156262982e-01
295 8.8743861682e-02 -1.4780725480e-01 -4.9985704017e-01
296 8.7383503897e-02 -1.4766705826e-01 -4.9823698950e-01
297 8.6053358637e-02 -1.4741022015e-01 -4.9669779444e-01
298 8.4761820957e-02 -1.4705433127e-01 -4.9524401721e-01
299 8.3514221678e-02 -1.4664268373e-01 -4.9387337081e-01
300 8.2299655552e-02 -1.4619658338e-01 -4.9257128375e-01
301 8.1115689851e-02 -1.4572215584e-01 -4.9132125447e-01
302 7.9963981471e-02 -1.4522371980e-01 -4.9011821445e-01
303 7.8852787338e-02 -1.4473068159e-01 -4.8896968145e-01
304 7.7755680309e-02 -1.4425644472e-01 -4.8784441029e-01
305 7.6685559509e-02 -1.4377565117e-01 -4.8674185169e-01
306 7.5631257730e-02 -1.4331826713e-01 -4.8569238465e-01
307 7.4562837493e-02 -1.4286428661e-01 -4.8465048068e-01
308 7.3524189725e-02 -1.4242036702e-01 -4.8367253578e-01
309 7.2486757399e-02 -1.4197076208e-01 -4.8271877728e-01
310 7.1424533019e-02 -1.4152880914e-01 -4.8180668669e-01
311 7.0362016216e-02 -1.4107078928e-01 -4.8092267266e-01
312 6.9306563932e-02 -1.4065920673e-01 -4.8009102924e-01
313 6.8260224013e-02 -1.4022257534e-01 -4.7927951183e-01
314 6.7169063531e-02 -1.3978782941e-01 -4.7850050766e-01
315 6.6095072555e-02 -1.3936514121e-01 -4.7776823190e-01
316 6.5026706748e-02 -1.3893391835e-01 -4.7706156591e-01
317 6.3945197416e-02 -1.3850849373e-01 -4.7637625737e-01
318 6.1742656443e-02 -1.3760610077e-01 -4.7520877229e-01
319 6.0642356878e-02 -1.3711147816e-01 -4.7467700284e-01
320 5.9593600826e-02 -1.3663057498e-01 -4.7418837240e-01
321 5.8420135593e-02 -1.3613403768e-01 -4.7376004264e-01
322 5.7270150523e-02 -1.3564639164e-01 -4.7335342397e-01
323 5.6020420074e-02 -1.3510994722e-01 -4.7297291848e-01
324 5.5021859210e-02 -1.3471224933e-01 -4.7270678848e-01
325 5.4022057684e-02 -1.3430192700e-01 -4.7248186746e-01
326 3.0417744230e-02 -1.1162143434e-01 -5.3277326723e-01
327 3.0177780600e-02 -1.1151559648e-01 -5.3268928670e-01
328 3.0396849335e-02 -1.1207011087e-01 -5.3285862493e-01
329 3.0231767384e-02 -1.1280046724e-01 -5.3296557017e-01
330 3.0001744449e-02 -1.1366843746e-01 -5.3302726578e-01
331 2.9735410820e-02 -1.1459027316e-01 -5.3308569733e-01
332 2.9452173659e-02 -1.1553867267e-01 -5.3312702408e-01
333 2.9173892054e-02 -1.1648547813e-01 -5.3313194517e-01
334 2.8623452959e-02 -1.1841493121e-01 -5.3308391812e-01
335 2.8344778173e-02 -1.1942585877e-01 -5.3303422571e-01
336 2.8081655658e-02 -1.2044571134e-01 -5.3292145371e-01
337 2.7824841856e-02 -1.2147405428e-01 -5.3280682878e-01
338 2.7587477419e-02 -1.2251030646e-01 -5.3261901092e-01
339 2.7363540007e-02 -1.2355314845e-01 -5.3241267311e-01
340 2.7169854090e-02 -1.2458948232e-01 -5.3213453117e-01
341 2.7007323012e-02 -1.2561037368e-01 -5.3180007854e-01
342 2.6871976515e-02 -1.2661395485e-01 -5.3142165733e-01
343 2.6784901386e-02 -1.2757430345e-01 -5.3096291165e-01
344 2.6719132965e-02 -1.2851711223e-01 -5.3048017361e-01
345 2.6689427868e-02 -1.2942331259e-01 -5.2993694240e-01
346 2.6685144400e-02 -1.3030750150e-01 -5.2936401195e-01
347 2.6712321117e-02 -1.3115748400e-01 -5.2874514295e-01
348 2.6759250217e-02 -1.3198886513e-01 -5.2810370867e-01
349 2.6827306955e-02 -1.3279673772e-01 -5.2743460075e-01
350 2.6920730197e-02 -1.3357434521e-01 -5.2673501148e-01
351 2.7021480450e-02 -1.3434829264e-01 -5.2602692513e-01
352 2.7154743867e-02 -1.3508753741e-01 -5.2527505769e-01
353 2.7289749455e-02 -1.3583343177e-01 -5.2451786631e-01
354 2.7440523343e-02 -1.3656133074e-01 -5.2373928533e-01
355 2.7603117329e-02 -1.3727968440e-01 -5.2294422816e-01
356 2.7785161034e-02 -1.3798718954e-01 -5.2211661298e-01
357 2.7974977082e-02 -1.3869664739e-01 -5.2127122550e-01
358 2.8191054207e-02 -1.3938609104e-01 -5.2038444850e-01
359 2.8415155609e-02 -1.4007621100e-01 -5.1947878911e-01
360 2.8671215501e-02 -1.4073443116e-01 -5.1852721958e-01
361 2.8936245589e-02 -1.4138467897e-01 -5.1755847322e-01
362 2.9241012539e-02 -1.4197877182e-01 -5.1655551953e-01
363 2.9542968334e-02 -1.4255746913e-01 -5.1555830958e-01
364 2.9853540226e-02 -1.4305804080e-01 -5.1459819807e-01
365 3.0152224961e-02 -1.4352069995e-01 -5.1367850152e-01
366 3.0442517185e-02 -1.4392111164e-01 -5.1281381560e-01
367 3.0720784988e-02 -1.4429540995e-01 -5.1198079347e-01
368 3.0999055731e-02 -1.4465506432e-01 -5.1114710913e-01
369 3.1283922588e-02 -1.4499345719e-01 -5.1030182781e-01
370 3.1566053213e-02 -1.4534125169e-01 -5.0943495698e-01
371 3.1846340115e-02 -1.4568851630e-01 -5.0854682852e-01
372 3.2120277641e-02 -1.4604046434e-01 -5.0763400304e-01
373 3.2378803274e-02 -1.4641639393e-01 -5.0669090659e-01
374 3.2698595957e-02 -1.4682069171e-01 -5.0578061792e-01
375 3.2985258871e-02 -1.4724141844e-01 -5.0482415723e-01
376 3.3384995491e-02 -1.4770595905e-01 -5.0387379539e-01
377 3.3790657902e-02 -1.4815713181e-01 -5.0291901801e-01
378 3.4217443051e-02 -1.4854391239e-01 -5.0187894692e-01
379 3.4657544734e-02 -1.4888665560e-01 -5.0082888009e-01
380 3.5751354154e-02 -1.4918741019e-01 -4.9868419912e-01
381 3.6253633629e-02 -1.4920894469e-01 -4.9765326634e-01
382 3.6770651740e-02 -1.4915815590e-01 -4.9660939333e-01
383 3.7354749949e-02 -1.4897247393e-01 -4.9563608271e-01
384 3.7933073363e-02 -1.4880198185e-01 -4.9465620959e-01
385 3.8424766435e-02 -1.4865187480e-01 -4.9376793299e-01
386 3.8914787773e-02 -1.4850516128e-01 -4.9287806976e-01
387 3.9512989334e-02 -1.4837256513e-01 -4.9193049771e-01
388 4.0115753812e-02 -1.4823666987e-01 -4.9098712416e-01
389 4.0739050259e-02 -1.4809770382e-01 -4.9004043334e-01
390 4.1366829976e-02 -1.4794770894e-01 -4.8909880920e-01
391 4.1992165770e-02 -1.4772369349e-01 -4.8804762574e-01
392 4.2626465946e-02 -1.4746607804e-01 -4.8701137167e-01
393 4.3208452335e-02 -1.4721800765e-01 -4.8611668117e-01
394 4.3799076051e-02 -1.4693497136e-01 -4.8524033491e-01
395 4.4454792129e-02 -1.4660776035e-01 -4.8433326395e-01
396 4.5118650684e-02 -1.4623896538e-01 -4.8345018856e-01
397 4.5794815145e-02 -1.4577819218e-01 -4.8249756296e-01
398 4.6474253577e-02 -1.4529059165e-01 -4.8156261469e-01
399 4.7125571600e-02 -1.4476862007e-01 -4.8068399711e-01
400 4.7777286625e-02 -1.4423205133e-01 -4.7981701680e-01
401 4.8445203532e-02 -1.4366119723e-01 -4.7900065599e-01
402 4.9112552971e-02 -1.4307797887e-01 -4.7819598657e-01
403 4.9758395877e-02 -1.4241236049e-01 -4.7740386556e-01
404 5.0403910176e-02 -1.4173035157e-01 -4.7663115209e-01
405 5.0963063786e-02 -1.4103687020e-01 -4.7596696691e-01
406 5.1520938509e-02 -1.4032120477e-01 -4.7532881602e-01
407 5.2085527634e-02 -1.3955829823e-01 -4.7475699854e-01
408 5.2646027423e-02 -1.3873668016e-01 -4.7425187138e-01
409 5.3046665739e-02 -1.3798970314e-01 -4.7386615130e-01
410 5.3446216440e-02 -1.3723047340e-01 -4.7350082758e-01
411 5.3982297733e-02 -1.3644004149e-01 -4.7319294086e-01
412 5.4513984486e-02 -1.3562425736e-01 -4.7295197633e-01
413 5.5522707909e-02 -1.3377962135e-01 -4.7251396317e-01
414 5.5986456915e-02 -1.3278698160e-01 -4.7234172300e-01
415 5.6470667723e-02 -1.3183621140e-01 -4.7221677291e-01
416 5.6908882454e-02 -1.3089985299e-01 -4.7209391861e-01
417 5.7341263348e-02 -1.3000859364e-01 -4.7201624405e-01
418 5.7750393355e-02 -1.2917386611e-01 -4.7194537301e-01
419 5.8100119525e-02 -1.2833033592e-01 -4.7187758524e-01
420 5.8505770660e-02 -1.2741628603e-01 -4.7181296236e-01
421 5.8869459374e-02 -1.2647401144e-01 -4.7175768795e-01
422 5.9276383696e-02 -1.2550897834e-01 -4.7170677646e-01
423 5.9668036703e-02 -1.2451500733e-01 -4.7167220781e-01
424 6.0080783150e-02 -1.2352274131e-01 -4.7164707980e-01
425 6.0479015499e-02 -1.2247457082e-01 -4.7163770248e-01
426 6.0885279132e-02 -1.2142985561e-01 -4.7165135452e-01
427 6.1249618551e-02 -1.2033710710e-01 -4.7169223754e-01
428 6.1648795429e-02 -1.1919143804e-01 -4.7175682086e-01
429 6.1986938351e-02 -1.1803988004e-01 -4.7187402365e-01
430 6.2352193536e-02 -1.1688624247e-01 -4.7200556556e-01
431 6.2652639603e-02 -1.1574015112e-01 -4.7219531752e-01
432 6.2978421276e-02 -1.1462431216e-01 -4.7239572777e-01
433 6.3234970664e-02 -1.1350211851e-01 -4.7264596556e-01
434 6.3502397457e-02 -1.1242844888e-01 -4.7290443816e-01
435 6.3717642715e-02 -1.1134237432e-01 -4.7320555706e-01
436 6.3936345004e-02 -1.1029614721e-01 -4.7351554880e-01
437 6.4116585169e-02 -1.0923613224e-01 -4.7386075655e-01
438 6.4293049182e-02 -1.0820611774e-01 -4.7421865914e-01
439 6.4440187505e-02 -1.0717309540e-01 -4.7461484491e-01
440 6.4561408365e-02 -1.0619226324e-01 -4.7502804491e-01
441 6.4691260298e-02 -1.0521385269e-01 -4.7545235942e-01
442 6.4752983820e-02 -1.0425820578e-01 -4.7589184724e-01
443 6.4849903442e-02 -1.0335152386e-01 -4.7634164055e-01
444 6.4881494920e-02 -1.0249903197e-01 -4.7682751787e-01
445 6.4915932421e-02 -1.0164098357e-01 -4.7734686413e-01
446 6.4887620411e-02 -1.0078039604e-01 -4.7789233946e-01
447 6.4877423828e-02 -9.9989518121e-02 -4.7844912543e-01
448 6.4791811296e-02 -9.9178557134e-02 -4.7906223317e-01
449 6.4717250440e-02 -9.8360464922e-02 -4.7975073241e-01
450 6.4591737012e-02 -9.7616208586e-02 -4.8046708057e-01
451 6.4449687735e-02 -9.6917229215e-02 -4.8119060899e-01
452 6.4214666910e-02 -9.6207275437e-02 -4.8201308017e-01
453 6.3974104264e-02 -9.5573143341e-02 -4.8284367928e-01
454 6.3698840947e-02 -9.4980450519e-02 -4.8378534257e-01
455 6.3379479576e-02 -9.4426350221e-02 -4.8473238261e-01
456 6.2996108889e-02 -9.3899031661e-02 -4.8571692380e-01
457 6.2616353763e-02 -9.3466342543e-02 -4.8670370488e-01
458 6.2231199680e-02 -9.3069276203e-02 -4.8776482132e-01
459 6.1315573284e-02 -9.2445893218e-02 -4.8984009019e-01
460 6.0839240611e-02 -9.2249411336e-02 -4.9089061292e-01
461 6.0372273472e-02 -9.2077852193e-02 -4.9196421730e-01
462 5.9859612016e-02 -9.1959848918e-02 -4.9300471796e-01
463 5.9395038388e-02 -9.1872694636e-02 -4.9397852972e-01
464 5.8915712741e-02 -9.1812613164e-02 -4.9496913269e-01
465 5.8440592767e-02 -9.1767263189e-02 -4.9596392519e-01
466 5.7985282914e-02 -9.1724275734e-02 -4.9693680302e-01
467 5.7506098246e-02 -9.1678993473e-02 -4.9791413937e-01
468 5.6999163151e-02 -9.1631385364e-02 -4.9893442508e-01
469 5.6496372152e-02 -9.1572940137e-02 -4.9998544693e-01
470 5.6017247908e-02 -9.1506647028e-02 -5.0103257504e-01
471 5.5521089540e-02 -9.1428137940e-02 -5.0205558551e-01
472 5.5021957757e-02 -9.1344908137e-02 -5.0309376176e-01
473 5.4542503843e-02 -9.1258896088e-02 -5.0411608122e-01
474 5.4055789080e-02 -9.1177540570e-02 -5.0513613881e-01
475 5.3551600792e-02 -9.1115632562e-02 -5.0617112029e-01
476 5.3033116730e-02 -9.1055255272e-02 -5.0721545838e-01
477 5.2488538639e-02 -9.1058025963e-02 -5.0828064014e-01
478 5.1929574252e-02 -9.1089195118e-02 -5.0934190094e-01
479 5.1371796957e-02 -9.1162762685e-02 -5.1036710091e-01
480 5.0811477927e-02 -9.1277316526e-02 -5.1136666673e-01
481 5.0247259722e-02 -9.1461766910e-02 -5.1233089923e-01
482 4.9680454530e-02 -9.1655278677e-02 -5.1326963923e-01
483 4.9129805901e-02 -9.1923432741e-02 -5.1414760220e-01
484 4.8584637727e-02 -9.2204469272e-02 -5.1499273584e-01
485 4.8047362986e-02 -9.2516601692e-02 -5.1579853832e-01
486 4.7512684748e-02 -9.2832866511e-02 -5.1658690698e-01
487 4.6445788362e-02 -9.3573918368e-02 -5.1808309198e-01
488 4.5895950956e-02 -9.3978379702e-02 -5.1883178894e-01
489 4.5329698942e-02 -9.4403700218e-02 -5.1959150967e-01
490 4.4733988465e-02 -9.4841894774e-02 -5.2038669812e-01
491 4.4123400362e-02 -9.5323817249e-02 -5.2118155300e-01
492 4.3496586463e-02 -9.5819037358e-02 -5.2199000690e-01
493 4.2865428295e-02 -9.6319213811e-02 -5.2279848174e-01
494 4.2237969237e-02 -9.6833203817e-02 -5.2358814048e-01
495 4.1612542157e-02 -9.7344383700e-02 -5.2437092214e-01
496 4.0991697543e-02 -9.7853165334e-02 -5.2514059742e-01
497 4.0360442524e-02 -9.8415783317e-02 -5.2589384921e-01
498 3.9701032518e-02 -9.9015409982e-02 -5.2666489277e-01
499 3.9033068878e-02 -9.9664056207e-02 -5.2741923204e-01
500 3.8357975978e-02 -1.0036169137e-01 -5.2814574694e-01
501 3.7687324453e-02 -1.0107564995e-01 -5.2883915114e-01
502 3.7039581914e-02 -1.0180513031e-01 -5.2948383364e-01
503 3.6410670166e-02 -1.0259353518e-01 -5.3001757341e-01
504 3.5810921647e-02 -1.0336390878e-01 -5.3051830829e-01
505 3.5244230519e-02 -1.0413654274e-01 -5.3095731282e-01
506 3.4719834438e-02 -1.0489405984e-01 -5.3130963226e-01
507 3.4209918047e-02 -1.0565170334e-01 -5.3163199276e-01
508 3.3711338105e-02 -1.0643350774e-01 -5.3189951987e-01
509 3.2749730432e-02 -1.0802637362e-01 -5.3231922103e-01
510 3.2287326579e-02 -1.0880849485e-01 -5.3247208484e-01
511 3.1847906420e-02 -1.0954967776e-01 -5.3260351190e-01
512 3.1438448415e-02 -1.1022978417e-01 -5.3269707142e-01
513 3.1077607009e-02 -1.1080684083e-01 -5.3274722783e-01
514 3.0727396602e-02 -1.1130133836e-01 -5.3278477508e-01
515 6.1323212073e-02 -1.4901289111e-01 -4.8755768200e-01
516 6.1357176380e-02 -1.4925433024e-01 -4.8791598096e-01
517 6.1415453752e-02 -1.4958777581e-01 -4.8842652333e-01
518 6.1461446448e-02 -1.4997965931e-01 -4.8905589826e-01
519 6.1530901733e-02 -1.5042479306e-01 -4.8978151574e-01
520 6.1604326973e-02 -1.5090570668e-01 -4.9058214639e-01
521 6.1651010683e-02 -1.5141137082e-01 -4.9146410820e-01
522 6.1711641278e-02 -1.5193765539e-01 -4.9240377399e-01
523 6.1774463023e-02 -1.5247319315e-01 -4.9341528514e-01
524 6.1822816367e-02 -1.5302265213e-01 -4.9448429862e-01
525 6.1873244328e-02 -1.5359210007e-01 -4.9562382148e-01
526 6.1922541999e-02 -1.5419126779e-01 -4.9686161924e-01
527 6.1953525367e-02 -1.5477095509e-01 -4.9812603417e-01
528 6.1971033107e-02 -1.5537320018e-01 -4.9948146488e-01
529 6.1990928953e-02 -1.5604068389e-01 -5.0093711800e-01
530 6.1969344910e-02 -1.5668712138e-01 -5.0240990733e-01
531 6.1911513440e-02 -1.5743199760e-01 -5.0399411677e-01
532 6.1787243581e-02 -1.5819294702e-01 -5.0564280216e-01
533 6.1646356743e-02 -1.5899136295e-01 -5.0740103513e-01
534 6.1398520676e-02 -1.5964417405e-01 -5.0900355255e-01
535 6.0710711655e-02 -1.6072004485e-01 -5.1218859874e-01
536 6.0264926721e-02 -1.6111118584e-01 -5.1368551039e-01
537 5.9743985735e-02 -1.6144976246e-01 -5.1524104959e-01
538 5.9127277084e-02 -1.6169943378e-01 -5.1685600216e-01
539 5.8417448849e-02 -1.6182744506e-01 -5.1859204876e-01
540 5.7890182661e-02 -1.6192624150e-01 -5.2033312940e-01
541 5.7294960526e-02 -1.6189326890e-01 -5.2212110144e-01
542 5.6960074312e-02 -1.6178981898e-01 -5.2394308748e-01
543 5.6658915051e-02 -1.6137031688e-01 -5.2580582875e-01
544 5.6389490682e-02 -1.6065451415e-01 -5.2762716802e-01
545 5.6174685332e-02 -1.5965318963e-01 -5.2933542446e-01
546 5.6002473308e-02 -1.5841814003e-01 -5.3089938931e-01
547 5.5845635578e-02 -1.5703039293e-01 -5.3231704415e-01
548 5.5692689984e-02 -1.5553444221e-01 -5.3359253818e-01
549 5.5531177575e-02 -1.5396504414e-01 -5.3474868970e-01
550 5.5346262843e-02 -1.5233945661e-01 -5.3579570272e-01
551 5.5125185057e-02 -1.5068407995e-01 -5.3676445697e-01
552 5.4870827937e-02 -1.4900743139e-01 -5.3766745536e-01
553 5.4601468586e-02 -1.4729631386e-01 -5.3846669184e-01
554 5.4311799254e-02 -1.4556281590e-01 -5.3918228010e-01
555 5.3988442654e-02 -1.4382615104e-01 -5.3984139468e-01
556 5.3637640643e-02 -1.4208106152e-01 -5.4043534433e-01
557 5.3269053744e-02 -1.4032026049e-01 -5.4095080718e-01
558 5.2888774945e-02 -1.3854376573e-01 -5.4137027763e-01
559 5.2505798718e-02 -1.3675580122e-01 -5.4166701029e-01
560 5.2158274923e-02 -1.3494812721e-01 -5.4177461130e-01
561 5.1879316848e-02 -1.3315401654e-01 -5.4163854130e-01
562 5.1634665152e-02 -1.3141268325e-01 -5.4132322749e-01
563 5.1440012206e-02 -1.2976931238e-01 -5.4079076555e-01
564 5.1263302286e-02 -1.2821054334e-01 -5.4013608202e-01
565 5.1070614525e-02 -1.2671706353e-01 -5.3943871912e-01
566 5.0854431249e-02 -1.2527755839e-01 -5.3872148981e-01
567 5.0609067673e-02 -1.2388122511e-01 -5.3800296277e-01
568 5.0319347674e-02 -1.2250761399e-01 -5.3732461792e-01
569 4.9997299955e-02 -1.2116463726e-01 -5.3666381573e-01
570 4.9621669354e-02 -1.1982588890e-01 -5.3609375077e-01
571 4.9208946679e-02 -1.1850448796e-01 -5.3557557563e-01
572 4.8754106846e-02 -1.1719404770e-01 -5.3513851726e-01
573 4.8272179413e-02 -1.1590678130e-01 -5.3474264084e-01
574 4.7758625541e-02 -1.1463642161e-01 -5.3441285525e-01
575 4.7226674371e-02 -1.1339603908e-01 -5.3408658897e-01
576 4.6673216596e-02 -1.1217823781e-01 -5.3379394539e-01
577 4.6102617872e-02 -1.1099286205e-01 -5.3348002074e-01
578 4.5511474948e-02 -1.0982889041e-01 -5.3318587148e-01
579 4.4901935858e-02 -1.0870067038e-01 -5.3284462827e-01
580 4.4270875441e-02 -1.0759737110e-01 -5.3250453797e-01
581 4.2941479500e-02 -1.0551124547e-01 -5.3169784210e-01
582 4.2239065442e-02 -1.0454038703e-01 -5.3121919369e-01
583 4.1511924462e-02 -1.0359114427e-01 -5.3072800175e-01
584 4.0758902381e-02 -1.0269694936e-01 -5.3017210647e-01
585 3.9980292095e-02 -1.0184908236e-01 -5.2956705196e-01
586 3.9182214169e-02 -1.0103463487e-01 -5.2893470350e-01
587 3.7528779352e-02 -9.9698068332e-02 -5.2734259976e-01
588 6.1714374652e-02 -1.4885895693e-01 -4.8737599469e-01
589 6.2276959351e-02 -1.4863742051e-01 -4.8711858435e-01
590 6.2918413284e-02 -1.4836771538e-01 -4.8683009720e-01
591 6.3651163999e-02 -1.4801512110e-01 -4.8649292134e-01
592 6.4441887649e-02 -1.4764169267e-01 -4.8613844371e-01
593 6.5252291439e-02 -1.4718678898e-01 -4.8577126850e-01
594 6.6110008687e-02 -1.4671335064e-01 -4.8540315347e-01
595 6.6990321371e-02 -1.4615945456e-01 -4.8502279150e-01
596 6.7878705082e-02 -1.4557822947e-01 -4.8463961639e-01
597 6.8777367705e-02 -1.4494036840e-01 -4.8424102404e-01
598 6.9703825084e-02 -1.4425225868e-01 -4.8385600735e-01
599 7.0624251978e-02 -1.4353857178e-01 -4.8347730621e-01
600 7.1547869228e-02 -1.4277122181e-01 -4.8309598891e-01
601 7.3392288646e-02 -1.4111760326e-01 -4.8235317725e-01
602 7.4337782374e-02 -1.4021817569e-01 -4.8200133528e-01
603 7.5256237864e-02 -1.3927851237e-01 -4.8166280251e-01
604 7.6146052338e-02 -1.3829019481e-01 -4.8134935011e-01
605 7.7079421743e-02 -1.3725905029e-01 -4.8106664738e-01
606 7.7968464334e-02 -1.3615074799e-01 -4.8081271931e-01
607 7.8843838675e-02 -1.3499447775e-01 -4.8058188248e-01
608 7.9689780041e-02 -1.3376543783e-01 -4.8037148229e-01
609 8.0495042926e-02 -1.3248928833e-01 -4.8020992055e-01
610 8.1286558899e-02 -1.3115487898e-01 -4.8010012195e-01
611 8.2000451103e-02 -1.2977050166e-01 -4.8006199094e-01
612 8.2690863061e-02 -1.2830714530e-01 -4.8008145960e-01
613 8.3293616325e-02 -1.2681780094e-01 -4.8015569726e-01
614 8.3802528306e-02 -1.2525749508e-01 -4.8034848075e-01
615 8.4236635716e-02 -1.2369461081e-01 -4.8061702430e-01
616 8.4590107830e-02 -1.2210322471e-01 -4.8096045092e-01
617 8.4839688978e-02 -1.2048701913e-01 -4.8139264225e-01
618 8.4969191254e-02 -1.1890473427e-01 -4.8188757154e-01
619 8.4970648058e-02 -1.1732001525e-01 -4.8247983786e-01
620 8.4868879604e-02 -1.1576770062e-01 -4.8313062780e-01
621 8.4672954116e-02 -1.1427752384e-01 -4.8385582065e-01
622 8.4344786003e-02 -1.1285447526e-01 -4.8463550159e-01
623 8.3914200128e-02 -1.1145406304e-01 -4.8542089401e-01
624 8.3455200920e-02 -1.1014819896e-01 -4.8620048426e-01
625 8.2925226001e-02 -1.0885469792e-01 -4.8697622891e-01
626 8.2354660907e-02 -1.0761741869e-01 -4.8775398745e-01
627 8.1723793671e-02 -1.0642805190e-01 -4.8848908568e-01
628 8.1074317170e-02 -1.0526528547e-01 -4.8922002225e-01
629 8.0398202559e-02 -1.0413963392e-01 -4.8992268573e-01
630 7.9709648344e-02 -1.0306339794e-01 -4.9060398036e-01
631 7.9018286535e-02 -1.0199626292e-01 -4.9126145840e-01
632 7.8291848902e-02 -1.0092614656e-01 -4.9192004529e-01
633 7.7541087182e-02 -9.9902495081e-02 -4.9251828488e-01
634 7.6794437190e-02 -9.8900079646e-02 -4.9311520035e-01
635 7.5998716697e-02 -9.7927622504e-02 -4.9367993059e-01
636 7.5200374489e-02 -9.7017580387e-02 -4.9421745781e-01
637 7.4334714287e-02 -9.6133358638e-02 -4.9473852050e-01
638 7.3467284404e-02 -9.5357686723e-02 -4.9522098560e-01
639 7.2520300178e-02 -9.4625705357e-02 -4.9568050013e-01
640 7.1563724381e-02 -9.3991730775e-02 -4.9610231328e-01
641 7.0583709914e-02 -9.3430687914e-02 -4.9650779412e-01
642 6.9561397289e-02 -9.2957931779e-02 -4.9688128099e-01
643 6.8545885332e-02 -9.2586396604e-02 -4.9721010583e-01
644 6.7508688373e-02 -9.2289212485e-02 -4.9749506614e-01
645 6.6465052177e-02 -9.2092570903e-02 -4.9771074443e-01
646 6.5431589146e-02 -9.1933904099e-02 -4.9791933961e-01
647 6.3394309233e-02 -9.1779606684e-02 -4.9818252652e-01
648 6.2405377063e-02 -9.1748518209e-02 -4.9821577837e-01
649 6.1416144574e-02 -9.1726629481e-02 -4.9822615739e-01
650 6.0440005569e-02 -9.1711379423e-02 -4.9822972526e-01
651 5.9472503744e-02 -9.1703293874e-02 -4.9816971015e-01
652 5.8467461080e-02 -9.1693279702e-02 -4.9806095096e-01
653 5.6520820215e-02 -9.1666310642e-02 -4.9774896517e-01
654 6.0899782015e-02 -1.4891525004e-01 -4.8737515186e-01
655 6.0301572791e-02 -1.4876274706e-01 -4.8710320704e-01
656 5.9597891438e-02 -1.4859218793e-01 -4.8679570026e-01
657 5.8798543296e-02 -1.4839993763e-01 -4.8645636032e-01
658 5.7982167979e-02 -1.4818241779e-01 -4.8606491325e-01
659 5.7112493927e-02 -1.4797104479e-01 -4.8567331067e-01
660 5.6234954726e-02 -1.4774696388e-01 -4.8526717697e-01
661 5.5331821769e-02 -1.4749042773e-01 -4.8482654526e-01
662 5.3474012480e-02 -1.4700963773e-01 -4.8394323870e-01
663 5.2524542733e-02 -1.4673465919e-01 -4.8349220907e-01
664 5.1582538789e-02 -1.4645645931e-01 -4.8304509987e-01
665 5.0482483059e-02 -1.4609067484e-01 -4.8247021899e-01
666 4.9384703230e-02 -1.4570076978e-01 -4.8190558504e-01
667 4.8153965839e-02 -1.4520342078e-01 -4.8123428954e-01
668 4.6102733775e-02 -1.4429868482e-01 -4.8015963648e-01
$EndNodes
$Elements
877
1 1 2 1 0 1 2
2 1 2 1 0 2 3
3 1 2 1 0 3 4
4 1 2 1 0 4 5
5 1 2 1 0 5 6
6 1 2 1 0 6 7
7 1 2 1 0 7 8
8 1 2 1 0 8 9
9 1 2 1 0 9 10
10 1 2 1 0 10 11
11 1 2 1 0 11 12
12 1 2 1 0 12 13
13 1 2 1 0 13 14
14 1 2 1 0 14 15
15 1 2 1 0 15 16
16 1 2 1 0 16 17
17 1 2 1 0 17 18
18 1 2 1 0 18 19
19 1 2 1 0 19 20
20 1 2 1 0 20 21
21 1 2 1 0 21 22
22 1 2 1 0 22 23
23 1 2 1 0 23 24
24 1 2 1 0 24 25
25 1 2 1 0 25 26
26 1 2 1 0 26 27
27 1 2 1 0 27 28
28 1 2 1 0 28 29
29 1 2 1 0 29 30
30 1 2 1 0 30 31
31 1 2 1 0 31 32
32 1 2 1 0 32 33
33 1 2 1 0 33 34
34 1 2 1 0 34 35
35 1 2 1 0 35 36
36 1 2 1 0 36 37
37 1 2 1 0 37 38
38 1 2 1 0 38 39
39 1 2 1 0 39 40
40 1 2 1 0 40 41
41 1 2 1 0 41 42
42 1 2 1 0 42 43
43 1 2 1 0 43 44
44 1 2 1 0 44 45
45 1 2 1 0 45 46
46 1 2 1 0 46 47
47 1 2 1 0 47 48
48 1 2 1 0 48 49
49 1 2 1 0 49 50
50 1 2 1 0 50 51
51 1 2 1 0 51 52
52 1 2 1 0 52 53
53 1 2 1 0 53 54
54 1 2 1 0 54 55
55 1 2 1 0 55 56
56 1 2 1 0 56 57
57 1 2 1 0 57 58
58 1 2 1 0 58 59
59 1 2 1 0 59 60
60 1 2 1 0 60 61
61 1 2 1 0 1 62
62 1 2 1 0 62 63
63 1 2 1 0 63 64
64 1 2 1 0 64 65
65 1 2 1 0 65 66
66 1 2 1 0 66 67
67 1 2 1 0 67 68
68 1 2 1 0 68 69
69 1 2 1 0 1 70
70 1 2 1 0 70 71
71 1 2 1 0 71 72
72 1 2 1 0 72 73
73 1 2 1 0 73 74
74 1 2 1 0 74 75
75 1 2 1 0 75 76
76 1 2 1 0 76 77
77 1 2 1 0 77 78
78 1 2 1 0 78 79
79 1 2 1 0 79 80
80 1 2 1 0 80 81
81 1 2 1 0 81 82
82 1 2 1 0 82 83
83 1 2 1 0 83 84
84 1 2 1 0 84 85
85 1 2 1 0 85 86
86 1 2 1 0 86 87
87 1 2 1 0 87 88
88 1 2 1 0 88 89
89 1 2 1 0 89 90
90 1 2 1 0 90 91
91 1 2 1 0 91 92
92 1 2 1 0 92 93
93 1 2 1 0 93 94
94 1 2 1 0 94 95
95 1 2 1 0 95 96
96 1 2 1 0 96 97
97 1 2 1 0 97 98
98 1 2 1 0 98 99
99 1 2 1 0 99 100
100 1 2 1 0 100 101
101 1 2 1 0 101 102
102 1 2 1 0 102 103
103 1 2 1 0 103 104
104 1 2 1 0 104 105
105 1 2 1 0 105 106
106 1 2 1 0 106 107
107 1 2 1 0 107 108
108 1 2 1 0 108 109
109 1 2 1 0 109 110
110 1 2 1 0 110 111
111 1 2 1 0 111 112
112 1 2 1 0 112 113
113 1 2 1 0 113 114
114 1 2 1 0 114 115
115 1 2 1 0 115 116
116 1 2 1 0 116 117
117 1 2 1 0 117 118
118 1 2 1 0 118 119
119 1 2 1 0 119 120
120 1 2 1 0 120 121
121 1 2 1 0 121 122
122 1 2 1 0 122 123
123 1 2 1 0 123 124
124 1 2 1 0 124 125
125 1 2 1 0 125 126
126 1 2 1 0 126 127
127 1 2 1 0 127 128
128 1 2 1 0 128 129
129 1 2 1 0 129 130
130 1 2 1 0 130 131
131 1 2 1 0 131 132
132 1 2 1 0 132 133
133 1 2 1 0 133 134
134 1 2 1 0 134 135
135 1 2 1 0 135 136
136 1 2 1 0 136 137
137 1 2 1 0 137 138
138 1 2 1 0 138 139
139 1 2 1 0 139 140
140 1 2 1 0 140 141
141 1 2 1 0 141 142
142 1 2 1 0 142 143
143 1 2 1 0 143 144
144 1 2 1 0 144 145
145 1 2 1 0 145 146
146 1 2 1 0 146 147
147 1 2 1 0 147 148
148 1 2 1 0 148 149
149 1 2 1 0 149 150
150 1 2 1 0 150 151
151 1 2 1 0 151 152
152 1 2 1 0 152 153
153 1 2 1 0 153 154
154 1 2 1 0 154 155
155 1 2 1 0 155 156
156 1 2 1 0 156 157
157 1 2 1 0 157 158
158 1 2 1 0 158 159
159 1 2 1 0 159 160
160 1 2 1 0 160 161
161 1 2 1 0 161 162
162 1 2 1 0 162 163
163 1 2 1 0 163 164
164 1 2 1 0 164 165
165 1 2 1 0 165 166
166 1 2 1 0 166 167
167 1 2 1 0 167 168
168 1 2 1 0 168 169
169 1 2 1 0 169 170
170 1 2 1 0 170 171
171 1 2 1 0 171 172
172 1 2 1 0 172 173
173 1 2 1 0 173 174
174 1 2 1 0 174 175
175 1 2 1 0 175 176
176 1 2 1 0 176 177
177 1 2 1 0 177 178
178 1 2 1 0 178 179
179 1 2 1 0 179 180
180 1 2 1 0 180 181
181 1 2 1 0 181 182
182 1 2 1 0 182 183
183 1 2 1 0 183 184
184 1 2 1 0 184 185
185 1 2 1 0 185 186
186 1 2 1 0 186 187
187 1 2 1 0 187 188
188 1 2 1 0 188 189
189 1 2 1 0 189 190
190 1 2 1 0 190 191
191 1 2 1 0 191 192
192 1 2 1 0 192 193
193 1 2 1 0 193 194
194 1 2 1 0 194 195
195 1 2 1 0 195 196
196 1 2 1 0 196 53
197 1 2 1 0 53 197
198 1 2 1 0 197 198
199 1 2 1 0 198 199
200 1 2 1 0 199 200
201 1 2 1 0 200 201
202 1 2 1 0 201 202
203 1 2 1 0 202 203
204 1 2 1 0 203 204
205 1 2 1 0 205 206
206 1 2 1 0 206 207
207 1 2 1 0 207 208
208 1 2 1 0 208 209
209 1 2 1 0 209 210
210 1 2 1 0 210 211
211 1 2 1 0 211 212
212 1 2 1 0 212 213
213 1 2 1 0 213 214
214 1 2 1 0 214 215
215 1 2 1 0 215 216
216 1 2 1 0 216 217
217 1 2 1 0 217 218
218 1 2 1 0 218 219
219 1 2 1 0 219 220
220 1 2 1 0 220 221
221 1 2 1 0 221 222
222 1 2 1 0 222 223
223 1 2 1 0 223 224
224 1 2 1 0 224 225
225 1 2 1 0 225 226
226 1 2 1 0 226 227
227 1 2 1 0 227 228
228 1 2 1 0 228 229
229 1 2 1 0 229 230
230 1 2 1 0 230 231
231 1 2 1 0 231 232
232 1 2 1 0 232 233
233 1 2 1 0 233 234
234 1 2 1 0 234 235
235 1 2 1 0 235 236
236 1 2 1 0 236 237
237 1 2 1 0 237 238
238 1 2 1 0 238 239
239 1 2 1 0 239 240
240 1 2 1 0 240 241
241 1 2 1 0 241 242
242 1 2 1 0 242 243
243 1 2 1 0 243 244
244 1 2 1 0 244 245
245 1 2 1 0 245 246
246 1 2 1 0 246 247
247 1 2 1 0 247 248
248 1 2 1 0 248 249
249 1 2 1 0 249 250
250 1 2 1 0 250 251
251 1 2 1 0 251 30
252 1 2 1 0 30 252
253 1 2 1 0 252 253
254 1 2 1 0 253 254
255 1 2 1 0 254 255
256 1 2 1 0 255 256
257 1 2 1 0 256 257
258 1 2 1 0 257 258
259 1 2 1 0 258 259
260 1 2 1 0 205 260
261 1 2 1 0 260 261
262 1 2 1 0 261 262
263 1 2 1 0 262 263
264 1 2 1 0 263 264
265 1 2 1 0 264 265
266 1 2 1 0 265 266
267 1 2 1 0 266 267
268 1 2 1 0 267 268
269 1 2 1 0 268 269
270 1 2 1 0 269 270
271 1 2 1 0 270 271
272 1 2 1 0 271 272
273 1 2 1 0 272 273
274 1 2 1 0 273 274
275 1 2 1 0 274 275
276 1 2 1 0 275 276
277 1 2 1 0 276 277
278 1 2 1 0 277 278
279 1 2 1 0 278 279
280 1 2 1 0 279 280
281 1 2 1 0 280 281
282 1 2 1 0 281 150
283 1 2 1 0 150 282
284 1 2 1 0 282 283
285 1 2 1 0 283 284
286 1 2 1 0 284 285
287 1 2 1 0 285 286
288 1 2 1 0 286 287
289 1 2 1 0 287 288
290 1 2 1 0 288 289
291 1 2 1 0 205 290
292 1 2 1 0 290 291
293 1 2 1 0 291 292
294 1 2 1 0 292 293
295 1 2 1 0 293 294
296 1 2 1 0 294 295
297 1 2 1 0 295 296
298 1 2 1 0 296 297
299 1 2 1 0 297 298
300 1 2 1 0 298 299
301 1 2 1 0 299 300
302 1 2 1 0 300 301
303 1 2 1 0 301 302
304 1 2 1 0 302 303
305 1 2 1 0 303 304
306 1 2 1 0 304 305
307 1 2 1 0 305 306
308 1 2 1 0 306 307
309 1 2 1 0 307 308
310 1 2 1 0 308 309
311 1 2 1 0 309 310
312 1 2 1 0 310 311
313 1 2 1 0 311 312
314 1 2 1 0 312 313
315 1 2 1 0 313 314
316 1 2 1 0 314 315
317 1 2 1 0 315 316
318 1 2 1 0 316 317
319 1 2 1 0 317 116
320 1 2 1 0 116 318
321 1 2 1 0 318 319
322 1 2 1 0 319 320
323 1 2 1 0 320 321
324 1 2 1 0 321 322
325 1 2 1 0 322 323
326 1 2 1 0 323 324
327 1 2 1 0 324 325
328 1 2 1 0 326 327
329 1 2 1 0 326 328
330 1 2 1 0 328 329
331 1 2 1 0 329 330
332 1 2 1 0 330 331
333 1 2 1 0 331 332
334 1 2 1 0 332 333
335 1 2 1 0 333 60
336 1 2 1 0 60 334
337 1 2 1 0 334 335
338 1 2 1 0 335 336
339 1 2 1 0 336 337
340 1 2 1 0 337 338
341 1 2 1 0 338 339
342 1 2 1 0 339 340
343 1 2 1 0 340 341
344 1 2 1 0 341 342
345 1 2 1 0 342 343
346 1 2 1 0 343 344
347 1 2 1 0 344 345
348 1 2 1 0 345 346
349 1 2 1 0 346 347
350 1 2 1 0 347 348
351 1 2 1 0 348 349
352 1 2 1 0 349 350
353 1 2 1 0 350 351
354 1 2 1 0 351 352
355 1 2 1 0 352 353
356 1 2 1 0 353 354
357 1 2 1 0 354 355
358 1 2 1 0 355 356
359 1 2 1 0 356 357
360 1 2 1 0 357 358
361 1 2 1 0 358 359
362 1 2 1 0 359 360
363 1 2 1 0 360 361
364 1 2 1 0 361 362
365 1 2 1 0 362 363
366 1 2 1 0 363 364
367 1 2 1 0 364 365
368 1 2 1 0 365 366
369 1 2 1 0 366 367
370 1 2 1 0 367 368
371 1 2 1 0 368 369
372 1 2 1 0 369 370
373 1 2 1 0 370 371
374 1 2 1 0 371 372
375 1 2 1 0 372 373
376 1 2 1 0 373 374
377 1 2 1 0 374 375
378 1 2 1 0 375 376
379 1 2 1 0 376 377
380 1 2 1 0 377 378
381 1 2 1 0 378 379
382 1 2 1 0 379 288
383 1 2 1 0 288 380
384 1 2 1 0 380 381
385 1 2 1 0 381 382
386 1 2 1 0 382 383
387 1 2 1 0 383 384
388 1 2 1 0 384 385
389 1 2 1 0 385 386
390 1 2 1 0 386 387
391 1 2 1 0 387 388
392 1 2 1 0 388 389
393 1 2 1 0 389 390
394 1 2 1 0 390 391
395 1 2 1 0 391 392
396 1 2 1 0 392 393
397 1 2 1 0 393 394
398 1 2 1 0 394 395
399 1 2 1 0 395 396
400 1 2 1 0 396 397
401 1 2 1 0 397 398
402 1 2 1 0 398 399
403 1 2 1 0 399 400
404 1 2 1 0 400 401
405 1 2 1 0 401 402
406 1 2 1 0 402 403
407 1 2 1 0 403 404
408 1 2 1 0 404 405
409 1 2 1 0 405 406
410 1 2 1 0 406 407
411 1 2 1 0 407 408
412 1 2 1 0 408 409
413 1 2 1 0 409 410
414 1 2 1 0 410 411
415 1 2 1 0 411 412
416 1 2 1 0 412 324
417 1 2 1 0 324 413
418 1 2 1 0 413 414
419 1 2 1 0 414 415
420 1 2 1 0 415 416
421 1 2 1 0 416 417
422 1 2 1 0 417 418
423 1 2 1 0 418 419
424 1 2 1 0 419 420
425 1 2 1 0 420 421
426 1 2 1 0 421 422
427 1 2 1 0 422 423
428 1 2 1 0 423 424
429 1 2 1 0 424 425
430 1 2 1 0 425 426
431 1 2 1 0 426 427
432 1 2 1 0 427 428
433 1 2 1 0 428 429
434 1 2 1 0 429 430
435 1 2 1 0 430 431
436 1 2 1 0 431 432
437 1 2 1 0 432 433
438 1 2 1 0 433 434
439 1 2 1 0 434 435
440 1 2 1 0 435 436
441 1 2 1 0 436 437
442 1 2 1 0 437 438
443 1 2 1 0 438 439
444 1 2 1 0 439 440
445 1 2 1 0 440 441
446 1 2 1 0 441 442
447 1 2 1 0 442 443
448 1 2 1 0 443 444
449 1 2 1 0 444 445
450 1 2 1 0 445 446
451 1 2 1 0 446 447
452 1 2 1 0 447 448
453 1 2 1 0 448 449
454 1 2 1 0 449 450
455 1 2 1 0 450 451
456 1 2 1 0 451 452
457 1 2 1 0 452 453
458 1 2 1 0 453 454
459 1 2 1 0 454 455
460 1 2 1 0 455 456
461 1 2 1 0 456 457
462 1 2 1 0 457 458
463 1 2 1 0 458 68
464 1 2 1 0 68 459
465 1 2 1 0 459 460
466 1 2 1 0 460 461
467 1 2 1 0 461 462
468 1 2 1 0 462 463
469 1 2 1 0 463 464
470 1 2 1 0 464 465
471 1 2 1 0 465 466
472 1 2 1 0 466 467
473 1 2 1 0 467 468
474 1 2 1 0 468 469
475 1 2 1 0 469 470
476 1 2 1 0 470 471
477 1 2 1 0 471 472
478 1 2 1 0 472 473
479 1 2 1 0 473 474
480 1 2 1 0 474 475
481 1 2 1 0 475 476
482 1 2 1 0 476 477
483 1 2 1 0 477 478
484 1 2 1 0 478 479
485 1 2 1 0 479 480
486 1 2 1 0 480 481
487 1 2 1 0 481 482
488 1 2 1 0 482 483
489 1 2 1 0 483 484
490 1 2 1 0 484 485
491 1 2 1 0 485 486
492 1 2 1 0 486 258
493 1 2 1 0 258 487
494 1 2 1 0 487 488
495 1 2 1 0 488 489
496 1 2 1 0 489 490
497 1 2 1 0 490 491
498 1 2 1 0 491 492
499 1 2 1 0 492 493
500 1 2 1 0 493 494
501 1 2 1 0 494 495
502 1 2 1 0 495 496
503 1 2 1 0 496 497
504 1 2 1 0 497 498
505 1 2 1 0 498 499
506 1 2 1 0 499 500
507 1 2 1 0 500 501
508 1 2 1 0 501 502
509 1 2 1 0 502 503
510 1 2 1 0 503 504
511 1 2 1 0 504 505
512 1 2 1 0 505 506
513 1 2 1 0 506 507
514 1 2 1 0 507 508
515 1 2 1 0 508 203
516 1 2 1 0 203 509
517 1 2 1 0 509 510
518 1 2 1 0 510 511
519 1 2 1 0 511 512
520 1 2 1 0 512 513
521 1 2 1 0 513 514
522 1 2 1 0 514 326
523 1 2 1 0 326 514
524 1 2 1 0 514 513
525 1 2 1 0 513 512
526 1 2 1 0 512 511
527 1 2 1 0 511 510
528 1 2 1 0 510 509
529 1 2 1 0 509 203
530 1 2 1 0 203 508
531 1 2 1 0 508 507
532 1 2 1 0 507 506
533 1 2 1 0 506 505
534 1 2 1 0 505 504
535 1 2 1 0 504 503
536 1 2 1 0 503 502
537 1 2 1 0 502 501
538 1 2 1 0 501 500
539 1 2 1 0 500 499
540 1 2 1 0 499 498
541 1 2 1 0 498 497
542 1 2 1 0 497 496
543 1 2 1 0 496 495
544 1 2 1 0 495 494
545 1 2 1 0 494 493
546 1 2 1 0 493 492
547 1 2 1 0 492 491
548 1 2 1 0 491 490
549 1 2 1 0 490 489
550 1 2 1 0 489 488
551 1 2 1 0 488 487
552 1 2 1 0 487 258
553 1 2 1 0 258 486
554 1 2 1 0 486 485
555 1 2 1 0 485 484
556 1 2 1 0 484 483
557 1 2 1 0 483 482
558 1 2 1 0 482 481
559 1 2 1 0 481 480
560 1 2 1 0 480 479
561 1 2 1 0 479 478
562 1 2 1 0 478 477
563 1 2 1 0 477 476
564 1 2 1 0 476 475
565 1 2 1 0 475 474
566 1 2 1 0 474 473
567 1 2 1 0 473 472
568 1 2 1 0 472 471
569 1 2 1 0 471 470
570 1 2 1 0 470 469
571 1 2 1 0 469 468
572 1 2 1 0 468 467
573 1 2 1 0 467 466
574 1 2 1 0 466 465
575 1 2 1 0 465 464
576 1 2 1 0 464 463
577 1 2 1 0 463 462
578 1 2 1 0 462 461
579 1 2 1 0 461 460
580 1 2 1 0 460 459
581 1 2 1 0 459 68
582 1 2 1 0 68 458
583 1 2 1 0 458 457
584 1 2 1 0 457 456
585 1 2 1 0 456 455
586 1 2 1 0 455 454
587 1 2 1 0 454 453
588 1 2 1 0 453 452
589 1 2 1 0 452 451
590 1 2 1 0 451 450
591 1 2 1 0 450 449
592 1 2 1 0 449 448
593 1 2 1 0 448 447
594 1 2 1 0 447 446
595 1 2 1 0 446 445
596 1 2 1 0 445 444
597 1 2 1 0 444 443
598 1 2 1 0 443 442
599 1 2 1 0 442 441
600 1 2 1 0 441 440
601 1 2 1 0 440 439
602 1 2 1 0 439 438
603 1 2 1 0 438 437
604 1 2 1 0 437 436
605 1 2 1 0 436 435
606 1 2 1 0 435 434
607 1 2 1 0 434 433
608 1 2 1 0 433 432
609 1 2 1 0 432 431
610 1 2 1 0 431 430
611 1 2 1 0 430 429
612 1 2 1 0 429 428
613 1 2 1 0 428 427
614 1 2 1 0 427 426
615 1 2 1 0 426 425
616 1 2 1 0 425 424
617 1 2 1 0 424 423
618 1 2 1 0 423 422
619 1 2 1 0 422 421
620 1 2 1 0 421 420
621 1 2 1 0 420 419
622 1 2 1 0 419 418
623 1 2 1 0 418 417
624 1 2 1 0 417 416
625 1 2 1 0 416 415
626 1 2 1 0 415 414
627 1 2 1 0 414 413
628 1 2 1 0 413 324
629 1 2 1 0 324 412
630 1 2 1 0 412 411
631 1 2 1 0 411 410
632 1 2 1 0 410 409
633 1 2 1 0 409 408
634 1 2 1 0 408 407
635 1 2 1 0 407 406
636 1 2 1 0 406 405
637 1 2 1 0 405 404
638 1 2 1 0 404 403
639 1 2 1 0 403 402
640 1 2 1 0 402 401
641 1 2 1 0 401 400
642 1 2 1 0 400 399
643 1 2 1 0 399 398
644 1 2 1 0 398 397
645 1 2 1 0 397 396
646 1 2 1 0 396 395
647 1 2 1 0 395 394
648 1 2 1 0 394 393
649 1 2 1 0 393 392
650 1 2 1 0 392 391
651 1 2 1 0 391 390
652 1 2 1 0 390 389
653 1 2 1 0 389 388
654 1 2 1 0 388 387
655 1 2 1 0 387 386
656 1 2 1 0 386 385
657 1 2 1 0 385 384
658 1 2 1 0 384 383
659 1 2 1 0 383 382
660 1 2 1 0 382 381
661 1 2 1 0 381 380
662 1 2 1 0 380 288
663 1 2 1 0 288 379
664 1 2 1 0 379 378
665 1 2 1 0 378 377
666 1 2 1 0 377 376
667 1 2 1 0 376 375
668 1 2 1 0 375 374
669 1 2 1 0 374 373
670 1 2 1 0 373 372
671 1 2 1 0 372 371
672 1 2 1 0 371 370
673 1 2 1 0 370 369
674 1 2 1 0 369 368
675 1 2 1 0 368 367
676 1 2 1 0 367 366
677 1 2 1 0 366 365
678 1 2 1 0 365 364
679 1 2 1 0 364 363
680 1 2 1 0 363 362
681 1 2 1 0 362 361
682 1 2 1 0 361 360
683 1 2 1 0 360 359
684 1 2 1 0 359 358
685 1 2 1 0 358 357
686 1 2 1 0 357 356
687 1 2 1 0 356 355
688 1 2 1 0 355 354
689 1 2 1 0 354 353
690 1 2 1 0 353 352
691 1 2 1 0 352 351
692 1 2 1 0 351 350
693 1 2 1 0 350 349
694 1 2 1 0 349 348
695 1 2 1 0 348 347
696 1 2 1 0 347 346
697 1 2 1 0 346 345
698 1 2 1 0 345 344
699 1 2 1 0 344 343
700 1 2 1 0 343 342
701 1 2 1 0 342 341
702 1 2 1 0 341 340
703 1 2 1 0 340 339
704 1 2 1 0 339 338
705 1 2 1 0 338 337
706 1 2 1 0 337 336
707 1 2 1 0 336 335
708 1 2 1 0 335 334
709 1 2 1 0 334 60
710 1 2 1 0 60 333
711 1 2 1 0 333 332
712 1 2 1 0 332 331
713 1 2 1 0 331 330
714 1 2 1 0 330 329
715 1 2 1 0 329 328
716 1 2 1 0 328 326
717 1 2 1 0 515 516
718 1 2 1 0 516 517
719 1 2 1 0 517 518
720 1 2 1 0 518 519
721 1 2 1 0 519 520
722 1 2 1 0 520 521
723 1 2 1 0 521 522
724 1 2 1 0 522 523
725 1 2 1 0 523 524
726 1 2 1 0 524 525
727 1 2 1 0 525 526
728 1 2 1 0 526 527
729 1 2 1 0 527 528
730 1 2 1 0 528 529
731 1 2 1 0 529 530
732 1 2 1 0 530 531
733 1 2 1 0 531 532
734 1 2 1 0 532 533
735 1 2 1 0 533 534
736 1 2 1 0 534 273
737 1 2 1 0 273 535
738 1 2 1 0 535 536
739 1 2 1 0 536 537
740 1 2 1 0 537 538
741 1 2 1 0 538 539
742 1 2 1 0 539 540
743 1 2 1 0 540 541
744 1 2 1 0 541 542
745 1 2 1 0 542 543
746 1 2 1 0 543 544
747 1 2 1 0 544 545
748 1 2 1 0 545 546
749 1 2 1 0 546 547
750 1 2 1 0 547 548
751 1 2 1 0 548 549
752 1 2 1 0 549 550
753 1 2 1 0 550 551
754 1 2 1 0 551 552
755 1 2 1 0 552 553
756 1 2 1 0 553 554
757 1 2 1 0 554 555
758 1 2 1 0 555 556
759 1 2 1 0 556 557
760 1 2 1 0 557 558
761 1 2 1 0 558 559
762 1 2 1 0 559 560
763 1 2 1 0 560 561
764 1 2 1 0 561 562
765 1 2 1 0 562 563
766 1 2 1 0 563 564
767 1 2 1 0 564 565
768 1 2 1 0 565 566
769 1 2 1 0 566 567
770 1 2 1 0 567 568
771 1 2 1 0 568 569
772 1 2 1 0 569 570
773 1 2 1 0 570 571
774 1 2 1 0 571 572
775 1 2 1 0 572 573
776 1 2 1 0 573 574
777 1 2 1 0 574 575
778 1 2 1 0 575 576
779 1 2 1 0 576 577
780 1 2 1 0 577 578
781 1 2 1 0 578 579
782 1 2 1 0 579 580
783 1 2 1 0 580 44
784 1 2 1 0 44 581
785 1 2 1 0 581 582
786 1 2 1 0 582 583
787 1 2 1 0 583 584
788 1 2 1 0 584 585
789 1 2 1 0 585 586
790 1 2 1 0 586 500
791 1 2 1 0 500 587
792 1 2 1 0 515 588
793 1 2 1 0 588 589
794 1 2 1 0 589 590
795 1 2 1 0 590 591
796 1 2 1 0 591 592
797 1 2 1 0 592 593
798 1 2 1 0 593 594
799 1 2 1 0 594 595
800 1 2 1 0 595 596
801 1 2 1 0 596 597
802 1 2 1 0 597 598
803 1 2 1 0 598 599
804 1 2 1 0 599 600
805 1 2 1 0 600 309
806 1 2 1 0 309 601
807 1 2 1 0 601 602
808 1 2 1 0 602 603
809 1 2 1 0 603 604
810 1 2 1 0 604 605
811 1 2 1 0 605 606
812 1 2 1 0 606 607
813 1 2 1 0 607 608
814 1 2 1 0 608 609
815 1 2 1 0 609 610
816 1 2 1 0 610 611
817 1 2 1 0 611 612
818 1 2 1 0 612 613
819 1 2 1 0 613 614
820 1 2 1 0 614 615
821 1 2 1 0 615 616
822 1 2 1 0 616 617
823 1 2 1 0 617 618
824 1 2 1 0 618 619
825 1 2 1 0 619 620
826 1 2 1 0 620 621
827 1 2 1 0 621 622
828 1 2 1 0 622 623
829 1 2 1 0 623 624
830 1 2 1 0 624 625
831 1 2 1 0 625 626
832 1 2 1 0 626 627
833 1 2 1 0 627 628
834 1 2 1 0 628 629
835 1 2 1 0 629 630
836 1 2 1 0 630 631
837 1 2 1 0 631 632
838 1 2 1 0 632 633
839 1 2 1 0 633 634
840 1 2 1 0 634 635
841 1 2 1 0 635 636
842 1 2 1 0 636 637
843 1 2 1 0 637 638
844 1 2 1 0 638 639
845 1 2 1 0 639 640
846 1 2 1 0 640 641
847 1 2 1 0 641 642
848 1 2 1 0 642 643
849 1 2 1 0 643 644
850 1 2 1 0 644 645
851 1 2 1 0 645 646
852 1 2 1 0 646 10
853 1 2 1 0 10 647
854 1 2 1 0 647 648
855 1 2 1 0 648 649
856 1 2 1 0 649 650
857 1 2 1 0 650 651
858 1 2 1 0 651 652
859 1 2 1 0 652 467
860 1 2 1 0 467 653
861 1 2 1 0 515 654
862 1 2 1 0 654 655
863 1 2 1 0 655 656
864 1 2 1 0 656 657
865 1 2 1 0 657 658
866 1 2 1 0 658 659
867 1 2 1 0 659 660
868 1 2 1 0 660 661
869 1 2 1 0 661 130
870 1 2 1 0 130 662
871 1 2 1 0 662 663
872 1 2 1 0 663 664
873 1 2 1 0 664 665
874 1 2 1 0 665 666
875 1 2 1 0 666 667
876 1 2 1 0 667 399
877 1 2 1 0 399 668
$EndElements
