$MeshFormat
4.1 0 8
$EndMeshFormat
$Entities
380 12 0 0
1 0.05713167815722848 -0.110770150383991 -0.5270317659264627 0 
2 0.05708812599641048 -0.1110739620127491 -0.5272311027596293 0 
3 0.05702402334491473 -0.1115034645229567 -0.5275132932667232 0 
4 0.05694003625503736 -0.1120304609725139 -0.5278295026508133 0 
5 0.05683572230851947 -0.1126430165519598 -0.5281425200144123 0 
6 0.05671481046276894 -0.1133078985345904 -0.5284829369647023 0 
7 0.05657687048325263 -0.1140158240881309 -0.5288455577379496 0 
8 0.05641479289464208 -0.1147990033494125 -0.5291445772304729 0 
9 0.0562333498227079 -0.1156268459911265 -0.5294176112374079 0 
10 0.05603125093740954 -0.1164823327541429 -0.5296997666599649 0 
11 0.05580779099253037 -0.1173842140054586 -0.5299140696382338 0 
12 0.05556392717945403 -0.1183138640408365 -0.5300907838094265 0 
13 0.05529953997267898 -0.119265317104574 -0.5302329055939059 0 
14 0.05501478311609163 -0.1202329647708328 -0.5303384800798352 0 
15 0.05471007043543263 -0.1212128357378406 -0.5303947208090869 0 
16 0.05438990755972981 -0.1221999271789151 -0.5303841847740215 0 
17 0.05405142504981082 -0.1231847640462769 -0.5303402802506473 0 
18 0.05369654336276079 -0.1241636993975617 -0.5302622932253264 0 
19 0.05334266993164955 -0.1251232552973645 -0.5300781536648514 0 
20 0.05296589850444577 -0.1260686511422314 -0.5299014402806413 0 
21 0.05259383622931192 -0.1269854154958021 -0.5296381369768295 0 
22 0.05222028893583031 -0.1278702926524755 -0.5293268992244643 0 
23 0.05184694719686566 -0.1287207423111035 -0.5289746426594125 0 
24 0.05149034956845198 -0.129516646324529 -0.5285471038778023 0 
25 0.051134242213302 -0.1302750091181414 -0.5281042703399975 0 
26 0.05081044576645862 -0.1309680214604343 -0.5275852905486186 0 
27 0.05049820396645999 -0.1316080093711905 -0.5270480604673741 0 
28 0.05020180214556251 -0.132195193128726 -0.5264987785043413 0 
29 0.04993302516298719 -0.1327143203047372 -0.5259284110194135 0 
30 0.04968186898807284 -0.1331797796158996 -0.5253643991942816 0 
31 0.04944391243174728 -0.1336009953540377 -0.5248273089994553 0 
32 0.04924444342193484 -0.133943144469478 -0.5242983070318588 0 
33 0.04906197346993142 -0.1342404974151504 -0.523825283672532 0 
34 0.04891012236144435 -0.1344776026846752 -0.5234243297136588 0 
35 0.04880013930871623 -0.1346423884663821 -0.5231418818460492 0 
36 0.05713167815722848 -0.110770150383991 -0.5270317659264627 0 
37 0.05746606953459521 -0.1106714634425425 -0.5269182786623779 0 
38 0.05794151310474402 -0.1105300422989521 -0.5267562442868482 0 
39 0.05851334352509166 -0.1103577624884579 -0.5265609876501515 0 
40 0.05915349863010518 -0.1101837362286169 -0.526308001537661 0 
41 0.05985447577493559 -0.1099893471057228 -0.5260280138779797 0 
42 0.06061074729080619 -0.1097651056596989 -0.5257361297510639 0 
43 0.06140978422344821 -0.1095448978545342 -0.5253888400103411 0 
44 0.06224820825417586 -0.1093206142735248 -0.5249983981501041 0 
45 0.06312600412835732 -0.1090757779684786 -0.524581741663332 0 
46 0.06403049781206081 -0.1088470579545974 -0.5240979621776116 0 
47 0.0649616775501991 -0.1086175566021043 -0.5235651549164049 0 
48 0.06591352049998328 -0.1083918973410342 -0.5229791362109794 0 
49 0.06687501881822143 -0.1081873174688049 -0.5223242662451946 0 
50 0.06784703192496459 -0.1079863872503789 -0.521614829376156 0 
51 0.06881262467778503 -0.1078167216221836 -0.5208307538500812 0 
52 0.06977512987723007 -0.107654072862947 -0.5199898073191787 0 
53 0.07072115676208234 -0.1075129860626376 -0.5190844768976896 0 
54 0.07164626129171607 -0.1073889566340866 -0.5181198175115632 0 
55 0.07254614704907322 -0.1072771281751012 -0.5171033824388812 0 
56 0.07339821395572156 -0.1072075596552577 -0.5160213625038235 0 
57 0.07421195210151883 -0.1071517611055549 -0.5148964731945194 0 
58 0.07495655741495411 -0.1071512297267416 -0.5137201109373409 0 
59 0.07563247225230076 -0.1071954258322621 -0.5125057622474085 0 
60 0.07623447659954863 -0.1072829181736552 -0.5112655352053308 0 
61 0.07675697465983271 -0.1074109989962938 -0.510014918893086 0 
62 0.07717589773814051 -0.1076148397549105 -0.5087571993389163 0 
63 0.07752568858177541 -0.107836213253577 -0.5075159655478683 0 
64 0.07777801519382413 -0.1081086024816661 -0.5063070394860952 0 
65 0.07795769615116468 -0.1083996415709633 -0.5051441441743633 0 
66 0.07805802501040433 -0.1087171201731251 -0.5040423796356331 0 
67 0.07811114172451133 -0.109025441359593 -0.503010622886506 0 
68 0.07810874624888207 -0.1093351304394064 -0.5020684846357216 0 
69 0.07808467344514834 -0.1096097880413176 -0.5012296768495267 0 
70 0.07802465757025397 -0.1098617177641036 -0.5005394707373063 0 
71 0.07797260668191322 -0.1100383479011637 -0.5000532658296738 0 
72 0.05713167815722848 -0.110770150383991 -0.5270317659264627 0 
73 0.05684044306583728 -0.1105685846928015 -0.5269403547403523 0 
74 0.05642820189757817 -0.1102885297903492 -0.5268075824253815 0 
75 0.05593644665712937 -0.1099565819128158 -0.5266506233448044 0 
76 0.05538732722411446 -0.109583426511585 -0.5264829980249607 0 
77 0.0547901309732181 -0.1091905987342661 -0.5262888329569821 0 
78 0.05415300187692431 -0.108783904520344 -0.5260724044349544 0 
79 0.05348281736731908 -0.1083592507593291 -0.5258468976478049 0 
80 0.05278038789534192 -0.1079403410606747 -0.5255864563687481 0 
81 0.05205224717360146 -0.1075176850956682 -0.5253090357038932 0 
82 0.05130026752637906 -0.1070975581792261 -0.5250095794098866 0 
83 0.05052828075283722 -0.106695040919085 -0.5246755055509196 0 
84 0.04973913932848432 -0.1062974409425917 -0.5243222141544642 0 
85 0.04893628301550638 -0.1059317287513047 -0.5239299073789779 0 
86 0.04812166392767692 -0.1055727234058862 -0.5235234406711484 0 
87 0.04729916262593859 -0.1052332042999603 -0.5230928987872805 0 
88 0.04646976730826793 -0.1049054820856919 -0.5226473443590678 0 
89 0.04563793790734753 -0.1046019417144071 -0.5221769215463906 0 
90 0.04480501865832458 -0.1043280717896022 -0.5216821843502886 0 
91 0.04397350157332158 -0.1040725740163345 -0.5211711815231552 0 
92 0.0431433141114197 -0.1038259897534546 -0.5206516325119972 0 
93 0.04232032801957757 -0.1036087975304587 -0.5201085078059898 0 
94 0.04150563962436102 -0.103418847185651 -0.519547512789405 0 
95 0.04069966637669616 -0.1032440418040262 -0.5189743178123417 0 
96 0.07797260668191322 -0.1100383479011637 -0.5000532658296738 0 
97 0.07802465757025397 -0.1098617177641036 -0.5005394707373063 0 
98 0.07808467344514834 -0.1096097880413176 -0.5012296768495267 0 
99 0.07810874624888207 -0.1093351304394064 -0.5020684846357216 0 
100 0.07811114172451133 -0.109025441359593 -0.503010622886506 0 
101 0.07805802501040433 -0.1087171201731251 -0.5040423796356331 0 
102 0.07795769615116468 -0.1083996415709633 -0.5051441441743633 0 
103 0.07777801519382413 -0.1081086024816661 -0.5063070394860952 0 
104 0.07752568858177541 -0.107836213253577 -0.5075159655478683 0 
105 0.07717589773814051 -0.1076148397549105 -0.5087571993389163 0 
106 0.07675697465983271 -0.1074109989962938 -0.510014918893086 0 
107 0.07623447659954863 -0.1072829181736552 -0.5112655352053308 0 
108 0.07563247225230076 -0.1071954258322621 -0.5125057622474085 0 
109 0.07495655741495411 -0.1071512297267416 -0.5137201109373409 0 
110 0.07421195210151883 -0.1071517611055549 -0.5148964731945194 0 
111 0.07339821395572156 -0.1072075596552577 -0.5160213625038235 0 
112 0.07254614704907322 -0.1072771281751012 -0.5171033824388812 0 
113 0.07164626129171607 -0.1073889566340866 -0.5181198175115632 0 
114 0.07072115676208234 -0.1075129860626376 -0.5190844768976896 0 
115 0.06977512987723007 -0.107654072862947 -0.5199898073191787 0 
116 0.06881262467778503 -0.1078167216221836 -0.5208307538500812 0 
117 0.06784703192496459 -0.1079863872503789 -0.521614829376156 0 
118 0.06687501881822143 -0.1081873174688049 -0.5223242662451946 0 
119 0.06591352049998328 -0.1083918973410342 -0.5229791362109794 0 
120 0.0649616775501991 -0.1086175566021043 -0.5235651549164049 0 
121 0.06403049781206081 -0.1088470579545974 -0.5240979621776116 0 
122 0.06312600412835732 -0.1090757779684786 -0.524581741663332 0 
123 0.06224820825417586 -0.1093206142735248 -0.5249983981501041 0 
124 0.06140978422344821 -0.1095448978545342 -0.5253888400103411 0 
125 0.06061074729080619 -0.1097651056596989 -0.5257361297510639 0 
126 0.05985447577493559 -0.1099893471057228 -0.5260280138779797 0 
127 0.05915349863010518 -0.1101837362286169 -0.526308001537661 0 
128 0.05851334352509166 -0.1103577624884579 -0.5265609876501515 0 
129 0.05794151310474402 -0.1105300422989521 -0.5267562442868482 0 
130 0.05746606953459521 -0.1106714634425425 -0.5269182786623779 0 
131 0.05713167815722848 -0.110770150383991 -0.5270317659264627 0 
132 0.07797260668191322 -0.1100383479011637 -0.5000532658296738 0 
133 0.07827722084193428 -0.1104237088913417 -0.4998767042591336 0 
134 0.07869640442278129 -0.110989630235716 -0.4996240062177781 0 
135 0.07918079478655307 -0.1116919693587759 -0.4993178292680616 0 
136 0.07971810209197401 -0.112498340504927 -0.498960361163284 0 
137 0.08026075256979512 -0.1134227479498075 -0.498571933358689 0 
138 0.0808091483723975 -0.1144493159375679 -0.4981458250804903 0 
139 0.08133378695382622 -0.1155825521311436 -0.4976972508764882 0 
140 0.08181483813223552 -0.1168248205588535 -0.4972302082372546 0 
141 0.08224098317849036 -0.1181662283895302 -0.4967433017733119 0 
142 0.08258020735436783 -0.1196080864532765 -0.4962536806108016 0 
143 0.08279122891140385 -0.1211464466818432 -0.4957941622872107 0 
144 0.08286319205423215 -0.1227581911494719 -0.4953711816505683 0 
145 0.08275870544014147 -0.1244195553203396 -0.4950141053371185 0 
146 0.08249390010992295 -0.1261013528294827 -0.4947210304165777 0 
147 0.08206456156376096 -0.12778794126296 -0.4944915021060565 0 
148 0.08150871462754689 -0.1294553054021117 -0.494301350791321 0 
149 0.08083583023402761 -0.1310846498340532 -0.4941474554296993 0 
150 0.0800656308655664 -0.1326620481876936 -0.4940188895110672 0 
151 0.07921647344025885 -0.1341795242300871 -0.493909078291959 0 
152 0.07830262298861199 -0.1356321790229841 -0.493815542136961 0 
153 0.07732687673465632 -0.1370069095426825 -0.4937462183127539 0 
154 0.07630877356302718 -0.1383046682892186 -0.4936961788594877 0 
155 0.07519659104046435 -0.1394713341009045 -0.493722422829653 0 
156 0.07403896464259181 -0.1405278570938926 -0.4937900830301615 0 
157 0.0728124972584852 -0.1414126936865889 -0.4939521158537181 0 
158 0.07156187997710069 -0.1420482382565403 -0.4942106039169871 0 
159 0.07031827178401287 -0.1424779278411707 -0.4945406923954162 0 
160 0.06913600294140632 -0.1427700958774647 -0.4948919665971932 0 
161 0.06803883559344095 -0.1429909344502368 -0.495223251461077 0 
162 0.06702795277237904 -0.1431242469976329 -0.4955452024799242 0 
163 0.06611818632317859 -0.1432186720223576 -0.4958367684268873 0 
164 0.06532091493105865 -0.1432874648813129 -0.4960909274753577 0 
165 0.06467072293471117 -0.1432978045293182 -0.4963151785132784 0 
166 0.06421709288664951 -0.1433042452808644 -0.4964698186607848 0 
167 0.07797260668191322 -0.1100383479011637 -0.5000532658296738 0 
168 0.07761662792580523 -0.1098282777559216 -0.4997421571107779 0 
169 0.07711897230157122 -0.1095318957684727 -0.4993097759183038 0 
170 0.07651711763810153 -0.1091928193402884 -0.498808972920406 0 
171 0.07585650474208268 -0.1088091190821144 -0.4982556459047994 0 
172 0.075148543484685 -0.1083926538012495 -0.4976663351752829 0 
173 0.0743871396297255 -0.1079630817351603 -0.4970587784163911 0 
174 0.07358153435805814 -0.1075277589175267 -0.4964386728566391 0 
175 0.07273984890046679 -0.1070850442867818 -0.4958094707899784 0 
176 0.07185839117903768 -0.106647208384081 -0.4951818881844558 0 
177 0.07094489951396772 -0.1062109364068702 -0.4945573750785605 0 
178 0.07000418185923139 -0.1057773999455669 -0.4939395749141816 0 
179 0.06902738713181242 -0.1053648170996543 -0.4933374442534108 0 
180 0.0680053435366085 -0.1049955514910866 -0.4927636827677875 0 
181 0.06695837447458206 -0.1046481335262537 -0.4922111675958892 0 
182 0.06588070032733459 -0.1043397897178326 -0.4916884555126683 0 
183 0.06478154587967706 -0.1040693576238094 -0.4912015867487953 0 
184 0.06366843629488365 -0.1038331242478562 -0.4907426734505038 0 
185 0.06254137255354343 -0.10365107939551 -0.4903323448105033 0 
186 0.06141008322629726 -0.1035018204087126 -0.4899543906714462 0 
187 0.06028314868780067 -0.103383305018374 -0.4896030126012896 0 
188 0.0591542773554658 -0.103327982267496 -0.4893055898404364 0 
189 0.05804142224323178 -0.1032959697999284 -0.489027804352611 0 
190 0.05694050834283154 -0.1033271462345896 -0.4887923702908906 0 
191 0.06421709288664951 -0.1433042452808644 -0.4964698186607848 0 
192 0.06411395451361319 -0.1434750836194116 -0.4969030053063539 0 
193 0.06395878104855644 -0.143724245189058 -0.4975094787689956 0 
194 0.063760908293095 -0.1440182859892546 -0.4982321524267543 0 
195 0.0635236340621774 -0.1443271207752073 -0.499045541061925 0 
196 0.06324563358554236 -0.1446550620011816 -0.4999259772773785 0 
197 0.0629269535942278 -0.1449836694224934 -0.5008662781479081 0 
198 0.06256485286601823 -0.1453175418725234 -0.5018534421901742 0 
199 0.06216369657562151 -0.1456126869582859 -0.5028932527248619 0 
200 0.06171445552422687 -0.1459029193607142 -0.5039648469012455 0 
201 0.06124117554705368 -0.1460737257638142 -0.5050893991067607 0 
202 0.06072256796185643 -0.1462071728702677 -0.5062337346612623 0 
203 0.06020495428923873 -0.1461604608267143 -0.5074072676097077 0 
204 0.05965693604095564 -0.1460411253908606 -0.5085785723671744 0 
205 0.05913526049294846 -0.1457277671661636 -0.5097305213652346 0 
206 0.05858744876184053 -0.145371012616171 -0.5108536642142137 0 
207 0.05804656991353321 -0.1449032827341418 -0.5119348372962009 0 
208 0.05748862971035283 -0.1444000832696435 -0.5129754382131084 0 
209 0.05692098392864674 -0.1438551600270755 -0.5139698334502656 0 
210 0.05634219603892628 -0.1432829855717719 -0.5149163336328043 0 
211 0.05575402491593774 -0.1426915906666831 -0.5158130794182585 0 
212 0.05515592793901884 -0.1420937376099067 -0.5166602303369994 0 
213 0.05455515461553271 -0.1414895526852045 -0.5174551632773068 0 
214 0.0539633318055533 -0.1408727688145999 -0.5181942457990468 0 
215 0.0533844314771233 -0.1402486236278485 -0.5188769430819619 0 
216 0.05280800453077496 -0.1396454312838489 -0.5195135750710679 0 
217 0.05226752204949721 -0.1390219735535964 -0.5200872491415823 0 
218 0.05174950023272248 -0.1384081919396395 -0.5206106070383688 0 
219 0.05126433162756003 -0.1377983080396044 -0.5210793649634808 0 
220 0.05079283247430713 -0.1372279259507208 -0.5215126169434853 0 
221 0.05035364666916135 -0.1366796543441046 -0.5218993685260734 0 
222 0.04996281288159389 -0.1361426500295488 -0.5222284884033225 0 
223 0.04960196547413834 -0.1356547617905401 -0.5225214956895017 0 
224 0.04926483153701793 -0.1352443077296666 -0.522789590091509 0 
225 0.04898600199934086 -0.134899550562212 -0.5230056200588896 0 
226 0.04880013930871623 -0.1346423884663821 -0.5231418818460492 0 
227 0.06421709288664951 -0.1433042452808644 -0.4964698186607848 0 
228 0.06386707654592047 -0.1431400394120555 -0.4961915765196638 0 
229 0.06337659432660463 -0.1428813676373883 -0.4958186003720275 0 
230 0.06279620671769925 -0.1425594640672174 -0.495394107297627 0 
231 0.0621511426005994 -0.1421941754026907 -0.4949388475281897 0 
232 0.06146160033172726 -0.1417750120193798 -0.4944786032067692 0 
233 0.06073700431123289 -0.1413147680375824 -0.4940192122712992 0 
234 0.05998607355320602 -0.1408195460841687 -0.4935680654738556 0 
235 0.059213186566189 -0.1402987036568269 -0.4931271962918344 0 
236 0.05842501193993662 -0.139752900293634 -0.4927027740668708 0 
237 0.05761914718605251 -0.1392041127131815 -0.4922853477319075 0 
238 0.05680394957065681 -0.1386409505484224 -0.491886233101201 0 
239 0.05597773006194427 -0.1380792091187215 -0.4914980253685995 0 
240 0.05514176024770283 -0.1375240998554731 -0.4911191319200184 0 
241 0.05429187648243471 -0.136999073586993 -0.4907336828720718 0 
242 0.05344029739286442 -0.1364696560095566 -0.49036910301491 0 
243 0.05258107467577662 -0.1359638302098949 -0.4900036642860726 0 
244 0.05171555963929769 -0.1354819121538841 -0.4896368614660326 0 
245 0.05084251873806744 -0.1350443766086704 -0.4892504035084875 0 
246 0.04997141135285268 -0.1345916944187861 -0.4888972582324694 0 
247 0.0490969257805634 -0.1341589141731327 -0.488544835274178 0 
248 0.0482197756034291 -0.1337786558211116 -0.4881602502850652 0 
249 0.04733883648624826 -0.1334393953474256 -0.4877542929693239 0 
250 0.046451356262 -0.133110716939 -0.487359523773 0 
251 0.06421709288664951 -0.1433042452808644 -0.4964698186607848 0 
252 0.06467072293471117 -0.1432978045293182 -0.4963151785132784 0 
253 0.06532091493105865 -0.1432874648813129 -0.4960909274753577 0 
254 0.06611818632317859 -0.1432186720223576 -0.4958367684268873 0 
255 0.06702795277237904 -0.1431242469976329 -0.4955452024799242 0 
256 0.06803883559344095 -0.1429909344502368 -0.495223251461077 0 
257 0.06913600294140632 -0.1427700958774647 -0.4948919665971932 0 
258 0.07031827178401287 -0.1424779278411707 -0.4945406923954162 0 
259 0.07156187997710069 -0.1420482382565403 -0.4942106039169871 0 
260 0.0728124972584852 -0.1414126936865889 -0.4939521158537181 0 
261 0.07403896464259181 -0.1405278570938926 -0.4937900830301615 0 
262 0.07519659104046435 -0.1394713341009045 -0.493722422829653 0 
263 0.07630877356302718 -0.1383046682892186 -0.4936961788594877 0 
264 0.07732687673465632 -0.1370069095426825 -0.4937462183127539 0 
265 0.07830262298861199 -0.1356321790229841 -0.493815542136961 0 
266 0.07921647344025885 -0.1341795242300871 -0.493909078291959 0 
267 0.0800656308655664 -0.1326620481876936 -0.4940188895110672 0 
268 0.08083583023402761 -0.1310846498340532 -0.4941474554296993 0 
269 0.08150871462754689 -0.1294553054021117 -0.494301350791321 0 
270 0.08206456156376096 -0.12778794126296 -0.4944915021060565 0 
271 0.08249390010992295 -0.1261013528294827 -0.4947210304165777 0 
272 0.08275870544014147 -0.1244195553203396 -0.4950141053371185 0 
273 0.08286319205423215 -0.1227581911494719 -0.4953711816505683 0 
274 0.08279122891140385 -0.1211464466818432 -0.4957941622872107 0 
275 0.08258020735436783 -0.1196080864532765 -0.4962536806108016 0 
276 0.08224098317849036 -0.1181662283895302 -0.4967433017733119 0 
277 0.08181483813223552 -0.1168248205588535 -0.4972302082372546 0 
278 0.08133378695382622 -0.1155825521311436 -0.4976972508764882 0 
279 0.0808091483723975 -0.1144493159375679 -0.4981458250804903 0 
280 0.08026075256979512 -0.1134227479498075 -0.498571933358689 0 
281 0.07971810209197401 -0.112498340504927 -0.498960361163284 0 
282 0.07918079478655307 -0.1116919693587759 -0.4993178292680616 0 
283 0.07869640442278129 -0.110989630235716 -0.4996240062177781 0 
284 0.07827722084193428 -0.1104237088913417 -0.4998767042591336 0 
285 0.07797260668191322 -0.1100383479011637 -0.5000532658296738 0 
286 0.04880013930871623 -0.1346423884663821 -0.5231418818460492 0 
287 0.04898600199934086 -0.134899550562212 -0.5230056200588896 0 
288 0.04926483153701793 -0.1352443077296666 -0.522789590091509 0 
289 0.04960196547413834 -0.1356547617905401 -0.5225214956895017 0 
290 0.04996281288159389 -0.1361426500295488 -0.5222284884033225 0 
291 0.05035364666916135 -0.1366796543441046 -0.5218993685260734 0 
292 0.05079283247430713 -0.1372279259507208 -0.5215126169434853 0 
293 0.05126433162756003 -0.1377983080396044 -0.5210793649634808 0 
294 0.05174950023272248 -0.1384081919396395 -0.5206106070383688 0 
295 0.05226752204949721 -0.1390219735535964 -0.5200872491415823 0 
296 0.05280800453077496 -0.1396454312838489 -0.5195135750710679 0 
297 0.0533844314771233 -0.1402486236278485 -0.5188769430819619 0 
298 0.0539633318055533 -0.1408727688145999 -0.5181942457990468 0 
299 0.05455515461553271 -0.1414895526852045 -0.5174551632773068 0 
300 0.05515592793901884 -0.1420937376099067 -0.5166602303369994 0 
301 0.05575402491593774 -0.1426915906666831 -0.5158130794182585 0 
302 0.05634219603892628 -0.1432829855717719 -0.5149163336328043 0 
303 0.05692098392864674 -0.1438551600270755 -0.5139698334502656 0 
304 0.05748862971035283 -0.1444000832696435 -0.5129754382131084 0 
305 0.05804656991353321 -0.1449032827341418 -0.5119348372962009 0 
306 0.05858744876184053 -0.145371012616171 -0.5108536642142137 0 
307 0.05913526049294846 -0.1457277671661636 -0.5097305213652346 0 
308 0.05965693604095564 -0.1460411253908606 -0.5085785723671744 0 
309 0.06020495428923873 -0.1461604608267143 -0.5074072676097077 0 
310 0.06072256796185643 -0.1462071728702677 -0.5062337346612623 0 
311 0.06124117554705368 -0.1460737257638142 -0.5050893991067607 0 
312 0.06171445552422687 -0.1459029193607142 -0.5039648469012455 0 
313 0.06216369657562151 -0.1456126869582859 -0.5028932527248619 0 
314 0.06256485286601823 -0.1453175418725234 -0.5018534421901742 0 
315 0.0629269535942278 -0.1449836694224934 -0.5008662781479081 0 
316 0.06324563358554236 -0.1446550620011816 -0.4999259772773785 0 
317 0.0635236340621774 -0.1443271207752073 -0.499045541061925 0 
318 0.063760908293095 -0.1440182859892546 -0.4982321524267543 0 
319 0.06395878104855644 -0.143724245189058 -0.4975094787689956 0 
320 0.06411395451361319 -0.1434750836194116 -0.4969030053063539 0 
321 0.06421709288664951 -0.1433042452808644 -0.4964698186607848 0 
322 0.04880013930871623 -0.1346423884663821 -0.5231418818460492 0 
323 0.04891012236144435 -0.1344776026846752 -0.5234243297136588 0 
324 0.04906197346993142 -0.1342404974151504 -0.523825283672532 0 
325 0.04924444342193484 -0.133943144469478 -0.5242983070318588 0 
326 0.04944391243174728 -0.1336009953540377 -0.5248273089994553 0 
327 0.04968186898807284 -0.1331797796158996 -0.5253643991942816 0 
328 0.04993302516298719 -0.1327143203047372 -0.5259284110194135 0 
329 0.05020180214556251 -0.132195193128726 -0.5264987785043413 0 
330 0.05049820396645999 -0.1316080093711905 -0.5270480604673741 0 
331 0.05081044576645862 -0.1309680214604343 -0.5275852905486186 0 
332 0.051134242213302 -0.1302750091181414 -0.5281042703399975 0 
333 0.05149034956845198 -0.129516646324529 -0.5285471038778023 0 
334 0.05184694719686566 -0.1287207423111035 -0.5289746426594125 0 
335 0.05222028893583031 -0.1278702926524755 -0.5293268992244643 0 
336 0.05259383622931192 -0.1269854154958021 -0.5296381369768295 0 
337 0.05296589850444577 -0.1260686511422314 -0.5299014402806413 0 
338 0.05334266993164955 -0.1251232552973645 -0.5300781536648514 0 
339 0.05369654336276079 -0.1241636993975617 -0.5302622932253264 0 
340 0.05405142504981082 -0.1231847640462769 -0.5303402802506473 0 
341 0.05438990755972981 -0.1221999271789151 -0.5303841847740215 0 
342 0.05471007043543263 -0.1212128357378406 -0.5303947208090869 0 
343 0.05501478311609163 -0.1202329647708328 -0.5303384800798352 0 
344 0.05529953997267898 -0.119265317104574 -0.5302329055939059 0 
345 0.05556392717945403 -0.1183138640408365 -0.5300907838094265 0 
346 0.05580779099253037 -0.1173842140054586 -0.5299140696382338 0 
347 0.05603125093740954 -0.1164823327541429 -0.5296997666599649 0 
348 0.0562333498227079 -0.1156268459911265 -0.5294176112374079 0 
349 0.05641479289464208 -0.1147990033494125 -0.5291445772304729 0 
350 0.05657687048325263 -0.1140158240881309 -0.5288455577379496 0 
351 0.05671481046276894 -0.1133078985345904 -0.5284829369647023 0 
352 0.05683572230851947 -0.1126430165519598 -0.5281425200144123 0 
353 0.05694003625503736 -0.1120304609725139 -0.5278295026508133 0 
354 0.05702402334491473 -0.1115034645229567 -0.5275132932667232 0 
355 0.05708812599641048 -0.1110739620127491 -0.5272311027596293 0 
356 0.05713167815722848 -0.110770150383991 -0.5270317659264627 0 
357 0.04880013930871623 -0.1346423884663821 -0.5231418818460492 0 
358 0.04850413342400155 -0.1345497993077515 -0.5229958031708873 0 
359 0.04808968629236553 -0.134419288839618 -0.5227922744106591 0 
360 0.04758605433764208 -0.1342798844890131 -0.5225669893889969 0 
361 0.04702403730039904 -0.1341276142912911 -0.5223203205931549 0 
362 0.0464185514133602 -0.1339620170407909 -0.5220556322238122 0 
363 0.04577524293219594 -0.1337889133326649 -0.5217794564030265 0 
364 0.04508732125707647 -0.1336321116593421 -0.5215110666534831 0 
365 0.04437303093677408 -0.1334660919567243 -0.5212316665950668 0 
366 0.04363247888009689 -0.133297665902426 -0.5209469033085519 0 
367 0.04285853041100453 -0.1331479423373858 -0.5206721787328189 0 
368 0.04206465094990069 -0.1329925541419195 -0.5203899780306914 0 
369 0.04124770590285359 -0.1328432052301718 -0.5201084680319381 0 
370 0.04040883193096532 -0.1327011899865515 -0.5198280813360165 0 
371 0.03955367350021034 -0.1325566552381317 -0.5195419005795504 0 
372 0.03867868662073428 -0.13242239122671 -0.5192582703441518 0 
373 0.0377892788747887 -0.132287268839147 -0.518969572999879 0 
374 0.0368861118006841 -0.1321529095745596 -0.5186768782615777 0 
375 0.03597094127324576 -0.1320175686696838 -0.5183791414323812 0 
376 0.03504542308307614 -0.1318803111514264 -0.5180760866388215 0 
377 0.03411271370424437 -0.1317359094752333 -0.5177648753588421 0 
378 0.03317459076540052 -0.1315839096660816 -0.5174461719548668 0 
379 0.03223281914823054 -0.1314238492511583 -0.5171209315361106 0 
380 0.03129496045074397 -0.1312422235073047 -0.5167821613470901 0 
1 0.04880013930871623 -0.1346423884663821 -0.530380958238 0.05713167815722848 -0.110770150383991 -0.5231418818460492 0 2 1 -35 
2 0.05713167815722848 -0.110770150383991 -0.5270317659264627 0.07811343125243728 -0.1072198795403935 -0.5000532658296738 0 2 36 -71 
3 0.04069966637669616 -0.110770150383991 -0.5270317659264627 0.05713167815722848 -0.1032440418040262 -0.5189743178123417 0 2 72 -95 
4 0.05713167815722848 -0.110770150383991 -0.5270317659264627 0.07811343125243728 -0.1072198795403935 -0.5000532658296738 0 2 96 -131 
5 0.06421709288664951 -0.1433042452808644 -0.5000532658296738 0.08283205242513679 -0.1100383479011637 -0.4937077816587045 0 2 132 -166 
6 0.05694050834283154 -0.1100383479011637 -0.5000532658296738 0.07797260668191322 -0.1033271462345896 -0.4887923702908906 0 2 167 -190 
7 0.04880013930871623 -0.1461880835795509 -0.5231418818460492 0.06421709288664951 -0.1346423884663821 -0.4964698186607848 0 2 191 -226 
8 0.046451356262 -0.1433042452808644 -0.4964698186607848 0.06421709288664951 -0.133110716939 -0.487359523773 0 2 227 -250 
9 0.06421709288664951 -0.1433042452808644 -0.5000532658296738 0.08283205242513678 -0.1100383479011637 -0.4937077816587047 0 2 251 -285 
10 0.04880013930871623 -0.1461880835795509 -0.5231418818460492 0.06421709288664951 -0.1346423884663821 -0.4964698186607848 0 2 286 -321 
11 0.04880013930871623 -0.1346423884663821 -0.5303809582379999 0.05713167815722848 -0.110770150383991 -0.5231418818460492 0 2 322 -356 
12 0.03129496045074397 -0.1346423884663821 -0.5231418818460492 0.04880013930871623 -0.1312422235073047 -0.5167821613470901 0 2 357 -380 
$EndEntities
$Nodes
392 421 1 421
0 1 0 1
1
0.05713167815722848 -0.110770150383991 -0.5270317659264627
0 2 0 1
2
0.05708812599641048 -0.1110739620127491 -0.5272311027596293
0 3 0 1
3
0.05702402334491473 -0.1115034645229567 -0.5275132932667232
0 4 0 1
4
0.05694003625503736 -0.1120304609725139 -0.5278295026508133
0 5 0 1
5
0.05683572230851947 -0.1126430165519598 -0.5281425200144123
0 6 0 1
6
0.05671481046276894 -0.1133078985345904 -0.5284829369647023
0 7 0 1
7
0.05657687048325263 -0.1140158240881309 -0.5288455577379496
0 8 0 1
8
0.05641479289464208 -0.1147990033494125 -0.5291445772304729
0 9 0 1
9
0.0562333498227079 -0.1156268459911265 -0.5294176112374079
0 10 0 1
10
0.05603125093740954 -0.1164823327541429 -0.5296997666599649
0 11 0 1
11
0.05580779099253037 -0.1173842140054586 -0.5299140696382338
0 12 0 1
12
0.05556392717945403 -0.1183138640408365 -0.5300907838094265
0 13 0 1
13
0.05529953997267898 -0.119265317104574 -0.5302329055939059
0 14 0 1
14
0.05501478311609163 -0.1202329647708328 -0.5303384800798352
0 15 0 1
15
0.05471007043543263 -0.1212128357378406 -0.5303947208090869
0 16 0 1
16
0.05438990755972981 -0.1221999271789151 -0.5303841847740215
0 17 0 1
17
0.05405142504981082 -0.1231847640462769 -0.5303402802506473
0 18 0 1
18
0.05369654336276079 -0.1241636993975617 -0.5302622932253264
0 19 0 1
19
0.05334266993164955 -0.1251232552973645 -0.5300781536648514
0 20 0 1
20
0.05296589850444577 -0.1260686511422314 -0.5299014402806413
0 21 0 1
21
0.05259383622931192 -0.1269854154958021 -0.5296381369768295
0 22 0 1
22
0.05222028893583031 -0.1278702926524755 -0.5293268992244643
0 23 0 1
23
0.05184694719686566 -0.1287207423111035 -0.5289746426594125
0 24 0 1
24
0.05149034956845198 -0.129516646324529 -0.5285471038778023
0 25 0 1
25
0.051134242213302 -0.1302750091181414 -0.5281042703399975
0 26 0 1
26
0.05081044576645862 -0.1309680214604343 -0.5275852905486186
0 27 0 1
27
0.05049820396645999 -0.1316080093711905 -0.5270480604673741
0 28 0 1
28
0.05020180214556251 -0.132195193128726 -0.5264987785043413
0 29 0 1
29
0.04993302516298719 -0.1327143203047372 -0.5259284110194135
0 30 0 1
30
0.04968186898807284 -0.1331797796158996 -0.5253643991942816
0 31 0 1
31
0.04944391243174728 -0.1336009953540377 -0.5248273089994553
0 32 0 1
32
0.04924444342193484 -0.133943144469478 -0.5242983070318588
0 33 0 1
33
0.04906197346993142 -0.1342404974151504 -0.523825283672532
0 34 0 1
34
0.04891012236144435 -0.1344776026846752 -0.5234243297136588
0 35 0 1
35
0.04880013930871623 -0.1346423884663821 -0.5231418818460492
0 36 0 1
36
0.05713167815722848 -0.110770150383991 -0.5270317659264627
0 37 0 1
37
0.05746606953459521 -0.1106714634425425 -0.5269182786623779
0 38 0 1
38
0.05794151310474402 -0.1105300422989521 -0.5267562442868482
0 39 0 1
39
0.05851334352509166 -0.1103577624884579 -0.5265609876501515
0 40 0 1
40
0.05915349863010518 -0.1101837362286169 -0.526308001537661
0 41 0 1
41
0.05985447577493559 -0.1099893471057228 -0.5260280138779797
0 42 0 1
42
0.06061074729080619 -0.1097651056596989 -0.5257361297510639
0 43 0 1
43
0.06140978422344821 -0.1095448978545342 -0.5253888400103411
0 44 0 1
44
0.06224820825417586 -0.1093206142735248 -0.5249983981501041
0 45 0 1
45
0.06312600412835732 -0.1090757779684786 -0.524581741663332
0 46 0 1
46
0.06403049781206081 -0.1088470579545974 -0.5240979621776116
0 47 0 1
47
0.0649616775501991 -0.1086175566021043 -0.5235651549164049
0 48 0 1
48
0.06591352049998328 -0.1083918973410342 -0.5229791362109794
0 49 0 1
49
0.06687501881822143 -0.1081873174688049 -0.5223242662451946
0 50 0 1
50
0.06784703192496459 -0.1079863872503789 -0.521614829376156
0 51 0 1
51
0.06881262467778503 -0.1078167216221836 -0.5208307538500812
0 52 0 1
52
0.06977512987723007 -0.107654072862947 -0.5199898073191787
0 53 0 1
53
0.07072115676208234 -0.1075129860626376 -0.5190844768976896
0 54 0 1
54
0.07164626129171607 -0.1073889566340866 -0.5181198175115632
0 55 0 1
55
0.07254614704907322 -0.1072771281751012 -0.5171033824388812
0 56 0 1
56
0.07339821395572156 -0.1072075596552577 -0.5160213625038235
0 57 0 1
57
0.07421195210151883 -0.1071517611055549 -0.5148964731945194
0 58 0 1
58
0.07495655741495411 -0.1071512297267416 -0.5137201109373409
0 59 0 1
59
0.07563247225230076 -0.1071954258322621 -0.5125057622474085
0 60 0 1
60
0.07623447659954863 -0.1072829181736552 -0.5112655352053308
0 61 0 1
61
0.07675697465983271 -0.1074109989962938 -0.510014918893086
0 62 0 1
62
0.07717589773814051 -0.1076148397549105 -0.5087571993389163
0 63 0 1
63
0.07752568858177541 -0.107836213253577 -0.5075159655478683
0 64 0 1
64
0.07777801519382413 -0.1081086024816661 -0.5063070394860952
0 65 0 1
65
0.07795769615116468 -0.1083996415709633 -0.5051441441743633
0 66 0 1
66
0.07805802501040433 -0.1087171201731251 -0.5040423796356331
0 67 0 1
67
0.07811114172451133 -0.109025441359593 -0.503010622886506
0 68 0 1
68
0.07810874624888207 -0.1093351304394064 -0.5020684846357216
0 69 0 1
69
0.07808467344514834 -0.1096097880413176 -0.5012296768495267
0 70 0 1
70
0.07802465757025397 -0.1098617177641036 -0.5005394707373063
0 71 0 1
71
0.07797260668191322 -0.1100383479011637 -0.5000532658296738
0 72 0 1
72
0.05713167815722848 -0.110770150383991 -0.5270317659264627
0 73 0 1
73
0.05684044306583728 -0.1105685846928015 -0.5269403547403523
0 74 0 1
74
0.05642820189757817 -0.1102885297903492 -0.5268075824253815
0 75 0 1
75
0.05593644665712937 -0.1099565819128158 -0.5266506233448044
0 76 0 1
76
0.05538732722411446 -0.109583426511585 -0.5264829980249607
0 77 0 1
77
0.0547901309732181 -0.1091905987342661 -0.5262888329569821
0 78 0 1
78
0.05415300187692431 -0.108783904520344 -0.5260724044349544
0 79 0 1
79
0.05348281736731908 -0.1083592507593291 -0.5258468976478049
0 80 0 1
80
0.05278038789534192 -0.1079403410606747 -0.5255864563687481
0 81 0 1
81
0.05205224717360146 -0.1075176850956682 -0.5253090357038932
0 82 0 1
82
0.05130026752637906 -0.1070975581792261 -0.5250095794098866
0 83 0 1
83
0.05052828075283722 -0.106695040919085 -0.5246755055509196
0 84 0 1
84
0.04973913932848432 -0.1062974409425917 -0.5243222141544642
0 85 0 1
85
0.04893628301550638 -0.1059317287513047 -0.5239299073789779
0 86 0 1
86
0.04812166392767692 -0.1055727234058862 -0.5235234406711484
0 87 0 1
87
0.04729916262593859 -0.1052332042999603 -0.5230928987872805
0 88 0 1
88
0.04646976730826793 -0.1049054820856919 -0.5226473443590678
0 89 0 1
89
0.04563793790734753 -0.1046019417144071 -0.5221769215463906
0 90 0 1
90
0.04480501865832458 -0.1043280717896022 -0.5216821843502886
0 91 0 1
91
0.04397350157332158 -0.1040725740163345 -0.5211711815231552
0 92 0 1
92
0.0431433141114197 -0.1038259897534546 -0.5206516325119972
0 93 0 1
93
0.04232032801957757 -0.1036087975304587 -0.5201085078059898
0 94 0 1
94
0.04150563962436102 -0.103418847185651 -0.519547512789405
0 95 0 1
95
0.04069966637669616 -0.1032440418040262 -0.5189743178123417
0 96 0 1
96
0.07797260668191322 -0.1100383479011637 -0.5000532658296738
0 97 0 1
97
0.07802465757025397 -0.1098617177641036 -0.5005394707373063
0 98 0 1
98
0.07808467344514834 -0.1096097880413176 -0.5012296768495267
0 99 0 1
99
0.07810874624888207 -0.1093351304394064 -0.5020684846357216
0 100 0 1
100
0.07811114172451133 -0.109025441359593 -0.503010622886506
0 101 0 1
101
0.07805802501040433 -0.1087171201731251 -0.5040423796356331
0 102 0 1
102
0.07795769615116468 -0.1083996415709633 -0.5051441441743633
0 103 0 1
103
0.07777801519382413 -0.1081086024816661 -0.5063070394860952
0 104 0 1
104
0.07752568858177541 -0.107836213253577 -0.5075159655478683
0 105 0 1
105
0.07717589773814051 -0.1076148397549105 -0.5087571993389163
0 106 0 1
106
0.07675697465983271 -0.1074109989962938 -0.510014918893086
0 107 0 1
107
0.07623447659954863 -0.1072829181736552 -0.5112655352053308
0 108 0 1
108
0.07563247225230076 -0.1071954258322621 -0.5125057622474085
0 109 0 1
109
0.07495655741495411 -0.1071512297267416 -0.5137201109373409
0 110 0 1
110
0.07421195210151883 -0.1071517611055549 -0.5148964731945194
0 111 0 1
111
0.07339821395572156 -0.1072075596552577 -0.5160213625038235
0 112 0 1
112
0.07254614704907322 -0.1072771281751012 -0.5171033824388812
0 113 0 1
113
0.07164626129171607 -0.1073889566340866 -0.5181198175115632
0 114 0 1
114
0.07072115676208234 -0.1075129860626376 -0.5190844768976896
0 115 0 1
115
0.06977512987723007 -0.107654072862947 -0.5199898073191787
0 116 0 1
116
0.06881262467778503 -0.1078167216221836 -0.5208307538500812
0 117 0 1
117
0.06784703192496459 -0.1079863872503789 -0.521614829376156
0 118 0 1
118
0.06687501881822143 -0.1081873174688049 -0.5223242662451946
0 119 0 1
119
0.06591352049998328 -0.1083918973410342 -0.5229791362109794
0 120 0 1
120
0.0649616775501991 -0.1086175566021043 -0.5235651549164049
0 121 0 1
121
0.06403049781206081 -0.1088470579545974 -0.5240979621776116
0 122 0 1
122
0.06312600412835732 -0.1090757779684786 -0.524581741663332
0 123 0 1
123
0.06224820825417586 -0.1093206142735248 -0.5249983981501041
0 124 0 1
124
0.06140978422344821 -0.1095448978545342 -0.5253888400103411
0 125 0 1
125
0.06061074729080619 -0.1097651056596989 -0.5257361297510639
0 126 0 1
126
0.05985447577493559 -0.1099893471057228 -0.5260280138779797
0 127 0 1
127
0.05915349863010518 -0.1101837362286169 -0.526308001537661
0 128 0 1
128
0.05851334352509166 -0.1103577624884579 -0.5265609876501515
0 129 0 1
129
0.05794151310474402 -0.1105300422989521 -0.5267562442868482
0 130 0 1
130
0.05746606953459521 -0.1106714634425425 -0.5269182786623779
0 131 0 1
131
0.05713167815722848 -0.110770150383991 -0.5270317659264627
0 132 0 1
132
0.07797260668191322 -0.1100383479011637 -0.5000532658296738
0 133 0 1
133
0.07827722084193428 -0.1104237088913417 -0.4998767042591336
0 134 0 1
134
0.07869640442278129 -0.110989630235716 -0.4996240062177781
0 135 0 1
135
0.07918079478655307 -0.1116919693587759 -0.4993178292680616
0 136 0 1
136
0.07971810209197401 -0.112498340504927 -0.498960361163284
0 137 0 1
137
0.08026075256979512 -0.1134227479498075 -0.498571933358689
0 138 0 1
138
0.0808091483723975 -0.1144493159375679 -0.4981458250804903
0 139 0 1
139
0.08133378695382622 -0.1155825521311436 -0.4976972508764882
0 140 0 1
140
0.08181483813223552 -0.1168248205588535 -0.4972302082372546
0 141 0 1
141
0.08224098317849036 -0.1181662283895302 -0.4967433017733119
0 142 0 1
142
0.08258020735436783 -0.1196080864532765 -0.4962536806108016
0 143 0 1
143
0.08279122891140385 -0.1211464466818432 -0.4957941622872107
0 144 0 1
144
0.08286319205423215 -0.1227581911494719 -0.4953711816505683
0 145 0 1
145
0.08275870544014147 -0.1244195553203396 -0.4950141053371185
0 146 0 1
146
0.08249390010992295 -0.1261013528294827 -0.4947210304165777
0 147 0 1
147
0.08206456156376096 -0.12778794126296 -0.4944915021060565
0 148 0 1
148
0.08150871462754689 -0.1294553054021117 -0.494301350791321
0 149 0 1
149
0.08083583023402761 -0.1310846498340532 -0.4941474554296993
0 150 0 1
150
0.0800656308655664 -0.1326620481876936 -0.4940188895110672
0 151 0 1
151
0.07921647344025885 -0.1341795242300871 -0.493909078291959
0 152 0 1
152
0.07830262298861199 -0.1356321790229841 -0.493815542136961
0 153 0 1
153
0.07732687673465632 -0.1370069095426825 -0.4937462183127539
0 154 0 1
154
0.07630877356302718 -0.1383046682892186 -0.4936961788594877
0 155 0 1
155
0.07519659104046435 -0.1394713341009045 -0.493722422829653
0 156 0 1
156
0.07403896464259181 -0.1405278570938926 -0.4937900830301615
0 157 0 1
157
0.0728124972584852 -0.1414126936865889 -0.4939521158537181
0 158 0 1
158
0.07156187997710069 -0.1420482382565403 -0.4942106039169871
0 159 0 1
159
0.07031827178401287 -0.1424779278411707 -0.4945406923954162
0 160 0 1
160
0.06913600294140632 -0.1427700958774647 -0.4948919665971932
0 161 0 1
161
0.06803883559344095 -0.1429909344502368 -0.495223251461077
0 162 0 1
162
0.06702795277237904 -0.1431242469976329 -0.4955452024799242
0 163 0 1
163
0.06611818632317859 -0.1432186720223576 -0.4958367684268873
0 164 0 1
164
0.06532091493105865 -0.1432874648813129 -0.4960909274753577
0 165 0 1
165
0.06467072293471117 -0.1432978045293182 -0.4963151785132784
0 166 0 1
166
0.06421709288664951 -0.1433042452808644 -0.4964698186607848
0 167 0 1
167
0.07797260668191322 -0.1100383479011637 -0.5000532658296738
0 168 0 1
168
0.07761662792580523 -0.1098282777559216 -0.4997421571107779
0 169 0 1
169
0.07711897230157122 -0.1095318957684727 -0.4993097759183038
0 170 0 1
170
0.07651711763810153 -0.1091928193402884 -0.498808972920406
0 171 0 1
171
0.07585650474208268 -0.1088091190821144 -0.4982556459047994
0 172 0 1
172
0.075148543484685 -0.1083926538012495 -0.4976663351752829
0 173 0 1
173
0.0743871396297255 -0.1079630817351603 -0.4970587784163911
0 174 0 1
174
0.07358153435805814 -0.1075277589175267 -0.4964386728566391
0 175 0 1
175
0.07273984890046679 -0.1070850442867818 -0.4958094707899784
0 176 0 1
176
0.07185839117903768 -0.106647208384081 -0.4951818881844558
0 177 0 1
177
0.07094489951396772 -0.1062109364068702 -0.4945573750785605
0 178 0 1
178
0.07000418185923139 -0.1057773999455669 -0.4939395749141816
0 179 0 1
179
0.06902738713181242 -0.1053648170996543 -0.4933374442534108
0 180 0 1
180
0.0680053435366085 -0.1049955514910866 -0.4927636827677875
0 181 0 1
181
0.06695837447458206 -0.1046481335262537 -0.4922111675958892
0 182 0 1
182
0.06588070032733459 -0.1043397897178326 -0.4916884555126683
0 183 0 1
183
0.06478154587967706 -0.1040693576238094 -0.4912015867487953
0 184 0 1
184
0.06366843629488365 -0.1038331242478562 -0.4907426734505038
0 185 0 1
185
0.06254137255354343 -0.10365107939551 -0.4903323448105033
0 186 0 1
186
0.06141008322629726 -0.1035018204087126 -0.4899543906714462
0 187 0 1
187
0.06028314868780067 -0.103383305018374 -0.4896030126012896
0 188 0 1
188
0.0591542773554658 -0.103327982267496 -0.4893055898404364
0 189 0 1
189
0.05804142224323178 -0.1032959697999284 -0.489027804352611
0 190 0 1
190
0.05694050834283154 -0.1033271462345896 -0.4887923702908906
0 191 0 1
191
0.06421709288664951 -0.1433042452808644 -0.4964698186607848
0 192 0 1
192
0.06411395451361319 -0.1434750836194116 -0.4969030053063539
0 193 0 1
193
0.06395878104855644 -0.143724245189058 -0.4975094787689956
0 194 0 1
194
0.063760908293095 -0.1440182859892546 -0.4982321524267543
0 195 0 1
195
0.0635236340621774 -0.1443271207752073 -0.499045541061925
0 196 0 1
196
0.06324563358554236 -0.1446550620011816 -0.4999259772773785
0 197 0 1
197
0.0629269535942278 -0.1449836694224934 -0.5008662781479081
0 198 0 1
198
0.06256485286601823 -0.1453175418725234 -0.5018534421901742
0 199 0 1
199
0.06216369657562151 -0.1456126869582859 -0.5028932527248619
0 200 0 1
200
0.06171445552422687 -0.1459029193607142 -0.5039648469012455
0 201 0 1
201
0.06124117554705368 -0.1460737257638142 -0.5050893991067607
0 202 0 1
202
0.06072256796185643 -0.1462071728702677 -0.5062337346612623
0 203 0 1
203
0.06020495428923873 -0.1461604608267143 -0.5074072676097077
0 204 0 1
204
0.05965693604095564 -0.1460411253908606 -0.5085785723671744
0 205 0 1
205
0.05913526049294846 -0.1457277671661636 -0.5097305213652346
0 206 0 1
206
0.05858744876184053 -0.145371012616171 -0.5108536642142137
0 207 0 1
207
0.05804656991353321 -0.1449032827341418 -0.5119348372962009
0 208 0 1
208
0.05748862971035283 -0.1444000832696435 -0.5129754382131084
0 209 0 1
209
0.05692098392864674 -0.1438551600270755 -0.5139698334502656
0 210 0 1
210
0.05634219603892628 -0.1432829855717719 -0.5149163336328043
0 211 0 1
211
0.05575402491593774 -0.1426915906666831 -0.5158130794182585
0 212 0 1
212
0.05515592793901884 -0.1420937376099067 -0.5166602303369994
0 213 0 1
213
0.05455515461553271 -0.1414895526852045 -0.5174551632773068
0 214 0 1
214
0.0539633318055533 -0.1408727688145999 -0.5181942457990468
0 215 0 1
215
0.0533844314771233 -0.1402486236278485 -0.5188769430819619
0 216 0 1
216
0.05280800453077496 -0.1396454312838489 -0.5195135750710679
0 217 0 1
217
0.05226752204949721 -0.1390219735535964 -0.5200872491415823
0 218 0 1
218
0.05174950023272248 -0.1384081919396395 -0.5206106070383688
0 219 0 1
219
0.05126433162756003 -0.1377983080396044 -0.5210793649634808
0 220 0 1
220
0.05079283247430713 -0.1372279259507208 -0.5215126169434853
0 221 0 1
221
0.05035364666916135 -0.1366796543441046 -0.5218993685260734
0 222 0 1
222
0.04996281288159389 -0.1361426500295488 -0.5222284884033225
0 223 0 1
223
0.04960196547413834 -0.1356547617905401 -0.5225214956895017
0 224 0 1
224
0.04926483153701793 -0.1352443077296666 -0.522789590091509
0 225 0 1
225
0.04898600199934086 -0.134899550562212 -0.5230056200588896
0 226 0 1
226
0.04880013930871623 -0.1346423884663821 -0.5231418818460492
0 227 0 1
227
0.06421709288664951 -0.1433042452808644 -0.4964698186607848
0 228 0 1
228
0.06386707654592047 -0.1431400394120555 -0.4961915765196638
0 229 0 1
229
0.06337659432660463 -0.1428813676373883 -0.4958186003720275
0 230 0 1
230
0.06279620671769925 -0.1425594640672174 -0.495394107297627
0 231 0 1
231
0.0621511426005994 -0.1421941754026907 -0.4949388475281897
0 232 0 1
232
0.06146160033172726 -0.1417750120193798 -0.4944786032067692
0 233 0 1
233
0.06073700431123289 -0.1413147680375824 -0.4940192122712992
0 234 0 1
234
0.05998607355320602 -0.1408195460841687 -0.4935680654738556
0 235 0 1
235
0.059213186566189 -0.1402987036568269 -0.4931271962918344
0 236 0 1
236
0.05842501193993662 -0.139752900293634 -0.4927027740668708
0 237 0 1
237
0.05761914718605251 -0.1392041127131815 -0.4922853477319075
0 238 0 1
238
0.05680394957065681 -0.1386409505484224 -0.491886233101201
0 239 0 1
239
0.05597773006194427 -0.1380792091187215 -0.4914980253685995
0 240 0 1
240
0.05514176024770283 -0.1375240998554731 -0.4911191319200184
0 241 0 1
241
0.05429187648243471 -0.136999073586993 -0.4907336828720718
0 242 0 1
242
0.05344029739286442 -0.1364696560095566 -0.49036910301491
0 243 0 1
243
0.05258107467577662 -0.1359638302098949 -0.4900036642860726
0 244 0 1
244
0.05171555963929769 -0.1354819121538841 -0.4896368614660326
0 245 0 1
245
0.05084251873806744 -0.1350443766086704 -0.4892504035084875
0 246 0 1
246
0.04997141135285268 -0.1345916944187861 -0.4888972582324694
0 247 0 1
247
0.0490969257805634 -0.1341589141731327 -0.488544835274178
0 248 0 1
248
0.0482197756034291 -0.1337786558211116 -0.4881602502850652
0 249 0 1
249
0.04733883648624826 -0.1334393953474256 -0.4877542929693239
0 250 0 1
250
0.046451356262 -0.133110716939 -0.487359523773
0 251 0 1
251
0.06421709288664951 -0.1433042452808644 -0.4964698186607848
0 252 0 1
252
0.06467072293471117 -0.1432978045293182 -0.4963151785132784
0 253 0 1
253
0.06532091493105865 -0.1432874648813129 -0.4960909274753577
0 254 0 1
254
0.06611818632317859 -0.1432186720223576 -0.4958367684268873
0 255 0 1
255
0.06702795277237904 -0.1431242469976329 -0.4955452024799242
0 256 0 1
256
0.06803883559344095 -0.1429909344502368 -0.495223251461077
0 257 0 1
257
0.06913600294140632 -0.1427700958774647 -0.4948919665971932
0 258 0 1
258
0.07031827178401287 -0.1424779278411707 -0.4945406923954162
0 259 0 1
259
0.07156187997710069 -0.1420482382565403 -0.4942106039169871
0 260 0 1
260
0.0728124972584852 -0.1414126936865889 -0.4939521158537181
0 261 0 1
261
0.07403896464259181 -0.1405278570938926 -0.4937900830301615
0 262 0 1
262
0.07519659104046435 -0.1394713341009045 -0.493722422829653
0 263 0 1
263
0.07630877356302718 -0.1383046682892186 -0.4936961788594877
0 264 0 1
264
0.07732687673465632 -0.1370069095426825 -0.4937462183127539
0 265 0 1
265
0.07830262298861199 -0.1356321790229841 -0.493815542136961
0 266 0 1
266
0.07921647344025885 -0.1341795242300871 -0.493909078291959
0 267 0 1
267
0.0800656308655664 -0.1326620481876936 -0.4940188895110672
0 268 0 1
268
0.08083583023402761 -0.1310846498340532 -0.4941474554296993
0 269 0 1
269
0.08150871462754689 -0.1294553054021117 -0.494301350791321
0 270 0 1
270
0.08206456156376096 -0.12778794126296 -0.4944915021060565
0 271 0 1
271
0.08249390010992295 -0.1261013528294827 -0.4947210304165777
0 272 0 1
272
0.08275870544014147 -0.1244195553203396 -0.4950141053371185
0 273 0 1
273
0.08286319205423215 -0.1227581911494719 -0.4953711816505683
0 274 0 1
274
0.08279122891140385 -0.1211464466818432 -0.4957941622872107
0 275 0 1
275
0.08258020735436783 -0.1196080864532765 -0.4962536806108016
0 276 0 1
276
0.08224098317849036 -0.1181662283895302 -0.4967433017733119
0 277 0 1
277
0.08181483813223552 -0.1168248205588535 -0.4972302082372546
0 278 0 1
278
0.08133378695382622 -0.1155825521311436 -0.4976972508764882
0 279 0 1
279
0.0808091483723975 -0.1144493159375679 -0.4981458250804903
0 280 0 1
280
0.08026075256979512 -0.1134227479498075 -0.498571933358689
0 281 0 1
281
0.07971810209197401 -0.112498340504927 -0.498960361163284
0 282 0 1
282
0.07918079478655307 -0.1116919693587759 -0.4993178292680616
0 283 0 1
283
0.07869640442278129 -0.110989630235716 -0.4996240062177781
0 284 0 1
284
0.07827722084193428 -0.1104237088913417 -0.4998767042591336
0 285 0 1
285
0.07797260668191322 -0.1100383479011637 -0.5000532658296738
0 286 0 1
286
0.04880013930871623 -0.1346423884663821 -0.5231418818460492
0 287 0 1
287
0.04898600199934086 -0.134899550562212 -0.5230056200588896
0 288 0 1
288
0.04926483153701793 -0.1352443077296666 -0.522789590091509
0 289 0 1
289
0.04960196547413834 -0.1356547617905401 -0.5225214956895017
0 290 0 1
290
0.04996281288159389 -0.1361426500295488 -0.5222284884033225
0 291 0 1
291
0.05035364666916135 -0.1366796543441046 -0.5218993685260734
0 292 0 1
292
0.05079283247430713 -0.1372279259507208 -0.5215126169434853
0 293 0 1
293
0.05126433162756003 -0.1377983080396044 -0.5210793649634808
0 294 0 1
294
0.05174950023272248 -0.1384081919396395 -0.5206106070383688
0 295 0 1
295
0.05226752204949721 -0.1390219735535964 -0.5200872491415823
0 296 0 1
296
0.05280800453077496 -0.1396454312838489 -0.5195135750710679
0 297 0 1
297
0.0533844314771233 -0.1402486236278485 -0.5188769430819619
0 298 0 1
298
0.0539633318055533 -0.1408727688145999 -0.5181942457990468
0 299 0 1
299
0.05455515461553271 -0.1414895526852045 -0.5174551632773068
0 300 0 1
300
0.05515592793901884 -0.1420937376099067 -0.5166602303369994
0 301 0 1
301
0.05575402491593774 -0.1426915906666831 -0.5158130794182585
0 302 0 1
302
0.05634219603892628 -0.1432829855717719 -0.5149163336328043
0 303 0 1
303
0.05692098392864674 -0.1438551600270755 -0.5139698334502656
0 304 0 1
304
0.05748862971035283 -0.1444000832696435 -0.5129754382131084
0 305 0 1
305
0.05804656991353321 -0.1449032827341418 -0.5119348372962009
0 306 0 1
306
0.05858744876184053 -0.145371012616171 -0.5108536642142137
0 307 0 1
307
0.05913526049294846 -0.1457277671661636 -0.5097305213652346
0 308 0 1
308
0.05965693604095564 -0.1460411253908606 -0.5085785723671744
0 309 0 1
309
0.06020495428923873 -0.1461604608267143 -0.5074072676097077
0 310 0 1
310
0.06072256796185643 -0.1462071728702677 -0.5062337346612623
0 311 0 1
311
0.06124117554705368 -0.1460737257638142 -0.5050893991067607
0 312 0 1
312
0.06171445552422687 -0.1459029193607142 -0.5039648469012455
0 313 0 1
313
0.06216369657562151 -0.1456126869582859 -0.5028932527248619
0 314 0 1
314
0.06256485286601823 -0.1453175418725234 -0.5018534421901742
0 315 0 1
315
0.0629269535942278 -0.1449836694224934 -0.5008662781479081
0 316 0 1
316
0.06324563358554236 -0.1446550620011816 -0.4999259772773785
0 317 0 1
317
0.0635236340621774 -0.1443271207752073 -0.499045541061925
0 318 0 1
318
0.063760908293095 -0.1440182859892546 -0.4982321524267543
0 319 0 1
319
0.06395878104855644 -0.143724245189058 -0.4975094787689956
0 320 0 1
320
0.06411395451361319 -0.1434750836194116 -0.4969030053063539
0 321 0 1
321
0.06421709288664951 -0.1433042452808644 -0.4964698186607848
0 322 0 1
322
0.04880013930871623 -0.1346423884663821 -0.5231418818460492
0 323 0 1
323
0.04891012236144435 -0.1344776026846752 -0.5234243297136588
0 324 0 1
324
0.04906197346993142 -0.1342404974151504 -0.523825283672532
0 325 0 1
325
0.04924444342193484 -0.133943144469478 -0.5242983070318588
0 326 0 1
326
0.04944391243174728 -0.1336009953540377 -0.5248273089994553
0 327 0 1
327
0.04968186898807284 -0.1331797796158996 -0.5253643991942816
0 328 0 1
328
0.04993302516298719 -0.1327143203047372 -0.5259284110194135
0 329 0 1
329
0.05020180214556251 -0.132195193128726 -0.5264987785043413
0 330 0 1
330
0.05049820396645999 -0.1316080093711905 -0.5270480604673741
0 331 0 1
331
0.05081044576645862 -0.1309680214604343 -0.5275852905486186
0 332 0 1
332
0.051134242213302 -0.1302750091181414 -0.5281042703399975
0 333 0 1
333
0.05149034956845198 -0.129516646324529 -0.5285471038778023
0 334 0 1
334
0.05184694719686566 -0.1287207423111035 -0.5289746426594125
0 335 0 1
335
0.05222028893583031 -0.1278702926524755 -0.5293268992244643
0 336 0 1
336
0.05259383622931192 -0.1269854154958021 -0.5296381369768295
0 337 0 1
337
0.05296589850444577 -0.1260686511422314 -0.5299014402806413
0 338 0 1
338
0.05334266993164955 -0.1251232552973645 -0.5300781536648514
0 339 0 1
339
0.05369654336276079 -0.1241636993975617 -0.5302622932253264
0 340 0 1
340
0.05405142504981082 -0.1231847640462769 -0.5303402802506473
0 341 0 1
341
0.05438990755972981 -0.1221999271789151 -0.5303841847740215
0 342 0 1
342
0.05471007043543263 -0.1212128357378406 -0.5303947208090869
0 343 0 1
343
0.05501478311609163 -0.1202329647708328 -0.5303384800798352
0 344 0 1
344
0.05529953997267898 -0.119265317104574 -0.5302329055939059
0 345 0 1
345
0.05556392717945403 -0.1183138640408365 -0.5300907838094265
0 346 0 1
346
0.05580779099253037 -0.1173842140054586 -0.5299140696382338
0 347 0 1
347
0.05603125093740954 -0.1164823327541429 -0.5296997666599649
0 348 0 1
348
0.0562333498227079 -0.1156268459911265 -0.5294176112374079
0 349 0 1
349
0.05641479289464208 -0.1147990033494125 -0.5291445772304729
0 350 0 1
350
0.05657687048325263 -0.1140158240881309 -0.5288455577379496
0 351 0 1
351
0.05671481046276894 -0.1133078985345904 -0.5284829369647023
0 352 0 1
352
0.05683572230851947 -0.1126430165519598 -0.5281425200144123
0 353 0 1
353
0.05694003625503736 -0.1120304609725139 -0.5278295026508133
0 354 0 1
354
0.05702402334491473 -0.1115034645229567 -0.5275132932667232
0 355 0 1
355
0.05708812599641048 -0.1110739620127491 -0.5272311027596293
0 356 0 1
356
0.05713167815722848 -0.110770150383991 -0.5270317659264627
0 357 0 1
357
0.04880013930871623 -0.1346423884663821 -0.5231418818460492
0 358 0 1
358
0.04850413342400155 -0.1345497993077515 -0.5229958031708873
0 359 0 1
359
0.04808968629236553 -0.134419288839618 -0.5227922744106591
0 360 0 1
360
0.04758605433764208 -0.1342798844890131 -0.5225669893889969
0 361 0 1
361
0.04702403730039904 -0.1341276142912911 -0.5223203205931549
0 362 0 1
362
0.0464185514133602 -0.1339620170407909 -0.5220556322238122
0 363 0 1
363
0.04577524293219594 -0.1337889133326649 -0.5217794564030265
0 364 0 1
364
0.04508732125707647 -0.1336321116593421 -0.5215110666534831
0 365 0 1
365
0.04437303093677408 -0.1334660919567243 -0.5212316665950668
0 366 0 1
366
0.04363247888009689 -0.133297665902426 -0.5209469033085519
0 367 0 1
367
0.04285853041100453 -0.1331479423373858 -0.5206721787328189
0 368 0 1
368
0.04206465094990069 -0.1329925541419195 -0.5203899780306914
0 369 0 1
369
0.04124770590285359 -0.1328432052301718 -0.5201084680319381
0 370 0 1
370
0.04040883193096532 -0.1327011899865515 -0.5198280813360165
0 371 0 1
371
0.03955367350021034 -0.1325566552381317 -0.5195419005795504
0 372 0 1
372
0.03867868662073428 -0.13242239122671 -0.5192582703441518
0 373 0 1
373
0.0377892788747887 -0.132287268839147 -0.518969572999879
0 374 0 1
374
0.0368861118006841 -0.1321529095745596 -0.5186768782615777
0 375 0 1
375
0.03597094127324576 -0.1320175686696838 -0.5183791414323812
0 376 0 1
376
0.03504542308307614 -0.1318803111514264 -0.5180760866388215
0 377 0 1
377
0.03411271370424437 -0.1317359094752333 -0.5177648753588421
0 378 0 1
378
0.03317459076540052 -0.1315839096660816 -0.5174461719548668
0 379 0 1
379
0.03223281914823054 -0.1314238492511583 -0.5171209315361106
0 380 0 1
380
0.03129496045074397 -0.1312422235073047 -0.5167821613470901
1 1 0 3
381
382
383
0.05586335132871067 -0.1171646304243922 -0.5298666853748445
0.05377133446429116 -0.1239593691253258 -0.5302862332019042
0.05116491744434824 -0.130209688248361 -0.5281467901621268
1 2 0 4
384
385
386
387
0.06385690786978478 -0.1088902489796151 -0.5241937430939336
0.0698936255806076 -0.1076353962291495 -0.5198807652946572
0.07471129852548336 -0.107145991995751 -0.5141245551593475
0.07759095691806438 -0.1078941506099856 -0.5072387266201926
1 3 0 2
388
389
0.0517166684360698 -0.1073275176185163 -0.5251777377011506
0.04616619959249877 -0.1047915904951154 -0.5224784001253348
1 4 0 4
390
391
392
393
0.077590956914694 -0.1078941506067616 -0.5072387266351289
0.07471129850054144 -0.1071459919954657 -0.5141245551996309
0.06989362555338829 -0.107635396233399 -0.5198807653198474
0.0638569078442265 -0.1088902489859619 -0.5241937431079746
1 5 0 5
394
395
396
397
398
0.08159412277042327 -0.1162259613446596 -0.4974528853996673
0.08284383576013667 -0.1233794488039916 -0.4952290276888837
0.08101125140403152 -0.1306873690144496 -0.4941828019505941
0.07714299959573306 -0.1372528098908426 -0.4937347478664549
0.07140266061700633 -0.1421139429045928 -0.4942490366205072
1 6 0 3
399
400
401
0.07349499900869876 -0.1074816289422963 -0.4963730782246973
0.06858909731111421 -0.1052006697084882 -0.4930857784140819
0.06301265339765684 -0.1037219668972602 -0.4904987984087339
1 7 0 4
402
403
404
405
0.06218828367654931 -0.1455957419966105 -0.5028319904784233
0.05936661248765439 -0.1458801014934397 -0.5092234836099533
0.05629633701507933 -0.1432371915060374 -0.514988572075501
0.05264029824373952 -0.1394570460378385 -0.519694258658928
1 8 0 2
406
407
0.05863564221633347 -0.1398984676558892 -0.4928143756335202
0.05277669374568582 -0.1360765593954392 -0.4900867270256333
1 9 0 5
408
409
410
411
412
0.07140266064893291 -0.1421139428918574 -0.4942490366126364
0.07714299965473106 -0.1372528098122484 -0.4937347478702229
0.08101125145039867 -0.1306873689073456 -0.4941828019602418
0.08284383576406747 -0.1233794487275559 -0.4952290277056851
0.08159412275937732 -0.1162259613160389 -0.4974528854103998
1 10 0 4
413
414
415
416
0.05264029825952656 -0.1394570460559169 -0.5196942586420228
0.05629633704631897 -0.1432371915372771 -0.5149885720264259
0.05936661249049748 -0.1458801014953057 -0.5092234836035997
0.06218828366569 -0.1455957420041047 -0.502831990505575
1 11 0 3
417
418
419
0.05116491746310276 -0.1302096882085126 -0.5281467901876197
0.05377133449145608 -0.123959369051136 -0.5302862332093887
0.05586335133813078 -0.1171646303868629 -0.5298666853666185
1 12 0 2
420
421
0.04312903726298488 -0.1331994221336569 -0.5207673721077605
0.03721253437693969 -0.1322012939568447 -0.5187827297847906
$EndNodes
$Elements
392 433 1 433
0 1 15 1
1 1 
0 2 15 1
2 2 
0 3 15 1
3 3 
0 4 15 1
4 4 
0 5 15 1
5 5 
0 6 15 1
6 6 
0 7 15 1
7 7 
0 8 15 1
8 8 
0 9 15 1
9 9 
0 10 15 1
10 10 
0 11 15 1
11 11 
0 12 15 1
12 12 
0 13 15 1
13 13 
0 14 15 1
14 14 
0 15 15 1
15 15 
0 16 15 1
16 16 
0 17 15 1
17 17 
0 18 15 1
18 18 
0 19 15 1
19 19 
0 20 15 1
20 20 
0 21 15 1
21 21 
0 22 15 1
22 22 
0 23 15 1
23 23 
0 24 15 1
24 24 
0 25 15 1
25 25 
0 26 15 1
26 26 
0 27 15 1
27 27 
0 28 15 1
28 28 
0 29 15 1
29 29 
0 30 15 1
30 30 
0 31 15 1
31 31 
0 32 15 1
32 32 
0 33 15 1
33 33 
0 34 15 1
34 34 
0 35 15 1
35 35 
0 36 15 1
36 36 
0 37 15 1
37 37 
0 38 15 1
38 38 
0 39 15 1
39 39 
0 40 15 1
40 40 
0 41 15 1
41 41 
0 42 15 1
42 42 
0 43 15 1
43 43 
0 44 15 1
44 44 
0 45 15 1
45 45 
0 46 15 1
46 46 
0 47 15 1
47 47 
0 48 15 1
48 48 
0 49 15 1
49 49 
0 50 15 1
50 50 
0 51 15 1
51 51 
0 52 15 1
52 52 
0 53 15 1
53 53 
0 54 15 1
54 54 
0 55 15 1
55 55 
0 56 15 1
56 56 
0 57 15 1
57 57 
0 58 15 1
58 58 
0 59 15 1
59 59 
0 60 15 1
60 60 
0 61 15 1
61 61 
0 62 15 1
62 62 
0 63 15 1
63 63 
0 64 15 1
64 64 
0 65 15 1
65 65 
0 66 15 1
66 66 
0 67 15 1
67 67 
0 68 15 1
68 68 
0 69 15 1
69 69 
0 70 15 1
70 70 
0 71 15 1
71 71 
0 72 15 1
72 72 
0 73 15 1
73 73 
0 74 15 1
74 74 
0 75 15 1
75 75 
0 76 15 1
76 76 
0 77 15 1
77 77 
0 78 15 1
78 78 
0 79 15 1
79 79 
0 80 15 1
80 80 
0 81 15 1
81 81 
0 82 15 1
82 82 
0 83 15 1
83 83 
0 84 15 1
84 84 
0 85 15 1
85 85 
0 86 15 1
86 86 
0 87 15 1
87 87 
0 88 15 1
88 88 
0 89 15 1
89 89 
0 90 15 1
90 90 
0 91 15 1
91 91 
0 92 15 1
92 92 
0 93 15 1
93 93 
0 94 15 1
94 94 
0 95 15 1
95 95 
0 96 15 1
96 96 
0 97 15 1
97 97 
0 98 15 1
98 98 
0 99 15 1
99 99 
0 100 15 1
100 100 
0 101 15 1
101 101 
0 102 15 1
102 102 
0 103 15 1
103 103 
0 104 15 1
104 104 
0 105 15 1
105 105 
0 106 15 1
106 106 
0 107 15 1
107 107 
0 108 15 1
108 108 
0 109 15 1
109 109 
0 110 15 1
110 110 
0 111 15 1
111 111 
0 112 15 1
112 112 
0 113 15 1
113 113 
0 114 15 1
114 114 
0 115 15 1
115 115 
0 116 15 1
116 116 
0 117 15 1
117 117 
0 118 15 1
118 118 
0 119 15 1
119 119 
0 120 15 1
120 120 
0 121 15 1
121 121 
0 122 15 1
122 122 
0 123 15 1
123 123 
0 124 15 1
124 124 
0 125 15 1
125 125 
0 126 15 1
126 126 
0 127 15 1
127 127 
0 128 15 1
128 128 
0 129 15 1
129 129 
0 130 15 1
130 130 
0 131 15 1
131 131 
0 132 15 1
132 132 
0 133 15 1
133 133 
0 134 15 1
134 134 
0 135 15 1
135 135 
0 136 15 1
136 136 
0 137 15 1
137 137 
0 138 15 1
138 138 
0 139 15 1
139 139 
0 140 15 1
140 140 
0 141 15 1
141 141 
0 142 15 1
142 142 
0 143 15 1
143 143 
0 144 15 1
144 144 
0 145 15 1
145 145 
0 146 15 1
146 146 
0 147 15 1
147 147 
0 148 15 1
148 148 
0 149 15 1
149 149 
0 150 15 1
150 150 
0 151 15 1
151 151 
0 152 15 1
152 152 
0 153 15 1
153 153 
0 154 15 1
154 154 
0 155 15 1
155 155 
0 156 15 1
156 156 
0 157 15 1
157 157 
0 158 15 1
158 158 
0 159 15 1
159 159 
0 160 15 1
160 160 
0 161 15 1
161 161 
0 162 15 1
162 162 
0 163 15 1
163 163 
0 164 15 1
164 164 
0 165 15 1
165 165 
0 166 15 1
166 166 
0 167 15 1
167 167 
0 168 15 1
168 168 
0 169 15 1
169 169 
0 170 15 1
170 170 
0 171 15 1
171 171 
0 172 15 1
172 172 
0 173 15 1
173 173 
0 174 15 1
174 174 
0 175 15 1
175 175 
0 176 15 1
176 176 
0 177 15 1
177 177 
0 178 15 1
178 178 
0 179 15 1
179 179 
0 180 15 1
180 180 
0 181 15 1
181 181 
0 182 15 1
182 182 
0 183 15 1
183 183 
0 184 15 1
184 184 
0 185 15 1
185 185 
0 186 15 1
186 186 
0 187 15 1
187 187 
0 188 15 1
188 188 
0 189 15 1
189 189 
0 190 15 1
190 190 
0 191 15 1
191 191 
0 192 15 1
192 192 
0 193 15 1
193 193 
0 194 15 1
194 194 
0 195 15 1
195 195 
0 196 15 1
196 196 
0 197 15 1
197 197 
0 198 15 1
198 198 
0 199 15 1
199 199 
0 200 15 1
200 200 
0 201 15 1
201 201 
0 202 15 1
202 202 
0 203 15 1
203 203 
0 204 15 1
204 204 
0 205 15 1
205 205 
0 206 15 1
206 206 
0 207 15 1
207 207 
0 208 15 1
208 208 
0 209 15 1
209 209 
0 210 15 1
210 210 
0 211 15 1
211 211 
0 212 15 1
212 212 
0 213 15 1
213 213 
0 214 15 1
214 214 
0 215 15 1
215 215 
0 216 15 1
216 216 
0 217 15 1
217 217 
0 218 15 1
218 218 
0 219 15 1
219 219 
0 220 15 1
220 220 
0 221 15 1
221 221 
0 222 15 1
222 222 
0 223 15 1
223 223 
0 224 15 1
224 224 
0 225 15 1
225 225 
0 226 15 1
226 226 
0 227 15 1
227 227 
0 228 15 1
228 228 
0 229 15 1
229 229 
0 230 15 1
230 230 
0 231 15 1
231 231 
0 232 15 1
232 232 
0 233 15 1
233 233 
0 234 15 1
234 234 
0 235 15 1
235 235 
0 236 15 1
236 236 
0 237 15 1
237 237 
0 238 15 1
238 238 
0 239 15 1
239 239 
0 240 15 1
240 240 
0 241 15 1
241 241 
0 242 15 1
242 242 
0 243 15 1
243 243 
0 244 15 1
244 244 
0 245 15 1
245 245 
0 246 15 1
246 246 
0 247 15 1
247 247 
0 248 15 1
248 248 
0 249 15 1
249 249 
0 250 15 1
250 250 
0 251 15 1
251 251 
0 252 15 1
252 252 
0 253 15 1
253 253 
0 254 15 1
254 254 
0 255 15 1
255 255 
0 256 15 1
256 256 
0 257 15 1
257 257 
0 258 15 1
258 258 
0 259 15 1
259 259 
0 260 15 1
260 260 
0 261 15 1
261 261 
0 262 15 1
262 262 
0 263 15 1
263 263 
0 264 15 1
264 264 
0 265 15 1
265 265 
0 266 15 1
266 266 
0 267 15 1
267 267 
0 268 15 1
268 268 
0 269 15 1
269 269 
0 270 15 1
270 270 
0 271 15 1
271 271 
0 272 15 1
272 272 
0 273 15 1
273 273 
0 274 15 1
274 274 
0 275 15 1
275 275 
0 276 15 1
276 276 
0 277 15 1
277 277 
0 278 15 1
278 278 
0 279 15 1
279 279 
0 280 15 1
280 280 
0 281 15 1
281 281 
0 282 15 1
282 282 
0 283 15 1
283 283 
0 284 15 1
284 284 
0 285 15 1
285 285 
0 286 15 1
286 286 
0 287 15 1
287 287 
0 288 15 1
288 288 
0 289 15 1
289 289 
0 290 15 1
290 290 
0 291 15 1
291 291 
0 292 15 1
292 292 
0 293 15 1
293 293 
0 294 15 1
294 294 
0 295 15 1
295 295 
0 296 15 1
296 296 
0 297 15 1
297 297 
0 298 15 1
298 298 
0 299 15 1
299 299 
0 300 15 1
300 300 
0 301 15 1
301 301 
0 302 15 1
302 302 
0 303 15 1
303 303 
0 304 15 1
304 304 
0 305 15 1
305 305 
0 306 15 1
306 306 
0 307 15 1
307 307 
0 308 15 1
308 308 
0 309 15 1
309 309 
0 310 15 1
310 310 
0 311 15 1
311 311 
0 312 15 1
312 312 
0 313 15 1
313 313 
0 314 15 1
314 314 
0 315 15 1
315 315 
0 316 15 1
316 316 
0 317 15 1
317 317 
0 318 15 1
318 318 
0 319 15 1
319 319 
0 320 15 1
320 320 
0 321 15 1
321 321 
0 322 15 1
322 322 
0 323 15 1
323 323 
0 324 15 1
324 324 
0 325 15 1
325 325 
0 326 15 1
326 326 
0 327 15 1
327 327 
0 328 15 1
328 328 
0 329 15 1
329 329 
0 330 15 1
330 330 
0 331 15 1
331 331 
0 332 15 1
332 332 
0 333 15 1
333 333 
0 334 15 1
334 334 
0 335 15 1
335 335 
0 336 15 1
336 336 
0 337 15 1
337 337 
0 338 15 1
338 338 
0 339 15 1
339 339 
0 340 15 1
340 340 
0 341 15 1
341 341 
0 342 15 1
342 342 
0 343 15 1
343 343 
0 344 15 1
344 344 
0 345 15 1
345 345 
0 346 15 1
346 346 
0 347 15 1
347 347 
0 348 15 1
348 348 
0 349 15 1
349 349 
0 350 15 1
350 350 
0 351 15 1
351 351 
0 352 15 1
352 352 
0 353 15 1
353 353 
0 354 15 1
354 354 
0 355 15 1
355 355 
0 356 15 1
356 356 
0 357 15 1
357 357 
0 358 15 1
358 358 
0 359 15 1
359 359 
0 360 15 1
360 360 
0 361 15 1
361 361 
0 362 15 1
362 362 
0 363 15 1
363 363 
0 364 15 1
364 364 
0 365 15 1
365 365 
0 366 15 1
366 366 
0 367 15 1
367 367 
0 368 15 1
368 368 
0 369 15 1
369 369 
0 370 15 1
370 370 
0 371 15 1
371 371 
0 372 15 1
372 372 
0 373 15 1
373 373 
0 374 15 1
374 374 
0 375 15 1
375 375 
0 376 15 1
376 376 
0 377 15 1
377 377 
0 378 15 1
378 378 
0 379 15 1
379 379 
0 380 15 1
380 380 
1 1 1 4
381 1 381 
382 381 382 
383 382 383 
384 383 35 
1 2 1 5
385 36 384 
386 384 385 
387 385 386 
388 386 387 
389 387 71 
1 3 1 3
390 72 388 
391 388 389 
392 389 95 
1 4 1 5
393 96 390 
394 390 391 
395 391 392 
396 392 393 
397 393 131 
1 5 1 6
398 132 394 
399 394 395 
400 395 396 
401 396 397 
402 397 398 
403 398 166 
1 6 1 4
404 167 399 
405 399 400 
406 400 401 
407 401 190 
1 7 1 5
408 191 402 
409 402 403 
410 403 404 
411 404 405 
412 405 226 
1 8 1 3
413 227 406 
414 406 407 
415 407 250 
1 9 1 6
416 251 408 
417 408 409 
418 409 410 
419 410 411 
420 411 412 
421 412 285 
1 10 1 5
422 286 413 
423 413 414 
424 414 415 
425 415 416 
426 416 321 
1 11 1 4
427 322 417 
428 417 418 
429 418 419 
430 419 356 
1 12 1 3
431 357 420 
432 420 421 
433 421 380 
$EndElements
