# vtk DataFile Version 3.0
dtOO Hexa Blocks
ASCII
DATASET UNSTRUCTURED_GRID
POINTS 88 double
1.8720000000 0.0000000000 0.0000000000
1.9000000000 0.0000000000 0.0000000000
1.8720000000 0.0000000000 2.5000000000
1.9000000000 0.0000000000 2.5000000000
0.0000000000 1.8720000000 0.0000000000
0.0000000000 1.9000000000 0.0000000000
0.0000000000 1.8720000000 2.5000000000
0.0000000000 1.9000000000 2.5000000000
-1.8720000000 0.0000000000 0.0000000000
-1.9000000000 0.0000000000 0.0000000000
-1.8720000000 0.0000000000 2.5000000000
-1.9000000000 0.0000000000 2.5000000000
-0.0000000000 -1.8720000000 0.0000000000
-0.0000000000 -1.9000000000 0.0000000000
-0.0000000000 -1.8720000000 2.5000000000
-0.0000000000 -1.9000000000 2.5000000000
0.5000000000 0.0000000000 0.0000000000
0.5280000000 0.0000000000 0.0000000000
0.5000000000 0.0000000000 2.5000000000
0.5280000000 0.0000000000 2.5000000000
0.0000000000 0.5000000000 0.0000000000
0.0000000000 0.5280000000 0.0000000000
0.0000000000 0.5000000000 2.5000000000
0.0000000000 0.5280000000 2.5000000000
-0.5000000000 0.0000000000 0.0000000000
-0.5280000000 0.0000000000 0.0000000000
-0.5000000000 0.0000000000 2.5000000000
-0.5280000000 0.0000000000 2.5000000000
-0.0000000000 -0.5000000000 0.0000000000
-0.0000000000 -0.5280000000 0.0000000000
-0.0000000000 -0.5000000000 2.5000000000
-0.0000000000 -0.5280000000 2.5000000000
0.6190000000 0.0000000000 0.0000000000
1.1440000000 0.0000000000 0.0000000000
0.6190000000 0.0000000000 2.5000000000
1.1440000000 0.0000000000 2.5000000000
0.0000000000 0.6190000000 0.0000000000
0.0000000000 1.1440000000 0.0000000000
0.0000000000 0.6190000000 2.5000000000
0.0000000000 1.1440000000 2.5000000000
-0.6190000000 0.0000000000 0.0000000000
-1.1440000000 0.0000000000 0.0000000000
-0.6190000000 0.0000000000 2.5000000000
-1.1440000000 0.0000000000 2.5000000000
-0.0000000000 -0.6190000000 0.0000000000
-0.0000000000 -1.1440000000 0.0000000000
-0.0000000000 -0.6190000000 2.5000000000
-0.0000000000 -1.1440000000 2.5000000000
1.2560000000 0.0000000000 0.0000000000
1.2560000000 0.0000000000 2.5000000000
0.0000000000 1.2560000000 0.0000000000
0.0000000000 1.2560000000 2.5000000000
-1.2560000000 0.0000000000 0.0000000000
-1.2560000000 0.0000000000 2.5000000000
-0.0000000000 -1.2560000000 0.0000000000
-0.0000000000 -1.2560000000 2.5000000000
1.3400000000 0.0000000000 0.0000000000
1.7810000000 0.0000000000 0.0000000000
1.3400000000 0.0000000000 2.5000000000
1.7810000000 0.0000000000 2.5000000000
0.0000000000 1.3400000000 0.0000000000
0.0000000000 1.7810000000 0.0000000000
0.0000000000 1.3400000000 2.5000000000
0.0000000000 1.7810000000 2.5000000000
-1.3400000000 0.0000000000 0.0000000000
-1.7810000000 0.0000000000 0.0000000000
-1.3400000000 0.0000000000 2.5000000000
-1.7810000000 0.0000000000 2.5000000000
-0.0000000000 -1.3400000000 0.0000000000
-0.0000000000 -1.7810000000 0.0000000000
-0.0000000000 -1.3400000000 2.5000000000
-0.0000000000 -1.7810000000 2.5000000000
1.0600000000 0.0000000000 0.0000000000
1.2000000000 0.0000000000 0.0000000000
1.0600000000 0.0000000000 2.5000000000
1.2000000000 0.0000000000 2.5000000000
0.0000000000 1.0600000000 0.0000000000
0.0000000000 1.2000000000 0.0000000000
0.0000000000 1.0600000000 2.5000000000
0.0000000000 1.2000000000 2.5000000000
-1.0600000000 0.0000000000 0.0000000000
-1.2000000000 0.0000000000 0.0000000000
-1.0600000000 0.0000000000 2.5000000000
-1.2000000000 0.0000000000 2.5000000000
-0.0000000000 -1.0600000000 0.0000000000
-0.0000000000 -1.2000000000 0.0000000000
-0.0000000000 -1.0600000000 2.5000000000
-0.0000000000 -1.2000000000 2.5000000000

CELLS 28 252
8 0 1 2 3 4 5 6 7
8 4 5 6 7 8 9 10 11
8 8 9 10 11 12 13 14 15
8 12 13 14 15 0 1 2 3
8 16 17 18 19 20 21 22 23
8 20 21 22 23 24 25 26 27
8 24 25 26 27 28 29 30 31
8 28 29 30 31 16 17 18 19
8 32 33 34 35 36 37 38 39
8 36 37 38 39 40 41 42 43
8 40 41 42 43 44 45 46 47
8 44 45 46 47 32 33 34 35
8 33 48 35 49 37 50 39 51
8 37 50 39 51 41 52 43 53
8 41 52 43 53 45 54 47 55
8 45 54 47 55 33 48 35 49
8 56 57 58 59 60 61 62 63
8 60 61 62 63 64 65 66 67
8 64 65 66 67 68 69 70 71
8 68 69 70 71 56 57 58 59
8 72 73 74 75 76 77 78 79
8 76 77 78 79 80 81 82 83
8 80 81 82 83 84 85 86 87
8 84 85 86 87 72 73 74 75
8 73 56 75 58 77 60 79 62
8 77 60 79 62 81 64 83 66
8 81 64 83 66 85 68 87 70
8 85 68 87 70 73 56 75 58

CELL_TYPES 28
12
12
12
12
12
12
12
12
12
12
12
12
12
12
12
12
12
12
12
12
12
12
12
12
12
12
12
12

CELL_DATA 28
SCALARS block_id int 1
LOOKUP_TABLE default
0
1
2
3
4
5
6
7
8
9
10
11
12
13
14
15
16
17
18
19
20
21
22
23
24
25
26
27

SCALARS region int 1
LOOKUP_TABLE default
0
90
180
270
0
90
180
270
0
90
180
270
0
90
180
270
0
90
180
270
0
90
180
270
0
90
180
270
