ISO-10303-21;
HEADER;
FILE_NAME('Open CASCADE Shape Model','2026-04-16T17:31:41',('Author'),(
    'Open CASCADE'),'Open CASCADE STEP processor 7.8','Open CASCADE 7.8'
  ,'Unknown');
FILE_DESCRIPTION(('Open CASCADE Model'),'2;1');
FILE_SCHEMA(('AUTOMOTIVE_DESIGN { 1 0 10303 214 1 1 1 1 }'));
ENDSEC;
DATA;
#1 = APPLICATION_PROTOCOL_DEFINITION('international standard',
  'automotive_design',2000,#2);
#2 = APPLICATION_CONTEXT(
  'core data for automotive mechanical design processes');
#3 = SHAPE_DEFINITION_REPRESENTATION(#4,#10);
#4 = PRODUCT_DEFINITION_SHAPE('','',#5);
#5 = PRODUCT_DEFINITION('design','',#6,#9);
#6 = PRODUCT_DEFINITION_FORMATION('','',#7);
#7 = PRODUCT('Open CASCADE STEP translator 7.8 4',
  'Open CASCADE STEP translator 7.8 4','',(#8));
#8 = PRODUCT_CONTEXT('',#2,'mechanical');
#9 = PRODUCT_DEFINITION_CONTEXT('part definition',#2,'design');
#10 = SHAPE_REPRESENTATION('',(#11,#15,#19,#23),#27);
#11 = AXIS2_PLACEMENT_3D('',#12,#13,#14);
#12 = CARTESIAN_POINT('',(0.,0.,0.));
#13 = DIRECTION('',(0.,0.,1.));
#14 = DIRECTION('',(1.,0.,-0.));
#15 = AXIS2_PLACEMENT_3D('',#16,#17,#18);
#16 = CARTESIAN_POINT('',(0.,0.,0.));
#17 = DIRECTION('',(0.,0.,1.));
#18 = DIRECTION('',(1.,0.,-0.));
#19 = AXIS2_PLACEMENT_3D('',#20,#21,#22);
#20 = CARTESIAN_POINT('',(0.,0.,0.));
#21 = DIRECTION('',(0.,0.,1.));
#22 = DIRECTION('',(1.,0.,-0.));
#23 = AXIS2_PLACEMENT_3D('',#24,#25,#26);
#24 = CARTESIAN_POINT('',(0.,0.,0.));
#25 = DIRECTION('',(0.,0.,1.));
#26 = DIRECTION('',(1.,0.,-0.));
#27 = ( GEOMETRIC_REPRESENTATION_CONTEXT(3) 
GLOBAL_UNCERTAINTY_ASSIGNED_CONTEXT((#31)) GLOBAL_UNIT_ASSIGNED_CONTEXT(
(#28,#29,#30)) REPRESENTATION_CONTEXT('Context #1',
  '3D Context with UNIT and UNCERTAINTY') );
#28 = ( LENGTH_UNIT() NAMED_UNIT(*) SI_UNIT(.MILLI.,.METRE.) );
#29 = ( NAMED_UNIT(*) PLANE_ANGLE_UNIT() SI_UNIT($,.RADIAN.) );
#30 = ( NAMED_UNIT(*) SI_UNIT($,.STERADIAN.) SOLID_ANGLE_UNIT() );
#31 = UNCERTAINTY_MEASURE_WITH_UNIT(LENGTH_MEASURE(1.E-07),#28,
  'distance_accuracy_value','confusion accuracy');
#32 = PRODUCT_RELATED_PRODUCT_CATEGORY('part',$,(#7));
#33 = SHAPE_DEFINITION_REPRESENTATION(#34,#40);
#34 = PRODUCT_DEFINITION_SHAPE('','',#35);
#35 = PRODUCT_DEFINITION('design','',#36,#39);
#36 = PRODUCT_DEFINITION_FORMATION('','',#37);
#37 = PRODUCT('Open CASCADE STEP translator 7.8 4.1',
  'Open CASCADE STEP translator 7.8 4.1','',(#38));
#38 = PRODUCT_CONTEXT('',#2,'mechanical');
#39 = PRODUCT_DEFINITION_CONTEXT('part definition',#2,'design');
#40 = MANIFOLD_SURFACE_SHAPE_REPRESENTATION('',(#11,#41),#545);
#41 = SHELL_BASED_SURFACE_MODEL('',(#42));
#42 = OPEN_SHELL('',(#43));
#43 = ADVANCED_FACE('',(#44,#115),#58,.T.);
#44 = FACE_BOUND('',#45,.T.);
#45 = EDGE_LOOP('',(#46,#69,#85,#101));
#46 = ORIENTED_EDGE('',*,*,#47,.T.);
#47 = EDGE_CURVE('',#48,#50,#52,.T.);
#48 = VERTEX_POINT('',#49);
#49 = CARTESIAN_POINT('',(0.,0.,0.));
#50 = VERTEX_POINT('',#51);
#51 = CARTESIAN_POINT('',(1.,0.,0.));
#52 = SURFACE_CURVE('',#53,(#57),.PCURVE_S1.);
#53 = LINE('',#54,#55);
#54 = CARTESIAN_POINT('',(0.,0.,0.));
#55 = VECTOR('',#56,1.);
#56 = DIRECTION('',(1.,0.,0.));
#57 = PCURVE('',#58,#63);
#58 = PLANE('',#59);
#59 = AXIS2_PLACEMENT_3D('',#60,#61,#62);
#60 = CARTESIAN_POINT('',(0.5,0.5,0.));
#61 = DIRECTION('',(0.,0.,1.));
#62 = DIRECTION('',(1.,0.,-0.));
#63 = DEFINITIONAL_REPRESENTATION('',(#64),#68);
#64 = LINE('',#65,#66);
#65 = CARTESIAN_POINT('',(-0.5,-0.5));
#66 = VECTOR('',#67,1.);
#67 = DIRECTION('',(1.,0.));
#68 = ( GEOMETRIC_REPRESENTATION_CONTEXT(2) 
PARAMETRIC_REPRESENTATION_CONTEXT() REPRESENTATION_CONTEXT('2D SPACE',''
  ) );
#69 = ORIENTED_EDGE('',*,*,#70,.T.);
#70 = EDGE_CURVE('',#50,#71,#73,.T.);
#71 = VERTEX_POINT('',#72);
#72 = CARTESIAN_POINT('',(1.,1.,0.));
#73 = SURFACE_CURVE('',#74,(#78),.PCURVE_S1.);
#74 = LINE('',#75,#76);
#75 = CARTESIAN_POINT('',(1.,0.,0.));
#76 = VECTOR('',#77,1.);
#77 = DIRECTION('',(0.,1.,0.));
#78 = PCURVE('',#58,#79);
#79 = DEFINITIONAL_REPRESENTATION('',(#80),#84);
#80 = LINE('',#81,#82);
#81 = CARTESIAN_POINT('',(0.5,-0.5));
#82 = VECTOR('',#83,1.);
#83 = DIRECTION('',(0.,1.));
#84 = ( GEOMETRIC_REPRESENTATION_CONTEXT(2) 
PARAMETRIC_REPRESENTATION_CONTEXT() REPRESENTATION_CONTEXT('2D SPACE',''
  ) );
#85 = ORIENTED_EDGE('',*,*,#86,.T.);
#86 = EDGE_CURVE('',#71,#87,#89,.T.);
#87 = VERTEX_POINT('',#88);
#88 = CARTESIAN_POINT('',(0.,1.,0.));
#89 = SURFACE_CURVE('',#90,(#94),.PCURVE_S1.);
#90 = LINE('',#91,#92);
#91 = CARTESIAN_POINT('',(1.,1.,0.));
#92 = VECTOR('',#93,1.);
#93 = DIRECTION('',(-1.,0.,0.));
#94 = PCURVE('',#58,#95);
#95 = DEFINITIONAL_REPRESENTATION('',(#96),#100);
#96 = LINE('',#97,#98);
#97 = CARTESIAN_POINT('',(0.5,0.5));
#98 = VECTOR('',#99,1.);
#99 = DIRECTION('',(-1.,0.));
#100 = ( GEOMETRIC_REPRESENTATION_CONTEXT(2) 
PARAMETRIC_REPRESENTATION_CONTEXT() REPRESENTATION_CONTEXT('2D SPACE',''
  ) );
#101 = ORIENTED_EDGE('',*,*,#102,.T.);
#102 = EDGE_CURVE('',#87,#48,#103,.T.);
#103 = SURFACE_CURVE('',#104,(#108),.PCURVE_S1.);
#104 = LINE('',#105,#106);
#105 = CARTESIAN_POINT('',(0.,1.,0.));
#106 = VECTOR('',#107,1.);
#107 = DIRECTION('',(0.,-1.,0.));
#108 = PCURVE('',#58,#109);
#109 = DEFINITIONAL_REPRESENTATION('',(#110),#114);
#110 = LINE('',#111,#112);
#111 = CARTESIAN_POINT('',(-0.5,0.5));
#112 = VECTOR('',#113,1.);
#113 = DIRECTION('',(0.,-1.));
#114 = ( GEOMETRIC_REPRESENTATION_CONTEXT(2) 
PARAMETRIC_REPRESENTATION_CONTEXT() REPRESENTATION_CONTEXT('2D SPACE',''
  ) );
#115 = FACE_BOUND('',#116,.F.);
#116 = EDGE_LOOP('',(#117,#333));
#117 = ORIENTED_EDGE('',*,*,#118,.T.);
#118 = EDGE_CURVE('',#119,#121,#123,.T.);
#119 = VERTEX_POINT('',#120);
#120 = CARTESIAN_POINT('',(9.18023442091E-03,0.465586931631,0.));
#121 = VERTEX_POINT('',#122);
#122 = CARTESIAN_POINT('',(0.731514656156,0.279991105499,0.));
#123 = SURFACE_CURVE('',#124,(#227),.PCURVE_S1.);
#124 = B_SPLINE_CURVE_WITH_KNOTS('',3,(#125,#126,#127,#128,#129,#130,
    #131,#132,#133,#134,#135,#136,#137,#138,#139,#140,#141,#142,#143,
    #144,#145,#146,#147,#148,#149,#150,#151,#152,#153,#154,#155,#156,
    #157,#158,#159,#160,#161,#162,#163,#164,#165,#166,#167,#168,#169,
    #170,#171,#172,#173,#174,#175,#176,#177,#178,#179,#180,#181,#182,
    #183,#184,#185,#186,#187,#188,#189,#190,#191,#192,#193,#194,#195,
    #196,#197,#198,#199,#200,#201,#202,#203,#204,#205,#206,#207,#208,
    #209,#210,#211,#212,#213,#214,#215,#216,#217,#218,#219,#220,#221,
    #222,#223,#224,#225,#226),.UNSPECIFIED.,.F.,.F.,(4,1,1,1,1,1,1,1,1,1
    ,1,1,1,1,1,1,1,1,1,1,1,1,1,1,1,1,1,1,1,1,1,1,1,1,1,1,1,1,1,1,1,1,1,1
    ,1,1,1,1,1,1,1,1,1,1,1,1,1,1,1,1,1,1,1,1,1,1,1,1,1,1,1,1,1,1,1,1,1,1
    ,1,1,1,1,1,1,1,1,1,1,1,1,1,1,1,1,1,1,1,1,1,4),(0.,1.485198488246E-02
    ,2.390821956444E-02,3.233059697442E-02,4.048606583069E-02,
    4.849583964573E-02,5.641481922322E-02,6.427241924929E-02,
    7.208617632577E-02,7.986735460471E-02,8.762359941672E-02,
    9.536032495164E-02,0.103081496665,0.110790099298,0.118488430549,
    0.126178292786,0.133861122425,0.141538079778,0.149210112989,
    0.15687800454,0.16454240571,0.172203862568,0.179862835863,
    0.187519716461,0.195174837481,0.202828483942,0.210480900512,
    0.218132297795,0.225782857478,0.233432736577,0.241082070972,
    0.248730978364,0.256379560776,0.264027906668,0.27167609275,
    0.279324185532,0.286972242668,0.294620314118,0.302268443158,
    0.309916667269,0.317540779002,0.325128968351,0.33271773041,
    0.340307079683,0.347897026843,0.355487579215,0.363078741206,
    0.370670514695,0.378262899386,0.385855893129,0.393449492206,
    0.401043691595,0.408638485215,0.416233866138,0.423829826793,
    0.43142635915,0.439023454887,0.446621105543,0.454219302662,
    0.461818037921,0.469417303257,0.477017090968,0.484617393827,
    0.492218205168,0.499819518981,0.507421329994,0.515023633745,
    0.522626426662,0.530229706122,0.537833470522,0.545437719337,
    0.553042453173,0.56064767383,0.568253384345,0.57585958905,
    0.583466293614,0.591073505098,0.598681231994,0.606289484275,
    0.613898273442,0.621507612564,0.629117516328,0.636728001085,
    0.644339084894,0.65195078757,0.659563130735,0.667176137866,
    0.674789834348,0.682404247526,0.690019406761,0.697635343487,
    0.705252091274,0.712869685887,0.720488165353,0.728107570029,
    0.735727942677,0.743349328534,0.750971775393,0.758595333686,
    0.76669486062),.UNSPECIFIED.);
#125 = CARTESIAN_POINT('',(9.18023442091E-03,0.465586931631,0.));
#126 = CARTESIAN_POINT('',(1.097864672024E-02,0.470973078352,0.));
#127 = CARTESIAN_POINT('',(1.650744859541E-02,0.47670543928,0.));
#128 = CARTESIAN_POINT('',(2.665708373756E-02,0.480833038867,0.));
#129 = CARTESIAN_POINT('',(3.48481835819E-02,0.483196946964,0.));
#130 = CARTESIAN_POINT('',(4.289404236957E-02,0.48482865303,0.));
#131 = CARTESIAN_POINT('',(5.083647653124E-02,0.486002488076,0.));
#132 = CARTESIAN_POINT('',(5.872421784711E-02,0.48683175148,0.));
#133 = CARTESIAN_POINT('',(6.656885389833E-02,0.487390416652,0.));
#134 = CARTESIAN_POINT('',(7.438012670335E-02,0.487725123918,0.));
#135 = CARTESIAN_POINT('',(8.216317840585E-02,0.487869079267,0.));
#136 = CARTESIAN_POINT('',(8.992172324218E-02,0.487846561733,0.));
#137 = CARTESIAN_POINT('',(9.765831723205E-02,0.487676141438,0.));
#138 = CARTESIAN_POINT('',(0.105374860096,0.487372406653,0.));
#139 = CARTESIAN_POINT('',(0.113072785904,0.48694710971,0.));
#140 = CARTESIAN_POINT('',(0.120753208712,0.486409908499,0.));
#141 = CARTESIAN_POINT('',(0.12841700922,0.485768878024,0.));
#142 = CARTESIAN_POINT('',(0.136064895339,0.485030870038,0.));
#143 = CARTESIAN_POINT('',(0.143697443797,0.484201773533,0.));
#144 = CARTESIAN_POINT('',(0.151315130077,0.483286707303,0.));
#145 = CARTESIAN_POINT('',(0.158918350312,0.482290165127,0.));
#146 = CARTESIAN_POINT('',(0.166507437647,0.481216127073,0.));
#147 = CARTESIAN_POINT('',(0.174082674668,0.480068146108,0.));
#148 = CARTESIAN_POINT('',(0.181644302994,0.478849416403,0.));
#149 = CARTESIAN_POINT('',(0.189192530762,0.477562827853,0.));
#150 = CARTESIAN_POINT('',(0.196727538549,0.476211010054,0.));
#151 = CARTESIAN_POINT('',(0.204249484085,0.47479636814,0.));
#152 = CARTESIAN_POINT('',(0.211758506061,0.473321112245,0.));
#153 = CARTESIAN_POINT('',(0.219254727208,0.471787281917,0.));
#154 = CARTESIAN_POINT('',(0.22673825681,0.470196766516,0.));
#155 = CARTESIAN_POINT('',(0.234209192778,0.468551322362,0.));
#156 = CARTESIAN_POINT('',(0.241667623345,0.466852587248,0.));
#157 = CARTESIAN_POINT('',(0.249113628496,0.465102092827,0.));
#158 = CARTESIAN_POINT('',(0.2565472811,0.463301275083,0.));
#159 = CARTESIAN_POINT('',(0.263968648031,0.4614514839,0.));
#160 = CARTESIAN_POINT('',(0.271377790467,0.459553989205,0.));
#161 = CARTESIAN_POINT('',(0.278774766502,0.457609994324,0.));
#162 = CARTESIAN_POINT('',(0.286159624508,0.455620617669,0.));
#163 = CARTESIAN_POINT('',(0.293532430522,0.453586988632,0.));
#164 = CARTESIAN_POINT('',(0.300893168201,0.451509913849,0.));
#165 = CARTESIAN_POINT('',(0.308234350219,0.449393382385,0.));
#166 = CARTESIAN_POINT('',(0.315543658755,0.447238941317,0.));
#167 = CARTESIAN_POINT('',(0.32282445265,0.445058179889,0.));
#168 = CARTESIAN_POINT('',(0.330085439677,0.442851880648,0.));
#169 = CARTESIAN_POINT('',(0.337338214831,0.440616747594,0.));
#170 = CARTESIAN_POINT('',(0.34458293968,0.438353658575,0.));
#171 = CARTESIAN_POINT('',(0.351819711011,0.436063263061,0.));
#172 = CARTESIAN_POINT('',(0.359048635936,0.433746229337,0.));
#173 = CARTESIAN_POINT('',(0.366269812084,0.431403180411,0.));
#174 = CARTESIAN_POINT('',(0.373483333197,0.429034713137,0.));
#175 = CARTESIAN_POINT('',(0.380689287876,0.426641394856,0.));
#176 = CARTESIAN_POINT('',(0.387887760137,0.424223765906,0.));
#177 = CARTESIAN_POINT('',(0.395078829452,0.42178234041,0.));
#178 = CARTESIAN_POINT('',(0.402262570907,0.419317607404,0.));
#179 = CARTESIAN_POINT('',(0.409439055298,0.416830031757,0.));
#180 = CARTESIAN_POINT('',(0.416608349237,0.414320055047,0.));
#181 = CARTESIAN_POINT('',(0.423770515228,0.411788096352,0.));
#182 = CARTESIAN_POINT('',(0.430925611737,0.409234552991,0.));
#183 = CARTESIAN_POINT('',(0.438073693256,0.406659801194,0.));
#184 = CARTESIAN_POINT('',(0.445214810345,0.404064196729,0.));
#185 = CARTESIAN_POINT('',(0.452349009681,0.401448075481,0.));
#186 = CARTESIAN_POINT('',(0.459476334085,0.398811753986,0.));
#187 = CARTESIAN_POINT('',(0.466596822546,0.396155529926,0.));
#188 = CARTESIAN_POINT('',(0.473710510246,0.393479682594,0.));
#189 = CARTESIAN_POINT('',(0.480817428569,0.390784473323,0.));
#190 = CARTESIAN_POINT('',(0.487917605108,0.388070145883,0.));
#191 = CARTESIAN_POINT('',(0.495011063669,0.385336926858,0.));
#192 = CARTESIAN_POINT('',(0.502097824268,0.382585025995,0.));
#193 = CARTESIAN_POINT('',(0.509177903127,0.379814636529,0.));
#194 = CARTESIAN_POINT('',(0.51625131266,0.377025935492,0.));
#195 = CARTESIAN_POINT('',(0.523318061465,0.374219083998,0.));
#196 = CARTESIAN_POINT('',(0.530378154304,0.371394227514,0.));
#197 = CARTESIAN_POINT('',(0.537431592084,0.368551496116,0.));
#198 = CARTESIAN_POINT('',(0.544478371836,0.365691004725,0.));
#199 = CARTESIAN_POINT('',(0.55151848669,0.362812853336,0.));
#200 = CARTESIAN_POINT('',(0.558551925848,0.359917127228,0.));
#201 = CARTESIAN_POINT('',(0.565578674557,0.357003897171,0.));
#202 = CARTESIAN_POINT('',(0.572598714074,0.35407321961,0.));
#203 = CARTESIAN_POINT('',(0.57961202164,0.35112513685,0.));
#204 = CARTESIAN_POINT('',(0.58661857044,0.34815967723,0.));
#205 = CARTESIAN_POINT('',(0.59361832957,0.345176855278,0.));
#206 = CARTESIAN_POINT('',(0.600611264002,0.342176671877,0.));
#207 = CARTESIAN_POINT('',(0.60759733454,0.339159114402,0.));
#208 = CARTESIAN_POINT('',(0.614576497789,0.336124156869,0.));
#209 = CARTESIAN_POINT('',(0.621548706104,0.333071760063,0.));
#210 = CARTESIAN_POINT('',(0.628513907562,0.330001871676,0.));
#211 = CARTESIAN_POINT('',(0.635472045894,0.3269144264,0.));
#212 = CARTESIAN_POINT('',(0.642423060519,0.323809346157,0.));
#213 = CARTESIAN_POINT('',(0.649366886223,0.320686539787,0.));
#214 = CARTESIAN_POINT('',(0.656303454135,0.317545904742,0.));
#215 = CARTESIAN_POINT('',(0.663232687884,0.314387321275,0.));
#216 = CARTESIAN_POINT('',(0.67015451772,0.311210674616,0.));
#217 = CARTESIAN_POINT('',(0.677068827591,0.308015772662,0.));
#218 = CARTESIAN_POINT('',(0.68397565246,0.304802653665,0.));
#219 = CARTESIAN_POINT('',(0.690874441553,0.30157043817,0.));
#220 = CARTESIAN_POINT('',(0.697766808228,0.298321614813,0.));
#221 = CARTESIAN_POINT('',(0.704646265198,0.295046042959,0.));
#222 = CARTESIAN_POINT('',(0.71153654035,0.291780667588,0.));
#223 = CARTESIAN_POINT('',(0.718348551055,0.288386615666,0.));
#224 = CARTESIAN_POINT('',(0.725560983235,0.285318867936,0.));
#225 = CARTESIAN_POINT('',(0.729718799915,0.282158963035,-0.));
#226 = CARTESIAN_POINT('',(0.731514656156,0.279991105499,0.));
#227 = PCURVE('',#58,#228);
#228 = DEFINITIONAL_REPRESENTATION('',(#229),#332);
#229 = B_SPLINE_CURVE_WITH_KNOTS('',3,(#230,#231,#232,#233,#234,#235,
    #236,#237,#238,#239,#240,#241,#242,#243,#244,#245,#246,#247,#248,
    #249,#250,#251,#252,#253,#254,#255,#256,#257,#258,#259,#260,#261,
    #262,#263,#264,#265,#266,#267,#268,#269,#270,#271,#272,#273,#274,
    #275,#276,#277,#278,#279,#280,#281,#282,#283,#284,#285,#286,#287,
    #288,#289,#290,#291,#292,#293,#294,#295,#296,#297,#298,#299,#300,
    #301,#302,#303,#304,#305,#306,#307,#308,#309,#310,#311,#312,#313,
    #314,#315,#316,#317,#318,#319,#320,#321,#322,#323,#324,#325,#326,
    #327,#328,#329,#330,#331),.UNSPECIFIED.,.F.,.F.,(4,1,1,1,1,1,1,1,1,1
    ,1,1,1,1,1,1,1,1,1,1,1,1,1,1,1,1,1,1,1,1,1,1,1,1,1,1,1,1,1,1,1,1,1,1
    ,1,1,1,1,1,1,1,1,1,1,1,1,1,1,1,1,1,1,1,1,1,1,1,1,1,1,1,1,1,1,1,1,1,1
    ,1,1,1,1,1,1,1,1,1,1,1,1,1,1,1,1,1,1,1,1,1,4),(0.,1.485198488246E-02
    ,2.390821956444E-02,3.233059697442E-02,4.048606583069E-02,
    4.849583964573E-02,5.641481922322E-02,6.427241924929E-02,
    7.208617632577E-02,7.986735460471E-02,8.762359941672E-02,
    9.536032495164E-02,0.103081496665,0.110790099298,0.118488430549,
    0.126178292786,0.133861122425,0.141538079778,0.149210112989,
    0.15687800454,0.16454240571,0.172203862568,0.179862835863,
    0.187519716461,0.195174837481,0.202828483942,0.210480900512,
    0.218132297795,0.225782857478,0.233432736577,0.241082070972,
    0.248730978364,0.256379560776,0.264027906668,0.27167609275,
    0.279324185532,0.286972242668,0.294620314118,0.302268443158,
    0.309916667269,0.317540779002,0.325128968351,0.33271773041,
    0.340307079683,0.347897026843,0.355487579215,0.363078741206,
    0.370670514695,0.378262899386,0.385855893129,0.393449492206,
    0.401043691595,0.408638485215,0.416233866138,0.423829826793,
    0.43142635915,0.439023454887,0.446621105543,0.454219302662,
    0.461818037921,0.469417303257,0.477017090968,0.484617393827,
    0.492218205168,0.499819518981,0.507421329994,0.515023633745,
    0.522626426662,0.530229706122,0.537833470522,0.545437719337,
    0.553042453173,0.56064767383,0.568253384345,0.57585958905,
    0.583466293614,0.591073505098,0.598681231994,0.606289484275,
    0.613898273442,0.621507612564,0.629117516328,0.636728001085,
    0.644339084894,0.65195078757,0.659563130735,0.667176137866,
    0.674789834348,0.682404247526,0.690019406761,0.697635343487,
    0.705252091274,0.712869685887,0.720488165353,0.728107570029,
    0.735727942677,0.743349328534,0.750971775393,0.758595333686,
    0.76669486062),.UNSPECIFIED.);
#230 = CARTESIAN_POINT('',(-0.490819765579,-3.441306836906E-02));
#231 = CARTESIAN_POINT('',(-0.48902135328,-2.902692164753E-02));
#232 = CARTESIAN_POINT('',(-0.483492551405,-2.329456071982E-02));
#233 = CARTESIAN_POINT('',(-0.473342916262,-1.916696113288E-02));
#234 = CARTESIAN_POINT('',(-0.465151816418,-1.6803053036E-02));
#235 = CARTESIAN_POINT('',(-0.45710595763,-1.517134697017E-02));
#236 = CARTESIAN_POINT('',(-0.449163523469,-1.399751192381E-02));
#237 = CARTESIAN_POINT('',(-0.441275782153,-1.316824852001E-02));
#238 = CARTESIAN_POINT('',(-0.433431146102,-1.260958334761E-02));
#239 = CARTESIAN_POINT('',(-0.425619873297,-1.227487608193E-02));
#240 = CARTESIAN_POINT('',(-0.417836821594,-1.213092073304E-02));
#241 = CARTESIAN_POINT('',(-0.410078276758,-1.215343826689E-02));
#242 = CARTESIAN_POINT('',(-0.402341682768,-1.232385856187E-02));
#243 = CARTESIAN_POINT('',(-0.394625139904,-1.262759334708E-02));
#244 = CARTESIAN_POINT('',(-0.386927214096,-1.305289029017E-02));
#245 = CARTESIAN_POINT('',(-0.379246791288,-1.359009150105E-02));
#246 = CARTESIAN_POINT('',(-0.37158299078,-1.423112197626E-02));
#247 = CARTESIAN_POINT('',(-0.363935104661,-1.49691299625E-02));
#248 = CARTESIAN_POINT('',(-0.356302556203,-1.579822646727E-02));
#249 = CARTESIAN_POINT('',(-0.348684869923,-1.671329269721E-02));
#250 = CARTESIAN_POINT('',(-0.341081649688,-1.77098348726E-02));
#251 = CARTESIAN_POINT('',(-0.333492562353,-1.878387292676E-02));
#252 = CARTESIAN_POINT('',(-0.325917325332,-1.993185389237E-02));
#253 = CARTESIAN_POINT('',(-0.318355697006,-2.115058359678E-02));
#254 = CARTESIAN_POINT('',(-0.310807469238,-2.243717214678E-02));
#255 = CARTESIAN_POINT('',(-0.303272461451,-2.378898994603E-02));
#256 = CARTESIAN_POINT('',(-0.295750515915,-2.520363185987E-02));
#257 = CARTESIAN_POINT('',(-0.288241493939,-2.667888775545E-02));
#258 = CARTESIAN_POINT('',(-0.280745272792,-2.821271808318E-02));
#259 = CARTESIAN_POINT('',(-0.27326174319,-2.980323348422E-02));
#260 = CARTESIAN_POINT('',(-0.265790807222,-3.144867763762E-02));
#261 = CARTESIAN_POINT('',(-0.258332376655,-3.314741275243E-02));
#262 = CARTESIAN_POINT('',(-0.250886371504,-3.489790717255E-02));
#263 = CARTESIAN_POINT('',(-0.2434527189,-3.669872491679E-02));
#264 = CARTESIAN_POINT('',(-0.236031351969,-3.854851609983E-02));
#265 = CARTESIAN_POINT('',(-0.228622209533,-4.044601079493E-02));
#266 = CARTESIAN_POINT('',(-0.221225233498,-4.239000567578E-02));
#267 = CARTESIAN_POINT('',(-0.213840375492,-4.437938233132E-02));
#268 = CARTESIAN_POINT('',(-0.206467569478,-4.641301136847E-02));
#269 = CARTESIAN_POINT('',(-0.199106831799,-4.849008615051E-02));
#270 = CARTESIAN_POINT('',(-0.191765649781,-5.060661761494E-02));
#271 = CARTESIAN_POINT('',(-0.184456341245,-5.276105868303E-02));
#272 = CARTESIAN_POINT('',(-0.17717554735,-5.49418201107E-02));
#273 = CARTESIAN_POINT('',(-0.169914560323,-5.714811935243E-02));
#274 = CARTESIAN_POINT('',(-0.162661785169,-5.938325240588E-02));
#275 = CARTESIAN_POINT('',(-0.15541706032,-6.164634142514E-02));
#276 = CARTESIAN_POINT('',(-0.148180288989,-6.393673693907E-02));
#277 = CARTESIAN_POINT('',(-0.140951364064,-6.625377066299E-02));
#278 = CARTESIAN_POINT('',(-0.133730187916,-6.859681958896E-02));
#279 = CARTESIAN_POINT('',(-0.126516666803,-7.096528686328E-02));
#280 = CARTESIAN_POINT('',(-0.119310712124,-7.335860514397E-02));
#281 = CARTESIAN_POINT('',(-0.112112239863,-7.577623409428E-02));
#282 = CARTESIAN_POINT('',(-0.104921170548,-7.821765959024E-02));
#283 = CARTESIAN_POINT('',(-9.773742909334E-02,-8.068239259617E-02));
#284 = CARTESIAN_POINT('',(-9.05609447018E-02,-8.316996824282E-02));
#285 = CARTESIAN_POINT('',(-8.339165076269E-02,-8.567994495331E-02));
#286 = CARTESIAN_POINT('',(-7.622948477218E-02,-8.821190364764E-02));
#287 = CARTESIAN_POINT('',(-6.907438826283E-02,-9.07654470087E-02));
#288 = CARTESIAN_POINT('',(-6.192630674448E-02,-9.334019880595E-02));
#289 = CARTESIAN_POINT('',(-5.478518965477E-02,-9.593580327077E-02));
#290 = CARTESIAN_POINT('',(-4.76509903186E-02,-9.855192451876E-02));
#291 = CARTESIAN_POINT('',(-4.05236659155E-02,-0.101188246014));
#292 = CARTESIAN_POINT('',(-3.340317745417E-02,-0.103844470074));
#293 = CARTESIAN_POINT('',(-2.628948975374E-02,-0.106520317406));
#294 = CARTESIAN_POINT('',(-1.918257143077E-02,-0.109215526677));
#295 = CARTESIAN_POINT('',(-1.208239489186E-02,-0.111929854117));
#296 = CARTESIAN_POINT('',(-4.988936331072E-03,-0.114663073142));
#297 = CARTESIAN_POINT('',(2.097824268092E-03,-0.117414974005));
#298 = CARTESIAN_POINT('',(9.177903126601E-03,-0.120185363471));
#299 = CARTESIAN_POINT('',(1.625131266005E-02,-0.122974064508));
#300 = CARTESIAN_POINT('',(2.331806146537E-02,-0.125780916002));
#301 = CARTESIAN_POINT('',(3.037815430438E-02,-0.128605772486));
#302 = CARTESIAN_POINT('',(3.743159208444E-02,-0.131448503884));
#303 = CARTESIAN_POINT('',(4.447837183643E-02,-0.134308995275));
#304 = CARTESIAN_POINT('',(5.151848669031E-02,-0.137187146664));
#305 = CARTESIAN_POINT('',(5.855192584844E-02,-0.140082872772));
#306 = CARTESIAN_POINT('',(6.557867455674E-02,-0.142996102829));
#307 = CARTESIAN_POINT('',(7.259871407407E-02,-0.14592678039));
#308 = CARTESIAN_POINT('',(7.961202163977E-02,-0.14887486315));
#309 = CARTESIAN_POINT('',(8.661857043956E-02,-0.15184032277));
#310 = CARTESIAN_POINT('',(9.361832957001E-02,-0.154823144722));
#311 = CARTESIAN_POINT('',(0.100611264002,-0.157823328123));
#312 = CARTESIAN_POINT('',(0.10759733454,-0.160840885598));
#313 = CARTESIAN_POINT('',(0.114576497789,-0.163875843131));
#314 = CARTESIAN_POINT('',(0.121548706104,-0.166928239937));
#315 = CARTESIAN_POINT('',(0.128513907562,-0.169998128324));
#316 = CARTESIAN_POINT('',(0.135472045894,-0.1730855736));
#317 = CARTESIAN_POINT('',(0.142423060519,-0.176190653843));
#318 = CARTESIAN_POINT('',(0.149366886223,-0.179313460213));
#319 = CARTESIAN_POINT('',(0.156303454135,-0.182454095258));
#320 = CARTESIAN_POINT('',(0.163232687884,-0.185612678725));
#321 = CARTESIAN_POINT('',(0.17015451772,-0.188789325384));
#322 = CARTESIAN_POINT('',(0.177068827591,-0.191984227338));
#323 = CARTESIAN_POINT('',(0.18397565246,-0.195197346335));
#324 = CARTESIAN_POINT('',(0.190874441553,-0.19842956183));
#325 = CARTESIAN_POINT('',(0.197766808228,-0.201678385187));
#326 = CARTESIAN_POINT('',(0.204646265198,-0.204953957041));
#327 = CARTESIAN_POINT('',(0.21153654035,-0.208219332412));
#328 = CARTESIAN_POINT('',(0.218348551055,-0.211613384334));
#329 = CARTESIAN_POINT('',(0.225560983235,-0.214681132064));
#330 = CARTESIAN_POINT('',(0.229718799915,-0.217841036965));
#331 = CARTESIAN_POINT('',(0.231514656156,-0.220008894501));
#332 = ( GEOMETRIC_REPRESENTATION_CONTEXT(2) 
PARAMETRIC_REPRESENTATION_CONTEXT() REPRESENTATION_CONTEXT('2D SPACE',''
  ) );
#333 = ORIENTED_EDGE('',*,*,#334,.F.);
#334 = EDGE_CURVE('',#119,#121,#335,.T.);
#335 = SURFACE_CURVE('',#336,(#439),.PCURVE_S1.);
#336 = B_SPLINE_CURVE_WITH_KNOTS('',3,(#337,#338,#339,#340,#341,#342,
    #343,#344,#345,#346,#347,#348,#349,#350,#351,#352,#353,#354,#355,
    #356,#357,#358,#359,#360,#361,#362,#363,#364,#365,#366,#367,#368,
    #369,#370,#371,#372,#373,#374,#375,#376,#377,#378,#379,#380,#381,
    #382,#383,#384,#385,#386,#387,#388,#389,#390,#391,#392,#393,#394,
    #395,#396,#397,#398,#399,#400,#401,#402,#403,#404,#405,#406,#407,
    #408,#409,#410,#411,#412,#413,#414,#415,#416,#417,#418,#419,#420,
    #421,#422,#423,#424,#425,#426,#427,#428,#429,#430,#431,#432,#433,
    #434,#435,#436,#437,#438),.UNSPECIFIED.,.F.,.F.,(4,1,1,1,1,1,1,1,1,1
    ,1,1,1,1,1,1,1,1,1,1,1,1,1,1,1,1,1,1,1,1,1,1,1,1,1,1,1,1,1,1,1,1,1,1
    ,1,1,1,1,1,1,1,1,1,1,1,1,1,1,1,1,1,1,1,1,1,1,1,1,1,1,1,1,1,1,1,1,1,1
    ,1,1,1,1,1,1,1,1,1,1,1,1,1,1,1,1,1,1,1,1,1,4),(0.,1.483569735175E-02
    ,2.382802929869E-02,3.216231837123E-02,4.021148258262E-02,
    4.810013271797E-02,5.588545313168E-02,6.359854072483E-02,
    7.125824666018E-02,7.88769055511E-02,8.646306120503E-02,
    9.402289952458E-02,0.101561060865,0.109081128767,0.116585938473,
    0.124077779576,0.131558533683,0.139029770649,0.146492817538,
    0.153948809148,0.161398725734,0.168843421667,0.176283647555,
    0.183720067548,0.191153273053,0.19858379374,0.206012106453,
    0.21343864252,0.220863793779,0.228287917615,0.235711341178,
    0.24313436497,0.250557265887,0.257980299842,0.265403704024,
    0.272827698863,0.280252489744,0.287678268515,0.295105214815,
    0.302533497254,0.309987512987,0.317479219307,0.3249722106,
    0.332466550522,0.339962297126,0.347459503434,0.354958217954,
    0.36245848515,0.369960345865,0.37746383772,0.384968995466,
    0.392475851317,0.399984435249,0.407494775284,0.415006897741,
    0.422520827482,0.43003658813,0.437554202271,0.445073691656,
    0.452595077367,0.460118379996,0.467643619793,0.475170816817,
    0.482699991076,0.490231162651,0.497764351827,0.505299579202,
    0.512836865806,0.520376233198,0.527917703573,0.535461299858,
    0.543007045799,0.550554966058,0.558105086296,0.565657433254,
    0.57321203484,0.580768920207,0.588328119828,0.59588966558,
    0.603453590815,0.611019930437,0.618588720979,0.626160000677,
    0.633733809547,0.641310189461,0.648889184222,0.656470839645,
    0.664055203635,0.671642326266,0.679232259867,0.686825059101,
    0.694420781053,0.702019485323,0.709621234107,0.7172260923,
    0.724834127587,0.732445410541,0.740060014729,0.747678016815,
    0.755299496671),.UNSPECIFIED.);
#337 = CARTESIAN_POINT('',(9.18023442091E-03,0.465586931631,0.));
#338 = CARTESIAN_POINT('',(9.29227158877E-03,0.459929326012,0.));
#339 = CARTESIAN_POINT('',(1.282714295857E-02,0.45282620059,0.));
#340 = CARTESIAN_POINT('',(2.115993488335E-02,0.445811016312,0.));
#341 = CARTESIAN_POINT('',(2.812674717586E-02,0.441048203312,0.));
#342 = CARTESIAN_POINT('',(3.514349732037E-02,0.436995210735,0.));
#343 = CARTESIAN_POINT('',(4.217464535347E-02,0.433376213189,0.));
#344 = CARTESIAN_POINT('',(4.923551537071E-02,0.430067606977,0.));
#345 = CARTESIAN_POINT('',(5.631771067809E-02,0.426994828844,0.));
#346 = CARTESIAN_POINT('',(6.341853879547E-02,0.42411007345,0.));
#347 = CARTESIAN_POINT('',(7.053465621466E-02,0.421379822601,0.));
#348 = CARTESIAN_POINT('',(7.766376711143E-02,0.418779554923,0.));
#349 = CARTESIAN_POINT('',(8.480400033042E-02,0.416290580401,0.));
#350 = CARTESIAN_POINT('',(9.19539067538E-02,0.413898231535,0.));
#351 = CARTESIAN_POINT('',(9.911232857405E-02,0.41159070671,0.));
#352 = CARTESIAN_POINT('',(0.10627833658,0.409358314748,0.));
#353 = CARTESIAN_POINT('',(0.113451175224,0.407192957847,0.));
#354 = CARTESIAN_POINT('',(0.120630224424,0.405087768087,0.));
#355 = CARTESIAN_POINT('',(0.127814970394,0.403036844767,0.));
#356 = CARTESIAN_POINT('',(0.135004983771,0.401035060425,0.));
#357 = CARTESIAN_POINT('',(0.142199902844,0.399077914744,0.));
#358 = CARTESIAN_POINT('',(0.149399420597,0.397161422646,0.));
#359 = CARTESIAN_POINT('',(0.156603274578,0.395282027262,0.));
#360 = CARTESIAN_POINT('',(0.163811238897,0.393436531343,0.));
#361 = CARTESIAN_POINT('',(0.171023117856,0.391622042536,0.));
#362 = CARTESIAN_POINT('',(0.178238740834,0.389835929259,0.));
#363 = CARTESIAN_POINT('',(0.185457958145,0.388075784756,0.));
#364 = CARTESIAN_POINT('',(0.19268063767,0.386339397559,0.));
#365 = CARTESIAN_POINT('',(0.199906662091,0.384624727006,0.));
#366 = CARTESIAN_POINT('',(0.207135926619,0.382929882806,0.));
#367 = CARTESIAN_POINT('',(0.214368337108,0.381253107852,0.));
#368 = CARTESIAN_POINT('',(0.221603808496,0.379592763672,0.));
#369 = CARTESIAN_POINT('',(0.228842263507,0.377947318077,0.));
#370 = CARTESIAN_POINT('',(0.236083631532,0.376315334432,0.));
#371 = CARTESIAN_POINT('',(0.24332784783,0.374695463008,0.));
#372 = CARTESIAN_POINT('',(0.250574852376,0.373086431315,0.));
#373 = CARTESIAN_POINT('',(0.257824590651,0.37148704386,0.));
#374 = CARTESIAN_POINT('',(0.26507700779,0.369896151473,0.));
#375 = CARTESIAN_POINT('',(0.272332067986,0.368312738216,0.));
#376 = CARTESIAN_POINT('',(0.279589680013,0.366735572796,0.));
#377 = CARTESIAN_POINT('',(0.286857870293,0.365162779706,0.));
#378 = CARTESIAN_POINT('',(0.294147703,0.363587932212,0.));
#379 = CARTESIAN_POINT('',(0.301461285574,0.362020908265,0.));
#380 = CARTESIAN_POINT('',(0.308790958598,0.360464890883,0.));
#381 = CARTESIAN_POINT('',(0.316124587986,0.358921080028,0.));
#382 = CARTESIAN_POINT('',(0.323462092681,0.357388907131,0.));
#383 = CARTESIAN_POINT('',(0.330803354916,0.355867639683,0.));
#384 = CARTESIAN_POINT('',(0.338148273743,0.354356631519,0.));
#385 = CARTESIAN_POINT('',(0.345496750372,0.352855253579,0.));
#386 = CARTESIAN_POINT('',(0.352848691819,0.351362910516,0.));
#387 = CARTESIAN_POINT('',(0.360204009685,0.349879034481,0.));
#388 = CARTESIAN_POINT('',(0.367562620273,0.348403085177,0.));
#389 = CARTESIAN_POINT('',(0.374924444364,0.346934548382,0.));
#390 = CARTESIAN_POINT('',(0.382289407117,0.345472935005,0.));
#391 = CARTESIAN_POINT('',(0.389657437956,0.344017780117,0.));
#392 = CARTESIAN_POINT('',(0.397028470474,0.342568642087,0.));
#393 = CARTESIAN_POINT('',(0.404402442354,0.341125101785,0.));
#394 = CARTESIAN_POINT('',(0.411779295304,0.339686761848,0.));
#395 = CARTESIAN_POINT('',(0.419158974995,0.338253246001,0.));
#396 = CARTESIAN_POINT('',(0.426541431012,0.336824198435,0.));
#397 = CARTESIAN_POINT('',(0.433926616818,0.335399283228,0.));
#398 = CARTESIAN_POINT('',(0.441314489723,0.333978183809,0.));
#399 = CARTESIAN_POINT('',(0.448705010855,0.332560602461,0.));
#400 = CARTESIAN_POINT('',(0.456098145144,0.33114625986,0.));
#401 = CARTESIAN_POINT('',(0.463493861311,0.329734894643,0.));
#402 = CARTESIAN_POINT('',(0.470892131863,0.328326263013,0.));
#403 = CARTESIAN_POINT('',(0.478292933085,0.326920138357,0.));
#404 = CARTESIAN_POINT('',(0.485696245047,0.325516310905,0.));
#405 = CARTESIAN_POINT('',(0.493102051612,0.324114587395,0.));
#406 = CARTESIAN_POINT('',(0.50051034044,0.322714790774,0.));
#407 = CARTESIAN_POINT('',(0.50792110301,0.321316759904,0.));
#408 = CARTESIAN_POINT('',(0.515334334631,0.319920349297,0.));
#409 = CARTESIAN_POINT('',(0.522750034462,0.318525428856,0.));
#410 = CARTESIAN_POINT('',(0.530168205538,0.31713188364,0.));
#411 = CARTESIAN_POINT('',(0.537588854793,0.315739613633,0.));
#412 = CARTESIAN_POINT('',(0.545011993085,0.314348533537,0.));
#413 = CARTESIAN_POINT('',(0.552437635227,0.312958572563,0.));
#414 = CARTESIAN_POINT('',(0.559865800019,0.311569674247,0.));
#415 = CARTESIAN_POINT('',(0.567296510279,0.310181796264,0.));
#416 = CARTESIAN_POINT('',(0.574729792877,0.308794910258,0.));
#417 = CARTESIAN_POINT('',(0.582165678774,0.30740900168,0.));
#418 = CARTESIAN_POINT('',(0.589604203055,0.30602406963,0.));
#419 = CARTESIAN_POINT('',(0.597045404969,0.304640126712,0.));
#420 = CARTESIAN_POINT('',(0.604489327971,0.303257198893,0.));
#421 = CARTESIAN_POINT('',(0.611936019759,0.301875325365,0.));
#422 = CARTESIAN_POINT('',(0.619385532319,0.300494558421,0.));
#423 = CARTESIAN_POINT('',(0.626837921966,0.299114963331,0.));
#424 = CARTESIAN_POINT('',(0.634293249386,0.297736618221,0.));
#425 = CARTESIAN_POINT('',(0.641751579684,0.296359613965,0.));
#426 = CARTESIAN_POINT('',(0.649212982426,0.294984054075,0.));
#427 = CARTESIAN_POINT('',(0.656677531686,0.293610054596,0.));
#428 = CARTESIAN_POINT('',(0.664145306094,0.292237744007,0.));
#429 = CARTESIAN_POINT('',(0.671616388878,0.290867263125,0.));
#430 = CARTESIAN_POINT('',(0.679090867917,0.28949876501,0.));
#431 = CARTESIAN_POINT('',(0.686568835787,0.288132414883,0.));
#432 = CARTESIAN_POINT('',(0.694050389806,0.286768390025,0.));
#433 = CARTESIAN_POINT('',(0.701535632091,0.285406879725,0.));
#434 = CARTESIAN_POINT('',(0.709024669591,0.284048085096,0.));
#435 = CARTESIAN_POINT('',(0.716517614189,0.282692219384,0.));
#436 = CARTESIAN_POINT('',(0.724014582551,0.281339506447,0.));
#437 = CARTESIAN_POINT('',(0.729014166342,0.280440168033,-0.));
#438 = CARTESIAN_POINT('',(0.731514656156,0.279991105499,0.));
#439 = PCURVE('',#58,#440);
#440 = DEFINITIONAL_REPRESENTATION('',(#441),#544);
#441 = B_SPLINE_CURVE_WITH_KNOTS('',3,(#442,#443,#444,#445,#446,#447,
    #448,#449,#450,#451,#452,#453,#454,#455,#456,#457,#458,#459,#460,
    #461,#462,#463,#464,#465,#466,#467,#468,#469,#470,#471,#472,#473,
    #474,#475,#476,#477,#478,#479,#480,#481,#482,#483,#484,#485,#486,
    #487,#488,#489,#490,#491,#492,#493,#494,#495,#496,#497,#498,#499,
    #500,#501,#502,#503,#504,#505,#506,#507,#508,#509,#510,#511,#512,
    #513,#514,#515,#516,#517,#518,#519,#520,#521,#522,#523,#524,#525,
    #526,#527,#528,#529,#530,#531,#532,#533,#534,#535,#536,#537,#538,
    #539,#540,#541,#542,#543),.UNSPECIFIED.,.F.,.F.,(4,1,1,1,1,1,1,1,1,1
    ,1,1,1,1,1,1,1,1,1,1,1,1,1,1,1,1,1,1,1,1,1,1,1,1,1,1,1,1,1,1,1,1,1,1
    ,1,1,1,1,1,1,1,1,1,1,1,1,1,1,1,1,1,1,1,1,1,1,1,1,1,1,1,1,1,1,1,1,1,1
    ,1,1,1,1,1,1,1,1,1,1,1,1,1,1,1,1,1,1,1,1,1,4),(0.,1.483569735175E-02
    ,2.382802929869E-02,3.216231837123E-02,4.021148258262E-02,
    4.810013271797E-02,5.588545313168E-02,6.359854072483E-02,
    7.125824666018E-02,7.88769055511E-02,8.646306120503E-02,
    9.402289952458E-02,0.101561060865,0.109081128767,0.116585938473,
    0.124077779576,0.131558533683,0.139029770649,0.146492817538,
    0.153948809148,0.161398725734,0.168843421667,0.176283647555,
    0.183720067548,0.191153273053,0.19858379374,0.206012106453,
    0.21343864252,0.220863793779,0.228287917615,0.235711341178,
    0.24313436497,0.250557265887,0.257980299842,0.265403704024,
    0.272827698863,0.280252489744,0.287678268515,0.295105214815,
    0.302533497254,0.309987512987,0.317479219307,0.3249722106,
    0.332466550522,0.339962297126,0.347459503434,0.354958217954,
    0.36245848515,0.369960345865,0.37746383772,0.384968995466,
    0.392475851317,0.399984435249,0.407494775284,0.415006897741,
    0.422520827482,0.43003658813,0.437554202271,0.445073691656,
    0.452595077367,0.460118379996,0.467643619793,0.475170816817,
    0.482699991076,0.490231162651,0.497764351827,0.505299579202,
    0.512836865806,0.520376233198,0.527917703573,0.535461299858,
    0.543007045799,0.550554966058,0.558105086296,0.565657433254,
    0.57321203484,0.580768920207,0.588328119828,0.59588966558,
    0.603453590815,0.611019930437,0.618588720979,0.626160000677,
    0.633733809547,0.641310189461,0.648889184222,0.656470839645,
    0.664055203635,0.671642326266,0.679232259867,0.686825059101,
    0.694420781053,0.702019485323,0.709621234107,0.7172260923,
    0.724834127587,0.732445410541,0.740060014729,0.747678016815,
    0.755299496671),.UNSPECIFIED.);
#442 = CARTESIAN_POINT('',(-0.490819765579,-3.441306836906E-02));
#443 = CARTESIAN_POINT('',(-0.490707728411,-4.007067398753E-02));
#444 = CARTESIAN_POINT('',(-0.487172857041,-4.717379941022E-02));
#445 = CARTESIAN_POINT('',(-0.478840065117,-5.418898368838E-02));
#446 = CARTESIAN_POINT('',(-0.471873252824,-5.895179668775E-02));
#447 = CARTESIAN_POINT('',(-0.46485650268,-6.300478926468E-02));
#448 = CARTESIAN_POINT('',(-0.457825354647,-6.662378681086E-02));
#449 = CARTESIAN_POINT('',(-0.450764484629,-6.993239302331E-02));
#450 = CARTESIAN_POINT('',(-0.443682289322,-7.300517115599E-02));
#451 = CARTESIAN_POINT('',(-0.436581461205,-7.588992654953E-02));
#452 = CARTESIAN_POINT('',(-0.429465343785,-7.862017739863E-02));
#453 = CARTESIAN_POINT('',(-0.422336232889,-8.122044507737E-02));
#454 = CARTESIAN_POINT('',(-0.41519599967,-8.370941959874E-02));
#455 = CARTESIAN_POINT('',(-0.408046093246,-8.610176846516E-02));
#456 = CARTESIAN_POINT('',(-0.400887671426,-8.840929329023E-02));
#457 = CARTESIAN_POINT('',(-0.39372166342,-9.064168525222E-02));
#458 = CARTESIAN_POINT('',(-0.386548824776,-9.280704215338E-02));
#459 = CARTESIAN_POINT('',(-0.379369775576,-9.491223191334E-02));
#460 = CARTESIAN_POINT('',(-0.372185029606,-9.696315523322E-02));
#461 = CARTESIAN_POINT('',(-0.364995016229,-9.896493957537E-02));
#462 = CARTESIAN_POINT('',(-0.357800097156,-0.100922085256));
#463 = CARTESIAN_POINT('',(-0.350600579403,-0.102838577354));
#464 = CARTESIAN_POINT('',(-0.343396725422,-0.104717972738));
#465 = CARTESIAN_POINT('',(-0.336188761103,-0.106563468657));
#466 = CARTESIAN_POINT('',(-0.328976882144,-0.108377957464));
#467 = CARTESIAN_POINT('',(-0.321761259166,-0.110164070741));
#468 = CARTESIAN_POINT('',(-0.314542041855,-0.111924215244));
#469 = CARTESIAN_POINT('',(-0.30731936233,-0.113660602441));
#470 = CARTESIAN_POINT('',(-0.300093337909,-0.115375272994));
#471 = CARTESIAN_POINT('',(-0.292864073381,-0.117070117194));
#472 = CARTESIAN_POINT('',(-0.285631662892,-0.118746892148));
#473 = CARTESIAN_POINT('',(-0.278396191504,-0.120407236328));
#474 = CARTESIAN_POINT('',(-0.271157736493,-0.122052681923));
#475 = CARTESIAN_POINT('',(-0.263916368468,-0.123684665568));
#476 = CARTESIAN_POINT('',(-0.25667215217,-0.125304536992));
#477 = CARTESIAN_POINT('',(-0.249425147624,-0.126913568685));
#478 = CARTESIAN_POINT('',(-0.242175409349,-0.12851295614));
#479 = CARTESIAN_POINT('',(-0.23492299221,-0.130103848527));
#480 = CARTESIAN_POINT('',(-0.227667932014,-0.131687261784));
#481 = CARTESIAN_POINT('',(-0.220410319987,-0.133264427204));
#482 = CARTESIAN_POINT('',(-0.213142129707,-0.134837220294));
#483 = CARTESIAN_POINT('',(-0.205852297,-0.136412067788));
#484 = CARTESIAN_POINT('',(-0.198538714426,-0.137979091735));
#485 = CARTESIAN_POINT('',(-0.191209041402,-0.139535109117));
#486 = CARTESIAN_POINT('',(-0.183875412014,-0.141078919972));
#487 = CARTESIAN_POINT('',(-0.176537907319,-0.142611092869));
#488 = CARTESIAN_POINT('',(-0.169196645084,-0.144132360317));
#489 = CARTESIAN_POINT('',(-0.161851726257,-0.145643368481));
#490 = CARTESIAN_POINT('',(-0.154503249628,-0.147144746421));
#491 = CARTESIAN_POINT('',(-0.147151308181,-0.148637089484));
#492 = CARTESIAN_POINT('',(-0.139795990315,-0.150120965519));
#493 = CARTESIAN_POINT('',(-0.132437379727,-0.151596914823));
#494 = CARTESIAN_POINT('',(-0.125075555636,-0.153065451618));
#495 = CARTESIAN_POINT('',(-0.117710592883,-0.154527064995));
#496 = CARTESIAN_POINT('',(-0.110342562044,-0.155982219883));
#497 = CARTESIAN_POINT('',(-0.102971529526,-0.157431357913));
#498 = CARTESIAN_POINT('',(-9.559755764574E-02,-0.158874898215));
#499 = CARTESIAN_POINT('',(-8.822070469552E-02,-0.160313238152));
#500 = CARTESIAN_POINT('',(-8.084102500528E-02,-0.161746753999));
#501 = CARTESIAN_POINT('',(-7.345856898839E-02,-0.163175801565));
#502 = CARTESIAN_POINT('',(-6.607338318163E-02,-0.164600716772));
#503 = CARTESIAN_POINT('',(-5.868551027686E-02,-0.166021816191));
#504 = CARTESIAN_POINT('',(-5.129498914547E-02,-0.167439397539));
#505 = CARTESIAN_POINT('',(-4.390185485646E-02,-0.16885374014));
#506 = CARTESIAN_POINT('',(-3.65061386885E-02,-0.170265105357));
#507 = CARTESIAN_POINT('',(-2.910786813682E-02,-0.171673736987));
#508 = CARTESIAN_POINT('',(-2.170706691504E-02,-0.173079861643));
#509 = CARTESIAN_POINT('',(-1.430375495263E-02,-0.174483689095));
#510 = CARTESIAN_POINT('',(-6.897948388345E-03,-0.175885412605));
#511 = CARTESIAN_POINT('',(5.10340440189E-04,-0.177285209226));
#512 = CARTESIAN_POINT('',(7.92110301019E-03,-0.178683240096));
#513 = CARTESIAN_POINT('',(1.533433463061E-02,-0.180079650703));
#514 = CARTESIAN_POINT('',(2.27500344619E-02,-0.181474571144));
#515 = CARTESIAN_POINT('',(3.016820553837E-02,-0.18286811636));
#516 = CARTESIAN_POINT('',(3.758885479304E-02,-0.184260386367));
#517 = CARTESIAN_POINT('',(4.501199308465E-02,-0.185651466463));
#518 = CARTESIAN_POINT('',(5.243763522678E-02,-0.187041427437));
#519 = CARTESIAN_POINT('',(5.986580001881E-02,-0.188430325753));
#520 = CARTESIAN_POINT('',(6.729651027869E-02,-0.189818203736));
#521 = CARTESIAN_POINT('',(7.472979287725E-02,-0.191205089742));
#522 = CARTESIAN_POINT('',(8.216567877408E-02,-0.19259099832));
#523 = CARTESIAN_POINT('',(8.960420305467E-02,-0.19397593037));
#524 = CARTESIAN_POINT('',(9.704540496895E-02,-0.195359873288));
#525 = CARTESIAN_POINT('',(0.104489327971,-0.196742801107));
#526 = CARTESIAN_POINT('',(0.111936019759,-0.198124674635));
#527 = CARTESIAN_POINT('',(0.119385532319,-0.199505441579));
#528 = CARTESIAN_POINT('',(0.126837921966,-0.200885036669));
#529 = CARTESIAN_POINT('',(0.134293249386,-0.202263381779));
#530 = CARTESIAN_POINT('',(0.141751579684,-0.203640386035));
#531 = CARTESIAN_POINT('',(0.149212982426,-0.205015945925));
#532 = CARTESIAN_POINT('',(0.156677531686,-0.206389945404));
#533 = CARTESIAN_POINT('',(0.164145306094,-0.207762255993));
#534 = CARTESIAN_POINT('',(0.171616388878,-0.209132736875));
#535 = CARTESIAN_POINT('',(0.179090867917,-0.21050123499));
#536 = CARTESIAN_POINT('',(0.186568835787,-0.211867585117));
#537 = CARTESIAN_POINT('',(0.194050389806,-0.213231609975));
#538 = CARTESIAN_POINT('',(0.201535632091,-0.214593120275));
#539 = CARTESIAN_POINT('',(0.209024669591,-0.215951914904));
#540 = CARTESIAN_POINT('',(0.216517614189,-0.217307780616));
#541 = CARTESIAN_POINT('',(0.224014582551,-0.218660493553));
#542 = CARTESIAN_POINT('',(0.229014166342,-0.219559831967));
#543 = CARTESIAN_POINT('',(0.231514656156,-0.220008894501));
#544 = ( GEOMETRIC_REPRESENTATION_CONTEXT(2) 
PARAMETRIC_REPRESENTATION_CONTEXT() REPRESENTATION_CONTEXT('2D SPACE',''
  ) );
#545 = ( GEOMETRIC_REPRESENTATION_CONTEXT(3) 
GLOBAL_UNCERTAINTY_ASSIGNED_CONTEXT((#549)) GLOBAL_UNIT_ASSIGNED_CONTEXT
((#546,#547,#548)) REPRESENTATION_CONTEXT('Context #1',
  '3D Context with UNIT and UNCERTAINTY') );
#546 = ( LENGTH_UNIT() NAMED_UNIT(*) SI_UNIT(.MILLI.,.METRE.) );
#547 = ( NAMED_UNIT(*) PLANE_ANGLE_UNIT() SI_UNIT($,.RADIAN.) );
#548 = ( NAMED_UNIT(*) SI_UNIT($,.STERADIAN.) SOLID_ANGLE_UNIT() );
#549 = UNCERTAINTY_MEASURE_WITH_UNIT(LENGTH_MEASURE(1.E-07),#546,
  'distance_accuracy_value','confusion accuracy');
#550 = CONTEXT_DEPENDENT_SHAPE_REPRESENTATION(#551,#553);
#551 = ( REPRESENTATION_RELATIONSHIP('','',#40,#10) 
REPRESENTATION_RELATIONSHIP_WITH_TRANSFORMATION(#552) 
SHAPE_REPRESENTATION_RELATIONSHIP() );
#552 = ITEM_DEFINED_TRANSFORMATION('','',#11,#15);
#553 = PRODUCT_DEFINITION_SHAPE('Placement','Placement of an item',#554
  );
#554 = NEXT_ASSEMBLY_USAGE_OCCURRENCE('10','','',#5,#35,$);
#555 = PRODUCT_RELATED_PRODUCT_CATEGORY('part',$,(#37));
#556 = SHAPE_DEFINITION_REPRESENTATION(#557,#563);
#557 = PRODUCT_DEFINITION_SHAPE('','',#558);
#558 = PRODUCT_DEFINITION('design','',#559,#562);
#559 = PRODUCT_DEFINITION_FORMATION('','',#560);
#560 = PRODUCT('Open CASCADE STEP translator 7.8 4.2',
  'Open CASCADE STEP translator 7.8 4.2','',(#561));
#561 = PRODUCT_CONTEXT('',#2,'mechanical');
#562 = PRODUCT_DEFINITION_CONTEXT('part definition',#2,'design');
#563 = GEOMETRICALLY_BOUNDED_WIREFRAME_SHAPE_REPRESENTATION('',(#11,#564
    ),#671);
#564 = GEOMETRIC_CURVE_SET('',(#565));
#565 = TRIMMED_CURVE('',#566,(#669,PARAMETER_VALUE(0.)),(#670,
    PARAMETER_VALUE(0.755299496671)),.T.,.PARAMETER.);
#566 = B_SPLINE_CURVE_WITH_KNOTS('',3,(#567,#568,#569,#570,#571,#572,
    #573,#574,#575,#576,#577,#578,#579,#580,#581,#582,#583,#584,#585,
    #586,#587,#588,#589,#590,#591,#592,#593,#594,#595,#596,#597,#598,
    #599,#600,#601,#602,#603,#604,#605,#606,#607,#608,#609,#610,#611,
    #612,#613,#614,#615,#616,#617,#618,#619,#620,#621,#622,#623,#624,
    #625,#626,#627,#628,#629,#630,#631,#632,#633,#634,#635,#636,#637,
    #638,#639,#640,#641,#642,#643,#644,#645,#646,#647,#648,#649,#650,
    #651,#652,#653,#654,#655,#656,#657,#658,#659,#660,#661,#662,#663,
    #664,#665,#666,#667,#668),.UNSPECIFIED.,.F.,.F.,(4,1,1,1,1,1,1,1,1,1
    ,1,1,1,1,1,1,1,1,1,1,1,1,1,1,1,1,1,1,1,1,1,1,1,1,1,1,1,1,1,1,1,1,1,1
    ,1,1,1,1,1,1,1,1,1,1,1,1,1,1,1,1,1,1,1,1,1,1,1,1,1,1,1,1,1,1,1,1,1,1
    ,1,1,1,1,1,1,1,1,1,1,1,1,1,1,1,1,1,1,1,1,1,4),(0.,1.483569735175E-02
    ,2.382802929869E-02,3.216231837123E-02,4.021148258262E-02,
    4.810013271797E-02,5.588545313168E-02,6.359854072483E-02,
    7.125824666018E-02,7.88769055511E-02,8.646306120503E-02,
    9.402289952458E-02,0.101561060865,0.109081128767,0.116585938473,
    0.124077779576,0.131558533683,0.139029770649,0.146492817538,
    0.153948809148,0.161398725734,0.168843421667,0.176283647555,
    0.183720067548,0.191153273053,0.19858379374,0.206012106453,
    0.21343864252,0.220863793779,0.228287917615,0.235711341178,
    0.24313436497,0.250557265887,0.257980299842,0.265403704024,
    0.272827698863,0.280252489744,0.287678268515,0.295105214815,
    0.302533497254,0.309987512987,0.317479219307,0.3249722106,
    0.332466550522,0.339962297126,0.347459503434,0.354958217954,
    0.36245848515,0.369960345865,0.37746383772,0.384968995466,
    0.392475851317,0.399984435249,0.407494775284,0.415006897741,
    0.422520827482,0.43003658813,0.437554202271,0.445073691656,
    0.452595077367,0.460118379996,0.467643619793,0.475170816817,
    0.482699991076,0.490231162651,0.497764351827,0.505299579202,
    0.512836865806,0.520376233198,0.527917703573,0.535461299858,
    0.543007045799,0.550554966058,0.558105086296,0.565657433254,
    0.57321203484,0.580768920207,0.588328119828,0.59588966558,
    0.603453590815,0.611019930437,0.618588720979,0.626160000677,
    0.633733809547,0.641310189461,0.648889184222,0.656470839645,
    0.664055203635,0.671642326266,0.679232259867,0.686825059101,
    0.694420781053,0.702019485323,0.709621234107,0.7172260923,
    0.724834127587,0.732445410541,0.740060014729,0.747678016815,
    0.755299496671),.UNSPECIFIED.);
#567 = CARTESIAN_POINT('',(9.18023442091E-03,0.465586931631,0.));
#568 = CARTESIAN_POINT('',(9.29227158877E-03,0.459929326012,0.));
#569 = CARTESIAN_POINT('',(1.282714295857E-02,0.45282620059,0.));
#570 = CARTESIAN_POINT('',(2.115993488335E-02,0.445811016312,0.));
#571 = CARTESIAN_POINT('',(2.812674717586E-02,0.441048203312,0.));
#572 = CARTESIAN_POINT('',(3.514349732037E-02,0.436995210735,0.));
#573 = CARTESIAN_POINT('',(4.217464535347E-02,0.433376213189,0.));
#574 = CARTESIAN_POINT('',(4.923551537071E-02,0.430067606977,0.));
#575 = CARTESIAN_POINT('',(5.631771067809E-02,0.426994828844,0.));
#576 = CARTESIAN_POINT('',(6.341853879547E-02,0.42411007345,0.));
#577 = CARTESIAN_POINT('',(7.053465621466E-02,0.421379822601,0.));
#578 = CARTESIAN_POINT('',(7.766376711143E-02,0.418779554923,0.));
#579 = CARTESIAN_POINT('',(8.480400033042E-02,0.416290580401,0.));
#580 = CARTESIAN_POINT('',(9.19539067538E-02,0.413898231535,0.));
#581 = CARTESIAN_POINT('',(9.911232857405E-02,0.41159070671,0.));
#582 = CARTESIAN_POINT('',(0.10627833658,0.409358314748,0.));
#583 = CARTESIAN_POINT('',(0.113451175224,0.407192957847,0.));
#584 = CARTESIAN_POINT('',(0.120630224424,0.405087768087,0.));
#585 = CARTESIAN_POINT('',(0.127814970394,0.403036844767,0.));
#586 = CARTESIAN_POINT('',(0.135004983771,0.401035060425,0.));
#587 = CARTESIAN_POINT('',(0.142199902844,0.399077914744,0.));
#588 = CARTESIAN_POINT('',(0.149399420597,0.397161422646,0.));
#589 = CARTESIAN_POINT('',(0.156603274578,0.395282027262,0.));
#590 = CARTESIAN_POINT('',(0.163811238897,0.393436531343,0.));
#591 = CARTESIAN_POINT('',(0.171023117856,0.391622042536,0.));
#592 = CARTESIAN_POINT('',(0.178238740834,0.389835929259,0.));
#593 = CARTESIAN_POINT('',(0.185457958145,0.388075784756,0.));
#594 = CARTESIAN_POINT('',(0.19268063767,0.386339397559,0.));
#595 = CARTESIAN_POINT('',(0.199906662091,0.384624727006,0.));
#596 = CARTESIAN_POINT('',(0.207135926619,0.382929882806,0.));
#597 = CARTESIAN_POINT('',(0.214368337108,0.381253107852,0.));
#598 = CARTESIAN_POINT('',(0.221603808496,0.379592763672,0.));
#599 = CARTESIAN_POINT('',(0.228842263507,0.377947318077,0.));
#600 = CARTESIAN_POINT('',(0.236083631532,0.376315334432,0.));
#601 = CARTESIAN_POINT('',(0.24332784783,0.374695463008,0.));
#602 = CARTESIAN_POINT('',(0.250574852376,0.373086431315,0.));
#603 = CARTESIAN_POINT('',(0.257824590651,0.37148704386,0.));
#604 = CARTESIAN_POINT('',(0.26507700779,0.369896151473,0.));
#605 = CARTESIAN_POINT('',(0.272332067986,0.368312738216,0.));
#606 = CARTESIAN_POINT('',(0.279589680013,0.366735572796,0.));
#607 = CARTESIAN_POINT('',(0.286857870293,0.365162779706,0.));
#608 = CARTESIAN_POINT('',(0.294147703,0.363587932212,0.));
#609 = CARTESIAN_POINT('',(0.301461285574,0.362020908265,0.));
#610 = CARTESIAN_POINT('',(0.308790958598,0.360464890883,0.));
#611 = CARTESIAN_POINT('',(0.316124587986,0.358921080028,0.));
#612 = CARTESIAN_POINT('',(0.323462092681,0.357388907131,0.));
#613 = CARTESIAN_POINT('',(0.330803354916,0.355867639683,0.));
#614 = CARTESIAN_POINT('',(0.338148273743,0.354356631519,0.));
#615 = CARTESIAN_POINT('',(0.345496750372,0.352855253579,0.));
#616 = CARTESIAN_POINT('',(0.352848691819,0.351362910516,0.));
#617 = CARTESIAN_POINT('',(0.360204009685,0.349879034481,0.));
#618 = CARTESIAN_POINT('',(0.367562620273,0.348403085177,0.));
#619 = CARTESIAN_POINT('',(0.374924444364,0.346934548382,0.));
#620 = CARTESIAN_POINT('',(0.382289407117,0.345472935005,0.));
#621 = CARTESIAN_POINT('',(0.389657437956,0.344017780117,0.));
#622 = CARTESIAN_POINT('',(0.397028470474,0.342568642087,0.));
#623 = CARTESIAN_POINT('',(0.404402442354,0.341125101785,0.));
#624 = CARTESIAN_POINT('',(0.411779295304,0.339686761848,0.));
#625 = CARTESIAN_POINT('',(0.419158974995,0.338253246001,0.));
#626 = CARTESIAN_POINT('',(0.426541431012,0.336824198435,0.));
#627 = CARTESIAN_POINT('',(0.433926616818,0.335399283228,0.));
#628 = CARTESIAN_POINT('',(0.441314489723,0.333978183809,0.));
#629 = CARTESIAN_POINT('',(0.448705010855,0.332560602461,0.));
#630 = CARTESIAN_POINT('',(0.456098145144,0.33114625986,0.));
#631 = CARTESIAN_POINT('',(0.463493861311,0.329734894643,0.));
#632 = CARTESIAN_POINT('',(0.470892131863,0.328326263013,0.));
#633 = CARTESIAN_POINT('',(0.478292933085,0.326920138357,0.));
#634 = CARTESIAN_POINT('',(0.485696245047,0.325516310905,0.));
#635 = CARTESIAN_POINT('',(0.493102051612,0.324114587395,0.));
#636 = CARTESIAN_POINT('',(0.50051034044,0.322714790774,0.));
#637 = CARTESIAN_POINT('',(0.50792110301,0.321316759904,0.));
#638 = CARTESIAN_POINT('',(0.515334334631,0.319920349297,0.));
#639 = CARTESIAN_POINT('',(0.522750034462,0.318525428856,0.));
#640 = CARTESIAN_POINT('',(0.530168205538,0.31713188364,0.));
#641 = CARTESIAN_POINT('',(0.537588854793,0.315739613633,0.));
#642 = CARTESIAN_POINT('',(0.545011993085,0.314348533537,0.));
#643 = CARTESIAN_POINT('',(0.552437635227,0.312958572563,0.));
#644 = CARTESIAN_POINT('',(0.559865800019,0.311569674247,0.));
#645 = CARTESIAN_POINT('',(0.567296510279,0.310181796264,0.));
#646 = CARTESIAN_POINT('',(0.574729792877,0.308794910258,0.));
#647 = CARTESIAN_POINT('',(0.582165678774,0.30740900168,0.));
#648 = CARTESIAN_POINT('',(0.589604203055,0.30602406963,0.));
#649 = CARTESIAN_POINT('',(0.597045404969,0.304640126712,0.));
#650 = CARTESIAN_POINT('',(0.604489327971,0.303257198893,0.));
#651 = CARTESIAN_POINT('',(0.611936019759,0.301875325365,0.));
#652 = CARTESIAN_POINT('',(0.619385532319,0.300494558421,0.));
#653 = CARTESIAN_POINT('',(0.626837921966,0.299114963331,0.));
#654 = CARTESIAN_POINT('',(0.634293249386,0.297736618221,0.));
#655 = CARTESIAN_POINT('',(0.641751579684,0.296359613965,0.));
#656 = CARTESIAN_POINT('',(0.649212982426,0.294984054075,0.));
#657 = CARTESIAN_POINT('',(0.656677531686,0.293610054596,0.));
#658 = CARTESIAN_POINT('',(0.664145306094,0.292237744007,0.));
#659 = CARTESIAN_POINT('',(0.671616388878,0.290867263125,0.));
#660 = CARTESIAN_POINT('',(0.679090867917,0.28949876501,0.));
#661 = CARTESIAN_POINT('',(0.686568835787,0.288132414883,0.));
#662 = CARTESIAN_POINT('',(0.694050389806,0.286768390025,0.));
#663 = CARTESIAN_POINT('',(0.701535632091,0.285406879725,0.));
#664 = CARTESIAN_POINT('',(0.709024669591,0.284048085096,0.));
#665 = CARTESIAN_POINT('',(0.716517614189,0.282692219384,0.));
#666 = CARTESIAN_POINT('',(0.724014582551,0.281339506447,0.));
#667 = CARTESIAN_POINT('',(0.729014166342,0.280440168033,-0.));
#668 = CARTESIAN_POINT('',(0.731514656156,0.279991105499,0.));
#669 = CARTESIAN_POINT('',(9.18023442091E-03,0.465586931631,0.));
#670 = CARTESIAN_POINT('',(0.731514656156,0.279991105499,0.));
#671 = ( GEOMETRIC_REPRESENTATION_CONTEXT(3) 
GLOBAL_UNCERTAINTY_ASSIGNED_CONTEXT((#675)) GLOBAL_UNIT_ASSIGNED_CONTEXT
((#672,#673,#674)) REPRESENTATION_CONTEXT('Context #1',
  '3D Context with UNIT and UNCERTAINTY') );
#672 = ( LENGTH_UNIT() NAMED_UNIT(*) SI_UNIT(.MILLI.,.METRE.) );
#673 = ( NAMED_UNIT(*) PLANE_ANGLE_UNIT() SI_UNIT($,.RADIAN.) );
#674 = ( NAMED_UNIT(*) SI_UNIT($,.STERADIAN.) SOLID_ANGLE_UNIT() );
#675 = UNCERTAINTY_MEASURE_WITH_UNIT(LENGTH_MEASURE(1.E-07),#672,
  'distance_accuracy_value','confusion accuracy');
#676 = CONTEXT_DEPENDENT_SHAPE_REPRESENTATION(#677,#679);
#677 = ( REPRESENTATION_RELATIONSHIP('','',#563,#10) 
REPRESENTATION_RELATIONSHIP_WITH_TRANSFORMATION(#678) 
SHAPE_REPRESENTATION_RELATIONSHIP() );
#678 = ITEM_DEFINED_TRANSFORMATION('','',#11,#19);
#679 = PRODUCT_DEFINITION_SHAPE('Placement','Placement of an item',#680
  );
#680 = NEXT_ASSEMBLY_USAGE_OCCURRENCE('11','','',#5,#558,$);
#681 = PRODUCT_RELATED_PRODUCT_CATEGORY('part',$,(#560));
#682 = SHAPE_DEFINITION_REPRESENTATION(#683,#689);
#683 = PRODUCT_DEFINITION_SHAPE('','',#684);
#684 = PRODUCT_DEFINITION('design','',#685,#688);
#685 = PRODUCT_DEFINITION_FORMATION('','',#686);
#686 = PRODUCT('Open CASCADE STEP translator 7.8 4.3',
  'Open CASCADE STEP translator 7.8 4.3','',(#687));
#687 = PRODUCT_CONTEXT('',#2,'mechanical');
#688 = PRODUCT_DEFINITION_CONTEXT('part definition',#2,'design');
#689 = GEOMETRICALLY_BOUNDED_WIREFRAME_SHAPE_REPRESENTATION('',(#11,#690
    ),#887);
#690 = GEOMETRIC_CURVE_SET('',(#691,#692,#693,#694,#695,#696,#697,#698,
    #699,#700,#701,#702,#703,#704,#705,#706,#707,#708,#709,#710,#711,
    #712,#713,#714,#715,#716,#717,#718,#719,#720,#721,#722,#723,#724,
    #725,#726,#727,#728,#729,#730,#731,#732,#733,#734,#735,#736,#737,
    #738,#739,#740,#741,#742,#743,#744,#745,#746,#747,#748,#749,#750,
    #751,#752,#753,#754,#755,#756,#757,#758,#759,#760,#761,#762,#763,
    #764,#765,#766,#767,#768,#769,#770,#771,#772,#773,#774,#775,#776,
    #777,#778,#779,#780,#781,#782,#783,#784,#785,#786,#787,#788,#789,
    #790,#791,#792,#793,#794,#795,#796,#797,#798,#799,#800,#801,#802,
    #803,#804,#805,#806,#807,#808,#809,#810,#811,#812,#813,#814,#815,
    #816,#817,#818,#819,#820,#821,#822,#823,#824,#825,#826,#827,#828,
    #829,#830,#831,#832,#833,#834,#835,#836,#837,#838,#839,#840,#841,
    #842,#843,#844,#845,#846,#847,#848,#849,#850,#851,#852,#853,#854,
    #855,#856,#857,#858,#859,#860,#861,#862,#863,#864,#865,#866,#867,
    #868,#869,#870,#871,#872,#873,#874,#875,#876,#877,#878,#879,#880,
    #881,#882,#883,#884,#885,#886));
#691 = CARTESIAN_POINT('',(1.861055828353E-02,0.477060834489,0.));
#692 = CARTESIAN_POINT('',(2.688238047785E-02,0.480747614141,0.));
#693 = CARTESIAN_POINT('',(3.496638825321E-02,0.483110929508,0.));
#694 = CARTESIAN_POINT('',(4.295219136455E-02,0.484765807428,0.));
#695 = CARTESIAN_POINT('',(5.08737905939E-02,0.485951025644,0.));
#696 = CARTESIAN_POINT('',(5.874826109464E-02,0.486789447901,0.));
#697 = CARTESIAN_POINT('',(6.658552652099E-02,0.487354380469,0.));
#698 = CARTESIAN_POINT('',(7.439190596568E-02,0.487693850079,0.));
#699 = CARTESIAN_POINT('',(8.217168441573E-02,0.487841439634,0.));
#700 = CARTESIAN_POINT('',(8.992790434662E-02,0.487821793577,0.));
#701 = CARTESIAN_POINT('',(9.766280328912E-02,0.487653685422,0.));
#702 = CARTESIAN_POINT('',(0.105378073078,0.487351849858,0.));
#703 = CARTESIAN_POINT('',(0.113075022013,0.486928138102,0.));
#704 = CARTESIAN_POINT('',(0.120754680804,0.486392279063,0.));
#705 = CARTESIAN_POINT('',(0.128417874328,0.485752399213,0.));
#706 = CARTESIAN_POINT('',(0.1360652717,0.485015388555,0.));
#707 = CARTESIAN_POINT('',(0.14369742211,0.484187164972,0.));
#708 = CARTESIAN_POINT('',(0.151314781054,0.48327286944,0.));
#709 = CARTESIAN_POINT('',(0.158917729878,0.482277013017,0.));
#710 = CARTESIAN_POINT('',(0.166506590598,0.481203589401,0.));
#711 = CARTESIAN_POINT('',(0.174081637303,0.480056162442,0.));
#712 = CARTESIAN_POINT('',(0.181643105021,0.478837935093,0.));
#713 = CARTESIAN_POINT('',(0.189191196723,0.477551804404,0.));
#714 = CARTESIAN_POINT('',(0.196726088878,0.476200405851,0.));
#715 = CARTESIAN_POINT('',(0.204247935923,0.474786149448,0.));
#716 = CARTESIAN_POINT('',(0.211756873878,0.4733112494,0.));
#717 = CARTESIAN_POINT('',(0.219253023285,0.471777748685,0.));
#718 = CARTESIAN_POINT('',(0.226736491626,0.470187539564,0.));
#719 = CARTESIAN_POINT('',(0.234207375308,0.468542380832,0.));
#720 = CARTESIAN_POINT('',(0.241665761305,0.466843912405,0.));
#721 = CARTESIAN_POINT('',(0.249111728531,0.465093667745,0.));
#722 = CARTESIAN_POINT('',(0.256545348972,0.463293084494,0.));
#723 = CARTESIAN_POINT('',(0.263966688642,0.461443513626,0.));
#724 = CARTESIAN_POINT('',(0.27137580837,0.459546227356,0.));
#725 = CARTESIAN_POINT('',(0.278772764472,0.45760242602,0.));
#726 = CARTESIAN_POINT('',(0.2861576093,0.455613244071,0.));
#727 = CARTESIAN_POINT('',(0.293530391711,0.453579755339,0.));
#728 = CARTESIAN_POINT('',(0.300891157447,0.451502977647,0.));
#729 = CARTESIAN_POINT('',(0.308239949461,0.4493838769,0.));
#730 = CARTESIAN_POINT('',(0.315553551937,0.447230205948,0.));
#731 = CARTESIAN_POINT('',(0.322822818841,0.445053424779,0.));
#732 = CARTESIAN_POINT('',(0.33008379048,0.442847160868,0.));
#733 = CARTESIAN_POINT('',(0.337336587776,0.440612176802,0.));
#734 = CARTESIAN_POINT('',(0.344581325577,0.438349198213,0.));
#735 = CARTESIAN_POINT('',(0.351818112977,0.436058915822,0.));
#736 = CARTESIAN_POINT('',(0.359047053597,0.433741987276,0.));
#737 = CARTESIAN_POINT('',(0.366268245825,0.431399038813,0.));
#738 = CARTESIAN_POINT('',(0.373481783041,0.429030666767,0.));
#739 = CARTESIAN_POINT('',(0.380687753796,0.426637438936,0.));
#740 = CARTESIAN_POINT('',(0.387886241987,0.424219895824,0.));
#741 = CARTESIAN_POINT('',(0.395077326997,0.421778551779,0.));
#742 = CARTESIAN_POINT('',(0.402261083822,0.419313896021,0.));
#743 = CARTESIAN_POINT('',(0.409437583181,0.416826393595,0.));
#744 = CARTESIAN_POINT('',(0.41660689161,0.414316486241,0.));
#745 = CARTESIAN_POINT('',(0.423769071546,0.411784593189,0.));
#746 = CARTESIAN_POINT('',(0.430924181392,0.409231111895,0.));
#747 = CARTESIAN_POINT('',(0.438072275581,0.406656418717,0.));
#748 = CARTESIAN_POINT('',(0.445213404619,0.404060869546,0.));
#749 = CARTESIAN_POINT('',(0.452347615133,0.401444800376,0.));
#750 = CARTESIAN_POINT('',(0.459474949894,0.398808527849,0.));
#751 = CARTESIAN_POINT('',(0.46659544785,0.396152349745,0.));
#752 = CARTESIAN_POINT('',(0.47370914414,0.393476545448,0.));
#753 = CARTESIAN_POINT('',(0.480816070108,0.390781376375,0.));
#754 = CARTESIAN_POINT('',(0.48791625331,0.388067086379,0.));
#755 = CARTESIAN_POINT('',(0.495009717518,0.385333902117,0.));
#756 = CARTESIAN_POINT('',(0.502096482714,0.382582033409,0.));
#757 = CARTESIAN_POINT('',(0.509176565087,0.379811673557,0.));
#758 = CARTESIAN_POINT('',(0.516249977024,0.377022999657,0.));
#759 = CARTESIAN_POINT('',(0.523316727091,0.374216172882,0.));
#760 = CARTESIAN_POINT('',(0.530376820023,0.371391338758,0.));
#761 = CARTESIAN_POINT('',(0.537430256699,0.368548627414,0.));
#762 = CARTESIAN_POINT('',(0.544477034124,0.365688153824,0.));
#763 = CARTESIAN_POINT('',(0.551517145402,0.362810018033,0.));
#764 = CARTESIAN_POINT('',(0.55855057971,0.359914305368,0.));
#765 = CARTESIAN_POINT('',(0.56557732227,0.357001086643,0.));
#766 = CARTESIAN_POINT('',(0.572597354314,0.354070418349,0.));
#767 = CARTESIAN_POINT('',(0.579610653059,0.351122342834,0.));
#768 = CARTESIAN_POINT('',(0.586617191664,0.348156888477,0.));
#769 = CARTESIAN_POINT('',(0.593616939203,0.345174069848,0.));
#770 = CARTESIAN_POINT('',(0.600609860621,0.342173887867,0.));
#771 = CARTESIAN_POINT('',(0.607595916699,0.33915632995,0.));
#772 = CARTESIAN_POINT('',(0.614575064014,0.33612137015,0.));
#773 = CARTESIAN_POINT('',(0.621547254898,0.33306896929,0.));
#774 = CARTESIAN_POINT('',(0.628512437398,0.329999075094,0.));
#775 = CARTESIAN_POINT('',(0.635470555231,0.32691162231,0.));
#776 = CARTESIAN_POINT('',(0.642421547741,0.323806532826,0.));
#777 = CARTESIAN_POINT('',(0.649365349857,0.320683715782,0.));
#778 = CARTESIAN_POINT('',(0.656301892047,0.317543067681,0.));
#779 = CARTESIAN_POINT('',(0.66323110027,0.314384472491,0.));
#780 = CARTESIAN_POINT('',(0.670152895934,0.311207801748,0.));
#781 = CARTESIAN_POINT('',(0.677067195844,0.308012914645,0.));
#782 = CARTESIAN_POINT('',(0.683973912161,0.304799658135,0.));
#783 = CARTESIAN_POINT('',(0.690872952348,0.301567867011,0.));
#784 = CARTESIAN_POINT('',(0.697764219125,0.298317363999,0.));
#785 = CARTESIAN_POINT('',(0.70464761042,0.295047959837,0.));
#786 = CARTESIAN_POINT('',(0.711523019319,0.29175945336,0.));
#787 = CARTESIAN_POINT('',(0.718390334016,0.288451631574,0.));
#788 = CARTESIAN_POINT('',(0.725249437765,0.285124269734,0.));
#789 = CARTESIAN_POINT('',(1.471686548286E-02,0.451823079249,0.));
#790 = CARTESIAN_POINT('',(2.140257556169E-02,0.4458094851,0.));
#791 = CARTESIAN_POINT('',(2.826667740805E-02,0.441082490263,0.));
#792 = CARTESIAN_POINT('',(3.521956126701E-02,0.4370270679,0.));
#793 = CARTESIAN_POINT('',(4.222722635654E-02,0.433404440269,0.));
#794 = CARTESIAN_POINT('',(4.927259752326E-02,0.430091743623,0.));
#795 = CARTESIAN_POINT('',(5.634575111295E-02,0.427015671694,0.));
#796 = CARTESIAN_POINT('',(6.344036803288E-02,0.42412819775,0.));
#797 = CARTESIAN_POINT('',(7.055216329601E-02,0.421395738888,0.));
#798 = CARTESIAN_POINT('',(7.76780944269E-02,0.418793650665,0.));
#799 = CARTESIAN_POINT('',(8.481592389475E-02,0.416303159567,0.));
#800 = CARTESIAN_POINT('',(9.196395986437E-02,0.413909530906,0.));
#801 = CARTESIAN_POINT('',(9.912089403755E-02,0.411600913463,0.));
#802 = CARTESIAN_POINT('',(0.106285695703,0.40936757833,0.));
#803 = CARTESIAN_POINT('',(0.113457539983,0.407201399037,0.));
#804 = CARTESIAN_POINT('',(0.120635757765,0.405095485578,0.));
#805 = CARTESIAN_POINT('',(0.127819799856,0.403043920071,0.));
#806 = CARTESIAN_POINT('',(0.135009210762,0.40104156154,0.));
#807 = CARTESIAN_POINT('',(0.142203609138,0.399083898927,0.));
#808 = CARTESIAN_POINT('',(0.149402672965,0.397166938534,0.));
#809 = CARTESIAN_POINT('',(0.156606128157,0.395287116512,0.));
#810 = CARTESIAN_POINT('',(0.163813739683,0.393441229907,0.));
#811 = CARTESIAN_POINT('',(0.171025304574,0.391626381669,0.));
#812 = CARTESIAN_POINT('',(0.178240646361,0.389839936322,0.));
#813 = CARTESIAN_POINT('',(0.185459610606,0.388079483852,0.));
#814 = CARTESIAN_POINT('',(0.192682061291,0.386342810055,0.));
#815 = CARTESIAN_POINT('',(0.199907877871,0.384627871951,0.));
#816 = CARTESIAN_POINT('',(0.207136952866,0.38293277728,0.));
#817 = CARTESIAN_POINT('',(0.214369189869,0.381255767248,0.));
#818 = CARTESIAN_POINT('',(0.221604501906,0.379595201938,0.));
#819 = CARTESIAN_POINT('',(0.228842810062,0.377949547888,0.));
#820 = CARTESIAN_POINT('',(0.236084042351,0.376317367456,0.));
#821 = CARTESIAN_POINT('',(0.24332813276,0.374697309668,0.));
#822 = CARTESIAN_POINT('',(0.250575020459,0.37308810231,0.));
#823 = CARTESIAN_POINT('',(0.257824649134,0.371488545045,0.));
#824 = CARTESIAN_POINT('',(0.26507696643,0.369897503419,0.));
#825 = CARTESIAN_POINT('',(0.272331923493,0.368313903604,0.));
#826 = CARTESIAN_POINT('',(0.279589474579,0.366736727776,0.));
#827 = CARTESIAN_POINT('',(0.286849576735,0.36516501003,0.));
#828 = CARTESIAN_POINT('',(0.294135864563,0.363592635959,0.));
#829 = CARTESIAN_POINT('',(0.301461357852,0.362023301176,0.));
#830 = CARTESIAN_POINT('',(0.308790958562,0.360467064702,0.));
#831 = CARTESIAN_POINT('',(0.316124545769,0.358923163952,0.));
#832 = CARTESIAN_POINT('',(0.323462004627,0.357390873291,0.));
#833 = CARTESIAN_POINT('',(0.330803226039,0.355869502,0.));
#834 = CARTESIAN_POINT('',(0.338148106387,0.354358392432,0.));
#835 = CARTESIAN_POINT('',(0.345496547282,0.352856918349,0.));
#836 = CARTESIAN_POINT('',(0.352848455344,0.351364483416,0.));
#837 = CARTESIAN_POINT('',(0.360203742022,0.349880519836,0.));
#838 = CARTESIAN_POINT('',(0.367562323418,0.348404487103,0.));
#839 = CARTESIAN_POINT('',(0.374924120151,0.346935870873,0.));
#840 = CARTESIAN_POINT('',(0.382289057224,0.345474181923,0.));
#841 = CARTESIAN_POINT('',(0.389657063917,0.344018955207,0.));
#842 = CARTESIAN_POINT('',(0.397028073695,0.342569748988,0.));
#843 = CARTESIAN_POINT('',(0.404402024122,0.341126144035,0.));
#844 = CARTESIAN_POINT('',(0.411778856793,0.339687742891,0.));
#845 = CARTESIAN_POINT('',(0.419158517277,0.338254169198,0.));
#846 = CARTESIAN_POINT('',(0.426540955065,0.336825067067,0.));
#847 = CARTESIAN_POINT('',(0.433926123533,0.335400100501,0.));
#848 = CARTESIAN_POINT('',(0.441313979909,0.333978952861,0.));
#849 = CARTESIAN_POINT('',(0.448704485245,0.332561326365,0.));
#850 = CARTESIAN_POINT('',(0.456097604402,0.33114694163,0.));
#851 = CARTESIAN_POINT('',(0.463493306036,0.329735537238,0.));
#852 = CARTESIAN_POINT('',(0.47089156259,0.328326869338,0.));
#853 = CARTESIAN_POINT('',(0.478292350294,0.32692071127,0.));
#854 = CARTESIAN_POINT('',(0.485695649165,0.325516853216,0.));
#855 = CARTESIAN_POINT('',(0.493101443013,0.324115101873,0.));
#856 = CARTESIAN_POINT('',(0.500509719452,0.322715280148,0.));
#857 = CARTESIAN_POINT('',(0.507920469917,0.321317226863,0.));
#858 = CARTESIAN_POINT('',(0.515333689671,0.319920796496,0.));
#859 = CARTESIAN_POINT('',(0.522749377836,0.318525858916,0.));
#860 = CARTESIAN_POINT('',(0.530167537407,0.31713229915,0.));
#861 = CARTESIAN_POINT('',(0.53758817528,0.315740017153,0.));
#862 = CARTESIAN_POINT('',(0.545011302277,0.314348927597,0.));
#863 = CARTESIAN_POINT('',(0.552436933179,0.312958959669,0.));
#864 = CARTESIAN_POINT('',(0.55986508675,0.311570056877,0.));
#865 = CARTESIAN_POINT('',(0.567295785776,0.310182176874,0.));
#866 = CARTESIAN_POINT('',(0.574729057096,0.308795291281,0.));
#867 = CARTESIAN_POINT('',(0.582164931638,0.307409385527,0.));
#868 = CARTESIAN_POINT('',(0.589603444455,0.306024458692,0.));
#869 = CARTESIAN_POINT('',(0.597044634768,0.304640523361,0.));
#870 = CARTESIAN_POINT('',(0.604488545998,0.303257605482,0.));
#871 = CARTESIAN_POINT('',(0.611935225814,0.30187574423,0.));
#872 = CARTESIAN_POINT('',(0.619384726169,0.30049499188,0.));
#873 = CARTESIAN_POINT('',(0.626837103347,0.299115413687,0.));
#874 = CARTESIAN_POINT('',(0.634292418001,0.297737087762,0.));
#875 = CARTESIAN_POINT('',(0.641750735205,0.296360104965,0.));
#876 = CARTESIAN_POINT('',(0.64921212449,0.294984568791,0.));
#877 = CARTESIAN_POINT('',(0.656676659897,0.293610595274,0.));
#878 = CARTESIAN_POINT('',(0.664144420018,0.292238312879,0.));
#879 = CARTESIAN_POINT('',(0.671615488047,0.29086786241,0.));
#880 = CARTESIAN_POINT('',(0.679089951825,0.289499396916,0.));
#881 = CARTESIAN_POINT('',(0.686567903887,0.288133081604,0.));
#882 = CARTESIAN_POINT('',(0.694049441514,0.286769093747,0.));
#883 = CARTESIAN_POINT('',(0.701534666779,0.285407622608,0.));
#884 = CARTESIAN_POINT('',(0.709023686594,0.284048869352,0.));
#885 = CARTESIAN_POINT('',(0.716516612766,0.282693046973,0.));
#886 = CARTESIAN_POINT('',(0.724013562041,0.281340380214,0.));
#887 = ( GEOMETRIC_REPRESENTATION_CONTEXT(3) 
GLOBAL_UNCERTAINTY_ASSIGNED_CONTEXT((#891)) GLOBAL_UNIT_ASSIGNED_CONTEXT
((#888,#889,#890)) REPRESENTATION_CONTEXT('Context #1',
  '3D Context with UNIT and UNCERTAINTY') );
#888 = ( LENGTH_UNIT() NAMED_UNIT(*) SI_UNIT(.MILLI.,.METRE.) );
#889 = ( NAMED_UNIT(*) PLANE_ANGLE_UNIT() SI_UNIT($,.RADIAN.) );
#890 = ( NAMED_UNIT(*) SI_UNIT($,.STERADIAN.) SOLID_ANGLE_UNIT() );
#891 = UNCERTAINTY_MEASURE_WITH_UNIT(LENGTH_MEASURE(1.E-07),#888,
  'distance_accuracy_value','confusion accuracy');
#892 = CONTEXT_DEPENDENT_SHAPE_REPRESENTATION(#893,#895);
#893 = ( REPRESENTATION_RELATIONSHIP('','',#689,#10) 
REPRESENTATION_RELATIONSHIP_WITH_TRANSFORMATION(#894) 
SHAPE_REPRESENTATION_RELATIONSHIP() );
#894 = ITEM_DEFINED_TRANSFORMATION('','',#11,#23);
#895 = PRODUCT_DEFINITION_SHAPE('Placement','Placement of an item',#896
  );
#896 = NEXT_ASSEMBLY_USAGE_OCCURRENCE('12','','',#5,#684,$);
#897 = PRODUCT_RELATED_PRODUCT_CATEGORY('part',$,(#686));
ENDSEC;
END-ISO-10303-21;
