$MeshFormat
4.1 0 8
$EndMeshFormat
$PhysicalNames
25
2 1 "aS_ru_blade_rot_0"
2 2 "aS_ru_blade_rot_1"
2 3 "aS_ru_blade_rot_2"
2 4 "aS_ru_blade_rot_3"
2 5 "aS_ru_blade_rot_4"
2 6 "aS_ru_hub_0"
2 7 "aS_ru_hub_1"
2 8 "aS_ru_hub_2"
2 9 "aS_ru_hub_3"
2 10 "aS_ru_hub_4"
2 11 "aS_ru_hub_5"
2 12 "aS_ru_shroud_0"
2 13 "aS_ru_shroud_1"
2 14 "aS_ru_shroud_2"
2 15 "aS_ru_shroud_3"
2 16 "aS_ru_shroud_4"
2 17 "aS_ru_shroud_5"
2 18 "aS_ru_inlet_full_0"
2 19 "aS_ru_outlet_full_0"
3 1 "R_0"
3 2 "R_1"
3 3 "R_2"
3 4 "R_3"
3 5 "R_4"
3 6 "R_5"
$EndPhysicalNames
$Entities
28 52 31 7
1 0.46551163012949 0.1824799227701086 0 0 
2 0.1824799227701087 -0.46551163012949 0 0 
3 0.4963993110939297 -0.05989761218506126 2.5 0 
4 0.05989761218506134 0.4963993110939297 2.5 0 
5 1.679350330330893 0.8886970110327037 0 0 
6 0.888697011032704 -1.679350330330893 0 0 
7 1.662343710718029 -0.9201159148917888 2.5 0 
8 0.920115914891789 1.662343710718029 2.5 0 
9 0.3999295250105286 0.3000939436657345 1.716385472301303 0 
10 0.4499797050904843 -0.2179868459487424 1.180508461587745 0 
11 0.4258437203445317 -0.2620250481216028 1.144271121949214 0 
12 0.4141253484885541 0.2801788638338616 1.783710090319252 0 
13 1.830037720303336 0.5108442538268481 1.587851366633172 0 
14 1.812126922449757 -0.5711356461767322 1.298915730927843 0 
15 1.791908732527479 -0.6317143370960527 1.287299034969888 0 
16 1.83281980050582 0.5007708939971897 1.650885278112691 0 
17 0.4673930531720953 -0.1776055569132534 1.165501735410774 0 
18 0.4722685011797134 -0.1642025054421125 1.10770779074577 0 
19 1.822129619066336 -0.5383712108964511 1.258816081022987 0 
20 1.814178899614104 -0.5645837666776284 1.203324808405811 0 
21 0.3949790211393319 0.306580450876789 1.703433726957928 0 
22 0.3647621377901675 0.3419774595419219 1.655586454256499 0 
23 1.829153425044604 0.5140016119123881 1.569656310500439 0 
24 1.826048319973588 0.5249261305389323 1.508823676455832 0 
25 0.3933613251855091 0.3086533133603139 1.714122183790748 0 
26 0.3557348931748934 0.3513583438284157 1.749797346597279 0 
27 1.826074731126729 0.5248342459685569 1.58107246878322 0 
28 1.806251759801394 0.5894527034591572 1.593199926447051 0 
1 0 0 0 0 0 0 0 0 
2 0 0 0 0 0 0 0 0 
3 0 0 0 0 0 0 0 0 
4 0 0 0 0 0 0 0 0 
5 0 0 0 0 0 0 0 0 
6 0 0 0 0 0 0 0 0 
7 0 0 0 0 0 0 0 0 
8 0 0 0 0 0 0 0 0 
9 0 0 0 0 0 0 0 0 
10 0 0 0 0 0 0 0 0 
11 0 0 0 0 0 0 0 0 
12 0 0 0 0 0 0 0 0 
13 0 0 0 0 0 0 0 0 
14 0 0 0 0 0 0 0 0 
15 0 0 0 0 0 0 0 0 
16 0 0 0 0 0 0 0 0 
17 0 0 0 0 0 0 0 0 
18 0 0 0 0 0 0 0 0 
19 0 0 0 0 0 0 0 0 
20 0 0 0 0 0 0 0 0 
21 0 0 0 0 0 0 0 0 
22 0 0 0 0 0 0 0 0 
23 0 0 0 0 0 0 0 0 
24 0 0 0 0 0 0 0 0 
25 0 0 0 0 0 0 0 0 
26 0 0 0 0 0 0 0 0 
27 0 0 0 0 0 0 0 0 
28 0 0 0 0 0 0 0 0 
29 0 0 0 0 0 0 0 0 
30 0 0 0 0 0 0 0 0 
31 0 0 0 0 0 0 0 0 
32 0 0 0 0 0 0 0 0 
33 0 0 0 0 0 0 0 0 
34 0 0 0 0 0 0 0 0 
35 0 0 0 0 0 0 0 0 
36 0 0 0 0 0 0 0 0 
37 0 0 0 0 0 0 0 0 
38 0 0 0 0 0 0 0 0 
39 0 0 0 0 0 0 0 0 
40 0 0 0 0 0 0 0 0 
41 0 0 0 0 0 0 0 0 
42 0 0 0 0 0 0 0 0 
43 0 0 0 0 0 0 0 0 
44 0 0 0 0 0 0 0 0 
45 0 0 0 0 0 0 0 0 
46 0 0 0 0 0 0 0 0 
47 0 0 0 0 0 0 0 0 
48 0 0 0 0 0 0 0 0 
49 0 0 0 0 0 0 0 0 
50 0 0 0 0 0 0 0 0 
51 0 0 0 0 0 0 0 0 
52 0 0 0 0 0 0 0 0 
1 0 0 0 0 0 0 0 0 
2 0 0 0 0 0 0 0 0 
3 0 0 0 0 0 0 0 0 
4 0 0 0 0 0 0 0 0 
5 0 0 0 0 0 0 0 0 
6 0 0 0 0 0 0 0 0 
7 0 0 0 0 0 0 0 0 
8 0 0 0 0 0 0 0 0 
9 0 0 0 0 0 0 0 0 
10 0 0 0 0 0 0 0 0 
11 0 0 0 0 0 0 0 0 
12 0 0 0 0 0 0 0 0 
13 0 0 0 0 0 0 0 0 
14 0 0 0 0 0 0 0 0 
15 0 0 0 0 0 0 0 0 
16 0 0 0 0 0 0 0 0 
17 0 0 0 0 0 0 0 0 
18 0 0 0 0 0 0 0 0 
19 0 0 0 0 0 0 0 0 
20 0 0 0 0 0 0 0 0 
21 0 0 0 0 0 0 0 0 
22 0 0 0 0 0 0 0 0 
23 0 0 0 0 0 0 0 0 
24 0 0 0 0 0 0 0 0 
25 0 0 0 0 0 0 0 0 
26 0 0 0 0 0 0 0 0 
27 0 0 0 0 0 0 0 0 
28 0 0 0 0 0 0 0 0 
29 0 0 0 0 0 0 0 0 
30 0 0 0 0 0 0 0 0 
31 0 0 0 0 0 0 0 0 
1 0 0 0 0 0 0 0 0 
2 0 0 0 0 0 0 0 0 
3 0 0 0 0 0 0 0 0 
4 0 0 0 0 0 0 0 0 
5 0 0 0 0 0 0 0 0 
6 0 0 0 0 0 0 0 0 
7 -1.797693134862316e+308 -1.797693134862316e+308 -1.797693134862316e+308 1.797693134862316e+308 1.797693134862316e+308 1.797693134862316e+308 0 31 1 2 3 4 5 6 7 8 9 10 11 12 13 14 15 16 17 18 19 20 21 22 23 24 25 26 27 28 29 30 31 
$EndEntities
$Nodes
118 28 1 28
0 1 0 1
1
0.46551163012949 0.1824799227701086 0
0 2 0 1
2
0.1824799227701087 -0.46551163012949 0
0 3 0 1
3
0.4963993110939297 -0.05989761218506126 2.5
0 4 0 1
4
0.05989761218506134 0.4963993110939297 2.5
0 5 0 1
5
1.679350330330893 0.8886970110327037 0
0 6 0 1
6
0.888697011032704 -1.679350330330893 0
0 7 0 1
7
1.662343710718029 -0.9201159148917888 2.5
0 8 0 1
8
0.920115914891789 1.662343710718029 2.5
0 9 0 1
9
0.3999295250105286 0.3000939436657345 1.716385472301303
0 10 0 1
10
0.4499797050904843 -0.2179868459487424 1.180508461587745
0 11 0 1
11
0.4258437203445317 -0.2620250481216028 1.144271121949214
0 12 0 1
12
0.4141253484885541 0.2801788638338616 1.783710090319252
0 13 0 1
13
1.830037720303336 0.5108442538268481 1.587851366633172
0 14 0 1
14
1.812126922449757 -0.5711356461767322 1.298915730927843
0 15 0 1
15
1.791908732527479 -0.6317143370960527 1.287299034969888
0 16 0 1
16
1.83281980050582 0.5007708939971897 1.650885278112691
0 17 0 1
17
0.4673930531720953 -0.1776055569132534 1.165501735410774
0 18 0 1
18
0.4722685011797134 -0.1642025054421125 1.10770779074577
0 19 0 1
19
1.822129619066336 -0.5383712108964511 1.258816081022987
0 20 0 1
20
1.814178899614104 -0.5645837666776284 1.203324808405811
0 21 0 1
21
0.3949790211393319 0.306580450876789 1.703433726957928
0 22 0 1
22
0.3647621377901675 0.3419774595419219 1.655586454256499
0 23 0 1
23
1.829153425044604 0.5140016119123881 1.569656310500439
0 24 0 1
24
1.826048319973588 0.5249261305389323 1.508823676455832
0 25 0 1
25
0.3933613251855091 0.3086533133603139 1.714122183790748
0 26 0 1
26
0.3557348931748934 0.3513583438284157 1.749797346597279
0 27 0 1
27
1.826074731126729 0.5248342459685569 1.58107246878322
0 28 0 1
28
1.806251759801394 0.5894527034591572 1.593199926447051
1 1 0 0
1 2 0 0
1 3 0 0
1 4 0 0
1 5 0 0
1 6 0 0
1 7 0 0
1 8 0 0
1 9 0 0
1 10 0 0
1 11 0 0
1 12 0 0
1 13 0 0
1 14 0 0
1 15 0 0
1 16 0 0
1 17 0 0
1 18 0 0
1 19 0 0
1 20 0 0
1 21 0 0
1 22 0 0
1 23 0 0
1 24 0 0
1 25 0 0
1 26 0 0
1 27 0 0
1 28 0 0
1 29 0 0
1 30 0 0
1 31 0 0
1 32 0 0
1 33 0 0
1 34 0 0
1 35 0 0
1 36 0 0
1 37 0 0
1 38 0 0
1 39 0 0
1 40 0 0
1 41 0 0
1 42 0 0
1 43 0 0
1 44 0 0
1 45 0 0
1 46 0 0
1 47 0 0
1 48 0 0
1 49 0 0
1 50 0 0
1 51 0 0
1 52 0 0
2 1 0 0
2 2 0 0
2 3 0 0
2 4 0 0
2 5 0 0
2 6 0 0
2 7 0 0
2 8 0 0
2 9 0 0
2 10 0 0
2 11 0 0
2 12 0 0
2 13 0 0
2 14 0 0
2 15 0 0
2 16 0 0
2 17 0 0
2 18 0 0
2 19 0 0
2 20 0 0
2 21 0 0
2 22 0 0
2 23 0 0
2 24 0 0
2 25 0 0
2 26 0 0
2 27 0 0
2 28 0 0
2 29 0 0
2 30 0 0
2 31 0 0
3 1 0 0
3 2 0 0
3 3 0 0
3 4 0 0
3 5 0 0
3 6 0 0
3 7 0 0
$EndNodes
$Elements
28 28 1 28
0 1 15 1
1 1 
0 2 15 1
2 2 
0 3 15 1
3 3 
0 4 15 1
4 4 
0 5 15 1
5 5 
0 6 15 1
6 6 
0 7 15 1
7 7 
0 8 15 1
8 8 
0 9 15 1
9 9 
0 10 15 1
10 10 
0 11 15 1
11 11 
0 12 15 1
12 12 
0 13 15 1
13 13 
0 14 15 1
14 14 
0 15 15 1
15 15 
0 16 15 1
16 16 
0 17 15 1
17 17 
0 18 15 1
18 18 
0 19 15 1
19 19 
0 20 15 1
20 20 
0 21 15 1
21 21 
0 22 15 1
22 22 
0 23 15 1
23 23 
0 24 15 1
24 24 
0 25 15 1
25 25 
0 26 15 1
26 26 
0 27 15 1
27 27 
0 28 15 1
28 28 
$EndElements
