$MeshFormat
2.2 0 8
$EndMeshFormat
$PhysicalNames
1
1 1 "surface_2"
$EndPhysicalNames
$Nodes
889
1 6.5335692639e-02 -9.2850073746e-02 -4.9046046583e-01
2 6.5328397243e-02 -9.2748787428e-02 -4.9089771311e-01
3 6.5320763075e-02 -9.2604384803e-02 -4.9152927977e-01
4 6.5247356094e-02 -9.2476529105e-02 -4.9225240851e-01
5 6.5175240404e-02 -9.2335823305e-02 -4.9309374040e-01
6 6.5091740895e-02 -9.2197979726e-02 -4.9401062397e-01
7 6.4961358019e-02 -9.2092491181e-02 -4.9493874660e-01
8 6.4805973122e-02 -9.1975214447e-02 -4.9595710083e-01
9 6.4633862903e-02 -9.1911283142e-02 -4.9698410822e-01
10 6.4435400411e-02 -9.1843495486e-02 -4.9808262005e-01
11 6.4184971562e-02 -9.1800597150e-02 -4.9914893854e-01
12 6.3944062317e-02 -9.1765650914e-02 -5.0030414803e-01
13 6.3630145660e-02 -9.1734469752e-02 -5.0143627313e-01
14 6.3384169129e-02 -9.1708803716e-02 -5.0261566578e-01
15 6.3093585875e-02 -9.1724854735e-02 -5.0382012812e-01
16 6.2809640731e-02 -9.1746720232e-02 -5.0507731400e-01
17 6.2491473118e-02 -9.1764475676e-02 -5.0634915065e-01
18 6.2134277140e-02 -9.1833422452e-02 -5.0762756277e-01
19 6.1741547938e-02 -9.1929858059e-02 -5.0891209037e-01
20 6.1309162940e-02 -9.2086309038e-02 -5.1019138845e-01
21 6.0843414378e-02 -9.2268557219e-02 -5.1146741712e-01
22 6.0337492280e-02 -9.2528897243e-02 -5.1272143570e-01
23 5.9802674324e-02 -9.2812221035e-02 -5.1396606868e-01
24 5.9231424673e-02 -9.3162278200e-02 -5.1517876759e-01
25 5.8631585921e-02 -9.3546619275e-02 -5.1636891851e-01
26 5.8001361511e-02 -9.3989959799e-02 -5.1752327102e-01
27 5.7348679613e-02 -9.4454201978e-02 -5.1865370056e-01
28 5.6669939591e-02 -9.4964283359e-02 -5.1974752568e-01
29 5.5969506962e-02 -9.5504406794e-02 -5.2081002363e-01
30 5.5246925097e-02 -9.6089512196e-02 -5.2182879757e-01
31 5.4504561357e-02 -9.6705411075e-02 -5.2281191064e-01
32 5.3744239461e-02 -9.7335150120e-02 -5.2377096252e-01
33 5.2966108630e-02 -9.7995950102e-02 -5.2469102657e-01
34 5.2171767702e-02 -9.8671749112e-02 -5.2558326178e-01
35 5.1361964660e-02 -9.9374938641e-02 -5.2643510624e-01
36 5.0538298046e-02 -1.0009870258e-01 -5.2725050031e-01
37 4.9702412956e-02 -1.0083468239e-01 -5.2803410419e-01
38 4.8855616902e-02 -1.0159002189e-01 -5.2877714295e-01
39 4.7999524948e-02 -1.0235078858e-01 -5.2949084989e-01
40 4.7133427430e-02 -1.0315438174e-01 -5.3013068067e-01
41 4.6261590976e-02 -1.0396026593e-01 -5.3073936576e-01
42 4.5382023059e-02 -1.0481621159e-01 -5.3124498853e-01
43 4.4501079745e-02 -1.0566409307e-01 -5.3172649929e-01
44 4.3617758926e-02 -1.0654170464e-01 -5.3210510367e-01
45 4.2735830042e-02 -1.0741350613e-01 -5.3243861378e-01
46 4.1857136963e-02 -1.0827803306e-01 -5.3272025708e-01
47 4.0981544386e-02 -1.0913684241e-01 -5.3291763131e-01
48 4.0110231974e-02 -1.0997087430e-01 -5.3310113420e-01
49 3.9242327263e-02 -1.1078178139e-01 -5.3324894549e-01
50 3.8376783727e-02 -1.1156786442e-01 -5.3335786641e-01
51 3.7511938465e-02 -1.1232436582e-01 -5.3342705518e-01
52 3.6644708714e-02 -1.1304509972e-01 -5.3349088710e-01
53 3.5772086259e-02 -1.1372903773e-01 -5.3352873299e-01
54 3.4888781197e-02 -1.1437235867e-01 -5.3356108253e-01
55 3.3988718213e-02 -1.1497579561e-01 -5.3356387337e-01
56 3.3063170679e-02 -1.1553869887e-01 -5.3355081842e-01
57 3.2100907259e-02 -1.1606346293e-01 -5.3351916868e-01
58 3.1094197995e-02 -1.1655500877e-01 -5.3343280700e-01
59 3.0029711947e-02 -1.1701359088e-01 -5.3330062819e-01
60 2.8902036019e-02 -1.1743227970e-01 -5.3311258503e-01
61 2.7718116366e-02 -1.1778204048e-01 -5.3285663201e-01
62 6.5335692639e-02 -9.2850073746e-02 -4.9046046583e-01
63 6.5623235251e-02 -9.2973786878e-02 -4.9017354077e-01
64 6.6052945474e-02 -9.3180961913e-02 -4.8975532774e-01
65 6.6525568608e-02 -9.3485396597e-02 -4.8924280333e-01
66 6.7032665357e-02 -9.3827271533e-02 -4.8867942964e-01
67 6.7585392005e-02 -9.4208999075e-02 -4.8808271413e-01
68 6.8104216267e-02 -9.4704747522e-02 -4.8743135888e-01
69 6.8652147125e-02 -9.5220135342e-02 -4.8677790204e-01
70 6.9165586286e-02 -9.5812025982e-02 -4.8609968870e-01
71 6.9682197687e-02 -9.6464325179e-02 -4.8540902620e-01
72 7.0151254473e-02 -9.7153115284e-02 -4.8470999810e-01
73 7.0621158246e-02 -9.7927807480e-02 -4.8400864231e-01
74 7.1019844216e-02 -9.8744593294e-02 -4.8329771111e-01
75 7.1411252066e-02 -9.9611482365e-02 -4.8259706441e-01
76 7.1721424573e-02 -1.0055203000e-01 -4.8194886731e-01
77 7.2002165049e-02 -1.0152295780e-01 -4.8129932539e-01
78 7.2258437236e-02 -1.0252194357e-01 -4.8065072066e-01
79 7.2437096736e-02 -1.0358655658e-01 -4.8006698430e-01
80 7.2601349824e-02 -1.0468485307e-01 -4.7948318418e-01
81 7.2699702377e-02 -1.0580963948e-01 -4.7895424462e-01
82 7.2773250342e-02 -1.0696094750e-01 -4.7841517803e-01
83 7.2817245292e-02 -1.0811721773e-01 -4.7792114620e-01
84 7.2794594212e-02 -1.0931436496e-01 -4.7743686668e-01
85 7.2782441137e-02 -1.1055010784e-01 -4.7695498600e-01
86 7.2712997694e-02 -1.1176392845e-01 -4.7653844954e-01
87 7.2600288402e-02 -1.1303833638e-01 -4.7610472267e-01
88 7.2449167040e-02 -1.1428401036e-01 -4.7573070805e-01
89 7.2261579505e-02 -1.1556442604e-01 -4.7536643702e-01
90 7.2029698017e-02 -1.1684091037e-01 -4.7504401602e-01
91 7.1771369946e-02 -1.1810655583e-01 -4.7475538929e-01
92 7.1467671733e-02 -1.1940289291e-01 -4.7449348499e-01
93 7.1140647140e-02 -1.2063880022e-01 -4.7428081696e-01
94 7.0773511210e-02 -1.2193586682e-01 -4.7409319280e-01
95 7.0388631069e-02 -1.2313950506e-01 -4.7395571638e-01
96 6.9947664913e-02 -1.2439324406e-01 -4.7384948969e-01
97 6.9503913980e-02 -1.2558749453e-01 -4.7378124588e-01
98 6.9050351603e-02 -1.2677493927e-01 -4.7375431642e-01
99 6.8539254658e-02 -1.2793408256e-01 -4.7378042921e-01
100 6.8050569876e-02 -1.2906504418e-01 -4.7382023517e-01
101 6.7501532110e-02 -1.3016345032e-01 -4.7392083375e-01
102 6.6977496578e-02 -1.3124991657e-01 -4.7403199267e-01
103 6.6409517314e-02 -1.3228500526e-01 -4.7419495582e-01
104 6.5864363552e-02 -1.3333246992e-01 -4.7438440274e-01
105 6.5255117003e-02 -1.3432390642e-01 -4.7460288875e-01
106 6.4688954335e-02 -1.3530371046e-01 -4.7483971604e-01
107 6.4085889868e-02 -1.3624301769e-01 -4.7510905531e-01
108 6.3463730854e-02 -1.3716931527e-01 -4.7543031557e-01
109 6.2856105716e-02 -1.3805364064e-01 -4.7576450605e-01
110 6.2207418715e-02 -1.3891072626e-01 -4.7615713664e-01
111 6.1601731131e-02 -1.3971151823e-01 -4.7657320664e-01
112 6.0961175327e-02 -1.4046335400e-01 -4.7705467641e-01
113 6.0354749747e-02 -1.4120495567e-01 -4.7756831366e-01
114 5.9736506569e-02 -1.4187878955e-01 -4.7812438242e-01
115 5.9135919450e-02 -1.4256331531e-01 -4.7873010748e-01
116 5.8519983027e-02 -1.4321146526e-01 -4.7937989055e-01
117 5.7945276935e-02 -1.4383767486e-01 -4.8004752183e-01
118 5.7331424720e-02 -1.4444310460e-01 -4.8073963613e-01
119 5.6747799163e-02 -1.4503912616e-01 -4.8144516352e-01
120 5.6142843023e-02 -1.4559941205e-01 -4.8215154172e-01
121 5.5569438228e-02 -1.4617986426e-01 -4.8288981903e-01
122 5.4976569663e-02 -1.4672075416e-01 -4.8363307353e-01
123 5.4419934220e-02 -1.4725679095e-01 -4.8438673223e-01
124 5.3845701535e-02 -1.4777375106e-01 -4.8517143525e-01
125 5.3301041085e-02 -1.4826532784e-01 -4.8596094215e-01
126 5.2742306858e-02 -1.4875420358e-01 -4.8678462642e-01
127 5.2207977898e-02 -1.4919287806e-01 -4.8761587834e-01
128 5.1687562432e-02 -1.4962090046e-01 -4.8849188089e-01
129 5.1165851660e-02 -1.5003499457e-01 -4.8941002936e-01
130 5.0672835673e-02 -1.5041436095e-01 -4.9033062597e-01
131 5.0147384967e-02 -1.5077768847e-01 -4.9129343150e-01
132 4.9644566543e-02 -1.5110971995e-01 -4.9225665691e-01
133 4.9138884064e-02 -1.5143136532e-01 -4.9325425247e-01
134 4.8622623438e-02 -1.5172461126e-01 -4.9428323292e-01
135 4.8139757695e-02 -1.5198267339e-01 -4.9531950103e-01
136 4.7636230422e-02 -1.5220305153e-01 -4.9638672459e-01
137 4.7153210832e-02 -1.5236928902e-01 -4.9748482192e-01
138 4.6691142561e-02 -1.5250900071e-01 -4.9861725269e-01
139 4.6223917672e-02 -1.5254438337e-01 -4.9978589197e-01
140 4.5766804406e-02 -1.5251500286e-01 -5.0098059808e-01
141 4.5317691002e-02 -1.5242478065e-01 -5.0219988501e-01
142 4.4868576928e-02 -1.5222540794e-01 -5.0338625144e-01
143 4.4397451197e-02 -1.5199223528e-01 -5.0458158398e-01
144 4.3954990846e-02 -1.5170144681e-01 -5.0572104397e-01
145 4.3478963217e-02 -1.5134454023e-01 -5.0689346734e-01
146 4.3015556580e-02 -1.5097820447e-01 -5.0805600907e-01
147 4.2502360930e-02 -1.5056208457e-01 -5.0923409824e-01
148 4.1976307991e-02 -1.5015130386e-01 -5.1044665505e-01
149 4.1613731753e-02 -1.4983949832e-01 -5.1157458736e-01
150 4.1223390670e-02 -1.4951769383e-01 -5.1270325179e-01
151 4.0979780895e-02 -1.4927778498e-01 -5.1374206262e-01
152 4.0720723284e-02 -1.4901886922e-01 -5.1478545265e-01
153 4.0429448944e-02 -1.4876536899e-01 -5.1583389330e-01
154 4.0148628126e-02 -1.4844179723e-01 -5.1687950201e-01
155 3.9848654726e-02 -1.4810001959e-01 -5.1792615815e-01
156 3.9586681520e-02 -1.4764759981e-01 -5.1895706909e-01
157 3.9286207561e-02 -1.4720262588e-01 -5.1999123836e-01
158 3.9053291410e-02 -1.4661829186e-01 -5.2099333211e-01
159 3.8796111388e-02 -1.4602071900e-01 -5.2199464961e-01
160 3.8620587463e-02 -1.4529067675e-01 -5.2292538684e-01
161 3.8427454662e-02 -1.4454130653e-01 -5.2385080223e-01
162 3.8263644418e-02 -1.4372557297e-01 -5.2473539850e-01
163 3.8087896655e-02 -1.4288794592e-01 -5.2560632517e-01
164 3.7928513346e-02 -1.4200292634e-01 -5.2643914589e-01
165 3.7786766522e-02 -1.4107304097e-01 -5.2723057070e-01
166 3.7630896561e-02 -1.4013112965e-01 -5.2800813672e-01
167 3.7491422929e-02 -1.3915040821e-01 -5.2873998850e-01
168 3.7342538887e-02 -1.3816042109e-01 -5.2945274410e-01
169 3.7203976108e-02 -1.3714438839e-01 -5.3012388015e-01
170 3.7060723528e-02 -1.3612159607e-01 -5.3077322459e-01
171 3.6943923200e-02 -1.3506469539e-01 -5.3135666131e-01
172 3.6831881855e-02 -1.3399670814e-01 -5.3190419522e-01
173 3.6731416755e-02 -1.3291244703e-01 -5.3240636917e-01
174 3.6653809599e-02 -1.3180640489e-01 -5.3283941076e-01
175 3.6603938623e-02 -1.3067363315e-01 -5.3318764314e-01
176 3.6553032949e-02 -1.2953807428e-01 -5.3351157269e-01
177 3.6537950042e-02 -1.2837170877e-01 -5.3370926605e-01
178 3.6520445729e-02 -1.2720844217e-01 -5.3388554259e-01
179 3.6516735996e-02 -1.2603650931e-01 -5.3397769437e-01
180 3.6507876226e-02 -1.2486867926e-01 -5.3405205081e-01
181 3.6502607825e-02 -1.2370224630e-01 -5.3405396122e-01
182 3.6487213130e-02 -1.2254312991e-01 -5.3404771139e-01
183 3.6464742737e-02 -1.2139200945e-01 -5.3400153734e-01
184 3.6427489132e-02 -1.2025023800e-01 -5.3396097875e-01
185 3.6376075557e-02 -1.1912118994e-01 -5.3389502833e-01
186 3.6305717521e-02 -1.1800563917e-01 -5.3383166871e-01
187 3.6213795228e-02 -1.1690613703e-01 -5.3376563483e-01
188 3.6096824470e-02 -1.1582499784e-01 -5.3369795451e-01
189 3.5951074752e-02 -1.1476534652e-01 -5.3361783133e-01
190 3.5772086259e-02 -1.1372903773e-01 -5.3352873299e-01
191 3.5555201121e-02 -1.1271856947e-01 -5.3342475078e-01
192 3.5294934171e-02 -1.1173481671e-01 -5.3331345399e-01
193 3.4989084336e-02 -1.1078319256e-01 -5.3314678963e-01
194 3.4630460478e-02 -1.0985637408e-01 -5.3297453734e-01
195 3.4217569261e-02 -1.0895937967e-01 -5.3274105776e-01
196 3.3751448349e-02 -1.0808958567e-01 -5.3244795393e-01
197 3.3227178218e-02 -1.0722788072e-01 -5.3212741259e-01
198 3.2660558089e-02 -1.0639712674e-01 -5.3167397988e-01
199 6.5335692639e-02 -9.2850073746e-02 -4.9046046583e-01
200 6.5055445423e-02 -9.2827646932e-02 -4.9031014363e-01
201 6.4645369996e-02 -9.2794406169e-02 -4.9010868222e-01
202 6.4153642675e-02 -9.2753899794e-02 -4.8989456454e-01
203 6.3605434751e-02 -9.2721202084e-02 -4.8964528721e-01
204 6.3030068016e-02 -9.2725098852e-02 -4.8935152227e-01
205 6.2413807929e-02 -9.2731798563e-02 -4.8906358003e-01
206 6.1763841856e-02 -9.2742795110e-02 -4.8879714724e-01
207 6.1095300595e-02 -9.2776991033e-02 -4.8848519882e-01
208 9.5604604412e-02 -1.4551704769e-01 -5.0970989460e-01
209 9.5253153473e-02 -1.4603792929e-01 -5.1034219350e-01
210 9.4638169913e-02 -1.4680656084e-01 -5.1111225208e-01
211 9.3762985870e-02 -1.4776234387e-01 -5.1196080092e-01
212 9.2295121494e-02 -1.4915056830e-01 -5.1272323067e-01
213 8.9731309447e-02 -1.5143868477e-01 -5.1305772108e-01
214 8.6823593952e-02 -1.5382345361e-01 -5.1323766648e-01
215 8.3771354252e-02 -1.5615259393e-01 -5.1328130790e-01
216 8.0620954072e-02 -1.5830780060e-01 -5.1318116215e-01
217 7.7317123532e-02 -1.6013010570e-01 -5.1292357955e-01
218 7.3837231496e-02 -1.6134178861e-01 -5.1255335829e-01
219 7.0318577203e-02 -1.6177929910e-01 -5.1215965352e-01
220 6.6983281990e-02 -1.6164326114e-01 -5.1171723132e-01
221 6.3887971739e-02 -1.6111568724e-01 -5.1123059884e-01
222 6.1081394261e-02 -1.6028839388e-01 -5.1068167798e-01
223 5.8593033569e-02 -1.5924348971e-01 -5.1011918318e-01
224 5.6368091886e-02 -1.5809928839e-01 -5.0954010972e-01
225 5.4334203120e-02 -1.5701382493e-01 -5.0888922078e-01
226 5.2454006508e-02 -1.5596982734e-01 -5.0817977139e-01
227 5.0693739068e-02 -1.5500518182e-01 -5.0748270113e-01
228 4.9017986112e-02 -1.5413052501e-01 -5.0677911358e-01
229 4.7433632849e-02 -1.5332099539e-01 -5.0603400544e-01
230 4.5893308605e-02 -1.5260766179e-01 -5.0528893208e-01
231 4.4397451197e-02 -1.5199223528e-01 -5.0458158398e-01
232 4.2958387656e-02 -1.5145144389e-01 -5.0384422244e-01
233 4.1535485911e-02 -1.5095030554e-01 -5.0311541842e-01
234 4.0145871630e-02 -1.5050903620e-01 -5.0239784086e-01
235 3.8797300521e-02 -1.5011986300e-01 -5.0165737335e-01
236 3.7472427039e-02 -1.4974025009e-01 -5.0093844789e-01
237 3.6250832351e-02 -1.4939535285e-01 -5.0028760896e-01
238 3.5186178483e-02 -1.4911366770e-01 -4.9975842816e-01
239 3.3588498831e-02 -1.4867551625e-01 -5.0030153990e-01
240 9.5604604412e-02 -1.4551704769e-01 -5.0970989460e-01
241 9.5014083518e-02 -1.4600589350e-01 -5.0859302637e-01
242 9.4165708432e-02 -1.4648751855e-01 -5.0716790306e-01
243 9.2839995418e-02 -1.4714891667e-01 -5.0524903097e-01
244 9.1488868836e-02 -1.4757959713e-01 -5.0337157681e-01
245 9.0124650203e-02 -1.4779277330e-01 -5.0156263100e-01
246 8.8743860419e-02 -1.4780725704e-01 -4.9985704138e-01
247 8.7383502566e-02 -1.4766706062e-01 -4.9823699074e-01
248 8.6053357283e-02 -1.4741022252e-01 -4.9669779571e-01
249 8.4761819600e-02 -1.4705433362e-01 -4.9524401845e-01
250 8.3514220345e-02 -1.4664268607e-01 -4.9387337212e-01
251 8.2299654305e-02 -1.4619658558e-01 -4.9257128503e-01
252 8.1115688703e-02 -1.4572215789e-01 -4.9132125570e-01
253 7.9963980390e-02 -1.4522372171e-01 -4.9011821562e-01
254 7.8852786331e-02 -1.4473068342e-01 -4.8896968261e-01
255 7.7755679403e-02 -1.4425644637e-01 -4.8784441140e-01
256 7.6685558684e-02 -1.4377565267e-01 -4.8674185272e-01
257 7.5631256969e-02 -1.4331826855e-01 -4.8569238565e-01
258 7.4562836830e-02 -1.4286428788e-01 -4.8465048159e-01
259 7.3524189103e-02 -1.4242036814e-01 -4.8367253662e-01
260 7.2486756801e-02 -1.4197076312e-01 -4.8271877805e-01
261 7.1424532564e-02 -1.4152881007e-01 -4.8180668735e-01
262 7.0362015776e-02 -1.4107079013e-01 -4.8092267325e-01
263 6.9306563518e-02 -1.4065920751e-01 -4.8009102978e-01
264 6.8260223712e-02 -1.4022257603e-01 -4.7927951227e-01
265 6.7169063238e-02 -1.3978783001e-01 -4.7850050804e-01
266 6.6095072294e-02 -1.3936514173e-01 -4.7776823221e-01
267 6.5026706495e-02 -1.3893391879e-01 -4.7706156617e-01
268 6.3945197188e-02 -1.3850849408e-01 -4.7637625756e-01
269 6.2856105716e-02 -1.3805364064e-01 -4.7576450605e-01
270 6.1742656276e-02 -1.3760610101e-01 -4.7520877238e-01
271 6.0642356744e-02 -1.3711147832e-01 -4.7467700289e-01
272 5.9593600743e-02 -1.3663057507e-01 -4.7418837242e-01
273 5.8420109748e-02 -1.3613402975e-01 -4.7376003466e-01
274 5.7270150523e-02 -1.3564639164e-01 -4.7335342397e-01
275 5.6020420074e-02 -1.3510994722e-01 -4.7297291848e-01
276 5.5021859210e-02 -1.3471224933e-01 -4.7270678848e-01
277 5.4022057684e-02 -1.3430192700e-01 -4.7248186746e-01
278 9.5604604412e-02 -1.4551704769e-01 -5.0970989460e-01
279 9.6118815961e-02 -1.4489085855e-01 -5.0964688901e-01
280 9.6744377519e-02 -1.4405964161e-01 -5.0969200582e-01
281 9.7433024844e-02 -1.4312010864e-01 -5.0989735896e-01
282 9.8185975675e-02 -1.4206347118e-01 -5.1022026273e-01
283 9.8872011878e-02 -1.4111837763e-01 -5.1076631550e-01
284 9.9409912496e-02 -1.4021386206e-01 -5.1149650352e-01
285 9.9959583187e-02 -1.3922787723e-01 -5.1234526983e-01
286 1.0028602660e-01 -1.3840965187e-01 -5.1343812563e-01
287 1.0049877183e-01 -1.3759426864e-01 -5.1465031278e-01
288 1.0054272067e-01 -1.3675407100e-01 -5.1593544893e-01
289 1.0045037719e-01 -1.3588503636e-01 -5.1727586118e-01
290 1.0022580194e-01 -1.3497932230e-01 -5.1865933949e-01
291 9.9883564011e-02 -1.3401148973e-01 -5.2005846511e-01
292 9.9457655384e-02 -1.3297336090e-01 -5.2146632485e-01
293 9.8918832585e-02 -1.3185029731e-01 -5.2284372700e-01
294 9.8343921736e-02 -1.3064883130e-01 -5.2423003742e-01
295 9.7652928624e-02 -1.2936030394e-01 -5.2557165900e-01
296 9.6883408687e-02 -1.2797852032e-01 -5.2687227954e-01
297 9.6023290595e-02 -1.2651547649e-01 -5.2812100417e-01
298 9.5029860559e-02 -1.2495745428e-01 -5.2926293778e-01
299 9.3876023631e-02 -1.2332660176e-01 -5.3027423879e-01
300 9.2539772134e-02 -1.2167399435e-01 -5.3104596672e-01
301 9.1026721528e-02 -1.2005844342e-01 -5.3159050511e-01
302 8.9407409615e-02 -1.1849138073e-01 -5.3193419397e-01
303 8.7711654724e-02 -1.1700295980e-01 -5.3206182309e-01
304 8.5955562517e-02 -1.1564205856e-01 -5.3196234901e-01
305 8.4186723453e-02 -1.1437393883e-01 -5.3172268403e-01
306 8.2442104016e-02 -1.1315324893e-01 -5.3141232592e-01
307 8.0723338287e-02 -1.1198615819e-01 -5.3103110736e-01
308 7.9052912608e-02 -1.1082644913e-01 -5.3064440839e-01
309 7.7420882180e-02 -1.0969533814e-01 -5.3022975999e-01
310 7.5836683453e-02 -1.0856759110e-01 -5.2982284630e-01
311 7.4287253797e-02 -1.0747088302e-01 -5.2939331709e-01
312 7.2779923375e-02 -1.0638258186e-01 -5.2897109880e-01
313 7.1298897155e-02 -1.0533397386e-01 -5.2852125336e-01
314 6.9845028155e-02 -1.0432353377e-01 -5.2805392774e-01
315 6.8421148510e-02 -1.0333778444e-01 -5.2758234968e-01
316 6.7015828902e-02 -1.0240261583e-01 -5.2708222325e-01
317 6.5629311478e-02 -1.0152538112e-01 -5.2654911277e-01
318 6.4263836595e-02 -1.0069203820e-01 -5.2600313140e-01
319 6.2922735622e-02 -9.9889887246e-02 -5.2545228979e-01
320 6.1595107258e-02 -9.9151913508e-02 -5.2487100945e-01
321 6.0287110649e-02 -9.8461428056e-02 -5.2427591310e-01
322 5.8999702718e-02 -9.7805861746e-02 -5.2367671864e-01
323 5.7728993204e-02 -9.7217719007e-02 -5.2305221894e-01
324 5.6479458637e-02 -9.6640116294e-02 -5.2244038165e-01
325 5.5246925097e-02 -9.6089512196e-02 -5.2182879757e-01
326 5.4030731415e-02 -9.5560874791e-02 -5.2121861461e-01
327 5.2827238650e-02 -9.5068013609e-02 -5.2060251506e-01
328 5.1635879332e-02 -9.4609802577e-02 -5.1997739900e-01
329 5.0455901590e-02 -9.4180378694e-02 -5.1934738953e-01
330 4.9286303530e-02 -9.3811583126e-02 -5.1869151758e-01
331 4.8127582936e-02 -9.3473865251e-02 -5.1802658937e-01
332 4.6982120453e-02 -9.3199997392e-02 -5.1733652444e-01
333 4.5849498307e-02 -9.2971654053e-02 -5.1662674332e-01
334 3.0417744222e-02 -1.1162143434e-01 -5.3277326723e-01
335 3.0727396591e-02 -1.1130133837e-01 -5.3278477508e-01
336 3.1077606995e-02 -1.1080684085e-01 -5.3274722783e-01
337 3.1438448398e-02 -1.1022978419e-01 -5.3269707142e-01
338 3.1847906399e-02 -1.0954967779e-01 -5.3260351190e-01
339 3.2287326556e-02 -1.0880849488e-01 -5.3247208484e-01
340 3.2749730406e-02 -1.0802637366e-01 -5.3231922104e-01
341 3.3227178218e-02 -1.0722788072e-01 -5.3212741259e-01
342 3.3711338076e-02 -1.0643350778e-01 -5.3189951988e-01
343 3.4209918016e-02 -1.0565170338e-01 -5.3163199278e-01
344 3.4719834406e-02 -1.0489405988e-01 -5.3130963227e-01
345 3.5244230485e-02 -1.0413654278e-01 -5.3095731284e-01
346 3.5810921612e-02 -1.0336390881e-01 -5.3051830831e-01
347 3.6410670130e-02 -1.0259353521e-01 -5.3001757343e-01
348 3.7039581877e-02 -1.0180513035e-01 -5.2948383367e-01
349 3.7687324415e-02 -1.0107564998e-01 -5.2883915117e-01
350 3.8357975941e-02 -1.0036169140e-01 -5.2814574697e-01
351 3.9033068842e-02 -9.9664056239e-02 -5.2741923208e-01
352 3.9701032483e-02 -9.9015410010e-02 -5.2666489280e-01
353 4.0360442491e-02 -9.8415783344e-02 -5.2589384925e-01
354 4.0991697512e-02 -9.7853165358e-02 -5.2514059745e-01
355 4.1612542127e-02 -9.7344383724e-02 -5.2437092217e-01
356 4.2237969209e-02 -9.6833203840e-02 -5.2358814051e-01
357 4.2865428268e-02 -9.6319213835e-02 -5.2279848178e-01
358 4.3496586437e-02 -9.5819037380e-02 -5.2199000694e-01
359 4.4123400338e-02 -9.5323817270e-02 -5.2118155303e-01
360 4.4733988444e-02 -9.4841894793e-02 -5.2038669815e-01
361 4.5329698923e-02 -9.4403700236e-02 -5.1959150970e-01
362 4.5895950940e-02 -9.3978379719e-02 -5.1883178897e-01
363 4.6445788347e-02 -9.3573918383e-02 -5.1808309201e-01
364 4.6982120453e-02 -9.3199997392e-02 -5.1733652444e-01
365 4.7512684737e-02 -9.2832866524e-02 -5.1658690701e-01
366 4.8047362975e-02 -9.2516601702e-02 -5.1579853835e-01
367 4.8584637718e-02 -9.2204469282e-02 -5.1499273587e-01
368 4.9129805893e-02 -9.1923432749e-02 -5.1414760223e-01
369 4.9680454522e-02 -9.1655278684e-02 -5.1326963926e-01
370 5.0247259716e-02 -9.1461766915e-02 -5.1233089925e-01
371 5.0811477921e-02 -9.1277316531e-02 -5.1136666675e-01
372 5.1371796952e-02 -9.1162762686e-02 -5.1036710093e-01
373 5.1929574248e-02 -9.1089195119e-02 -5.0934190096e-01
374 5.2488538636e-02 -9.1058025964e-02 -5.0828064016e-01
375 5.3033116727e-02 -9.1055255272e-02 -5.0721545840e-01
376 5.3551600791e-02 -9.1115632562e-02 -5.0617112030e-01
377 5.4055789079e-02 -9.1177540569e-02 -5.0513613882e-01
378 5.4542503843e-02 -9.1258896088e-02 -5.0411608123e-01
379 5.5021957758e-02 -9.1344908137e-02 -5.0309376177e-01
380 5.5521080216e-02 -9.1428137482e-02 -5.0205558531e-01
381 5.6017247909e-02 -9.1506647028e-02 -5.0103257504e-01
382 5.6496372153e-02 -9.1572940137e-02 -4.9998544692e-01
383 5.6999163152e-02 -9.1631385365e-02 -4.9893442508e-01
384 5.7506098246e-02 -9.1678993473e-02 -4.9791413937e-01
385 5.7985282915e-02 -9.1724275734e-02 -4.9693680302e-01
386 5.8440592768e-02 -9.1767263189e-02 -4.9596392519e-01
387 5.8915712741e-02 -9.1812613164e-02 -4.9496913269e-01
388 5.9395038388e-02 -9.1872694637e-02 -4.9397852972e-01
389 5.9859612016e-02 -9.1959848918e-02 -4.9300471796e-01
390 6.0372273472e-02 -9.2077852194e-02 -4.9196421730e-01
391 6.0839240611e-02 -9.2249411336e-02 -4.9089061292e-01
392 6.1315573284e-02 -9.2445893218e-02 -4.8984009019e-01
393 6.1763841856e-02 -9.2742795110e-02 -4.8879714724e-01
394 6.2231199679e-02 -9.3069276203e-02 -4.8776482132e-01
395 6.2616353763e-02 -9.3466342544e-02 -4.8670370488e-01
396 6.2996108889e-02 -9.3899031661e-02 -4.8571692379e-01
397 6.3379479576e-02 -9.4426350222e-02 -4.8473238261e-01
398 6.3698840947e-02 -9.4980450520e-02 -4.8378534257e-01
399 6.3974104264e-02 -9.5573143342e-02 -4.8284367928e-01
400 6.4214666909e-02 -9.6207275438e-02 -4.8201308016e-01
401 6.4449687735e-02 -9.6917229215e-02 -4.8119060899e-01
402 6.4591737011e-02 -9.7616208586e-02 -4.8046708057e-01
403 6.4717250439e-02 -9.8360464923e-02 -4.7975073241e-01
404 6.4791811295e-02 -9.9178557135e-02 -4.7906223317e-01
405 6.4877423827e-02 -9.9989518121e-02 -4.7844912543e-01
406 6.4887620410e-02 -1.0078039604e-01 -4.7789233946e-01
407 6.4915932420e-02 -1.0164098357e-01 -4.7734686413e-01
408 6.4881494919e-02 -1.0249903198e-01 -4.7682751787e-01
409 6.4849903440e-02 -1.0335152386e-01 -4.7634164055e-01
410 6.4752983818e-02 -1.0425820578e-01 -4.7589184724e-01
411 6.4691260297e-02 -1.0521385269e-01 -4.7545235942e-01
412 6.4561408363e-02 -1.0619226324e-01 -4.7502804491e-01
413 6.4440187503e-02 -1.0717309540e-01 -4.7461484491e-01
414 6.4293049181e-02 -1.0820611774e-01 -4.7421865914e-01
415 6.4116585167e-02 -1.0923613224e-01 -4.7386075655e-01
416 6.3936345003e-02 -1.1029614721e-01 -4.7351554880e-01
417 6.3717642713e-02 -1.1134237432e-01 -4.7320555706e-01
418 6.3502397456e-02 -1.1242844888e-01 -4.7290443816e-01
419 6.3234970663e-02 -1.1350211851e-01 -4.7264596556e-01
420 6.2978421275e-02 -1.1462431216e-01 -4.7239572777e-01
421 6.2652639602e-02 -1.1574015112e-01 -4.7219531752e-01
422 6.2352193535e-02 -1.1688624247e-01 -4.7200556556e-01
423 6.1986938349e-02 -1.1803988004e-01 -4.7187402365e-01
424 6.1648795427e-02 -1.1919143804e-01 -4.7175682086e-01
425 6.1249618550e-02 -1.2033710710e-01 -4.7169223754e-01
426 6.0885279131e-02 -1.2142985561e-01 -4.7165135452e-01
427 6.0479015498e-02 -1.2247457081e-01 -4.7163770248e-01
428 6.0080783149e-02 -1.2352274131e-01 -4.7164707980e-01
429 5.9668036702e-02 -1.2451500733e-01 -4.7167220781e-01
430 5.9276383696e-02 -1.2550897834e-01 -4.7170677646e-01
431 5.8869459373e-02 -1.2647401144e-01 -4.7175768795e-01
432 5.8505770659e-02 -1.2741628603e-01 -4.7181296236e-01
433 5.8100119525e-02 -1.2833033592e-01 -4.7187758524e-01
434 5.7750393355e-02 -1.2917386611e-01 -4.7194537301e-01
435 5.7341263348e-02 -1.3000859364e-01 -4.7201624405e-01
436 5.6908882453e-02 -1.3089985299e-01 -4.7209391861e-01
437 5.6470664263e-02 -1.3183621276e-01 -4.7221677268e-01
438 5.5986456915e-02 -1.3278698160e-01 -4.7234172300e-01
439 5.5522707909e-02 -1.3377962135e-01 -4.7251396317e-01
440 5.5021859210e-02 -1.3471224933e-01 -4.7270678848e-01
441 5.4513984486e-02 -1.3562425736e-01 -4.7295197633e-01
442 5.3982297733e-02 -1.3644004149e-01 -4.7319294086e-01
443 5.3446216440e-02 -1.3723047340e-01 -4.7350082758e-01
444 5.3046665739e-02 -1.3798970314e-01 -4.7386615130e-01
445 5.2646027423e-02 -1.3873668016e-01 -4.7425187138e-01
446 5.2085527634e-02 -1.3955829823e-01 -4.7475699854e-01
447 5.1520938509e-02 -1.4032120477e-01 -4.7532881602e-01
448 5.0963063786e-02 -1.4103687020e-01 -4.7596696691e-01
449 5.0403910175e-02 -1.4173035157e-01 -4.7663115209e-01
450 4.9758395877e-02 -1.4241236049e-01 -4.7740386556e-01
451 4.9112552971e-02 -1.4307797887e-01 -4.7819598657e-01
452 4.8445203532e-02 -1.4366119723e-01 -4.7900065599e-01
453 4.7777286625e-02 -1.4423205133e-01 -4.7981701680e-01
454 4.7125571600e-02 -1.4476862007e-01 -4.8068399711e-01
455 4.6474253577e-02 -1.4529059165e-01 -4.8156261469e-01
456 4.5794815145e-02 -1.4577819218e-01 -4.8249756296e-01
457 4.5118650684e-02 -1.4623896538e-01 -4.8345018856e-01
458 4.4454792129e-02 -1.4660776035e-01 -4.8433326395e-01
459 4.3799076050e-02 -1.4693497136e-01 -4.8524033491e-01
460 4.3208452335e-02 -1.4721800765e-01 -4.8611668117e-01
461 4.2626465946e-02 -1.4746607804e-01 -4.8701137167e-01
462 4.1992165770e-02 -1.4772369349e-01 -4.8804762574e-01
463 4.1366829976e-02 -1.4794770894e-01 -4.8909880920e-01
464 4.0739050259e-02 -1.4809770382e-01 -4.9004043334e-01
465 4.0115753812e-02 -1.4823666987e-01 -4.9098712416e-01
466 3.9512989334e-02 -1.4837256513e-01 -4.9193049771e-01
467 3.8914787773e-02 -1.4850516128e-01 -4.9287806976e-01
468 3.8424766436e-02 -1.4865187480e-01 -4.9376793299e-01
469 3.7933073364e-02 -1.4880198185e-01 -4.9465620959e-01
470 3.7354749949e-02 -1.4897247393e-01 -4.9563608271e-01
471 3.6770651740e-02 -1.4915815590e-01 -4.9660939333e-01
472 3.6253633629e-02 -1.4920894469e-01 -4.9765326634e-01
473 3.5751354153e-02 -1.4918741019e-01 -4.9868419912e-01
474 3.5186178483e-02 -1.4911366770e-01 -4.9975842816e-01
475 3.4657544734e-02 -1.4888665560e-01 -5.0082888009e-01
476 3.4217443051e-02 -1.4854391239e-01 -5.0187894692e-01
477 3.3790657903e-02 -1.4815713181e-01 -5.0291901801e-01
478 3.3384995492e-02 -1.4770595905e-01 -5.0387379539e-01
479 3.2985258871e-02 -1.4724141844e-01 -5.0482415723e-01
480 3.2698592643e-02 -1.4682068865e-01 -5.0578062299e-01
481 3.2378797877e-02 -1.4641638960e-01 -5.0669091375e-01
482 3.2120270303e-02 -1.4604045838e-01 -5.0763401201e-01
483 3.1846332567e-02 -1.4568851081e-01 -5.0854683681e-01
484 3.1566046519e-02 -1.4534124666e-01 -5.0943496371e-01
485 3.1283916802e-02 -1.4499345304e-01 -5.1030183302e-01
486 3.0999050825e-02 -1.4465506091e-01 -5.1114711306e-01
487 3.0720780946e-02 -1.4429540694e-01 -5.1198079635e-01
488 3.0442513742e-02 -1.4392110913e-01 -5.1281381775e-01
489 3.0152222059e-02 -1.4352069768e-01 -5.1367850315e-01
490 2.9853537689e-02 -1.4305803887e-01 -5.1459819934e-01
491 2.9542966147e-02 -1.4255746739e-01 -5.1555831053e-01
492 2.9241010622e-02 -1.4197877030e-01 -5.1655552022e-01
493 2.8936243909e-02 -1.4138467765e-01 -5.1755847366e-01
494 2.8671214009e-02 -1.4073443002e-01 -5.1852721981e-01
495 2.8415154241e-02 -1.4007621005e-01 -5.1947878919e-01
496 2.8191052955e-02 -1.3938609024e-01 -5.2038444845e-01
497 2.7974975929e-02 -1.3869664672e-01 -5.2127122536e-01
498 2.7785159968e-02 -1.3798718897e-01 -5.2211661277e-01
499 2.7603116337e-02 -1.3727968392e-01 -5.2294422789e-01
500 2.7440522420e-02 -1.3656133035e-01 -5.2373928502e-01
501 2.7289748585e-02 -1.3583343145e-01 -5.2451786599e-01
502 2.7154743057e-02 -1.3508753715e-01 -5.2527505735e-01
503 2.7021479698e-02 -1.3434829243e-01 -5.2602692479e-01
504 2.6920729488e-02 -1.3357434505e-01 -5.2673501115e-01
505 2.6827306301e-02 -1.3279673759e-01 -5.2743460042e-01
506 2.6759249601e-02 -1.3198886505e-01 -5.2810370837e-01
507 2.6712320555e-02 -1.3115748393e-01 -5.2874514266e-01
508 2.6685143875e-02 -1.3030750147e-01 -5.2936401169e-01
509 2.6689427393e-02 -1.2942331257e-01 -5.2993694216e-01
510 2.6719132523e-02 -1.2851711224e-01 -5.3048017341e-01
511 2.6784900988e-02 -1.2757430346e-01 -5.3096291145e-01
512 2.6871976157e-02 -1.2661395487e-01 -5.3142165715e-01
513 2.7007322682e-02 -1.2561037371e-01 -5.3180007841e-01
514 2.7169853797e-02 -1.2458948236e-01 -5.3213453105e-01
515 2.7363539739e-02 -1.2355314849e-01 -5.3241267302e-01
516 2.7587477184e-02 -1.2251030650e-01 -5.3261901085e-01
517 2.7824841647e-02 -1.2147405432e-01 -5.3280682873e-01
518 2.8081655478e-02 -1.2044571138e-01 -5.3292145367e-01
519 2.8344778018e-02 -1.1942585881e-01 -5.3303422568e-01
520 2.8623452827e-02 -1.1841493124e-01 -5.3308391809e-01
521 2.8902036019e-02 -1.1743227970e-01 -5.3311258503e-01
522 2.9173891962e-02 -1.1648547815e-01 -5.3313194516e-01
523 2.9452173586e-02 -1.1553867269e-01 -5.3312702406e-01
524 2.9735410763e-02 -1.1459027318e-01 -5.3308569732e-01
525 3.0001744408e-02 -1.1366843748e-01 -5.3302726577e-01
526 3.0231767357e-02 -1.1280046725e-01 -5.3296557017e-01
527 3.0396849321e-02 -1.1207011087e-01 -5.3285862493e-01
528 3.0417744222e-02 -1.1162143434e-01 -5.3277326723e-01
529 3.0417744222e-02 -1.1162143434e-01 -5.3277326723e-01
530 3.0177780600e-02 -1.1151559648e-01 -5.3268928670e-01
531 6.1323210536e-02 -1.4901289226e-01 -4.8755768351e-01
532 6.1357174813e-02 -1.4925433127e-01 -4.8791598244e-01
533 6.1415452098e-02 -1.4958777690e-01 -4.8842652490e-01
534 6.1461444530e-02 -1.4997966047e-01 -4.8905590006e-01
535 6.1530899638e-02 -1.5042479429e-01 -4.8978151767e-01
536 6.1604324517e-02 -1.5090570800e-01 -4.9058214861e-01
537 6.1651008023e-02 -1.5141137226e-01 -4.9146411063e-01
538 6.1711638155e-02 -1.5193765664e-01 -4.9240377655e-01
539 6.1774459622e-02 -1.5247319453e-01 -4.9341528795e-01
540 6.1822812357e-02 -1.5302265360e-01 -4.9448430187e-01
541 6.1873239844e-02 -1.5359210166e-01 -4.9562382501e-01
542 6.1922536792e-02 -1.5419126954e-01 -4.9686162337e-01
543 6.1953519296e-02 -1.5477095660e-01 -4.9812603849e-01
544 6.1971026255e-02 -1.5537320175e-01 -4.9948146956e-01
545 6.1990921101e-02 -1.5604068580e-01 -5.0093712344e-01
546 6.1969335790e-02 -1.5668712292e-01 -5.0240991287e-01
547 6.1911502999e-02 -1.5743199836e-01 -5.0399412221e-01
548 6.1787231135e-02 -1.5819294781e-01 -5.0564280806e-01
549 6.1646342854e-02 -1.5899136162e-01 -5.0740103998e-01
550 6.1398506714e-02 -1.5964417379e-01 -5.0900355983e-01
551 6.1081394261e-02 -1.6028839388e-01 -5.1068167798e-01
552 6.0710692242e-02 -1.6072004007e-01 -5.1218860230e-01
553 6.0264904971e-02 -1.6111117993e-01 -5.1368551332e-01
554 5.9743961629e-02 -1.6144975489e-01 -5.1524105207e-01
555 5.9127252111e-02 -1.6169942587e-01 -5.1685600379e-01
556 5.8417425420e-02 -1.6182743410e-01 -5.1859204884e-01
557 5.7890160090e-02 -1.6192623013e-01 -5.2033312755e-01
558 5.7294936003e-02 -1.6189325531e-01 -5.2212109812e-01
559 5.6960048476e-02 -1.6178980588e-01 -5.2394308207e-01
560 5.6658888363e-02 -1.6137030414e-01 -5.2580582113e-01
561 5.6389463417e-02 -1.6065450170e-01 -5.2762715808e-01
562 5.6174657439e-02 -1.5965317794e-01 -5.2933541228e-01
563 5.6002444921e-02 -1.5841812938e-01 -5.3089937508e-01
564 5.5845606753e-02 -1.5703038375e-01 -5.3231702835e-01
565 5.5692661138e-02 -1.5553443444e-01 -5.3359252098e-01
566 5.5531148007e-02 -1.5396503883e-01 -5.3474867264e-01
567 5.5346234117e-02 -1.5233945248e-01 -5.3579568449e-01
568 5.5125157144e-02 -1.5068407727e-01 -5.3676443831e-01
569 5.4870799961e-02 -1.4900743108e-01 -5.3766743830e-01
570 5.4601441967e-02 -1.4729631471e-01 -5.3846667475e-01
571 5.4311773819e-02 -1.4556281809e-01 -5.3918226389e-01
572 5.3988418437e-02 -1.4382615447e-01 -5.3984137976e-01
573 5.3637618227e-02 -1.4208106564e-01 -5.4043533009e-01
574 5.3269032630e-02 -1.4032026556e-01 -5.4095079475e-01
575 5.2888755254e-02 -1.3854377150e-01 -5.4137026692e-01
576 5.2505781037e-02 -1.3675580713e-01 -5.4166700018e-01
577 5.2158258884e-02 -1.3494813326e-01 -5.4177460259e-01
578 5.1879302021e-02 -1.3315402259e-01 -5.4163853467e-01
579 5.1634651418e-02 -1.3141268902e-01 -5.4132322305e-01
580 5.1440000131e-02 -1.2976931810e-01 -5.4079076167e-01
581 5.1263291511e-02 -1.2821054874e-01 -5.4013607921e-01
582 5.1070605049e-02 -1.2671706859e-01 -5.3943871709e-01
583 5.0854423009e-02 -1.2527756309e-01 -5.3872148835e-01
584 5.0609060609e-02 -1.2388122946e-01 -5.3800296165e-01
585 5.0319341576e-02 -1.2250761788e-01 -5.3732461730e-01
586 4.9997294810e-02 -1.2116464078e-01 -5.3666381527e-01
587 4.9621665004e-02 -1.1982589201e-01 -5.3609375055e-01
588 4.9208943075e-02 -1.1850449074e-01 -5.3557557541e-01
589 4.8754103846e-02 -1.1719405011e-01 -5.3513851716e-01
590 4.8272176941e-02 -1.1590678338e-01 -5.3474264078e-01
591 4.7758623491e-02 -1.1463642337e-01 -5.3441285534e-01
592 4.7226672685e-02 -1.1339604056e-01 -5.3408658913e-01
593 4.6673215220e-02 -1.1217823906e-01 -5.3379394552e-01
594 4.6102616747e-02 -1.1099286308e-01 -5.3348002093e-01
595 4.5511474036e-02 -1.0982889127e-01 -5.3318587164e-01
596 4.4901935119e-02 -1.0870067107e-01 -5.3284462846e-01
597 4.4270874845e-02 -1.0759737164e-01 -5.3250453819e-01
598 4.3617758926e-02 -1.0654170464e-01 -5.3210510367e-01
599 4.2941479121e-02 -1.0551124581e-01 -5.3169784230e-01
600 4.2239065144e-02 -1.0454038731e-01 -5.3121919385e-01
601 4.1511924232e-02 -1.0359114448e-01 -5.3072800188e-01
602 4.0758902209e-02 -1.0269694952e-01 -5.3017210658e-01
603 3.9980291973e-02 -1.0184908247e-01 -5.2956705204e-01
604 3.9182214091e-02 -1.0103463494e-01 -5.2893470356e-01
605 3.8357975941e-02 -1.0036169140e-01 -5.2814574697e-01
606 3.7528779352e-02 -9.9698068332e-02 -5.2734259976e-01
607 6.1323210536e-02 -1.4901289226e-01 -4.8755768351e-01
608 6.0899780554e-02 -1.4891525100e-01 -4.8737515325e-01
609 6.0301571424e-02 -1.4876274800e-01 -4.8710320838e-01
610 5.9597890237e-02 -1.4859218880e-01 -4.8679570145e-01
611 5.8798542248e-02 -1.4839993844e-01 -4.8645636142e-01
612 5.7982167026e-02 -1.4818241854e-01 -4.8606491426e-01
613 5.7112493090e-02 -1.4797104545e-01 -4.8567331156e-01
614 5.6234954007e-02 -1.4774696439e-01 -4.8526717772e-01
615 5.5331821155e-02 -1.4749042816e-01 -4.8482654589e-01
616 5.4419934220e-02 -1.4725679095e-01 -4.8438673223e-01
617 5.3474012146e-02 -1.4700963798e-01 -4.8394323906e-01
618 5.2524542508e-02 -1.4673465936e-01 -4.8349220931e-01
619 5.1582538677e-02 -1.4645645939e-01 -4.8304510000e-01
620 5.0482485363e-02 -1.4609067683e-01 -4.8247022198e-01
621 4.9384703230e-02 -1.4570076978e-01 -4.8190558504e-01
622 4.8153965839e-02 -1.4520342078e-01 -4.8123428954e-01
623 4.7125571600e-02 -1.4476862007e-01 -4.8068399711e-01
624 4.6102733775e-02 -1.4429868482e-01 -4.8015963648e-01
625 6.1323210536e-02 -1.4901289226e-01 -4.8755768351e-01
626 6.1714373123e-02 -1.4885895806e-01 -4.8737599618e-01
627 6.2276957979e-02 -1.4863742163e-01 -4.8711858573e-01
628 6.2918411880e-02 -1.4836771662e-01 -4.8683009860e-01
629 6.3651162617e-02 -1.4801512230e-01 -4.8649292268e-01
630 6.4441886297e-02 -1.4764169382e-01 -4.8613844499e-01
631 6.5252290236e-02 -1.4718679024e-01 -4.8577126975e-01
632 6.6110007519e-02 -1.4671335184e-01 -4.8540315465e-01
633 6.6990320314e-02 -1.4615945578e-01 -4.8502279259e-01
634 6.7878704120e-02 -1.4557823075e-01 -4.8463961747e-01
635 6.8777366772e-02 -1.4494036960e-01 -4.8424102504e-01
636 6.9703824310e-02 -1.4425225987e-01 -4.8385600830e-01
637 7.0624251229e-02 -1.4353857295e-01 -4.8347730709e-01
638 7.1547868615e-02 -1.4277122289e-01 -4.8309598974e-01
639 7.2486756801e-02 -1.4197076312e-01 -4.8271877805e-01
640 7.3392288174e-02 -1.4111760424e-01 -4.8235317795e-01
641 7.4337781962e-02 -1.4021817667e-01 -4.8200133594e-01
642 7.5256237538e-02 -1.3927851323e-01 -4.8166280306e-01
643 7.6146052075e-02 -1.3829019563e-01 -4.8134935061e-01
644 7.7079421523e-02 -1.3725905108e-01 -4.8106664784e-01
645 7.7968464185e-02 -1.3615074869e-01 -4.8081271968e-01
646 7.8843838542e-02 -1.3499447840e-01 -4.8058188281e-01
647 7.9689779962e-02 -1.3376543842e-01 -4.8037148259e-01
648 8.0495042898e-02 -1.3248928886e-01 -4.8020992080e-01
649 8.1286558874e-02 -1.3115487947e-01 -4.8010012216e-01
650 8.2000451117e-02 -1.2977050208e-01 -4.8006199110e-01
651 8.2690863105e-02 -1.2830714568e-01 -4.8008145972e-01
652 8.3293616356e-02 -1.2681780127e-01 -4.8015569735e-01
653 8.3802528348e-02 -1.2525749536e-01 -4.8034848081e-01
654 8.4236635766e-02 -1.2369461105e-01 -4.8061702433e-01
655 8.4590107881e-02 -1.2210322491e-01 -4.8096045094e-01
656 8.4839689014e-02 -1.2048701930e-01 -4.8139264226e-01
657 8.4969191291e-02 -1.1890473441e-01 -4.8188757154e-01
658 8.4970648089e-02 -1.1732001537e-01 -4.8247983784e-01
659 8.4868879630e-02 -1.1576770071e-01 -4.8313062777e-01
660 8.4672954135e-02 -1.1427752392e-01 -4.8385582061e-01
661 8.4344786011e-02 -1.1285447533e-01 -4.8463550154e-01
662 8.3914200129e-02 -1.1145406309e-01 -4.8542089396e-01
663 8.3455200915e-02 -1.1014819900e-01 -4.8620048420e-01
664 8.2925225991e-02 -1.0885469796e-01 -4.8697622885e-01
665 8.2354660889e-02 -1.0761741873e-01 -4.8775398739e-01
666 8.1723793648e-02 -1.0642805193e-01 -4.8848908561e-01
667 8.1074340110e-02 -1.0526531249e-01 -4.8922001622e-01
668 8.0398202537e-02 -1.0413963394e-01 -4.8992268567e-01
669 7.9709648325e-02 -1.0306339796e-01 -4.9060398030e-01
670 7.9018286518e-02 -1.0199626294e-01 -4.9126145834e-01
671 7.8291848890e-02 -1.0092614658e-01 -4.9192004523e-01
672 7.7541087172e-02 -9.9902495097e-02 -4.9251828483e-01
673 7.6794437184e-02 -9.8900079662e-02 -4.9311520030e-01
674 7.5998716691e-02 -9.7927622519e-02 -4.9367993054e-01
675 7.5200374487e-02 -9.7017580401e-02 -4.9421745777e-01
676 7.4334714285e-02 -9.6133358650e-02 -4.9473852046e-01
677 7.3467284402e-02 -9.5357686735e-02 -4.9522098556e-01
678 7.2520300179e-02 -9.4625705366e-02 -4.9568050009e-01
679 7.1563724382e-02 -9.3991730784e-02 -4.9610231324e-01
680 7.0583709919e-02 -9.3430687920e-02 -4.9650779409e-01
681 6.9561397294e-02 -9.2957931785e-02 -4.9688128096e-01
682 6.8545885336e-02 -9.2586396608e-02 -4.9721010580e-01
683 6.7508688380e-02 -9.2289212488e-02 -4.9749506611e-01
684 6.6465052182e-02 -9.2092570905e-02 -4.9771074441e-01
685 6.5431589151e-02 -9.1933904100e-02 -4.9791933959e-01
686 6.4435400411e-02 -9.1843495486e-02 -4.9808262005e-01
687 6.3394309237e-02 -9.1779606685e-02 -4.9818252650e-01
688 6.2405377067e-02 -9.1748518209e-02 -4.9821577836e-01
689 6.1416144577e-02 -9.1726629481e-02 -4.9822615738e-01
690 6.0440005571e-02 -9.1711379423e-02 -4.9822972526e-01
691 5.9472503746e-02 -9.1703293874e-02 -4.9816971014e-01
692 5.8467461082e-02 -9.1693279702e-02 -4.9806095095e-01
693 5.7506098246e-02 -9.1678993473e-02 -4.9791413937e-01
694 5.6520820215e-02 -9.1666310642e-02 -4.9774896517e-01
695 3.2726400311e-02 -1.4794653676e-01 -5.0241183354e-01
696 3.3152131424e-02 -1.4832236771e-01 -5.0135858397e-01
697 3.3588498831e-02 -1.4867551625e-01 -5.0030153990e-01
698 3.3588498831e-02 -1.4867551625e-01 -5.0030153990e-01
699 3.4674097518e-02 -1.4887817322e-01 -4.9814583015e-01
700 3.5239741567e-02 -1.4882767840e-01 -4.9713206608e-01
701 3.5834833618e-02 -1.4861698623e-01 -4.9617606679e-01
702 3.6428381492e-02 -1.4843320086e-01 -4.9520403246e-01
703 3.7018220224e-02 -1.4826722593e-01 -4.9422640521e-01
704 3.7570650249e-02 -1.4806480449e-01 -4.9334371171e-01
705 3.8112452664e-02 -1.4791859067e-01 -4.9244130794e-01
706 3.8673527880e-02 -1.4775560405e-01 -4.9151492955e-01
707 3.9224185282e-02 -1.4764142366e-01 -4.9057365436e-01
708 3.9813723570e-02 -1.4750753134e-01 -4.8957406931e-01
709 4.0411355461e-02 -1.4733515514e-01 -4.8858647203e-01
710 4.1020773740e-02 -1.4715178711e-01 -4.8758472801e-01
711 4.1637147759e-02 -1.4693244602e-01 -4.8659529182e-01
712 4.2206582102e-02 -1.4671921085e-01 -4.8568864196e-01
713 4.2785965224e-02 -1.4644108608e-01 -4.8480906387e-01
714 4.3428546535e-02 -1.4611828923e-01 -4.8384358078e-01
715 4.4079539090e-02 -1.4571693476e-01 -4.8291760466e-01
716 4.4758369180e-02 -1.4528385830e-01 -4.8196223594e-01
717 4.5441246641e-02 -1.4479291867e-01 -4.8103994180e-01
718 4.6102733775e-02 -1.4429868482e-01 -4.8015963648e-01
719 4.6765721289e-02 -1.4375769294e-01 -4.7930932850e-01
720 4.7423487557e-02 -1.4320061627e-01 -4.7847999499e-01
721 4.8080760798e-02 -1.4258950261e-01 -4.7768947456e-01
722 4.8742870031e-02 -1.4193856285e-01 -4.7691791342e-01
723 4.9402807354e-02 -1.4125476486e-01 -4.7617341989e-01
724 5.0013103688e-02 -1.4056765896e-01 -4.7552333994e-01
725 5.0619135628e-02 -1.3984706714e-01 -4.7490464960e-01
726 5.1170410718e-02 -1.3909728537e-01 -4.7440797718e-01
727 5.1713901907e-02 -1.3831894793e-01 -4.7394577308e-01
728 5.2178866010e-02 -1.3760681814e-01 -4.7358279306e-01
729 5.2632021509e-02 -1.3686530680e-01 -4.7326233084e-01
730 5.3096522673e-02 -1.3605514293e-01 -4.7296895191e-01
731 5.3552099567e-02 -1.3523022495e-01 -4.7270249444e-01
732 5.4022057684e-02 -1.3430192700e-01 -4.7248186746e-01
733 5.4479257138e-02 -1.3335955744e-01 -4.7229476485e-01
734 5.4960961756e-02 -1.3235029263e-01 -4.7210913296e-01
735 5.5422207407e-02 -1.3132258399e-01 -4.7197437567e-01
736 5.5827891550e-02 -1.3040161624e-01 -4.7186781652e-01
737 5.6227507481e-02 -1.2947661962e-01 -4.7177533393e-01
738 5.6549281361e-02 -1.2872791432e-01 -4.7170359189e-01
739 5.6864761674e-02 -1.2797547826e-01 -4.7164615034e-01
740 5.7241847322e-02 -1.2707571936e-01 -4.7157776464e-01
741 5.7616472998e-02 -1.2617454437e-01 -4.7151491399e-01
742 5.8015417020e-02 -1.2519407408e-01 -4.7146260403e-01
743 5.8410752354e-02 -1.2421175359e-01 -4.7141826066e-01
744 5.8796765012e-02 -1.2323176354e-01 -4.7138956988e-01
745 5.9177490484e-02 -1.2224935352e-01 -4.7137241169e-01
746 5.9567119646e-02 -1.2119874897e-01 -4.7138652984e-01
747 5.9954724893e-02 -1.2014745096e-01 -4.7140491154e-01
748 6.0351485423e-02 -1.1897280083e-01 -4.7149282247e-01
749 6.0741174501e-02 -1.1779686486e-01 -4.7159474224e-01
750 6.1089152822e-02 -1.1665529848e-01 -4.7174992879e-01
751 6.1422984218e-02 -1.1551354134e-01 -4.7193147885e-01
752 6.1726080560e-02 -1.1441349879e-01 -4.7214079595e-01
753 6.2008112369e-02 -1.1331613068e-01 -4.7238730645e-01
754 6.2265850685e-02 -1.1226952172e-01 -4.7264328544e-01
755 6.2499690830e-02 -1.1122884328e-01 -4.7293942833e-01
756 6.2721928537e-02 -1.1020563178e-01 -4.7324481365e-01
757 6.2919063739e-02 -1.0918940820e-01 -4.7359188034e-01
758 6.3111668672e-02 -1.0816853902e-01 -4.7395058966e-01
759 6.3276315820e-02 -1.0715806296e-01 -4.7435388940e-01
760 6.3420687346e-02 -1.0619456362e-01 -4.7476184855e-01
761 6.3554256525e-02 -1.0523635866e-01 -4.7518613493e-01
762 6.3659938001e-02 -1.0434317888e-01 -4.7561652814e-01
763 6.3756590096e-02 -1.0345528774e-01 -4.7605996555e-01
764 6.3821935260e-02 -1.0264435302e-01 -4.7650749746e-01
765 6.3873748054e-02 -1.0184286368e-01 -4.7697351421e-01
766 6.3895304092e-02 -1.0104407763e-01 -4.7749373607e-01
767 6.3899697920e-02 -1.0026005293e-01 -4.7803546083e-01
768 6.3877231458e-02 -9.9433297401e-02 -4.7865695514e-01
769 6.3834162132e-02 -9.8626175576e-02 -4.7930289493e-01
770 6.3753682803e-02 -9.7893512966e-02 -4.7996602646e-01
771 6.3654969641e-02 -9.7181226086e-02 -4.8064868241e-01
772 6.3472373649e-02 -9.6472893126e-02 -4.8148412857e-01
773 6.3265807676e-02 -9.5798080686e-02 -4.8234053750e-01
774 6.3005049937e-02 -9.5161796894e-02 -4.8327043590e-01
775 6.2722847416e-02 -9.4558566434e-02 -4.8421693771e-01
776 6.2355568129e-02 -9.4037563198e-02 -4.8526356993e-01
777 6.1967861855e-02 -9.3554163404e-02 -4.8632171848e-01
778 6.1557164650e-02 -9.3112238239e-02 -4.8739342425e-01
779 6.1095300595e-02 -9.2776991033e-02 -4.8848519882e-01
780 6.0607565877e-02 -9.2473878316e-02 -4.8960243657e-01
781 6.0087541173e-02 -9.2254216168e-02 -4.9072105043e-01
782 5.9566942985e-02 -9.2077808017e-02 -4.9181038611e-01
783 5.9026748302e-02 -9.1958191903e-02 -4.9289622876e-01
784 5.8519060276e-02 -9.1878370796e-02 -4.9389387044e-01
785 5.8007314109e-02 -9.1811104902e-02 -4.9489022940e-01
786 5.7531353555e-02 -9.1757115955e-02 -4.9581090887e-01
787 5.7051884749e-02 -9.1714194083e-02 -4.9673035063e-01
788 5.6520820215e-02 -9.1666310642e-02 -4.9774896517e-01
789 5.5993422961e-02 -9.1606760317e-02 -4.9876894173e-01
790 5.5461013267e-02 -9.1536054826e-02 -4.9980604831e-01
791 5.4929017876e-02 -9.1464072029e-02 -5.0084327902e-01
792 5.4401693503e-02 -9.1376911323e-02 -5.0188249500e-01
793 5.3875031032e-02 -9.1287755142e-02 -5.0292187862e-01
794 5.3383684066e-02 -9.1201304863e-02 -5.0389388420e-01
795 5.2889705356e-02 -9.1122655092e-02 -5.0486525306e-01
796 5.2365258602e-02 -9.1062423918e-02 -5.0588023841e-01
797 5.1837859988e-02 -9.1011446263e-02 -5.0689421211e-01
798 5.1257826940e-02 -9.1004831245e-02 -5.0797472968e-01
799 5.0665737451e-02 -9.1038949852e-02 -5.0904902464e-01
800 5.0112096431e-02 -9.1117924148e-02 -5.1002050782e-01
801 4.9550619492e-02 -9.1227642783e-02 -5.1098498028e-01
802 4.8982972914e-02 -9.1391799704e-02 -5.1192274724e-01
803 4.8404639443e-02 -9.1608235359e-02 -5.1284365240e-01
804 4.7879923964e-02 -9.1834790757e-02 -5.1365799758e-01
805 4.7351126310e-02 -9.2085940772e-02 -5.1446268704e-01
806 4.6845217048e-02 -9.2368328834e-02 -5.1520301899e-01
807 4.6337499730e-02 -9.2665800366e-02 -5.1593611619e-01
808 4.5849498307e-02 -9.2971654053e-02 -5.1662674332e-01
809 4.5359572457e-02 -9.3298043680e-02 -5.1730657556e-01
810 4.4840558921e-02 -9.3670690830e-02 -5.1800789144e-01
811 4.4322099117e-02 -9.4034932730e-02 -5.1871408328e-01
812 4.3726993320e-02 -9.4480521521e-02 -5.1950537773e-01
813 4.3132056247e-02 -9.4922891982e-02 -5.2029861137e-01
814 4.2501875465e-02 -9.5419863950e-02 -5.2111894046e-01
815 4.1871781597e-02 -9.5913466911e-02 -5.2194144669e-01
816 4.1262015897e-02 -9.6391323673e-02 -5.2273730092e-01
817 4.0651843020e-02 -9.6882911125e-02 -5.2352430268e-01
818 4.0081907086e-02 -9.7357978217e-02 -5.2424825873e-01
819 3.9511866299e-02 -9.7842120251e-02 -5.2496601714e-01
820 3.8860951969e-02 -9.8419216307e-02 -5.2576857591e-01
821 3.8211380687e-02 -9.9040102393e-02 -5.2653795801e-01
822 3.7528779352e-02 -9.9698068332e-02 -5.2734259976e-01
823 3.6854170447e-02 -1.0044170958e-01 -5.2807235066e-01
824 3.6224566610e-02 -1.0115558494e-01 -5.2873950101e-01
825 3.5600132714e-02 -1.0190875212e-01 -5.2936948662e-01
826 3.5024210608e-02 -1.0265923432e-01 -5.2991135290e-01
827 3.4461900852e-02 -1.0345954814e-01 -5.3039305326e-01
828 3.3997348412e-02 -1.0414377830e-01 -5.3077482910e-01
829 3.3542904258e-02 -1.0485627950e-01 -5.3111801213e-01
830 3.3093417501e-02 -1.0561112207e-01 -5.3142236162e-01
831 3.2660558089e-02 -1.0639712674e-01 -5.3167397988e-01
832 3.2222491818e-02 -1.0720935837e-01 -5.3191685582e-01
833 3.1793150730e-02 -1.0803357981e-01 -5.3213512752e-01
834 3.1403491493e-02 -1.0882956192e-01 -5.3229961417e-01
835 3.1021055893e-02 -1.0963277984e-01 -5.3244563429e-01
836 3.0743423209e-02 -1.1022597955e-01 -5.3254456125e-01
837 3.0473451505e-02 -1.1082591795e-01 -5.3262458077e-01
838 3.0177780600e-02 -1.1151559648e-01 -5.3268928670e-01
839 2.9882936347e-02 -1.1220579998e-01 -5.3275210481e-01
840 2.9481863436e-02 -1.1313203868e-01 -5.3284640673e-01
841 2.9100401942e-02 -1.1407190527e-01 -5.3289476885e-01
842 2.8725389351e-02 -1.1502784133e-01 -5.3291992981e-01
843 2.8352806190e-02 -1.1598483216e-01 -5.3293985630e-01
844 2.8027855332e-02 -1.1688178328e-01 -5.3291350193e-01
845 2.7718116366e-02 -1.1778204048e-01 -5.3285663201e-01
846 2.7378777591e-02 -1.1879481775e-01 -5.3277573346e-01
847 2.7062075626e-02 -1.1980964197e-01 -5.3265141874e-01
848 2.6754264241e-02 -1.2081806776e-01 -5.3251513318e-01
849 2.6484298635e-02 -1.2182308966e-01 -5.3231101348e-01
850 2.6211360404e-02 -1.2285550949e-01 -5.3209316753e-01
851 2.5982154602e-02 -1.2388309253e-01 -5.3179760698e-01
852 2.5784904763e-02 -1.2488963962e-01 -5.3145753610e-01
853 2.5614583003e-02 -1.2588681151e-01 -5.3107409736e-01
854 2.5500237186e-02 -1.2682456463e-01 -5.3062853547e-01
855 2.5400489364e-02 -1.2775375822e-01 -5.3016188503e-01
856 2.5351030726e-02 -1.2863422486e-01 -5.2963610095e-01
857 2.5319631341e-02 -1.2950045574e-01 -5.2908683369e-01
858 2.5326571849e-02 -1.3033281284e-01 -5.2849021589e-01
859 2.5357610470e-02 -1.3114215676e-01 -5.2786500364e-01
860 2.5407697874e-02 -1.3193422355e-01 -5.2721658057e-01
861 2.5488190399e-02 -1.3269462867e-01 -5.2653398137e-01
862 2.5577297480e-02 -1.3343858481e-01 -5.2584694995e-01
863 2.5693995812e-02 -1.3415012450e-01 -5.2513147598e-01
864 2.5819770071e-02 -1.3488550711e-01 -5.2438242375e-01
865 2.5970379542e-02 -1.3559105675e-01 -5.2360825318e-01
866 2.6124770277e-02 -1.3627995800e-01 -5.2283872608e-01
867 2.6289209593e-02 -1.3695595509e-01 -5.2205966292e-01
868 2.6479047014e-02 -1.3764991704e-01 -5.2122084585e-01
869 2.6682599248e-02 -1.3832511932e-01 -5.2036973098e-01
870 2.6909707225e-02 -1.3901953959e-01 -5.1946147924e-01
871 2.7160486299e-02 -1.3967972496e-01 -5.1853332935e-01
872 2.7437060666e-02 -1.4036629005e-01 -5.1753882279e-01
873 2.7747433092e-02 -1.4100069358e-01 -5.1651819608e-01
874 2.8085041337e-02 -1.4165428830e-01 -5.1543360314e-01
875 2.8451156258e-02 -1.4225797659e-01 -5.1433114890e-01
876 2.8759888602e-02 -1.4274401416e-01 -5.1341762245e-01
877 2.9082418084e-02 -1.4320475534e-01 -5.1249627579e-01
878 2.9331453624e-02 -1.4356046519e-01 -5.1178490143e-01
879 2.9593208703e-02 -1.4389188983e-01 -5.1106695378e-01
880 2.9874374533e-02 -1.4424789165e-01 -5.1029576590e-01
881 3.0152744922e-02 -1.4460923006e-01 -5.0952602236e-01
882 3.0470459587e-02 -1.4497714463e-01 -5.0867870950e-01
883 3.0786144959e-02 -1.4534902683e-01 -5.0783235851e-01
884 3.1097575994e-02 -1.4573820744e-01 -5.0698172158e-01
885 3.1411736001e-02 -1.4612215949e-01 -5.0612973956e-01
886 3.1716608512e-02 -1.4657338087e-01 -5.0524783876e-01
887 3.2034870955e-02 -1.4699946482e-01 -5.0435869797e-01
888 3.2367586964e-02 -1.4749657765e-01 -5.0339290595e-01
889 3.2726400311e-02 -1.4794653676e-01 -5.0241183354e-01
$EndNodes
$Elements
877
1 1 2 1 1 1 2
2 1 2 1 1 2 3
3 1 2 1 1 3 4
4 1 2 1 1 4 5
5 1 2 1 1 5 6
6 1 2 1 1 6 7
7 1 2 1 1 7 8
8 1 2 1 1 8 9
9 1 2 1 1 9 10
10 1 2 1 1 10 11
11 1 2 1 1 11 12
12 1 2 1 1 12 13
13 1 2 1 1 13 14
14 1 2 1 1 14 15
15 1 2 1 1 15 16
16 1 2 1 1 16 17
17 1 2 1 1 17 18
18 1 2 1 1 18 19
19 1 2 1 1 19 20
20 1 2 1 1 20 21
21 1 2 1 1 21 22
22 1 2 1 1 22 23
23 1 2 1 1 23 24
24 1 2 1 1 24 25
25 1 2 1 1 25 26
26 1 2 1 1 26 27
27 1 2 1 1 27 28
28 1 2 1 1 28 29
29 1 2 1 1 29 30
30 1 2 1 1 30 31
31 1 2 1 1 31 32
32 1 2 1 1 32 33
33 1 2 1 1 33 34
34 1 2 1 1 34 35
35 1 2 1 1 35 36
36 1 2 1 1 36 37
37 1 2 1 1 37 38
38 1 2 1 1 38 39
39 1 2 1 1 39 40
40 1 2 1 1 40 41
41 1 2 1 1 41 42
42 1 2 1 1 42 43
43 1 2 1 1 43 44
44 1 2 1 1 44 45
45 1 2 1 1 45 46
46 1 2 1 1 46 47
47 1 2 1 1 47 48
48 1 2 1 1 48 49
49 1 2 1 1 49 50
50 1 2 1 1 50 51
51 1 2 1 1 51 52
52 1 2 1 1 52 53
53 1 2 1 1 53 54
54 1 2 1 1 54 55
55 1 2 1 1 55 56
56 1 2 1 1 56 57
57 1 2 1 1 57 58
58 1 2 1 1 58 59
59 1 2 1 1 59 60
60 1 2 1 1 60 61
61 1 2 1 1 62 63
62 1 2 1 1 63 64
63 1 2 1 1 64 65
64 1 2 1 1 65 66
65 1 2 1 1 66 67
66 1 2 1 1 67 68
67 1 2 1 1 68 69
68 1 2 1 1 69 70
69 1 2 1 1 70 71
70 1 2 1 1 71 72
71 1 2 1 1 72 73
72 1 2 1 1 73 74
73 1 2 1 1 74 75
74 1 2 1 1 75 76
75 1 2 1 1 76 77
76 1 2 1 1 77 78
77 1 2 1 1 78 79
78 1 2 1 1 79 80
79 1 2 1 1 80 81
80 1 2 1 1 81 82
81 1 2 1 1 82 83
82 1 2 1 1 83 84
83 1 2 1 1 84 85
84 1 2 1 1 85 86
85 1 2 1 1 86 87
86 1 2 1 1 87 88
87 1 2 1 1 88 89
88 1 2 1 1 89 90
89 1 2 1 1 90 91
90 1 2 1 1 91 92
91 1 2 1 1 92 93
92 1 2 1 1 93 94
93 1 2 1 1 94 95
94 1 2 1 1 95 96
95 1 2 1 1 96 97
96 1 2 1 1 97 98
97 1 2 1 1 98 99
98 1 2 1 1 99 100
99 1 2 1 1 100 101
100 1 2 1 1 101 102
101 1 2 1 1 102 103
102 1 2 1 1 103 104
103 1 2 1 1 104 105
104 1 2 1 1 105 106
105 1 2 1 1 106 107
106 1 2 1 1 107 108
107 1 2 1 1 108 109
108 1 2 1 1 109 110
109 1 2 1 1 110 111
110 1 2 1 1 111 112
111 1 2 1 1 112 113
112 1 2 1 1 113 114
113 1 2 1 1 114 115
114 1 2 1 1 115 116
115 1 2 1 1 116 117
116 1 2 1 1 117 118
117 1 2 1 1 118 119
118 1 2 1 1 119 120
119 1 2 1 1 120 121
120 1 2 1 1 121 122
121 1 2 1 1 122 123
122 1 2 1 1 123 124
123 1 2 1 1 124 125
124 1 2 1 1 125 126
125 1 2 1 1 126 127
126 1 2 1 1 127 128
127 1 2 1 1 128 129
128 1 2 1 1 129 130
129 1 2 1 1 130 131
130 1 2 1 1 131 132
131 1 2 1 1 132 133
132 1 2 1 1 133 134
133 1 2 1 1 134 135
134 1 2 1 1 135 136
135 1 2 1 1 136 137
136 1 2 1 1 137 138
137 1 2 1 1 138 139
138 1 2 1 1 139 140
139 1 2 1 1 140 141
140 1 2 1 1 141 142
141 1 2 1 1 142 143
142 1 2 1 1 143 144
143 1 2 1 1 144 145
144 1 2 1 1 145 146
145 1 2 1 1 146 147
146 1 2 1 1 147 148
147 1 2 1 1 148 149
148 1 2 1 1 149 150
149 1 2 1 1 150 151
150 1 2 1 1 151 152
151 1 2 1 1 152 153
152 1 2 1 1 153 154
153 1 2 1 1 154 155
154 1 2 1 1 155 156
155 1 2 1 1 156 157
156 1 2 1 1 157 158
157 1 2 1 1 158 159
158 1 2 1 1 159 160
159 1 2 1 1 160 161
160 1 2 1 1 161 162
161 1 2 1 1 162 163
162 1 2 1 1 163 164
163 1 2 1 1 164 165
164 1 2 1 1 165 166
165 1 2 1 1 166 167
166 1 2 1 1 167 168
167 1 2 1 1 168 169
168 1 2 1 1 169 170
169 1 2 1 1 170 171
170 1 2 1 1 171 172
171 1 2 1 1 172 173
172 1 2 1 1 173 174
173 1 2 1 1 174 175
174 1 2 1 1 175 176
175 1 2 1 1 176 177
176 1 2 1 1 177 178
177 1 2 1 1 178 179
178 1 2 1 1 179 180
179 1 2 1 1 180 181
180 1 2 1 1 181 182
181 1 2 1 1 182 183
182 1 2 1 1 183 184
183 1 2 1 1 184 185
184 1 2 1 1 185 186
185 1 2 1 1 186 187
186 1 2 1 1 187 188
187 1 2 1 1 188 189
188 1 2 1 1 189 190
189 1 2 1 1 190 191
190 1 2 1 1 191 192
191 1 2 1 1 192 193
192 1 2 1 1 193 194
193 1 2 1 1 194 195
194 1 2 1 1 195 196
195 1 2 1 1 196 197
196 1 2 1 1 197 198
197 1 2 1 1 199 200
198 1 2 1 1 200 201
199 1 2 1 1 201 202
200 1 2 1 1 202 203
201 1 2 1 1 203 204
202 1 2 1 1 204 205
203 1 2 1 1 205 206
204 1 2 1 1 206 207
205 1 2 1 1 208 209
206 1 2 1 1 209 210
207 1 2 1 1 210 211
208 1 2 1 1 211 212
209 1 2 1 1 212 213
210 1 2 1 1 213 214
211 1 2 1 1 214 215
212 1 2 1 1 215 216
213 1 2 1 1 216 217
214 1 2 1 1 217 218
215 1 2 1 1 218 219
216 1 2 1 1 219 220
217 1 2 1 1 220 221
218 1 2 1 1 221 222
219 1 2 1 1 222 223
220 1 2 1 1 223 224
221 1 2 1 1 224 225
222 1 2 1 1 225 226
223 1 2 1 1 226 227
224 1 2 1 1 227 228
225 1 2 1 1 228 229
226 1 2 1 1 229 230
227 1 2 1 1 230 231
228 1 2 1 1 231 232
229 1 2 1 1 232 233
230 1 2 1 1 233 234
231 1 2 1 1 234 235
232 1 2 1 1 235 236
233 1 2 1 1 236 237
234 1 2 1 1 237 238
235 1 2 1 1 238 239
236 1 2 1 1 240 241
237 1 2 1 1 241 242
238 1 2 1 1 242 243
239 1 2 1 1 243 244
240 1 2 1 1 244 245
241 1 2 1 1 245 246
242 1 2 1 1 246 247
243 1 2 1 1 247 248
244 1 2 1 1 248 249
245 1 2 1 1 249 250
246 1 2 1 1 250 251
247 1 2 1 1 251 252
248 1 2 1 1 252 253
249 1 2 1 1 253 254
250 1 2 1 1 254 255
251 1 2 1 1 255 256
252 1 2 1 1 256 257
253 1 2 1 1 257 258
254 1 2 1 1 258 259
255 1 2 1 1 259 260
256 1 2 1 1 260 261
257 1 2 1 1 261 262
258 1 2 1 1 262 263
259 1 2 1 1 263 264
260 1 2 1 1 264 265
261 1 2 1 1 265 266
262 1 2 1 1 266 267
263 1 2 1 1 267 268
264 1 2 1 1 268 269
265 1 2 1 1 269 270
266 1 2 1 1 270 271
267 1 2 1 1 271 272
268 1 2 1 1 272 273
269 1 2 1 1 273 274
270 1 2 1 1 274 275
271 1 2 1 1 275 276
272 1 2 1 1 276 277
273 1 2 1 1 278 279
274 1 2 1 1 279 280
275 1 2 1 1 280 281
276 1 2 1 1 281 282
277 1 2 1 1 282 283
278 1 2 1 1 283 284
279 1 2 1 1 284 285
280 1 2 1 1 285 286
281 1 2 1 1 286 287
282 1 2 1 1 287 288
283 1 2 1 1 288 289
284 1 2 1 1 289 290
285 1 2 1 1 290 291
286 1 2 1 1 291 292
287 1 2 1 1 292 293
288 1 2 1 1 293 294
289 1 2 1 1 294 295
290 1 2 1 1 295 296
291 1 2 1 1 296 297
292 1 2 1 1 297 298
293 1 2 1 1 298 299
294 1 2 1 1 299 300
295 1 2 1 1 300 301
296 1 2 1 1 301 302
297 1 2 1 1 302 303
298 1 2 1 1 303 304
299 1 2 1 1 304 305
300 1 2 1 1 305 306
301 1 2 1 1 306 307
302 1 2 1 1 307 308
303 1 2 1 1 308 309
304 1 2 1 1 309 310
305 1 2 1 1 310 311
306 1 2 1 1 311 312
307 1 2 1 1 312 313
308 1 2 1 1 313 314
309 1 2 1 1 314 315
310 1 2 1 1 315 316
311 1 2 1 1 316 317
312 1 2 1 1 317 318
313 1 2 1 1 318 319
314 1 2 1 1 319 320
315 1 2 1 1 320 321
316 1 2 1 1 321 322
317 1 2 1 1 322 323
318 1 2 1 1 323 324
319 1 2 1 1 324 325
320 1 2 1 1 325 326
321 1 2 1 1 326 327
322 1 2 1 1 327 328
323 1 2 1 1 328 329
324 1 2 1 1 329 330
325 1 2 1 1 330 331
326 1 2 1 1 331 332
327 1 2 1 1 332 333
328 1 2 1 1 334 335
329 1 2 1 1 335 336
330 1 2 1 1 336 337
331 1 2 1 1 337 338
332 1 2 1 1 338 339
333 1 2 1 1 339 340
334 1 2 1 1 340 341
335 1 2 1 1 341 342
336 1 2 1 1 342 343
337 1 2 1 1 343 344
338 1 2 1 1 344 345
339 1 2 1 1 345 346
340 1 2 1 1 346 347
341 1 2 1 1 347 348
342 1 2 1 1 348 349
343 1 2 1 1 349 350
344 1 2 1 1 350 351
345 1 2 1 1 351 352
346 1 2 1 1 352 353
347 1 2 1 1 353 354
348 1 2 1 1 354 355
349 1 2 1 1 355 356
350 1 2 1 1 356 357
351 1 2 1 1 357 358
352 1 2 1 1 358 359
353 1 2 1 1 359 360
354 1 2 1 1 360 361
355 1 2 1 1 361 362
356 1 2 1 1 362 363
357 1 2 1 1 363 364
358 1 2 1 1 364 365
359 1 2 1 1 365 366
360 1 2 1 1 366 367
361 1 2 1 1 367 368
362 1 2 1 1 368 369
363 1 2 1 1 369 370
364 1 2 1 1 370 371
365 1 2 1 1 371 372
366 1 2 1 1 372 373
367 1 2 1 1 373 374
368 1 2 1 1 374 375
369 1 2 1 1 375 376
370 1 2 1 1 376 377
371 1 2 1 1 377 378
372 1 2 1 1 378 379
373 1 2 1 1 379 380
374 1 2 1 1 380 381
375 1 2 1 1 381 382
376 1 2 1 1 382 383
377 1 2 1 1 383 384
378 1 2 1 1 384 385
379 1 2 1 1 385 386
380 1 2 1 1 386 387
381 1 2 1 1 387 388
382 1 2 1 1 388 389
383 1 2 1 1 389 390
384 1 2 1 1 390 391
385 1 2 1 1 391 392
386 1 2 1 1 392 393
387 1 2 1 1 393 394
388 1 2 1 1 394 395
389 1 2 1 1 395 396
390 1 2 1 1 396 397
391 1 2 1 1 397 398
392 1 2 1 1 398 399
393 1 2 1 1 399 400
394 1 2 1 1 400 401
395 1 2 1 1 401 402
396 1 2 1 1 402 403
397 1 2 1 1 403 404
398 1 2 1 1 404 405
399 1 2 1 1 405 406
400 1 2 1 1 406 407
401 1 2 1 1 407 408
402 1 2 1 1 408 409
403 1 2 1 1 409 410
404 1 2 1 1 410 411
405 1 2 1 1 411 412
406 1 2 1 1 412 413
407 1 2 1 1 413 414
408 1 2 1 1 414 415
409 1 2 1 1 415 416
410 1 2 1 1 416 417
411 1 2 1 1 417 418
412 1 2 1 1 418 419
413 1 2 1 1 419 420
414 1 2 1 1 420 421
415 1 2 1 1 421 422
416 1 2 1 1 422 423
417 1 2 1 1 423 424
418 1 2 1 1 424 425
419 1 2 1 1 425 426
420 1 2 1 1 426 427
421 1 2 1 1 427 428
422 1 2 1 1 428 429
423 1 2 1 1 429 430
424 1 2 1 1 430 431
425 1 2 1 1 431 432
426 1 2 1 1 432 433
427 1 2 1 1 433 434
428 1 2 1 1 434 435
429 1 2 1 1 435 436
430 1 2 1 1 436 437
431 1 2 1 1 437 438
432 1 2 1 1 438 439
433 1 2 1 1 439 440
434 1 2 1 1 440 441
435 1 2 1 1 441 442
436 1 2 1 1 442 443
437 1 2 1 1 443 444
438 1 2 1 1 444 445
439 1 2 1 1 445 446
440 1 2 1 1 446 447
441 1 2 1 1 447 448
442 1 2 1 1 448 449
443 1 2 1 1 449 450
444 1 2 1 1 450 451
445 1 2 1 1 451 452
446 1 2 1 1 452 453
447 1 2 1 1 453 454
448 1 2 1 1 454 455
449 1 2 1 1 455 456
450 1 2 1 1 456 457
451 1 2 1 1 457 458
452 1 2 1 1 458 459
453 1 2 1 1 459 460
454 1 2 1 1 460 461
455 1 2 1 1 461 462
456 1 2 1 1 462 463
457 1 2 1 1 463 464
458 1 2 1 1 464 465
459 1 2 1 1 465 466
460 1 2 1 1 466 467
461 1 2 1 1 467 468
462 1 2 1 1 468 469
463 1 2 1 1 469 470
464 1 2 1 1 470 471
465 1 2 1 1 471 472
466 1 2 1 1 472 473
467 1 2 1 1 473 474
468 1 2 1 1 474 475
469 1 2 1 1 475 476
470 1 2 1 1 476 477
471 1 2 1 1 477 478
472 1 2 1 1 478 479
473 1 2 1 1 479 480
474 1 2 1 1 480 481
475 1 2 1 1 481 482
476 1 2 1 1 482 483
477 1 2 1 1 483 484
478 1 2 1 1 484 485
479 1 2 1 1 485 486
480 1 2 1 1 486 487
481 1 2 1 1 487 488
482 1 2 1 1 488 489
483 1 2 1 1 489 490
484 1 2 1 1 490 491
485 1 2 1 1 491 492
486 1 2 1 1 492 493
487 1 2 1 1 493 494
488 1 2 1 1 494 495
489 1 2 1 1 495 496
490 1 2 1 1 496 497
491 1 2 1 1 497 498
492 1 2 1 1 498 499
493 1 2 1 1 499 500
494 1 2 1 1 500 501
495 1 2 1 1 501 502
496 1 2 1 1 502 503
497 1 2 1 1 503 504
498 1 2 1 1 504 505
499 1 2 1 1 505 506
500 1 2 1 1 506 507
501 1 2 1 1 507 508
502 1 2 1 1 508 509
503 1 2 1 1 509 510
504 1 2 1 1 510 511
505 1 2 1 1 511 512
506 1 2 1 1 512 513
507 1 2 1 1 513 514
508 1 2 1 1 514 515
509 1 2 1 1 515 516
510 1 2 1 1 516 517
511 1 2 1 1 517 518
512 1 2 1 1 518 519
513 1 2 1 1 519 520
514 1 2 1 1 520 521
515 1 2 1 1 521 522
516 1 2 1 1 522 523
517 1 2 1 1 523 524
518 1 2 1 1 524 525
519 1 2 1 1 525 526
520 1 2 1 1 526 527
521 1 2 1 1 527 528
522 1 2 1 1 529 530
523 1 2 1 1 531 532
524 1 2 1 1 532 533
525 1 2 1 1 533 534
526 1 2 1 1 534 535
527 1 2 1 1 535 536
528 1 2 1 1 536 537
529 1 2 1 1 537 538
530 1 2 1 1 538 539
531 1 2 1 1 539 540
532 1 2 1 1 540 541
533 1 2 1 1 541 542
534 1 2 1 1 542 543
535 1 2 1 1 543 544
536 1 2 1 1 544 545
537 1 2 1 1 545 546
538 1 2 1 1 546 547
539 1 2 1 1 547 548
540 1 2 1 1 548 549
541 1 2 1 1 549 550
542 1 2 1 1 550 551
543 1 2 1 1 551 552
544 1 2 1 1 552 553
545 1 2 1 1 553 554
546 1 2 1 1 554 555
547 1 2 1 1 555 556
548 1 2 1 1 556 557
549 1 2 1 1 557 558
550 1 2 1 1 558 559
551 1 2 1 1 559 560
552 1 2 1 1 560 561
553 1 2 1 1 561 562
554 1 2 1 1 562 563
555 1 2 1 1 563 564
556 1 2 1 1 564 565
557 1 2 1 1 565 566
558 1 2 1 1 566 567
559 1 2 1 1 567 568
560 1 2 1 1 568 569
561 1 2 1 1 569 570
562 1 2 1 1 570 571
563 1 2 1 1 571 572
564 1 2 1 1 572 573
565 1 2 1 1 573 574
566 1 2 1 1 574 575
567 1 2 1 1 575 576
568 1 2 1 1 576 577
569 1 2 1 1 577 578
570 1 2 1 1 578 579
571 1 2 1 1 579 580
572 1 2 1 1 580 581
573 1 2 1 1 581 582
574 1 2 1 1 582 583
575 1 2 1 1 583 584
576 1 2 1 1 584 585
577 1 2 1 1 585 586
578 1 2 1 1 586 587
579 1 2 1 1 587 588
580 1 2 1 1 588 589
581 1 2 1 1 589 590
582 1 2 1 1 590 591
583 1 2 1 1 591 592
584 1 2 1 1 592 593
585 1 2 1 1 593 594
586 1 2 1 1 594 595
587 1 2 1 1 595 596
588 1 2 1 1 596 597
589 1 2 1 1 597 598
590 1 2 1 1 598 599
591 1 2 1 1 599 600
592 1 2 1 1 600 601
593 1 2 1 1 601 602
594 1 2 1 1 602 603
595 1 2 1 1 603 604
596 1 2 1 1 604 605
597 1 2 1 1 605 606
598 1 2 1 1 607 608
599 1 2 1 1 608 609
600 1 2 1 1 609 610
601 1 2 1 1 610 611
602 1 2 1 1 611 612
603 1 2 1 1 612 613
604 1 2 1 1 613 614
605 1 2 1 1 614 615
606 1 2 1 1 615 616
607 1 2 1 1 616 617
608 1 2 1 1 617 618
609 1 2 1 1 618 619
610 1 2 1 1 619 620
611 1 2 1 1 620 621
612 1 2 1 1 621 622
613 1 2 1 1 622 623
614 1 2 1 1 623 624
615 1 2 1 1 625 626
616 1 2 1 1 626 627
617 1 2 1 1 627 628
618 1 2 1 1 628 629
619 1 2 1 1 629 630
620 1 2 1 1 630 631
621 1 2 1 1 631 632
622 1 2 1 1 632 633
623 1 2 1 1 633 634
624 1 2 1 1 634 635
625 1 2 1 1 635 636
626 1 2 1 1 636 637
627 1 2 1 1 637 638
628 1 2 1 1 638 639
629 1 2 1 1 639 640
630 1 2 1 1 640 641
631 1 2 1 1 641 642
632 1 2 1 1 642 643
633 1 2 1 1 643 644
634 1 2 1 1 644 645
635 1 2 1 1 645 646
636 1 2 1 1 646 647
637 1 2 1 1 647 648
638 1 2 1 1 648 649
639 1 2 1 1 649 650
640 1 2 1 1 650 651
641 1 2 1 1 651 652
642 1 2 1 1 652 653
643 1 2 1 1 653 654
644 1 2 1 1 654 655
645 1 2 1 1 655 656
646 1 2 1 1 656 657
647 1 2 1 1 657 658
648 1 2 1 1 658 659
649 1 2 1 1 659 660
650 1 2 1 1 660 661
651 1 2 1 1 661 662
652 1 2 1 1 662 663
653 1 2 1 1 663 664
654 1 2 1 1 664 665
655 1 2 1 1 665 666
656 1 2 1 1 666 667
657 1 2 1 1 667 668
658 1 2 1 1 668 669
659 1 2 1 1 669 670
660 1 2 1 1 670 671
661 1 2 1 1 671 672
662 1 2 1 1 672 673
663 1 2 1 1 673 674
664 1 2 1 1 674 675
665 1 2 1 1 675 676
666 1 2 1 1 676 677
667 1 2 1 1 677 678
668 1 2 1 1 678 679
669 1 2 1 1 679 680
670 1 2 1 1 680 681
671 1 2 1 1 681 682
672 1 2 1 1 682 683
673 1 2 1 1 683 684
674 1 2 1 1 684 685
675 1 2 1 1 685 686
676 1 2 1 1 686 687
677 1 2 1 1 687 688
678 1 2 1 1 688 689
679 1 2 1 1 689 690
680 1 2 1 1 690 691
681 1 2 1 1 691 692
682 1 2 1 1 692 693
683 1 2 1 1 693 694
684 1 2 1 1 695 696
685 1 2 1 1 696 697
686 1 2 1 1 697 698
687 1 2 1 1 698 699
688 1 2 1 1 699 700
689 1 2 1 1 700 701
690 1 2 1 1 701 702
691 1 2 1 1 702 703
692 1 2 1 1 703 704
693 1 2 1 1 704 705
694 1 2 1 1 705 706
695 1 2 1 1 706 707
696 1 2 1 1 707 708
697 1 2 1 1 708 709
698 1 2 1 1 709 710
699 1 2 1 1 710 711
700 1 2 1 1 711 712
701 1 2 1 1 712 713
702 1 2 1 1 713 714
703 1 2 1 1 714 715
704 1 2 1 1 715 716
705 1 2 1 1 716 717
706 1 2 1 1 717 718
707 1 2 1 1 718 719
708 1 2 1 1 719 720
709 1 2 1 1 720 721
710 1 2 1 1 721 722
711 1 2 1 1 722 723
712 1 2 1 1 723 724
713 1 2 1 1 724 725
714 1 2 1 1 725 726
715 1 2 1 1 726 727
716 1 2 1 1 727 728
717 1 2 1 1 728 729
718 1 2 1 1 729 730
719 1 2 1 1 730 731
720 1 2 1 1 731 732
721 1 2 1 1 732 733
722 1 2 1 1 733 734
723 1 2 1 1 734 735
724 1 2 1 1 735 736
725 1 2 1 1 736 737
726 1 2 1 1 737 738
727 1 2 1 1 738 739
728 1 2 1 1 739 740
729 1 2 1 1 740 741
730 1 2 1 1 741 742
731 1 2 1 1 742 743
732 1 2 1 1 743 744
733 1 2 1 1 744 745
734 1 2 1 1 745 746
735 1 2 1 1 746 747
736 1 2 1 1 747 748
737 1 2 1 1 748 749
738 1 2 1 1 749 750
739 1 2 1 1 750 751
740 1 2 1 1 751 752
741 1 2 1 1 752 753
742 1 2 1 1 753 754
743 1 2 1 1 754 755
744 1 2 1 1 755 756
745 1 2 1 1 756 757
746 1 2 1 1 757 758
747 1 2 1 1 758 759
748 1 2 1 1 759 760
749 1 2 1 1 760 761
750 1 2 1 1 761 762
751 1 2 1 1 762 763
752 1 2 1 1 763 764
753 1 2 1 1 764 765
754 1 2 1 1 765 766
755 1 2 1 1 766 767
756 1 2 1 1 767 768
757 1 2 1 1 768 769
758 1 2 1 1 769 770
759 1 2 1 1 770 771
760 1 2 1 1 771 772
761 1 2 1 1 772 773
762 1 2 1 1 773 774
763 1 2 1 1 774 775
764 1 2 1 1 775 776
765 1 2 1 1 776 777
766 1 2 1 1 777 778
767 1 2 1 1 778 779
768 1 2 1 1 779 780
769 1 2 1 1 780 781
770 1 2 1 1 781 782
771 1 2 1 1 782 783
772 1 2 1 1 783 784
773 1 2 1 1 784 785
774 1 2 1 1 785 786
775 1 2 1 1 786 787
776 1 2 1 1 787 788
777 1 2 1 1 788 789
778 1 2 1 1 789 790
779 1 2 1 1 790 791
780 1 2 1 1 791 792
781 1 2 1 1 792 793
782 1 2 1 1 793 794
783 1 2 1 1 794 795
784 1 2 1 1 795 796
785 1 2 1 1 796 797
786 1 2 1 1 797 798
787 1 2 1 1 798 799
788 1 2 1 1 799 800
789 1 2 1 1 800 801
790 1 2 1 1 801 802
791 1 2 1 1 802 803
792 1 2 1 1 803 804
793 1 2 1 1 804 805
794 1 2 1 1 805 806
795 1 2 1 1 806 807
796 1 2 1 1 807 808
797 1 2 1 1 808 809
798 1 2 1 1 809 810
799 1 2 1 1 810 811
800 1 2 1 1 811 812
801 1 2 1 1 812 813
802 1 2 1 1 813 814
803 1 2 1 1 814 815
804 1 2 1 1 815 816
805 1 2 1 1 816 817
806 1 2 1 1 817 818
807 1 2 1 1 818 819
808 1 2 1 1 819 820
809 1 2 1 1 820 821
810 1 2 1 1 821 822
811 1 2 1 1 822 823
812 1 2 1 1 823 824
813 1 2 1 1 824 825
814 1 2 1 1 825 826
815 1 2 1 1 826 827
816 1 2 1 1 827 828
817 1 2 1 1 828 829
818 1 2 1 1 829 830
819 1 2 1 1 830 831
820 1 2 1 1 831 832
821 1 2 1 1 832 833
822 1 2 1 1 833 834
823 1 2 1 1 834 835
824 1 2 1 1 835 836
825 1 2 1 1 836 837
826 1 2 1 1 837 838
827 1 2 1 1 838 839
828 1 2 1 1 839 840
829 1 2 1 1 840 841
830 1 2 1 1 841 842
831 1 2 1 1 842 843
832 1 2 1 1 843 844
833 1 2 1 1 844 845
834 1 2 1 1 845 846
835 1 2 1 1 846 847
836 1 2 1 1 847 848
837 1 2 1 1 848 849
838 1 2 1 1 849 850
839 1 2 1 1 850 851
840 1 2 1 1 851 852
841 1 2 1 1 852 853
842 1 2 1 1 853 854
843 1 2 1 1 854 855
844 1 2 1 1 855 856
845 1 2 1 1 856 857
846 1 2 1 1 857 858
847 1 2 1 1 858 859
848 1 2 1 1 859 860
849 1 2 1 1 860 861
850 1 2 1 1 861 862
851 1 2 1 1 862 863
852 1 2 1 1 863 864
853 1 2 1 1 864 865
854 1 2 1 1 865 866
855 1 2 1 1 866 867
856 1 2 1 1 867 868
857 1 2 1 1 868 869
858 1 2 1 1 869 870
859 1 2 1 1 870 871
860 1 2 1 1 871 872
861 1 2 1 1 872 873
862 1 2 1 1 873 874
863 1 2 1 1 874 875
864 1 2 1 1 875 876
865 1 2 1 1 876 877
866 1 2 1 1 877 878
867 1 2 1 1 878 879
868 1 2 1 1 879 880
869 1 2 1 1 880 881
870 1 2 1 1 881 882
871 1 2 1 1 882 883
872 1 2 1 1 883 884
873 1 2 1 1 884 885
874 1 2 1 1 885 886
875 1 2 1 1 886 887
876 1 2 1 1 887 888
877 1 2 1 1 888 889
$EndElements
