$MeshFormat
2.2 0 8
$EndMeshFormat
$PhysicalNames
1
1 1 "surface_0"
$EndPhysicalNames
$Nodes
597
1 2.5790560246e-01 8.9081507921e-01 2.0000000000e+00
2 1.6517017782e-01 4.8117363453e-01 2.0000000000e+00
3 2.5790560246e-01 8.9081507921e-01 2.0000000000e+00
4 1.1566893011e-01 4.8675939441e-01 2.0000000000e+00
5 2.5790560246e-01 8.9081507921e-01 2.0000000000e+00
6 2.1146106720e-01 4.7315895557e-01 2.0000000000e+00
7 2.5790560246e-01 8.9081507921e-01 2.0000000000e+00
8 2.2900809348e-01 4.6963402629e-01 2.0000000000e+00
9 2.5790560246e-01 8.9081507921e-01 2.0000000000e+00
10 2.2609576583e-01 4.7032597661e-01 2.0000000000e+00
11 2.5790560246e-01 8.9081507921e-01 2.0000000000e+00
12 1.8529255688e-01 4.7822469473e-01 2.0000000000e+00
13 2.8883469105e-01 6.9512271881e-01 2.0000000000e+00
14 2.9386740923e-01 4.5324459672e-01 2.0000000000e+00
15 2.8883469105e-01 6.9512271881e-01 2.0000000000e+00
16 2.7037739754e-01 4.5980480313e-01 2.0000000000e+00
17 2.8883469105e-01 6.9512271881e-01 2.0000000000e+00
18 2.1146106720e-01 4.7315895557e-01 2.0000000000e+00
19 2.8883469105e-01 6.9512271881e-01 2.0000000000e+00
20 1.2278198451e-01 4.8608025908e-01 2.0000000000e+00
21 2.8883469105e-01 6.9512271881e-01 2.0000000000e+00
22 2.2224447131e-01 4.7107151151e-01 2.0000000000e+00
23 2.8883469105e-01 6.9512271881e-01 2.0000000000e+00
24 2.4326467514e-01 4.6624669433e-01 2.0000000000e+00
25 2.8883469105e-01 6.9512271881e-01 2.0000000000e+00
26 2.9876932502e-01 4.5187562704e-01 2.0000000000e+00
27 3.8710114360e-01 8.0274003744e-01 2.0000000000e+00
28 2.7037739754e-01 4.5980480313e-01 2.0000000000e+00
29 3.8710114360e-01 8.0274003744e-01 2.0000000000e+00
30 3.1781318784e-01 4.4655710459e-01 2.0000000000e+00
31 3.8710114360e-01 8.0274003744e-01 2.0000000000e+00
32 2.8497540951e-01 4.5572793484e-01 2.0000000000e+00
33 5.2402224392e-02 3.8014683127e-01 2.0000000000e+00
34 5.5366531014e-02 4.2742878199e-01 2.0000000000e+00
35 5.2402224392e-02 3.8014683127e-01 2.0000000000e+00
36 7.8889697790e-02 4.1836321354e-01 2.0000000000e+00
37 5.2402224392e-02 3.8014683127e-01 2.0000000000e+00
38 9.6891783178e-02 4.1250571609e-01 2.0000000000e+00
39 5.2402224392e-02 3.8014683127e-01 2.0000000000e+00
40 7.5350336730e-02 4.1972723603e-01 2.0000000000e+00
41 1.0759667307e-01 3.4103256464e-01 2.0000000000e+00
42 1.0353369266e-01 4.1034460068e-01 2.0000000000e+00
43 1.0759667307e-01 3.4103256464e-01 2.0000000000e+00
44 1.3424184918e-01 4.0144166350e-01 2.0000000000e+00
45 1.0759667307e-01 3.4103256464e-01 2.0000000000e+00
46 1.5093180537e-01 3.9676481485e-01 2.0000000000e+00
47 1.0759667307e-01 3.4103256464e-01 2.0000000000e+00
48 1.2830114365e-01 4.0310639143e-01 2.0000000000e+00
49 1.0759667307e-01 3.4103256464e-01 2.0000000000e+00
50 9.6891783178e-02 4.1250571609e-01 2.0000000000e+00
51 4.1314771771e-01 2.2887949646e-01 2.0000000000e+00
52 4.1100770235e-01 3.3997803926e-01 2.0000000000e+00
53 4.1314771771e-01 2.2887949646e-01 2.0000000000e+00
54 4.4390213490e-01 3.3361908793e-01 2.0000000000e+00
55 4.1314771771e-01 2.2887949646e-01 2.0000000000e+00
56 4.5998746157e-01 3.3050957322e-01 2.0000000000e+00
57 4.1314771771e-01 2.2887949646e-01 2.0000000000e+00
58 4.3377661705e-01 3.3557650447e-01 2.0000000000e+00
59 4.1314771771e-01 2.2887949646e-01 2.0000000000e+00
60 4.0787905455e-01 3.4058284760e-01 2.0000000000e+00
61 4.8605325818e-01 1.7539508641e-01 2.0000000000e+00
62 4.9143755436e-01 3.2442981005e-01 2.0000000000e+00
63 4.8605325818e-01 1.7539508641e-01 2.0000000000e+00
64 5.4358053207e-01 3.1466960907e-01 2.0000000000e+00
65 6.8237626553e-01 6.9893872738e-01 2.0000000000e+00
66 5.7692021132e-01 3.5225567222e-01 2.0000000000e+00
67 6.8237626553e-01 6.9893872738e-01 2.0000000000e+00
68 5.3140872717e-01 3.7073564529e-01 2.0000000000e+00
69 6.8237626553e-01 6.9893872738e-01 2.0000000000e+00
70 5.1735055447e-01 3.7644398212e-01 2.0000000000e+00
71 4.2009690404e-01 6.0749119520e-01 2.0000000000e+00
72 2.9876932502e-01 4.5187562704e-01 2.0000000000e+00
73 4.2009690404e-01 6.0749119520e-01 2.0000000000e+00
74 3.3393567801e-01 4.4147524238e-01 2.0000000000e+00
75 4.2009690404e-01 6.0749119520e-01 2.0000000000e+00
76 4.0367135406e-01 4.1858568788e-01 2.0000000000e+00
77 4.2009690404e-01 6.0749119520e-01 2.0000000000e+00
78 4.0808984637e-01 4.1705381870e-01 2.0000000000e+00
79 4.2009690404e-01 6.0749119520e-01 2.0000000000e+00
80 3.7481784821e-01 4.2858898640e-01 2.0000000000e+00
81 5.7509535551e-01 6.6865742207e-01 2.0000000000e+00
82 4.3789309263e-01 4.0672123432e-01 2.0000000000e+00
83 5.7509535551e-01 6.6865742207e-01 2.0000000000e+00
84 4.9190437794e-01 3.8637217879e-01 2.0000000000e+00
85 4.8857361078e-01 5.2194982767e-01 2.0000000000e+00
86 4.2531418800e-01 4.1108226776e-01 2.0000000000e+00
87 4.8857361078e-01 5.2194982767e-01 2.0000000000e+00
88 4.3789309263e-01 4.0672123432e-01 2.0000000000e+00
89 4.8857361078e-01 5.2194982767e-01 2.0000000000e+00
90 4.8864653707e-01 3.8759958744e-01 2.0000000000e+00
91 4.8857361078e-01 5.2194982767e-01 2.0000000000e+00
92 4.8518019915e-01 3.8890555501e-01 2.0000000000e+00
93 4.8857361078e-01 5.2194982767e-01 2.0000000000e+00
94 4.0367135406e-01 4.1858568788e-01 2.0000000000e+00
95 4.8857361078e-01 5.2194982767e-01 2.0000000000e+00
96 4.0063190460e-01 4.1963943839e-01 2.0000000000e+00
97 5.6842768192e-01 4.6481406689e-01 2.0000000000e+00
98 4.8864653707e-01 3.8759958744e-01 2.0000000000e+00
99 5.6842768192e-01 4.6481406689e-01 2.0000000000e+00
100 5.1513761282e-01 3.7734252214e-01 2.0000000000e+00
101 5.6842768192e-01 4.6481406689e-01 2.0000000000e+00
102 5.7692021132e-01 3.5225567222e-01 2.0000000000e+00
103 5.6842768192e-01 4.6481406689e-01 2.0000000000e+00
104 5.2577930689e-01 3.7302145362e-01 2.0000000000e+00
105 6.5879279375e-01 4.8699191213e-01 2.0000000000e+00
106 6.1825799942e-01 3.3430543542e-01 2.0000000000e+00
107 6.5879279375e-01 4.8699191213e-01 2.0000000000e+00
108 5.7692021132e-01 3.5225567222e-01 2.0000000000e+00
109 6.5879279375e-01 4.8699191213e-01 2.0000000000e+00
110 6.2199288607e-01 3.3268362284e-01 2.0000000000e+00
111 7.7582490444e-01 5.0046169758e-01 2.0000000000e+00
112 7.0559567213e-01 2.9459765553e-01 2.0000000000e+00
113 7.7582490444e-01 5.0046169758e-01 2.0000000000e+00
114 6.6039037704e-01 3.1549394131e-01 2.0000000000e+00
115 7.8850573301e-01 3.9980411530e-01 2.0000000000e+00
116 7.2730326653e-01 2.8382596374e-01 2.0000000000e+00
117 7.8850573301e-01 3.9980411530e-01 2.0000000000e+00
118 7.2360801697e-01 2.8601038456e-01 2.0000000000e+00
119 7.8850573301e-01 3.9980411530e-01 2.0000000000e+00
120 7.0559567213e-01 2.9459765553e-01 2.0000000000e+00
121 6.2126165628e-01 4.0378892422e-01 2.0000000000e+00
122 6.2313920259e-01 3.3218589425e-01 2.0000000000e+00
123 6.2126165628e-01 4.0378892422e-01 2.0000000000e+00
124 5.7692021132e-01 3.5225567222e-01 2.0000000000e+00
125 6.2126165628e-01 4.0378892422e-01 2.0000000000e+00
126 5.9400445223e-01 3.4483712912e-01 2.0000000000e+00
127 6.2126165628e-01 4.0378892422e-01 2.0000000000e+00
128 6.2582653761e-01 3.3101892471e-01 2.0000000000e+00
129 6.7728310823e-01 3.6623635888e-01 2.0000000000e+00
130 6.9687515497e-01 2.9528033733e-01 2.0000000000e+00
131 6.7728310823e-01 3.6623635888e-01 2.0000000000e+00
132 6.5176910162e-01 3.1947916746e-01 2.0000000000e+00
133 6.7728310823e-01 3.6623635888e-01 2.0000000000e+00
134 6.2582653761e-01 3.3101892471e-01 2.0000000000e+00
135 6.7728310823e-01 3.6623635888e-01 2.0000000000e+00
136 6.4779573679e-01 3.2131588459e-01 2.0000000000e+00
137 6.7728310823e-01 3.6623635888e-01 2.0000000000e+00
138 6.7466956377e-01 3.0889335275e-01 2.0000000000e+00
139 6.9980955124e-01 1.6261328757e-01 2.0000000000e+00
140 6.9561803341e-01 2.8656104207e-01 2.0000000000e+00
141 6.9980955124e-01 1.6261328757e-01 2.0000000000e+00
142 7.2494173050e-01 2.8119412065e-01 2.0000000000e+00
143 6.9980955124e-01 1.6261328757e-01 2.0000000000e+00
144 7.3151463270e-01 2.7999112010e-01 2.0000000000e+00
145 6.9980955124e-01 1.6261328757e-01 2.0000000000e+00
146 6.9586795568e-01 2.8651529551e-01 2.0000000000e+00
147 7.7067106962e-01 1.4743070304e-01 2.0000000000e+00
148 7.3151463270e-01 2.7999112010e-01 2.0000000000e+00
149 2.2888177633e-01 4.6966403723e-01 2.0000000000e+00
150 2.2224447131e-01 4.7107151151e-01 2.0000000000e+00
151 1.1566893011e-01 4.8675939441e-01 2.0000000000e+00
152 9.6547029912e-02 4.8750033975e-01 2.0000000000e+00
153 2.2888177633e-01 4.6966403723e-01 2.0000000000e+00
154 2.2585184872e-01 4.7037857771e-01 1.0000000000e+00
155 2.2888177633e-01 4.6966403723e-01 2.0000000000e+00
156 2.4326467514e-01 4.6624669433e-01 2.0000000000e+00
157 2.8808793426e-01 4.5485869050e-01 2.0000000000e+00
158 2.9876932502e-01 4.5187562704e-01 2.0000000000e+00
159 3.1781318784e-01 4.4655710459e-01 2.0000000000e+00
160 1.1566893011e-01 4.8675939441e-01 2.0000000000e+00
161 8.7692722678e-02 4.8784345388e-01 2.0000000000e+00
162 6.4669579268e-02 4.8723843694e-01 2.0000000000e+00
163 5.5137202144e-02 4.8625525832e-01 2.0000000000e+00
164 4.6921711415e-02 4.8540788889e-01 2.0000000000e+00
165 3.5236299038e-02 4.8317652941e-01 2.0000000000e+00
166 2.4508964270e-02 4.7982186079e-01 2.0000000000e+00
167 1.5836760402e-02 4.7509619594e-01 2.0000000000e+00
168 1.3328546658e-02 4.7277525067e-01 2.0000000000e+00
169 1.1566893011e-01 4.8675939441e-01 2.0000000000e+00
170 1.7403368652e-01 4.8006364703e-01 1.0000000000e+00
171 1.1566893011e-01 4.8675939441e-01 2.0000000000e+00
172 9.6547029912e-02 4.8750033975e-01 2.0000000000e+00
173 5.7692021132e-01 3.5225567222e-01 2.0000000000e+00
174 5.7692021132e-01 3.5225567222e-01 2.0000000000e+00
175 5.7692021132e-01 3.5225567222e-01 2.0000000000e+00
176 5.6935507059e-01 3.5542652011e-01 1.0000000000e+00
177 5.7692021132e-01 3.5225567222e-01 2.0000000000e+00
178 5.9400445223e-01 3.4483712912e-01 2.0000000000e+00
179 6.2121415138e-01 3.3302178979e-01 2.0000000000e+00
180 6.2582653761e-01 3.3101892471e-01 2.0000000000e+00
181 6.3417720795e-01 3.2739278674e-01 2.0000000000e+00
182 5.0113207102e-01 3.8289558887e-01 2.0000000000e+00
183 4.8518019915e-01 3.8890555501e-01 2.0000000000e+00
184 5.0113207102e-01 3.8289558887e-01 2.0000000000e+00
185 4.8864653707e-01 3.8759958744e-01 2.0000000000e+00
186 4.8232650757e-01 3.8998070359e-01 2.0000000000e+00
187 4.3789309263e-01 4.0672123432e-01 2.0000000000e+00
188 5.0113207102e-01 3.8289558887e-01 2.0000000000e+00
189 5.2577930689e-01 3.7302145362e-01 2.0000000000e+00
190 5.7692021132e-01 3.5225567222e-01 2.0000000000e+00
191 1.3328546658e-02 4.7277525067e-01 2.0000000000e+00
192 0.0000000000e+00 4.9044460058e-01 1.0000000000e+00
193 1.3328546658e-02 4.7277525067e-01 2.0000000000e+00
194 9.1802347451e-03 4.6558693051e-01 2.0000000000e+00
195 9.1083243489e-02 4.1439568996e-01 2.0000000000e+00
196 9.6891783178e-02 4.1250571609e-01 2.0000000000e+00
197 1.0174743831e-01 4.1092580557e-01 2.0000000000e+00
198 1.2830114365e-01 4.0310639143e-01 2.0000000000e+00
199 1.5555122495e-01 3.9562523365e-01 2.0000000000e+00
200 1.8397511542e-01 3.8861325383e-01 2.0000000000e+00
201 2.0458501577e-01 3.8352891803e-01 2.0000000000e+00
202 2.3551629484e-01 3.7660247087e-01 2.0000000000e+00
203 2.6074168086e-01 3.7095370889e-01 2.0000000000e+00
204 2.7907687426e-01 3.6684790254e-01 2.0000000000e+00
205 3.1036999822e-01 3.6033815145e-01 2.0000000000e+00
206 3.3513459563e-01 3.5518649220e-01 2.0000000000e+00
207 3.5970854759e-01 3.5007447004e-01 2.0000000000e+00
208 3.6045837402e-01 3.4991848469e-01 2.0000000000e+00
209 3.6093685031e-01 3.4981894493e-01 2.0000000000e+00
210 3.7191540003e-01 3.4753513336e-01 2.0000000000e+00
211 4.0841284394e-01 3.4047967196e-01 2.0000000000e+00
212 4.3377661705e-01 3.3557650447e-01 2.0000000000e+00
213 4.5935034752e-01 3.3063274622e-01 2.0000000000e+00
214 4.9143755436e-01 3.2442981005e-01 2.0000000000e+00
215 9.1083243489e-02 4.1439568996e-01 2.0000000000e+00
216 7.8889697790e-02 4.1836321354e-01 2.0000000000e+00
217 5.5366531014e-02 4.2742878199e-01 2.0000000000e+00
218 9.1083243489e-02 4.1439568996e-01 2.0000000000e+00
219 1.0353369266e-01 4.1034460068e-01 2.0000000000e+00
220 1.1012970656e-01 4.0819838643e-01 2.0000000000e+00
221 1.3424184918e-01 4.0144166350e-01 2.0000000000e+00
222 1.6004788876e-01 3.9451593161e-01 2.0000000000e+00
223 1.6597384214e-01 3.9305403829e-01 2.0000000000e+00
224 1.7174226046e-01 3.9163100719e-01 2.0000000000e+00
225 2.0458501577e-01 3.8352891803e-01 2.0000000000e+00
226 6.3417720795e-01 3.2739278674e-01 2.0000000000e+00
227 6.5176910162e-01 3.1947916746e-01 2.0000000000e+00
228 6.7174094915e-01 3.1024712324e-01 2.0000000000e+00
229 7.0559567213e-01 2.9459765553e-01 2.0000000000e+00
230 6.3417720795e-01 3.2739278674e-01 2.0000000000e+00
231 6.2313920259e-01 3.3218589425e-01 2.0000000000e+00
232 6.2256604433e-01 3.3243477345e-01 2.0000000000e+00
233 5.7692021132e-01 3.5225567222e-01 2.0000000000e+00
234 7.2730326653e-01 2.8382596374e-01 2.0000000000e+00
235 7.2360801697e-01 2.8601038456e-01 2.0000000000e+00
236 7.0559567213e-01 2.9459765553e-01 2.0000000000e+00
237 7.2730326653e-01 2.8382596374e-01 2.0000000000e+00
238 7.2730326653e-01 2.8382596374e-01 2.0000000000e+00
239 3.1781318784e-01 4.4655710459e-01 2.0000000000e+00
240 3.7481784821e-01 4.2858898640e-01 2.0000000000e+00
241 3.9445647597e-01 4.2178040743e-01 2.0000000000e+00
242 4.3789309263e-01 4.0672123432e-01 2.0000000000e+00
243 3.1781318784e-01 4.4655710459e-01 2.0000000000e+00
244 2.9386740923e-01 4.5324459672e-01 2.0000000000e+00
245 2.7037739754e-01 4.5980480313e-01 2.0000000000e+00
246 2.7037739754e-01 4.5980480313e-01 2.0000000000e+00
247 2.7037739754e-01 4.5980480313e-01 2.0000000000e+00
248 3.9672070742e-01 1.0000000000e+00 1.0000000000e+00
249 7.0047092438e-01 2.9499885440e-01 2.0000000000e+00
250 7.0559567213e-01 2.9459765553e-01 2.0000000000e+00
251 7.0749133825e-01 2.9352939129e-01 2.0000000000e+00
252 7.0976018906e-01 2.9225078225e-01 2.0000000000e+00
253 7.0047092438e-01 2.9499885440e-01 2.0000000000e+00
254 6.9687515497e-01 2.9528033733e-01 2.0000000000e+00
255 6.7174094915e-01 3.1024712324e-01 2.0000000000e+00
256 6.6852569580e-01 3.1173339486e-01 2.0000000000e+00
257 6.6556870937e-01 3.1310027838e-01 2.0000000000e+00
258 6.4637750387e-01 3.2197144628e-01 2.0000000000e+00
259 6.2256604433e-01 3.3243477345e-01 2.0000000000e+00
260 5.7692021132e-01 3.5225567222e-01 2.0000000000e+00
261 7.0047092438e-01 2.9499885440e-01 2.0000000000e+00
262 6.7466956377e-01 3.0889335275e-01 2.0000000000e+00
263 6.6928786039e-01 3.1138107181e-01 2.0000000000e+00
264 6.4779573679e-01 3.2131588459e-01 2.0000000000e+00
265 6.2121415138e-01 3.3302178979e-01 2.0000000000e+00
266 5.9400445223e-01 3.4483712912e-01 2.0000000000e+00
267 5.7692021132e-01 3.5225567222e-01 2.0000000000e+00
268 6.2277417630e-02 4.2476540804e-01 2.0000000000e+00
269 7.5350336730e-02 4.1972723603e-01 2.0000000000e+00
270 1.0174743831e-01 4.1092580557e-01 2.0000000000e+00
271 1.2830114365e-01 4.0310639143e-01 2.0000000000e+00
272 1.5555122495e-01 3.9562523365e-01 2.0000000000e+00
273 1.8397511542e-01 3.8861325383e-01 2.0000000000e+00
274 2.0458501577e-01 3.8352891803e-01 2.0000000000e+00
275 2.3551629484e-01 3.7660247087e-01 2.0000000000e+00
276 2.6074168086e-01 3.7095370889e-01 2.0000000000e+00
277 2.7907687426e-01 3.6684790254e-01 2.0000000000e+00
278 3.1036999822e-01 3.6033815145e-01 2.0000000000e+00
279 3.3513459563e-01 3.5518649220e-01 2.0000000000e+00
280 3.5970854759e-01 3.5007447004e-01 2.0000000000e+00
281 3.6045837402e-01 3.4991848469e-01 2.0000000000e+00
282 3.6093685031e-01 3.4981894493e-01 2.0000000000e+00
283 3.7191540003e-01 3.4753513336e-01 2.0000000000e+00
284 4.0841284394e-01 3.4047967196e-01 2.0000000000e+00
285 4.3377661705e-01 3.3557650447e-01 2.0000000000e+00
286 4.5935034752e-01 3.3063274622e-01 2.0000000000e+00
287 4.9143755436e-01 3.2442981005e-01 2.0000000000e+00
288 6.2277417630e-02 4.2476540804e-01 2.0000000000e+00
289 5.9034071863e-02 4.2590045929e-01 1.0000000000e+00
290 6.2277417630e-02 4.2476540804e-01 2.0000000000e+00
291 5.5366531014e-02 4.2742878199e-01 2.0000000000e+00
292 3.7021756172e-02 4.3610611558e-01 2.0000000000e+00
293 2.8625287116e-02 4.4085812569e-01 2.0000000000e+00
294 1.5432870016e-02 4.5103409886e-01 2.0000000000e+00
295 9.1802347451e-03 4.6558693051e-01 2.0000000000e+00
296 6.8711608648e-01 2.8811708093e-01 2.0000000000e+00
297 6.9561803341e-01 2.8656104207e-01 2.0000000000e+00
298 6.9913452864e-01 2.8591743112e-01 2.0000000000e+00
299 7.0265102386e-01 2.8527382016e-01 2.0000000000e+00
300 7.0494842529e-01 2.8485336900e-01 2.0000000000e+00
301 7.3151463270e-01 2.7999112010e-01 2.0000000000e+00
302 6.8711608648e-01 2.8811708093e-01 2.0000000000e+00
303 6.9586795568e-01 2.8651529551e-01 2.0000000000e+00
304 7.0011746883e-01 2.8573754430e-01 2.0000000000e+00
305 7.3151463270e-01 2.7999112010e-01 2.0000000000e+00
306 6.8711608648e-01 2.8811708093e-01 2.0000000000e+00
307 6.6986227036e-01 2.9127496481e-01 2.0000000000e+00
308 6.3489109278e-01 3.0013266206e-01 2.0000000000e+00
309 6.3211357594e-01 3.0035009980e-01 2.0000000000e+00
310 4.9143755436e-01 3.2442981005e-01 2.0000000000e+00
311 4.9143755436e-01 3.2442981005e-01 2.0000000000e+00
312 4.0133321285e-01 3.4184825420e-01 2.0000000000e+00
313 4.0787905455e-01 3.4058284760e-01 2.0000000000e+00
314 4.0841284394e-01 3.4047967196e-01 2.0000000000e+00
315 4.3377661705e-01 3.3557650447e-01 2.0000000000e+00
316 4.5935034752e-01 3.3063274622e-01 2.0000000000e+00
317 4.9143755436e-01 3.2442981005e-01 2.0000000000e+00
318 4.0133321285e-01 3.4184825420e-01 2.0000000000e+00
319 3.7191540003e-01 3.4753513336e-01 2.0000000000e+00
320 3.6480715871e-01 3.4901383519e-01 2.0000000000e+00
321 3.4293064475e-01 3.5356470942e-01 2.0000000000e+00
322 3.1895267963e-01 3.5855272412e-01 2.0000000000e+00
323 2.7907687426e-01 3.6684790254e-01 2.0000000000e+00
324 4.0133321285e-01 3.4184825420e-01 2.0000000000e+00
325 4.1100770235e-01 3.3997803926e-01 2.0000000000e+00
326 4.1965642571e-01 3.3830612898e-01 2.0000000000e+00
327 4.2830514908e-01 3.3663421869e-01 2.0000000000e+00
328 4.3484312296e-01 3.3537033200e-01 2.0000000000e+00
329 4.4138109684e-01 3.3410644531e-01 2.0000000000e+00
330 4.4671076536e-01 3.3307614923e-01 2.0000000000e+00
331 4.5204040408e-01 3.3204585314e-01 2.0000000000e+00
332 4.5695847273e-01 3.3109512925e-01 2.0000000000e+00
333 4.9143755436e-01 3.2442981005e-01 2.0000000000e+00
334 7.3151463270e-01 2.7999112010e-01 2.0000000000e+00
335 7.3151463270e-01 2.7999112010e-01 2.0000000000e+00
336 6.2797427177e-01 3.3008632064e-01 2.0000000000e+00
337 6.4196699858e-01 3.2401022315e-01 2.0000000000e+00
338 6.6150105000e-01 3.1498056650e-01 2.0000000000e+00
339 7.0559567213e-01 2.9459765553e-01 2.0000000000e+00
340 6.2797427177e-01 3.3008632064e-01 2.0000000000e+00
341 6.1825799942e-01 3.3430543542e-01 2.0000000000e+00
342 6.0748136044e-01 3.3898502588e-01 2.0000000000e+00
343 5.7692021132e-01 3.5225567222e-01 2.0000000000e+00
344 6.2797427177e-01 3.3008632064e-01 2.0000000000e+00
345 6.2199288607e-01 3.3268362284e-01 2.0000000000e+00
346 7.0559567213e-01 2.9459765553e-01 2.0000000000e+00
347 7.0559567213e-01 2.9459765553e-01 2.0000000000e+00
348 6.4669579268e-02 4.8723843694e-01 2.0000000000e+00
349 2.4845425040e-02 1.0000000000e+00 1.0000000000e+00
350 6.4669579268e-02 4.8723843694e-01 2.0000000000e+00
351 0.0000000000e+00 9.7426569462e-01 1.0000000000e+00
352 6.4669579268e-02 4.8723843694e-01 2.0000000000e+00
353 6.4669579268e-02 4.8723843694e-01 2.0000000000e+00
354 6.4669579268e-02 4.8723843694e-01 2.0000000000e+00
355 7.5293987989e-02 1.0000000000e+00 1.0000000000e+00
356 1.8529255688e-01 4.7822469473e-01 2.0000000000e+00
357 1.8529255688e-01 4.7822469473e-01 2.0000000000e+00
358 1.8529255688e-01 4.7822469473e-01 2.0000000000e+00
359 2.8894230723e-01 1.0000000000e+00 1.0000000000e+00
360 1.7195616663e-01 4.8017913103e-01 2.0000000000e+00
361 2.3525069654e-01 1.0000000000e+00 1.0000000000e+00
362 1.7195616663e-01 4.8017913103e-01 2.0000000000e+00
363 1.6517017782e-01 4.8117363453e-01 2.0000000000e+00
364 1.0142134130e-01 4.8731148243e-01 2.0000000000e+00
365 8.7692722678e-02 4.8784345388e-01 2.0000000000e+00
366 1.7195616663e-01 4.8017913103e-01 2.0000000000e+00
367 1.8529255688e-01 4.7822469473e-01 2.0000000000e+00
368 4.3789309263e-01 4.0672123432e-01 2.0000000000e+00
369 4.2778226733e-01 4.1035532951e-01 1.0000000000e+00
370 4.3789309263e-01 4.0672123432e-01 2.0000000000e+00
371 4.3789309263e-01 4.0672123432e-01 2.0000000000e+00
372 4.3789309263e-01 4.0672123432e-01 2.0000000000e+00
373 4.2531418800e-01 4.1108226776e-01 2.0000000000e+00
374 4.0147301555e-01 4.1934782267e-01 2.0000000000e+00
375 4.0147301555e-01 4.1934782267e-01 2.0000000000e+00
376 4.0063190460e-01 4.1963943839e-01 2.0000000000e+00
377 3.7481784821e-01 4.2858898640e-01 2.0000000000e+00
378 3.3393567801e-01 4.4147524238e-01 2.0000000000e+00
379 2.8808793426e-01 4.5485869050e-01 2.0000000000e+00
380 2.4326467514e-01 4.6624669433e-01 2.0000000000e+00
381 2.2888177633e-01 4.6966403723e-01 2.0000000000e+00
382 4.0147301555e-01 4.1934782267e-01 2.0000000000e+00
383 3.7848794460e-01 4.2737090588e-01 1.0000000000e+00
384 5.8257132769e-01 3.0733367801e-01 1.0000000000e+00
385 5.5772143602e-01 3.1197071075e-01 1.0000000000e+00
386 5.3287470341e-01 3.1662419438e-01 1.0000000000e+00
387 5.0802850723e-01 3.2129687071e-01 1.0000000000e+00
388 4.8318660259e-01 3.2599234581e-01 1.0000000000e+00
389 4.5834326744e-01 3.3071801066e-01 1.0000000000e+00
390 4.3350702524e-01 3.3548083901e-01 1.0000000000e+00
391 4.0865960717e-01 3.4029528499e-01 1.0000000000e+00
392 3.8382405043e-01 3.4517043829e-01 1.0000000000e+00
393 3.5893917084e-01 3.5013502836e-01 1.0000000000e+00
394 3.3407357335e-01 3.5519534349e-01 1.0000000000e+00
395 3.0908936262e-01 3.6040398479e-01 1.0000000000e+00
396 2.8413462639e-01 3.6575224996e-01 1.0000000000e+00
397 2.5894340873e-01 3.7124255300e-01 1.0000000000e+00
398 2.3377496004e-01 3.7683638930e-01 1.0000000000e+00
399 2.0821556449e-01 3.8268151879e-01 1.0000000000e+00
400 1.8270757794e-01 3.8874757290e-01 1.0000000000e+00
401 1.5695917606e-01 3.9519590139e-01 1.0000000000e+00
402 1.3131897151e-01 4.0206331015e-01 1.0000000000e+00
403 1.0658729076e-01 4.0927514434e-01 1.0000000000e+00
404 8.2087069750e-02 4.1724267602e-01 1.0000000000e+00
405 5.9034071863e-02 4.2590045929e-01 1.0000000000e+00
406 3.6672025919e-02 4.3624410033e-01 1.0000000000e+00
407 1.9819339737e-02 4.4704163074e-01 1.0000000000e+00
408 9.1802347451e-03 4.6558693051e-01 0.0000000000e+00
409 2.6159763336e-02 4.8049443960e-01 1.0000000000e+00
410 4.6708784997e-02 4.8537600040e-01 1.0000000000e+00
411 7.1419596672e-02 4.8758870363e-01 1.0000000000e+00
412 9.6215069294e-02 4.8769575357e-01 1.0000000000e+00
413 1.2217035890e-01 4.8628178239e-01 1.0000000000e+00
414 1.4803124964e-01 4.8367744684e-01 1.0000000000e+00
415 1.7403368652e-01 4.8006364703e-01 1.0000000000e+00
416 1.9990494847e-01 4.7561055422e-01 1.0000000000e+00
417 2.2585184872e-01 4.7037857771e-01 1.0000000000e+00
418 2.5165581703e-01 4.6448335052e-01 1.0000000000e+00
419 2.7743494511e-01 4.5795762539e-01 1.0000000000e+00
420 3.0306786299e-01 4.5088011026e-01 1.0000000000e+00
421 3.2841405272e-01 4.4335728884e-01 1.0000000000e+00
422 3.5365039110e-01 4.3547439575e-01 1.0000000000e+00
423 3.7848794460e-01 4.2737090588e-01 1.0000000000e+00
424 4.0322971344e-01 4.1897961497e-01 1.0000000000e+00
425 4.2778226733e-01 4.1035532951e-01 1.0000000000e+00
426 4.5224598050e-01 4.0148222446e-01 1.0000000000e+00
427 4.7608774900e-01 3.9257693291e-01 1.0000000000e+00
428 4.9984836578e-01 3.8345730305e-01 1.0000000000e+00
429 5.2294307947e-01 3.7436509132e-01 1.0000000000e+00
430 5.4596203566e-01 3.6508277059e-01 1.0000000000e+00
431 5.6935507059e-01 3.5542652011e-01 1.0000000000e+00
432 5.9266841412e-01 3.4557944536e-01 1.0000000000e+00
433 6.1667925119e-01 3.3520233631e-01 1.0000000000e+00
434 6.4060115814e-01 3.2462173700e-01 1.0000000000e+00
435 6.6398471594e-01 3.1403967738e-01 1.0000000000e+00
436 6.8727576733e-01 3.0325558782e-01 1.0000000000e+00
437 7.0984959602e-01 2.9256823659e-01 1.0000000000e+00
438 7.3151463270e-01 2.7999112010e-01 0.0000000000e+00
439 7.0678246021e-01 2.8445512056e-01 1.0000000000e+00
440 6.8205714226e-01 2.8895691037e-01 1.0000000000e+00
441 6.5717750788e-01 2.9351848364e-01 1.0000000000e+00
442 6.3230246305e-01 2.9810479283e-01 1.0000000000e+00
443 6.0743528605e-01 3.0271059275e-01 1.0000000000e+00
444 5.8257132769e-01 3.0733367801e-01 1.0000000000e+00
445 0.0000000000e+00 2.9676002264e-01 1.0000000000e+00
446 0.0000000000e+00 2.6982256770e-01 1.0000000000e+00
447 0.0000000000e+00 2.4300734699e-01 1.0000000000e+00
448 0.0000000000e+00 2.1619211137e-01 1.0000000000e+00
449 0.0000000000e+00 1.8939673901e-01 1.0000000000e+00
450 0.0000000000e+00 1.6260136664e-01 1.0000000000e+00
451 0.0000000000e+00 1.3524287939e-01 1.0000000000e+00
452 0.0000000000e+00 1.0788438469e-01 1.0000000000e+00
453 0.0000000000e+00 8.0384768546e-02 1.0000000000e+00
454 0.0000000000e+00 5.2885163575e-02 1.0000000000e+00
455 0.0000000000e+00 2.6442581788e-02 1.0000000000e+00
456 0.0000000000e+00 0.0000000000e+00 0.0000000000e+00
457 2.5559928268e-02 0.0000000000e+00 1.0000000000e+00
458 5.1119856536e-02 0.0000000000e+00 1.0000000000e+00
459 7.7457971871e-02 0.0000000000e+00 1.0000000000e+00
460 1.0379608721e-01 0.0000000000e+00 1.0000000000e+00
461 1.3044075668e-01 0.0000000000e+00 1.0000000000e+00
462 1.5708541870e-01 0.0000000000e+00 1.0000000000e+00
463 1.8344165385e-01 0.0000000000e+00 1.0000000000e+00
464 2.0979788899e-01 0.0000000000e+00 1.0000000000e+00
465 2.3633126915e-01 0.0000000000e+00 1.0000000000e+00
466 2.6286464930e-01 0.0000000000e+00 1.0000000000e+00
467 2.8978529572e-01 0.0000000000e+00 1.0000000000e+00
468 3.1670591235e-01 0.0000000000e+00 1.0000000000e+00
469 3.4375813603e-01 0.0000000000e+00 1.0000000000e+00
470 3.7081035972e-01 0.0000000000e+00 1.0000000000e+00
471 3.9805498719e-01 0.0000000000e+00 1.0000000000e+00
472 4.2529961467e-01 0.0000000000e+00 1.0000000000e+00
473 4.5268073678e-01 0.0000000000e+00 1.0000000000e+00
474 4.8006182909e-01 0.0000000000e+00 1.0000000000e+00
475 5.0671648979e-01 0.0000000000e+00 1.0000000000e+00
476 5.3337121010e-01 0.0000000000e+00 1.0000000000e+00
477 5.5881983042e-01 0.0000000000e+00 1.0000000000e+00
478 5.8426851034e-01 0.0000000000e+00 1.0000000000e+00
479 6.0947394371e-01 0.0000000000e+00 1.0000000000e+00
480 6.3467931747e-01 0.0000000000e+00 1.0000000000e+00
481 6.6041302681e-01 0.0000000000e+00 1.0000000000e+00
482 6.8614673615e-01 0.0000000000e+00 1.0000000000e+00
483 7.1184259653e-01 0.0000000000e+00 1.0000000000e+00
484 7.3753845692e-01 0.0000000000e+00 1.0000000000e+00
485 7.6318198442e-01 0.0000000000e+00 1.0000000000e+00
486 7.8882557154e-01 0.0000000000e+00 1.0000000000e+00
487 8.1568068266e-01 0.0000000000e+00 1.0000000000e+00
488 8.4253579378e-01 0.0000000000e+00 1.0000000000e+00
489 8.6974310875e-01 0.0000000000e+00 1.0000000000e+00
490 8.9695048332e-01 0.0000000000e+00 1.0000000000e+00
491 9.2320412397e-01 0.0000000000e+00 1.0000000000e+00
492 9.4945770502e-01 0.0000000000e+00 1.0000000000e+00
493 9.7472888231e-01 0.0000000000e+00 1.0000000000e+00
494 1.0000000000e+00 0.0000000000e+00 0.0000000000e+00
495 1.0000000000e+00 2.5028111413e-02 1.0000000000e+00
496 1.0000000000e+00 5.0056222826e-02 1.0000000000e+00
497 1.0000000000e+00 7.5939767063e-02 1.0000000000e+00
498 1.0000000000e+00 1.0182331502e-01 1.0000000000e+00
499 1.0000000000e+00 1.2832129002e-01 1.0000000000e+00
500 1.0000000000e+00 1.5481925011e-01 1.0000000000e+00
501 1.0000000000e+00 1.8106268346e-01 1.0000000000e+00
502 1.0000000000e+00 2.0730611682e-01 1.0000000000e+00
503 1.0000000000e+00 2.3356546462e-01 1.0000000000e+00
504 1.0000000000e+00 2.5982484221e-01 1.0000000000e+00
505 1.0000000000e+00 2.8615534306e-01 1.0000000000e+00
506 1.0000000000e+00 3.1248587370e-01 1.0000000000e+00
507 1.0000000000e+00 3.3856758475e-01 1.0000000000e+00
508 1.0000000000e+00 3.6464929581e-01 1.0000000000e+00
509 1.0000000000e+00 3.9081892371e-01 1.0000000000e+00
510 1.0000000000e+00 4.1698858142e-01 1.0000000000e+00
511 1.0000000000e+00 4.4351094961e-01 1.0000000000e+00
512 1.0000000000e+00 4.7003334761e-01 1.0000000000e+00
513 1.0000000000e+00 4.9675634503e-01 1.0000000000e+00
514 1.0000000000e+00 5.2347934246e-01 1.0000000000e+00
515 1.0000000000e+00 5.5037558079e-01 1.0000000000e+00
516 1.0000000000e+00 5.7727175951e-01 1.0000000000e+00
517 1.0000000000e+00 6.0440433025e-01 1.0000000000e+00
518 1.0000000000e+00 6.3153690100e-01 1.0000000000e+00
519 1.0000000000e+00 6.5792685747e-01 1.0000000000e+00
520 1.0000000000e+00 6.8431687355e-01 1.0000000000e+00
521 1.0000000000e+00 7.1017819643e-01 1.0000000000e+00
522 1.0000000000e+00 7.3603951931e-01 1.0000000000e+00
523 1.0000000000e+00 7.6259094477e-01 1.0000000000e+00
524 1.0000000000e+00 7.8914231062e-01 1.0000000000e+00
525 1.0000000000e+00 8.1600242853e-01 1.0000000000e+00
526 1.0000000000e+00 8.4286248684e-01 1.0000000000e+00
527 1.0000000000e+00 8.6928027868e-01 1.0000000000e+00
528 1.0000000000e+00 8.9569801092e-01 1.0000000000e+00
529 1.0000000000e+00 9.2211449146e-01 1.0000000000e+00
530 1.0000000000e+00 9.4853091240e-01 1.0000000000e+00
531 1.0000000000e+00 9.7426545620e-01 1.0000000000e+00
532 1.0000000000e+00 1.0000000000e+00 0.0000000000e+00
533 9.7449254990e-01 1.0000000000e+00 1.0000000000e+00
534 9.4898509979e-01 1.0000000000e+00 1.0000000000e+00
535 9.2348134518e-01 1.0000000000e+00 1.0000000000e+00
536 8.9797753096e-01 1.0000000000e+00 1.0000000000e+00
537 8.7246024609e-01 1.0000000000e+00 1.0000000000e+00
538 8.4694296122e-01 1.0000000000e+00 1.0000000000e+00
539 8.2101005316e-01 1.0000000000e+00 1.0000000000e+00
540 7.9507708549e-01 1.0000000000e+00 1.0000000000e+00
541 7.6843386889e-01 1.0000000000e+00 1.0000000000e+00
542 7.4179065228e-01 1.0000000000e+00 1.0000000000e+00
543 7.1501511335e-01 1.0000000000e+00 1.0000000000e+00
544 6.8823963404e-01 1.0000000000e+00 1.0000000000e+00
545 6.6152745485e-01 1.0000000000e+00 1.0000000000e+00
546 6.3481533527e-01 1.0000000000e+00 1.0000000000e+00
547 6.0793131590e-01 1.0000000000e+00 1.0000000000e+00
548 5.8104729652e-01 1.0000000000e+00 1.0000000000e+00
549 5.5438709259e-01 1.0000000000e+00 1.0000000000e+00
550 5.2772694826e-01 1.0000000000e+00 1.0000000000e+00
551 5.0162005424e-01 1.0000000000e+00 1.0000000000e+00
552 4.7551313043e-01 1.0000000000e+00 1.0000000000e+00
553 4.4942784309e-01 1.0000000000e+00 1.0000000000e+00
554 4.2334255576e-01 1.0000000000e+00 1.0000000000e+00
555 3.9672070742e-01 1.0000000000e+00 1.0000000000e+00
556 3.7009882927e-01 1.0000000000e+00 1.0000000000e+00
557 3.4299197793e-01 1.0000000000e+00 1.0000000000e+00
558 3.1588512659e-01 1.0000000000e+00 1.0000000000e+00
559 2.8894230723e-01 1.0000000000e+00 1.0000000000e+00
560 2.6199948788e-01 1.0000000000e+00 1.0000000000e+00
561 2.3525069654e-01 1.0000000000e+00 1.0000000000e+00
562 2.0850190520e-01 1.0000000000e+00 1.0000000000e+00
563 1.8149240315e-01 1.0000000000e+00 1.0000000000e+00
564 1.5448291600e-01 1.0000000000e+00 1.0000000000e+00
565 1.2769001722e-01 1.0000000000e+00 1.0000000000e+00
566 1.0089713335e-01 1.0000000000e+00 1.0000000000e+00
567 7.5293987989e-02 1.0000000000e+00 1.0000000000e+00
568 4.9690850079e-02 1.0000000000e+00 1.0000000000e+00
569 2.4845425040e-02 1.0000000000e+00 1.0000000000e+00
570 0.0000000000e+00 1.0000000000e+00 0.0000000000e+00
571 0.0000000000e+00 9.7426569462e-01 1.0000000000e+00
572 0.0000000000e+00 9.4853132963e-01 1.0000000000e+00
573 0.0000000000e+00 9.2168599367e-01 1.0000000000e+00
574 0.0000000000e+00 8.9484065771e-01 1.0000000000e+00
575 0.0000000000e+00 8.6744534969e-01 1.0000000000e+00
576 0.0000000000e+00 8.4005010128e-01 1.0000000000e+00
577 0.0000000000e+00 8.1273919344e-01 1.0000000000e+00
578 0.0000000000e+00 7.8542828560e-01 1.0000000000e+00
579 0.0000000000e+00 7.5783687830e-01 1.0000000000e+00
580 0.0000000000e+00 7.3024553061e-01 1.0000000000e+00
581 0.0000000000e+00 7.0270174742e-01 1.0000000000e+00
582 0.0000000000e+00 6.7515796423e-01 1.0000000000e+00
583 0.0000000000e+00 6.4814096689e-01 1.0000000000e+00
584 0.0000000000e+00 6.2112390995e-01 1.0000000000e+00
585 0.0000000000e+00 5.9354037046e-01 1.0000000000e+00
586 0.0000000000e+00 5.6595683098e-01 1.0000000000e+00
587 0.0000000000e+00 5.3987902403e-01 1.0000000000e+00
588 0.0000000000e+00 5.1380115747e-01 1.0000000000e+00
589 0.0000000000e+00 4.9044460058e-01 1.0000000000e+00
590 0.0000000000e+00 4.6708804369e-01 1.0000000000e+00
591 0.0000000000e+00 4.4657433033e-01 1.0000000000e+00
592 0.0000000000e+00 4.2606061697e-01 1.0000000000e+00
593 0.0000000000e+00 4.0163710713e-01 1.0000000000e+00
594 0.0000000000e+00 3.7721362710e-01 1.0000000000e+00
595 0.0000000000e+00 3.5045555234e-01 1.0000000000e+00
596 0.0000000000e+00 3.2369750738e-01 1.0000000000e+00
597 0.0000000000e+00 2.9676002264e-01 1.0000000000e+00
$EndNodes
$Elements
464
1 1 2 1 1 1 2
2 1 2 1 1 3 4
3 1 2 1 1 5 6
4 1 2 1 1 7 8
5 1 2 1 1 9 10
6 1 2 1 1 11 12
7 1 2 1 1 13 14
8 1 2 1 1 15 16
9 1 2 1 1 17 18
10 1 2 1 1 19 20
11 1 2 1 1 21 22
12 1 2 1 1 23 24
13 1 2 1 1 25 26
14 1 2 1 1 27 28
15 1 2 1 1 29 30
16 1 2 1 1 31 32
17 1 2 1 1 33 34
18 1 2 1 1 35 36
19 1 2 1 1 37 38
20 1 2 1 1 39 40
21 1 2 1 1 41 42
22 1 2 1 1 43 44
23 1 2 1 1 45 46
24 1 2 1 1 47 48
25 1 2 1 1 49 50
26 1 2 1 1 51 52
27 1 2 1 1 53 54
28 1 2 1 1 55 56
29 1 2 1 1 57 58
30 1 2 1 1 59 60
31 1 2 1 1 61 62
32 1 2 1 1 63 64
33 1 2 1 1 65 66
34 1 2 1 1 67 68
35 1 2 1 1 69 70
36 1 2 1 1 71 72
37 1 2 1 1 73 74
38 1 2 1 1 75 76
39 1 2 1 1 77 78
40 1 2 1 1 79 80
41 1 2 1 1 81 82
42 1 2 1 1 83 84
43 1 2 1 1 85 86
44 1 2 1 1 87 88
45 1 2 1 1 89 90
46 1 2 1 1 91 92
47 1 2 1 1 93 94
48 1 2 1 1 95 96
49 1 2 1 1 97 98
50 1 2 1 1 99 100
51 1 2 1 1 101 102
52 1 2 1 1 103 104
53 1 2 1 1 105 106
54 1 2 1 1 107 108
55 1 2 1 1 109 110
56 1 2 1 1 111 112
57 1 2 1 1 113 114
58 1 2 1 1 115 116
59 1 2 1 1 117 118
60 1 2 1 1 119 120
61 1 2 1 1 121 122
62 1 2 1 1 123 124
63 1 2 1 1 125 126
64 1 2 1 1 127 128
65 1 2 1 1 129 130
66 1 2 1 1 131 132
67 1 2 1 1 133 134
68 1 2 1 1 135 136
69 1 2 1 1 137 138
70 1 2 1 1 139 140
71 1 2 1 1 141 142
72 1 2 1 1 143 144
73 1 2 1 1 145 146
74 1 2 1 1 147 148
75 1 2 1 1 149 150
76 1 2 1 1 150 151
77 1 2 1 1 151 152
78 1 2 1 1 153 154
79 1 2 1 1 155 156
80 1 2 1 1 156 157
81 1 2 1 1 157 158
82 1 2 1 1 158 159
83 1 2 1 1 160 161
84 1 2 1 1 161 162
85 1 2 1 1 162 163
86 1 2 1 1 163 164
87 1 2 1 1 164 165
88 1 2 1 1 165 166
89 1 2 1 1 166 167
90 1 2 1 1 167 168
91 1 2 1 1 169 170
92 1 2 1 1 171 172
93 1 2 1 1 173 174
94 1 2 1 1 175 176
95 1 2 1 1 177 178
96 1 2 1 1 178 179
97 1 2 1 1 179 180
98 1 2 1 1 180 181
99 1 2 1 1 182 183
100 1 2 1 1 184 185
101 1 2 1 1 185 186
102 1 2 1 1 186 187
103 1 2 1 1 188 189
104 1 2 1 1 189 190
105 1 2 1 1 191 192
106 1 2 1 1 193 194
107 1 2 1 1 195 196
108 1 2 1 1 196 197
109 1 2 1 1 197 198
110 1 2 1 1 198 199
111 1 2 1 1 199 200
112 1 2 1 1 200 201
113 1 2 1 1 201 202
114 1 2 1 1 202 203
115 1 2 1 1 203 204
116 1 2 1 1 204 205
117 1 2 1 1 205 206
118 1 2 1 1 206 207
119 1 2 1 1 207 208
120 1 2 1 1 208 209
121 1 2 1 1 209 210
122 1 2 1 1 210 211
123 1 2 1 1 211 212
124 1 2 1 1 212 213
125 1 2 1 1 213 214
126 1 2 1 1 215 216
127 1 2 1 1 216 217
128 1 2 1 1 218 219
129 1 2 1 1 219 220
130 1 2 1 1 220 221
131 1 2 1 1 221 222
132 1 2 1 1 222 223
133 1 2 1 1 223 224
134 1 2 1 1 224 225
135 1 2 1 1 226 227
136 1 2 1 1 227 228
137 1 2 1 1 228 229
138 1 2 1 1 230 231
139 1 2 1 1 231 232
140 1 2 1 1 232 233
141 1 2 1 1 234 235
142 1 2 1 1 235 236
143 1 2 1 1 237 238
144 1 2 1 1 239 240
145 1 2 1 1 240 241
146 1 2 1 1 241 242
147 1 2 1 1 243 244
148 1 2 1 1 245 246
149 1 2 1 1 247 248
150 1 2 1 1 249 250
151 1 2 1 1 250 251
152 1 2 1 1 251 252
153 1 2 1 1 253 254
154 1 2 1 1 254 255
155 1 2 1 1 255 256
156 1 2 1 1 256 257
157 1 2 1 1 257 258
158 1 2 1 1 258 259
159 1 2 1 1 259 260
160 1 2 1 1 261 262
161 1 2 1 1 262 263
162 1 2 1 1 263 264
163 1 2 1 1 264 265
164 1 2 1 1 265 266
165 1 2 1 1 266 267
166 1 2 1 1 268 269
167 1 2 1 1 269 270
168 1 2 1 1 270 271
169 1 2 1 1 271 272
170 1 2 1 1 272 273
171 1 2 1 1 273 274
172 1 2 1 1 274 275
173 1 2 1 1 275 276
174 1 2 1 1 276 277
175 1 2 1 1 277 278
176 1 2 1 1 278 279
177 1 2 1 1 279 280
178 1 2 1 1 280 281
179 1 2 1 1 281 282
180 1 2 1 1 282 283
181 1 2 1 1 283 284
182 1 2 1 1 284 285
183 1 2 1 1 285 286
184 1 2 1 1 286 287
185 1 2 1 1 288 289
186 1 2 1 1 290 291
187 1 2 1 1 291 292
188 1 2 1 1 292 293
189 1 2 1 1 293 294
190 1 2 1 1 294 295
191 1 2 1 1 296 297
192 1 2 1 1 297 298
193 1 2 1 1 298 299
194 1 2 1 1 299 300
195 1 2 1 1 300 301
196 1 2 1 1 302 303
197 1 2 1 1 303 304
198 1 2 1 1 304 305
199 1 2 1 1 306 307
200 1 2 1 1 307 308
201 1 2 1 1 308 309
202 1 2 1 1 310 311
203 1 2 1 1 312 313
204 1 2 1 1 313 314
205 1 2 1 1 314 315
206 1 2 1 1 315 316
207 1 2 1 1 316 317
208 1 2 1 1 318 319
209 1 2 1 1 319 320
210 1 2 1 1 320 321
211 1 2 1 1 321 322
212 1 2 1 1 322 323
213 1 2 1 1 324 325
214 1 2 1 1 325 326
215 1 2 1 1 326 327
216 1 2 1 1 327 328
217 1 2 1 1 328 329
218 1 2 1 1 329 330
219 1 2 1 1 330 331
220 1 2 1 1 331 332
221 1 2 1 1 332 333
222 1 2 1 1 334 335
223 1 2 1 1 336 337
224 1 2 1 1 337 338
225 1 2 1 1 338 339
226 1 2 1 1 340 341
227 1 2 1 1 341 342
228 1 2 1 1 342 343
229 1 2 1 1 344 345
230 1 2 1 1 346 347
231 1 2 1 1 348 349
232 1 2 1 1 350 351
233 1 2 1 1 352 353
234 1 2 1 1 354 355
235 1 2 1 1 356 357
236 1 2 1 1 358 359
237 1 2 1 1 360 361
238 1 2 1 1 362 363
239 1 2 1 1 363 364
240 1 2 1 1 364 365
241 1 2 1 1 366 367
242 1 2 1 1 368 369
243 1 2 1 1 370 371
244 1 2 1 1 372 373
245 1 2 1 1 373 374
246 1 2 1 1 375 376
247 1 2 1 1 376 377
248 1 2 1 1 377 378
249 1 2 1 1 378 379
250 1 2 1 1 379 380
251 1 2 1 1 380 381
252 1 2 1 1 382 383
253 1 2 1 1 384 385
254 1 2 1 1 385 386
255 1 2 1 1 386 387
256 1 2 1 1 387 388
257 1 2 1 1 388 389
258 1 2 1 1 389 390
259 1 2 1 1 390 391
260 1 2 1 1 391 392
261 1 2 1 1 392 393
262 1 2 1 1 393 394
263 1 2 1 1 394 395
264 1 2 1 1 395 396
265 1 2 1 1 396 397
266 1 2 1 1 397 398
267 1 2 1 1 398 399
268 1 2 1 1 399 400
269 1 2 1 1 400 401
270 1 2 1 1 401 402
271 1 2 1 1 402 403
272 1 2 1 1 403 404
273 1 2 1 1 404 405
274 1 2 1 1 405 406
275 1 2 1 1 406 407
276 1 2 1 1 407 408
277 1 2 1 1 408 409
278 1 2 1 1 409 410
279 1 2 1 1 410 411
280 1 2 1 1 411 412
281 1 2 1 1 412 413
282 1 2 1 1 413 414
283 1 2 1 1 414 415
284 1 2 1 1 415 416
285 1 2 1 1 416 417
286 1 2 1 1 417 418
287 1 2 1 1 418 419
288 1 2 1 1 419 420
289 1 2 1 1 420 421
290 1 2 1 1 421 422
291 1 2 1 1 422 423
292 1 2 1 1 423 424
293 1 2 1 1 424 425
294 1 2 1 1 425 426
295 1 2 1 1 426 427
296 1 2 1 1 427 428
297 1 2 1 1 428 429
298 1 2 1 1 429 430
299 1 2 1 1 430 431
300 1 2 1 1 431 432
301 1 2 1 1 432 433
302 1 2 1 1 433 434
303 1 2 1 1 434 435
304 1 2 1 1 435 436
305 1 2 1 1 436 437
306 1 2 1 1 437 438
307 1 2 1 1 438 439
308 1 2 1 1 439 440
309 1 2 1 1 440 441
310 1 2 1 1 441 442
311 1 2 1 1 442 443
312 1 2 1 1 443 444
313 1 2 1 1 445 446
314 1 2 1 1 446 447
315 1 2 1 1 447 448
316 1 2 1 1 448 449
317 1 2 1 1 449 450
318 1 2 1 1 450 451
319 1 2 1 1 451 452
320 1 2 1 1 452 453
321 1 2 1 1 453 454
322 1 2 1 1 454 455
323 1 2 1 1 455 456
324 1 2 1 1 456 457
325 1 2 1 1 457 458
326 1 2 1 1 458 459
327 1 2 1 1 459 460
328 1 2 1 1 460 461
329 1 2 1 1 461 462
330 1 2 1 1 462 463
331 1 2 1 1 463 464
332 1 2 1 1 464 465
333 1 2 1 1 465 466
334 1 2 1 1 466 467
335 1 2 1 1 467 468
336 1 2 1 1 468 469
337 1 2 1 1 469 470
338 1 2 1 1 470 471
339 1 2 1 1 471 472
340 1 2 1 1 472 473
341 1 2 1 1 473 474
342 1 2 1 1 474 475
343 1 2 1 1 475 476
344 1 2 1 1 476 477
345 1 2 1 1 477 478
346 1 2 1 1 478 479
347 1 2 1 1 479 480
348 1 2 1 1 480 481
349 1 2 1 1 481 482
350 1 2 1 1 482 483
351 1 2 1 1 483 484
352 1 2 1 1 484 485
353 1 2 1 1 485 486
354 1 2 1 1 486 487
355 1 2 1 1 487 488
356 1 2 1 1 488 489
357 1 2 1 1 489 490
358 1 2 1 1 490 491
359 1 2 1 1 491 492
360 1 2 1 1 492 493
361 1 2 1 1 493 494
362 1 2 1 1 494 495
363 1 2 1 1 495 496
364 1 2 1 1 496 497
365 1 2 1 1 497 498
366 1 2 1 1 498 499
367 1 2 1 1 499 500
368 1 2 1 1 500 501
369 1 2 1 1 501 502
370 1 2 1 1 502 503
371 1 2 1 1 503 504
372 1 2 1 1 504 505
373 1 2 1 1 505 506
374 1 2 1 1 506 507
375 1 2 1 1 507 508
376 1 2 1 1 508 509
377 1 2 1 1 509 510
378 1 2 1 1 510 511
379 1 2 1 1 511 512
380 1 2 1 1 512 513
381 1 2 1 1 513 514
382 1 2 1 1 514 515
383 1 2 1 1 515 516
384 1 2 1 1 516 517
385 1 2 1 1 517 518
386 1 2 1 1 518 519
387 1 2 1 1 519 520
388 1 2 1 1 520 521
389 1 2 1 1 521 522
390 1 2 1 1 522 523
391 1 2 1 1 523 524
392 1 2 1 1 524 525
393 1 2 1 1 525 526
394 1 2 1 1 526 527
395 1 2 1 1 527 528
396 1 2 1 1 528 529
397 1 2 1 1 529 530
398 1 2 1 1 530 531
399 1 2 1 1 531 532
400 1 2 1 1 532 533
401 1 2 1 1 533 534
402 1 2 1 1 534 535
403 1 2 1 1 535 536
404 1 2 1 1 536 537
405 1 2 1 1 537 538
406 1 2 1 1 538 539
407 1 2 1 1 539 540
408 1 2 1 1 540 541
409 1 2 1 1 541 542
410 1 2 1 1 542 543
411 1 2 1 1 543 544
412 1 2 1 1 544 545
413 1 2 1 1 545 546
414 1 2 1 1 546 547
415 1 2 1 1 547 548
416 1 2 1 1 548 549
417 1 2 1 1 549 550
418 1 2 1 1 550 551
419 1 2 1 1 551 552
420 1 2 1 1 552 553
421 1 2 1 1 553 554
422 1 2 1 1 554 555
423 1 2 1 1 555 556
424 1 2 1 1 556 557
425 1 2 1 1 557 558
426 1 2 1 1 558 559
427 1 2 1 1 559 560
428 1 2 1 1 560 561
429 1 2 1 1 561 562
430 1 2 1 1 562 563
431 1 2 1 1 563 564
432 1 2 1 1 564 565
433 1 2 1 1 565 566
434 1 2 1 1 566 567
435 1 2 1 1 567 568
436 1 2 1 1 568 569
437 1 2 1 1 569 570
438 1 2 1 1 570 571
439 1 2 1 1 571 572
440 1 2 1 1 572 573
441 1 2 1 1 573 574
442 1 2 1 1 574 575
443 1 2 1 1 575 576
444 1 2 1 1 576 577
445 1 2 1 1 577 578
446 1 2 1 1 578 579
447 1 2 1 1 579 580
448 1 2 1 1 580 581
449 1 2 1 1 581 582
450 1 2 1 1 582 583
451 1 2 1 1 583 584
452 1 2 1 1 584 585
453 1 2 1 1 585 586
454 1 2 1 1 586 587
455 1 2 1 1 587 588
456 1 2 1 1 588 589
457 1 2 1 1 589 590
458 1 2 1 1 590 591
459 1 2 1 1 591 592
460 1 2 1 1 592 593
461 1 2 1 1 593 594
462 1 2 1 1 594 595
463 1 2 1 1 595 596
464 1 2 1 1 596 597
$EndElements
