$MeshFormat
4.1 0 8
$EndMeshFormat
$Entities
204 7 1 0
1 0 0 0 0 
2 1 0 0 0 
3 1 1 0 0 
4 0 1 0 0 
5 0.009180234420910038 0.4655869316309387 0 0 
6 0.01861055828352576 0.4770608344889447 0 0 
7 0.02688238047784774 0.4807476141407187 0 0 
8 0.03496638825321197 0.4831109295077248 0 0 
9 0.04295219136455242 0.4847658074284367 0 0 
10 0.0508737905939029 0.4859510256436253 0 0 
11 0.05874826109464154 0.4867894479010311 0 0 
12 0.06658552652098687 0.4873543804693617 0 0 
13 0.07439190596567641 0.4876938500789013 0 0 
14 0.08217168441573264 0.4878414396337022 0 0 
15 0.08992790434661863 0.4878217935774546 0 0 
16 0.09766280328911925 0.487653685421977 0 0 
17 0.1053780730784199 0.4873518498579147 0 0 
18 0.1130750220127508 0.4869281381024541 0 0 
19 0.1207546808036855 0.4863922790634393 0 0 
20 0.1284178743281071 0.4857523992125642 0 0 
21 0.1360652716995728 0.4850153885548691 0 0 
22 0.1436974221104051 0.4841871649717255 0 0 
23 0.1513147810543648 0.4832728694402812 0 0 
24 0.1589177298776964 0.4822770130172565 0 0 
25 0.1665065905983695 0.4812035894012519 0 0 
26 0.1740816373025078 0.4800561624420866 0 0 
27 0.1816431050211467 0.4788379350934527 0 0 
28 0.1891911967228807 0.4775518044035041 0 0 
29 0.196726088877655 0.4762004058511444 0 0 
30 0.20424793592305 0.4747861494477076 0 0 
31 0.2117568738777433 0.473311249399929 0 0 
32 0.2192530232852306 0.4717777486848105 0 0 
33 0.226736491626459 0.4701875395644493 0 0 
34 0.2342073753075425 0.4685423808320905 0 0 
35 0.2416657613046959 0.4668439124046669 0 0 
36 0.2491117285305263 0.4650936677447629 0 0 
37 0.2565453489722127 0.4632930844944153 0 0 
38 0.2639666886417016 0.46144351362603 0 0 
39 0.2713758083700386 0.4595462273559799 0 0 
40 0.2787727644717146 0.4576024260198184 0 0 
41 0.2861576093000314 0.4556132440713404 0 0 
42 0.2935303917106279 0.453579755338622 0 0 
43 0.3008911574472509 0.4515029776469274 0 0 
44 0.3082399494613927 0.4493838768996908 0 0 
45 0.3155535519365484 0.4472302059482891 0 0 
46 0.3228228188411618 0.4450534247794575 0 0 
47 0.3300837904800256 0.4428471608681218 0 0 
48 0.3373365877755564 0.4406121768018898 0 0 
49 0.3445813255766234 0.438349198213397 0 0 
50 0.3518181129772858 0.436058915822401 0 0 
51 0.3590470535967831 0.4337419872762794 0 0 
52 0.3662682458254572 0.431399038812925 0 0 
53 0.373481783040641 0.4290306667667362 0 0 
54 0.3806877537959936 0.4266374389356083 0 0 
55 0.3878862419872997 0.4242198958244701 0 0 
56 0.3950773269973582 0.4217785517788969 0 0 
57 0.4022610838222466 0.4193138960206201 0 0 
58 0.409437583180961 0.4168263935952742 0 0 
59 0.4166068916101835 0.4143164862414713 0 0 
60 0.4237690715457202 0.4117845931891915 0 0 
61 0.4309241813919637 0.4092311118945498 0 0 
62 0.4380722755805823 0.4066564187171735 0 0 
63 0.4452134046194936 0.4040608695457261 0 0 
64 0.4523476151330666 0.401444800376487 0 0 
65 0.4594749498943873 0.3988085278493653 0 0 
66 0.4665954478503344 0.3961523497452482 0 0 
67 0.4737091441401292 0.3934765454481736 0 0 
68 0.4808160701079573 0.3907813763754521 0 0 
69 0.4879162533101925 0.3880670863785393 0 0 
70 0.495009717517704 0.3853339021171814 0 0 
71 0.502096482713676 0.3825820334090996 0 0 
72 0.509176565087328 0.3798116735572614 0 0 
73 0.5162499770238861 0.3770229996565874 0 0 
74 0.5233167270911199 0.3742161728817638 0 0 
75 0.5303768200227341 0.3713913387576783 0 0 
76 0.53743025669887 0.3685486274138527 0 0 
77 0.5444770341239575 0.3656881538241232 0 0 
78 0.5515171454021272 0.3628100180327044 0 0 
79 0.5585505797103791 0.3599143053676745 0 0 
80 0.5655773222696883 0.3570010866428253 0 0 
81 0.5725973543142047 0.3540704183487433 0 0 
82 0.5796106530586992 0.3511223428339093 0 0 
83 0.5866171916643907 0.3481568884765432 0 0 
84 0.5936169392032778 0.3451740698478539 0 0 
85 0.6006098606210897 0.3421738878673061 0 0 
86 0.6075959166989611 0.3391563299504632 0 0 
87 0.6145750640139284 0.336121370149919 0 0 
88 0.621547254898333 0.3330689692897957 0 0 
89 0.6285124373982178 0.3299990750942416 0 0 
90 0.6354705552307878 0.3269116223103353 0 0 
91 0.6424215477410085 0.3238065328257656 0 0 
92 0.6493653498574032 0.3206837157816339 0 0 
93 0.656301892047112 0.3175430676806967 0 0 
94 0.6632311002702648 0.3143844724913426 0 0 
95 0.6701528959337206 0.3112078017475798 0 0 
96 0.6770671958442238 0.3080129146452842 0 0 
97 0.6839739121610149 0.3047996581349479 0 0 
98 0.6908729523479438 0.3015678670111441 0 0 
99 0.6977642191251202 0.2983173639989126 0 0 
100 0.7046476104201362 0.2950479598372577 0 0 
101 0.7115230193188988 0.2917594533599319 0 0 
102 0.7183903340160969 0.2884516315736714 0 0 
103 0.7252494377653371 0.285124269734039 0 0 
104 0.7315146561560624 0.2799911054988076 0 0 
105 0.009180234420910038 0.4655869316309387 0 0 
106 0.0147168654828625 0.4518230792488269 0 0 
107 0.02140257556168668 0.4458094851000834 0 0 
108 0.02826667740804673 0.4410824902632443 0 0 
109 0.03521956126700859 0.4370270678998359 0 0 
110 0.04222722635653869 0.4334044402690871 0 0 
111 0.04927259752325847 0.4300917436232576 0 0 
112 0.05634575111294993 0.4270156716936396 0 0 
113 0.06344036803287523 0.4241281977499494 0 0 
114 0.07055216329601177 0.421395738888134 0 0 
115 0.07767809442689683 0.4187936506645037 0 0 
116 0.08481592389474535 0.4163031595672398 0 0 
117 0.09196395986437184 0.4139095309056969 0 0 
118 0.09912089403754631 0.411600913462689 0 0 
119 0.106285695702695 0.4093675783303715 0 0 
120 0.1134575399829348 0.4072013990370508 0 0 
121 0.1206357577647089 0.4050954855776865 0 0 
122 0.1278197998556942 0.4030439200709072 0 0 
123 0.1350092107621303 0.4010415615395651 0 0 
124 0.1422036091377727 0.3990838989269397 0 0 
125 0.1494026729646516 0.3971669385344307 0 0 
126 0.1566061281566434 0.3952871165122188 0 0 
127 0.1638137396827127 0.393441229906612 0 0 
128 0.171025304574265 0.3916263816694562 0 0 
129 0.1782406463613552 0.3898399363218482 0 0 
130 0.1854596106064027 0.3880794838524534 0 0 
131 0.1926820612907301 0.3863428100545371 0 0 
132 0.1999078778708415 0.384627871951097 0 0 
133 0.20713695286579 0.3829327772800361 0 0 
134 0.2143691898694614 0.3812557672481091 0 0 
135 0.2216045019056411 0.3795952019383835 0 0 
136 0.2288428100617218 0.3779495478882747 0 0 
137 0.2360840423505247 0.3763173674557459 0 0 
138 0.2433281327601032 0.3746973096683913 0 0 
139 0.2505750204594117 0.3730881023098378 0 0 
140 0.2578246491339592 0.3714885450445323 0 0 
141 0.2650769664304441 0.3698975034186796 0 0 
142 0.2723319234932272 0.3683139036042037 0 0 
143 0.2795894745785621 0.3667367277758404 0 0 
144 0.2868495767349564 0.3651650100301557 0 0 
145 0.2941358645634224 0.3635926359590109 0 0 
146 0.3014613578522122 0.3620233011756258 0 0 
147 0.3087909585616749 0.3604670647023611 0 0 
148 0.3161245457693946 0.3589231639516087 0 0 
149 0.3234620046265016 0.3573908732907335 0 0 
150 0.3308032260389366 0.3558695019999774 0 0 
151 0.3381481063874605 0.3543583924319633 0 0 
152 0.3454965472817312 0.3528569183487983 0 0 
153 0.3528484553444157 0.3513644834160837 0 0 
154 0.360203742021855 0.3498805198359243 0 0 
155 0.3675623234182646 0.3484044871033917 0 0 
156 0.3749241201508453 0.3469358708729099 0 0 
157 0.3822890572235195 0.3454741819227484 0 0 
158 0.3896570639172914 0.3440189552072718 0 0 
159 0.3970280736954788 0.3425697489878686 0 0 
160 0.4044020241222757 0.3411261440345582 0 0 
161 0.4117788567932894 0.3396877428912263 0 0 
162 0.4191585172768515 0.3382541691982449 0 0 
163 0.4265409550650445 0.336825067066951 0 0 
164 0.4339261235334996 0.3354001005010648 0 0 
165 0.4413139799091303 0.3339789528606774 0 0 
166 0.4487044852450585 0.3325613263649017 0 0 
167 0.4560976044020624 0.3311469416296997 0 0 
168 0.4634933060359567 0.3297355372377608 0 0 
169 0.4708915625903675 0.3283268693376292 0 0 
170 0.4782923502944255 0.3269207112695591 0 0 
171 0.4856956491649468 0.325516853215829 0 0 
172 0.4931014430127114 0.3241151018734715 0 0 
173 0.5005097194524938 0.3227152801475661 0 0 
174 0.5079204699165238 0.3213172268634263 0 0 
175 0.5153336896710974 0.3199207964961647 0 0 
176 0.5227493778360726 0.3185258589162595 0 0 
177 0.5301675374070196 0.3171322991498743 0 0 
178 0.5375881752798086 0.3157400171527945 0 0 
179 0.5450113022774385 0.3143489275969421 0 0 
180 0.5524369331789349 0.3129589596685252 0 0 
181 0.5598650867501478 0.3115700568769573 0 0 
182 0.5672957857763059 0.3101821768737575 0 0 
183 0.5747290570961907 0.308795291280706 0 0 
184 0.5821649316378036 0.307409385526594 0 0 
185 0.5896034444554155 0.3060244586919566 0 0 
186 0.5970446347678912 0.3046405233612305 0 0 
187 0.6044885459981949 0.3032576054818219 0 0 
188 0.6119352258139844 0.3018757442296087 0 0 
189 0.6193847261692177 0.3004949918804423 0 0 
190 0.6268371033466893 0.2991154136872445 0 0 
191 0.6342924180014338 0.2977370877623262 0 0 
192 0.6417507352049279 0.296360104964586 0 0 
193 0.6492121244900313 0.2949845687912676 0 0 
194 0.6566766598966146 0.2936105952739823 0 0 
195 0.6641444200178184 0.2922383128787219 0 0 
196 0.6716154880468983 0.2908678624096104 0 0 
197 0.6790899518246141 0.2894993969161558 0 0 
198 0.6865679038871155 0.2881330816037851 0 0 
199 0.6940494415142933 0.286769093747458 0 0 
200 0.7015346667785545 0.2854076226081707 0 0 
201 0.7090236865939932 0.2840488693521704 0 0 
202 0.7165166127659202 0.2826930469727211 0 0 
203 0.7240135620407282 0.2813403802142598 0 0 
204 0.7315146561560624 0.2799911054988076 0 0 
1 -9.999999994736442e-08 -1e-07 -1e-07 1.0000001 1e-07 1e-07 0 2 1 -2 
2 0.9999999000000001 -9.999999994736442e-08 -1e-07 1.0000001 1.0000001 1e-07 0 2 2 -3 
3 -9.999999994736442e-08 0.9999999000000001 -1e-07 1.0000001 1.0000001 1e-07 0 2 3 -4 
4 -1e-07 -9.999999994736442e-08 -1e-07 1e-07 1.0000001 1e-07 0 2 4 -1 
5 0.009180134420910036 0.2799910054988076 -1e-07 0.7315147561560623 0.4878691792669609 1e-07 0 2 5 -104 
6 0.009180134420910036 0.2799910054988076 -1e-07 0.7315147561560623 0.4655870316309387 1e-07 0 2 105 -204 
7 0.009180134420910036 0.2799910054988076 -1e-07 0.7315147561560623 0.4655870316309387 1e-07 0 2 5 -104 
1 -9.999999994736442e-08 -9.999999994736442e-08 -1e-07 1.0000001 1.0000001 1e-07 0 6 1 2 3 4 7 -5 
$EndEntities
$Nodes
212 643 1 643
0 1 0 1
1
0 0 0
0 2 0 1
2
1 0 0
0 3 0 1
3
1 1 0
0 4 0 1
4
0 1 0
0 5 0 1
5
0.009180234420910038 0.4655869316309387 0
0 6 0 1
6
0.01861055828352576 0.4770608344889447 0
0 7 0 1
7
0.02688238047784774 0.4807476141407187 0
0 8 0 1
8
0.03496638825321197 0.4831109295077248 0
0 9 0 1
9
0.04295219136455242 0.4847658074284367 0
0 10 0 1
10
0.0508737905939029 0.4859510256436253 0
0 11 0 1
11
0.05874826109464154 0.4867894479010311 0
0 12 0 1
12
0.06658552652098687 0.4873543804693617 0
0 13 0 1
13
0.07439190596567641 0.4876938500789013 0
0 14 0 1
14
0.08217168441573264 0.4878414396337022 0
0 15 0 1
15
0.08992790434661863 0.4878217935774546 0
0 16 0 1
16
0.09766280328911925 0.487653685421977 0
0 17 0 1
17
0.1053780730784199 0.4873518498579147 0
0 18 0 1
18
0.1130750220127508 0.4869281381024541 0
0 19 0 1
19
0.1207546808036855 0.4863922790634393 0
0 20 0 1
20
0.1284178743281071 0.4857523992125642 0
0 21 0 1
21
0.1360652716995728 0.4850153885548691 0
0 22 0 1
22
0.1436974221104051 0.4841871649717255 0
0 23 0 1
23
0.1513147810543648 0.4832728694402812 0
0 24 0 1
24
0.1589177298776964 0.4822770130172565 0
0 25 0 1
25
0.1665065905983695 0.4812035894012519 0
0 26 0 1
26
0.1740816373025078 0.4800561624420866 0
0 27 0 1
27
0.1816431050211467 0.4788379350934527 0
0 28 0 1
28
0.1891911967228807 0.4775518044035041 0
0 29 0 1
29
0.196726088877655 0.4762004058511444 0
0 30 0 1
30
0.20424793592305 0.4747861494477076 0
0 31 0 1
31
0.2117568738777433 0.473311249399929 0
0 32 0 1
32
0.2192530232852306 0.4717777486848105 0
0 33 0 1
33
0.226736491626459 0.4701875395644493 0
0 34 0 1
34
0.2342073753075425 0.4685423808320905 0
0 35 0 1
35
0.2416657613046959 0.4668439124046669 0
0 36 0 1
36
0.2491117285305263 0.4650936677447629 0
0 37 0 1
37
0.2565453489722127 0.4632930844944153 0
0 38 0 1
38
0.2639666886417016 0.46144351362603 0
0 39 0 1
39
0.2713758083700386 0.4595462273559799 0
0 40 0 1
40
0.2787727644717146 0.4576024260198184 0
0 41 0 1
41
0.2861576093000314 0.4556132440713404 0
0 42 0 1
42
0.2935303917106279 0.453579755338622 0
0 43 0 1
43
0.3008911574472509 0.4515029776469274 0
0 44 0 1
44
0.3082399494613927 0.4493838768996908 0
0 45 0 1
45
0.3155535519365484 0.4472302059482891 0
0 46 0 1
46
0.3228228188411618 0.4450534247794575 0
0 47 0 1
47
0.3300837904800256 0.4428471608681218 0
0 48 0 1
48
0.3373365877755564 0.4406121768018898 0
0 49 0 1
49
0.3445813255766234 0.438349198213397 0
0 50 0 1
50
0.3518181129772858 0.436058915822401 0
0 51 0 1
51
0.3590470535967831 0.4337419872762794 0
0 52 0 1
52
0.3662682458254572 0.431399038812925 0
0 53 0 1
53
0.373481783040641 0.4290306667667362 0
0 54 0 1
54
0.3806877537959936 0.4266374389356083 0
0 55 0 1
55
0.3878862419872997 0.4242198958244701 0
0 56 0 1
56
0.3950773269973582 0.4217785517788969 0
0 57 0 1
57
0.4022610838222466 0.4193138960206201 0
0 58 0 1
58
0.409437583180961 0.4168263935952742 0
0 59 0 1
59
0.4166068916101835 0.4143164862414713 0
0 60 0 1
60
0.4237690715457202 0.4117845931891915 0
0 61 0 1
61
0.4309241813919637 0.4092311118945498 0
0 62 0 1
62
0.4380722755805823 0.4066564187171735 0
0 63 0 1
63
0.4452134046194936 0.4040608695457261 0
0 64 0 1
64
0.4523476151330666 0.401444800376487 0
0 65 0 1
65
0.4594749498943873 0.3988085278493653 0
0 66 0 1
66
0.4665954478503344 0.3961523497452482 0
0 67 0 1
67
0.4737091441401292 0.3934765454481736 0
0 68 0 1
68
0.4808160701079573 0.3907813763754521 0
0 69 0 1
69
0.4879162533101925 0.3880670863785393 0
0 70 0 1
70
0.495009717517704 0.3853339021171814 0
0 71 0 1
71
0.502096482713676 0.3825820334090996 0
0 72 0 1
72
0.509176565087328 0.3798116735572614 0
0 73 0 1
73
0.5162499770238861 0.3770229996565874 0
0 74 0 1
74
0.5233167270911199 0.3742161728817638 0
0 75 0 1
75
0.5303768200227341 0.3713913387576783 0
0 76 0 1
76
0.53743025669887 0.3685486274138527 0
0 77 0 1
77
0.5444770341239575 0.3656881538241232 0
0 78 0 1
78
0.5515171454021272 0.3628100180327044 0
0 79 0 1
79
0.5585505797103791 0.3599143053676745 0
0 80 0 1
80
0.5655773222696883 0.3570010866428253 0
0 81 0 1
81
0.5725973543142047 0.3540704183487433 0
0 82 0 1
82
0.5796106530586992 0.3511223428339093 0
0 83 0 1
83
0.5866171916643907 0.3481568884765432 0
0 84 0 1
84
0.5936169392032778 0.3451740698478539 0
0 85 0 1
85
0.6006098606210897 0.3421738878673061 0
0 86 0 1
86
0.6075959166989611 0.3391563299504632 0
0 87 0 1
87
0.6145750640139284 0.336121370149919 0
0 88 0 1
88
0.621547254898333 0.3330689692897957 0
0 89 0 1
89
0.6285124373982178 0.3299990750942416 0
0 90 0 1
90
0.6354705552307878 0.3269116223103353 0
0 91 0 1
91
0.6424215477410085 0.3238065328257656 0
0 92 0 1
92
0.6493653498574032 0.3206837157816339 0
0 93 0 1
93
0.656301892047112 0.3175430676806967 0
0 94 0 1
94
0.6632311002702648 0.3143844724913426 0
0 95 0 1
95
0.6701528959337206 0.3112078017475798 0
0 96 0 1
96
0.6770671958442238 0.3080129146452842 0
0 97 0 1
97
0.6839739121610149 0.3047996581349479 0
0 98 0 1
98
0.6908729523479438 0.3015678670111441 0
0 99 0 1
99
0.6977642191251202 0.2983173639989126 0
0 100 0 1
100
0.7046476104201362 0.2950479598372577 0
0 101 0 1
101
0.7115230193188988 0.2917594533599319 0
0 102 0 1
102
0.7183903340160969 0.2884516315736714 0
0 103 0 1
103
0.7252494377653371 0.285124269734039 0
0 104 0 1
104
0.7315146561560624 0.2799911054988076 0
0 105 0 1
105
0.009180234420910038 0.4655869316309387 0
0 106 0 1
106
0.0147168654828625 0.4518230792488269 0
0 107 0 1
107
0.02140257556168668 0.4458094851000834 0
0 108 0 1
108
0.02826667740804673 0.4410824902632443 0
0 109 0 1
109
0.03521956126700859 0.4370270678998359 0
0 110 0 1
110
0.04222722635653869 0.4334044402690871 0
0 111 0 1
111
0.04927259752325847 0.4300917436232576 0
0 112 0 1
112
0.05634575111294993 0.4270156716936396 0
0 113 0 1
113
0.06344036803287523 0.4241281977499494 0
0 114 0 1
114
0.07055216329601177 0.421395738888134 0
0 115 0 1
115
0.07767809442689683 0.4187936506645037 0
0 116 0 1
116
0.08481592389474535 0.4163031595672398 0
0 117 0 1
117
0.09196395986437184 0.4139095309056969 0
0 118 0 1
118
0.09912089403754631 0.411600913462689 0
0 119 0 1
119
0.106285695702695 0.4093675783303715 0
0 120 0 1
120
0.1134575399829348 0.4072013990370508 0
0 121 0 1
121
0.1206357577647089 0.4050954855776865 0
0 122 0 1
122
0.1278197998556942 0.4030439200709072 0
0 123 0 1
123
0.1350092107621303 0.4010415615395651 0
0 124 0 1
124
0.1422036091377727 0.3990838989269397 0
0 125 0 1
125
0.1494026729646516 0.3971669385344307 0
0 126 0 1
126
0.1566061281566434 0.3952871165122188 0
0 127 0 1
127
0.1638137396827127 0.393441229906612 0
0 128 0 1
128
0.171025304574265 0.3916263816694562 0
0 129 0 1
129
0.1782406463613552 0.3898399363218482 0
0 130 0 1
130
0.1854596106064027 0.3880794838524534 0
0 131 0 1
131
0.1926820612907301 0.3863428100545371 0
0 132 0 1
132
0.1999078778708415 0.384627871951097 0
0 133 0 1
133
0.20713695286579 0.3829327772800361 0
0 134 0 1
134
0.2143691898694614 0.3812557672481091 0
0 135 0 1
135
0.2216045019056411 0.3795952019383835 0
0 136 0 1
136
0.2288428100617218 0.3779495478882747 0
0 137 0 1
137
0.2360840423505247 0.3763173674557459 0
0 138 0 1
138
0.2433281327601032 0.3746973096683913 0
0 139 0 1
139
0.2505750204594117 0.3730881023098378 0
0 140 0 1
140
0.2578246491339592 0.3714885450445323 0
0 141 0 1
141
0.2650769664304441 0.3698975034186796 0
0 142 0 1
142
0.2723319234932272 0.3683139036042037 0
0 143 0 1
143
0.2795894745785621 0.3667367277758404 0
0 144 0 1
144
0.2868495767349564 0.3651650100301557 0
0 145 0 1
145
0.2941358645634224 0.3635926359590109 0
0 146 0 1
146
0.3014613578522122 0.3620233011756258 0
0 147 0 1
147
0.3087909585616749 0.3604670647023611 0
0 148 0 1
148
0.3161245457693946 0.3589231639516087 0
0 149 0 1
149
0.3234620046265016 0.3573908732907335 0
0 150 0 1
150
0.3308032260389366 0.3558695019999774 0
0 151 0 1
151
0.3381481063874605 0.3543583924319633 0
0 152 0 1
152
0.3454965472817312 0.3528569183487983 0
0 153 0 1
153
0.3528484553444157 0.3513644834160837 0
0 154 0 1
154
0.360203742021855 0.3498805198359243 0
0 155 0 1
155
0.3675623234182646 0.3484044871033917 0
0 156 0 1
156
0.3749241201508453 0.3469358708729099 0
0 157 0 1
157
0.3822890572235195 0.3454741819227484 0
0 158 0 1
158
0.3896570639172914 0.3440189552072718 0
0 159 0 1
159
0.3970280736954788 0.3425697489878686 0
0 160 0 1
160
0.4044020241222757 0.3411261440345582 0
0 161 0 1
161
0.4117788567932894 0.3396877428912263 0
0 162 0 1
162
0.4191585172768515 0.3382541691982449 0
0 163 0 1
163
0.4265409550650445 0.336825067066951 0
0 164 0 1
164
0.4339261235334996 0.3354001005010648 0
0 165 0 1
165
0.4413139799091303 0.3339789528606774 0
0 166 0 1
166
0.4487044852450585 0.3325613263649017 0
0 167 0 1
167
0.4560976044020624 0.3311469416296997 0
0 168 0 1
168
0.4634933060359567 0.3297355372377608 0
0 169 0 1
169
0.4708915625903675 0.3283268693376292 0
0 170 0 1
170
0.4782923502944255 0.3269207112695591 0
0 171 0 1
171
0.4856956491649468 0.325516853215829 0
0 172 0 1
172
0.4931014430127114 0.3241151018734715 0
0 173 0 1
173
0.5005097194524938 0.3227152801475661 0
0 174 0 1
174
0.5079204699165238 0.3213172268634263 0
0 175 0 1
175
0.5153336896710974 0.3199207964961647 0
0 176 0 1
176
0.5227493778360726 0.3185258589162595 0
0 177 0 1
177
0.5301675374070196 0.3171322991498743 0
0 178 0 1
178
0.5375881752798086 0.3157400171527945 0
0 179 0 1
179
0.5450113022774385 0.3143489275969421 0
0 180 0 1
180
0.5524369331789349 0.3129589596685252 0
0 181 0 1
181
0.5598650867501478 0.3115700568769573 0
0 182 0 1
182
0.5672957857763059 0.3101821768737575 0
0 183 0 1
183
0.5747290570961907 0.308795291280706 0
0 184 0 1
184
0.5821649316378036 0.307409385526594 0
0 185 0 1
185
0.5896034444554155 0.3060244586919566 0
0 186 0 1
186
0.5970446347678912 0.3046405233612305 0
0 187 0 1
187
0.6044885459981949 0.3032576054818219 0
0 188 0 1
188
0.6119352258139844 0.3018757442296087 0
0 189 0 1
189
0.6193847261692177 0.3004949918804423 0
0 190 0 1
190
0.6268371033466893 0.2991154136872445 0
0 191 0 1
191
0.6342924180014338 0.2977370877623262 0
0 192 0 1
192
0.6417507352049279 0.296360104964586 0
0 193 0 1
193
0.6492121244900313 0.2949845687912676 0
0 194 0 1
194
0.6566766598966146 0.2936105952739823 0
0 195 0 1
195
0.6641444200178184 0.2922383128787219 0
0 196 0 1
196
0.6716154880468983 0.2908678624096104 0
0 197 0 1
197
0.6790899518246141 0.2894993969161558 0
0 198 0 1
198
0.6865679038871155 0.2881330816037851 0
0 199 0 1
199
0.6940494415142933 0.286769093747458 0
0 200 0 1
200
0.7015346667785545 0.2854076226081707 0
0 201 0 1
201
0.7090236865939932 0.2840488693521704 0
0 202 0 1
202
0.7165166127659202 0.2826930469727211 0
0 203 0 1
203
0.7240135620407282 0.2813403802142598 0
0 204 0 1
204
0.7315146561560624 0.2799911054988076 0
1 1 0 17
205
206
207
208
209
210
211
212
213
214
215
216
217
218
219
220
221
0.05555555555555542 0 0
0.1111111111111109 0 0
0.1666666666666662 0 0
0.2222222222222216 0 0
0.2777777777777769 0 0
0.3333333333333323 0 0
0.3888888888888876 0 0
0.444444444444443 0 0
0.4999999999999987 0 0
0.5555555555555544 0 0
0.6111111111111101 0 0
0.6666666666666659 0 0
0.7222222222222214 0 0
0.7777777777777771 0 0
0.8333333333333329 0 0
0.8888888888888886 0 0
0.9444444444444443 0 0
1 2 0 17
222
223
224
225
226
227
228
229
230
231
232
233
234
235
236
237
238
1 0.05555555555555542 0
1 0.1111111111111109 0
1 0.1666666666666662 0
1 0.2222222222222216 0
1 0.2777777777777769 0
1 0.3333333333333323 0
1 0.3888888888888876 0
1 0.444444444444443 0
1 0.4999999999999987 0
1 0.5555555555555544 0
1 0.6111111111111101 0
1 0.6666666666666659 0
1 0.7222222222222214 0
1 0.7777777777777771 0
1 0.8333333333333329 0
1 0.8888888888888886 0
1 0.9444444444444443 0
1 3 0 17
239
240
241
242
243
244
245
246
247
248
249
250
251
252
253
254
255
0.9444444444444445 1 0
0.8888888888888892 1 0
0.8333333333333338 1 0
0.7777777777777785 1 0
0.7222222222222231 1 0
0.6666666666666677 1 0
0.6111111111111124 1 0
0.555555555555557 1 0
0.5000000000000013 1 0
0.4444444444444456 1 0
0.3888888888888899 1 0
0.3333333333333341 1 0
0.2777777777777786 1 0
0.2222222222222229 1 0
0.1666666666666671 1 0
0.1111111111111114 1 0
0.05555555555555569 1 0
1 4 0 17
256
257
258
259
260
261
262
263
264
265
266
267
268
269
270
271
272
0 0.9444444444444445 0
0 0.8888888888888892 0
0 0.8333333333333338 0
0 0.7777777777777785 0
0 0.7222222222222231 0
0 0.6666666666666677 0
0 0.6111111111111124 0
0 0.555555555555557 0
0 0.5000000000000013 0
0 0.4444444444444456 0
0 0.3888888888888899 0
0 0.3333333333333341 0
0 0.2777777777777786 0
0 0.2222222222222229 0
0 0.1666666666666671 0
0 0.1111111111111114 0
0 0.05555555555555569 0
1 5 0 13
273
274
275
276
277
278
279
280
281
282
283
284
285
0.05677810470512178 0.4866073605168762 0
0.1115159070914061 0.4870233997058034 0
0.1659903559674515 0.481279057679214 0
0.2199197740787691 0.4716384484103567 0
0.2732437371332914 0.4590600095258053 0
0.3259527898512657 0.4441062281896501 0
0.3781605790064057 0.4274798379593768 0
0.4299465129096733 0.4095814255179094 0
0.4813390454676363 0.3905821879804208 0
0.5323559277274772 0.3705957783464245 0
0.5830027505144052 0.3496891951390832 0
0.6332716500411264 0.3278895624578657 0
0.6831400352590382 0.3051887981397239 0
1 6 0 13
286
287
288
289
290
291
292
293
294
295
296
297
298
0.04721859514017841 0.4310288509314883 0
0.09771122791926448 0.4120491856110795 0
0.1495746813646965 0.3971216183884386 0
0.2019643810932551 0.3841436393676106 0
0.2546004321882683 0.3721987450204464 0
0.3073516111211091 0.3607715967199063 0
0.3602154778739097 0.3498781590840713 0
0.413166865298051 0.3394177089348739 0
0.4661705808244615 0.3292254100105371 0
0.5192047007118401 0.3191923983809951 0
0.5722570782527815 0.3092563455768637 0
0.6253234811816575 0.299395471980885 0
0.6784064907075561 0.2896244157138553 0
1 7 0 13
299
300
301
302
303
304
305
306
307
308
309
310
311
0.04721859514017841 0.4310288509314883 0
0.09771122791926448 0.4120491856110795 0
0.1495746813646965 0.3971216183884386 0
0.2019643810932551 0.3841436393676106 0
0.2546004321882683 0.3721987450204464 0
0.3073516111211091 0.3607715967199063 0
0.3602154778739097 0.3498781590840713 0
0.413166865298051 0.3394177089348739 0
0.4661705808244615 0.3292254100105371 0
0.5192047007118401 0.3191923983809951 0
0.5722570782527815 0.3092563455768637 0
0.6253234811816575 0.299395471980885 0
0.6784064907075561 0.2896244157138553 0
2 1 0 332
312
313
314
315
316
317
318
319
320
321
322
323
324
325
326
327
328
329
330
331
332
333
334
335
336
337
338
339
340
341
342
343
344
345
346
347
348
349
350
351
352
353
354
355
356
357
358
359
360
361
362
363
364
365
366
367
368
369
370
371
372
373
374
375
376
377
378
379
380
381
382
383
384
385
386
387
388
389
390
391
392
393
394
395
396
397
398
399
400
401
402
403
404
405
406
407
408
409
410
411
412
413
414
415
416
417
418
419
420
421
422
423
424
425
426
427
428
429
430
431
432
433
434
435
436
437
438
439
440
441
442
443
444
445
446
447
448
449
450
451
452
453
454
455
456
457
458
459
460
461
462
463
464
465
466
467
468
469
470
471
472
473
474
475
476
477
478
479
480
481
482
483
484
485
486
487
488
489
490
491
492
493
494
495
496
497
498
499
500
501
502
503
504
505
506
507
508
509
510
511
512
513
514
515
516
517
518
519
520
521
522
523
524
525
526
527
528
529
530
531
532
533
534
535
536
537
538
539
540
541
542
543
544
545
546
547
548
549
550
551
552
553
554
555
556
557
558
559
560
561
562
563
564
565
566
567
568
569
570
571
572
573
574
575
576
577
578
579
580
581
582
583
584
585
586
587
588
589
590
591
592
593
594
595
596
597
598
599
600
601
602
603
604
605
606
607
608
609
610
611
612
613
614
615
616
617
618
619
620
621
622
623
624
625
626
627
628
629
630
631
632
633
634
635
636
637
638
639
640
641
642
643
0.6379541423688428 0.9534494683024347 0
0.5788940228869028 0.4052894368431402 0
0.4721843645458897 0.9542308538370843 0
0.9531972891707718 0.6409625456229433 0
0.4224114200774741 0.4606195931104712 0
0.2559912780748999 0.5121501017850917 0
0.3055231966539925 0.9518931564788944 0
0.04696628067102937 0.7470466581996765 0
0.7284972119728321 0.3344578331072424 0
0.951887477567531 0.805555555555555 0
0.1944446328823173 0.04779528912233955 0
0.3800116565359696 0.2975346220509447 0
0.9519995739247844 0.4717173719178505 0
0.2108663714460619 0.3383756918627293 0
0.4722222222222209 0.04811252243246877 0
0.1453315669579702 0.53199260119389 0
0.04501525959515756 0.1944168578468819 0
0.647173150666652 0.2489597496949132 0
0.8014751911707101 0.9469652186093067 0
0.8070381586749878 0.04463909319034243 0
0.9537910427135076 0.1977281697755475 0
0.3611533280482076 0.04641414094979779 0
0.1944555719882893 0.9519013268496087 0
0.4841952281812976 0.279900890741199 0
0.7772630359371356 0.3093040699658802 0
0.7748508726027641 0.363855263997417 0
0.5818671504763462 0.047277066285634 0
0.6949130893775797 0.03828750961368016 0
0.7797452719270139 0.2550689881232293 0
0.7255230967047709 0.3890812486779982 0
0.7723299575657687 0.4186041005377957 0
0.7232493232590966 0.4438412806829672 0
0.7698568929306475 0.4734707408221384 0
0.7208381586861727 0.4987230881531149 0
0.7673618863287257 0.5284405571003381 0
0.7182792643638441 0.5537276020938796 0
0.7648327529671799 0.5834945418797168 0
0.7158460028441223 0.6087970692970222 0
0.6691190970424993 0.5790497831371957 0
0.6668458931636375 0.6340963436507985 0
0.7132957538744962 0.6639074287237693 0
0.6642571323118476 0.6892123885221477 0
0.6177971233807252 0.6594040775322039 0
0.615192531775838 0.7145213457984874 0
0.568736579496159 0.6846914470021956 0
0.7107190409015 0.7190693935727825 0
0.566124047950141 0.7398331403850418 0
0.5196563209372437 0.7099932319491876 0
0.5713864137156717 0.629546784306916 0
0.7598045395711464 0.6937095498823936 0
0.7572306629439156 0.7489347124616116 0
0.5170419623012015 0.7651444054704999 0
0.4705845703783457 0.7352832854706269 0
0.4731600257051275 0.6801407893900597 0
0.4241370151768951 0.7054249668066908 0
0.4201662448068491 0.76262739550383 0
0.3748427344534401 0.7310390654655113 0
0.3776775080079962 0.6756276597647028 0
0.3285953409554022 0.7008913171230873 0
0.3259157616575307 0.7560571900323845 0
0.2794882440332602 0.7260985071177943 0
0.7080731489209793 0.7742766214911185 0
0.2768033856210591 0.7812986146185099 0
0.0498218642964624 0.865951756483766 0
0.2313538092154906 0.7497287969902684 0
0.2331922968212336 0.695862242487719 0
0.8226019468652381 0.3385636920007383 0
0.806379979780836 0.7235730064931445 0
0.8038052510163967 0.7788536347547372 0
0.04660564707042192 0.6387182627306403 0
0.5635272986079081 0.7950267789652684 0
0.8138467532498384 0.5581620659470641 0
0.03947912046299934 0.2958222674389244 0
0.320746430650824 0.8127313969954558 0
0.3313186042603753 0.6457396940153438 0
0.3803307429049743 0.6205119414220028 0
0.2251474722180875 0.8080552557477456 0
0.1850739463364847 0.7194551804790106 0
0.187775265691723 0.6677486948490395 0
0.5143896366813371 0.8203720317787129 0
0.734727605564374 0.2246695863315125 0
0.7823777352107149 0.2005847459292036 0
0.8181934963580373 0.4481361269726544 0
0.9529236103968753 0.3072629839796572 0
0.8281427746064016 0.2300960365391858 0
0.830697538513283 0.1755765852938358 0
0.7365160622597187 0.171235253210294 0
0.5609271818403998 0.8502813371254128 0
0.6743196596375789 0.469045502499102 0
0.04704336253265173 0.08357087178836858 0
0.9528809923380301 0.9168337044437674 0
0.9154327594222674 0.0437104127063847 0
0.2364202112646056 0.642242663554259 0
0.8113282894696117 0.6132572676160175 0
0.6099682887379938 0.8248943617439993 0
0.8530061748867444 0.7534349705906708 0
0.8504260666329105 0.8087911519090654 0
0.8011780343866987 0.8342066209822431 0
0.8555050106109972 0.6981717479347822 0
0.3345505004337388 0.5907167669888927 0
0.8470176129654726 0.8626129182523752 0
0.3839111565345873 0.5671764571489583 0
0.4294257161849872 0.5955427441616225 0
0.8598558240141294 0.5878682583889916 0
0.8604753910580423 0.5312067303506132 0
0.138363910310124 0.6914270637923895 0
0.1445473869902125 0.6313635489407644 0
0.08357712329829586 0.952958736660302 0
0.1391987255782581 0.7536404447148193 0
0.9024954220499007 0.7273059694681002 0
0.9062048107884544 0.5575742967730892 0
0.3465179113992345 0.5355132351044276 0
0.1113873402415168 0.368149055748371 0
0.5072077888979002 0.8739391913829208 0
0.4602385686924655 0.8479046157255432 0
0.5577278391457644 0.9061311465192421 0
0.4324491379557267 0.5414095985524686 0
0.4782600211300799 0.5702603449724164 0
0.4820641243313004 0.5176464749016575 0
0.5272423056474466 0.5452903966004439 0
0.5287021546059448 0.4887257678670595 0
0.5757496586219828 0.5195142990652305 0
0.8755455432690415 0.2050834645278208 0
0.8767846105357724 0.1502207358276557 0
0.8701270985956302 0.2592999095966211 0
0.8323202582430893 0.1235868341022974 0
0.6819173241019794 0.2009342151177096 0
0.6900370250890906 0.1440857722779075 0
0.641905458208238 0.1674119397934232 0
0.7405775928985062 0.1167235860238056 0
0.6442335786223206 0.1127484509198691 0
0.5961093146906127 0.1378680372013317 0
0.5921153006306554 0.1922204236299735 0
0.5480940798203937 0.1611844765160406 0
0.5449265585085548 0.2180558678634138 0
0.4997811696313208 0.1870806381749305 0
0.5010326925370669 0.1341886592965023 0
0.4527410447915325 0.1592902645796074 0
0.452050284533037 0.2100953844297203 0
0.4044439350135143 0.1843113546953637 0
0.4040800979269892 0.1347245914187316 0
0.3576746586882134 0.1605695641084138 0
0.3552015727442341 0.2101448318313692 0
0.3085138645428999 0.183464622588908 0
0.3053350503815723 0.2329189867792142 0
0.2607276737146313 0.2068948920107611 0
0.2570369534563232 0.1472847013355939 0
0.2146534022576604 0.177965013476732 0
0.2122040520530152 0.2319506520484758 0
0.1685947956447562 0.2041861706951625 0
0.1641397078824449 0.2576933199988166 0
0.1686120243398951 0.1503878137274047 0
0.1182151430817313 0.2286380679937819 0
0.1290401001059034 0.2800157275692736 0
0.08736701250936901 0.5342005932576404 0
0.4775351117891068 0.4695039080704879 0
0.8981916382911931 0.837303089550662 0
0.04953122122139353 0.3843445002483316 0
0.7985298951207922 0.8896106348790056 0
0.7518874552336907 0.8596257765716088 0
0.7507291342367239 0.9139608588217423 0
0.7034223884318977 0.8839047131860276 0
0.6982158374183753 0.9454719549615136 0
0.895053838776789 0.8990539118234453 0
0.2019336920390419 0.5235485946869675 0
0.2364061603968942 0.555884836414729 0
0.1846577519838906 0.5786093528216578 0
0.5767618755568422 0.4620626871486576 0
0.1673092339840316 0.3064654893316895 0
0.8850292784008822 0.09346463861461285 0
0.9177774888475834 0.1315240173029328 0
0.116439169132673 0.5790973957327346 0
0.9044516264833264 0.6702398943126771 0
0.3624944500464478 0.48009914318592 0
0.6788804579313374 0.3588702796027557 0
0.6295358892946776 0.3825940871134196 0
0.6245873110426745 0.4939121594433684 0
0.6266555475983892 0.4378641012430097 0
0.2672859004154881 0.3162482363987721 0
0.3271562562168591 0.3099548695640151 0
0.6222112987587677 0.5493144008766275 0
0.5244020613942093 0.5997638404027028 0
0.04216457370088594 0.2488215791516025 0
0.7463751668360717 0.05573911438512169 0
0.6425554248844371 0.05503014391217731 0
0.5275479412800437 0.04633555021196645 0
0.5510074406277495 0.1007243115005094 0
0.9544746883665524 0.2545482283064942 0
0.4184073232332182 0.04761572970448258 0
0.2871907750241742 0.6189906270481158 0
0.3055980754741333 0.04774288814527194 0
0.3343551782841024 0.08812738888296906 0
0.2792867301041597 0.0936422497586834 0
0.2501628120185107 0.04768697739810718 0
0.2260147834070335 0.09451580666861331 0
0.1420954164532982 0.04589355489711122 0
0.4308419380944765 0.2884190204218865 0
0.671247698507859 0.5239379586434462 0
0.04698759404588282 0.6922080621703992 0
0.9520874930713008 0.361316150719638 0
0.9070103883352015 0.3376176294903001 0
0.9059917756635301 0.3915644227194661 0
0.9523076400238293 0.4169843322125305 0
0.9056352674178666 0.4463891411813404 0
0.05365018512959929 0.5802208058592262 0
0.04739780724443932 0.1389063542108716 0
0.08862332002242024 0.1101412408225004 0
0.09130423021682205 0.1731009464561523 0
0.2827009120598419 0.6716375085577199 0
0.4267566701005158 0.6503445385105755 0
0.7055493633010095 0.8293692952945997 0
0.2499922257530874 0.9518973502402643 0
0.2768073637017837 0.8959029964664247 0
0.3332480360836514 0.9038134828739659 0
0.3610321626419409 0.9518753911410741 0
0.3887901262610298 0.9063090089464935 0
0.3652732175092941 0.8526393321360702 0
0.4166313913521654 0.9526983498664825 0
0.4516615611511727 0.9034044235216349 0
0.2222222199928326 0.9038087394598816 0
0.1667132213546716 0.9038144047550918 0
0.1930114116241188 0.8569385167354477 0
0.1403364230762113 0.8550248690741797 0
0.1660541752999075 0.8080461362640838 0
0.1122198719860679 0.8069841685151177 0
0.1027105404356591 0.8991161153754967 0
0.4035246477377776 0.2433690638856522 0
0.5222107206906448 0.6548661815329512 0
0.528132432016256 0.9553080226008246 0
0.05629982050736826 0.8066649381046005 0
0.9518876901094219 0.8611114792444643 0
0.8621735764072369 0.9516077450409482 0
0.5930789095253064 0.2494352662116765 0
0.1375390391424491 0.9512984306067498 0
0.4655469242523365 0.7932326432673442 0
0.6616446232301323 0.7443629939463989 0
0.3696341586219598 0.7905264176313507 0
0.4162407171124456 0.8196267647102653 0
0.9009225239071655 0.7812415106183301 0
0.6085979975663924 0.8771263802746864 0
0.7546276547175594 0.8041882712894878 0
0.2753389692321409 0.8368954626552366 0
0.5734045384898931 0.5745862192600177 0
0.6125768364362278 0.7696538402843149 0
0.4482199203448194 0.09956049766052855 0
0.7623278139311457 0.6385972413743239 0
0.259089740830194 0.2615846801014233 0
0.6201897396801098 0.6043478728470106 0
0.8147891395107321 0.5028261893653025 0
0.4757025358675941 0.6251530731617213 0
0.5201107303489859 0.4303797739479597 0
0.808859544860318 0.6684175908470247 0
0.8196660758615602 0.3932818846058255 0
0.8573009833765701 0.6425897513177699 0
0.6590144440245205 0.7995565018980135 0
0.6763606624043084 0.4135494166365421 0
0.9532004529035024 0.5277022830500905 0
0.7847132810099466 0.1464431664828063 0
0.8233398667024889 0.2841886244055352 0
0.6571781316773475 0.8532975962773552 0
0.9523140119242171 0.7503708298663063 0
0.1695260216550748 0.09844859223857971 0
0.9060859855386253 0.5020217897119985 0
0.5834425073914464 0.956103974964585 0
0.5363355606313256 0.2689360804772309 0
0.9520763916047026 0.6962946880264856 0
0.8607187432681043 0.0434151266092625 0
0.03955906046881796 0.5313168630378602 0
0.08683566409525662 0.04954135116089398 0
0.9162177636654047 0.9541818188855259 0
0.04624691857650737 0.9171609569587256 0
0.2909714299397833 0.5610128220165852 0
0.9062706556359909 0.6137613466248005 0
0.09311360628317561 0.6642894097849887 0
0.7909357497584781 0.09430140155476807 0
0.9531455347497866 0.5844445231229314 0
0.9504907460696562 0.08736563418683529 0
0.2134825011018726 0.2853863449569845 0
0.3091952660741538 0.4986569233012467 0
0.09315908842184129 0.7179847083927753 0
0.6550855872539948 0.9052610607968218 0
0.8603461364342879 0.4760920045354757 0
0.3474884799097928 0.2602906828959932 0
0.8610010635342707 0.4214783045854889 0
0.6947478454393248 0.2488358144713597 0
0.8625388599741824 0.3663606926061254 0
0.5000060434023801 0.08578430822039507 0
0.6941630807060508 0.08945234655214651 0
0.3889690339571191 0.08634616663859429 0
0.4968105759049831 0.2360644187726904 0
0.317104350786813 0.1317973965766741 0
0.6027428084646532 0.09114163762506733 0
0.09022764892147667 0.6176941875352278 0
0.8640667563388246 0.3125749704916895 0
0.3142725431509031 0.860874352999444 0
0.7500218743661924 0.9618526550878127 0
0.8408500228882001 0.9099700857210162 0
0.09202480887714087 0.7653453729714373 0
0.09286073923781718 0.849312977080087 0
0.3982419385718486 0.5140154771237243 0
0.9097996815190018 0.2861474454269263 0
0.1887927238383661 0.7675391589550582 0
0.1627372188987112 0.3540054063408503 0
0.9114627694730848 0.2322254980233482 0
0.2002042643460772 0.6246492920313462 0
0.2382566200501873 0.8625101591038402 0
0.5012286662933767 0.9181680198884972 0
0.9113741597677349 0.1793475104382534 0
0.04066948930938219 0.04066948930938219 0
0.04066948930938213 0.9593305106906179 0
0.9593305106906178 0.9593305106906178 0
0.4164820811871351 0.8673635018621305 0
0.0697443911875808 0.3352200994405757 0
0.6320309175209919 0.2091101647420629 0
0.2084896867819288 0.1360767625800878 0
0.4425403465450913 0.5006390103517619 0
0.960656449271621 0.03934355072837903 0
0.2978286794286122 0.2765152053120588 0
0.9588658983992332 0.1510676966515533 0
0.8345900408882674 0.0786766151442348 0
0.1293109769257857 0.134551316472091 0
0.6101739641511457 0.9217352123650093 0
0.02418745409039302 0.4121766711282889 0
0.4522968860598494 0.2535869545739458 0
0.07464547297368884 0.2245445721985064 0
0.1352074340417981 0.1781728630689184 0
0.1275624732205644 0.08637064186537541 0
0.08533618435271784 0.2765362740691222 0
0.1209257447950769 0.3200653420833137 0
0.2454569527697803 0.6016204095018319 0
0.3630433850959284 0.1190311429587416 0
0.4657388058934728 0.4290796342090795 0
$EndNodes
$Elements
212 1082 1 1082
0 1 15 1
1 1 
0 2 15 1
2 2 
0 3 15 1
3 3 
0 4 15 1
4 4 
0 5 15 1
5 5 
0 6 15 1
6 6 
0 7 15 1
7 7 
0 8 15 1
8 8 
0 9 15 1
9 9 
0 10 15 1
10 10 
0 11 15 1
11 11 
0 12 15 1
12 12 
0 13 15 1
13 13 
0 14 15 1
14 14 
0 15 15 1
15 15 
0 16 15 1
16 16 
0 17 15 1
17 17 
0 18 15 1
18 18 
0 19 15 1
19 19 
0 20 15 1
20 20 
0 21 15 1
21 21 
0 22 15 1
22 22 
0 23 15 1
23 23 
0 24 15 1
24 24 
0 25 15 1
25 25 
0 26 15 1
26 26 
0 27 15 1
27 27 
0 28 15 1
28 28 
0 29 15 1
29 29 
0 30 15 1
30 30 
0 31 15 1
31 31 
0 32 15 1
32 32 
0 33 15 1
33 33 
0 34 15 1
34 34 
0 35 15 1
35 35 
0 36 15 1
36 36 
0 37 15 1
37 37 
0 38 15 1
38 38 
0 39 15 1
39 39 
0 40 15 1
40 40 
0 41 15 1
41 41 
0 42 15 1
42 42 
0 43 15 1
43 43 
0 44 15 1
44 44 
0 45 15 1
45 45 
0 46 15 1
46 46 
0 47 15 1
47 47 
0 48 15 1
48 48 
0 49 15 1
49 49 
0 50 15 1
50 50 
0 51 15 1
51 51 
0 52 15 1
52 52 
0 53 15 1
53 53 
0 54 15 1
54 54 
0 55 15 1
55 55 
0 56 15 1
56 56 
0 57 15 1
57 57 
0 58 15 1
58 58 
0 59 15 1
59 59 
0 60 15 1
60 60 
0 61 15 1
61 61 
0 62 15 1
62 62 
0 63 15 1
63 63 
0 64 15 1
64 64 
0 65 15 1
65 65 
0 66 15 1
66 66 
0 67 15 1
67 67 
0 68 15 1
68 68 
0 69 15 1
69 69 
0 70 15 1
70 70 
0 71 15 1
71 71 
0 72 15 1
72 72 
0 73 15 1
73 73 
0 74 15 1
74 74 
0 75 15 1
75 75 
0 76 15 1
76 76 
0 77 15 1
77 77 
0 78 15 1
78 78 
0 79 15 1
79 79 
0 80 15 1
80 80 
0 81 15 1
81 81 
0 82 15 1
82 82 
0 83 15 1
83 83 
0 84 15 1
84 84 
0 85 15 1
85 85 
0 86 15 1
86 86 
0 87 15 1
87 87 
0 88 15 1
88 88 
0 89 15 1
89 89 
0 90 15 1
90 90 
0 91 15 1
91 91 
0 92 15 1
92 92 
0 93 15 1
93 93 
0 94 15 1
94 94 
0 95 15 1
95 95 
0 96 15 1
96 96 
0 97 15 1
97 97 
0 98 15 1
98 98 
0 99 15 1
99 99 
0 100 15 1
100 100 
0 101 15 1
101 101 
0 102 15 1
102 102 
0 103 15 1
103 103 
0 104 15 1
104 104 
0 105 15 1
105 105 
0 106 15 1
106 106 
0 107 15 1
107 107 
0 108 15 1
108 108 
0 109 15 1
109 109 
0 110 15 1
110 110 
0 111 15 1
111 111 
0 112 15 1
112 112 
0 113 15 1
113 113 
0 114 15 1
114 114 
0 115 15 1
115 115 
0 116 15 1
116 116 
0 117 15 1
117 117 
0 118 15 1
118 118 
0 119 15 1
119 119 
0 120 15 1
120 120 
0 121 15 1
121 121 
0 122 15 1
122 122 
0 123 15 1
123 123 
0 124 15 1
124 124 
0 125 15 1
125 125 
0 126 15 1
126 126 
0 127 15 1
127 127 
0 128 15 1
128 128 
0 129 15 1
129 129 
0 130 15 1
130 130 
0 131 15 1
131 131 
0 132 15 1
132 132 
0 133 15 1
133 133 
0 134 15 1
134 134 
0 135 15 1
135 135 
0 136 15 1
136 136 
0 137 15 1
137 137 
0 138 15 1
138 138 
0 139 15 1
139 139 
0 140 15 1
140 140 
0 141 15 1
141 141 
0 142 15 1
142 142 
0 143 15 1
143 143 
0 144 15 1
144 144 
0 145 15 1
145 145 
0 146 15 1
146 146 
0 147 15 1
147 147 
0 148 15 1
148 148 
0 149 15 1
149 149 
0 150 15 1
150 150 
0 151 15 1
151 151 
0 152 15 1
152 152 
0 153 15 1
153 153 
0 154 15 1
154 154 
0 155 15 1
155 155 
0 156 15 1
156 156 
0 157 15 1
157 157 
0 158 15 1
158 158 
0 159 15 1
159 159 
0 160 15 1
160 160 
0 161 15 1
161 161 
0 162 15 1
162 162 
0 163 15 1
163 163 
0 164 15 1
164 164 
0 165 15 1
165 165 
0 166 15 1
166 166 
0 167 15 1
167 167 
0 168 15 1
168 168 
0 169 15 1
169 169 
0 170 15 1
170 170 
0 171 15 1
171 171 
0 172 15 1
172 172 
0 173 15 1
173 173 
0 174 15 1
174 174 
0 175 15 1
175 175 
0 176 15 1
176 176 
0 177 15 1
177 177 
0 178 15 1
178 178 
0 179 15 1
179 179 
0 180 15 1
180 180 
0 181 15 1
181 181 
0 182 15 1
182 182 
0 183 15 1
183 183 
0 184 15 1
184 184 
0 185 15 1
185 185 
0 186 15 1
186 186 
0 187 15 1
187 187 
0 188 15 1
188 188 
0 189 15 1
189 189 
0 190 15 1
190 190 
0 191 15 1
191 191 
0 192 15 1
192 192 
0 193 15 1
193 193 
0 194 15 1
194 194 
0 195 15 1
195 195 
0 196 15 1
196 196 
0 197 15 1
197 197 
0 198 15 1
198 198 
0 199 15 1
199 199 
0 200 15 1
200 200 
0 201 15 1
201 201 
0 202 15 1
202 202 
0 203 15 1
203 203 
0 204 15 1
204 204 
1 1 1 18
205 1 205 
206 205 206 
207 206 207 
208 207 208 
209 208 209 
210 209 210 
211 210 211 
212 211 212 
213 212 213 
214 213 214 
215 214 215 
216 215 216 
217 216 217 
218 217 218 
219 218 219 
220 219 220 
221 220 221 
222 221 2 
1 2 1 18
223 2 222 
224 222 223 
225 223 224 
226 224 225 
227 225 226 
228 226 227 
229 227 228 
230 228 229 
231 229 230 
232 230 231 
233 231 232 
234 232 233 
235 233 234 
236 234 235 
237 235 236 
238 236 237 
239 237 238 
240 238 3 
1 3 1 18
241 3 239 
242 239 240 
243 240 241 
244 241 242 
245 242 243 
246 243 244 
247 244 245 
248 245 246 
249 246 247 
250 247 248 
251 248 249 
252 249 250 
253 250 251 
254 251 252 
255 252 253 
256 253 254 
257 254 255 
258 255 4 
1 4 1 18
259 4 256 
260 256 257 
261 257 258 
262 258 259 
263 259 260 
264 260 261 
265 261 262 
266 262 263 
267 263 264 
268 264 265 
269 265 266 
270 266 267 
271 267 268 
272 268 269 
273 269 270 
274 270 271 
275 271 272 
276 272 1 
1 5 1 14
277 5 273 
278 273 274 
279 274 275 
280 275 276 
281 276 277 
282 277 278 
283 278 279 
284 279 280 
285 280 281 
286 281 282 
287 282 283 
288 283 284 
289 284 285 
290 285 104 
1 6 1 14
291 105 286 
292 286 287 
293 287 288 
294 288 289 
295 289 290 
296 290 291 
297 291 292 
298 292 293 
299 293 294 
300 294 295 
301 295 296 
302 296 297 
303 297 298 
304 298 204 
1 7 1 14
305 5 299 
306 299 300 
307 300 301 
308 301 302 
309 302 303 
310 303 304 
311 304 305 
312 305 306 
313 306 307 
314 307 308 
315 308 309 
316 309 310 
317 310 311 
318 311 104 
2 1 2 764
319 266 634 265 
320 496 599 442 
321 537 582 375 
322 267 624 469 
323 418 483 478 
324 375 610 537 
325 490 589 558 
326 483 516 466 
327 403 588 481 
328 441 599 495 
329 481 588 482 
330 339 599 496 
331 425 530 426 
332 546 549 367 
333 317 590 583 
334 267 469 266 
335 448 498 445 
336 325 589 490 
337 483 604 516 
338 535 536 420 
339 384 624 267 
340 432 562 479 
341 556 600 500 
342 478 616 418 
343 425 618 530 
344 548 549 528 
345 385 548 528 
346 244 474 243 
347 223 630 588 
348 588 630 482 
349 458 506 504 
350 583 590 423 
351 312 474 244 
352 330 472 470 
353 326 556 500 
354 495 586 441 
355 495 599 339 
356 444 544 446 
357 639 640 624 
358 479 562 313 
359 445 498 443 
360 478 483 327 
361 465 640 639 
362 475 542 402 
363 367 549 548 
364 426 549 546 
365 475 581 543 
366 444 625 544 
367 468 542 475 
368 458 626 506 
369 438 596 329 
370 329 625 438 
371 273 579 264 
372 313 489 479 
373 323 538 508 
374 420 613 535 
375 452 600 556 
376 321 542 468 
377 467 562 432 
378 487 489 313 
379 402 581 475 
380 422 574 568 
381 553 606 524 
382 448 598 498 
383 468 550 321 
384 330 607 472 
385 476 478 327 
386 524 617 553 
387 416 574 422 
388 419 582 537 
389 536 610 541 
390 401 580 518 
391 317 476 276 
392 533 535 388 
393 317 477 476 
394 543 608 475 
395 478 641 616 
396 550 572 321 
397 464 636 519 
398 516 579 466 
399 323 594 538 
400 274 466 273 
401 423 590 485 
402 544 625 329 
403 477 641 478 
404 442 603 496 
405 421 572 550 
406 519 637 464 
407 584 587 315 
408 421 577 572 
409 541 609 536 
410 265 634 299 
411 487 567 489 
412 422 587 584 
413 544 576 446 
414 484 577 421 
415 316 611 485 
416 264 579 263 
417 580 638 518 
418 316 643 467 
419 467 627 316 
420 317 583 477 
421 486 567 487 
422 341 486 320 
423 312 592 474 
424 316 627 611 
425 485 611 423 
426 276 476 275 
427 536 609 420 
428 341 567 486 
429 343 567 341 
430 474 607 243 
431 541 610 375 
432 480 589 325 
433 320 486 285 
434 481 578 403 
435 477 478 476 
436 488 489 400 
437 464 639 636 
438 347 509 345 
439 305 491 323 
440 465 639 464 
441 400 509 488 
442 466 579 273 
443 279 485 278 
444 315 577 484 
445 492 509 350 
446 504 506 505 
447 400 567 343 
448 470 608 330 
449 350 559 492 
450 345 509 400 
451 304 491 305 
452 300 469 424 
453 324 515 514 
454 350 509 347 
455 324 514 229 
456 282 562 281 
457 360 539 493 
458 283 487 313 
459 268 494 384 
460 504 505 502 
461 486 487 284 
462 331 586 495 
463 217 495 339 
464 339 496 216 
465 213 497 326 
466 501 520 404 
467 502 505 209 
468 554 559 360 
469 492 559 554 
470 211 500 333 
471 365 561 539 
472 395 499 226 
473 248 529 314 
474 338 498 497 
475 511 512 395 
476 490 491 304 
477 462 480 465 
478 268 384 267 
479 333 503 502 
480 489 567 400 
481 529 530 314 
482 262 516 381 
483 493 554 360 
484 229 514 228 
485 404 520 377 
486 527 530 529 
487 227 511 395 
488 517 519 328 
489 299 469 300 
490 303 490 304 
491 539 561 493 
492 331 495 218 
493 505 506 322 
494 215 496 338 
495 522 552 471 
496 488 509 492 
497 338 497 214 
498 225 499 332 
499 451 538 454 
500 503 504 502 
501 328 494 269 
502 326 500 212 
503 518 519 517 
504 444 446 445 
505 225 332 224 
506 219 331 218 
507 333 502 210 
508 381 510 261 
509 450 538 451 
510 440 444 443 
511 217 339 216 
512 215 338 214 
513 356 539 360 
514 208 505 322 
515 263 516 262 
516 351 559 350 
517 249 529 248 
518 454 456 455 
519 213 326 212 
520 373 552 522 
521 485 590 278 
522 269 494 268 
523 211 333 210 
524 447 450 449 
525 511 513 512 
526 451 454 453 
527 208 322 207 
528 390 404 377 
529 387 521 369 
530 414 521 387 
531 401 518 517 
532 270 517 328 
533 228 511 227 
534 227 395 226 
535 322 507 207 
536 250 526 249 
537 218 495 217 
538 262 381 261 
539 216 496 215 
540 386 411 387 
541 411 423 413 
542 386 387 369 
543 230 324 229 
544 214 497 213 
545 523 531 524 
546 523 524 318 
547 411 413 387 
548 212 500 211 
549 526 529 249 
550 226 499 225 
551 209 505 208 
552 210 502 209 
553 251 523 318 
554 228 514 511 
555 430 467 432 
556 270 328 269 
557 389 390 377 
558 370 386 369 
559 524 525 318 
560 460 462 461 
561 356 360 354 
562 260 510 319 
563 537 545 419 
564 364 365 359 
565 457 558 460 
566 525 528 527 
567 104 340 336 
568 369 521 366 
569 261 510 260 
570 413 428 414 
571 334 531 523 
572 359 539 356 
573 401 517 271 
574 233 315 232 
575 417 418 390 
576 366 521 365 
577 444 445 443 
578 368 369 366 
579 251 318 250 
580 377 520 372 
581 456 558 457 
582 457 460 459 
583 446 447 445 
584 473 522 471 
585 428 430 429 
586 532 533 531 
587 248 314 247 
588 221 403 220 
589 471 552 409 
590 245 312 244 
591 271 517 270 
592 454 455 453 
593 376 377 372 
594 386 520 501 
595 334 523 252 
596 430 432 431 
597 364 366 365 
598 419 545 254 
599 386 501 411 
600 318 526 250 
601 432 479 433 
602 534 535 533 
603 479 489 488 
604 450 451 449 
605 365 539 359 
606 410 565 484 
607 207 507 206 
608 521 561 365 
609 252 523 251 
610 314 540 247 
611 334 532 531 
612 272 401 271 
613 258 541 375 
614 525 527 526 
615 413 414 387 
616 349 350 347 
617 253 334 252 
618 345 400 343 
619 260 319 259 
620 514 515 513 
621 319 541 259 
622 285 486 284 
623 472 473 471 
624 334 545 532 
625 470 471 409 
626 370 520 386 
627 532 534 533 
628 247 540 246 
629 330 543 241 
630 428 429 414 
631 236 542 321 
632 532 545 537 
633 353 354 351 
634 241 543 240 
635 355 356 354 
636 258 375 257 
637 236 321 235 
638 242 330 241 
639 259 541 258 
640 358 359 356 
641 363 364 359 
642 402 542 237 
643 237 542 236 
644 255 419 254 
645 238 402 237 
646 368 370 369 
647 462 465 464 
648 104 320 285 
649 430 431 429 
650 525 526 318 
651 376 389 377 
652 354 559 351 
653 534 536 535 
654 254 545 253 
655 432 433 431 
656 253 545 334 
657 479 488 433 
658 470 472 471 
659 379 410 407 
660 527 529 526 
661 349 351 350 
662 425 426 391 
663 472 474 473 
664 410 484 421 
665 532 537 534 
666 353 355 354 
667 389 417 390 
668 284 487 283 
669 408 409 380 
670 355 358 356 
671 358 363 359 
672 283 313 282 
673 426 546 391 
674 367 368 366 
675 364 367 366 
676 412 470 409 
677 280 316 279 
678 382 406 399 
679 277 317 276 
680 456 457 455 
681 104 392 340 
682 383 416 415 
683 410 421 407 
684 468 475 412 
685 362 373 357 
686 371 385 374 
687 511 514 513 
688 348 349 347 
689 371 372 370 
690 408 412 409 
691 352 353 351 
692 363 546 364 
693 316 485 279 
694 346 347 345 
695 408 468 412 
696 407 408 380 
697 349 352 351 
698 431 493 429 
699 383 560 416 
700 374 376 372 
701 372 520 370 
702 382 391 363 
703 368 371 370 
704 379 407 380 
705 358 382 363 
706 488 492 433 
707 352 357 353 
708 399 425 391 
709 352 361 357 
710 371 374 372 
711 361 379 362 
712 382 399 391 
713 364 546 367 
714 344 345 343 
715 374 388 376 
716 399 427 425 
717 379 380 362 
718 414 561 521 
719 382 555 406 
720 438 440 439 
721 391 546 363 
722 406 551 399 
723 535 613 388 
724 360 559 354 
725 346 348 347 
726 371 548 385 
727 361 362 357 
728 275 327 274 
729 409 552 380 
730 367 548 368 
731 353 547 355 
732 346 383 348 
733 362 552 373 
734 379 563 410 
735 407 550 408 
736 348 557 349 
737 373 547 357 
738 408 550 468 
739 460 461 459 
740 344 346 345 
741 383 415 405 
742 368 548 371 
743 385 553 374 
744 383 405 348 
745 392 438 398 
746 421 550 407 
747 416 422 415 
748 357 547 353 
749 433 554 431 
750 399 551 427 
751 440 443 442 
752 451 453 452 
753 349 557 352 
754 380 552 362 
755 447 449 448 
756 275 476 327 
757 374 553 388 
758 429 561 414 
759 355 555 358 
760 389 420 417 
761 342 394 344 
762 104 336 320 
763 431 554 493 
764 405 557 348 
765 492 554 433 
766 405 563 557 
767 462 464 461 
768 358 555 382 
769 384 639 624 
770 352 557 361 
771 302 325 303 
772 323 508 306 
773 557 563 361 
774 342 344 343 
775 547 555 355 
776 305 323 306 
777 342 343 341 
778 306 508 307 
779 493 561 429 
780 307 335 308 
781 313 562 282 
782 337 564 342 
783 327 466 274 
784 309 544 310 
785 310 329 311 
786 231 568 230 
787 325 490 303 
788 434 436 396 
789 346 560 383 
790 344 560 346 
791 394 560 344 
792 361 563 379 
793 522 566 373 
794 451 452 449 
795 397 437 435 
796 378 564 337 
797 307 508 335 
798 447 448 445 
799 327 483 466 
800 457 459 458 
801 481 482 435 
802 484 584 315 
803 457 458 455 
804 438 439 398 
805 337 342 341 
806 393 396 340 
807 440 442 439 
808 461 463 459 
809 449 556 448 
810 437 481 435 
811 555 566 406 
812 336 378 337 
813 310 544 329 
814 563 565 410 
815 342 564 394 
816 547 566 555 
817 452 556 449 
818 439 441 398 
819 337 341 320 
820 373 566 547 
821 230 568 324 
822 300 424 301 
823 415 565 405 
824 392 398 393 
825 392 393 340 
826 397 434 396 
827 473 571 522 
828 397 435 434 
829 405 565 563 
830 321 572 235 
831 522 571 566 
832 393 397 396 
833 566 571 406 
834 336 337 320 
835 506 573 322 
836 397 569 437 
837 441 569 398 
838 436 570 396 
839 398 569 393 
840 396 570 340 
841 406 571 551 
842 568 574 324 
843 340 570 336 
844 393 569 397 
845 336 570 378 
846 325 614 480 
847 235 572 234 
848 427 575 540 
849 540 575 246 
850 245 575 312 
851 381 585 510 
852 491 594 323 
853 219 578 331 
854 233 577 315 
855 403 578 220 
856 277 590 317 
857 335 576 308 
858 530 623 426 
859 309 576 544 
860 602 642 453 
861 324 574 515 
862 572 577 234 
863 322 573 507 
864 206 580 205 
865 501 583 411 
866 240 581 239 
867 257 582 256 
868 585 591 510 
869 319 609 541 
870 422 584 415 
871 565 584 484 
872 246 575 245 
873 388 617 533 
874 231 587 568 
875 462 589 480 
876 558 589 460 
877 568 587 422 
878 308 576 309 
879 315 587 232 
880 234 577 233 
881 510 591 319 
882 220 578 219 
883 418 604 483 
884 501 641 583 
885 540 618 427 
886 427 618 425 
887 474 592 473 
888 558 629 490 
889 562 643 281 
890 538 594 454 
891 496 603 338 
892 560 593 416 
893 569 586 437 
894 507 580 206 
895 467 643 562 
896 503 642 602 
897 263 579 516 
898 506 626 573 
899 543 581 240 
900 375 582 257 
901 593 595 515 
902 498 598 497 
903 333 600 503 
904 549 623 528 
905 411 583 423 
906 574 593 515 
907 311 596 104 
908 415 584 565 
909 515 595 513 
910 469 634 266 
911 447 601 450 
912 424 614 301 
913 571 592 551 
914 104 596 392 
915 395 612 499 
916 583 641 477 
917 491 629 594 
918 499 615 332 
919 223 588 222 
920 524 606 525 
921 242 607 330 
922 416 593 574 
923 455 602 453 
924 302 614 325 
925 573 626 463 
926 280 643 316 
927 442 599 439 
928 475 608 412 
929 423 611 413 
930 417 585 418 
931 463 632 573 
932 326 598 556 
933 595 597 513 
934 537 610 534 
935 299 634 469 
936 388 613 376 
937 418 616 390 
938 519 636 328 
939 513 597 512 
940 389 613 420 
941 531 617 524 
942 530 618 314 
943 528 623 527 
944 438 625 440 
945 615 619 332 
946 430 627 467 
947 553 617 388 
948 1 620 272 
949 205 620 1 
950 256 621 4 
951 4 621 255 
952 239 622 3 
953 3 622 238 
954 224 630 223 
955 232 587 231 
956 441 586 569 
957 482 619 435 
958 460 589 462 
959 424 640 614 
960 417 591 585 
961 459 626 458 
962 528 606 385 
963 612 615 499 
964 597 605 512 
965 436 605 570 
966 472 607 474 
967 482 630 619 
968 426 623 549 
969 278 590 277 
970 504 602 458 
971 330 608 543 
972 420 591 417 
973 632 638 573 
974 498 603 443 
975 473 592 571 
976 585 604 418 
977 222 628 2 
978 2 628 221 
979 394 593 560 
980 436 612 605 
981 538 635 508 
982 516 604 381 
983 454 594 456 
984 394 595 593 
985 601 635 450 
986 335 601 576 
987 507 638 580 
988 385 606 553 
989 551 633 427 
990 564 595 394 
991 556 598 448 
992 564 597 595 
993 392 596 438 
994 329 596 311 
995 490 629 491 
996 591 609 319 
997 464 637 461 
998 497 598 326 
999 503 602 504 
1000 378 597 564 
1001 427 633 575 
1002 500 600 333 
1003 450 635 538 
1004 576 601 446 
1005 338 603 498 
1006 469 624 424 
1007 439 599 441 
1008 446 601 447 
1009 458 602 455 
1010 378 605 597 
1011 443 603 442 
1012 594 629 456 
1013 525 606 528 
1014 586 631 437 
1015 243 607 242 
1016 570 605 378 
1017 412 608 470 
1018 437 631 481 
1019 534 610 536 
1020 413 611 428 
1021 512 612 395 
1022 376 613 389 
1023 592 633 551 
1024 301 614 302 
1025 481 631 578 
1026 605 612 512 
1027 580 620 205 
1028 390 616 404 
1029 611 627 428 
1030 581 622 239 
1031 582 621 256 
1032 434 615 436 
1033 600 642 503 
1034 533 617 531 
1035 331 631 586 
1036 614 640 480 
1037 436 615 612 
1038 314 618 540 
1039 434 619 615 
1040 616 641 404 
1041 221 628 403 
1042 527 623 530 
1043 381 604 585 
1044 272 620 401 
1045 255 621 419 
1046 238 622 402 
1047 435 619 434 
1048 619 630 332 
1049 440 625 444 
1050 578 631 331 
1051 335 635 601 
1052 420 609 591 
1053 428 627 430 
1054 461 637 463 
1055 332 630 224 
1056 456 629 558 
1057 463 626 459 
1058 518 632 519 
1059 494 639 384 
1060 575 633 312 
1061 636 639 494 
1062 328 636 494 
1063 404 641 501 
1064 480 640 465 
1065 453 642 452 
1066 508 635 335 
1067 624 640 424 
1068 281 643 280 
1069 401 620 580 
1070 402 622 581 
1071 419 621 582 
1072 312 633 592 
1073 573 638 507 
1074 403 628 588 
1075 518 638 632 
1076 588 628 222 
1077 452 642 600 
1078 463 637 632 
1079 632 637 519 
1080 265 5 264 
1081 264 5 273 
1082 299 5 265 
$EndElements
