$MeshFormat
4 0 8
$EndMeshFormat
$Entities
5 5 1 0
223 0 0 0 0 0 0 0 
224 1 0 0 1 0 0 0 
225 1 1 0 1 1 0 0 
226 0 1 0 0 1 0 0 
227 0.009180234420910038 0.4655869316309387 0 0.009180234420910038 0.4655869316309387 0 0 
34 0 0 0 1 0 0 0 2 223 -224 
35 1 0 0 1 1 0 0 2 224 -225 
36 0 1 0 1 1 0 0 2 225 -226 
37 0 0 0 0 1 0 0 2 226 -223 
38 0.009180234420910038 0.2799911054988076 0 0.7315146561560624 0.4870233997058034 0 0 2 227 -227 
5 0 0 0 1 1 0 0 5 34 35 36 37 38 
$EndEntities
$Nodes
11 432
223 0 0 1
1 0 0 0
224 0 0 1
2 1 0 0
225 0 0 1
3 1 1 0
226 0 0 1
4 0 1 0
227 0 0 1
5 0.009180234420910038 0.4655869316309387 0
34 1 0 17
6 0.05555555555555542 0 0
7 0.1111111111111109 0 0
8 0.1666666666666662 0 0
9 0.2222222222222216 0 0
10 0.2777777777777769 0 0
11 0.3333333333333323 0 0
12 0.3888888888888876 0 0
13 0.444444444444443 0 0
14 0.4999999999999987 0 0
15 0.5555555555555544 0 0
16 0.6111111111111101 0 0
17 0.6666666666666659 0 0
18 0.7222222222222214 0 0
19 0.7777777777777771 0 0
20 0.8333333333333329 0 0
21 0.8888888888888886 0 0
22 0.9444444444444443 0 0
35 1 0 17
23 1 0.05555555555555542 0
24 1 0.1111111111111109 0
25 1 0.1666666666666662 0
26 1 0.2222222222222216 0
27 1 0.2777777777777769 0
28 1 0.3333333333333323 0
29 1 0.3888888888888876 0
30 1 0.444444444444443 0
31 1 0.4999999999999987 0
32 1 0.5555555555555544 0
33 1 0.6111111111111101 0
34 1 0.6666666666666659 0
35 1 0.7222222222222214 0
36 1 0.7777777777777771 0
37 1 0.8333333333333329 0
38 1 0.8888888888888886 0
39 1 0.9444444444444443 0
36 1 0 17
40 0.9444444444444445 1 0
41 0.8888888888888892 1 0
42 0.8333333333333338 1 0
43 0.7777777777777785 1 0
44 0.7222222222222231 1 0
45 0.6666666666666677 1 0
46 0.6111111111111124 1 0
47 0.555555555555557 1 0
48 0.5000000000000013 1 0
49 0.4444444444444456 1 0
50 0.3888888888888899 1 0
51 0.3333333333333341 1 0
52 0.2777777777777786 1 0
53 0.2222222222222229 1 0
54 0.1666666666666671 1 0
55 0.1111111111111114 1 0
56 0.05555555555555569 1 0
37 1 0 17
57 0 0.9444444444444445 0
58 0 0.8888888888888892 0
59 0 0.8333333333333338 0
60 0 0.7777777777777785 0
61 0 0.7222222222222231 0
62 0 0.6666666666666677 0
63 0 0.6111111111111124 0
64 0 0.555555555555557 0
65 0 0.5000000000000013 0
66 0 0.4444444444444456 0
67 0 0.3888888888888899 0
68 0 0.3333333333333341 0
69 0 0.2777777777777786 0
70 0 0.2222222222222229 0
71 0 0.1666666666666671 0
72 0 0.1111111111111114 0
73 0 0.05555555555555569 0
38 1 0 27
74 0.7315146561560624 0.2799911054988076 0
75 0.05677810470512178 0.4866073605168762 0
76 0.1115159070914061 0.4870233997058034 0
77 0.1659903559674515 0.481279057679214 0
78 0.2199197740787691 0.4716384484103567 0
79 0.2732437371332914 0.4590600095258053 0
80 0.3259527898512657 0.4441062281896501 0
81 0.3781605790064057 0.4274798379593768 0
82 0.4299465129096733 0.4095814255179094 0
83 0.4813390454676363 0.3905821879804208 0
84 0.5323559277274772 0.3705957783464245 0
85 0.5830027505144052 0.3496891951390832 0
86 0.6332716500411264 0.3278895624578657 0
87 0.6831400352590382 0.3051887981397239 0
88 0.04721859514017841 0.4310288509314883 0
89 0.09771122791926448 0.4120491856110795 0
90 0.1495746813646965 0.3971216183884386 0
91 0.2019643810932551 0.3841436393676106 0
92 0.2546004321882683 0.3721987450204464 0
93 0.3073516111211091 0.3607715967199063 0
94 0.3602154778739097 0.3498781590840713 0
95 0.413166865298051 0.3394177089348739 0
96 0.4661705808244615 0.3292254100105371 0
97 0.5192047007118401 0.3191923983809951 0
98 0.5722570782527815 0.3092563455768637 0
99 0.6253234811816575 0.299395471980885 0
100 0.6784064907075561 0.2896244157138553 0
5 2 0 332
101 0.6374492789987904 0.9547620338479883 0
102 0.5780704535067961 0.4055309371564257 0
103 0.4721843645458897 0.9542308538370843 0
104 0.9531972891707718 0.6409625456229433 0
105 0.4224114200774741 0.4606195931104712 0
106 0.2559912780748999 0.5121501017850917 0
107 0.3053651498819293 0.9505815367869549 0
108 0.04696628067102937 0.7470466581996765 0
109 0.7284972119728321 0.3344578331072424 0
110 0.951887477567531 0.805555555555555 0
111 0.1961146537371342 0.04775748853373523 0
112 0.3803989441884777 0.2985549174644153 0
113 0.9528715576473039 0.4729236651000669 0
114 0.2108663714460619 0.3383756918627293 0
115 0.4722222222222209 0.04811252243246877 0
116 0.1446506481206386 0.5306263989806697 0
117 0.04501525959515756 0.1944168578468819 0
118 0.6509174947461358 0.2495558913729247 0
119 0.8019165163043227 0.9467145685072178 0
120 0.8072884686436718 0.04535537628223117 0
121 0.9537910427135076 0.1977281697755475 0
122 0.3611533280482076 0.04641414094979779 0
123 0.1942259325219884 0.9518031541769979 0
124 0.4836100403711561 0.282570713772881 0
125 0.7767583043710667 0.3093542511888283 0
126 0.7742294322235395 0.3638905016864047 0
127 0.5818671504763462 0.047277066285634 0
128 0.6943965122630895 0.04004432096988911 0
129 0.779476823768518 0.2548140583155122 0
130 0.7255230967047709 0.3890812486779982 0
131 0.7717863862229419 0.418616963907998 0
132 0.7231141427644033 0.4437478267828155 0
133 0.7693472016451688 0.4734151253803706 0
134 0.7206116422079299 0.4987190954166585 0
135 0.7669511256574488 0.5283907700138321 0
136 0.7181013865378398 0.5537315363979785 0
137 0.7648327529671799 0.5834945418797168 0
138 0.7158460028441223 0.6087970692970222 0
139 0.6690736699153892 0.5790375302854804 0
140 0.6668458931636375 0.6340963436507985 0
141 0.7133000704538996 0.6639136643832447 0
142 0.6642498804842888 0.6892279698139859 0
143 0.6177668397192841 0.6594052939032322 0
144 0.6151831345527057 0.7145291142225282 0
145 0.5687212462609484 0.6846956243833094 0
146 0.7107190409015 0.7190693935727825 0
147 0.566124047950141 0.7398331403850418 0
148 0.5196563209372437 0.7099932319491876 0
149 0.5711158577058482 0.6296108387215373 0
150 0.7598028521452691 0.6937509348553552 0
151 0.7572346545804234 0.7489519770761043 0
152 0.5166381331345521 0.7656235186360304 0
153 0.4698841106688339 0.7361737575921904 0
154 0.4730578955736212 0.6803259582588861 0
155 0.4237308606018759 0.7060230625159494 0
156 0.419979917618482 0.7627702851971017 0
157 0.3742555912438744 0.7319826553774293 0
158 0.377497968344503 0.675915534827398 0
159 0.3285295135998976 0.7012385149880116 0
160 0.3249095539618125 0.7573126844547586 0
161 0.2795815785465559 0.7261797270161645 0
162 0.7081316301258573 0.7742497388462311 0
163 0.2761796356374851 0.7818172206432715 0
164 0.0498218642964624 0.865951756483766 0
165 0.2313538092154906 0.7497287969902684 0
166 0.2331922968212336 0.695862242487719 0
167 0.8200998825786102 0.338275154164068 0
168 0.806368914683358 0.7235968093431122 0
169 0.803806916647949 0.7788616335317805 0
170 0.04660564707042192 0.6387182627306403 0
171 0.5634373541301083 0.795109704992252 0
172 0.8130387537795241 0.5578406262690789 0
173 0.03944902984823692 0.2943378127544826 0
174 0.320746430650824 0.8127313969954558 0
175 0.3318000687278549 0.6465018156386901 0
176 0.3806570133876979 0.6210329762126895 0
177 0.2241410492710995 0.8090679216210294 0
178 0.1850739463364847 0.7194551804790106 0
179 0.187775265691723 0.6677486948490395 0
180 0.5143896366813371 0.8203720317787129 0
181 0.734727605564374 0.2246695863315125 0
182 0.7823777352107149 0.2005847459292036 0
183 0.816156000534827 0.4476184120634102 0
184 0.9538953752153426 0.3084567608424112 0
185 0.8269274343432792 0.2299245646780881 0
186 0.8297781437686407 0.175973918591312 0
187 0.7365160622597187 0.171235253210294 0
188 0.5609271818403998 0.8502813371254128 0
189 0.6737628340875939 0.4686217596943067 0
190 0.04704336253265173 0.08357087178836858 0
191 0.9528809923380301 0.9168337044437674 0
192 0.9154327594222674 0.0437104127063847 0
193 0.2394200777854718 0.6467514624126288 0
194 0.8110359454881444 0.613134668346151 0
195 0.6102886576124994 0.8241708934753391 0
196 0.8532541424220468 0.7529948038008617 0
197 0.850728478103421 0.8078700961227088 0
198 0.8010996687981475 0.833794888441161 0
199 0.8554551056459199 0.6975241365149243 0
200 0.336841392502222 0.5917046555282444 0
201 0.8470176129654726 0.8626129182523752 0
202 0.3873555183336195 0.5665364477805293 0
203 0.4301968161292055 0.5957894965317333 0
204 0.8590544233544543 0.5860179032802503 0
205 0.8599198749010128 0.5303954683225325 0
206 0.1404780032169492 0.6924136645268996 0
207 0.1445473869902125 0.6313635489407644 0
208 0.08357712329829586 0.952958736660302 0
209 0.139686088282394 0.7539669128720546 0
210 0.9030789669978964 0.7247776438565975 0
211 0.9062794878472287 0.5573905523521007 0
212 0.3475166659113458 0.5353375781560417 0
213 0.1083707475644539 0.3671343586854316 0
214 0.5072077888979002 0.8739391913829208 0
215 0.4602385686924655 0.8479046157255432 0
216 0.5571015054509881 0.9075231626574192 0
217 0.4364431275068575 0.5441478752769704 0
218 0.4793418284794355 0.5712985261458714 0
219 0.4819674790956471 0.5199342473854324 0
220 0.5272612867811853 0.5456371500210524 0
221 0.5265643570322917 0.4911720109398034 0
222 0.5751317779436091 0.5194474379482545 0
223 0.8710757027473568 0.2044986895258797 0
224 0.8745591719625478 0.1513992680958813 0
225 0.867778701854006 0.2582599654252444 0
226 0.8332676109647937 0.1233765014139359 0
227 0.6829832012611248 0.2021292031713549 0
228 0.6900631623259931 0.1432834632784822 0
229 0.641905458208238 0.1674119397934232 0
230 0.7405775928985062 0.1167235860238056 0
231 0.6445898748799973 0.1140312613937714 0
232 0.5961093146906127 0.1378680372013317 0
233 0.5921153006306554 0.1922204236299735 0
234 0.5480940798203937 0.1611844765160406 0
235 0.5443692660239975 0.2158202172970903 0
236 0.4991829906018353 0.1861072368152752 0
237 0.5010326925370669 0.1341886592965023 0
238 0.451501653492877 0.1581646207193536 0
239 0.4512934481351394 0.2102672749103801 0
240 0.4038793464542051 0.1862066578123168 0
241 0.4022146663388604 0.1349797749829914 0
242 0.3576746586882134 0.1605695641084138 0
243 0.3552015727442341 0.2101448318313692 0
244 0.3085138645428999 0.183464622588908 0
245 0.3048083351950607 0.2331491524567522 0
246 0.2593843913891922 0.2058998036679809 0
247 0.2570369534563232 0.1472847013355939 0
248 0.2146534022576604 0.177965013476732 0
249 0.2132240898510201 0.2321192221495166 0
250 0.1690086335757583 0.2041627167358617 0
251 0.1683799502833861 0.2561312614561846 0
252 0.1686120243398951 0.1503878137274047 0
253 0.1218460007928678 0.2275234802220027 0
254 0.1327594228416161 0.2773443694324625 0
255 0.08736701250936901 0.5342005932576404 0
256 0.4765555231654938 0.4719707116574179 0
257 0.8981916382911931 0.837303089550662 0
258 0.04953122122139353 0.3843445002483316 0
259 0.7985298951207922 0.8896106348790056 0
260 0.7518874552336907 0.8596257765716088 0
261 0.7507291342367239 0.9139608588217423 0
262 0.7034223884318977 0.8839047131860276 0
263 0.6982158374183753 0.9454719549615136 0
264 0.895053838776789 0.8990539118234453 0
265 0.2012693281037573 0.5216980326819531 0
266 0.2356693481744223 0.555018143761424 0
267 0.1846577519838906 0.5786093528216578 0
268 0.5751866962454577 0.4630510701131368 0
269 0.1681918682277874 0.3052180693554208 0
270 0.8838337944890314 0.09420965363706676 0
271 0.9158247541376406 0.132677952601918 0
272 0.1175167722758644 0.5787858145658642 0
273 0.9045632320719752 0.66931835199392 0
274 0.3624944500464478 0.48009914318592 0
275 0.6788804579313374 0.3588702796027557 0
276 0.6293735869993937 0.3822322487059469 0
277 0.6245873110426745 0.4939121594433684 0
278 0.6262235907143705 0.437816265291621 0
279 0.2671965131904253 0.3149695905053662 0
280 0.3267466176187211 0.3101633586636352 0
281 0.6222724559299224 0.5492115297379296 0
282 0.5248394613357668 0.6001919981405253 0
283 0.04074099112830019 0.2483059194781658 0
284 0.7463751668360717 0.05573911438512169 0
285 0.6425554248844371 0.05503014391217731 0
286 0.5275479412800437 0.04633555021196645 0
287 0.5510571472387852 0.1005399621938482 0
288 0.9548248114868227 0.254092979011372 0
289 0.4184073232332182 0.04761572970448258 0
290 0.287865138964159 0.6198714456092833 0
291 0.3060115265943482 0.04597845949825958 0
292 0.3359280590977626 0.08720159273012512 0
293 0.2792867301041597 0.0936422497586834 0
294 0.251237948973779 0.04698233407654857 0
295 0.2269486657847332 0.0950320214205381 0
296 0.1420954164532982 0.04589355489711122 0
297 0.4308419380944765 0.2884190204218865 0
298 0.6714015499535582 0.5238722684959536 0
299 0.04664077040774469 0.6928213213328285 0
300 0.9532008632063171 0.3628075612478213 0
301 0.908248885319533 0.3379853088890732 0
302 0.9071554299126665 0.3920008901203966 0
303 0.9531438530306924 0.4179090984971593 0
304 0.9067673376829744 0.4470709587584309 0
305 0.05446802017799284 0.5810546268277003 0
306 0.04533102872784193 0.1398346157819469 0
307 0.08789795595315371 0.1111616239208047 0
308 0.09130423021682205 0.1731009464561523 0
309 0.2833981124075288 0.6727342013587495 0
310 0.4267566701005158 0.6503445385105755 0
311 0.7057102840351454 0.8291370996781207 0
312 0.2497701110164226 0.9503494044817098 0
313 0.2769248070582953 0.8955475911944332 0
314 0.335276334417232 0.902971202200745 0
315 0.3613808706890967 0.9520933496334458 0
316 0.3887901262610298 0.9063090089464935 0
317 0.3652732175092941 0.8526393321360702 0
318 0.4178917093300873 0.9526729393231097 0
319 0.4520033293154119 0.9029411615665399 0
320 0.2222222199928326 0.9038087394598816 0
321 0.1650075944655432 0.9029983042381255 0
322 0.1926696803592969 0.8569093549601899 0
323 0.1403364230762113 0.8550248690741797 0
324 0.1660541752999075 0.8080461362640838 0
325 0.1122198719860679 0.8069841685151177 0
326 0.1021985288704695 0.899243718728848 0
327 0.4035246477377776 0.2433690638856522 0
328 0.5221822196135038 0.6549951207691946 0
329 0.5282520998728765 0.9560043352245975 0
330 0.05629982050736826 0.8066649381046005 0
331 0.9518876901094219 0.8611114792444643 0
332 0.8627100606428233 0.951653397489534 0
333 0.5933355855696493 0.2491849421538615 0
334 0.1371311594890126 0.9511673189673789 0
335 0.4655469242523365 0.7932326432673442 0
336 0.6616458277541832 0.7443810931063093 0
337 0.370234238016122 0.7895105198118468 0
338 0.4162924912126392 0.8189034830000059 0
339 0.9009225239071655 0.7812415106183301 0
340 0.6084591713310625 0.8770448771162261 0
341 0.7546451015702021 0.8041035190241677 0
342 0.2753389692321409 0.8368954626552366 0
343 0.5734045384898931 0.5745862192600177 0
344 0.612615577670693 0.7695967413465807 0
345 0.4477648050262489 0.09931311171354114 0
346 0.7622795281264887 0.6385847449347524 0
347 0.259089740830194 0.2615846801014233 0
348 0.6200798758206624 0.6043246259264993 0
349 0.8142931821587115 0.5022920677641165 0
350 0.4757025358675941 0.6251530731617213 0
351 0.519401544148375 0.4317117614861012 0
352 0.8087072215776248 0.6681968408853441 0
353 0.8176352708447285 0.3927066715022491 0
354 0.8575144306290181 0.6413255412742315 0
355 0.659261684812621 0.7991388604549894 0
356 0.6761462848669781 0.4133949381259073 0
357 0.9530637609638241 0.5287226809737751 0
358 0.7855754824768086 0.1470325677872198 0
359 0.8233398667024889 0.2841886244055352 0
360 0.6570379622462035 0.8531095841179206 0
361 0.9523140119242171 0.7503708298663063 0
362 0.1695260216550748 0.09844859223857971 0
363 0.906541359246105 0.5020992216737302 0
364 0.5832739191900782 0.9566707906825022 0
365 0.5349312078057344 0.268681505992397 0
366 0.9521922500274764 0.695719710038109 0
367 0.8607187432681043 0.0434151266092625 0
368 0.03972262747849672 0.5314836272315551 0
369 0.08683566409525662 0.04954135116089398 0
370 0.9162177636654047 0.9541818188855259 0
371 0.04624691857650737 0.9171609569587256 0
372 0.2909714299397833 0.5610128220165852 0
373 0.9056257329705392 0.6132432362743961 0
374 0.09360975750477439 0.6651659489098559 0
375 0.7909357497584781 0.09430140155476807 0
376 0.953027711825394 0.5844976136483132 0
377 0.9504907460696562 0.08736563418683529 0
378 0.2144914223048124 0.2847330859051068 0
379 0.3091952660741538 0.4986569233012467 0
380 0.09315908842184129 0.7179847083927753 0
381 0.6550855872539948 0.9052610607968218 0
382 0.8607798030096502 0.4751590721946182 0
383 0.3447514661521472 0.2619827549356472 0
384 0.861838783659838 0.420152782874205 0
385 0.6957098896870507 0.249194040417691 0
386 0.8631741681090332 0.3656159630069468 0
387 0.4999249616608732 0.08569796116966538 0
388 0.6941630807060508 0.08945234655214651 0
389 0.3889690339571191 0.08634616663859429 0
390 0.494280639832952 0.2361723172269949 0
391 0.317104350786813 0.1317973965766741 0
392 0.6032357824340355 0.09094929419735252 0
393 0.09022764892147667 0.6176941875352278 0
394 0.8654068643471121 0.3117454102196323 0
395 0.3142725431509031 0.860874352999444 0
396 0.7500218743661924 0.9618526550878127 0
397 0.8410455847620399 0.9099290861903155 0
398 0.09202480887714087 0.7653453729714373 0
399 0.09286073923781718 0.849312977080087 0
400 0.3997935880701394 0.5145632746436157 0
401 0.910269567949317 0.2837943204018469 0
402 0.1887927238383661 0.7675391589550582 0
403 0.1599822990818886 0.3520097866238241 0
404 0.9115189977531242 0.2296202724296907 0
405 0.2003714870442156 0.6252186937051846 0
406 0.2382566200501873 0.8625101591038402 0
407 0.5033498176166132 0.9189277409337124 0
408 0.9113741597677349 0.1793475104382534 0
409 0.04066948930938219 0.04066948930938219 0
410 0.04066948930938213 0.9593305106906179 0
411 0.9593305106906178 0.9593305106906178 0
412 0.4164820811871351 0.8673635018621305 0
413 0.0697443911875808 0.3352200994405757 0
414 0.6320309175209919 0.2091101647420629 0
415 0.2084896867819288 0.1360767625800878 0
416 0.4434342275831224 0.5022471404147815 0
417 0.960656449271621 0.03934355072837903 0
418 0.2978286794286122 0.2765152053120588 0
419 0.9588658983992332 0.1510676966515533 0
420 0.8345900408882674 0.0786766151442348 0
421 0.130018356571218 0.1329404135462058 0
422 0.6101739641511457 0.9217352123650093 0
423 0.02418745409039302 0.4121766711282889 0
424 0.4522968860598494 0.2535869545739458 0
425 0.07464547297368884 0.2245445721985064 0
426 0.1361578490993123 0.1776230741375254 0
427 0.1275624732205644 0.08637064186537541 0
428 0.08573015050962392 0.2753345136585013 0
429 0.1209257447950769 0.3200653420833137 0
430 0.2454569527697803 0.6016204095018319 0
431 0.3630433850959284 0.1190311429587416 0
432 0.4657388058934728 0.4290796342090795 0
$EndNodes
$Elements
11 870
223 0 15 1
19213 1 
224 0 15 1
19214 2 
225 0 15 1
19233 3 
226 0 15 1
19252 4 
227 0 15 1
19290 5 
34 1 1 18
19215 1 6 
19216 6 7 
19217 7 8 
19218 8 9 
19219 9 10 
19220 10 11 
19221 11 12 
19222 12 13 
19223 13 14 
19224 14 15 
19225 15 16 
19226 16 17 
19227 17 18 
19228 18 19 
19229 19 20 
19230 20 21 
19231 21 22 
19232 22 2 
35 1 1 18
19234 2 23 
19235 23 24 
19236 24 25 
19237 25 26 
19238 26 27 
19239 27 28 
19240 28 29 
19241 29 30 
19242 30 31 
19243 31 32 
19244 32 33 
19245 33 34 
19246 34 35 
19247 35 36 
19248 36 37 
19249 37 38 
19250 38 39 
19251 39 3 
36 1 1 18
19253 3 40 
19254 40 41 
19255 41 42 
19256 42 43 
19257 43 44 
19258 44 45 
19259 45 46 
19260 46 47 
19261 47 48 
19262 48 49 
19263 49 50 
19264 50 51 
19265 51 52 
19266 52 53 
19267 53 54 
19268 54 55 
19269 55 56 
19270 56 4 
37 1 1 19
19271 4 57 
19272 57 58 
19273 58 59 
19274 59 60 
19275 60 61 
19276 61 62 
19277 62 63 
19278 63 64 
19279 64 65 
19280 65 66 
19281 66 67 
19282 67 68 
19283 68 69 
19284 69 70 
19285 70 71 
19286 71 72 
19287 72 73 
19288 73 1 
19289 1 1 
38 1 1 28
19291 5 75 
19292 75 76 
19293 76 77 
19294 77 78 
19295 78 79 
19296 79 80 
19297 80 81 
19298 81 82 
19299 82 83 
19300 83 84 
19301 84 85 
19302 85 86 
19303 86 87 
19304 87 74 
19305 74 100 
19306 100 99 
19307 99 98 
19308 98 97 
19309 97 96 
19310 96 95 
19311 95 94 
19312 94 93 
19313 93 92 
19314 92 91 
19315 91 90 
19316 90 89 
19317 89 88 
19318 88 5 
5 2 2 764
107 67 423 66 
108 66 423 88 
109 88 5 66 
110 66 5 65 
111 65 5 75 
112 75 368 65 
113 65 368 64 
114 64 368 305 
115 64 305 63 
116 63 305 170 
117 63 170 62 
118 170 299 62 
119 62 299 61 
120 61 299 108 
121 61 108 60 
122 108 330 60 
123 60 330 59 
124 59 330 164 
125 59 164 58 
126 164 371 58 
127 58 371 57 
128 371 410 57 
129 57 410 4 
130 4 410 56 
131 56 410 208 
132 56 208 55 
133 208 334 55 
134 55 334 54 
135 54 334 123 
136 54 123 53 
137 123 312 53 
138 53 312 52 
139 52 312 107 
140 52 107 51 
141 107 315 51 
142 51 315 50 
143 315 318 50 
144 50 318 49 
145 49 318 103 
146 49 103 48 
147 103 329 48 
148 48 329 47 
149 329 364 47 
150 47 364 46 
151 46 364 101 
152 46 101 45 
153 101 263 45 
154 45 263 44 
155 263 396 44 
156 44 396 43 
157 43 396 119 
158 43 119 42 
159 119 332 42 
160 42 332 41 
161 332 370 41 
162 41 370 40 
163 370 411 40 
164 40 411 3 
165 3 411 39 
166 39 411 191 
167 39 191 38 
168 191 331 38 
169 38 331 37 
170 37 331 110 
171 37 110 36 
172 110 361 36 
173 36 361 35 
174 361 366 35 
175 35 366 34 
176 34 366 104 
177 34 104 33 
178 104 376 33 
179 33 376 32 
180 32 376 357 
181 32 357 31 
182 31 357 113 
183 31 113 30 
184 113 303 30 
185 30 303 29 
186 29 303 300 
187 29 300 28 
188 28 300 184 
189 28 184 27 
190 184 288 27 
191 27 288 26 
192 26 288 121 
193 26 121 25 
194 121 419 25 
195 25 419 24 
196 24 419 377 
197 24 377 23 
198 377 417 23 
199 23 417 2 
200 2 417 22 
201 22 417 192 
202 22 192 21 
203 192 367 21 
204 21 367 20 
205 20 367 120 
206 20 120 19 
207 120 284 19 
208 19 284 18 
209 18 284 128 
210 18 128 17 
211 128 285 17 
212 17 285 16 
213 16 285 127 
214 16 127 15 
215 127 286 15 
216 15 286 14 
217 14 286 115 
218 14 115 13 
219 115 289 13 
220 13 289 12 
221 12 289 122 
222 12 122 11 
223 122 291 11 
224 11 291 10 
225 291 294 10 
226 10 294 9 
227 9 294 111 
228 9 111 8 
229 111 296 8 
230 8 296 7 
231 296 369 7 
232 7 369 6 
233 369 409 6 
234 6 409 1 
235 1 409 73 
236 73 409 190 
237 73 190 72 
238 190 306 72 
239 72 306 71 
240 71 306 117 
241 71 117 70 
242 117 283 70 
243 70 283 69 
244 69 283 173 
245 69 173 68 
246 173 413 68 
247 68 413 258 
248 68 258 67 
249 258 413 213 
250 89 258 213 
251 89 213 90 
252 213 403 90 
253 90 403 91 
254 91 403 114 
255 91 114 92 
256 114 279 92 
257 92 279 93 
258 279 280 93 
259 93 280 94 
260 94 280 112 
261 94 112 95 
262 112 297 95 
263 95 297 96 
264 96 297 124 
265 96 124 97 
266 124 365 97 
267 97 365 98 
268 98 365 333 
269 98 333 99 
270 99 333 118 
271 99 118 100 
272 118 385 100 
273 100 385 74 
274 74 385 181 
275 74 181 129 
276 74 129 125 
277 74 125 109 
278 74 109 87 
279 109 275 87 
280 87 275 86 
281 275 276 86 
282 86 276 85 
283 85 276 102 
284 85 102 84 
285 102 351 84 
286 84 351 83 
287 351 432 83 
288 83 432 82 
289 82 432 105 
290 82 105 81 
291 105 274 81 
292 81 274 80 
293 274 379 80 
294 80 379 79 
295 79 379 106 
296 79 106 78 
297 106 265 78 
298 78 265 77 
299 77 265 116 
300 77 116 76 
301 116 255 76 
302 76 255 75 
303 116 272 255 
304 272 305 255 
305 272 393 305 
306 207 393 272 
307 207 272 267 
308 267 405 207 
309 207 405 179 
310 206 207 179 
311 178 206 179 
312 178 179 166 
313 165 178 166 
314 165 166 161 
315 163 165 161 
316 160 163 161 
317 160 161 159 
318 157 160 159 
319 157 159 158 
320 157 158 155 
321 156 157 155 
322 153 156 155 
323 153 155 154 
324 153 154 148 
325 152 153 148 
326 147 152 148 
327 147 148 145 
328 144 147 145 
329 144 145 143 
330 142 144 143 
331 142 143 140 
332 141 142 140 
333 138 141 140 
334 138 140 139 
335 138 139 136 
336 137 138 136 
337 135 137 136 
338 135 136 134 
339 133 135 134 
340 133 134 132 
341 131 133 132 
342 131 132 130 
343 126 131 130 
344 126 130 109 
345 126 353 131 
346 131 353 183 
347 353 384 183 
348 183 384 382 
349 183 382 349 
350 183 349 133 
351 349 382 205 
352 172 349 205 
353 172 205 204 
354 172 204 194 
355 172 194 137 
356 194 346 137 
357 194 352 346 
358 346 352 150 
359 141 346 150 
360 141 150 146 
361 150 151 146 
362 151 162 146 
363 162 336 146 
364 146 336 142 
365 162 355 336 
366 336 355 344 
367 336 344 144 
368 344 355 195 
369 171 344 195 
370 171 195 188 
371 171 188 180 
372 171 180 152 
373 180 335 152 
374 215 335 180 
375 214 215 180 
376 214 319 215 
377 319 412 215 
378 215 412 338 
379 338 412 317 
380 337 338 317 
381 174 337 317 
382 317 395 174 
383 174 395 342 
384 174 342 163 
385 163 342 177 
386 342 406 177 
387 177 406 322 
388 322 324 177 
389 324 402 177 
390 177 402 165 
391 209 402 324 
392 324 325 209 
393 325 398 209 
394 209 398 380 
395 209 380 206 
396 206 380 374 
397 374 380 299 
398 380 398 108 
399 330 398 325 
400 325 399 330 
401 323 399 325 
402 326 399 323 
403 321 326 323 
404 321 323 322 
405 321 322 320 
406 123 321 320 
407 321 334 326 
408 164 399 326 
409 323 325 324 
410 178 402 209 
411 323 324 322 
412 322 406 320 
413 320 406 313 
414 312 320 313 
415 313 406 342 
416 342 395 313 
417 313 395 314 
418 313 314 107 
419 314 395 317 
420 314 317 316 
421 314 316 315 
422 160 337 174 
423 156 338 337 
424 335 338 156 
425 317 412 316 
426 316 412 319 
427 316 319 318 
428 214 407 319 
429 319 407 103 
430 216 407 214 
431 188 216 214 
432 188 340 216 
433 340 422 216 
434 216 422 364 
435 381 422 340 
436 360 381 340 
437 195 360 340 
438 262 381 360 
439 262 360 311 
440 262 311 260 
441 261 262 260 
442 259 261 260 
443 259 260 198 
444 201 259 198 
445 197 201 198 
446 197 198 169 
447 196 197 169 
448 168 196 169 
449 168 169 151 
450 169 341 151 
451 168 199 196 
452 199 210 196 
453 210 339 196 
454 210 361 339 
455 199 273 210 
456 273 366 210 
457 199 354 273 
458 354 373 273 
459 273 373 104 
460 204 373 354 
461 211 373 204 
462 211 376 373 
463 352 354 199 
464 168 352 199 
465 196 339 197 
466 197 339 257 
467 257 339 110 
468 198 341 169 
469 197 257 201 
470 257 264 201 
471 264 397 201 
472 332 397 264 
473 257 331 264 
474 201 397 259 
475 259 397 119 
476 260 341 198 
477 119 261 259 
478 261 263 262 
479 311 341 260 
480 162 341 311 
481 311 360 355 
482 263 381 262 
483 101 422 381 
484 329 407 216 
485 215 338 335 
486 188 214 180 
487 195 340 188 
488 147 344 171 
489 355 360 195 
490 311 355 162 
491 151 341 162 
492 150 168 151 
493 150 352 168 
494 194 354 352 
495 204 354 194 
496 205 211 204 
497 205 363 211 
498 211 363 357 
499 135 349 172 
500 205 382 363 
501 363 382 304 
502 113 363 304 
503 382 384 304 
504 304 384 302 
505 303 304 302 
506 384 386 302 
507 302 386 301 
508 300 302 301 
509 386 394 301 
510 394 401 301 
511 301 401 184 
512 225 401 394 
513 225 394 359 
514 225 359 185 
515 223 225 185 
516 186 223 185 
517 182 186 185 
518 182 185 129 
519 182 358 186 
520 186 358 226 
521 186 226 224 
522 226 270 224 
523 270 271 224 
524 271 408 224 
525 224 408 223 
526 223 408 404 
527 404 408 121 
528 271 419 408 
529 270 377 271 
530 192 377 270 
531 226 420 270 
532 270 420 367 
533 375 420 226 
534 120 420 375 
535 358 375 226 
536 230 375 358 
537 230 358 187 
538 228 230 187 
539 227 228 187 
540 181 227 187 
541 181 187 182 
542 227 229 228 
543 229 231 228 
544 231 388 228 
545 285 388 231 
546 231 392 285 
547 232 392 231 
548 287 392 232 
549 234 287 232 
550 233 234 232 
551 229 233 232 
552 229 414 233 
553 233 414 333 
554 233 333 235 
555 233 235 234 
556 235 236 234 
557 236 237 234 
558 236 238 237 
559 238 345 237 
560 345 387 237 
561 237 387 287 
562 287 387 286 
563 115 387 345 
564 241 345 238 
565 240 241 238 
566 239 240 238 
567 239 327 240 
568 240 327 243 
569 240 243 242 
570 243 244 242 
571 244 391 242 
572 391 431 242 
573 242 431 241 
574 241 431 389 
575 389 431 292 
576 122 389 292 
577 292 431 391 
578 292 391 293 
579 292 293 291 
580 293 391 247 
581 247 295 293 
582 293 295 294 
583 247 415 295 
584 295 415 362 
585 295 362 111 
586 362 415 252 
587 252 421 362 
588 421 427 362 
589 362 427 296 
590 307 427 421 
591 307 421 308 
592 307 308 306 
593 421 426 308 
594 308 426 253 
595 253 425 308 
596 308 425 117 
597 253 428 425 
598 425 428 283 
599 254 428 253 
600 251 254 253 
601 251 253 250 
602 249 251 250 
603 249 250 248 
604 246 249 248 
605 246 248 247 
606 246 247 244 
607 245 246 244 
608 245 347 246 
609 245 418 347 
610 347 418 279 
611 279 378 347 
612 347 378 249 
613 383 418 245 
614 243 383 245 
615 280 418 383 
616 246 347 249 
617 250 252 248 
618 250 426 252 
619 249 378 251 
620 251 378 269 
621 269 378 114 
622 251 269 254 
623 269 429 254 
624 403 429 269 
625 254 429 428 
626 428 429 413 
627 253 426 250 
628 369 427 307 
629 190 369 307 
630 252 426 421 
631 252 415 248 
632 248 415 247 
633 247 391 244 
634 243 245 244 
635 327 383 243 
636 112 383 327 
637 239 424 327 
638 327 424 297 
639 390 424 239 
640 236 390 239 
641 124 424 390 
642 240 242 241 
643 241 389 345 
644 345 389 289 
645 236 239 238 
646 235 390 236 
647 365 390 235 
648 237 287 234 
649 127 392 287 
650 229 232 231 
651 227 414 229 
652 118 414 227 
653 228 388 230 
654 230 388 284 
655 284 375 230 
656 187 358 182 
657 186 224 223 
658 223 404 225 
659 185 359 129 
660 359 394 167 
661 125 359 167 
662 125 167 126 
663 225 404 401 
664 401 404 288 
665 167 394 386 
666 167 386 353 
667 353 386 384 
668 167 353 126 
669 132 356 130 
670 130 356 275 
671 189 356 132 
672 278 356 189 
673 277 278 189 
674 189 298 277 
675 277 298 281 
676 277 281 222 
677 268 277 222 
678 221 268 222 
679 221 222 220 
680 219 221 220 
681 219 220 218 
682 217 219 218 
683 217 218 203 
684 202 217 203 
685 202 203 176 
686 200 202 176 
687 175 200 176 
688 175 176 158 
689 176 310 158 
690 175 290 200 
691 290 372 200 
692 200 372 212 
693 372 379 212 
694 290 430 372 
695 372 430 266 
696 106 372 266 
697 266 430 267 
698 266 267 265 
699 193 430 290 
700 290 309 193 
701 193 309 166 
702 405 430 193 
703 175 309 290 
704 159 309 175 
705 200 212 202 
706 212 400 202 
707 274 400 212 
708 203 310 176 
709 203 350 310 
710 310 350 154 
711 154 350 328 
712 328 350 282 
713 149 328 282 
714 282 343 149 
715 343 348 149 
716 149 348 143 
717 281 348 343 
718 139 348 281 
719 220 343 282 
720 145 328 149 
721 282 350 218 
722 202 400 217 
723 400 416 217 
724 105 416 400 
725 256 416 105 
726 219 416 256 
727 218 350 203 
728 217 416 219 
729 220 282 218 
730 219 256 221 
731 256 351 221 
732 222 343 220 
733 221 351 268 
734 281 343 222 
735 281 298 139 
736 134 298 189 
737 268 278 277 
738 102 278 268 
739 276 356 278 
740 131 183 133 
741 134 189 132 
742 133 349 135 
743 136 298 134 
744 135 172 137 
745 137 346 138 
746 139 298 136 
747 140 348 139 
748 138 346 141 
749 141 146 142 
750 143 348 140 
751 142 336 144 
752 145 149 143 
753 144 344 147 
754 148 328 145 
755 147 171 152 
756 152 335 153 
757 154 328 148 
758 155 310 154 
759 153 335 156 
760 156 337 157 
761 158 310 155 
762 159 175 158 
763 157 337 160 
764 161 309 159 
765 160 174 163 
766 163 177 165 
767 166 309 161 
768 165 402 178 
769 179 193 166 
770 178 209 206 
771 206 374 207 
772 179 405 193 
773 267 430 405 
774 374 393 207 
775 170 393 374 
776 267 272 116 
777 265 267 116 
778 106 266 265 
779 106 379 372 
780 212 379 274 
781 105 400 274 
782 105 432 256 
783 256 432 351 
784 268 351 102 
785 276 278 102 
786 275 356 276 
787 130 275 109 
788 125 126 109 
789 129 359 125 
790 181 182 129 
791 181 385 227 
792 227 385 118 
793 333 414 118 
794 333 365 235 
795 124 390 365 
796 297 424 124 
797 112 327 297 
798 280 383 112 
799 279 418 280 
800 114 378 279 
801 114 403 269 
802 213 429 403 
803 88 258 89 
804 413 429 213 
805 173 428 413 
806 283 428 173 
807 117 425 283 
808 306 308 117 
809 190 307 306 
810 190 409 369 
811 296 427 369 
812 111 362 296 
813 294 295 111 
814 293 294 291 
815 122 292 291 
816 289 389 122 
817 115 345 289 
818 286 387 115 
819 127 287 286 
820 285 392 127 
821 128 388 285 
822 284 388 128 
823 120 375 284 
824 367 420 120 
825 270 367 192 
826 192 417 377 
827 377 419 271 
828 408 419 121 
829 288 404 121 
830 184 401 288 
831 300 301 184 
832 300 303 302 
833 113 304 303 
834 357 363 113 
835 357 376 211 
836 373 376 104 
837 104 366 273 
838 210 366 361 
839 339 361 110 
840 110 331 257 
841 264 331 191 
842 191 370 264 
843 191 411 370 
844 264 370 332 
845 119 397 332 
846 119 396 261 
847 261 396 263 
848 101 381 263 
849 364 422 101 
850 216 364 329 
851 103 407 329 
852 318 319 103 
853 316 318 315 
854 314 315 107 
855 312 313 107 
856 123 320 312 
857 123 334 321 
858 326 334 208 
859 208 371 326 
860 208 410 371 
861 326 371 164 
862 330 399 164 
863 108 398 330 
864 299 380 108 
865 170 374 299 
866 305 393 170 
867 305 368 255 
868 255 368 75 
869 88 423 258 
870 258 423 67 
$EndElements
