# vtk DataFile Version 2.0
, Created by Gmsh 4.15.2 
ASCII
DATASET UNSTRUCTURED_GRID
POINTS 62 double
1.748272691241969 -0.7431312715711993 0
1.676722142176129 0.8936071366489766 0.02230219638609932
1.720566036495317 0.8053690799439565 0
1.698770647676855 0.8501885703712658 0
1.741237012302743 0.7600368704684946 0
1.728202218919015 -0.7887668880345241 0
1.747957302951587 -0.7446573432969055 0.6100218035589399
1.421948870025042 1.2597507261343 1.817875038559226
1.38707286258757 1.298175046122449 1.912548857143022
1.479627228441417 1.191589136328411 1.638712991945303
1.505384709780913 1.159087018308896 1.541365151667409
1.693872194863264 0.860451658851538 0.6329742776805041
1.72425721120172 0.7978504060155314 0.3942758214275304
1.750773541820922 0.7370893395952138 0.2082049819155155
1.736692480592027 0.7696993984235483 0.2984119250186828
1.728834616715674 -0.7879156963264213 0.201691287563057
1.730145287482814 -0.784989117693727 0.3034812541079931
1.754620632763416 -0.7288630260960688 0.958055164716665
1.637728819384746 0.9629349161970172 0.9617697648433382
1.706325569301892 0.8355809176493072 0.03720218495212869
1.728280903028193 -0.7889538858105695 0.05044987682903114
1.748422211539104 -0.7429770001630425 0.05022570394119303
1.670756810662612 0.9041954737098448 0.6206519951738637
1.621859263017813 0.9896370536663573 0.90208864405467
1.740437426733356 0.7615784007820194 0.04706635812731228
1.729490744463942 -0.7864527695726485 0.2525862694776992
1.74921168077369 -0.7416427284643651 0.202189464437944
1.73112769651764 -0.7829267796673737 0.3541255828892202
1.738257429881682 -0.7670654957612052 1.009152072326506
1.702839359706533 0.8426829843414143 0.3811976152181289
1.750406715379013 -0.7389242769483083 0.3041046355522531
1.749775266580268 -0.7402767113373602 0.2531463759428232
1.476267192809848 1.195976910721163 1.522518659633717
1.449134573201059 1.228691564149321 1.618744759783977
1.492685429456195 1.175482522208018 1.590038765869549
1.462827818600467 1.212455944797231 1.57062948580247
1.72823917084486 -0.7892344050489897 0.6120157675411065
1.751135177246073 -0.7370732342940843 0.3548797918112997
1.518346069687268 1.142046088138382 1.49687441753768
1.489462968864001 1.179423744842393 1.477827255086428
1.389853770394837 1.29506846155878 1.797732424852379
1.730565114184855 0.7838162823527165 0.3463429807730389
1.715902613106074 0.8152213127135179 0.2863054841606494
1.709513923094589 0.8290117050764509 0.333750042135654
1.723774703477868 0.7987594401449939 0.04213722508867963
1.354876803513812 1.331558586241511 1.890930092788522
1.677976150406887 0.8908186871335938 0.5746460473581184
1.728162862520237 -0.7895707486300666 0.6628258986337696
1.404717875870677 1.279153629246455 1.865212398613237
1.372623189329099 1.313551181000859 1.844325373401544
1.747923520037965 -0.7446161900713415 0.6604287601151987
1.756429069584323 -0.7245176691615053 1.006807125051608
1.731157482499033 -0.7827772951560037 0.4064036423299624
1.743947640575835 0.7534850905588864 0.2533072501524069
1.730298026171177 0.7846197706518581 0.1960150239648418
1.723062130954959 0.7999091803382236 0.2411555366302986
1.700594066972631 0.8468174393851601 0.5872183517452689
1.735842327872145 -0.7725020911764605 0.9610114552859781
1.612361455000269 1.00475197003879 0.9493345314823038
1.646880115925631 0.9473229884180898 0.914388368154808
1.75145075885945 -0.736428282225894 0.4062998069139613
1.695342259007886 0.8573876555675212 0.0430501859893324

CELLS 21 105
4 17 51 57 28
4 6 50 36 47
4 60 37 52 27
4 30 37 16 27
4 30 31 25 16
4 26 31 15 25
4 54 55 13 53
4 55 42 53 14
4 42 43 14 41
4 43 29 41 12
4 46 22 56 11
4 23 58 59 18
4 39 32 38 10
4 32 35 10 34
4 35 33 34 9
4 40 49 7 48
4 49 45 48 8
4 1 3 19 61
4 19 3 2 44
4 44 2 24 4
4 21 0 5 20

CELL_TYPES 21
9
9
9
9
9
9
9
9
9
9
9
9
9
9
9
9
9
9
9
9
9
