$MeshFormat
4.1 0 8
$EndMeshFormat
$Entities
62 0 1 0
1 1.748272691241969 -0.7431312715711993 0 0 
2 1.676722142176129 0.8936071366489766 0.02230219638609932 0 
3 1.720566036495317 0.8053690799439565 0 0 
4 1.698770647676855 0.8501885703712658 0 0 
5 1.741237012302743 0.7600368704684946 0 0 
6 1.728202218919015 -0.7887668880345241 0 0 
7 1.747957302951587 -0.7446573432969055 0.6100218035589399 0 
8 1.421948870025042 1.2597507261343 1.817875038559226 0 
9 1.38707286258757 1.298175046122449 1.912548857143022 0 
10 1.479627228441417 1.191589136328411 1.638712991945303 0 
11 1.505384709780913 1.159087018308896 1.541365151667409 0 
12 1.693872194863264 0.860451658851538 0.6329742776805041 0 
13 1.72425721120172 0.7978504060155314 0.3942758214275304 0 
14 1.750773541820922 0.7370893395952138 0.2082049819155155 0 
15 1.736692480592027 0.7696993984235483 0.2984119250186828 0 
16 1.728834616715674 -0.7879156963264213 0.201691287563057 0 
17 1.730145287482814 -0.784989117693727 0.3034812541079931 0 
18 1.754620632763416 -0.7288630260960688 0.958055164716665 0 
19 1.637728819384746 0.9629349161970172 0.9617697648433382 0 
20 1.706325569301892 0.8355809176493072 0.03720218495212869 0 
21 1.728280903028193 -0.7889538858105695 0.05044987682903114 0 
22 1.748422211539104 -0.7429770001630425 0.05022570394119303 0 
23 1.670756810662612 0.9041954737098448 0.6206519951738637 0 
24 1.621859263017813 0.9896370536663573 0.90208864405467 0 
25 1.740437426733356 0.7615784007820194 0.04706635812731228 0 
26 1.729490744463942 -0.7864527695726485 0.2525862694776992 0 
27 1.74921168077369 -0.7416427284643651 0.202189464437944 0 
28 1.73112769651764 -0.7829267796673737 0.3541255828892202 0 
29 1.738257429881682 -0.7670654957612052 1.009152072326506 0 
30 1.702839359706533 0.8426829843414143 0.3811976152181289 0 
31 1.750406715379013 -0.7389242769483083 0.3041046355522531 0 
32 1.749775266580268 -0.7402767113373602 0.2531463759428232 0 
33 1.476267192809848 1.195976910721163 1.522518659633717 0 
34 1.449134573201059 1.228691564149321 1.618744759783977 0 
35 1.492685429456195 1.175482522208018 1.590038765869549 0 
36 1.462827818600467 1.212455944797231 1.57062948580247 0 
37 1.72823917084486 -0.7892344050489897 0.6120157675411065 0 
38 1.751135177246073 -0.7370732342940843 0.3548797918112997 0 
39 1.518346069687268 1.142046088138382 1.49687441753768 0 
40 1.489462968864001 1.179423744842393 1.477827255086428 0 
41 1.389853770394837 1.29506846155878 1.797732424852379 0 
42 1.730565114184855 0.7838162823527165 0.3463429807730389 0 
43 1.715902613106074 0.8152213127135179 0.2863054841606494 0 
44 1.709513923094589 0.8290117050764509 0.333750042135654 0 
45 1.723774703477868 0.7987594401449939 0.04213722508867963 0 
46 1.354876803513812 1.331558586241511 1.890930092788522 0 
47 1.677976150406887 0.8908186871335938 0.5746460473581184 0 
48 1.728162862520237 -0.7895707486300666 0.6628258986337696 0 
49 1.404717875870677 1.279153629246455 1.865212398613237 0 
50 1.372623189329099 1.313551181000859 1.844325373401544 0 
51 1.747923520037965 -0.7446161900713415 0.6604287601151987 0 
52 1.756429069584323 -0.7245176691615053 1.006807125051608 0 
53 1.731157482499033 -0.7827772951560037 0.4064036423299624 0 
54 1.743947640575835 0.7534850905588864 0.2533072501524069 0 
55 1.730298026171177 0.7846197706518581 0.1960150239648418 0 
56 1.723062130954959 0.7999091803382236 0.2411555366302986 0 
57 1.700594066972631 0.8468174393851601 0.5872183517452689 0 
58 1.735842327872145 -0.7725020911764605 0.9610114552859781 0 
59 1.612361455000269 1.00475197003879 0.9493345314823038 0 
60 1.646880115925631 0.9473229884180898 0.914388368154808 0 
61 1.75145075885945 -0.736428282225894 0.4062998069139613 0 
62 1.695342259007886 0.8573876555675212 0.0430501859893324 0 
2 1.354876803513812 -0.7895707486300665 0 1.756429069584323 1.331558586241511 1.912548857143022 0 0 
$EndEntities
$Nodes
63 62 1 62
0 1 0 1
1
1.748272691241969 -0.7431312715711993 0
0 2 0 1
2
1.676722142176129 0.8936071366489766 0.02230219638609932
0 3 0 1
3
1.720566036495317 0.8053690799439565 0
0 4 0 1
4
1.698770647676855 0.8501885703712658 0
0 5 0 1
5
1.741237012302743 0.7600368704684946 0
0 6 0 1
6
1.728202218919015 -0.7887668880345241 0
0 7 0 1
7
1.747957302951587 -0.7446573432969055 0.6100218035589399
0 8 0 1
8
1.421948870025042 1.2597507261343 1.817875038559226
0 9 0 1
9
1.38707286258757 1.298175046122449 1.912548857143022
0 10 0 1
10
1.479627228441417 1.191589136328411 1.638712991945303
0 11 0 1
11
1.505384709780913 1.159087018308896 1.541365151667409
0 12 0 1
12
1.693872194863264 0.860451658851538 0.6329742776805041
0 13 0 1
13
1.72425721120172 0.7978504060155314 0.3942758214275304
0 14 0 1
14
1.750773541820922 0.7370893395952138 0.2082049819155155
0 15 0 1
15
1.736692480592027 0.7696993984235483 0.2984119250186828
0 16 0 1
16
1.728834616715674 -0.7879156963264213 0.201691287563057
0 17 0 1
17
1.730145287482814 -0.784989117693727 0.3034812541079931
0 18 0 1
18
1.754620632763416 -0.7288630260960688 0.958055164716665
0 19 0 1
19
1.637728819384746 0.9629349161970172 0.9617697648433382
0 20 0 1
20
1.706325569301892 0.8355809176493072 0.03720218495212869
0 21 0 1
21
1.728280903028193 -0.7889538858105695 0.05044987682903114
0 22 0 1
22
1.748422211539104 -0.7429770001630425 0.05022570394119303
0 23 0 1
23
1.670756810662612 0.9041954737098448 0.6206519951738637
0 24 0 1
24
1.621859263017813 0.9896370536663573 0.90208864405467
0 25 0 1
25
1.740437426733356 0.7615784007820194 0.04706635812731228
0 26 0 1
26
1.729490744463942 -0.7864527695726485 0.2525862694776992
0 27 0 1
27
1.74921168077369 -0.7416427284643651 0.202189464437944
0 28 0 1
28
1.73112769651764 -0.7829267796673737 0.3541255828892202
0 29 0 1
29
1.738257429881682 -0.7670654957612052 1.009152072326506
0 30 0 1
30
1.702839359706533 0.8426829843414143 0.3811976152181289
0 31 0 1
31
1.750406715379013 -0.7389242769483083 0.3041046355522531
0 32 0 1
32
1.749775266580268 -0.7402767113373602 0.2531463759428232
0 33 0 1
33
1.476267192809848 1.195976910721163 1.522518659633717
0 34 0 1
34
1.449134573201059 1.228691564149321 1.618744759783977
0 35 0 1
35
1.492685429456195 1.175482522208018 1.590038765869549
0 36 0 1
36
1.462827818600467 1.212455944797231 1.57062948580247
0 37 0 1
37
1.72823917084486 -0.7892344050489897 0.6120157675411065
0 38 0 1
38
1.751135177246073 -0.7370732342940843 0.3548797918112997
0 39 0 1
39
1.518346069687268 1.142046088138382 1.49687441753768
0 40 0 1
40
1.489462968864001 1.179423744842393 1.477827255086428
0 41 0 1
41
1.389853770394837 1.29506846155878 1.797732424852379
0 42 0 1
42
1.730565114184855 0.7838162823527165 0.3463429807730389
0 43 0 1
43
1.715902613106074 0.8152213127135179 0.2863054841606494
0 44 0 1
44
1.709513923094589 0.8290117050764509 0.333750042135654
0 45 0 1
45
1.723774703477868 0.7987594401449939 0.04213722508867963
0 46 0 1
46
1.354876803513812 1.331558586241511 1.890930092788522
0 47 0 1
47
1.677976150406887 0.8908186871335938 0.5746460473581184
0 48 0 1
48
1.728162862520237 -0.7895707486300666 0.6628258986337696
0 49 0 1
49
1.404717875870677 1.279153629246455 1.865212398613237
0 50 0 1
50
1.372623189329099 1.313551181000859 1.844325373401544
0 51 0 1
51
1.747923520037965 -0.7446161900713415 0.6604287601151987
0 52 0 1
52
1.756429069584323 -0.7245176691615053 1.006807125051608
0 53 0 1
53
1.731157482499033 -0.7827772951560037 0.4064036423299624
0 54 0 1
54
1.743947640575835 0.7534850905588864 0.2533072501524069
0 55 0 1
55
1.730298026171177 0.7846197706518581 0.1960150239648418
0 56 0 1
56
1.723062130954959 0.7999091803382236 0.2411555366302986
0 57 0 1
57
1.700594066972631 0.8468174393851601 0.5872183517452689
0 58 0 1
58
1.735842327872145 -0.7725020911764605 0.9610114552859781
0 59 0 1
59
1.612361455000269 1.00475197003879 0.9493345314823038
0 60 0 1
60
1.646880115925631 0.9473229884180898 0.914388368154808
0 61 0 1
61
1.75145075885945 -0.736428282225894 0.4062998069139613
0 62 0 1
62
1.695342259007886 0.8573876555675212 0.0430501859893324
2 2 0 0
$EndNodes
$Elements
1 21 1 21
2 2 3 21
1 18 52 58 29 
2 7 51 37 48 
3 61 38 53 28 
4 31 38 17 28 
5 31 32 26 17 
6 27 32 16 26 
7 55 56 14 54 
8 56 43 54 15 
9 43 44 15 42 
10 44 30 42 13 
11 47 23 57 12 
12 24 59 60 19 
13 40 33 39 11 
14 33 36 11 35 
15 36 34 35 10 
16 41 50 8 49 
17 50 46 49 9 
18 2 4 20 62 
19 20 4 3 45 
20 45 3 25 5 
21 22 1 6 21 
$EndElements
