$MeshFormat
2.2 0 8
$EndMeshFormat
$PhysicalNames
1
1 1 "surface_2"
$EndPhysicalNames
$Nodes
380
1 5.7131678157e-02 -1.1077015038e-01 -5.2703176593e-01
2 5.7088125996e-02 -1.1107396201e-01 -5.2723110276e-01
3 5.7024023345e-02 -1.1150346452e-01 -5.2751329327e-01
4 5.6940036255e-02 -1.1203046097e-01 -5.2782950265e-01
5 5.6835722309e-02 -1.1264301655e-01 -5.2814252001e-01
6 5.6714810463e-02 -1.1330789853e-01 -5.2848293696e-01
7 5.6576870483e-02 -1.1401582409e-01 -5.2884555774e-01
8 5.6414792895e-02 -1.1479900335e-01 -5.2914457723e-01
9 5.6233349823e-02 -1.1562684599e-01 -5.2941761124e-01
10 5.6031250937e-02 -1.1648233275e-01 -5.2969976666e-01
11 5.5807790993e-02 -1.1738421401e-01 -5.2991406964e-01
12 5.5563927179e-02 -1.1831386404e-01 -5.3009078381e-01
13 5.5299539973e-02 -1.1926531710e-01 -5.3023290559e-01
14 5.5014783116e-02 -1.2023296477e-01 -5.3033848008e-01
15 5.4710070435e-02 -1.2121283574e-01 -5.3039472081e-01
16 5.4389907560e-02 -1.2219992718e-01 -5.3038418477e-01
17 5.4051425050e-02 -1.2318476405e-01 -5.3034028025e-01
18 5.3696543363e-02 -1.2416369940e-01 -5.3026229323e-01
19 5.3342669932e-02 -1.2512325530e-01 -5.3007815366e-01
20 5.2965898504e-02 -1.2606865114e-01 -5.2990144028e-01
21 5.2593836229e-02 -1.2698541550e-01 -5.2963813698e-01
22 5.2220288936e-02 -1.2787029265e-01 -5.2932689922e-01
23 5.1846947197e-02 -1.2872074231e-01 -5.2897464266e-01
24 5.1490349568e-02 -1.2951664632e-01 -5.2854710388e-01
25 5.1134242213e-02 -1.3027500912e-01 -5.2810427034e-01
26 5.0810445766e-02 -1.3096802146e-01 -5.2758529055e-01
27 5.0498203966e-02 -1.3160800937e-01 -5.2704806047e-01
28 5.0201802146e-02 -1.3219519313e-01 -5.2649877850e-01
29 4.9933025163e-02 -1.3271432030e-01 -5.2592841102e-01
30 4.9681868988e-02 -1.3317977962e-01 -5.2536439919e-01
31 4.9443912432e-02 -1.3360099535e-01 -5.2482730900e-01
32 4.9244443422e-02 -1.3394314447e-01 -5.2429830703e-01
33 4.9061973470e-02 -1.3424049742e-01 -5.2382528367e-01
34 4.8910122361e-02 -1.3447760268e-01 -5.2342432971e-01
35 4.8800139309e-02 -1.3464238847e-01 -5.2314188185e-01
36 5.7131678157e-02 -1.1077015038e-01 -5.2703176593e-01
37 5.7466069535e-02 -1.1067146344e-01 -5.2691827866e-01
38 5.7941513105e-02 -1.1053004230e-01 -5.2675624429e-01
39 5.8513343525e-02 -1.1035776249e-01 -5.2656098765e-01
40 5.9153498630e-02 -1.1018373623e-01 -5.2630800154e-01
41 5.9854475775e-02 -1.0998934711e-01 -5.2602801388e-01
42 6.0610747291e-02 -1.0976510566e-01 -5.2573612975e-01
43 6.1409784223e-02 -1.0954489785e-01 -5.2538884001e-01
44 6.2248208254e-02 -1.0932061427e-01 -5.2499839815e-01
45 6.3126004128e-02 -1.0907577797e-01 -5.2458174166e-01
46 6.4030497812e-02 -1.0884705795e-01 -5.2409796218e-01
47 6.4961677550e-02 -1.0861755660e-01 -5.2356515492e-01
48 6.5913520500e-02 -1.0839189734e-01 -5.2297913621e-01
49 6.6875018818e-02 -1.0818731747e-01 -5.2232426625e-01
50 6.7847031925e-02 -1.0798638725e-01 -5.2161482938e-01
51 6.8812624678e-02 -1.0781672162e-01 -5.2083075385e-01
52 6.9775129877e-02 -1.0765407286e-01 -5.1998980732e-01
53 7.0721156762e-02 -1.0751298606e-01 -5.1908447690e-01
54 7.1646261292e-02 -1.0738895663e-01 -5.1811981751e-01
55 7.2546147049e-02 -1.0727712818e-01 -5.1710338244e-01
56 7.3398213956e-02 -1.0720755966e-01 -5.1602136250e-01
57 7.4211952101e-02 -1.0715176111e-01 -5.1489647319e-01
58 7.4956557415e-02 -1.0715122973e-01 -5.1372011094e-01
59 7.5632472252e-02 -1.0719542583e-01 -5.1250576225e-01
60 7.6234476600e-02 -1.0728291817e-01 -5.1126553521e-01
61 7.6756974660e-02 -1.0741099900e-01 -5.1001491889e-01
62 7.7175897738e-02 -1.0761483975e-01 -5.0875719934e-01
63 7.7525688582e-02 -1.0783621325e-01 -5.0751596555e-01
64 7.7778015194e-02 -1.0810860248e-01 -5.0630703949e-01
65 7.7957696151e-02 -1.0839964157e-01 -5.0514414417e-01
66 7.8058025010e-02 -1.0871712017e-01 -5.0404237964e-01
67 7.8111141724e-02 -1.0902544136e-01 -5.0301062289e-01
68 7.8108746249e-02 -1.0933513044e-01 -5.0206848464e-01
69 7.8084673445e-02 -1.0960978804e-01 -5.0122967685e-01
70 7.8024657570e-02 -1.0986171776e-01 -5.0053947074e-01
71 7.7972606682e-02 -1.1003834790e-01 -5.0005326583e-01
72 5.7131678157e-02 -1.1077015038e-01 -5.2703176593e-01
73 5.6840443066e-02 -1.1056858469e-01 -5.2694035474e-01
74 5.6428201898e-02 -1.1028852979e-01 -5.2680758243e-01
75 5.5936446657e-02 -1.0995658191e-01 -5.2665062334e-01
76 5.5387327224e-02 -1.0958342651e-01 -5.2648299802e-01
77 5.4790130973e-02 -1.0919059873e-01 -5.2628883296e-01
78 5.4153001877e-02 -1.0878390452e-01 -5.2607240443e-01
79 5.3482817367e-02 -1.0835925076e-01 -5.2584689765e-01
80 5.2780387895e-02 -1.0794034106e-01 -5.2558645637e-01
81 5.2052247174e-02 -1.0751768510e-01 -5.2530903570e-01
82 5.1300267526e-02 -1.0709755818e-01 -5.2500957941e-01
83 5.0528280753e-02 -1.0669504092e-01 -5.2467550555e-01
84 4.9739139328e-02 -1.0629744094e-01 -5.2432221415e-01
85 4.8936283016e-02 -1.0593172875e-01 -5.2392990738e-01
86 4.8121663928e-02 -1.0557272341e-01 -5.2352344067e-01
87 4.7299162626e-02 -1.0523320430e-01 -5.2309289879e-01
88 4.6469767308e-02 -1.0490548209e-01 -5.2264734436e-01
89 4.5637937907e-02 -1.0460194171e-01 -5.2217692155e-01
90 4.4805018658e-02 -1.0432807179e-01 -5.2168218435e-01
91 4.3973501573e-02 -1.0407257402e-01 -5.2117118152e-01
92 4.3143314111e-02 -1.0382598975e-01 -5.2065163251e-01
93 4.2320328020e-02 -1.0360879753e-01 -5.2010850781e-01
94 4.1505639624e-02 -1.0341884719e-01 -5.1954751279e-01
95 4.0699666377e-02 -1.0324404180e-01 -5.1897431781e-01
96 7.7972606682e-02 -1.1003834790e-01 -5.0005326583e-01
97 7.8024657570e-02 -1.0986171776e-01 -5.0053947074e-01
98 7.8084673445e-02 -1.0960978804e-01 -5.0122967685e-01
99 7.8108746249e-02 -1.0933513044e-01 -5.0206848464e-01
100 7.8111141724e-02 -1.0902544136e-01 -5.0301062289e-01
101 7.8058025010e-02 -1.0871712017e-01 -5.0404237964e-01
102 7.7957696151e-02 -1.0839964157e-01 -5.0514414417e-01
103 7.7778015194e-02 -1.0810860248e-01 -5.0630703949e-01
104 7.7525688582e-02 -1.0783621325e-01 -5.0751596555e-01
105 7.7175897738e-02 -1.0761483975e-01 -5.0875719934e-01
106 7.6756974660e-02 -1.0741099900e-01 -5.1001491889e-01
107 7.6234476600e-02 -1.0728291817e-01 -5.1126553521e-01
108 7.5632472252e-02 -1.0719542583e-01 -5.1250576225e-01
109 7.4956557415e-02 -1.0715122973e-01 -5.1372011094e-01
110 7.4211952101e-02 -1.0715176111e-01 -5.1489647319e-01
111 7.3398213956e-02 -1.0720755966e-01 -5.1602136250e-01
112 7.2546147049e-02 -1.0727712818e-01 -5.1710338244e-01
113 7.1646261292e-02 -1.0738895663e-01 -5.1811981751e-01
114 7.0721156762e-02 -1.0751298606e-01 -5.1908447690e-01
115 6.9775129877e-02 -1.0765407286e-01 -5.1998980732e-01
116 6.8812624678e-02 -1.0781672162e-01 -5.2083075385e-01
117 6.7847031925e-02 -1.0798638725e-01 -5.2161482938e-01
118 6.6875018818e-02 -1.0818731747e-01 -5.2232426625e-01
119 6.5913520500e-02 -1.0839189734e-01 -5.2297913621e-01
120 6.4961677550e-02 -1.0861755660e-01 -5.2356515492e-01
121 6.4030497812e-02 -1.0884705795e-01 -5.2409796218e-01
122 6.3126004128e-02 -1.0907577797e-01 -5.2458174166e-01
123 6.2248208254e-02 -1.0932061427e-01 -5.2499839815e-01
124 6.1409784223e-02 -1.0954489785e-01 -5.2538884001e-01
125 6.0610747291e-02 -1.0976510566e-01 -5.2573612975e-01
126 5.9854475775e-02 -1.0998934711e-01 -5.2602801388e-01
127 5.9153498630e-02 -1.1018373623e-01 -5.2630800154e-01
128 5.8513343525e-02 -1.1035776249e-01 -5.2656098765e-01
129 5.7941513105e-02 -1.1053004230e-01 -5.2675624429e-01
130 5.7466069535e-02 -1.1067146344e-01 -5.2691827866e-01
131 5.7131678157e-02 -1.1077015038e-01 -5.2703176593e-01
132 7.7972606682e-02 -1.1003834790e-01 -5.0005326583e-01
133 7.8277220842e-02 -1.1042370889e-01 -4.9987670426e-01
134 7.8696404423e-02 -1.1098963024e-01 -4.9962400622e-01
135 7.9180794787e-02 -1.1169196936e-01 -4.9931782927e-01
136 7.9718102092e-02 -1.1249834050e-01 -4.9896036116e-01
137 8.0260752570e-02 -1.1342274795e-01 -4.9857193336e-01
138 8.0809148372e-02 -1.1444931594e-01 -4.9814582508e-01
139 8.1333786954e-02 -1.1558255213e-01 -4.9769725088e-01
140 8.1814838132e-02 -1.1682482056e-01 -4.9723020824e-01
141 8.2240983178e-02 -1.1816622839e-01 -4.9674330177e-01
142 8.2580207354e-02 -1.1960808645e-01 -4.9625368061e-01
143 8.2791228911e-02 -1.2114644668e-01 -4.9579416229e-01
144 8.2863192054e-02 -1.2275819115e-01 -4.9537118165e-01
145 8.2758705440e-02 -1.2441955532e-01 -4.9501410534e-01
146 8.2493900110e-02 -1.2610135283e-01 -4.9472103042e-01
147 8.2064561564e-02 -1.2778794126e-01 -4.9449150211e-01
148 8.1508714628e-02 -1.2945530540e-01 -4.9430135079e-01
149 8.0835830234e-02 -1.3108464983e-01 -4.9414745543e-01
150 8.0065630866e-02 -1.3266204819e-01 -4.9401888951e-01
151 7.9216473440e-02 -1.3417952423e-01 -4.9390907829e-01
152 7.8302622989e-02 -1.3563217902e-01 -4.9381554214e-01
153 7.7326876735e-02 -1.3700690954e-01 -4.9374621831e-01
154 7.6308773563e-02 -1.3830466829e-01 -4.9369617886e-01
155 7.5196591041e-02 -1.3947133410e-01 -4.9372242283e-01
156 7.4038964643e-02 -1.4052785709e-01 -4.9379008303e-01
157 7.2812497259e-02 -1.4141269369e-01 -4.9395211585e-01
158 7.1561879977e-02 -1.4204823826e-01 -4.9421060392e-01
159 7.0318271784e-02 -1.4247792784e-01 -4.9454069240e-01
160 6.9136002941e-02 -1.4277009588e-01 -4.9489196660e-01
161 6.8038835593e-02 -1.4299093445e-01 -4.9522325146e-01
162 6.7027952772e-02 -1.4312424700e-01 -4.9554520248e-01
163 6.6118186323e-02 -1.4321867202e-01 -4.9583676843e-01
164 6.5320914931e-02 -1.4328746488e-01 -4.9609092748e-01
165 6.4670722935e-02 -1.4329780453e-01 -4.9631517851e-01
166 6.4217092887e-02 -1.4330424528e-01 -4.9646981866e-01
167 7.7972606682e-02 -1.1003834790e-01 -5.0005326583e-01
168 7.7616627926e-02 -1.0982827776e-01 -4.9974215711e-01
169 7.7118972302e-02 -1.0953189577e-01 -4.9930977592e-01
170 7.6517117638e-02 -1.0919281934e-01 -4.9880897292e-01
171 7.5856504742e-02 -1.0880911908e-01 -4.9825564590e-01
172 7.5148543485e-02 -1.0839265380e-01 -4.9766633518e-01
173 7.4387139630e-02 -1.0796308174e-01 -4.9705877842e-01
174 7.3581534358e-02 -1.0752775892e-01 -4.9643867286e-01
175 7.2739848900e-02 -1.0708504429e-01 -4.9580947079e-01
176 7.1858391179e-02 -1.0664720838e-01 -4.9518188818e-01
177 7.0944899514e-02 -1.0621093641e-01 -4.9455737508e-01
178 7.0004181859e-02 -1.0577739995e-01 -4.9393957491e-01
179 6.9027387132e-02 -1.0536481710e-01 -4.9333744425e-01
180 6.8005343537e-02 -1.0499555149e-01 -4.9276368277e-01
181 6.6958374475e-02 -1.0464813353e-01 -4.9221116760e-01
182 6.5880700327e-02 -1.0433978972e-01 -4.9168845551e-01
183 6.4781545880e-02 -1.0406935762e-01 -4.9120158675e-01
184 6.3668436295e-02 -1.0383312425e-01 -4.9074267345e-01
185 6.2541372554e-02 -1.0365107940e-01 -4.9033234481e-01
186 6.1410083226e-02 -1.0350182041e-01 -4.8995439067e-01
187 6.0283148688e-02 -1.0338330502e-01 -4.8960301260e-01
188 5.9154277355e-02 -1.0332798227e-01 -4.8930558984e-01
189 5.8041422243e-02 -1.0329596980e-01 -4.8902780435e-01
190 5.6940508343e-02 -1.0332714623e-01 -4.8879237029e-01
191 6.4217092887e-02 -1.4330424528e-01 -4.9646981866e-01
192 6.4113954514e-02 -1.4347508362e-01 -4.9690300531e-01
193 6.3958781049e-02 -1.4372424519e-01 -4.9750947877e-01
194 6.3760908293e-02 -1.4401828599e-01 -4.9823215243e-01
195 6.3523634062e-02 -1.4432712078e-01 -4.9904554106e-01
196 6.3245633586e-02 -1.4465506200e-01 -4.9992597728e-01
197 6.2926953594e-02 -1.4498366942e-01 -5.0086627815e-01
198 6.2564852866e-02 -1.4531754187e-01 -5.0185344219e-01
199 6.2163696576e-02 -1.4561268696e-01 -5.0289325272e-01
200 6.1714455524e-02 -1.4590291936e-01 -5.0396484690e-01
201 6.1241175547e-02 -1.4607372576e-01 -5.0508939911e-01
202 6.0722567962e-02 -1.4620717287e-01 -5.0623373466e-01
203 6.0204954289e-02 -1.4616046083e-01 -5.0740726761e-01
204 5.9656936041e-02 -1.4604112539e-01 -5.0857857237e-01
205 5.9135260493e-02 -1.4572776717e-01 -5.0973052137e-01
206 5.8587448762e-02 -1.4537101262e-01 -5.1085366421e-01
207 5.8046569914e-02 -1.4490328273e-01 -5.1193483730e-01
208 5.7488629710e-02 -1.4440008327e-01 -5.1297543821e-01
209 5.6920983929e-02 -1.4385516003e-01 -5.1396983345e-01
210 5.6342196039e-02 -1.4328298557e-01 -5.1491633363e-01
211 5.5754024916e-02 -1.4269159067e-01 -5.1581307942e-01
212 5.5155927939e-02 -1.4209373761e-01 -5.1666023034e-01
213 5.4555154616e-02 -1.4148955269e-01 -5.1745516328e-01
214 5.3963331806e-02 -1.4087276881e-01 -5.1819424580e-01
215 5.3384431477e-02 -1.4024862363e-01 -5.1887694308e-01
216 5.2808004531e-02 -1.3964543128e-01 -5.1951357507e-01
217 5.2267522050e-02 -1.3902197355e-01 -5.2008724914e-01
218 5.1749500233e-02 -1.3840819194e-01 -5.2061060704e-01
219 5.1264331628e-02 -1.3779830804e-01 -5.2107936496e-01
220 5.0792832474e-02 -1.3722792595e-01 -5.2151261694e-01
221 5.0353646669e-02 -1.3667965434e-01 -5.2189936853e-01
222 4.9962812882e-02 -1.3614265003e-01 -5.2222848840e-01
223 4.9601965474e-02 -1.3565476179e-01 -5.2252149569e-01
224 4.9264831537e-02 -1.3524430773e-01 -5.2278959009e-01
225 4.8986001999e-02 -1.3489955056e-01 -5.2300562006e-01
226 4.8800139309e-02 -1.3464238847e-01 -5.2314188185e-01
227 6.4217092887e-02 -1.4330424528e-01 -4.9646981866e-01
228 6.3867076546e-02 -1.4314003941e-01 -4.9619157652e-01
229 6.3376594327e-02 -1.4288136764e-01 -4.9581860037e-01
230 6.2796206718e-02 -1.4255946407e-01 -4.9539410730e-01
231 6.2151142601e-02 -1.4219417540e-01 -4.9493884753e-01
232 6.1461600332e-02 -1.4177501202e-01 -4.9447860321e-01
233 6.0737004311e-02 -1.4131476804e-01 -4.9401921227e-01
234 5.9986073553e-02 -1.4081954608e-01 -4.9356806547e-01
235 5.9213186566e-02 -1.4029870366e-01 -4.9312719629e-01
236 5.8425011940e-02 -1.3975290029e-01 -4.9270277407e-01
237 5.7619147186e-02 -1.3920411271e-01 -4.9228534773e-01
238 5.6803949571e-02 -1.3864095055e-01 -4.9188623310e-01
239 5.5977730062e-02 -1.3807920912e-01 -4.9149802537e-01
240 5.5141760248e-02 -1.3752409986e-01 -4.9111913192e-01
241 5.4291876482e-02 -1.3699907359e-01 -4.9073368287e-01
242 5.3440297393e-02 -1.3646965601e-01 -4.9036910301e-01
243 5.2581074676e-02 -1.3596383021e-01 -4.9000366429e-01
244 5.1715559639e-02 -1.3548191215e-01 -4.8963686147e-01
245 5.0842518738e-02 -1.3504437661e-01 -4.8925040351e-01
246 4.9971411353e-02 -1.3459169442e-01 -4.8889725823e-01
247 4.9096925781e-02 -1.3415891417e-01 -4.8854483527e-01
248 4.8219775603e-02 -1.3377865582e-01 -4.8816025029e-01
249 4.7338836486e-02 -1.3343939535e-01 -4.8775429297e-01
250 4.6451356262e-02 -1.3311071694e-01 -4.8735952377e-01
251 6.4217092887e-02 -1.4330424528e-01 -4.9646981866e-01
252 6.4670722935e-02 -1.4329780453e-01 -4.9631517851e-01
253 6.5320914931e-02 -1.4328746488e-01 -4.9609092748e-01
254 6.6118186323e-02 -1.4321867202e-01 -4.9583676843e-01
255 6.7027952772e-02 -1.4312424700e-01 -4.9554520248e-01
256 6.8038835593e-02 -1.4299093445e-01 -4.9522325146e-01
257 6.9136002941e-02 -1.4277009588e-01 -4.9489196660e-01
258 7.0318271784e-02 -1.4247792784e-01 -4.9454069240e-01
259 7.1561879977e-02 -1.4204823826e-01 -4.9421060392e-01
260 7.2812497259e-02 -1.4141269369e-01 -4.9395211585e-01
261 7.4038964643e-02 -1.4052785709e-01 -4.9379008303e-01
262 7.5196591041e-02 -1.3947133410e-01 -4.9372242283e-01
263 7.6308773563e-02 -1.3830466829e-01 -4.9369617886e-01
264 7.7326876735e-02 -1.3700690954e-01 -4.9374621831e-01
265 7.8302622989e-02 -1.3563217902e-01 -4.9381554214e-01
266 7.9216473440e-02 -1.3417952423e-01 -4.9390907829e-01
267 8.0065630866e-02 -1.3266204819e-01 -4.9401888951e-01
268 8.0835830234e-02 -1.3108464983e-01 -4.9414745543e-01
269 8.1508714628e-02 -1.2945530540e-01 -4.9430135079e-01
270 8.2064561564e-02 -1.2778794126e-01 -4.9449150211e-01
271 8.2493900110e-02 -1.2610135283e-01 -4.9472103042e-01
272 8.2758705440e-02 -1.2441955532e-01 -4.9501410534e-01
273 8.2863192054e-02 -1.2275819115e-01 -4.9537118165e-01
274 8.2791228911e-02 -1.2114644668e-01 -4.9579416229e-01
275 8.2580207354e-02 -1.1960808645e-01 -4.9625368061e-01
276 8.2240983178e-02 -1.1816622839e-01 -4.9674330177e-01
277 8.1814838132e-02 -1.1682482056e-01 -4.9723020824e-01
278 8.1333786954e-02 -1.1558255213e-01 -4.9769725088e-01
279 8.0809148372e-02 -1.1444931594e-01 -4.9814582508e-01
280 8.0260752570e-02 -1.1342274795e-01 -4.9857193336e-01
281 7.9718102092e-02 -1.1249834050e-01 -4.9896036116e-01
282 7.9180794787e-02 -1.1169196936e-01 -4.9931782927e-01
283 7.8696404423e-02 -1.1098963024e-01 -4.9962400622e-01
284 7.8277220842e-02 -1.1042370889e-01 -4.9987670426e-01
285 7.7972606682e-02 -1.1003834790e-01 -5.0005326583e-01
286 4.8800139309e-02 -1.3464238847e-01 -5.2314188185e-01
287 4.8986001999e-02 -1.3489955056e-01 -5.2300562006e-01
288 4.9264831537e-02 -1.3524430773e-01 -5.2278959009e-01
289 4.9601965474e-02 -1.3565476179e-01 -5.2252149569e-01
290 4.9962812882e-02 -1.3614265003e-01 -5.2222848840e-01
291 5.0353646669e-02 -1.3667965434e-01 -5.2189936853e-01
292 5.0792832474e-02 -1.3722792595e-01 -5.2151261694e-01
293 5.1264331628e-02 -1.3779830804e-01 -5.2107936496e-01
294 5.1749500233e-02 -1.3840819194e-01 -5.2061060704e-01
295 5.2267522050e-02 -1.3902197355e-01 -5.2008724914e-01
296 5.2808004531e-02 -1.3964543128e-01 -5.1951357507e-01
297 5.3384431477e-02 -1.4024862363e-01 -5.1887694308e-01
298 5.3963331806e-02 -1.4087276881e-01 -5.1819424580e-01
299 5.4555154616e-02 -1.4148955269e-01 -5.1745516328e-01
300 5.5155927939e-02 -1.4209373761e-01 -5.1666023034e-01
301 5.5754024916e-02 -1.4269159067e-01 -5.1581307942e-01
302 5.6342196039e-02 -1.4328298557e-01 -5.1491633363e-01
303 5.6920983929e-02 -1.4385516003e-01 -5.1396983345e-01
304 5.7488629710e-02 -1.4440008327e-01 -5.1297543821e-01
305 5.8046569914e-02 -1.4490328273e-01 -5.1193483730e-01
306 5.8587448762e-02 -1.4537101262e-01 -5.1085366421e-01
307 5.9135260493e-02 -1.4572776717e-01 -5.0973052137e-01
308 5.9656936041e-02 -1.4604112539e-01 -5.0857857237e-01
309 6.0204954289e-02 -1.4616046083e-01 -5.0740726761e-01
310 6.0722567962e-02 -1.4620717287e-01 -5.0623373466e-01
311 6.1241175547e-02 -1.4607372576e-01 -5.0508939911e-01
312 6.1714455524e-02 -1.4590291936e-01 -5.0396484690e-01
313 6.2163696576e-02 -1.4561268696e-01 -5.0289325272e-01
314 6.2564852866e-02 -1.4531754187e-01 -5.0185344219e-01
315 6.2926953594e-02 -1.4498366942e-01 -5.0086627815e-01
316 6.3245633586e-02 -1.4465506200e-01 -4.9992597728e-01
317 6.3523634062e-02 -1.4432712078e-01 -4.9904554106e-01
318 6.3760908293e-02 -1.4401828599e-01 -4.9823215243e-01
319 6.3958781049e-02 -1.4372424519e-01 -4.9750947877e-01
320 6.4113954514e-02 -1.4347508362e-01 -4.9690300531e-01
321 6.4217092887e-02 -1.4330424528e-01 -4.9646981866e-01
322 4.8800139309e-02 -1.3464238847e-01 -5.2314188185e-01
323 4.8910122361e-02 -1.3447760268e-01 -5.2342432971e-01
324 4.9061973470e-02 -1.3424049742e-01 -5.2382528367e-01
325 4.9244443422e-02 -1.3394314447e-01 -5.2429830703e-01
326 4.9443912432e-02 -1.3360099535e-01 -5.2482730900e-01
327 4.9681868988e-02 -1.3317977962e-01 -5.2536439919e-01
328 4.9933025163e-02 -1.3271432030e-01 -5.2592841102e-01
329 5.0201802146e-02 -1.3219519313e-01 -5.2649877850e-01
330 5.0498203966e-02 -1.3160800937e-01 -5.2704806047e-01
331 5.0810445766e-02 -1.3096802146e-01 -5.2758529055e-01
332 5.1134242213e-02 -1.3027500912e-01 -5.2810427034e-01
333 5.1490349568e-02 -1.2951664632e-01 -5.2854710388e-01
334 5.1846947197e-02 -1.2872074231e-01 -5.2897464266e-01
335 5.2220288936e-02 -1.2787029265e-01 -5.2932689922e-01
336 5.2593836229e-02 -1.2698541550e-01 -5.2963813698e-01
337 5.2965898504e-02 -1.2606865114e-01 -5.2990144028e-01
338 5.3342669932e-02 -1.2512325530e-01 -5.3007815366e-01
339 5.3696543363e-02 -1.2416369940e-01 -5.3026229323e-01
340 5.4051425050e-02 -1.2318476405e-01 -5.3034028025e-01
341 5.4389907560e-02 -1.2219992718e-01 -5.3038418477e-01
342 5.4710070435e-02 -1.2121283574e-01 -5.3039472081e-01
343 5.5014783116e-02 -1.2023296477e-01 -5.3033848008e-01
344 5.5299539973e-02 -1.1926531710e-01 -5.3023290559e-01
345 5.5563927179e-02 -1.1831386404e-01 -5.3009078381e-01
346 5.5807790993e-02 -1.1738421401e-01 -5.2991406964e-01
347 5.6031250937e-02 -1.1648233275e-01 -5.2969976666e-01
348 5.6233349823e-02 -1.1562684599e-01 -5.2941761124e-01
349 5.6414792895e-02 -1.1479900335e-01 -5.2914457723e-01
350 5.6576870483e-02 -1.1401582409e-01 -5.2884555774e-01
351 5.6714810463e-02 -1.1330789853e-01 -5.2848293696e-01
352 5.6835722309e-02 -1.1264301655e-01 -5.2814252001e-01
353 5.6940036255e-02 -1.1203046097e-01 -5.2782950265e-01
354 5.7024023345e-02 -1.1150346452e-01 -5.2751329327e-01
355 5.7088125996e-02 -1.1107396201e-01 -5.2723110276e-01
356 5.7131678157e-02 -1.1077015038e-01 -5.2703176593e-01
357 4.8800139309e-02 -1.3464238847e-01 -5.2314188185e-01
358 4.8504133424e-02 -1.3454979931e-01 -5.2299580317e-01
359 4.8089686292e-02 -1.3441928884e-01 -5.2279227441e-01
360 4.7586054338e-02 -1.3427988449e-01 -5.2256698939e-01
361 4.7024037300e-02 -1.3412761429e-01 -5.2232032059e-01
362 4.6418551413e-02 -1.3396201704e-01 -5.2205563222e-01
363 4.5775242932e-02 -1.3378891333e-01 -5.2177945640e-01
364 4.5087321257e-02 -1.3363211166e-01 -5.2151106665e-01
365 4.4373030937e-02 -1.3346609196e-01 -5.2123166660e-01
366 4.3632478880e-02 -1.3329766590e-01 -5.2094690331e-01
367 4.2858530411e-02 -1.3314794234e-01 -5.2067217873e-01
368 4.2064650950e-02 -1.3299255414e-01 -5.2038997803e-01
369 4.1247705903e-02 -1.3284320523e-01 -5.2010846803e-01
370 4.0408831931e-02 -1.3270118999e-01 -5.1982808134e-01
371 3.9553673500e-02 -1.3255665524e-01 -5.1954190058e-01
372 3.8678686621e-02 -1.3242239123e-01 -5.1925827034e-01
373 3.7789278875e-02 -1.3228726884e-01 -5.1896957300e-01
374 3.6886111801e-02 -1.3215290957e-01 -5.1867687826e-01
375 3.5970941273e-02 -1.3201756867e-01 -5.1837914143e-01
376 3.5045423083e-02 -1.3188031115e-01 -5.1807608664e-01
377 3.4112713704e-02 -1.3173590948e-01 -5.1776487536e-01
378 3.3174590765e-02 -1.3158390967e-01 -5.1744617195e-01
379 3.2232819148e-02 -1.3142384925e-01 -5.1712093154e-01
380 3.1294960451e-02 -1.3124222351e-01 -5.1678216135e-01
$EndNodes
$Elements
368
1 1 2 1 1 1 2
2 1 2 1 1 2 3
3 1 2 1 1 3 4
4 1 2 1 1 4 5
5 1 2 1 1 5 6
6 1 2 1 1 6 7
7 1 2 1 1 7 8
8 1 2 1 1 8 9
9 1 2 1 1 9 10
10 1 2 1 1 10 11
11 1 2 1 1 11 12
12 1 2 1 1 12 13
13 1 2 1 1 13 14
14 1 2 1 1 14 15
15 1 2 1 1 15 16
16 1 2 1 1 16 17
17 1 2 1 1 17 18
18 1 2 1 1 18 19
19 1 2 1 1 19 20
20 1 2 1 1 20 21
21 1 2 1 1 21 22
22 1 2 1 1 22 23
23 1 2 1 1 23 24
24 1 2 1 1 24 25
25 1 2 1 1 25 26
26 1 2 1 1 26 27
27 1 2 1 1 27 28
28 1 2 1 1 28 29
29 1 2 1 1 29 30
30 1 2 1 1 30 31
31 1 2 1 1 31 32
32 1 2 1 1 32 33
33 1 2 1 1 33 34
34 1 2 1 1 34 35
35 1 2 1 1 36 37
36 1 2 1 1 37 38
37 1 2 1 1 38 39
38 1 2 1 1 39 40
39 1 2 1 1 40 41
40 1 2 1 1 41 42
41 1 2 1 1 42 43
42 1 2 1 1 43 44
43 1 2 1 1 44 45
44 1 2 1 1 45 46
45 1 2 1 1 46 47
46 1 2 1 1 47 48
47 1 2 1 1 48 49
48 1 2 1 1 49 50
49 1 2 1 1 50 51
50 1 2 1 1 51 52
51 1 2 1 1 52 53
52 1 2 1 1 53 54
53 1 2 1 1 54 55
54 1 2 1 1 55 56
55 1 2 1 1 56 57
56 1 2 1 1 57 58
57 1 2 1 1 58 59
58 1 2 1 1 59 60
59 1 2 1 1 60 61
60 1 2 1 1 61 62
61 1 2 1 1 62 63
62 1 2 1 1 63 64
63 1 2 1 1 64 65
64 1 2 1 1 65 66
65 1 2 1 1 66 67
66 1 2 1 1 67 68
67 1 2 1 1 68 69
68 1 2 1 1 69 70
69 1 2 1 1 70 71
70 1 2 1 1 72 73
71 1 2 1 1 73 74
72 1 2 1 1 74 75
73 1 2 1 1 75 76
74 1 2 1 1 76 77
75 1 2 1 1 77 78
76 1 2 1 1 78 79
77 1 2 1 1 79 80
78 1 2 1 1 80 81
79 1 2 1 1 81 82
80 1 2 1 1 82 83
81 1 2 1 1 83 84
82 1 2 1 1 84 85
83 1 2 1 1 85 86
84 1 2 1 1 86 87
85 1 2 1 1 87 88
86 1 2 1 1 88 89
87 1 2 1 1 89 90
88 1 2 1 1 90 91
89 1 2 1 1 91 92
90 1 2 1 1 92 93
91 1 2 1 1 93 94
92 1 2 1 1 94 95
93 1 2 1 1 96 97
94 1 2 1 1 97 98
95 1 2 1 1 98 99
96 1 2 1 1 99 100
97 1 2 1 1 100 101
98 1 2 1 1 101 102
99 1 2 1 1 102 103
100 1 2 1 1 103 104
101 1 2 1 1 104 105
102 1 2 1 1 105 106
103 1 2 1 1 106 107
104 1 2 1 1 107 108
105 1 2 1 1 108 109
106 1 2 1 1 109 110
107 1 2 1 1 110 111
108 1 2 1 1 111 112
109 1 2 1 1 112 113
110 1 2 1 1 113 114
111 1 2 1 1 114 115
112 1 2 1 1 115 116
113 1 2 1 1 116 117
114 1 2 1 1 117 118
115 1 2 1 1 118 119
116 1 2 1 1 119 120
117 1 2 1 1 120 121
118 1 2 1 1 121 122
119 1 2 1 1 122 123
120 1 2 1 1 123 124
121 1 2 1 1 124 125
122 1 2 1 1 125 126
123 1 2 1 1 126 127
124 1 2 1 1 127 128
125 1 2 1 1 128 129
126 1 2 1 1 129 130
127 1 2 1 1 130 131
128 1 2 1 1 132 133
129 1 2 1 1 133 134
130 1 2 1 1 134 135
131 1 2 1 1 135 136
132 1 2 1 1 136 137
133 1 2 1 1 137 138
134 1 2 1 1 138 139
135 1 2 1 1 139 140
136 1 2 1 1 140 141
137 1 2 1 1 141 142
138 1 2 1 1 142 143
139 1 2 1 1 143 144
140 1 2 1 1 144 145
141 1 2 1 1 145 146
142 1 2 1 1 146 147
143 1 2 1 1 147 148
144 1 2 1 1 148 149
145 1 2 1 1 149 150
146 1 2 1 1 150 151
147 1 2 1 1 151 152
148 1 2 1 1 152 153
149 1 2 1 1 153 154
150 1 2 1 1 154 155
151 1 2 1 1 155 156
152 1 2 1 1 156 157
153 1 2 1 1 157 158
154 1 2 1 1 158 159
155 1 2 1 1 159 160
156 1 2 1 1 160 161
157 1 2 1 1 161 162
158 1 2 1 1 162 163
159 1 2 1 1 163 164
160 1 2 1 1 164 165
161 1 2 1 1 165 166
162 1 2 1 1 167 168
163 1 2 1 1 168 169
164 1 2 1 1 169 170
165 1 2 1 1 170 171
166 1 2 1 1 171 172
167 1 2 1 1 172 173
168 1 2 1 1 173 174
169 1 2 1 1 174 175
170 1 2 1 1 175 176
171 1 2 1 1 176 177
172 1 2 1 1 177 178
173 1 2 1 1 178 179
174 1 2 1 1 179 180
175 1 2 1 1 180 181
176 1 2 1 1 181 182
177 1 2 1 1 182 183
178 1 2 1 1 183 184
179 1 2 1 1 184 185
180 1 2 1 1 185 186
181 1 2 1 1 186 187
182 1 2 1 1 187 188
183 1 2 1 1 188 189
184 1 2 1 1 189 190
185 1 2 1 1 191 192
186 1 2 1 1 192 193
187 1 2 1 1 193 194
188 1 2 1 1 194 195
189 1 2 1 1 195 196
190 1 2 1 1 196 197
191 1 2 1 1 197 198
192 1 2 1 1 198 199
193 1 2 1 1 199 200
194 1 2 1 1 200 201
195 1 2 1 1 201 202
196 1 2 1 1 202 203
197 1 2 1 1 203 204
198 1 2 1 1 204 205
199 1 2 1 1 205 206
200 1 2 1 1 206 207
201 1 2 1 1 207 208
202 1 2 1 1 208 209
203 1 2 1 1 209 210
204 1 2 1 1 210 211
205 1 2 1 1 211 212
206 1 2 1 1 212 213
207 1 2 1 1 213 214
208 1 2 1 1 214 215
209 1 2 1 1 215 216
210 1 2 1 1 216 217
211 1 2 1 1 217 218
212 1 2 1 1 218 219
213 1 2 1 1 219 220
214 1 2 1 1 220 221
215 1 2 1 1 221 222
216 1 2 1 1 222 223
217 1 2 1 1 223 224
218 1 2 1 1 224 225
219 1 2 1 1 225 226
220 1 2 1 1 227 228
221 1 2 1 1 228 229
222 1 2 1 1 229 230
223 1 2 1 1 230 231
224 1 2 1 1 231 232
225 1 2 1 1 232 233
226 1 2 1 1 233 234
227 1 2 1 1 234 235
228 1 2 1 1 235 236
229 1 2 1 1 236 237
230 1 2 1 1 237 238
231 1 2 1 1 238 239
232 1 2 1 1 239 240
233 1 2 1 1 240 241
234 1 2 1 1 241 242
235 1 2 1 1 242 243
236 1 2 1 1 243 244
237 1 2 1 1 244 245
238 1 2 1 1 245 246
239 1 2 1 1 246 247
240 1 2 1 1 247 248
241 1 2 1 1 248 249
242 1 2 1 1 249 250
243 1 2 1 1 251 252
244 1 2 1 1 252 253
245 1 2 1 1 253 254
246 1 2 1 1 254 255
247 1 2 1 1 255 256
248 1 2 1 1 256 257
249 1 2 1 1 257 258
250 1 2 1 1 258 259
251 1 2 1 1 259 260
252 1 2 1 1 260 261
253 1 2 1 1 261 262
254 1 2 1 1 262 263
255 1 2 1 1 263 264
256 1 2 1 1 264 265
257 1 2 1 1 265 266
258 1 2 1 1 266 267
259 1 2 1 1 267 268
260 1 2 1 1 268 269
261 1 2 1 1 269 270
262 1 2 1 1 270 271
263 1 2 1 1 271 272
264 1 2 1 1 272 273
265 1 2 1 1 273 274
266 1 2 1 1 274 275
267 1 2 1 1 275 276
268 1 2 1 1 276 277
269 1 2 1 1 277 278
270 1 2 1 1 278 279
271 1 2 1 1 279 280
272 1 2 1 1 280 281
273 1 2 1 1 281 282
274 1 2 1 1 282 283
275 1 2 1 1 283 284
276 1 2 1 1 284 285
277 1 2 1 1 286 287
278 1 2 1 1 287 288
279 1 2 1 1 288 289
280 1 2 1 1 289 290
281 1 2 1 1 290 291
282 1 2 1 1 291 292
283 1 2 1 1 292 293
284 1 2 1 1 293 294
285 1 2 1 1 294 295
286 1 2 1 1 295 296
287 1 2 1 1 296 297
288 1 2 1 1 297 298
289 1 2 1 1 298 299
290 1 2 1 1 299 300
291 1 2 1 1 300 301
292 1 2 1 1 301 302
293 1 2 1 1 302 303
294 1 2 1 1 303 304
295 1 2 1 1 304 305
296 1 2 1 1 305 306
297 1 2 1 1 306 307
298 1 2 1 1 307 308
299 1 2 1 1 308 309
300 1 2 1 1 309 310
301 1 2 1 1 310 311
302 1 2 1 1 311 312
303 1 2 1 1 312 313
304 1 2 1 1 313 314
305 1 2 1 1 314 315
306 1 2 1 1 315 316
307 1 2 1 1 316 317
308 1 2 1 1 317 318
309 1 2 1 1 318 319
310 1 2 1 1 319 320
311 1 2 1 1 320 321
312 1 2 1 1 322 323
313 1 2 1 1 323 324
314 1 2 1 1 324 325
315 1 2 1 1 325 326
316 1 2 1 1 326 327
317 1 2 1 1 327 328
318 1 2 1 1 328 329
319 1 2 1 1 329 330
320 1 2 1 1 330 331
321 1 2 1 1 331 332
322 1 2 1 1 332 333
323 1 2 1 1 333 334
324 1 2 1 1 334 335
325 1 2 1 1 335 336
326 1 2 1 1 336 337
327 1 2 1 1 337 338
328 1 2 1 1 338 339
329 1 2 1 1 339 340
330 1 2 1 1 340 341
331 1 2 1 1 341 342
332 1 2 1 1 342 343
333 1 2 1 1 343 344
334 1 2 1 1 344 345
335 1 2 1 1 345 346
336 1 2 1 1 346 347
337 1 2 1 1 347 348
338 1 2 1 1 348 349
339 1 2 1 1 349 350
340 1 2 1 1 350 351
341 1 2 1 1 351 352
342 1 2 1 1 352 353
343 1 2 1 1 353 354
344 1 2 1 1 354 355
345 1 2 1 1 355 356
346 1 2 1 1 357 358
347 1 2 1 1 358 359
348 1 2 1 1 359 360
349 1 2 1 1 360 361
350 1 2 1 1 361 362
351 1 2 1 1 362 363
352 1 2 1 1 363 364
353 1 2 1 1 364 365
354 1 2 1 1 365 366
355 1 2 1 1 366 367
356 1 2 1 1 367 368
357 1 2 1 1 368 369
358 1 2 1 1 369 370
359 1 2 1 1 370 371
360 1 2 1 1 371 372
361 1 2 1 1 372 373
362 1 2 1 1 373 374
363 1 2 1 1 374 375
364 1 2 1 1 375 376
365 1 2 1 1 376 377
366 1 2 1 1 377 378
367 1 2 1 1 378 379
368 1 2 1 1 379 380
$EndElements
